<?xml version="1.0" encoding="UTF-8" standalone="no"?>
<svg width="800px" height="800px" viewBox="0 0 800 800" version="1.1" xmlns="http://www.w3.org/2000/svg" xmlns:xlink="http://www.w3.org/1999/xlink" xmlns:sketch="http://www.bohemiancoding.com/sketch/ns">
    <!-- Generator: Sketch 3.4.4 (17249) - http://www.bohemiancoding.com/sketch -->
    <title>bucks</title>
    <desc>Created with Sketch.</desc>
    <defs>
        <path id="path-1" d="M0,0.34982415 L645.663405,0.34982415 L645.663405,800 L0,800 L0,0.34982415 Z"></path>
    </defs>
    <g id="Page-1" stroke="none" stroke-width="1" fill="none" fill-rule="evenodd" sketch:type="MSPage">
        <g id="bucks" sketch:type="MSArtboardGroup">
            <g id="Page-1" sketch:type="MSLayerGroup" transform="translate(77.000000, 0.000000)">
                <g id="Group-3">
                    <mask id="mask-2" sketch:name="Clip 2" fill="white">
                        <use xlink:href="#path-1"></use>
                    </mask>
                    <g id="Clip-2"></g>
                    <path d="M332.342435,789.09646 C344.05013,789.47442 364.995907,787.328581 385.590087,782.866213 C467.82148,765.046753 533.206244,721.564455 580.957738,652.267386 C611.961988,607.274185 629.472432,557.234326 633.76191,502.647691 C635.96056,474.661758 634.903895,446.822134 629.638386,419.252614 C621.057556,374.32694 603.55555,333.161172 576.91391,295.898804 C567.089834,282.158124 556.046891,269.490363 544.527651,257.187433 C542.431199,254.947808 540.952618,254.550152 539.188072,257.366565 C538.451126,258.543587 537.439466,259.570551 536.446557,260.56 C534.463553,262.535147 534.788897,263.991653 536.797216,265.949918 C546.982264,275.880047 556.070331,286.778054 564.516148,298.214396 C601.954145,348.909824 621.364148,405.917093 623.598426,468.756952 C624.482574,493.60197 621.903262,518.220023 616.37429,542.506073 C601.034368,609.877702 566.677294,665.718265 513.488711,709.542884 C466.795756,748.0151 413.011802,770.141243 352.639399,776.30959 C321.308868,779.511465 290.287741,777.967737 259.70447,771.101618 C181.483152,753.542884 119.353704,711.57993 73.997753,645.470668 C43.7004467,601.312169 27.0263335,552.197984 23.0968909,498.673013 C20.9676224,469.657304 22.8915585,440.992356 29.1902929,412.696928 C41.4774192,357.496928 67.1280258,309.336553 106.492772,268.602204 C111.896107,263.011583 111.799535,263.064103 106.694354,257.217444 C104.882929,255.143822 103.827201,254.763048 101.669805,256.986729 C92.6408067,266.295991 84.0777907,275.98415 76.1729634,286.271606 C36.7388357,337.593529 15.0533001,395.490832 11.5026441,460.173599 C9.96405776,488.19517 12.0305077,515.895991 18.0873437,543.310762 C34.1538981,616.026354 71.4784467,675.704666 129.60532,721.853318 C186.015466,766.638312 250.746728,788.82823 332.342435,789.09646 L332.342435,789.09646 Z M601.735686,476.794467 C601.826633,493.080516 600.24773,509.184619 597.624351,525.214631 C597.140554,528.167972 596.286409,528.610645 593.3555,527.789074 C568.70249,520.876061 543.987599,514.183447 519.29521,507.410176 C511.00222,505.13585 511.007846,505.117093 509.127976,513.744525 C508.765129,515.413927 508.412595,517.086143 508.02912,518.750856 C497.822508,563.044408 475.147814,599.643705 439.259654,627.489894 C391.018737,664.922016 336.633788,676.706307 277.230853,662.995639 C237.024151,653.715451 203.612168,632.589074 176.727692,601.210879 C154.344589,575.085674 140.210409,545.006424 134.050438,511.244174 C133.200043,506.58204 131.965236,506.262227 127.875466,507.393294 C102.748035,514.341008 77.5287196,520.952966 52.3947254,527.877233 C49.3934975,528.704431 48.8290679,528.200797 48.3499591,525.249332 C46.6004148,514.476999 45.3965483,503.681219 44.6474134,492.781336 C42.6840984,464.2083 45.8269025,436.182978 52.9038372,408.547808 C65.2106528,360.491536 88.9420113,318.734912 122.731843,282.56891 C127.215402,277.769848 127.073826,277.816741 122.273361,273.0083 C120.19191,270.923423 118.891471,270.651442 116.647817,272.953904 C108.577036,281.238077 100.906606,289.866448 93.8681129,299.027526 C58.9578604,344.466213 38.5924525,395.58837 33.9420026,452.850739 C31.5005164,482.904666 33.1928676,512.68755 40.1226006,542.03714 C54.9515353,604.844174 86.917753,657.259648 136.219085,698.977819 C179.936127,735.970082 230.386008,757.881454 287.059617,765.095522 C319.604328,769.238077 352.085283,767.866917 384.209016,760.675358 C457.410473,744.288019 515.932072,705.514748 559.590046,644.639719 C591.05559,600.767268 608.353201,551.628699 612.256392,497.709824 C613.955306,474.23034 612.909892,450.911231 608.961698,427.788136 C602.039466,387.240422 587.054891,349.807362 564.115797,315.612755 C554.008569,300.545932 542.374943,286.727409 529.945303,273.54007 C527.676334,271.132567 526.032737,270.916858 524.060046,273.589777 C523.414046,274.464807 522.670537,275.294818 521.85577,276.013224 C519.466789,278.12061 519.63368,279.781571 521.967344,282.093411 C528.730185,288.792591 534.92766,296.020727 540.803541,303.520844 C580.678336,354.408535 601.038119,412.146401 601.735686,476.794467 L601.735686,476.794467 Z M481.72595,83.0716061 C480.306438,84.026354 478.970371,83.1400703 477.731814,82.7161547 C469.338502,79.8453458 460.7933,77.5203751 452.070894,75.9869637 C445.320241,74.8005627 438.538647,73.4397186 430.320664,73.8430012 C431.87894,74.6401876 432.225849,74.883095 432.611199,75.0050176 C452.187155,81.2258851 470.198273,90.5717233 487.052403,102.239719 C489.378566,103.850973 491.558464,105.476295 492.49793,108.378992 C500.686847,133.68075 503.186464,159.603376 499.85708,185.902087 C496.47519,212.61721 487.644023,237.560703 472.894783,260.229871 C462.631916,276.001032 450.466676,290.04558 434.917672,301.342181 C450.27072,232.37524 415.793634,186.787433 377.393669,173.619789 C394.097785,186.905604 406.535863,203.041594 412.385492,224.725064 C394.678154,213.52694 382.927329,209.064572 374.965309,210.461993 C383.188917,215.643705 391.067492,220.946401 397.554682,227.972896 C409.801492,241.239015 415.622992,256.585322 411.734804,274.684267 C408.827335,288.218617 401.843222,299.73374 393.191135,310.383212 C390.879036,313.228699 389.562659,313.433154 386.873648,310.712403 C372.048464,295.714045 363.474197,277.129285 356.071918,257.855193 C353.832952,252.025416 351.951207,246.057773 349.905384,240.152966 C349.024987,246.514513 349.254696,252.649097 349.906322,258.85027 C352.373123,282.317562 359.292543,304.152028 372.836978,323.630574 C374.514328,326.042767 374.45901,327.085674 371.889074,328.537491 C339.179347,347.025651 306.519312,346.880281 273.833024,328.513107 C271.763762,327.350152 270.994,326.305369 272.687289,323.987902 C282.847021,310.084971 289.127942,294.42354 292.855802,277.726706 C295.663887,265.148042 297.404992,252.416506 296.933384,239.229168 C295.193216,240.008535 295.267286,241.480985 294.969132,242.507011 C291.924775,252.980164 288.035648,263.127878 283.5324,273.047691 C277.121155,287.172896 269.404783,300.43245 258.308397,311.5049 C256.450093,313.36 255.374676,313.460352 253.632633,311.397984 C249.799762,306.859648 246.213477,302.153435 243.217875,297.03456 C235.304609,283.508652 230.798548,269.221196 234.209503,253.367503 C236.404403,243.170082 241.863056,234.791184 248.984995,227.336084 C255.449683,220.568441 263.213872,215.474889 272.022537,209.691067 C256.618859,210.860586 244.192969,215.820961 233.054392,225.717327 C238.806511,204.517796 250.549834,188.109824 267.169567,174.748042 C265.360017,173.791419 264.572441,174.301618 263.720171,174.719906 C249.369408,181.763283 236.909765,191.156952 227.336026,204.103259 C209.350223,228.424947 205.189196,256.037608 208.205425,285.30279 C208.718287,290.280985 209.665254,295.213224 210.464081,300.508417 C207.234081,299.313576 205.321396,297.134912 203.293387,295.314513 C196.673059,289.370317 190.199933,283.249801 184.700026,276.19517 C145.265898,225.606659 135.05741,169.599156 153.508258,108.248628 C154.12613,106.195639 155.233425,104.824478 156.985782,103.565862 C173.398307,91.7721923 191.157213,82.6083001 210.22312,75.9503869 C211.519808,75.4964596 212.961823,75.3192028 214.382273,73.6366706 C205.267953,73.7698476 196.996528,75.1672685 188.821675,77.0495662 C180.691826,78.9215475 172.639797,81.1320985 164.554014,83.1944666 L164.649648,83.2704338 C166.338249,77.858007 169.559811,73.2427667 172.547913,68.5449941 C186.486136,46.6345604 204.681021,28.9079484 226.150911,14.4488628 C226.561576,14.0249472 227.828261,13.956483 227.06975,13.0383118 C226.527823,12.3827433 225.751498,12.8976319 225.248011,13.507245 C223.779744,13.9752403 222.256159,14.3166237 220.850711,14.9290504 C184.022148,30.974068 157.475204,57.7642204 139.194998,93.1836811 C138.133646,95.2394842 137.665788,97.7735991 135.721225,99.1663306 C125.425541,106.537022 116.611251,115.457069 108.133556,125.807362 C108.370766,123.894115 108.38483,122.812755 108.647355,121.797046 C116.749077,90.4413599 130.905759,62.4732474 154.362403,39.6380774 C157.123608,36.9492145 160.690203,35.0950528 162.711648,31.6437046 C162.915106,31.4683236 163.1195,31.2929426 163.322958,31.1166237 C163.181381,31.0875498 163.039805,31.058476 162.898229,31.0294021 C162.869164,31.2563658 162.839161,31.4842673 162.809158,31.7121688 C159.468522,31.3998593 157.010159,33.5091208 154.392406,34.9684408 C137.437016,44.41932 122.629646,56.5009144 111.196664,72.2598828 C83.7683858,110.065275 74.4965512,151.712169 86.4170795,197.257773 C94.158766,226.835264 111.616705,250.830574 132.15463,272.756952 C146.789483,288.381805 162.646017,302.721782 179.214183,316.276764 C183.439904,319.73374 187.573741,323.302321 191.744145,326.824947 C192.506406,327.468324 193.172096,328.402438 192.647982,329.261524 C191.923225,330.447925 191.204093,329.308417 190.391201,328.971723 C178.773515,324.154842 167.140827,319.375475 155.472511,314.686143 C150.771431,312.796342 149.026574,313.984619 149.32004,319.116624 C150.077614,332.371489 152.136563,345.419086 157.252995,357.758593 C161.469341,367.926002 167.14739,376.933271 178.632876,380.255193 C185.533544,382.250035 192.647045,383.036905 199.779297,383.530223 C210.820365,384.292708 221.868934,384.966096 232.922191,385.521313 C235.80247,385.666682 235.860601,386.706776 235.047709,389.047691 C233.778212,392.704431 233.127524,396.585322 231.753016,400.19517 C230.453515,403.605252 230.978566,406.305369 232.918441,409.339367 C240.712633,421.530692 248.274302,433.872075 255.930667,446.152497 C256.757622,447.479578 258.006493,448.689426 257.070778,450.461993 C254.841187,448.302087 252.695042,446.273482 250.607965,444.187667 C246.726339,440.308652 246.720714,440.288957 245.267448,445.478171 C234.515158,483.873482 223.847251,522.293177 212.907442,560.634091 C211.790772,564.548746 212.772429,566.559531 215.648958,568.907948 C237.871733,587.042532 259.926679,605.382509 282.168206,623.493646 C290.371187,630.17313 298.163503,637.375006 306.932789,643.349215 C307.106244,643.784385 307.396897,644.190481 307.840377,643.802204 C307.99508,643.668089 307.743805,643.068792 307.678174,642.681454 C307.528159,641.442532 307.48128,640.181102 307.213129,638.968441 C299.552075,604.418382 291.858206,569.874889 284.196215,535.325768 C282.396978,527.216038 280.688688,519.08755 278.939143,510.967503 C285.660731,517.977116 291.699753,525.265275 297.702209,532.584385 C305.315445,541.867386 312.904304,551.170082 320.487538,560.47653 C321.982058,562.310059 323.079039,563.239484 325.119236,560.684736 C333.871646,549.720141 342.831262,538.921547 351.754313,528.09388 C356.596969,522.218148 361.517445,516.407128 366.402293,510.566096 C366.596374,510.703962 366.790455,510.841829 366.984537,510.978757 C357.247657,555.174771 347.510778,599.369848 337.56294,644.523423 C339.064023,643.476764 339.701585,643.093177 340.27164,642.625182 C370.026081,618.174068 399.720516,593.648863 429.597782,569.348746 C433.11281,566.489191 434.107593,564.180164 432.801529,559.656835 C423.156534,526.254725 413.850946,492.754138 404.425347,459.289191 C402.685178,453.110528 400.883129,446.949683 398.819492,439.772192 C396.988377,441.877702 395.957965,443.244174 394.742847,444.420258 C392.141971,446.936553 390.614635,450.633623 386.746136,451.763751 L386.837082,451.824713 C387.049916,450.036202 388.253782,448.746635 389.148244,447.3117 C394.986621,437.936788 400.206188,428.08544 406.875271,419.342649 C414.132223,409.827995 416.640278,400.490598 410.997857,389.547573 C409.389889,386.429168 410.885347,385.579461 414.010336,385.455662 C427.706662,384.912638 441.396424,384.152966 455.020554,382.596108 C464.732119,381.485674 474.374302,379.745932 480.773358,371.348277 C492.737953,355.648394 495.175689,336.957655 496.625204,318.085909 C496.900856,314.492943 494.483747,313.108652 491.085918,314.401032 C486.590171,316.108886 482.206934,318.116858 477.705561,319.807831 C468.281837,323.346401 459.31847,328.068558 449.561901,330.745229 L449.635971,330.811817 C460.877683,321.193998 472.186902,311.654959 483.346107,301.941477 C504.233753,283.759062 523.664383,264.217679 539.101814,241.037374 C561.167074,207.903494 569.400058,171.968206 561.540235,132.561876 C556.105021,105.313107 544.369199,81.3290504 525.321106,61.1517937 C513.934066,49.0889566 501.02813,38.8427667 485.533506,32.3124033 C485.072212,31.6699648 484.341828,31.1166237 483.744583,31.7187339 C482.893251,32.5759437 484.153373,32.749449 484.521846,33.2099414 C485.036583,33.7923564 485.485689,34.4535522 486.074496,34.9468699 C503.112394,49.1968113 515.344203,67.0397186 524.816682,86.9187339 C530.568801,98.988136 534.872342,111.563048 538.062026,125.812989 C536.29748,123.967268 535.307384,123.029402 534.427924,121.995873 C527.841349,114.255662 520.710972,107.08286 512.534244,101.005487 C510.776261,99.6990387 509.153291,98.3850879 508.138818,96.3039625 C497.440908,74.3428839 483.300165,54.9778195 464.430215,39.3079484 C451.07986,28.2204924 436.662528,18.8568347 420.087799,13.2108792 C419.444612,12.8029074 418.589529,12.3386635 418.221994,13.226823 C417.975408,13.8223681 418.897059,13.9621102 419.47274,14.0211958 C420.151556,14.6251817 420.771303,15.3182649 421.518563,15.8200234 C447.306995,33.1245955 467.420191,55.4973974 481.655631,83.1278781 L481.72595,83.0716061 Z M196.622429,273.261524 C195.844229,255.65027 198.174142,239.948511 203.623419,224.665979 C212.019544,201.117093 227.424159,183.45238 248.431817,170.374771 C254.392081,166.664572 260.631747,163.505838 267.186444,160.967034 C274.029918,158.316624 281.101228,160.874185 283.199556,166.83714 C285.059736,172.123892 283.315817,177.568206 278.51629,180.697866 C273.680197,183.851911 269.201326,187.449566 265.076865,191.447691 C262.441297,194.003376 260.213582,196.979226 256.911387,200.798218 C261.298374,199.993529 264.379297,199.303259 267.496786,198.885909 C272.415387,198.229402 277.179286,198.299742 280.689625,202.706776 C283.688978,206.472309 283.058917,210.535147 281.842862,214.687081 C280.748693,218.422603 277.327425,219.625885 274.48465,221.403142 C265.450963,227.051911 257.102656,233.467855 250.983001,242.3532 C242.331852,254.914045 242.207152,268.223306 247.986461,281.850504 C249.681625,285.846753 252.113736,289.524127 254.059236,293.422837 C255.833158,296.978288 257.35393,296.306776 259.299431,293.528816 C267.836194,281.339367 274.232438,268.083564 279.451068,254.187198 C282.021004,247.343587 284.145585,240.386495 286.102336,233.353435 C287.792812,227.274185 292.761106,224.114513 298.771062,224.926706 C304.543808,225.707011 307.965077,229.94898 308.015707,236.45871 C308.254792,266.998453 302.501736,296.086377 286.808342,323.067855 C296.506781,327.232919 306.282101,330.442298 316.814995,330.88966 C329.525913,331.429871 341.950865,330.285674 353.832952,325.246518 C357.159524,323.835029 359.054394,323.13163 356.602595,318.649566 C346.495367,300.176413 341.030151,280.254256 338.889631,259.271372 C338.093617,251.461758 338.293323,243.712169 338.122682,235.936319 C337.990482,229.934912 341.291738,225.981805 346.783207,224.990481 C352.42094,223.972896 357.912409,226.996577 359.490374,232.74007 C362.335962,243.093177 365.667222,253.277468 370.024206,263.060352 C375.274714,274.854021 380.845878,286.530457 389.437021,297.014865 C397.936281,284.100445 404.880078,270.91592 400.719051,255.105369 C397.507802,242.905604 389.529843,233.759531 379.224783,226.661758 C376.025724,224.45871 372.747907,222.366331 369.447588,220.318968 C362.954772,216.292708 362.415657,212.485909 363.887675,205.506307 C364.904023,200.689426 370.989924,197.760469 376.790798,198.759297 C379.093521,199.156014 381.357802,199.649332 383.703654,199.667151 C384.9469,199.67653 386.458296,201.495053 387.339631,199.623072 C387.938752,198.348511 386.267965,197.536319 385.428821,196.710996 C379.880159,191.259179 375.031878,184.860117 367.956818,181.324361 C361.422749,178.05871 361.51182,170.163751 363.290429,165.411583 C365.180612,160.363048 371.030241,158.624244 377.802458,160.891067 C389.738926,164.884502 400.255881,171.523658 410.028389,179.276999 C432.824032,197.363751 444.163254,221.874889 448.499611,249.986495 C449.559088,256.848863 450.239779,263.875358 449.366882,271.898804 C454.609889,268.323658 457.047625,263.571489 459.986972,259.416741 C475.618484,237.318734 485.225976,212.691301 488.844139,185.948042 C490.931216,170.522954 490.76245,154.967503 488.390345,139.435498 C487.118972,131.110996 485.210037,123.01721 482.928879,114.957186 C482.385077,113.03925 481.33685,111.852849 479.680127,110.715217 C463.029454,99.2741852 445.206792,90.30068 425.85117,84.3827433 C420.150618,82.6392497 418.243558,78.9384291 418.732981,71.8884877 C419.043323,67.4214302 422.569602,63.3267057 427.350377,62.8390152 C431.341701,62.4329191 435.401469,62.3963423 439.463111,63.1044314 C445.065216,64.0816882 450.742328,64.6275264 456.561953,65.3806331 C456.389437,61.7773505 453.50072,60.0732474 451.77274,57.9255334 C440.575094,43.9991559 427.22849,32.4240094 411.966389,23.1053693 C405.893614,19.3970457 403.226168,15.0556624 404.212513,10.0952872 C405.831733,1.9536694 411.15631,-1.36637749 419.436174,1.20150059 C433.953828,5.70325909 447.245114,12.7860258 459.572557,21.6141618 C462.585036,23.7712544 466.061622,25.3384291 468.6775,28.9313951 C470.162644,25.5710199 470.6155,22.1693787 473.796746,20.5440563 C477.913707,18.440422 481.969724,17.9517937 486.305143,20.0291676 C499.398598,26.30068 511.701663,33.6282298 522.766171,43.2432356 C538.413622,56.8394842 550.691373,72.8638687 559.541291,91.4589449 C567.524876,108.235498 572.388159,125.932098 574.414293,144.513107 C576.729204,165.731395 574.74995,186.406659 568.298389,206.643001 C564.222682,219.428933 558.402119,231.494584 551.044844,242.721782 C549.223106,245.502556 549.791286,246.820258 551.827733,248.913576 C573.389506,271.070668 591.995994,295.391419 606.871808,322.616741 C620.088087,346.803376 629.7809,372.271137 636.414354,398.927175 C640.720708,416.229871 643.393779,433.796108 644.799228,451.630574 C645.957152,466.311934 645.739631,480.967034 645.360844,495.59306 C645.015811,508.883564 643.225013,522.157186 640.713207,535.263869 C636.410603,557.722954 630.260008,579.623072 621.371648,600.75789 C610.64186,626.26973 597.142429,650.121547 580.456127,672.219555 C571.346496,684.283329 561.505544,695.74687 550.787945,706.298804 C522.960252,733.695756 491.309065,755.763751 455.623425,771.820023 C432.028955,782.436671 407.440638,790.067151 382.032868,794.801501 C370.783654,796.897632 359.370363,798.094349 347.907379,799.006893 C332.609648,800.224244 317.295042,800.256131 302.088258,799.462696 C284.341541,798.536084 266.729837,795.700914 249.316902,791.626823 C223.751617,785.645111 199.223306,776.907948 175.928865,764.939836 C153.631082,753.484736 132.967521,739.533036 113.770351,723.255428 C89.4820636,702.661758 68.9141361,678.959062 51.5349547,652.395873 C38.2811724,632.13796 27.7614046,610.516389 19.3765309,587.797515 C12.7458894,569.828933 7.95480087,551.36422 4.64791843,532.577819 C2.34050769,519.472075 1.1788328,506.165627 0.380005515,492.813224 C-0.367254282,480.333974 0.117480116,467.92694 0.722226125,455.537726 C1.51449028,439.289191 3.90534659,423.179461 7.41193585,407.257304 C13.9422552,377.606659 24.4798372,349.459414 38.8887312,322.751794 C47.9092914,306.030574 58.4628125,290.333505 70.3842784,275.539601 C78.0068909,266.080281 85.8920287,256.852614 94.7400723,248.525299 C96.9359097,246.458242 96.4099213,245.133036 95.0785425,243.105369 C85.5057414,228.53374 78.8319707,212.667855 74.5509315,195.809707 C70.0955004,178.26129 70.0064293,160.461524 71.7512856,142.544525 C73.5974017,123.590246 79.2341971,105.688253 87.5571898,88.7747714 C96.4258604,70.7517937 108.747678,55.2047831 124.341686,42.2913013 C134.9449,33.5109965 146.098479,25.7679719 158.872215,20.4812192 C167.43523,16.9370223 171.298104,18.1656272 175.966368,26.2294021 C176.86083,27.774068 177.737477,28.1304572 179.279814,26.9102931 C193.044583,16.0244783 208.041347,7.3614068 224.690145,1.61978898 C229.557178,-0.0580539273 236.65474,0.780398593 239.16467,3.78344666 C242.013071,7.19165299 242.165898,13.5063072 239.912868,17.9508558 C238.9584,19.8350293 237.340119,20.6884877 235.835286,21.6310434 C222.704328,29.8495662 210.748171,39.4898945 200.244342,50.8774678 C196.775257,54.6383118 193.624952,58.6945838 190.331196,62.6176788 C189.749889,63.310762 188.74948,64.0385463 189.536119,64.9820399 C190.168055,65.7398359 191.274412,65.4378429 192.201689,65.2446424 C200.269657,63.5621102 208.40982,62.5060727 216.665306,62.672075 C222.436177,62.7874326 226.618769,66.4329191 227.351965,71.7965768 C228.270804,78.5201407 225.593045,83.1053693 219.517457,84.749449 C203.919698,88.9707855 189.629878,96.1370223 175.90355,104.41932 C162.60195,112.444642 162.548508,112.613458 159.172244,129.025182 C156.700754,141.040188 154.888392,153.249332 155.333747,165.518499 C156.137262,187.687784 160.296415,209.182743 169.214778,229.715451 C175.953242,245.228699 184.861291,259.224478 196.622429,273.261524 L196.622429,273.261524 Z" id="Fill-1" fill="#DBD0AE" sketch:type="MSShapeGroup" mask="url(#mask-2)"></path>
                </g>
                <path d="M305.095205,497.809988 C308.60367,512.523236 319.983208,510.790996 330.418593,509.918781 C337.060485,509.363564 337.533031,501.935662 342.323182,497.809988 L305.095205,497.809988 Z M280.213423,393.739648 C284.824494,393.781852 288.725809,392.058992 291.905179,388.801782 C293.789736,386.869777 293.867556,384.808347 291.198236,383.540352 C283.918781,380.082438 276.617763,376.660164 269.225797,373.452661 C266.017362,372.05993 264.329699,373.459226 264.051234,377.038124 C263.347104,386.092286 270.564677,393.645862 280.213423,393.739648 L280.213423,393.739648 Z M365.535115,393.754654 C375.156671,393.672122 383.298709,385.048441 381.75731,376.71456 C381.122561,373.280094 379.544596,372.111512 376.260215,373.634607 C369.239536,376.889941 362.175728,380.053365 355.195365,383.392169 C351.985992,384.927456 351.775972,387.074232 354.536239,389.434842 C357.67623,392.119953 361.275641,393.828746 365.535115,393.754654 L365.535115,393.754654 Z M479.962436,331.282438 C462.531687,346.555592 444.695899,359.392169 424.592079,368.986542 C425.137757,369.37388 425.652494,370.056647 426.121289,370.026635 C434.451783,369.481735 442.803841,369.086893 451.095893,368.163095 C457.996561,367.394982 465.280703,366.980445 469.931153,360.561688 C476.019867,352.154654 478.192265,342.383962 479.962436,331.282438 L479.962436,331.282438 Z M220.999882,369.278218 C200.868871,359.152075 182.770558,346.237655 165.752349,331.123939 C167.263745,340.363798 169.256125,348.971536 173.500599,356.889941 C175.776131,361.134725 178.793298,364.768019 183.605951,366.066964 C195.844323,369.371067 208.419289,369.050317 220.999882,369.278218 L220.999882,369.278218 Z M128.312477,225.32136 C123.775475,194.353951 119.257226,163.186776 125.815673,131.49721 C115.656877,141.012802 109.806311,152.299086 109.524096,166.086659 C109.091867,187.2468 116.6676,206.20483 126.07726,224.612333 C126.348224,225.142227 126.662317,225.733083 128.312477,225.32136 L128.312477,225.32136 Z M519.897237,131.575053 C522.674381,142.871653 523.188181,153.718077 523.152552,164.633904 C523.115048,175.70823 522.542181,186.721594 521.271745,197.739648 C520.049127,208.345041 518.342712,218.866964 516.756308,229.434842 C525.921257,214.066964 532.673786,197.772474 535.526874,180.120891 C538.498099,161.736835 534.943693,145.131911 519.897237,131.575053 L519.897237,131.575053 Z M336.209153,485.999437 C339.864819,485.999437 342.654152,485.780914 345.395667,486.053834 C348.862877,486.398968 351.185289,485.343869 353.114851,482.285487 C355.682912,478.211395 358.749771,474.443986 361.715371,470.633435 C363.185513,468.744572 363.502419,466.916671 362.885484,464.563564 C361.390027,458.853834 360.031458,453.096272 358.934477,447.297444 C358.490996,444.953716 357.538404,443.370598 355.634157,442.009754 C348.674421,437.036249 344.122419,430.334256 341.68562,422.138242 C339.252572,413.94973 336.614192,405.821243 334.296468,397.600844 C333.525768,394.869777 332.347217,394.293927 330.201072,395.907057 C325.388419,399.521594 320.662024,399.660399 315.796866,396.013974 C313.279435,394.126987 312.252773,395.250551 311.47551,398.00694 C309.158723,406.227339 306.497841,414.350199 304.08917,422.545275 C302.286183,428.678921 299.492163,434.641876 294.452613,438.218898 C288.201696,442.656882 286.178375,448.552309 285.051391,455.360281 C284.848871,456.589824 284.739173,457.877515 284.276941,459.012333 C281.805452,465.072825 282.590215,470.294865 287.397243,475.066729 C289.911861,477.564267 291.707347,480.782087 293.85443,483.653834 C294.684198,484.762392 295.410831,486.009754 297.105995,485.994748 C300.95668,485.961923 304.807365,485.984431 309.608767,485.984431 C306.232503,481.029683 303.762889,476.502603 300.435379,472.735193 C295.479275,467.123939 297.035675,461.44422 299.014929,454.982321 C305.94185,461.227573 313.577588,464.889941 322.7416,464.998734 C332.095943,465.11034 339.779498,461.1366 346.757048,455.222415 C349.647641,462.284549 349.674831,468.325346 344.510581,474.03789 C341.518729,477.348558 339.348207,481.402954 336.209153,485.999437 L336.209153,485.999437 Z M485.5336,32.3122157 C501.028224,38.8425791 513.93416,49.0887691 525.321199,61.1516061 C544.369292,81.3288628 556.104178,105.312919 561.540329,132.562626 C569.400152,171.968019 561.167167,207.903306 539.101908,241.037186 C523.664477,264.218429 504.233847,283.758875 483.346201,301.94129 C472.186996,311.654771 460.877777,321.19381 449.637002,330.813505 C449.532929,330.888535 449.413855,330.949496 449.327597,331.040469 C449.28353,331.086424 449.298532,331.186776 449.286343,331.262743 C449.378227,331.090176 449.470111,330.917608 449.561995,330.745041 C459.318564,328.06837 468.281931,323.346213 477.705655,319.807644 C482.207028,318.116671 486.590265,316.109637 491.086012,314.400844 C494.483841,313.109402 496.90095,314.492755 496.625298,318.085721 C495.175783,336.957468 492.738047,355.648206 480.773452,371.348089 C474.374395,379.745744 464.732212,381.485487 455.020648,382.59592 C441.39558,384.153716 427.706755,384.913388 414.01043,385.455475 C410.88544,385.580211 409.389983,386.42898 410.997951,389.548324 C416.640372,400.49041 414.132317,409.827808 406.875365,419.342462 C400.206282,428.08619 394.986715,437.9366 389.148337,447.311512 C388.253876,448.747386 387.050009,450.036014 386.837176,451.825463 C386.027098,452.290645 385.642686,452.92558 386.019597,453.863447 C385.794575,453.904713 385.571429,453.94973 385.348282,453.99381 C385.431728,454.018195 385.536738,454.085721 385.593931,454.057585 C385.728944,453.990059 385.841455,453.876577 385.962404,453.781852 C386.488392,453.21163 387.241278,452.729566 386.745292,451.762626 C390.614729,450.633435 392.142064,446.936366 394.742941,444.42007 C395.958059,443.244924 396.988471,441.877515 398.819585,439.772943 C400.883223,446.949496 402.685272,453.11034 404.42544,459.289004 C413.85104,492.753951 423.156628,526.254537 432.801623,559.656647 C434.107687,564.179977 433.112903,566.489004 429.596938,569.348558 C399.72061,593.648675 370.026175,618.17388 340.271734,642.624994 C339.701678,643.092989 339.064117,643.476577 337.563034,644.523236 C347.510871,599.36966 357.247751,555.174584 366.98463,510.979508 C366.790549,510.841641 366.596468,510.703775 366.402387,510.566846 C361.517539,516.40694 356.597063,522.21796 351.754407,528.093693 C342.831356,538.92136 333.871739,549.720891 325.11933,560.684549 C323.078195,563.240234 321.982152,562.309871 320.487632,560.476342 C312.904398,551.169894 305.315539,541.867198 297.702302,532.584197 C291.699847,525.265088 285.660825,517.976928 278.939237,510.968253 C280.688781,519.087362 282.397072,527.216788 284.196308,535.32558 C291.8583,569.874701 299.552169,604.418195 307.213223,638.968253 C307.481374,640.180914 307.528253,641.442345 307.678268,642.681266 C307.429806,642.904478 307.181345,643.126753 306.932883,643.349965 C298.163597,637.374818 290.371281,630.172943 282.1683,623.493458 C259.926773,605.382321 237.871826,587.042345 215.649051,568.907761 C212.772523,566.560281 211.790866,564.548558 212.907536,560.633904 C223.847345,522.292989 234.515252,483.873294 245.267542,445.477984 C246.720808,440.288769 246.726433,440.308464 250.608059,444.187479 C252.695136,446.273294 254.841281,448.301899 257.070871,450.462743 C258.006587,448.689238 256.757716,447.47939 255.930761,446.152309 C248.274395,433.871887 240.712726,421.531442 232.918535,409.339179 C230.97866,406.305182 230.453609,403.605064 231.753109,400.19592 C233.127617,396.585135 233.778305,392.705182 235.047803,389.047503 C235.860694,386.706589 235.802564,385.666495 232.922285,385.521125 C221.869028,384.966846 210.820459,384.292521 199.779391,383.530035 C192.647138,383.037655 185.533638,382.249848 178.63297,380.255006 C167.147484,376.933083 161.469435,367.925815 157.253089,357.758406 C152.136657,345.418898 150.077707,332.371301 149.320134,319.116436 C149.026668,313.985369 150.771525,312.797093 155.472604,314.685955 C167.140921,319.375287 178.773609,324.154654 190.391295,328.971536 C191.203249,329.30823 191.923318,330.447737 192.648076,329.261336 C193.172189,328.402251 192.5065,327.468136 191.744239,326.82476 C187.573835,323.302134 183.439998,319.733552 179.214276,316.276577 C162.646111,302.722532 146.789577,288.381618 132.154723,272.757702 C111.616799,250.830387 94.1588598,226.835076 86.4171733,197.257585 C74.496645,151.712919 83.7684795,110.066026 111.196758,72.2606331 C122.629739,56.5007268 137.437109,44.4200703 154.3925,34.9682532 C157.010253,33.5089332 159.468616,31.3996717 162.809252,31.7119812 L162.711742,31.6444549 C160.690297,35.0948652 157.123702,36.949027 154.361559,39.6378898 C130.905853,62.4730598 116.74917,90.4411723 108.647449,121.796858 C108.384924,122.813505 108.37086,123.893927 108.133649,125.807175 C116.611345,115.457819 125.425635,106.536835 135.721318,99.166143 C137.665882,97.7743494 138.133739,95.2392966 139.195092,93.1834936 C157.474361,57.7640328 184.022242,30.9738804 220.850805,14.9288628 C222.256253,14.317374 223.779838,13.9750528 225.248105,13.5079953 C225.550009,13.8221805 225.851913,14.1363658 226.154755,14.450551 C204.681115,28.9086987 186.48623,46.6353107 172.548006,68.5457444 C169.559905,73.2425791 166.338343,77.8578195 164.649742,83.2711841 C164.465974,83.3949824 164.282207,83.5187808 164.098439,83.6425791 C164.21095,83.6941618 164.323461,83.7457444 164.435034,83.7963892 C164.47535,83.5956858 164.514729,83.3949824 164.554108,83.194279 C172.63989,81.1319109 180.691919,78.9213599 188.820831,77.0493787 C196.996622,75.1680188 205.268047,73.76966 214.382366,73.636483 C212.961916,75.3190152 211.519902,75.4972098 210.223214,75.9501993 C191.157307,82.6081125 173.398401,91.7729426 156.985876,103.565674 C155.233519,104.824291 154.125287,106.195451 153.508352,108.248441 C135.057504,169.598968 145.265992,225.606471 184.70012,276.194982 C190.200027,283.249613 196.673153,289.370129 203.293481,295.314326 C205.32149,297.134725 207.234175,299.313388 210.464175,300.50823 C209.665347,295.213036 208.718381,290.280797 208.205519,285.302603 C205.189289,256.037421 209.350317,228.42476 227.33612,204.103072 C236.909858,191.156764 249.369501,181.763095 263.720265,174.719719 C264.572535,174.30143 265.360111,173.791231 267.169661,174.747855 C250.549928,188.109637 238.806604,204.517608 233.054485,225.71714 C244.193063,215.821712 256.618953,210.860399 272.02263,209.690879 C263.213966,215.474701 255.449777,220.568253 248.985089,227.335897 C241.86315,234.790996 236.404497,243.169894 234.209597,253.367315 C230.798642,269.221946 235.304703,283.508464 243.217969,297.034373 C246.212633,302.153247 249.798918,306.859461 253.632726,311.397796 C255.37477,313.460164 256.450186,313.36075 258.308491,311.505651 C269.404877,300.432263 277.121249,287.172708 283.532494,273.047503 C288.035742,263.128628 291.924869,252.979977 294.969226,242.506823 C295.267379,241.480797 295.19331,240.008347 296.933478,239.22898 C297.404149,252.416319 295.66398,265.147855 292.855896,277.726518 C289.128035,294.423353 282.847115,310.084783 272.687382,323.987714 C270.994093,326.305182 271.763855,327.349965 273.833118,328.512919 C306.519406,346.880094 339.17944,347.026401 371.889167,328.538242 C374.459104,327.085487 374.514421,326.042579 372.837072,323.631325 C359.292636,304.152778 352.373217,282.317374 349.906416,258.85102 C349.25479,252.64891 349.02508,246.515264 349.905478,240.152778 C351.951301,246.057585 353.833046,252.025229 356.072012,257.855006 C363.474291,277.130035 372.048558,295.714795 386.873742,310.712216 C389.562752,313.432966 390.87913,313.228511 393.191228,310.383025 C401.843316,299.73449 408.827429,288.219367 411.734898,274.68408 C415.623086,256.585135 409.801585,241.238828 397.554776,227.973646 C391.067585,220.947151 383.189011,215.644455 374.965403,210.462743 C382.927423,209.065322 394.678247,213.526753 412.385585,224.724877 C406.535957,203.041407 394.097879,186.905416 377.393763,173.620539 C415.793728,186.788183 450.270813,232.375991 434.917765,301.341993 C450.46677,290.045393 462.632009,276.001782 472.894877,260.229683 C487.644117,237.561454 496.475284,212.617022 499.857173,185.902837 C503.186558,159.603189 500.686941,133.680563 492.498024,108.378804 C491.558558,105.476108 489.37866,103.850785 487.052497,102.240469 C470.198366,90.5724736 452.187249,81.2256975 432.611292,75.0057679 C432.225943,74.8829074 431.879034,74.64 430.320758,73.8428136 C438.538741,73.4395311 445.320334,74.8003751 452.070988,75.987714 C460.793394,77.5211254 469.338596,79.8460961 477.731908,82.716905 C478.970465,83.1398828 480.306532,84.0271043 481.721356,83.07517 C481.696041,83.0948652 481.676352,83.1117468 481.655725,83.1276905 C467.420285,55.4972098 447.307089,33.124408 421.518657,15.8198359 C420.771397,15.3180774 420.151649,14.6249941 419.472834,14.0210082 C419.678166,13.7480891 419.883498,13.4761079 420.088831,13.2031887 C436.662622,18.8566471 451.079954,28.2203048 464.430308,39.3077608 C483.300259,54.9785698 497.441002,74.3426964 508.138912,96.3037749 C509.153385,98.3858382 510.776355,99.6988511 512.534337,101.005299 C520.711066,107.082673 527.841443,114.255475 534.428018,121.995686 C535.307478,123.029215 536.297574,123.968019 538.06212,125.812802 C534.872436,111.563798 530.567957,98.9879484 524.816776,86.9185463 C515.344297,67.0395311 503.112488,49.1966237 486.07459,34.9466823 C485.485783,34.4533646 485.035739,33.7931067 484.52194,33.2106917 C484.859472,32.9105744 485.196067,32.6113951 485.5336,32.3122157 L485.5336,32.3122157 Z" id="Fill-4" fill="#284F38" sketch:type="MSShapeGroup"></path>
                <path d="M136.064008,566.506448 C117.945067,575.912309 99.9264491,585.277843 81.8965797,594.61993 C76.613256,597.357562 76.897346,597.201876 79.2488235,602.736225 C80.7770964,606.332005 82.2575521,606.187573 85.274719,604.58007 C101.281268,596.052052 117.384388,587.703165 133.480008,579.343025 C141.532974,575.161079 141.561102,575.20891 136.936905,567.494021 C136.703445,567.105744 136.329346,566.801876 136.064008,566.506448 L136.064008,566.506448 Z M110.525912,649.807737 C112.170446,648.667292 113.860922,647.273623 115.74923,646.239156 C118.318228,644.831419 118.381985,643.536225 116.556496,641.265651 C113.537453,637.512309 111.056588,633.326612 108.046922,629.563892 C106.047979,627.065416 106.037665,625.739273 108.873877,623.763189 C121.521038,614.954748 133.991932,605.893083 146.50408,596.893318 C151.907416,593.0068 151.74615,593.066823 148.05298,587.655334 C146.50408,585.38476 145.528986,584.851114 143.089375,586.620868 C126.708728,598.503634 110.238072,610.261665 93.7261617,621.962485 C91.5453257,623.507151 91.4543794,624.620399 93.0192183,626.726846 C98.1234621,633.599531 103.006435,640.638218 108.003793,647.590621 C108.608539,648.431887 109.037956,649.526377 110.525912,649.807737 L110.525912,649.807737 Z M307.68905,712.068933 C308.001268,712.068933 308.314423,712.067995 308.626641,712.067995 C308.626641,723.926377 308.732588,735.786635 308.554446,747.643142 C308.508504,750.717468 309.583921,751.190152 312.345125,751.091676 C319.520507,750.836577 326.709015,750.913482 333.892835,750.891911 C341.424501,750.869402 341.326054,750.892849 340.888199,743.468699 C340.750374,741.137163 340.156879,740.145838 337.651636,740.264947 C332.509889,740.50973 327.34939,740.374678 322.207642,740.627902 C319.424873,740.763892 318.255697,739.992028 318.423526,736.998359 C318.641047,733.106213 318.599793,729.178429 318.33258,725.289097 C318.115059,722.135991 318.934513,720.772333 322.382972,721.024619 C326.26366,721.307855 330.184664,721.02837 334.088792,721.00211 C340.755999,720.957093 340.650989,720.965533 340.306893,714.453927 C340.160629,711.685346 339.541819,710.341383 336.312757,710.579601 C331.339776,710.946307 326.32554,710.753107 321.328182,710.78687 C319.792408,710.797186 318.197567,711.13857 318.221006,708.598828 C318.255697,704.863306 318.011924,701.122157 317.800966,697.388511 C317.693143,695.491208 318.26226,694.769988 320.345587,694.499883 C324.71851,693.931536 329.074556,694.335756 333.432478,694.174443 C340.274078,693.921219 340.125938,693.946542 340.017178,687.09449 C339.971236,684.218054 339.085212,683.410551 336.229311,683.526846 C327.970075,683.86354 319.697712,683.986401 311.430974,683.994842 C308.332237,683.997655 307.550287,685.227198 307.622481,688.181477 C307.816562,696.140211 307.68905,704.106448 307.68905,712.068933 L307.68905,712.068933 Z M369.591601,736.381243 C369.081552,736.520047 368.268661,736.058617 367.976133,734.421102 C367.155741,729.829308 366.265967,725.248769 365.297436,720.686987 C364.781761,718.256975 365.691224,717.42415 368.083956,717.064947 C372.998806,716.327784 377.841462,715.119812 382.749749,714.33388 C385.453761,713.901524 386.631375,712.818288 385.801607,710.03095 C385.447198,708.841735 385.106853,707.610317 385.037471,706.382649 C384.905271,704.03517 384.338028,703.162954 381.606826,703.871981 C376.502583,705.198124 371.262388,706.02626 366.052197,706.90129 C364.877395,707.098242 362.981587,708.128957 362.528731,706.005627 C361.526446,701.305041 359.679392,696.372802 360.397587,691.890739 C360.759497,689.632356 366.523805,690.387339 369.750992,689.374443 C371.227697,688.911137 372.800037,688.76483 374.321747,688.438453 C381.948109,686.803751 382.047494,686.547714 379.772899,679.258617 C379.190655,677.394138 378.518403,676.889566 376.485706,677.32755 C367.820493,679.192028 359.121526,680.909261 350.39912,682.485815 C348.223909,682.878781 347.667918,683.308324 348.149839,685.715826 C352.148664,705.695193 355.969346,725.710199 359.779715,745.727081 C360.256948,748.238687 361.231105,748.792966 363.822606,748.231184 C372.176539,746.419226 380.603604,744.947714 389.00723,743.371161 C391.148687,742.969754 392.469752,742.190387 391.532162,739.640328 C391.054928,738.341383 390.782089,736.913013 390.718333,735.528722 C390.599259,732.958968 389.88294,732.210551 387.059854,732.940211 C381.651831,734.33857 376.090043,735.141383 369.591601,736.381243 L369.591601,736.381243 Z M278.596548,696.43939 C278.320896,696.319343 278.045244,696.198359 277.768655,696.078312 C278.484974,691.831653 278.859073,687.49027 279.997308,683.360844 C281.773105,676.91864 276.336954,679.244549 273.940472,678.214771 C270.696408,676.821102 270.156356,679.343025 269.729752,681.831184 C266.525067,700.532239 263.296943,719.229543 260.018188,737.918406 C258.898704,744.293083 258.827448,744.243376 265.346516,745.232825 C267.813317,745.607972 269.224391,745.493552 269.64912,742.247597 C270.602649,734.951934 272.193741,727.74068 273.55606,720.322157 C275.201532,720.883939 275.198719,721.826495 275.371236,722.735287 C276.589166,729.152169 278.148379,735.522157 278.976272,741.987808 C279.531326,746.32075 281.102728,748.463775 285.663169,748.898945 C290.510513,749.361313 290.830231,749.363189 289.93952,744.635404 C287.809314,733.325674 285.751302,722.002814 283.546089,710.707151 C283.033227,708.080188 283.50296,706.066589 285.159683,703.871043 C290.304243,697.052755 295.170339,690.025322 300.234266,682.951934 C298.210945,682.514889 296.52797,682.260727 294.911564,681.780539 C291.169639,680.671043 288.627831,681.628605 286.563256,685.2 C284.27366,689.157796 281.281808,692.710434 278.596548,696.43939 L278.596548,696.43939 Z M509.378876,606.350762 C509.334809,605.018054 508.320336,604.676671 507.644333,604.121454 C503.909909,601.053693 500.054536,598.12755 496.396995,594.97163 C494.570568,593.396014 493.53453,593.438218 491.995944,595.425557 C486.371337,602.697773 480.582652,609.844314 474.781779,616.977726 C473.394144,618.684642 473.044423,619.70973 475.133375,621.358499 C491.161488,634.008441 507.09303,646.781243 522.988943,659.597186 C524.76849,661.032122 525.718269,660.881125 527.059024,659.108558 C530.537485,654.507386 534.190339,650.038453 537.777561,645.519812 C540.491886,642.100352 545.497683,638.565533 545.327979,635.298945 C545.13296,631.545604 539.184884,629.395076 535.734551,626.557093 C530.022748,621.85932 530.054626,621.957796 525.851407,627.890739 C524.601599,629.655803 524.634414,630.604924 526.328641,632.077374 C531.645718,636.698242 531.572585,636.781712 526.907134,642.40422 C526.409273,643.004455 525.801715,643.544666 525.432304,644.216178 C524.080298,646.680891 522.774234,646.372333 520.753726,644.722626 C511.945062,637.531067 502.969506,630.543962 494.100835,623.425557 C487.444879,618.082532 487.624896,618.155686 492.749767,611.354279 C495.004673,608.361547 496.690461,607.545604 499.536986,610.530832 C500.579587,611.623447 502.227871,613.860258 503.614568,612.839859 C505.932292,611.13388 507.559012,608.488159 509.378876,606.350762 L509.378876,606.350762 Z M237.641648,737.857444 C240.137514,737.869637 239.921869,735.796952 240.406603,734.554279 C247.291331,716.888628 254.099178,699.192966 260.898585,681.493552 C263.096298,675.773505 262.999726,675.901993 257.403247,673.548886 C254.582037,672.362485 253.235657,672.552872 252.063668,675.749121 C247.085999,689.318171 241.806426,702.775615 236.65624,716.280891 C233.288414,725.114654 233.353108,724.98898 224.460998,721.6483 C221.465395,720.523798 220.893465,719.499648 222.135773,716.376553 C228.164481,701.220633 233.7919,685.904338 239.78498,670.733411 C240.846333,668.046424 240.58662,666.775615 237.828228,666.045955 C236.786565,665.770223 235.747715,665.38476 234.798873,664.877374 C232.320821,663.549355 231.261343,664.204924 230.217805,666.92755 C223.049924,685.639859 215.72734,704.294021 208.256617,722.887222 C207.110882,725.738335 207.91721,726.537397 210.433703,727.453693 C218.888896,730.53177 227.264394,733.82837 235.668957,737.04619 C236.389964,737.321923 237.097845,737.632356 237.641648,737.857444 L237.641648,737.857444 Z M449.1668,640.72544 C447.541956,641.985932 446.125256,643.220164 444.577294,644.257444 C441.771085,646.138804 441.454179,647.70129 443.890977,650.573974 C456.709718,665.680188 469.285622,680.993669 481.885903,696.283705 C483.466681,698.202579 484.506469,698.584291 486.625424,696.713247 C493.523279,690.624619 500.626466,684.766706 507.744655,678.935991 C509.646089,677.378195 510.16739,676.407503 508.289395,674.214771 C495.808188,659.646893 483.497622,644.93177 471.138301,630.258851 C466.94352,625.277843 467.077596,625.426026 461.987416,629.531067 C459.379976,631.632825 460.004411,632.956155 461.832713,635.088863 C471.272376,646.107855 480.608905,657.217819 489.913555,668.351231 C495.88132,675.491208 495.726617,675.412427 488.659996,681.38007 C486.147253,683.501524 484.820562,683.224853 482.821619,680.814537 C471.767424,667.48558 460.568841,654.275733 449.1668,640.72544 L449.1668,640.72544 Z M562.028345,567.640328 C561.177012,569.263775 562.459636,569.630481 564.001973,570.066589 C568.038301,571.207034 572.08963,572.334349 576.032199,573.753341 C578.431494,574.617116 579.435654,574.47925 580.210104,571.655334 C582.630963,562.822509 585.424983,554.090973 588.153372,545.345369 C588.848127,543.116999 588.346516,542.091911 585.966911,541.408206 C575.071169,538.274795 564.22512,534.966002 553.37907,531.660023 C551.354812,531.042907 550.349715,531.335522 549.78716,533.652052 C548.764249,537.87245 547.340048,541.994373 546.078051,546.155686 C543.873776,553.423212 543.8719,553.423212 536.71152,551.319578 C527.964736,548.750762 528.146629,548.799531 530.541236,539.844783 C531.462887,536.395311 532.824269,535.433998 535.923006,537.081829 C538.77422,538.597421 540.218109,537.713951 540.615648,534.564596 C540.769413,533.346307 541.139761,532.093318 541.695752,531.001641 C542.863053,528.709496 541.827953,528.15803 539.733375,527.633763 C535.668919,526.617116 531.608214,525.470106 527.703149,523.969519 C525.241035,523.023212 524.463773,523.787573 523.824336,525.999062 C521.238461,534.944431 518.64321,543.889801 515.817311,552.760141 C515.080365,555.074795 515.741366,555.681594 517.790002,556.263072 C524.662542,558.214771 531.484452,560.348417 538.331677,562.392966 C542.338002,563.588746 547.270667,566.727784 550.130318,565.407268 C553.462516,563.867292 553.311564,557.827433 554.581999,553.715826 C557.731366,543.520281 557.6948,543.509027 567.753273,546.573974 C576.065953,549.106213 575.928127,549.067761 573.52977,557.613599 C572.588429,560.968347 571.184855,562.545838 567.870472,560.657913 C564.71923,558.863775 563.916652,560.820164 563.233149,563.215475 C562.848736,564.562251 562.496202,565.91653 562.028345,567.640328 L562.028345,567.640328 Z M186.162292,679.893552 C188.74348,681.531067 191.281538,683.364596 194.022115,684.813599 C196.433599,686.088159 196.556423,687.229543 195.052527,689.458851 C190.79399,695.773505 186.844858,702.296366 182.657578,708.661665 C181.311198,710.708089 180.941787,712.183353 183.598919,713.365064 C184.864667,713.927784 186.046031,714.751231 187.138324,715.616882 C188.814736,716.943025 189.690446,716.745135 190.917752,714.8 C201.870687,697.429777 212.916443,680.117702 224.079398,662.881594 C225.459532,660.750762 225.219509,659.833529 223.185874,658.576788 C215.515445,653.837749 207.834702,649.102462 200.362104,644.063306 C197.703096,642.270106 196.629555,642.981946 195.144411,645.333177 C184.92186,661.518875 174.586797,677.633294 164.296739,693.77585 C160.995482,698.956624 161.071427,698.871278 166.311622,702.378898 C168.636847,703.93388 169.918533,704.267761 171.602446,701.35381 C175.338745,694.891911 179.552278,688.705744 183.609233,682.430481 C184.239294,681.4551 184.556199,680.095193 186.162292,679.893552 L186.162292,679.893552 Z M447.799793,678.285111 C447.558832,677.396952 447.490388,676.5932 447.140667,675.93857 C444.215384,670.460492 441.337918,664.951465 438.233555,659.575615 C436.809355,657.109965 428.583871,655.112309 426.051439,656.451583 C419.737703,659.791325 413.503662,663.281125 407.171175,666.585229 C405.371001,667.524971 404.789694,668.249941 405.910115,670.297304 C415.75013,688.267761 425.487947,706.29449 435.202324,724.333411 C436.195233,726.178195 437.006249,726.799062 439.119578,725.57796 C445.167038,722.08347 451.335448,718.792497 457.538548,715.578429 C459.060257,714.789683 459.933154,713.785229 460.484458,712.243376 C462.129929,707.637515 463.075021,703.244549 459.665003,698.802814 C457.703564,696.247128 456.569079,693.071512 454.89548,690.274795 C453.971015,688.730129 453.689738,686.462368 451.667355,685.94279 C447.286931,684.817351 445.62177,682.502696 447.799793,678.285111 L447.799793,678.285111 Z M101.694745,556.708558 C91.4600049,560.242438 81.2299527,563.788511 70.9905245,567.306448 C64.1976798,569.639859 64.3795724,569.553576 66.8951283,576.430012 C67.8477205,579.035404 69.0525245,578.869402 71.0280282,578.185698 C90.3883388,571.483705 109.761776,564.816413 129.115523,558.091911 C129.894661,557.821805 131.045085,558.007503 131.350739,556.805158 C132.174882,553.563892 127.567561,547.641266 124.180983,547.452755 C119.829625,547.210785 115.379819,547.859789 110.385273,546.32544 C114.493796,542.887222 117.988197,539.831653 121.623236,536.954279 C126.150861,533.370692 121.770437,530.168816 121.067244,527.003517 C120.409056,524.042673 118.022887,526.285111 116.555558,526.779367 C97.8768758,533.071512 79.2506987,539.523095 60.5467016,545.737397 C57.4235869,546.774678 56.7607103,548.154279 58.1380311,550.936928 C58.6180775,551.905744 59.0596827,552.942087 59.2547016,553.996249 C59.7103707,556.459086 60.8101646,556.807034 63.1006987,555.882298 C66.9879498,554.311372 71.0233402,553.107151 74.995912,551.750059 C82.6025855,549.152169 90.2101965,546.554279 97.81687,543.957327 C97.9734476,544.264009 98.1300253,544.57163 98.2866029,544.87925 C94.6018714,548.033294 90.9162023,551.188277 86.8583097,554.662134 C92.1950761,555.592497 97.0517959,554.426729 101.694745,556.708558 L101.694745,556.708558 Z M166.700722,646.175381 C166.405381,645.953107 166.109102,645.730832 165.813761,645.508558 C169.509744,639.744431 173.262919,634.015944 176.852017,628.186166 C177.538333,627.070106 179.447268,625.945604 177.750228,624.190856 C176.061628,622.443611 174.935581,624.153341 173.753279,624.929894 C168.418388,628.43095 163.136002,632.011723 157.808612,635.524971 C156.852269,636.155217 155.932493,637.348183 154.575799,636.235873 C159.131552,630.526143 163.616048,624.757327 168.266498,619.126377 C172.034675,614.565533 166.559146,613.906213 165.13307,611.692849 C163.256014,608.778898 162.02777,611.628136 161.042362,612.812661 C148.272376,628.158968 135.56896,643.561547 122.85523,658.955686 C121.525726,660.565064 119.399271,662.142556 122.398623,664.137397 C124.834484,665.75803 125.941779,670.569285 130.52566,666.737163 C134.551674,663.371161 139.222751,660.77796 143.609738,657.843376 C141.87707,662.432356 139.688734,666.386401 136.881587,669.835873 C133.749096,673.684877 133.765035,676.452521 137.839805,679.633763 C139.955009,681.285346 140.999485,681.764596 143.200948,679.861665 C158.30741,666.811254 173.569511,653.941852 188.671285,640.886753 C189.702635,639.994842 193.569259,639.110434 190.247375,636.673857 C188.021535,635.04197 187.101758,629.590152 182.371613,633.662368 C177.309561,638.020633 171.937166,642.019695 166.700722,646.175381 L166.700722,646.175381 Z M517.165567,584.978664 C513.737735,584.305275 511.026223,582.141618 508.032496,580.569754 C502.392887,577.607034 502.559779,577.675498 499.458228,583.062603 C497.759314,586.014068 498.2553,587.206096 501.33341,588.792966 C518.717279,597.755217 536.016765,606.886284 553.181239,616.258382 C556.567816,618.106917 557.638545,617.465416 559.449033,614.365768 C561.74613,610.432356 561.74613,608.1449 557.064739,606.631184 C555.172681,606.018757 553.469079,604.810785 551.695157,603.846659 C547.322234,601.470106 542.957749,599.077608 538.590452,596.691676 C545.616757,596.500352 552.209895,597.432591 558.830223,598.093787 C568.180815,599.028839 568.189253,598.943494 571.993059,589.713951 C558.981175,587.978898 546.042423,586.209144 533.08867,584.564127 C530.443726,584.22837 528.658554,583.184525 527.081526,580.921454 C522.228556,573.957796 517.083996,567.197655 511.915059,560.171161 C511.111543,561.527315 510.594931,562.687456 509.827044,563.645018 C506.582043,567.690973 507.215854,571.131067 510.557427,574.998828 C513.143302,577.991559 516.355488,580.809848 517.088684,585.094959 L517.165567,584.978664 Z M601.736249,476.793904 C601.038681,412.146776 580.677961,354.407972 540.804104,303.521219 C534.927285,296.021102 528.72981,288.792966 521.966969,282.093787 C519.633305,279.781946 519.467352,278.120985 521.856333,276.013599 C522.671099,275.294256 523.414609,274.465182 524.060609,273.590152 C526.032362,270.917233 527.676896,271.132943 529.944928,273.539508 C542.375506,286.726846 554.008194,300.546307 564.115421,315.612192 C587.054516,349.807737 602.040028,387.239859 608.96226,427.788511 C612.909517,450.911606 613.954931,474.230715 612.256017,497.709261 C608.353764,551.629074 591.055215,600.766706 559.590609,644.640094 C515.931697,705.515123 457.411035,744.287456 384.209578,760.674795 C352.084908,767.867292 319.60489,769.238453 287.060179,765.095897 C230.386571,757.881829 179.935752,735.970457 136.219648,698.978195 C86.9173779,657.259086 54.9511602,604.844549 40.1222255,542.037515 C33.1924926,512.686987 31.501079,482.904103 33.9416276,452.851114 C38.5930151,395.587808 58.9584229,344.465651 93.8686755,299.026964 C100.906231,289.866823 108.576661,281.237515 116.647442,272.954279 C118.891096,270.650879 120.192472,270.92286 122.273924,273.008675 C127.073451,277.817116 127.215027,277.770223 122.731468,282.569285 C88.9416363,318.734349 65.2112154,360.491911 52.9034621,408.548183 C45.8265274,436.183353 42.684661,464.208675 44.6470383,492.781712 C45.3961733,503.680657 46.6000398,514.477374 48.349584,525.248769 C48.8286929,528.200234 49.3931225,528.704807 52.395288,527.877608 C77.5283446,520.953341 102.748597,514.340445 127.875091,507.392732 C131.964861,506.261665 133.199668,506.581477 134.050063,511.244549 C140.210034,545.0068 154.344214,575.086049 176.728255,601.210317 C203.612731,632.588511 237.023776,653.715826 277.230478,662.996014 C336.633413,676.706682 391.018362,664.922392 439.260217,627.49027 C475.147439,599.643142 497.82307,563.044783 508.028745,518.751231 C508.41222,517.086518 508.764754,515.414302 509.128539,513.7449 C511.007471,505.11653 511.001845,505.135287 519.294835,507.410551 C543.987224,514.183822 568.702115,520.876436 593.355125,527.788511 C596.286972,528.61102 597.141117,528.168347 597.623976,525.215006 C600.247355,509.184994 601.826257,493.079953 601.736249,476.793904 L601.736249,476.793904 Z" id="Fill-6" fill="#284F38" sketch:type="MSShapeGroup"></path>
                <path d="M332.342435,789.09646 C250.746728,788.82823 186.015466,766.638312 129.60532,721.853318 C71.4784467,675.704666 34.1538981,616.026354 18.0873437,543.310762 C12.0305077,515.895991 9.96405776,488.19517 11.5026441,460.173599 C15.0533001,395.490832 36.7388357,337.593529 76.1729634,286.271606 C84.0777907,275.98415 92.6408067,266.295991 101.669805,256.986729 C103.827201,254.763048 104.882929,255.143822 106.694354,257.217444 C111.799535,263.064103 111.896107,263.011583 106.492772,268.602204 C67.1280258,309.336553 41.4774192,357.496928 29.1902929,412.696928 C22.8915585,440.992356 20.9676224,469.657304 23.0968909,498.673013 C27.0263335,552.197984 43.7004467,601.312169 73.997753,645.470668 C119.353704,711.57993 181.483152,753.542884 259.70447,771.101618 C290.287741,777.967737 321.308868,779.511465 352.639399,776.30959 C413.011802,770.141243 466.795756,748.0151 513.488711,709.542884 C566.677294,665.718265 601.034368,609.877702 616.37429,542.506073 C621.903262,518.220023 624.482574,493.60197 623.598426,468.756952 C621.364148,405.917093 601.954145,348.909824 564.516148,298.214396 C556.070331,286.778054 546.982264,275.880047 536.797216,265.949918 C534.788897,263.991653 534.463553,262.535147 536.446557,260.56 C537.439466,259.570551 538.451126,258.543587 539.188072,257.366565 C540.952618,254.550152 542.431199,254.947808 544.527651,257.187433 C556.046891,269.490363 567.089834,282.158124 576.91391,295.898804 C603.55555,333.161172 621.057556,374.32694 629.638386,419.252614 C634.903895,446.822134 635.96056,474.661758 633.76191,502.647691 C629.472432,557.234326 611.961988,607.274185 580.957738,652.267386 C533.206244,721.564455 467.82148,765.046753 385.590087,782.866213 C364.995907,787.328581 344.05013,789.47442 332.342435,789.09646" id="Fill-8" fill="#284F38" sketch:type="MSShapeGroup"></path>
                <path d="M419.473021,14.0212896 C418.89734,13.962204 417.975689,13.8224619 418.222275,13.2269168 C418.589811,12.3387573 419.444893,12.8030012 420.089018,13.2072216 C419.883686,13.4754513 419.678354,13.7483705 419.473021,14.0212896" id="Fill-10" fill="#284F38" sketch:type="MSShapeGroup"></path>
                <path d="M484.521565,33.2103165 C484.153091,32.7498242 482.89297,32.5763189 483.744302,31.7181712 C484.341547,31.1169988 485.07193,31.67034 485.533225,32.3127784 C485.19663,32.6119578 484.859097,32.9111372 484.521565,33.2103165" id="Fill-12" fill="#284F38" sketch:type="MSShapeGroup"></path>
                <path d="M225.247918,13.507714 C225.751404,12.897163 226.527729,12.3832122 227.069656,13.0387808 C227.828167,13.9560141 226.561482,14.0244783 226.152693,14.4502696 C225.852664,14.1360844 225.549822,13.8218992 225.247918,13.507714" id="Fill-14" fill="#284F38" sketch:type="MSShapeGroup"></path>
                <path d="M307.678643,642.681641 C307.744274,643.06898 307.994611,643.667339 307.840846,643.802392 C307.396428,644.18973 307.105775,643.783634 306.933258,643.349402 C307.18172,643.127128 307.430181,642.903916 307.678643,642.681641" id="Fill-16" fill="#284F38" sketch:type="MSShapeGroup"></path>
                <path d="M162.809158,31.7119812 C162.839161,31.4840797 162.869164,31.2571161 162.898229,31.0292145 C163.039805,31.0582884 163.181381,31.0873623 163.322958,31.117374 C163.1195,31.292755 162.915106,31.468136 162.711648,31.6444549 L162.809158,31.7119812" id="Fill-18" fill="#284F38" sketch:type="MSShapeGroup"></path>
                <path d="M336.208965,485.999156 C339.348019,481.402673 341.518542,477.349215 344.510394,474.038546 C349.674643,468.325064 349.647453,462.284267 346.756861,455.223072 C339.779311,461.137257 332.095755,465.110059 322.741412,464.998453 C313.578338,464.88966 305.941662,461.227292 299.014742,454.98204 C297.035488,461.443939 295.479087,467.123658 300.435192,472.734912 C303.762701,476.503259 306.232315,481.029402 309.609517,485.985088 C304.807177,485.985088 300.956492,485.961641 297.105807,485.995404 C295.411581,486.009472 294.68401,484.76211 293.854243,483.653552 C291.70716,480.781805 289.911674,477.563986 287.397055,475.067386 C282.590028,470.294584 281.805264,465.072544 284.276754,459.012052 C284.738986,457.877233 284.848684,456.589543 285.052141,455.360938 C286.178188,448.552028 288.201508,442.6566 294.453363,438.218617 C299.491976,434.641594 302.285996,428.67864 304.088983,422.544994 C306.497653,414.349918 309.158536,406.227995 311.475322,398.007597 C312.252585,395.25027 313.279247,394.126706 315.796678,396.013693 C320.661836,399.660117 325.388231,399.522251 330.200884,395.906776 C332.347967,394.293646 333.525581,394.869496 334.29628,397.601501 C336.614005,405.820961 339.252385,413.950387 341.68637,422.13796 C344.122231,430.334912 348.674234,437.035967 355.63397,442.009472 C357.538217,443.370317 358.490809,444.954373 358.934289,447.297163 C360.03127,453.095991 361.389839,458.853552 362.885296,464.56422 C363.502231,466.916389 363.185325,468.745229 361.715183,470.633154 C358.749584,474.443705 355.682725,478.212052 353.114664,482.285205 C351.185102,485.343587 348.86269,486.399625 345.395479,486.05449 C342.653964,485.781571 339.864632,485.999156 336.208965,485.999156" id="Fill-20" fill="#FEFEFE" sketch:type="MSShapeGroup"></path>
                <path d="M519.896956,131.575334 C534.943412,145.132192 538.497818,161.737116 535.526593,180.121172 C532.673504,197.772755 525.920976,214.067245 516.756027,229.434185 C518.34243,218.867245 520.049783,208.344385 521.272401,197.73993 C522.542837,186.720938 523.115705,175.708511 523.152271,164.633247 C523.188837,153.718359 522.6741,142.871934 519.896956,131.575334" id="Fill-22" fill="#DBD0AE" sketch:type="MSShapeGroup"></path>
                <path d="M128.312195,225.321829 C126.662036,225.733552 126.347943,225.141758 126.076979,224.612802 C116.667319,206.205299 109.092523,187.247268 109.524753,166.087128 C109.80603,152.299555 115.656596,141.013271 125.816329,131.496741 C119.256944,163.187245 123.775194,194.35442 128.312195,225.321829" id="Fill-24" fill="#DBD0AE" sketch:type="MSShapeGroup"></path>
                <path d="M220.999507,369.278218 C208.419852,369.050317 195.843948,369.371067 183.606514,366.067902 C178.793861,364.768019 175.775756,361.134725 173.500224,356.889941 C169.256688,348.971536 167.26337,340.363798 165.751974,331.123939 C182.77112,346.237655 200.868496,359.152075 220.999507,369.278218" id="Fill-26" fill="#FEFEFE" sketch:type="MSShapeGroup"></path>
                <path d="M479.962248,331.282907 C478.192077,342.384431 476.01968,352.154185 469.930965,360.561219 C465.280516,366.980914 457.997311,367.395451 451.095706,368.163564 C442.803653,369.086424 434.452533,369.481266 426.121102,370.026166 C425.653244,370.057116 425.137569,369.374349 424.591891,368.986073 C444.696649,359.3917 462.5315,346.556061 479.962248,331.282907" id="Fill-28" fill="#FEFEFE" sketch:type="MSShapeGroup"></path>
                <path d="M365.536615,393.751184 C361.275266,393.829027 357.675855,392.119297 354.535864,389.434185 C351.776534,387.073576 351.986554,384.927737 355.19499,383.39245 C362.175353,380.053646 369.239161,376.890223 376.25984,373.634889 C379.545158,372.111794 381.122186,373.280375 381.757872,376.713904 C383.298334,385.048722 375.156296,393.671465 365.536615,393.751184" id="Fill-30" fill="#FEFEFE" sketch:type="MSShapeGroup"></path>
                <path d="M280.215111,393.744338 C270.564489,393.6468 263.347854,386.092286 264.051047,377.039062 C264.329511,373.459226 266.017174,372.05993 269.22561,373.452661 C276.617575,376.660164 283.918594,380.082438 291.198048,383.540352 C293.868307,384.808347 293.790487,386.869777 291.904992,388.801782 C288.725621,392.058992 284.824307,393.781852 280.215111,393.744338" id="Fill-32" fill="#FEFEFE" sketch:type="MSShapeGroup"></path>
                <path d="M305.095205,497.809988 L342.323182,497.809988 C337.533031,501.935662 337.060485,509.363564 330.418593,509.918781 C319.983208,510.790996 308.60367,512.523236 305.095205,497.809988" id="Fill-34" fill="#FEFEFE" sketch:type="MSShapeGroup"></path>
                <path d="M386.022035,453.866729 C385.643248,452.926049 386.026723,452.290176 386.837739,451.824994 C386.836801,451.824056 386.746792,451.764033 386.745855,451.763095 C387.240903,452.729097 386.488955,453.212098 385.962967,453.782321 L386.022035,453.866729 Z" id="Fill-36" fill="#DBD0AE" sketch:type="MSShapeGroup"></path>
                <path d="M481.655537,83.1281594 C481.676164,83.1112778 481.695854,83.0953341 481.721169,83.0747011 C481.725857,83.0718875 481.655537,83.1281594 481.655537,83.1281594" id="Fill-38" fill="#DBD0AE" sketch:type="MSShapeGroup"></path>
                <path d="M449.56237,330.745135 C449.470486,330.917702 449.378602,331.09027 449.286718,331.262837 C449.297969,331.18687 449.283905,331.086518 449.327035,331.040563 C449.41423,330.94959 449.533304,330.888628 449.637377,330.813599 C449.635502,330.811723 449.56237,330.745135 449.56237,330.745135" id="Fill-40" fill="#DBD0AE" sketch:type="MSShapeGroup"></path>
                <path d="M164.55392,83.1945604 C164.514542,83.3952638 164.475163,83.5959672 164.435784,83.7966706 C164.323273,83.7450879 164.210762,83.6944431 164.098251,83.6428605 C164.282019,83.5190621 164.465787,83.3952638 164.649555,83.2705275 L164.55392,83.1945604" id="Fill-42" fill="#DBD0AE" sketch:type="MSShapeGroup"></path>
                <path d="M385.962592,453.781946 C385.840705,453.876671 385.729131,453.990152 385.594118,454.057679 C385.536925,454.085815 385.430978,454.018288 385.347532,453.993904 C385.570679,453.949824 385.793825,453.904807 386.019785,453.86354 C386.02166,453.866354 385.962592,453.781946 385.962592,453.781946" id="Fill-44" fill="#DBD0AE" sketch:type="MSShapeGroup"></path>
                <path d="M166.700909,646.175287 C171.937354,642.019601 177.308811,638.020539 182.371801,633.662274 C187.101946,629.590059 188.021722,635.041876 190.247563,636.673763 C193.569446,639.11034 189.702822,639.994748 188.671473,640.886659 C173.569699,653.941758 158.307597,666.811161 143.201136,679.861571 C140.998735,681.764502 139.955197,681.285252 137.839992,679.633669 C133.765223,676.453365 133.748346,673.684783 136.880837,669.83578 C139.688921,666.386307 141.877258,662.432263 143.609925,657.843283 C139.222938,660.777866 134.551862,663.371067 130.525847,666.737069 C125.941966,670.569191 124.834671,665.757937 122.398811,664.137304 C119.399458,662.142462 121.524976,660.564971 122.855417,658.955592 C135.569147,643.561454 148.271626,628.158875 161.042549,612.812567 C162.027957,611.628042 163.256201,608.778804 165.133258,611.692755 C166.559333,613.90612 172.033925,614.56544 168.266686,619.126284 C163.616236,624.757233 159.13174,630.526049 154.570361,636.23578 C155.93268,637.349027 156.852457,636.155123 157.807862,635.524877 C163.135252,632.01163 168.418576,628.430856 173.753467,624.929801 C174.935769,624.154185 176.060878,622.443517 177.750416,624.190762 C179.447455,625.94551 177.53852,627.070012 176.852204,628.186073 C173.263107,634.01585 169.509931,639.744338 165.814886,645.509402 C165.800822,645.893927 165.785821,646.278453 165.770819,646.663916 C166.081162,646.500727 166.390567,646.338476 166.700909,646.175287" id="Fill-46" fill="#FEFEFE" sketch:type="MSShapeGroup"></path>
                <path d="M101.69437,556.708933 C97.0523585,554.427104 92.194701,555.592872 86.8579347,554.662509 C90.9167649,551.188652 94.6014964,548.033669 98.2862279,544.878687 C98.1296502,544.572005 97.9730726,544.264385 97.8164949,543.956764 C90.2098215,546.554654 82.603148,549.152544 74.9964746,551.750434 C71.0229652,553.107526 66.9875747,554.311747 63.1012612,555.881735 C60.8107271,556.807409 59.7099956,556.459461 59.2543266,553.995686 C59.0593077,552.941524 58.6177025,551.90612 58.137656,550.936366 C56.7603353,548.153716 57.4232119,546.774115 60.5463266,545.736835 C79.2512612,539.52347 97.8765007,533.071887 116.555183,526.778804 C118.02345,526.284549 120.408681,524.043048 121.066869,527.002954 C121.771,530.168253 126.150486,533.371067 121.622861,536.954654 C117.987821,539.832028 114.494358,542.887597 110.385836,546.325815 C115.379444,547.859226 119.82925,547.211161 124.181546,547.45313 C127.568123,547.640703 132.175444,553.564267 131.350364,556.805533 C131.04471,558.007878 129.894286,557.821243 129.115148,558.092286 C109.761401,564.81585 90.3889013,571.483142 71.0276531,578.186073 C69.0530871,578.869777 67.848283,579.03578 66.8947533,576.429449 C64.380135,569.553013 64.1982424,569.640234 70.9910871,567.305885 C81.2305152,563.787948 91.4605675,560.242814 101.69437,556.708933" id="Fill-48" fill="#FEFEFE" sketch:type="MSShapeGroup"></path>
                <path d="M437.800576,679.679719 C435.218451,675.233294 433.527037,669.977491 429.932314,667.095428 C428.066509,665.599531 423.63733,669.977491 420.257316,671.476202 C419.977914,671.6 419.751017,671.839156 419.493179,672.014537 C418.872494,672.436577 418.778735,672.994607 419.123769,673.616413 C421.456494,677.816178 422.998831,682.969754 426.441664,685.841501 C428.476236,687.539039 432.486311,683.320516 435.67037,681.900586 C436.095098,681.711137 436.572332,681.527315 436.873298,681.200938 C437.252085,680.79109 437.473356,680.236811 437.800576,679.679719 M442.275696,690.278546 C441.323104,690.76061 440.495211,691.17796 439.669194,691.599062 C431.15212,695.940445 431.15212,695.940445 435.521293,704.257444 C440.466146,713.669871 440.420204,713.593904 449.671412,708.026729 C451.661917,706.829074 451.814744,705.9034 450.743078,704.0483 C448.500361,700.167409 446.432973,696.185229 444.30933,692.235873 C443.820846,691.327081 443.593011,690.160375 442.275696,690.278546 M447.799981,678.285111 C445.62102,682.502696 447.286181,684.817351 451.667542,685.94279 C453.689925,686.462368 453.971203,688.730129 454.895667,690.274795 C456.569266,693.071512 457.703751,696.247128 459.665191,698.802814 C463.075208,703.244549 462.130117,707.637515 460.483708,712.243376 C459.933342,713.785229 459.060445,714.789683 457.537798,715.578429 C451.335635,718.792497 445.166288,722.08347 439.118828,725.57796 C437.006436,726.799062 436.19542,726.178195 435.202512,724.333411 C425.488134,706.29449 415.74938,688.267761 405.910303,670.297304 C404.789882,668.249941 405.371188,667.524971 407.171362,666.585229 C413.50385,663.281125 419.737891,659.791325 426.051626,656.451583 C428.583121,655.112309 436.809542,657.109965 438.232805,659.575615 C441.338105,664.951465 444.215571,670.460492 447.140854,675.93857 C447.490576,676.5932 447.55902,677.396952 447.799981,678.285111" id="Fill-50" fill="#FEFEFE" sketch:type="MSShapeGroup"></path>
                <path d="M210.859088,664.700868 C210.793457,662.194889 208.717631,661.928535 207.417192,661.088206 C200.121799,656.373552 199.863024,656.290082 195.768565,663.531348 C194.403433,665.946354 189.981756,668.135334 192.99986,671.595123 C195.050371,673.946354 198.3235,675.246237 201.106269,676.923142 C201.52631,677.177304 202.589538,677.159484 202.782682,676.876249 C205.570139,672.800281 208.259149,668.656788 210.859088,664.700868 M186.162011,679.893365 C184.555918,680.095006 184.23995,681.454912 183.608952,682.431231 C179.552934,688.705557 175.338464,694.891723 171.603102,701.35456 C169.918252,704.267573 168.636565,703.933693 166.312278,702.37871 C161.071146,698.87109 160.995201,698.956436 164.297396,693.7766 C174.586516,677.633107 184.921579,661.518687 195.14413,645.332989 C196.629274,642.981758 197.702815,642.270856 200.361822,644.063118 C207.835358,649.102274 215.515163,653.838499 223.185593,658.5766 C225.220165,659.833341 225.459251,660.751512 224.079117,662.881407 C212.916162,680.117515 201.871343,697.430528 190.917471,714.799812 C189.691102,716.744947 188.814455,716.942837 187.138981,715.616694 C186.04575,714.751981 184.864385,713.928535 183.598638,713.364877 C180.942444,712.183165 181.311854,710.708839 182.658235,708.661477 C186.844577,702.297116 190.793709,695.774256 195.052246,689.458664 C196.556142,687.230293 196.433317,686.087972 194.021834,684.813411 C191.281256,683.364408 188.743198,681.531817 186.162011,679.893365" id="Fill-52" fill="#FEFEFE" sketch:type="MSShapeGroup"></path>
                <path d="M562.028438,567.640703 C562.496296,565.916905 562.84883,564.561688 563.233242,563.21585 C563.916746,560.820539 564.719324,558.86415 567.870566,560.658288 C571.184949,562.546213 572.588522,560.967784 573.529864,557.613036 C575.928221,549.068136 576.066046,549.106589 567.753367,546.574349 C557.694894,543.509402 557.73146,543.520657 554.582093,553.715264 C553.311657,557.827808 553.46261,563.867667 550.130412,565.406706 C547.270761,566.728159 542.338096,563.589121 538.330833,562.392403 C531.484546,560.347855 524.662636,558.214209 517.789158,556.262509 C515.74146,555.681032 515.080459,555.074232 515.817405,552.760516 C518.643303,543.890176 521.238554,534.944807 523.82443,525.999437 C524.463866,523.787948 525.241129,523.022649 527.703242,523.968957 C531.608308,525.470481 535.668075,526.616553 539.733469,527.6332 C541.828046,528.157468 542.863147,528.708933 541.695846,531.001079 C541.139855,532.093693 540.769507,533.346682 540.615742,534.564971 C540.218203,537.713388 538.774313,538.596858 535.9231,537.082204 C532.824363,535.434373 531.462981,536.395686 530.540392,539.84422 C528.146723,548.799906 527.96483,548.751137 536.711614,551.319953 C543.871994,553.422649 543.873869,553.423587 546.078145,546.156061 C547.340142,541.994748 548.764343,537.871887 549.787254,533.652427 C550.348871,531.335897 551.354906,531.043283 553.379164,531.660399 C564.225213,534.966377 575.071263,538.27517 585.967004,541.407644 C588.345672,542.091348 588.848221,543.117374 588.152528,545.345744 C585.425077,554.091348 582.631057,562.822884 580.210197,571.655709 C579.435747,574.479625 578.431588,574.617491 576.032293,573.753716 C572.089724,572.334725 568.038395,571.207409 564.001129,570.066964 C562.45973,569.630856 561.177106,569.26415 562.028438,567.640703" id="Fill-54" fill="#FEFEFE" sketch:type="MSShapeGroup"></path>
                <path d="M449.167082,640.725252 C460.568185,654.275545 471.767706,667.485393 482.8219,680.815287 C484.819906,683.224666 486.147534,683.502274 488.65934,681.379883 C495.725961,675.412239 495.881601,675.49102 489.913836,668.351043 C480.608248,657.217632 471.272658,646.108605 461.832057,635.089613 C460.004693,632.955967 459.380257,631.632638 461.986759,629.530879 C467.076939,625.426776 466.942864,625.277655 471.138582,630.258664 C483.497903,644.931583 495.808469,659.646706 508.289677,674.214584 C510.167671,676.408253 509.64637,677.378945 507.744936,678.935803 C500.62581,684.766518 493.522623,690.624431 486.625706,696.71306 C484.505813,698.584103 483.466963,698.202392 481.886185,696.284455 C469.285903,680.993482 456.709999,665.68 443.891259,650.573787 C441.453523,647.701102 441.771366,646.138617 444.577575,644.258195 C446.125537,643.219977 447.542237,641.986682 449.167082,640.725252" id="Fill-56" fill="#FEFEFE" sketch:type="MSShapeGroup"></path>
                <path d="M237.641742,737.856975 C237.097939,737.632825 236.390058,737.321454 235.668113,737.045721 C227.264488,733.827902 218.888052,730.531301 210.432859,727.453224 C207.917303,726.537866 207.110975,725.737866 208.255774,722.886753 C215.727434,704.293552 223.050017,685.63939 230.217898,666.927081 C231.261437,664.204455 232.320914,663.548886 234.798967,664.876905 C235.746871,665.385229 236.786659,665.770692 237.828322,666.045487 C240.586714,666.775147 240.846427,668.045955 239.785074,670.73388 C233.791994,685.904807 228.164575,701.220164 222.135866,716.376084 C220.893559,719.500117 221.465489,720.523329 224.461091,721.648769 C233.353202,724.989449 233.288508,725.115123 236.656334,716.28136 C241.805582,702.775147 247.086093,689.317702 252.062824,675.74959 C253.23575,672.552403 254.581193,672.362016 257.402403,673.548417 C262.99982,675.901524 263.096392,675.773036 260.898679,681.493083 C254.099271,699.192497 247.291425,716.888159 240.406697,734.55381 C239.921962,735.797421 240.137608,737.869168 237.641742,737.856975" id="Fill-58" fill="#FEFEFE" sketch:type="MSShapeGroup"></path>
                <path d="M517.088872,585.09449 C516.355676,580.809379 513.14349,577.99109 510.557615,574.998359 C507.216042,571.130598 506.581293,567.691442 509.827232,563.645487 C510.595118,562.687925 511.111731,561.527784 511.915246,560.17163 C517.084184,567.198124 522.228744,573.958265 527.081713,580.920985 C528.658741,583.184994 530.442976,584.227902 533.088857,584.564596 C546.04261,586.209613 558.981362,587.979367 571.993246,589.713482 C568.188503,598.943025 568.180065,599.02837 558.83041,598.094256 C552.210082,597.432122 545.616944,596.500821 538.589702,596.692145 C542.957937,599.078077 547.321484,601.470574 551.694407,603.847128 C553.469266,604.811254 555.172869,606.019226 557.064927,606.630715 C561.74538,608.144431 561.746317,610.432825 559.44922,614.366237 C557.638732,617.465885 556.568004,618.107386 553.181426,616.257913 C536.016015,606.885815 518.716529,597.754748 501.333597,588.793435 C498.255487,587.206565 497.758564,586.014537 499.458416,583.062134 C502.559028,577.675029 502.393075,577.607503 508.032683,580.569285 C511.025473,582.142087 513.737922,584.305744 517.165754,584.978195 C517.30358,585.165768 517.442343,585.353341 517.580169,585.540914 C517.615798,585.361782 517.651426,585.182649 517.687055,585.003517 C517.487348,585.033529 517.288579,585.064478 517.088872,585.09449" id="Fill-60" fill="#FEFEFE" sketch:type="MSShapeGroup"></path>
                <path d="M509.379157,606.350762 C507.558356,608.488159 505.932574,611.13388 503.614849,612.839859 C502.227215,613.860258 500.578931,611.623447 499.537267,610.530832 C496.689804,607.545604 495.004954,608.361547 492.750048,611.354279 C487.625177,618.155686 487.44516,618.082532 494.101116,623.425557 C502.969787,630.543962 511.944405,637.531067 520.754008,644.722626 C522.774516,646.372333 524.080579,646.680891 525.432585,644.216178 C525.801058,643.544666 526.409555,643.004455 526.907415,642.40422 C531.572867,636.781712 531.645061,636.698242 526.328922,632.077374 C524.634696,630.604924 524.600942,629.655803 525.851688,627.890739 C530.054907,621.957796 530.023029,621.85932 535.733894,626.557093 C539.185166,629.395076 545.133241,631.545604 545.32826,635.298945 C545.497964,638.565533 540.492167,642.100352 537.777842,645.519812 C534.19062,650.038453 530.537767,654.507386 527.059305,659.108558 C525.71855,660.881125 524.768771,661.032122 522.989224,659.597186 C507.093311,646.781243 491.16177,634.008441 475.133656,621.358499 C473.044704,619.70973 473.393488,618.684642 474.781122,616.977726 C480.582934,609.844314 486.370681,602.697773 491.996225,595.425557 C493.533874,593.438218 494.569912,593.396014 496.396338,594.97163 C500.05388,598.12755 503.909253,601.053693 507.644614,604.121454 C508.320617,604.676671 509.33509,605.018054 509.379157,606.350762" id="Fill-62" fill="#FEFEFE" sketch:type="MSShapeGroup"></path>
                <path d="M278.59636,696.439297 C281.282558,692.71034 284.27441,689.15864 286.563069,685.199906 C288.627643,681.628511 291.170389,680.67095 294.911376,681.780445 C296.527783,682.260633 298.210758,682.514795 300.234079,682.951841 C295.170151,690.025229 290.304055,697.052661 285.160433,703.87095 C283.50371,706.067433 283.033977,708.080094 283.546839,710.707057 C285.751115,722.00272 287.809127,733.326518 289.939333,744.636249 C290.830044,749.364033 290.510325,749.361219 285.662981,748.898851 C281.10254,748.464619 279.532076,746.320657 278.976084,741.987714 C278.148192,735.523001 276.588979,729.152075 275.371048,722.735193 C275.198531,721.826401 275.201344,720.883845 273.55681,720.323001 C272.193553,727.740586 270.602462,734.951841 269.648932,742.247503 C269.224203,745.493458 267.813129,745.607878 265.346328,745.233669 C258.82726,744.24422 258.899455,744.292989 260.018,737.918312 C263.296755,719.229449 266.52488,700.532145 269.729565,681.83109 C270.156169,679.342931 270.696221,676.821008 273.940285,678.214678 C276.336767,679.245393 281.772918,676.918546 279.997121,683.36075 C278.858886,687.490176 278.485725,691.831559 277.769405,696.078218 C278.045057,696.198265 278.320709,696.31925 278.59636,696.439297" id="Fill-64" fill="#FEFEFE" sketch:type="MSShapeGroup"></path>
                <path d="M369.591414,736.381712 C376.089855,735.140914 381.651643,734.338101 387.059666,732.94068 C389.88369,732.210082 390.599071,732.958499 390.718145,735.529191 C390.781902,736.912544 391.05474,738.341852 391.531974,739.639859 C392.469565,742.190856 391.1485,742.969285 389.00798,743.370692 C380.603417,744.948183 372.176352,746.419695 363.822418,748.231653 C361.230918,748.793435 360.257698,748.238218 359.779527,745.726612 C355.969158,725.70973 352.148476,705.694725 348.149652,685.715358 C347.66773,683.307855 348.223722,682.878312 350.39987,682.485346 C359.121338,680.90973 367.821243,679.191559 376.485518,677.327081 C378.518215,676.890035 379.190468,677.394607 379.772711,679.259086 C382.047307,686.548183 381.94886,686.80422 374.321559,688.437984 C372.800787,688.764361 371.22751,688.910668 369.751742,689.373974 C366.523617,690.38687 360.759309,689.631887 360.397399,691.89027 C359.679205,696.372333 361.526259,701.30551 362.529481,706.005158 C362.982337,708.128488 364.878145,707.09871 366.052009,706.900821 C371.262201,706.025791 376.502395,705.198593 381.606639,703.87245 C384.337841,703.163423 384.905083,704.035639 385.037283,706.382181 C385.106665,707.610785 385.447948,708.842204 385.80142,710.031419 C386.631188,712.818757 385.453574,713.901055 382.7505,714.334349 C377.841275,715.120281 372.998619,716.328253 368.083768,717.065416 C365.691037,717.423681 364.781574,718.257444 365.297248,720.686518 C366.26578,725.249238 367.155553,729.829777 367.975945,734.420633 C368.268473,736.058148 369.082302,736.519578 369.591414,736.381712" id="Fill-66" fill="#FEFEFE" sketch:type="MSShapeGroup"></path>
                <path d="M307.68905,712.068933 C307.68905,704.106448 307.816562,696.140211 307.622481,688.181477 C307.550287,685.227198 308.332237,683.997655 311.430974,683.994842 C319.697712,683.986401 327.970075,683.86354 336.229311,683.526846 C339.085212,683.410551 339.971236,684.218054 340.017178,687.09449 C340.125938,693.946542 340.274078,693.921219 333.432478,694.174443 C329.074556,694.335756 324.71851,693.931536 320.345587,694.499883 C318.26226,694.769988 317.693143,695.491208 317.800966,697.388511 C318.011924,701.122157 318.256635,704.863306 318.221006,708.598828 C318.197567,711.13857 319.792408,710.797186 321.328182,710.78687 C326.32554,710.753107 331.339776,710.946307 336.312757,710.579601 C339.541819,710.341383 340.160629,711.685346 340.306893,714.453927 C340.650989,720.965533 340.755999,720.957093 334.088792,721.00211 C330.184664,721.02837 326.26366,721.307855 322.382972,721.024619 C318.934513,720.772333 318.115059,722.135991 318.33258,725.289097 C318.599793,729.178429 318.641047,733.106213 318.423526,736.998359 C318.255697,739.992028 319.424873,740.763892 322.20858,740.627902 C327.34939,740.374678 332.509889,740.50973 337.651636,740.264947 C340.156879,740.145838 340.750374,741.137163 340.888199,743.468699 C341.326054,750.892849 341.424501,750.869402 333.892835,750.891911 C326.709015,750.913482 319.520507,750.836577 312.345125,751.091676 C309.583921,751.190152 308.508504,750.717468 308.554446,747.643142 C308.732588,735.786635 308.626641,723.926377 308.626641,712.067995 C308.314423,712.067995 308.001268,712.068933 307.68905,712.068933" id="Fill-68" fill="#FEFEFE" sketch:type="MSShapeGroup"></path>
                <path d="M110.525818,649.80755 C109.037862,649.52619 108.608445,648.4317 108.003699,647.591372 C103.006341,640.63803 98.1233684,633.600281 93.0191245,626.726659 C91.4542856,624.620211 91.5452319,623.506964 93.7260679,621.962298 C110.237978,610.262415 126.709572,598.503447 143.089281,586.62068 C145.528892,584.850926 146.503987,585.384572 148.053824,587.656084 C151.746056,593.067573 151.907322,593.006612 146.504924,596.89313 C133.991839,605.892896 121.520945,614.95456 108.874721,623.763001 C106.037572,625.739086 106.048823,627.065229 108.046828,629.563705 C111.056495,633.326424 113.53736,637.512122 116.556402,641.265463 C118.381891,643.536038 118.319072,644.832169 115.749136,646.239906 C113.861766,647.273435 112.170352,648.667104 110.525818,649.80755" id="Fill-70" fill="#FEFEFE" sketch:type="MSShapeGroup"></path>
                <path d="M136.064008,566.506448 C136.329346,566.801876 136.703445,567.105744 136.936905,567.494021 C141.561102,575.20891 141.532974,575.161079 133.480008,579.343025 C117.384388,587.703165 101.281268,596.052052 85.274719,604.58007 C82.2575521,606.187573 80.7770964,606.332005 79.2488235,602.736225 C76.897346,597.201876 76.613256,597.357562 81.8965797,594.61993 C99.9264491,585.277843 117.945067,575.912309 136.064008,566.506448" id="Fill-72" fill="#FEFEFE" sketch:type="MSShapeGroup"></path>
                <path d="M166.700909,646.175287 C166.390567,646.338476 166.081162,646.500727 165.770819,646.663916 C165.785821,646.27939 165.800822,645.893927 165.814886,645.509402 C166.10929,645.730739 166.404631,645.953013 166.700909,646.175287" id="Fill-74" fill="#284F38" sketch:type="MSShapeGroup"></path>
                <path d="M442.27579,690.278171 C443.593105,690.16 443.820939,691.326706 444.309424,692.236436 C446.432129,696.185791 448.500455,700.167972 450.742234,704.048863 C451.8139,705.903025 451.66201,706.829637 449.671505,708.027292 C440.420298,713.593529 440.46624,713.670434 435.521386,704.257069 C431.152214,695.94007 431.152214,695.94007 439.669288,691.598687 C440.495305,691.177585 441.323198,690.760234 442.27579,690.278171" id="Fill-76" fill="#284F38" sketch:type="MSShapeGroup"></path>
                <path d="M437.800576,679.679719 C437.473356,680.236811 437.252085,680.79109 436.873298,681.200938 C436.572332,681.527315 436.095098,681.711137 435.67037,681.900586 C432.486311,683.320516 428.476236,687.539039 426.441664,685.841501 C422.998831,682.969754 421.456494,677.816178 419.123769,673.616413 C418.778735,672.994607 418.872494,672.436577 419.493179,672.014537 C419.751017,671.839156 419.977914,671.6 420.257316,671.476202 C423.63733,669.977491 428.066509,665.599531 429.932314,667.095428 C433.527037,669.977491 435.218451,675.233294 437.800576,679.679719" id="Fill-78" fill="#284F38" sketch:type="MSShapeGroup"></path>
                <path d="M210.859088,664.700868 C208.259149,668.656788 205.570139,672.800281 202.782682,676.876249 C202.589538,677.159484 201.52631,677.177304 201.106269,676.923142 C198.3235,675.246237 195.050371,673.946354 192.99986,671.595123 C189.981756,668.135334 194.403433,665.946354 195.768565,663.531348 C199.863024,656.290082 200.121799,656.373552 207.417192,661.088206 C208.717631,661.928535 210.793457,662.194889 210.859088,664.700868" id="Fill-80" fill="#284F38" sketch:type="MSShapeGroup"></path>
                <path d="M517.088872,585.09449 C517.288579,585.064478 517.487348,585.033529 517.687055,585.003517 L517.580169,585.540914 C517.442343,585.353341 517.30358,585.165768 517.165754,584.978195 L517.088872,585.09449" id="Fill-82" fill="#284F38" sketch:type="MSShapeGroup"></path>
            </g>
        </g>
    </g>
</svg>