<?xml version="1.0" encoding="UTF-8" standalone="no"?>
<svg width="800px" height="800px" viewBox="0 0 800 800" version="1.1" xmlns="http://www.w3.org/2000/svg" xmlns:xlink="http://www.w3.org/1999/xlink" xmlns:sketch="http://www.bohemiancoding.com/sketch/ns">
    <!-- Generator: Sketch 3.4.4 (17249) - http://www.bohemiancoding.com/sketch -->
    <title>bulls</title>
    <desc>Created with Sketch.</desc>
    <defs>
        <path id="path-1" d="M0,0.542458531 L799.941089,0.542458531 L799.941089,721 L0,721"></path>
    </defs>
    <g id="Page-1" stroke="none" stroke-width="1" fill="none" fill-rule="evenodd" sketch:type="MSPage">
        <g id="bulls" sketch:type="MSArtboardGroup">
            <g id="Page-1" sketch:type="MSLayerGroup" transform="translate(0.000000, 40.000000)">
                <g id="Group-3">
                    <mask id="mask-2" sketch:name="Clip 2" fill="white">
                        <use xlink:href="#path-1"></use>
                    </mask>
                    <g id="Clip-2"></g>
                    <path d="M537.518207,412.453261 C556.833469,411.935576 570.398463,402.460919 576.223863,385.590885 C578.083415,380.205596 578.973063,374.609304 579.296649,368.93271 C579.388858,367.319003 580.298997,365.114998 578.696435,364.249627 C577.046062,363.357774 575.270181,364.997964 573.624931,365.74032 C571.896862,366.521119 572.497076,368.152766 572.402305,369.493962 C570.707535,393.513343 559.710736,405.379089 537.524184,407.090183 C535.899424,407.21576 533.903266,406.599834 534.064632,409.438558 C534.21063,411.991958 535.420448,412.985468 537.518207,412.453261 M260.882988,411.138547 C262.568367,410.690057 265.554066,412.49512 265.676158,408.170829 C265.783735,404.364222 263.925891,404.082314 260.965806,404.131007 C258.576051,404.169449 256.154707,403.747442 253.786297,403.313475 C240.487684,400.879673 230.867193,393.990023 226.698143,380.631875 C225.508815,376.82356 224.929093,372.873436 224.789925,368.91477 C224.664418,365.337961 222.021089,366.416898 220.213618,366.15891 C218.202946,365.871877 217.094728,366.753479 217.183522,369.087332 C217.357695,373.638004 217.792273,378.110938 219.214685,382.473671 C225.000811,400.219326 239.520342,410.298804 260.882988,411.138547 M222.378826,435.355262 C221.56175,437.428564 222.443714,438.971368 223.085763,440.508191 C226.465059,448.605773 232.302412,454.347291 240.146169,458.118018 C250.722049,463.202606 261.285123,460.462977 267.765379,450.763647 C271.02429,445.884938 273.249264,440.458644 273.919488,434.612051 C274.156841,432.549 276.29302,429.804246 273.913511,428.372497 C271.970288,427.203862 270.24905,429.873441 268.476585,430.888308 C259.011483,436.308622 249.177545,440.36382 237.984376,440.134023 C232.325464,440.017843 227.343607,437.796753 222.378826,435.355262 M10.2499039,130.051058 C10.5922732,130.203118 10.9337887,130.355177 11.276158,130.50809 C16.3211953,124.594011 21.4499039,118.748273 26.3702882,112.732536 C28.451825,110.186825 30.0586553,109.806677 32.5047599,112.317363 C36.3655923,116.2803 40.4424333,120.043339 44.5747705,123.726077 C46.2806403,125.245816 47.5502241,127.428464 50.0279189,128.153735 C50.1346425,127.632633 50.2891782,127.337057 50.2319744,127.090175 C44.5278122,102.45914 43.2496905,77.4377065 43.6834152,52.2736105 C43.7807471,46.6055596 44.1427535,40.94178 44.3246105,35.2745833 C44.3493703,34.5048902 44.7685806,33.3721342 43.7722092,33.0159056 C42.4522519,32.5434968 42.21746,33.8565027 41.7623906,34.6731805 C41.4166062,35.2925229 41.1280256,35.9434731 40.8215155,36.5841722 C32.7122305,53.5088783 26.0330416,70.9905655 20.4492636,88.8993854 C16.2341089,102.41899 12.8087086,116.130804 10.2499039,130.051058 M789.134856,124.639287 C789.517353,124.412907 789.899851,124.186526 790.281494,123.959292 C781.084482,92.4035821 772.894941,60.4882267 756.538058,31.3133546 C757.712871,62.3436911 756.327172,93.1100596 751.146382,124.700794 C757.501985,121.230768 762.843287,118.58938 767.887471,115.466185 C771.487044,113.238261 774.277225,113.51248 777.486617,116.18206 C781.1673,119.244601 785.234749,121.840714 789.134856,124.639287 M521.653959,438.928654 C517.99889,450.048627 515.013191,460.374987 512.433895,470.821799 C505.456734,499.081753 501.369648,527.644971 503.909669,556.831802 C504.519274,563.838487 505.932295,570.74864 509.148517,577.938992 C512.053106,572.406769 514.672529,567.554542 517.168154,562.640807 C533.777759,529.94209 550.02365,497.071666 563.672316,462.991602 C564.16666,461.758897 565.677012,460.339108 564.604653,459.174744 C563.621089,458.106058 561.953639,459.083338 560.602946,459.465195 C548.821515,462.801101 538.754493,460.052929 530.374557,451.045555 C527.163458,447.594323 524.640512,443.668119 521.653959,438.928654 M279.294088,438.76549 C275.083202,447.959094 271.16175,457.107422 262.120128,462.326984 C252.443287,467.91388 242.973063,464.054308 232.681494,460.046949 C251.114792,501.072191 269.718847,540.687041 294.557268,577.223972 C303.974557,529.45943 300.227279,483.220607 279.294088,438.76549 M593.91095,193.074489 C587.756841,193.074489 582.777545,193.165895 577.803372,193.036901 C575.259936,192.970268 574.423223,193.177855 575.277866,196.25321 C580.312657,214.369616 584.427065,232.699589 587.657801,251.240566 C590.140619,265.48715 592.226425,279.783281 593.894728,294.136648 C594.260149,297.27522 595.608282,297.644262 598.212337,297.454615 C613.630053,296.330402 629.060576,295.546186 644.39889,293.317408 C673.287684,289.120402 700.924824,281.193673 727.014045,267.852611 C752.692593,254.721697 772.274237,235.910773 783.733789,209.146638 C793.267193,186.88021 795.068687,163.643337 792.076158,139.881945 C791.779893,137.530152 792.195688,134.647861 789.659082,132.884657 C784.768581,129.482972 779.916499,126.026614 775.075518,122.555734 C773.387577,121.34524 771.912231,121.322175 770.039018,122.42674 C763.456307,126.311084 756.970075,130.383368 750.003159,133.574903 C748.621729,134.20706 747.846489,135.301374 747.138698,136.539204 C743.114792,143.575788 738.357481,150.12715 733.605293,156.669114 C725.619808,167.66351 715.502412,176.161742 703.281281,182.183459 C685.870822,190.761992 667.210416,193.471722 648.112017,194.064582 C629.64286,194.638648 611.188218,193.834785 593.91095,193.074489 M225.577118,195.659496 C219.282988,196.078086 213.351718,196.436023 207.426425,196.872552 C184.075304,198.593897 160.743821,200.890163 137.28,199.211531 C119.498143,197.93953 102.731441,193.278658 87.5459552,183.741639 C74.8953682,175.796971 64.5004909,165.37835 58.3591889,151.769902 C54.8868303,144.074679 51.0140448,137.186737 44.6277054,131.724564 C40.2008111,127.939314 35.7559872,124.168587 31.4853362,120.21163 C30.0304803,118.862744 29.3773319,119.098522 28.1803202,120.425196 C22.1833084,127.072235 16.0940875,133.63641 10.0159658,140.209983 C8.82578442,141.497361 7.99334045,142.895793 7.75086446,144.679499 C5.06313767,164.414739 5.21255069,184.049175 10.3233298,203.4111 C15.9882177,224.871955 26.2610032,243.68288 43.3734899,258.220768 C55.3470224,268.393361 68.8804269,276.055267 83.5229029,281.69769 C120.993981,296.138192 160.12397,297.465721 199.569007,296.29794 C202.142327,296.221056 202.098783,294.446747 202.324184,292.828768 C205.680427,268.684665 210.599957,244.876288 217.616393,221.521526 C220.165806,213.036108 222.826211,204.584006 225.577118,195.659496 M396.316073,715.870393 C398.308815,715.870393 400.304973,715.950693 402.29174,715.848182 C404.26826,715.746524 406.231974,715.333914 408.207641,715.277532 C432.382668,714.591557 455.7927,709.887118 478.652038,702.118428 C482.309669,700.875472 485.097289,698.867948 487.442647,695.813095 C506.96111,670.379906 517.881067,641.47669 522.375411,609.934648 C522.676798,607.817779 521.903266,606.61241 520.242647,605.318198 C510.197823,597.486293 499.063565,591.543169 487.751718,585.817028 C462.924397,573.249929 436.577332,566.426057 408.881281,565.041293 C385.185229,563.855573 361.833255,566.508067 338.944888,572.927871 C319.093447,578.495973 300.485977,586.752448 283.304333,598.226941 C280.244354,600.270344 278.847556,602.49656 279.334216,606.25789 C280.479146,615.114914 280.961537,624.04455 282.638378,632.849464 C286.905614,655.254282 295.029413,675.947153 309.257801,693.98753 C312.156414,697.661725 315.282134,700.761855 319.990779,702.552395 C344.608068,711.910872 370.202092,715.29718 396.316073,715.870393 M298.888538,583.387497 C301.355987,582.259866 302.480427,581.763538 303.589498,581.236457 C310.519701,577.942409 317.520768,574.826049 324.778826,572.305112 C356.100064,561.426042 388.257161,558.132849 421.209136,561.228707 C444.459509,563.413063 466.771569,568.891467 487.884909,578.974362 C492.239232,581.052789 496.485123,583.358452 500.83603,585.444568 C502.152572,586.07587 503.617673,587.745105 505.019594,586.548279 C506.270395,585.481301 504.52952,583.981211 504.470608,582.614387 C504.464632,582.479413 504.372423,582.349564 504.329733,582.213736 C495.118207,553.364339 491.512657,523.873389 493.268901,493.594806 C494.610203,470.455319 499.26762,448.06844 506.259296,426.070252 C506.617033,424.945184 507.886617,423.576651 506.722049,422.519925 C505.430267,421.347872 503.998463,422.71726 502.831334,423.24605 C493.358549,427.535317 483.627919,431.049765 473.411483,433.041057 C444.98715,438.580968 420.334856,432.937691 402.202092,408.550122 C400.715646,406.550287 399.716713,406.640839 398.297716,408.332285 C397.566873,409.202781 396.748943,410.000665 396.013831,410.868599 C389.121195,418.996934 381.202305,425.746485 371.192487,429.812788 C353.130587,437.150928 334.665699,436.781031 315.982241,432.919752 C308.812124,431.437601 301.918634,429.010633 294.081708,426.087337 C303.859296,451.906654 309.394408,477.584164 310.747663,504.086894 C312.113725,530.857863 307.837951,556.902707 298.888538,583.387497 M269.834109,420.008384 C265.849477,419.551352 262.365165,419.114823 258.874023,418.75774 C232.240085,416.031779 212.913725,397.023519 210.214045,370.361042 C209.717994,365.466955 208.676371,362.800793 203.224931,362.057582 C197.163885,361.231507 194.572636,357.584648 195.678292,351.357908 C198.463351,335.670178 207.865272,329.372534 223.09857,331.942164 C236.549157,334.211093 247.696222,341.222903 257.837524,349.998772 C269.988645,360.51307 281.004226,372.250677 293.195475,382.73593 C303.69793,391.768933 315.004653,399.215564 328.774557,401.991927 C344.055667,405.073262 358.868047,404.748641 371.434963,393.757663 C383.416179,383.279243 391.546809,370.348228 395.360683,354.800598 C397.128026,347.594015 397.14254,347.607683 389.91095,346.860201 C388.785656,346.743166 387.676585,346.345933 386.55556,346.326285 C364.528666,345.939302 342.671676,343.44741 320.816393,340.974312 C315.187364,340.337884 309.588218,339.431509 303.984803,338.578952 C302.488965,338.351717 301.211697,337.640114 301.361964,335.810278 C301.526745,333.811297 302.961964,333.3013 304.672956,333.256878 C305.525037,333.234667 306.385656,333.230396 307.230907,333.322657 C318.085977,334.507523 328.951291,335.606962 339.788431,336.933637 C358.116713,339.176938 376.558549,339.717688 394.96111,340.856423 C397.111804,340.989689 397.834963,340.213161 398.065486,337.982675 C398.623863,332.59226 398.545315,327.200991 398.716073,321.807159 C398.804013,319.020545 397.767513,318.022763 395.001238,318.055225 C389.455027,318.119295 383.887471,318.185928 378.36175,317.788695 C357.851185,316.31167 337.379039,314.409221 317.074237,311.050249 C312.181174,310.24126 307.310309,309.260563 302.476158,308.153435 C300.517567,307.704946 299.144674,306.262946 299.694514,304.041002 C300.228132,301.884836 301.893874,301.875439 303.766233,302.271818 C306.121836,302.769855 308.527812,303.021009 310.90476,303.425076 C325.731654,305.946013 340.68064,307.582786 355.62365,309.11363 C368.742113,310.457389 381.945101,310.957134 395.106254,311.895118 C397.747876,312.083056 398.903052,311.373161 398.914152,308.416549 C398.939765,301.603782 398.296862,294.767096 399.411057,287.970561 C399.81063,285.537613 398.449691,284.720081 396.140192,284.76792 C374.502625,285.215555 353.047769,282.893661 331.61682,280.337699 C322.890245,279.297204 314.18587,278.043143 305.502839,276.684861 C303.709029,276.404661 301.173276,276.042453 301.486617,273.209709 C301.819594,270.20184 304.370715,270.859625 306.179893,271.022789 C310.977332,271.456756 315.757695,272.118812 320.531227,272.787702 C343.311163,275.977529 366.21746,277.674954 389.190352,278.474547 C400.437311,278.866654 400.288751,278.722284 399.030267,267.430603 C398.563244,263.23616 398.311377,258.917849 399.428986,254.705466 C399.775624,253.399294 400.201665,252.193071 401.846062,252.215282 C403.487044,252.237493 403.971996,253.551353 404.269968,254.779787 C404.566233,256.003095 404.625998,257.303287 404.641366,258.571871 C404.7054,263.838417 404.799317,269.107526 404.702839,274.372364 C404.659296,276.777121 405.094728,278.04058 407.957481,277.868872 C416.321195,277.366564 424.707962,277.239279 433.069968,276.719031 C440.003586,276.287627 446.92952,275.63326 453.833255,274.855024 C467.35556,273.329306 480.886403,271.852281 494.278079,269.341595 C496.288751,268.964864 498.732295,269.110943 499.113084,271.582333 C499.472529,273.916186 497.126318,274.303169 495.328239,274.764472 C494.915859,274.870401 494.513725,275.031003 494.096222,275.101052 C465.693234,279.918255 437.21682,284.122095 408.343394,284.649177 C405.225358,284.705558 404.520982,285.881028 404.608068,288.701812 C404.797609,294.818352 404.877866,300.947707 404.690032,307.062538 C404.586724,310.448846 405.752145,311.335574 409.097289,311.271504 C422.166233,311.022913 435.203586,310.318144 448.240939,309.433125 C461.55492,308.528458 474.79206,307.093292 487.907108,304.600545 C491.388858,303.939344 494.857801,303.150003 498.369434,302.733121 C500.018954,302.537494 502.202946,302.956084 502.568367,304.855971 C502.957695,306.878017 500.877866,307.622936 499.309456,308.208108 C497.858015,308.748858 496.299851,309.076042 494.76047,309.298151 C466.115859,313.426816 437.484909,317.722916 408.461217,318.052663 C405.569434,318.085125 404.709669,319.244363 404.873597,321.904545 C405.180107,326.862702 405.644568,331.837089 405.495155,336.788411 C405.381601,340.548034 407.144674,341.044362 410.166233,340.830795 C422.051825,339.991052 433.945101,339.270052 445.830694,338.436289 C458.565806,337.543582 471.253959,336.182737 483.896009,334.398177 C490.072316,333.525972 496.242647,332.60422 502.422369,331.75508 C504.398036,331.483423 506.407001,331.899451 506.965379,333.990692 C507.584376,336.31344 505.659936,337.066902 503.809776,337.734938 C501.744461,338.480711 499.600598,338.317547 497.496009,338.594329 C470.628986,342.130987 443.717567,345.177298 416.620021,346.304074 C407.162604,346.697036 407.166019,346.767086 408.997396,355.875263 C409.024717,356.014509 409.023863,356.159734 409.053746,356.298125 C411.883202,369.512756 416.778826,381.693727 427.644995,390.426882 C442.547876,402.406246 459.410203,402.700113 476.947876,397.977734 C490.787791,394.251428 501.134002,385.067221 511.24286,375.647236 C520.91714,366.631319 530.079146,357.055858 539.904546,348.212503 C553.0546,336.376656 567.82429,328.224401 586.455667,329.799666 C595.471676,330.561671 601.46698,334.229032 603.885763,341.034111 C607.999317,352.602573 604.583308,357.214752 594.508602,358.180071 C591.633895,358.455145 590.550438,360.295233 590.087684,362.981043 C589.294514,367.589805 588.466339,372.216506 587.245422,376.725319 C581.99206,396.134229 571.668901,411.004427 551.190779,416.80916 C544.118847,418.813267 536.979466,420.330442 529.465272,420.895966 C529.714578,421.662242 529.75556,422.089375 529.968154,422.398619 C535.688538,430.721727 548.835176,434.67783 559.892593,431.781016 C576.188858,427.511397 585.895582,416.748507 591.790139,401.38967 C596.621729,388.800361 601.063138,376.030801 607.036243,363.884856 C608.468901,360.972665 609.721409,360.121817 612.840299,361.673163 C620.091526,365.279871 627.620235,368.244172 635.505827,370.244862 C651.544248,374.312874 667.866126,377.511243 684.301558,374.814327 C707.362391,371.03164 727.253106,360.313172 743.51095,343.356004 C749.698356,336.902883 749.782028,337.525643 741.238164,334.292248 C740.175197,333.889889 739.111377,333.490093 738.056094,333.070648 C711.316286,322.42821 683.698783,314.990121 655.352145,310.10116 C634.069755,306.431236 612.7054,303.699295 591.084909,303.361006 C588.957268,303.32769 587.633042,302.944125 587.460576,300.383037 C586.297716,283.101248 584.126531,265.933076 581.478933,248.820432 C578.630694,230.413575 574.49238,212.317671 568.729306,194.595935 C568.020662,192.417558 567.043927,191.45651 564.581601,191.351435 C549.129733,190.691088 533.689819,189.766773 518.239658,189.062858 C504.197396,188.423013 490.150864,187.852364 476.100918,187.430357 C454.089392,186.77001 432.076158,186.125894 410.059509,185.726952 C389.596756,185.356201 369.157908,186.480414 348.717353,187.277443 C334.672529,187.825882 320.625144,188.378592 306.590566,189.151702 C283.21127,190.43908 259.845635,191.9853 236.462924,193.200066 C233.368794,193.360667 232.031761,194.304631 231.04222,197.182651 C219.331654,231.26784 210.838164,266.066342 207.497289,302.023227 C207.241153,304.783358 206.245635,305.910134 203.311163,306.063048 C196.376692,306.422693 189.434536,306.974549 182.547876,307.860422 C156.644781,311.192911 130.988431,315.940919 105.706041,322.49826 C87.0242903,327.343653 68.4023052,332.45216 50.6563074,340.275523 C47.7269584,341.567172 47.3495838,342.476965 49.5335752,344.940666 C74.6691142,373.295443 106.239658,383.208339 143.249691,378.283499 C159.151505,376.167484 174.390779,372.037111 188.848837,365.127812 C191.319701,363.947217 192.16666,364.699825 193.270608,366.873076 C197.292807,374.789554 199.339338,383.403966 202.339552,391.677526 C205.774344,401.149621 208.413404,410.969402 214.245635,419.397584 C228.378399,439.821362 256.164952,440.362966 269.834109,420.008384 M526.812551,429.873441 C526.769861,429.773492 526.74254,429.660729 526.675945,429.581282 C526.640085,429.538569 526.535069,429.553946 526.46079,429.54284 C526.593127,429.63681 526.726318,429.730779 526.858655,429.824748 C526.577759,444.389119 540.406574,457.687468 553.615539,455.281003 C564.991419,453.209409 576.836884,439.767543 578.433469,429.365153 C578.174771,429.34038 577.862284,429.209677 577.668474,429.309626 C576.661003,429.829019 575.702199,430.442382 574.69302,430.959212 C565.574557,435.632044 556.077866,438.033384 545.671035,436.956156 C538.650331,436.229176 532.632828,433.470753 526.812551,429.873441 M748.106894,0.541860545 C767.521195,38.4695359 785.801665,75.604453 794.514578,116.548539 C798.875731,137.044929 801.408068,157.739509 799.023436,178.699765 C794.734856,216.398497 775.910523,245.089 744.322049,265.63152 C720.742967,280.963876 694.529093,289.638087 667.329947,295.693974 C658.232828,297.719438 649.048623,299.357919 638.833895,301.38509 C650.486403,303.919696 661.130587,306.458573 671.865272,308.526749 C700.264845,313.999173 727.230053,324.16664 754.481281,333.416626 C757.507108,334.443453 757.875945,335.317366 755.688538,338.230411 C739.345315,359.999657 717.278292,372.538564 691.319701,378.98656 C677.390993,382.446334 663.43667,381.420362 649.486617,379.036961 C636.770288,376.864564 624.258869,373.955791 612.596969,368.239047 C610.213191,367.070411 610.263565,369.053161 609.867407,370.013356 C604.19825,383.728587 598.71778,397.52241 593.008495,411.220556 C574.385656,455.897782 553.931441,499.735266 532.437311,543.093506 C526.778399,554.507346 521.246702,565.983548 515.563031,577.384574 C514.864632,578.783861 514.639232,580.050736 515.088324,581.454294 C516.924824,587.186415 519.144674,592.996274 523.840512,596.772127 C529.605293,601.407371 530.669114,606.672209 529.370502,613.540503 C523.335069,645.44817 511.977972,675.010024 492.09238,700.997632 C489.990352,703.744949 487.439232,705.408204 484.344248,706.621261 C470.441153,712.069766 455.954066,715.281804 441.278292,717.602843 C425.977545,720.022122 410.531654,721.227491 395.040512,720.964377 C367.54937,720.497094 340.618314,716.64094 314.779253,706.693874 C312.452679,705.798603 310.595688,704.532582 308.969221,702.670284 C291.84222,683.06233 281.770928,660.099676 276.67381,634.777541 C274.428346,623.619126 273.31159,612.345385 273.189498,600.947776 C273.155347,597.751115 274.151718,595.559925 276.565379,593.669435 C280.397182,590.665838 283.639018,587.110385 286.006574,582.808305 C287.305187,580.449678 287.450331,578.362708 285.932295,575.806746 C253.918634,521.898327 227.816606,465.06405 202.996115,407.601888 C198.059509,396.173525 194.271249,384.324864 190.601665,372.448866 C189.903266,370.190189 189.397823,369.887779 187.176265,370.832596 C164.865912,380.324339 141.525891,385.98641 117.324397,384.324864 C85.9211953,382.168698 59.48619,369.392305 40.6123372,343.118518 C38.7818143,340.570244 39.7816009,340.117484 41.9809605,339.039401 C65.368794,327.57943 90.2396585,320.661589 115.399104,314.48525 C133.240726,310.106286 151.38032,307.336757 169.380747,303.642914 C158.564098,302.710056 147.710736,302.089859 136.938485,300.787959 C101.390139,296.493567 67.9310139,286.464491 39.6142583,263.391637 C20.1555603,247.537325 8.7967556,226.671893 3.48704376,202.374022 C-1.93622199,177.551632 -0.457459979,152.831754 3.9890715,127.965797 C11.2454216,87.3958783 25.6633511,49.5954885 46.0390181,13.9350335 C46.6238634,12.9124778 46.74254,11.4653523 48.2605763,11.0501793 C49.0904589,12.0812776 48.661857,13.24137 48.6644184,14.2895537 C48.718207,36.4816603 48.2076414,58.689998 49.6300534,80.8522053 C50.7664461,98.541479 51.890032,116.32643 57.6334685,133.273348 C67.7517182,163.132486 88.9179936,181.102813 119.061857,188.905673 C138.249904,193.872372 157.758122,194.15428 177.400384,192.573035 C190.845848,191.49068 204.32461,190.83375 217.785443,189.943606 C235.490459,188.772408 253.204013,187.707139 270.892807,186.323229 C290.146596,184.817159 309.421729,183.710031 328.700277,182.608883 C362.773276,180.661158 396.871035,179.940158 430.989285,180.584274 C450.727172,180.956734 470.462497,181.559845 490.190993,182.285116 C515.869541,183.22908 541.532721,184.67706 567.216393,185.386954 C590.927812,186.041321 614.54873,188.68271 638.277225,188.549445 C655.191633,188.453767 671.882348,186.377048 688.063351,181.101959 C717.211697,171.599111 734.773276,151.356438 742.813404,122.19438 C749.792273,96.8765158 751.023436,70.9948368 750.653746,44.9354707 C750.470181,31.9924956 749.571142,19.102485 748.1308,6.24237358 C747.960896,4.72690675 748.106894,3.17470652 748.106894,0.541860545" id="Fill-1" fill="#302A28" sketch:type="MSShapeGroup" mask="url(#mask-2)"></path>
                </g>
                <path d="M269.834365,420.008641 C256.164354,440.362368 228.378655,439.820764 214.245037,419.396986 C208.412807,410.968804 205.7746,401.149023 202.339808,391.677783 C199.339594,383.403368 197.293063,374.788956 193.270864,366.872478 C192.166062,364.700081 191.319957,363.946619 188.849093,365.127214 C174.390181,372.037367 159.151761,376.166886 143.249093,378.283755 C106.239061,383.208595 74.6685165,373.2957 49.5338314,344.940068 C47.3498399,342.476367 47.7272145,341.567428 50.6565635,340.275779 C68.4025614,332.451562 87.0236926,327.343909 105.706297,322.498516 C130.988687,315.941175 156.644184,311.193168 182.548132,307.860678 C189.433938,306.973951 196.376948,306.42295 203.311419,306.06245 C206.245891,305.910391 207.240555,304.783614 207.497545,302.023483 C210.83842,266.066598 219.33191,231.268097 231.042476,197.182907 C232.031163,194.304033 233.36905,193.360069 236.46318,193.199468 C259.845891,191.985556 283.211526,190.439336 306.590822,189.151958 C320.624546,188.378848 334.671932,187.826138 348.717609,187.2777 C369.157311,186.48067 389.597012,185.355603 410.058911,185.726354 C432.076414,186.125296 454.089648,186.769412 476.101174,187.430613 C490.151121,187.851766 504.197652,188.422415 518.239061,189.06226 C533.689221,189.766175 549.129989,190.691344 564.581857,191.350837 C567.044184,191.455912 568.020918,192.417815 568.728709,194.595337 C574.492636,212.317927 578.63095,230.412977 581.479189,248.819834 C584.126788,265.932478 586.297118,283.101504 587.459979,300.382439 C587.632444,302.944381 588.95667,303.327946 591.085165,303.361263 C612.704803,303.699552 634.069157,306.431492 655.351547,310.101417 C683.699039,314.989523 711.316542,322.428466 738.05635,333.07005 C739.111633,333.490349 740.175454,333.890145 741.237567,334.29165 C749.782284,337.525899 749.698613,336.902285 743.511206,343.35626 C727.253362,360.313428 707.361793,371.031042 684.300961,374.814584 C667.865528,377.510645 651.544504,374.312276 635.505229,370.244264 C627.620491,368.244428 620.091782,365.280127 612.840555,361.672565 C609.721665,360.121219 608.468303,360.972921 607.036499,363.885112 C601.06254,376.031058 596.621131,388.800617 591.789541,401.389926 C585.894984,416.748764 576.18826,427.511654 559.89285,431.781272 C548.834578,434.678086 535.688794,430.721983 529.967556,422.398875 C529.755816,422.089631 529.714835,421.662498 529.465528,420.895368 C536.979723,420.329844 544.119104,418.812669 551.191035,416.808562 C571.669157,411.004683 581.992316,396.133631 587.245678,376.725575 C588.466596,372.216763 589.294771,367.590061 590.08794,362.980445 C590.54984,360.294635 591.634152,358.455401 594.508004,358.179473 C604.583565,357.215008 607.998719,352.601975 603.886019,341.034367 C601.467236,334.229289 595.471078,330.561927 586.455069,329.799068 C567.823693,328.223803 553.054002,336.376912 539.904803,348.212759 C530.079402,357.05526 520.917396,366.630721 511.242263,375.647492 C501.134258,385.067477 490.787193,394.25083 476.948132,397.97799 C459.410459,402.700369 442.548132,402.406502 427.645251,390.427138 C416.779082,381.693129 411.882604,369.513013 409.053148,356.298381 C409.02412,356.159136 409.024973,356.013911 408.996798,355.874665 C407.165422,346.767342 407.16286,346.697292 416.620277,346.30433 C443.717823,345.177554 470.629242,342.130389 497.496265,338.594585 C499.600854,338.316949 501.744717,338.480968 503.810032,337.735194 C505.660192,337.067158 507.584632,336.313696 506.964781,333.990949 C506.407257,331.899707 504.398292,331.482825 502.421772,331.754482 C496.242049,332.603622 490.072572,333.525374 483.895411,334.397579 C471.254216,336.182139 458.565208,337.542984 445.830096,338.436546 C433.944504,339.270309 422.051227,339.991309 410.166489,340.830197 C407.144931,341.043764 405.381003,340.54829 405.494557,336.788668 C405.64397,331.837345 405.180363,326.862958 404.873853,321.904802 C404.709072,319.244619 405.569691,318.085381 408.460619,318.052065 C437.485165,317.723173 466.116115,313.427072 494.759872,309.298407 C496.300107,309.076298 497.857417,308.749114 499.308858,308.20751 C500.878122,307.622338 502.957951,306.877419 502.568623,304.855373 C502.203202,302.955486 500.01921,302.537751 498.369691,302.733377 C494.857204,303.150259 491.389114,303.938746 487.907364,304.600802 C474.792316,307.092694 461.555176,308.528714 448.241195,309.432527 C435.202988,310.317546 422.166489,311.022315 409.097545,311.27176 C405.752401,311.33583 404.586126,310.449103 404.690288,307.062795 C404.878122,300.947963 404.797012,294.817754 404.608324,288.701214 C404.521238,285.881284 405.225614,284.705815 408.34365,284.648579 C437.217076,284.122351 465.69349,279.918511 494.095624,275.101309 C494.513981,275.030405 494.916115,274.870657 495.328495,274.764728 C497.126574,274.302571 499.471932,273.916443 499.112487,271.581735 C498.731697,269.1112 496.289007,268.96512 494.277481,269.341851 C480.885806,271.851683 467.354963,273.329562 453.833511,274.854426 C446.928922,275.633516 440.002988,276.287029 433.06937,276.718433 C424.707364,277.238681 416.321451,277.365966 407.957737,277.868274 C405.094984,278.040836 404.659552,276.777377 404.703095,274.371766 C404.798719,269.106928 404.705656,263.837819 404.641622,258.571273 C404.626254,257.303543 404.566489,256.003351 404.26937,254.780043 C403.972252,253.55161 403.4873,252.236895 401.845464,252.215539 C400.201921,252.193328 399.77588,253.39955 399.429242,254.705722 C398.311633,258.917251 398.562647,263.236417 399.030523,267.43086 C400.289007,278.721686 400.436713,278.866056 389.190608,278.474803 C366.217716,277.674356 343.311419,275.976931 320.53063,272.787104 C315.757097,272.119068 310.977588,271.456158 306.179296,271.023046 C304.370117,270.859027 301.819851,270.202097 301.486873,273.209965 C301.172679,276.041855 303.709285,276.404064 305.503095,276.685117 C314.186126,278.043399 322.890502,279.29746 331.617076,280.337956 C353.047172,282.893918 374.502028,285.215811 396.139594,284.768176 C398.449093,284.720337 399.810886,285.537015 399.411313,287.970817 C398.296265,294.767353 398.940021,301.604039 398.914408,308.416805 C398.903308,311.372564 397.748132,312.083312 395.10651,311.895374 C381.945358,310.957391 368.741515,310.457645 355.623906,309.113886 C340.680043,307.582188 325.731057,305.94627 310.904162,303.425332 C308.528068,303.021265 306.122092,302.770111 303.766489,302.272074 C301.89413,301.875695 300.227535,301.884238 299.693917,304.041258 C299.144931,306.262348 300.517823,307.704348 302.476414,308.152837 C307.310566,309.260819 312.18143,310.240662 317.074493,311.050505 C337.378442,314.409477 357.851441,316.311926 378.362006,317.788097 C383.887727,318.186184 389.455283,318.118697 395.001494,318.055482 C397.767769,318.02302 398.804269,319.019947 398.716329,321.806561 C398.544717,327.200393 398.623266,332.592516 398.065742,337.982931 C397.835219,340.212564 397.11206,340.989945 394.960512,340.85668 C376.557951,339.717944 358.116115,339.17634 339.788687,336.933039 C328.950694,335.607219 318.085379,334.506925 307.231163,333.322059 C306.385912,333.229798 305.525293,333.234924 304.673212,333.257135 C302.961366,333.301556 301.527001,333.810699 301.36222,335.810534 C301.211099,337.639516 302.489221,338.351119 303.985059,338.579208 C309.58762,339.430911 315.18762,340.338141 320.816649,340.974568 C342.671932,343.446812 364.528922,345.938705 386.555816,346.326541 C387.676841,346.346189 388.785912,346.743423 389.911206,346.859603 C397.142796,347.607085 397.128282,347.594271 395.360085,354.800854 C391.547065,370.348484 383.416435,383.278645 371.434365,393.757919 C358.867449,404.748898 344.055923,405.072664 328.773959,401.992183 C315.004055,399.215821 303.698186,391.769189 293.195731,382.736187 C281.004482,372.250933 269.988901,360.512472 257.83778,349.998174 C247.696478,341.223159 236.549413,334.210495 223.098826,331.94242 C207.864674,329.37279 198.463607,335.670434 195.677695,351.358164 C194.572892,357.584905 197.164141,361.231764 203.224333,362.057838 C208.676628,362.801049 209.71825,365.467212 210.213447,370.361298 C212.913127,397.023776 232.239488,416.031181 258.873426,418.757142 C262.365422,419.114225 265.848879,419.551609 269.834365,420.008641" id="Fill-4" fill="#BB032B" sketch:type="MSShapeGroup"></path>
                <path d="M399.379125,534.742806 C401.573362,535.007628 404.366958,534.294316 407.19556,534.147383 C426.676457,533.134224 443.196414,525.397996 457.00047,511.857036 C471.50207,497.630954 480.972295,480.270572 487.613917,461.230705 C489.441878,455.988932 490.833554,450.635251 492.195347,445.262776 C492.634194,443.530326 492.285848,442.476162 490.574856,441.996919 C488.720427,441.477526 488.467705,442.848622 488.158634,444.132583 C487.959701,444.96122 487.736009,445.783878 487.52,446.608244 C482.648282,465.206456 475.449989,482.839348 463.680512,498.124719 C443.667705,524.11489 416.861302,534.236226 384.720427,529.230231 C357.171227,524.94011 340.082647,507.206415 328.836542,482.875227 C323.55159,471.443448 320.530886,459.347904 318.760982,446.906383 C318.590224,445.703577 319.112743,443.64138 316.872401,443.737912 C314.452764,443.842987 315.015411,445.81036 315.079445,447.292511 C315.373148,454.144573 316.886062,460.801864 318.624376,467.389959 C323.243372,484.896419 331.331313,500.662742 344.143266,513.497225 C359.087983,528.468226 377.916585,534.345572 399.379125,534.742806 M298.888196,583.387241 C307.838463,556.90245 312.114237,530.857607 310.747321,504.086637 C309.39492,477.583908 303.858954,451.906398 294.081366,426.087935 C301.918292,429.010377 308.812636,431.438199 315.9819,432.919495 C334.665358,436.780775 353.130245,437.150672 371.192999,429.812532 C381.202818,425.746229 389.121708,418.996678 396.01349,410.868342 C396.749456,410.000409 397.566531,409.202525 398.298228,408.332028 C399.717225,406.640583 400.715304,406.550031 402.202604,408.549866 C420.335368,432.937435 444.986809,438.580712 473.411142,433.040801 C483.628431,431.049508 493.358207,427.535915 502.831846,423.245794 C503.998975,422.717004 505.430779,421.34847 506.721708,422.520523 C507.886275,423.576395 506.616692,424.944928 506.259808,426.069995 C499.268132,448.068184 494.610715,470.455063 493.268559,493.59455 C491.512316,523.873133 495.117866,553.364083 504.329392,582.21348 C504.372935,582.349308 504.465144,582.479156 504.471121,582.61413 C504.530032,583.980955 506.270053,585.481045 505.019253,586.548877 C503.617332,587.744848 502.153084,586.075614 500.836542,585.444312 C496.485635,583.358195 492.23889,581.053387 487.884568,578.974105 C466.771227,568.891211 444.460021,563.412807 421.208794,561.22845 C388.257673,558.132592 356.099723,561.42664 324.778485,572.304855 C317.520427,574.825793 310.51936,577.942153 303.590011,581.2362 C302.480085,581.763282 301.355646,582.25961 298.888196,583.387241" id="Fill-6" fill="#BB032B" sketch:type="MSShapeGroup"></path>
                <path d="M479.558762,691.420292 C481.320128,691.594562 482.5308,690.862456 482.989285,689.326487 C483.678292,687.013991 481.449904,686.876454 480.224717,686.313493 C459.324824,676.713258 437.209989,672.056658 414.373703,670.910234 C399.341046,670.155917 384.345101,670.844455 369.380747,673.115947 C352.030053,675.750501 335.277866,680.259314 319.065272,686.880725 C317.772636,687.408661 315.394835,687.577806 316.163244,689.744223 C317.055454,692.262597 319.085763,691.096525 320.824931,690.448138 C324.81127,688.96257 328.775411,687.395847 332.8292,686.116158 C359.72952,677.627322 387.225784,673.918102 415.43667,675.796632 C432.802732,676.953307 449.708602,680.164491 466.000598,686.39892 C470.500918,688.121119 475.038805,689.749348 479.558762,691.420292 M342.004013,600.521327 C333.227919,600.557206 326.993554,602.400711 320.728453,606.85058 C310.441153,614.157111 307.668047,625.341154 313.485763,636.061331 C320.001025,648.068031 334.477866,654.073517 348.542327,650.686354 C356.332295,648.810388 362.357481,644.279364 367.572423,638.430209 C368.177759,637.750213 368.62429,636.423539 369.824717,636.93439 C370.930374,637.405944 370.601665,638.687343 370.531654,639.615075 C370.262711,643.169673 369.607855,646.635428 367.827705,649.805607 C367.048196,651.193788 366.964525,652.684481 368.519274,653.510556 C369.953639,654.272561 370.952572,653.185935 371.615966,652.034385 C377.41063,641.976264 380.267407,631.284279 375.113938,620.328325 C368.645635,606.578923 356.816393,600.791275 342.004013,600.521327 M427.491313,632.464019 C428.550011,633.748834 429.006788,634.261393 429.418314,634.808978 C441.039232,650.28485 461.362818,653.191061 476.429626,641.08612 C489.564312,630.532525 492.897503,611.490949 472.690032,600.921123 C459.465699,594.004991 441.454173,596.338844 430.462497,606.289327 C417.297076,618.207184 416.942753,635.165206 425.520768,648.87104 C426.157695,649.88847 426.817673,651.409917 428.422796,650.701731 C429.922049,650.041384 429.551505,648.561796 429.242433,647.321403 C428.831761,645.670962 428.362177,644.029918 427.81063,642.421337 C426.789498,639.445076 426.406147,636.473087 427.491313,632.464019 M396.316073,715.871076 C370.202092,715.29701 344.608068,711.910702 319.990779,702.552224 C315.282134,700.761684 312.156414,697.661555 309.257801,693.987359 C295.029413,675.946982 286.905614,655.254111 282.638378,632.849293 C280.961537,624.044379 280.479146,615.114743 279.334216,606.257719 C278.847556,602.496389 280.244354,600.270173 283.304333,598.22677 C300.485977,586.752277 319.093447,578.495802 338.944888,572.9277 C361.833255,566.507896 385.186083,563.855402 408.881281,565.041122 C436.577332,566.426741 462.924397,573.249758 487.752572,585.817711 C499.063565,591.542998 510.197823,597.486122 520.242647,605.318027 C521.903266,606.612239 522.676798,607.817608 522.375411,609.934478 C517.881067,641.476519 506.96111,670.379735 487.442647,695.812924 C485.097289,698.867777 482.309669,700.875301 478.652038,702.118257 C455.7927,709.886947 432.382668,714.591386 408.207641,715.277361 C406.231974,715.333743 404.26826,715.746353 402.29174,715.848011 C400.304973,715.950523 398.308815,715.871076 396.316073,715.871076" id="Fill-8" fill="#BB032B" sketch:type="MSShapeGroup"></path>
                <path d="M225.57746,195.659496 C222.826553,204.584006 220.166147,213.036108 217.616734,221.520672 C210.599445,244.876288 205.679915,268.684665 202.323671,292.828768 C202.099125,294.446747 202.142668,296.221056 199.569349,296.29794 C160.124312,297.465721 120.994322,296.138192 83.5232444,281.69769 C68.8807684,276.055267 55.3473639,268.393361 43.3729776,258.220768 C26.2613447,243.68288 15.9885592,224.871955 10.3236713,203.4111 C5.21289221,184.049175 5.06347919,164.414739 7.75035219,144.679499 C7.99368196,142.895793 8.82527215,141.497361 10.0163074,140.209983 C16.094429,133.63641 22.1827962,127.072235 28.1798079,120.425196 C29.3768196,119.098522 30.029968,118.862744 31.4848239,120.21163 C35.7554749,124.168587 40.2011526,127.939314 44.6271932,131.724564 C51.0135326,137.186737 54.8871718,144.074679 58.3595304,151.769902 C64.4999787,165.377496 74.8957097,175.796971 87.5462967,183.741639 C102.731782,193.278658 119.497631,197.93953 137.280342,199.211531 C160.743308,200.890163 184.075646,198.593897 207.426766,196.872552 C213.35206,196.436023 219.282476,196.078086 225.57746,195.659496" id="Fill-10" fill="#FEFEFE" sketch:type="MSShapeGroup"></path>
                <path d="M593.911206,193.074403 C611.188474,193.834699 629.643116,194.638563 648.111419,194.064497 C667.210672,193.471636 685.871078,190.761907 703.281537,182.183373 C715.501814,176.161657 725.61921,167.663424 733.60555,156.669029 C738.356884,150.127918 743.115048,143.575703 747.138954,136.539119 C747.846745,135.301288 748.621985,134.206974 750.002561,133.574818 C756.969477,130.383282 763.456564,126.310999 770.039274,122.426654 C771.911633,121.322089 773.38698,121.345154 775.07492,122.555648 C779.916756,126.026529 784.768837,129.482886 789.659338,132.884571 C792.195091,134.647775 791.780149,137.530067 792.076414,139.881859 C795.06809,163.643251 793.266596,186.880125 783.733191,209.146552 C772.274493,235.910687 752.69285,254.721612 727.014301,267.852525 C700.92508,281.193588 673.28794,289.120317 644.399146,293.317323 C629.060832,295.546101 613.630309,296.330317 598.21174,297.45453 C595.608538,297.644177 594.259552,297.275134 593.894984,294.136563 C592.225827,279.783196 590.140875,265.487064 587.658058,251.24048 C584.427321,232.699504 580.312914,214.369531 575.278122,196.253125 C574.423479,193.177769 575.259338,192.970183 577.803629,193.036815 C582.777801,193.165809 587.757097,193.074403 593.911206,193.074403" id="Fill-12" fill="#FEFEFE" sketch:type="MSShapeGroup"></path>
                <path d="M279.294088,438.765063 C300.227279,483.22018 303.974557,529.459003 294.557268,577.224399 C269.718847,540.686614 251.114792,501.071764 232.682348,460.046522 C242.973063,464.053881 252.443287,467.914307 262.120128,462.327411 C271.16175,457.107849 275.083202,447.958667 279.294088,438.765063" id="Fill-14" fill="#BB032B" sketch:type="MSShapeGroup"></path>
                <path d="M521.654301,438.928398 C524.640854,443.667863 527.163799,447.594066 530.374899,451.045299 C538.754835,460.052673 548.821857,462.800845 560.603287,459.465793 C561.953127,459.083082 563.620576,458.105802 564.604995,459.174488 C565.676499,460.338852 564.166147,461.759495 563.672657,462.9922 C550.023138,497.072264 533.7781,529.941834 517.168495,562.640551 C514.672017,567.55514 512.052593,572.406513 509.148858,577.938736 C505.932636,570.748384 504.519616,563.838231 503.909157,556.8324 C501.369136,527.644714 505.456222,499.081496 512.433383,470.821543 C515.012679,460.374731 517.998378,450.049225 521.654301,438.928398" id="Fill-16" fill="#BB032B" sketch:type="MSShapeGroup"></path>
                <path d="M789.134429,124.639458 C785.235176,121.840884 781.166873,119.244772 777.48619,116.18223 C774.276798,113.511797 771.487471,113.238432 767.887898,115.466356 C762.843714,118.588696 757.501558,121.230939 751.146809,124.700965 C756.327599,93.1093762 757.712444,62.3430077 756.537631,31.3135255 C772.895368,60.4883975 781.084055,92.403753 790.281921,123.959463 C789.899424,124.186697 789.516926,124.413078 789.134429,124.639458" id="Fill-18" fill="#BB032B" sketch:type="MSShapeGroup"></path>
                <path d="M10.2496478,130.051144 C12.8084525,116.130889 16.2338527,102.419075 20.4490075,88.8994709 C26.0327855,70.9906509 32.7128282,53.5089637 40.8212593,36.5842576 C41.1277695,35.9435585 41.4172038,35.2926083 41.7621345,34.6732659 C42.2172038,33.8565882 42.4519957,32.5435822 43.771953,33.0151367 C44.7691782,33.3722197 44.3491142,34.5049756 44.3243543,35.2746687 C44.1424973,40.9418654 43.7813447,46.605645 43.683159,52.273696 C43.2494344,77.4377919 44.527556,102.459226 50.2317182,127.089406 C50.2889221,127.337143 50.1343863,127.632718 50.0276628,128.15382 C47.5508218,127.428549 46.2803842,125.245901 44.5753682,123.726163 C40.4430309,120.04257 36.3653362,116.280386 32.5045037,112.317448 C30.0592529,109.806762 28.4524226,110.18691 26.370032,112.732621 C21.4496478,118.748358 16.3209392,124.593242 11.2767556,130.508176 C10.9343863,130.355262 10.5920171,130.203203 10.2496478,130.051144" id="Fill-20" fill="#BB032B" sketch:type="MSShapeGroup"></path>
                <path d="M222.379168,435.355604 C227.343949,437.79624 232.325806,440.01733 237.983863,440.13351 C249.177887,440.364162 259.011825,436.30811 268.476926,430.88865 C270.248538,429.873783 271.97063,427.203349 273.913853,428.372839 C276.293362,429.804587 274.156329,432.548488 273.919829,434.611539 C273.248751,440.458985 271.023778,445.885279 267.764867,450.763135 C261.28461,460.463318 250.721537,463.202093 240.14651,458.11836 C232.302753,454.346778 226.4654,448.60526 223.085251,440.508533 C222.444055,438.970855 221.561238,437.428052 222.379168,435.355604" id="Fill-22" fill="#BB032B" sketch:type="MSShapeGroup"></path>
                <path d="M526.812807,429.873441 C532.633084,433.470753 538.650587,436.229176 545.671291,436.956156 C556.078122,438.033384 565.573959,435.63119 574.693276,430.959212 C575.701601,430.442382 576.661259,429.829019 577.667876,429.309626 C577.86254,429.209677 578.175027,429.34038 578.433725,429.365153 C576.83714,439.767543 564.991676,453.209409 553.615795,455.281003 C540.40683,457.687468 526.577161,444.389119 526.858911,429.824748 L526.812807,429.873441 Z" id="Fill-24" fill="#BB032B" sketch:type="MSShapeGroup"></path>
                <path d="M260.882903,411.138547 C239.520256,410.298804 225.000726,400.218472 219.2146,382.473671 C217.792188,378.110938 217.357609,373.638004 217.18429,369.087332 C217.094642,366.753479 218.20286,365.871877 220.213533,366.15891 C222.021003,366.416898 224.664333,365.337961 224.78984,368.91477 C224.929007,372.873436 225.50873,376.82356 226.698058,380.631875 C230.867108,393.989169 240.487599,400.879673 253.786211,403.313475 C256.154621,403.747442 258.57682,404.169449 260.96572,404.130153 C263.925806,404.082314 265.78365,404.364222 265.676073,408.170829 C265.553981,412.49512 262.568282,410.690057 260.882903,411.138547" id="Fill-26" fill="#FEFEFE" sketch:type="MSShapeGroup"></path>
                <path d="M537.518207,412.453261 C535.420448,412.985468 534.21063,411.991958 534.064632,409.438558 C533.903266,406.599834 535.899424,407.21576 537.524184,407.090183 C559.710736,405.379089 570.707535,393.513343 572.402305,369.493962 C572.497076,368.152766 571.896862,366.521119 573.624931,365.74032 C575.270181,364.997964 577.046062,363.357774 578.696435,364.249627 C580.298997,365.114998 579.388858,367.319003 579.296649,368.93271 C578.973063,374.609304 578.083415,380.205596 576.223863,385.590885 C570.398463,402.460919 556.833469,411.935576 537.518207,412.453261" id="Fill-28" fill="#FEFEFE" sketch:type="MSShapeGroup"></path>
                <path d="M526.858826,429.824748 C526.726489,429.730779 526.593298,429.63681 526.460961,429.54284 C526.53524,429.553946 526.640256,429.538569 526.676115,429.581282 C526.742711,429.660729 526.769178,429.773492 526.812721,429.873441 L526.858826,429.824748" id="Fill-30" fill="#BB032B" sketch:type="MSShapeGroup"></path>
                <path d="M399.379125,534.742806 C377.916585,534.345572 359.087983,528.468226 344.143266,513.497225 C331.331313,500.662742 323.243372,484.896419 318.624376,467.389959 C316.886062,460.801864 315.373148,454.144573 315.079445,447.292511 C315.015411,445.81036 314.452764,443.842987 316.872401,443.737912 C319.112743,443.64138 318.590224,445.703577 318.760982,446.906383 C320.530886,459.347904 323.55159,471.443448 328.836542,482.875227 C340.082647,507.206415 357.171227,524.94011 384.720427,529.230231 C416.861302,534.236226 443.667705,524.11489 463.680512,498.124719 C475.449989,482.839348 482.648282,465.206456 487.52,446.608244 C487.736009,445.783878 487.959701,444.96122 488.158634,444.132583 C488.467705,442.848622 488.720427,441.477526 490.574856,441.996919 C492.285848,442.476162 492.634194,443.530326 492.195347,445.262776 C490.833554,450.635251 489.441878,455.988932 487.613917,461.230705 C480.972295,480.270572 471.50207,497.630954 457.00047,511.857036 C443.196414,525.397996 426.676457,533.134224 407.19556,534.147383 C404.366958,534.294316 401.573362,535.007628 399.379125,534.742806" id="Fill-32" fill="#302A28" sketch:type="MSShapeGroup"></path>
                <path d="M427.491313,632.464275 C426.406147,636.472489 426.789498,639.444478 427.81063,642.421593 C428.362177,644.030175 428.831761,645.671218 429.242433,647.321659 C429.551505,648.562053 429.922049,650.040786 428.422796,650.701987 C426.817673,651.410173 426.157695,649.888727 425.520768,648.870442 C416.942753,635.165463 417.297076,618.20744 430.462497,606.289583 C441.454173,596.3391 459.465699,594.004393 472.690032,600.92138 C492.897503,611.491205 489.564312,630.532781 476.429626,641.085522 C461.362818,653.191317 441.039232,650.284252 429.418314,634.80838 C429.006788,634.260795 428.550011,633.748236 427.491313,632.464275" id="Fill-34" fill="#302A28" sketch:type="MSShapeGroup"></path>
                <path d="M342.003586,600.520985 C356.815966,600.790933 368.645208,606.578581 375.113511,620.327983 C380.267834,631.283937 377.411057,641.975923 371.616393,652.034043 C370.952145,653.186448 369.953212,654.272219 368.519701,653.510214 C366.964952,652.684139 367.048623,651.193446 367.828132,649.806119 C369.608282,646.63594 370.263138,643.170186 370.531227,639.615587 C370.601238,638.687001 370.929947,637.405603 369.82429,636.934902 C368.623863,636.423198 368.178186,637.750726 367.571996,638.429867 C362.357908,644.279876 356.332721,648.810046 348.542753,650.686013 C334.477439,654.074029 320.001451,648.068543 313.485336,636.061843 C307.66762,625.340812 310.440726,614.157624 320.728026,606.850238 C326.993981,602.400369 333.227492,600.557719 342.003586,600.520985" id="Fill-36" fill="#302A28" sketch:type="MSShapeGroup"></path>
                <path d="M479.558762,691.420292 C475.038805,689.749348 470.500918,688.121119 466.000598,686.39892 C449.708602,680.164491 432.802732,676.953307 415.43667,675.796632 C387.225784,673.918102 359.72952,677.627322 332.8292,686.116158 C328.775411,687.395847 324.81127,688.96257 320.824931,690.448138 C319.085763,691.096525 317.055454,692.262597 316.163244,689.744223 C315.394835,687.577806 317.772636,687.408661 319.065272,686.880725 C335.277866,680.259314 352.030053,675.750501 369.380747,673.115947 C384.345101,670.844455 399.341046,670.155917 414.373703,670.910234 C437.209989,672.056658 459.324824,676.713258 480.224717,686.313493 C481.449904,686.876454 483.678292,687.013991 482.989285,689.326487 C482.5308,690.862456 481.320128,691.594562 479.558762,691.420292" id="Fill-38" fill="#302A28" sketch:type="MSShapeGroup"></path>
            </g>
        </g>
    </g>
</svg>