<?xml version="1.0" encoding="UTF-8" standalone="no"?>
<svg width="800px" height="800px" viewBox="0 0 800 800" version="1.1" xmlns="http://www.w3.org/2000/svg" xmlns:xlink="http://www.w3.org/1999/xlink" xmlns:sketch="http://www.bohemiancoding.com/sketch/ns">
    <!-- Generator: Sketch 3.4.4 (17249) - http://www.bohemiancoding.com/sketch -->
    <title>cavaliers</title>
    <desc>Created with Sketch.</desc>
    <defs></defs>
    <g id="Page-1" stroke="none" stroke-width="1" fill="none" fill-rule="evenodd" sketch:type="MSPage">
        <g id="cavaliers" sketch:type="MSArtboardGroup">
            <g id="Page-1" sketch:type="MSLayerGroup" transform="translate(0.000000, 188.000000)">
                <path d="M599.09751,304.132737 C600.356948,305.158475 601.952664,305.349061 603.517323,305.731303 C605.985863,306.334111 608.694297,307.050414 607.79577,310.549485 C607.032182,313.527121 605.428969,315.889101 601.803802,315.287364 C599.355609,314.881566 596.969531,314.118152 594.532048,313.633121 C584.31411,311.599848 574.644498,306.800939 563.821473,307.797768 C554.600589,308.645768 545.337938,309.066556 536.135261,310.063384 C532.973815,310.404939 529.527497,310.177949 526.384257,311.954253 C527.790415,313.475727 529.354003,313.750899 530.880107,314.14599 C547.555877,318.458798 564.218795,322.821929 580.904203,327.096192 C590.779438,329.625202 590.732316,329.563101 590.517055,339.674859 C590.448514,342.874131 590.805141,346.08304 590.979705,349.286596 C592.524016,377.605727 611.537671,398.966333 639.284926,403.809141 C643.38988,404.525444 644.612905,403.426899 644.464043,399.275768 C644.175957,391.201566 644.379438,383.109162 644.379438,374.394677 C677.984793,402.70203 714.183989,402.600313 747.89751,370.063667 C748.397644,371.005889 748.897778,371.864596 749.319732,372.760778 C753.216921,381.039485 756.220937,381.982778 764.285194,377.196717 C766.254672,376.028576 768.153467,374.590616 769.733119,372.940657 C779.019331,363.244333 783.462704,351.089667 786.871539,338.458535 C787.569799,335.869566 786.610228,334.52797 783.657617,334.414475 C775.946774,334.117889 768.356948,334.42304 761.175154,337.634091 C758.988273,338.612717 756.999518,338.755121 754.539545,338.081646 C730.746238,331.571747 706.887604,325.300616 683.072878,318.867808 C677.383989,317.331343 671.504471,316.328091 665.798447,313.803364 C669.175154,309.271061 673.361499,306.609283 677.762035,304.25801 C687.186399,299.223545 697.252262,295.628111 707.017189,291.35599 C716.376225,287.260535 725.329371,282.544071 732.214511,274.732192 C733.325087,273.47304 735.363106,272.197828 734.539545,270.331586 C733.798447,268.652717 731.640482,269.466455 730.114378,269.461101 C722.256814,269.435404 714.502062,268.62702 706.762303,267.221182 C695.944632,265.255364 685.334726,261.956515 674.180776,262.043242 C641.402195,262.299141 616.653601,276.850051 599.09751,304.132737 M223.350254,238.290677 L164.980241,223.226899 C160.542222,221.982737 156.03245,220.944152 151.690817,219.424818 C148.560428,218.328414 146.306078,219.148576 143.883588,221.094051 C136.095636,227.350192 128.317323,233.618111 121.108755,240.539162 C113.194431,248.136899 105.212637,255.691808 97.6785007,265.55302 C111.156412,263.84203 123.32241,262.297 135.928568,260.695222 C131.35668,268.949303 126.840482,276.588798 122.808353,284.475626 C110.48921,308.569747 100.70822,333.37803 101.547845,361.173586 C102.305007,386.282737 117.138742,405.749263 141.291888,412.703505 C162.340348,418.763707 182.963641,415.842818 203.145703,408.908919 C238.295368,396.832414 266.008353,374.558495 288.305542,345.242535 C290.519197,342.332354 292.904203,340.768051 296.338742,339.916838 C330.647711,331.415424 364.925622,322.790879 399.217456,314.218798 C409.410763,311.670515 419.616921,309.176838 430.443159,306.503283 C417.381847,324.025404 408.414779,342.816313 408.631111,352.112192 C409.47502,351.547929 410.235395,351.115364 410.911165,350.576798 C448.734993,320.47601 492.54008,306.825566 540.12241,303.251545 C557.870201,301.918515 575.562303,299.848838 593.28332,298.156051 C594.925087,297.999727 596.431914,297.872313 597.494297,296.355121 C602.726961,288.879444 609.124819,282.424152 615.474485,275.927101 C622.442088,271.374455 629.349719,266.780051 637.23834,263.802414 C654.607015,257.247545 672.425489,255.991606 690.651995,258.642677 C701.310094,262.227404 712.249853,264.337768 723.478768,264.996253 C725.363641,265.107606 726.94008,264.55298 728.491888,263.582919 C758.820134,244.621768 767.19925,219.890576 762.881178,187.017727 C762.079036,180.90399 759.45842,175.005465 762.310361,168.355303 C767.766854,155.638515 772.320535,142.534131 777.209424,129.576434 C780.432985,121.033263 783.589076,112.465465 787.093226,103.056091 C754.79336,110.824071 723.521606,118.343646 691.397376,126.068798 C695.264578,114.439848 698.877965,103.754192 702.314645,93.0117879 C702.750522,91.6498485 704.46083,90.0684141 702.927229,88.6422323 C701.730977,87.5308384 700.245569,88.8146162 698.918661,89.1422525 C635.710094,104.752091 572.501526,120.363 509.301526,136.00496 C477.613173,143.847889 445.941954,151.758273 414.257885,159.616192 C412.172744,160.133343 410.120803,160.275747 407.989612,159.367788 C371.831111,143.963525 334.433521,143.027727 296.396573,150.000172 C261.479304,156.400859 228.919197,169.309303 197.76739,186.025182 C196.391218,186.76397 194.375689,187.093747 193.975154,189.423606 C201.208353,191.277 208.242356,193.080071 215.275288,194.883141 C217.005944,195.266455 218.745167,195.618717 220.466185,196.039505 C235.439143,199.700253 250.408889,203.373848 265.379705,207.043162 C283.04075,211.641848 300.702865,216.237323 318.361767,220.844576 C319.941419,221.256798 322.47743,220.750354 322.070469,223.502071 C321.607818,226.626394 319.155341,225.418636 317.421473,224.996778 C307.589076,222.610172 297.781312,220.118636 287.968193,217.653869 C228.223079,202.64898 168.473681,187.663364 108.737135,172.624212 C83.3523963,166.233162 57.931245,160.146192 31.4637751,161.033808 C25.5071486,161.23403 19.5751539,161.682657 12.8913521,163.782313 C21.2479786,170.736556 29.628166,175.917707 38.5170549,180.334374 C62.2632396,192.132495 87.9114324,198.138091 113.329371,204.816091 C160.570067,217.226657 207.838608,229.533364 255.066452,241.992111 C256.521874,242.376495 259.876091,241.709444 258.822276,245.007222 C258.03834,247.458071 255.714378,246.749263 253.773815,246.240677 C243.634056,243.583182 233.492155,240.938535 223.350254,238.290677 M390.718394,145.03102 C397.01344,147.283788 403.329906,149.484091 409.589612,151.832152 C411.011834,152.366434 412.319465,152.473505 413.726693,152.11696 C425.687068,149.081505 437.646372,146.041768 449.605676,143.004172 C454.249317,141.829606 458.892959,140.65504 463.5366,139.480475 C485.100187,134.280051 506.686265,129.167424 528.218795,123.838515 C537.831647,121.459404 547.681178,119.941141 556.9449,116.235424 C563.540884,115.691505 569.817724,113.779222 576.073146,111.773788 C586.564177,109.727667 597.002731,107.465263 607.175689,104.125727 C611.155341,103.314131 615.114645,102.381545 619.12,101.72199 C623.459491,101.007828 623.170335,99.2861313 620.950254,96.2217677 C584.081714,45.3224949 534.400321,16.0686364 471.882517,10.3831818 C426.463507,6.25239394 383.841821,16.6468182 345.299384,41.5600303 C305.985863,66.9721919 278.575957,101.926495 263.017189,146.112434 C262.566319,147.391929 261.422544,148.837384 262.763373,149.99803 C263.79577,150.892071 265.061633,149.821364 266.24075,149.536556 C276.242356,147.122111 286.265382,144.793323 296.281981,142.439909 C307.080375,141.106879 317.878768,139.774919 328.677162,138.44296 C333.243695,138.39799 337.811299,138.35302 342.378902,138.308051 C354.250388,138.613202 366.000857,140.056515 377.693494,142.04696 C382.035127,143.041646 386.37676,144.036333 390.718394,145.03102 M584.751058,346.122657 L584.757483,346.079828 C584.836734,343.767101 584.696439,341.422253 585.040214,339.150212 C585.7449,334.507626 583.674752,332.592131 579.282784,331.483949 C557.453601,325.977303 535.698313,320.180495 513.902329,314.542152 C512.558286,314.194172 511.00755,313.993949 509.687068,314.300172 C489.59925,318.966313 469.98158,325.00403 451.631914,334.637182 C446.809424,336.655465 442.1283,338.937141 437.84664,341.971525 C423.802195,348.978232 412.128835,359.557889 398.722677,369.26599 C399.35668,351.626091 402.685194,336.213263 410.875823,322.055303 C411.44664,321.068111 412.78747,319.784333 411.782918,318.714697 C410.557751,317.411646 408.670736,318.213606 407.208889,318.596919 C378.129371,326.242838 349.070201,333.964778 320.005676,341.670657 C314.763373,342.996192 309.521071,344.322798 304.243427,345.656899 C304.549719,346.610899 304.568996,347.007061 304.772477,347.245828 C305.816653,348.462152 306.861901,349.683828 307.990683,350.820919 C352.375154,395.507949 405.826292,416.781828 468.923481,412.797727 C509.09162,410.261222 545.01344,396.249949 577.287604,372.33999 C583.89751,367.443646 589.65494,362.869586 585.697778,353.54801 C585.43004,352.918434 585.502865,352.144313 585.417189,351.437646 C585.408621,349.638859 586.110094,347.751202 584.751058,346.122657 M714.077965,78.7992222 C710.367122,89.9088788 706.842624,100.31401 703.453066,110.76304 C702.941151,112.341263 701.261901,114.247121 702.724819,115.667949 C704.06672,116.971 706.085462,115.690434 707.781847,115.282495 C737.585328,108.108758 767.388809,100.933949 797.196573,93.7762727 C797.693494,93.6574242 798.242892,93.7612828 799.167122,93.7612828 C799.540884,95.5964747 798.514913,97.0537071 797.892691,98.5987374 C788.429772,122.065424 779.019331,145.553525 769.471807,168.985949 C768.005676,172.583525 767.543025,175.947687 768.321606,179.84399 C770.887604,192.686051 771.628701,205.589141 769.038072,218.598232 C765.782383,234.956495 757.961232,248.575889 745.288675,259.353626 C742.834056,261.440434 741.449317,263.653586 740.92241,266.876414 C739.698313,274.374576 734.869398,279.617828 729.087336,284.07197 C716.945971,293.424596 702.625221,298.707465 689.054137,305.386535 C685.895904,306.940131 682.675556,308.365242 679.323481,311.181202 C687.239946,314.450071 695.047175,315.869828 702.615582,317.966273 C719.272075,322.579949 736.026024,326.844576 752.690013,331.431485 C755.783989,332.283768 758.548112,332.117808 761.556412,331.259101 C770.017992,328.844657 778.681981,327.953828 787.483052,328.312515 C790.587738,328.438859 792.705007,329.239747 792.193092,332.996859 C789.907684,349.786616 784.574351,365.249768 772.364444,377.571465 C766.877965,383.108091 760.198447,386.242051 752.169531,385.672434 C750.60166,385.561081 748.427631,385.750596 747.890013,384.067444 C746.000857,378.153929 743.706881,381.629444 741.277965,383.51496 C714.086533,404.630374 684.464043,406.664717 655.073949,389.469162 C650.051191,386.530071 649.829505,386.628576 649.79095,392.702697 C649.759893,397.518737 649.898046,402.335848 649.956948,407.151889 C649.977296,408.805061 650.226827,410.234455 647.492691,409.813667 C630.628434,407.216131 614.837269,402.299444 602.322142,389.894232 C598.749451,386.352333 595.707952,382.332899 593.528568,377.863768 C591.686533,374.086313 590.316787,373.806859 587.006479,376.486838 C569.269398,390.846091 549.727764,402.217 528.138474,409.675545 C457.017724,434.249343 390.562035,424.948111 328.951325,381.644434 C318.419598,374.241566 308.912771,365.668414 300.135261,356.265465 C295.496975,351.296313 295.448782,351.294172 290.763373,356.650919 C277.076627,372.301444 261.725622,386.068596 244.298046,397.441646 C220.743561,412.811646 195.328835,423.467323 166.888675,423.979121 C140.208086,424.458798 116.647175,416.733646 102.107952,392.157707 C92.1748862,375.365808 91.5151807,356.945364 94.7633735,338.224051 C98.7858635,315.043242 108.710361,294.197646 120.507952,274.111182 C121.361499,272.658232 123.556948,271.166737 122.512771,269.508212 C121.279036,267.547747 118.858688,268.946091 117.051995,269.214838 C105.619598,270.911909 94.211834,272.771727 81.5703347,274.771808 C98.1111647,252.487182 116.734993,233.899707 137.805944,217.364778 C136.594699,214.951404 134.248246,215.08096 132.349451,214.583081 C105.123748,207.443606 77.6870683,201.005444 51.3834538,190.758778 C34.0469076,184.004758 17.5863989,175.623263 3.10500669,163.738414 C1.89376171,162.743727 -0.259919679,162.095949 0.0260240964,160.392455 C0.345167336,158.486596 2.61986613,158.995182 4.09777778,158.721081 C25.5863989,154.727343 47.0589558,155.845162 68.4372691,159.429889 C104.514378,165.479384 139.546238,176.026919 175.013976,184.694293 C180.354806,185.999485 184.684659,185.843162 189.590683,182.945828 C207.419866,172.413283 226.251459,163.888313 245.692423,156.770253 C249.068059,155.534657 250.760161,153.660919 251.789344,150.213242 C276.012102,69.1296667 347.90822,9.71613131 432.341954,1.45562626 C495.362035,-4.70950505 550.578099,13.5942323 597.865917,55.7565354 C610.57917,67.0921111 621.479304,79.9834242 630.855475,94.1488788 C632.953467,97.3181717 634.816921,98.0794444 638.641285,97.1018889 C661.606747,91.2365556 684.664311,85.7299091 707.694029,80.119404 C709.543561,79.6686364 711.422008,79.3452828 714.077965,78.7992222" id="Fill-1" fill="#F9B60D" sketch:type="MSShapeGroup"></path>
                <path d="M559.396948,164.568962 C569.25826,163.738093 577.625596,161.047406 579.47834,158.127588 C575.668969,157.339547 572.399357,160.505628 568.161606,159.49381 C571.227738,151.483851 574.229612,143.640921 577.319304,135.569931 C574.141794,135.239083 571.215957,134.421063 569.891191,137.704921 C566.31743,146.560739 562.927871,155.490436 559.396948,164.568962 M518.222115,164.514356 C518.222115,160.249729 518.28423,156.931608 518.195341,153.61777 C518.153574,152.04383 518.896814,149.660436 515.710736,150.396012 C513.78838,150.840356 511.997751,150.908881 512.48075,153.98181 C513.598822,161.105224 514.262811,168.300376 515.257724,176.706497 C523.456921,165.757446 530.965355,155.729204 538.890388,145.145265 C526.548755,145.966497 526.392396,158.235729 518.222115,164.514356 M497.735904,179.753729 C497.60739,179.307244 497.479946,178.86183 497.352503,178.415345 C494.711539,178.866113 492.071647,179.316881 489.681285,179.725891 C488.648889,169.588436 496.889853,168.04983 503.589719,165.025083 C500.189451,163.760578 497.569906,166.33884 495.291995,165.122517 C493.851566,155.138174 503.90672,156.99478 507.918501,152.404659 C502.788648,153.052436 498.005783,154.260194 493.210067,155.409063 C492.090924,155.676739 491.210602,156.147851 490.781151,157.242113 C487.268434,166.205002 483.765355,175.171103 479.817831,185.263588 C486.591593,182.944436 492.707791,183.056861 497.735904,179.753729 M558.585167,152.013851 C558.201767,151.567366 557.818367,151.120881 557.434967,150.673325 C554.785435,151.174416 552.135904,151.674436 549.368568,152.196941 C550.060402,145.934376 552.632825,142.119446 558.941794,141.769325 C560.595341,141.678315 562.557323,141.47381 562.021847,138.484396 C557.306452,139.609709 552.686372,140.750012 548.045944,141.798234 C546.253173,142.202962 545.485301,143.328275 544.858795,144.967527 C541.519572,153.697002 538.05826,162.380436 534.184632,172.235224 C540.564284,169.121608 547.244873,169.992093 552.02988,165.001527 C549.37071,165.41482 546.71261,165.828113 544.298688,166.202861 C543.199893,156.058982 551.561874,154.643507 558.585167,152.013851 M455.327336,164.374093 C449.60739,165.730679 444.280482,166.483386 439.398019,168.693325 C436.540723,169.985669 433.192932,170.951446 431.833896,174.226739 C429.173655,180.634921 426.65585,187.104133 424.159465,193.57977 C423.674324,194.837851 423.024257,196.304719 424.905917,197.231952 C429.479946,199.48579 443.701098,193.638659 446.10324,188.468214 C442.087175,188.111669 439.282356,190.143871 436.526801,192.770315 C435.600428,193.652578 433.52921,194.65583 432.095207,193.632234 C430.510201,192.501568 432.081285,190.9908 432.511807,189.788396 C434.252102,184.934881 436.269772,180.182012 437.998286,175.325285 C439.620776,170.768356 442.278876,169.071285 447.327336,170.064901 C450.916091,170.771568 454.968568,170.257628 455.327336,164.374093 M648.945542,142.650517 C653.485301,141.546618 656.939116,140.698618 660.398286,139.866679 C667.940991,138.053972 673.791593,134.523851 675.776064,126.240861 C676.678876,122.46983 678.563748,118.938638 679.934565,115.273608 C681.64166,110.712396 680.53751,109.042093 675.709665,109.765891 C670.98249,110.474699 666.359197,111.879467 661.697349,113.006921 C660.532155,113.288517 660.018099,114.284275 659.629344,115.275749 C656.145542,124.155123 652.689585,133.046275 648.945542,142.650517 M600.61676,155.004335 C603.821044,153.201265 607.279143,154.524659 608.640321,151.150861 C611.694672,143.586315 614.604444,135.962881 617.60739,128.376921 C618.254244,126.743022 618.104311,125.842558 616.119839,125.347891 C611.527604,124.204376 598.068969,128.209891 596.162677,132.298921 C592.347952,140.478053 589.268969,149.000881 585.748755,157.725002 C591.067095,157.886679 594.026131,156.169265 595.160268,151.624113 C595.627202,149.753588 596.395074,147.876638 597.414618,146.244881 C598.670843,144.238376 601.457456,143.69981 603.033896,144.256578 C605.304311,145.058537 603.25344,147.190315 602.851834,148.689305 C602.370977,150.485952 601.623454,152.210861 600.61676,155.004335 M638.722249,128.774154 C638.057189,126.60276 637.757323,125.393931 637.317162,124.239709 C636.744203,122.738578 637.346078,119.982578 634.770442,120.361608 C632.512878,120.693527 629.367497,120.257749 628.251566,122.95379 C624.550361,131.895265 621.115823,140.947022 617.464953,150.249325 C624.29012,149.602618 624.315823,149.612255 626.060402,144.574578 C627.981687,139.029386 629.847282,133.465992 631.948487,127.290154 C635.976332,134.271164 635.393735,140.536941 631.979545,147.149628 C639.132423,145.56177 639.384096,145.663487 640.12091,143.841143 C643.750361,134.866477 647.236305,125.831851 650.744739,116.890376 C641.868701,115.636578 642.437376,123.696861 638.722249,128.774154 M96.2601339,175.844578 C96.9241232,178.565244 97.6898527,178.86076 98.506988,179.279406 C109.755181,185.049446 121.442463,189.80981 133.633092,193.048699 C185.756252,206.895083 237.938313,220.517689 290.104311,234.200255 C293.32573,235.045042 305.015154,232.558861 308.486104,230.169042 C237.740187,212.059103 167.418367,194.059446 96.2601339,175.844578 M505.798019,271.521891 C512.145542,269.920113 517.377135,268.334396 522.720107,267.349345 C525.972584,266.749749 527.559732,265.151184 528.691727,262.203527 C535.751432,243.815204 542.966426,225.48577 550.094672,207.122073 C553.50672,198.332638 556.840589,189.512154 560.486104,179.982861 C556.755984,180.941143 554.062544,182.038618 551.296278,182.26882 C542.555181,182.996901 536.979813,187.061305 535.193467,195.953527 C534.710469,198.355123 533.442463,200.598255 532.538581,202.915265 C523.778206,225.391547 515.017831,247.86783 505.798019,271.521891 M495.101365,196.644133 C488.073788,198.473972 482.468434,200.231002 476.734565,201.308133 C473.597751,201.897022 472.251566,203.473103 471.215957,206.186275 C463.800696,225.623891 456.268701,245.016537 448.812744,264.438093 C445.811941,272.256396 442.907523,280.111103 439.678608,288.691749 C453.915823,285.002093 466.98249,280.551164 480.416493,278.446154 C492.82988,276.501749 500.310469,270.970477 502.885033,258.716234 C503.499759,255.793204 505.976867,253.259911 505.08905,249.745851 C502.739384,250.284416 501.919036,251.990053 500.744203,253.231002 C493.140455,261.258093 484.623186,267.831164 473.512075,270.176012 C471.702169,270.558255 469.49494,272.330275 468.05344,270.58181 C466.955716,269.24878 468.521446,267.232638 469.130817,265.596598 C472.361874,256.927083 475.646479,248.27684 478.909665,239.619103 C484.158394,225.690275 489.406051,211.760376 495.101365,196.644133 M562.369906,247.060517 C565.673788,239.35678 568.673521,232.728032 571.342329,225.968659 C572.533226,222.951406 574.359197,221.056255 577.243266,219.586174 C584.39079,215.940416 591.364819,211.953103 599.496546,207.507527 C591.907791,206.329749 585.78838,207.431507 578.98249,207.705608 C582.408461,198.614234 585.65344,190.027164 588.873788,181.431527 C589.476734,179.825467 590.902169,179.617749 592.269772,179.261204 C601.409264,176.882093 608.734565,179.495689 614.442731,187.926436 C617.645944,179.95181 620.63925,172.50076 624.000964,164.134255 C606.750094,168.554133 590.615154,172.766295 574.424525,176.753608 C571.932423,177.367123 571.551165,179.089891 570.87004,180.84478 C565.728407,194.101204 560.623186,207.371547 555.491191,220.632255 C550.119304,234.51076 544.72921,248.38284 539.345542,262.263487 C541.347149,263.305285 542.834699,262.423022 544.320107,262.04078 C555.689317,259.115608 566.910736,255.311386 578.448086,253.437648 C588.858795,251.747002 594.98249,246.848517 597.291459,236.778517 C597.914752,234.057851 600.495743,231.715143 598.924659,227.782436 C588.491459,237.374901 577.379277,244.703891 562.369906,247.060517 M362.257456,307.947345 C373.999357,305.282356 386.123588,305.388356 389.436037,290.922032 C390.24996,287.368356 392.523588,284.151952 394.105382,280.770659 C397.679143,273.132234 405.365355,268.842982 414.684766,269.576416 C411.074592,278.696699 407.507256,287.705628 403.798554,297.074315 C410.379545,296.754174 416.1766,294.258356 422.246747,293.135184 C425.047282,292.615891 426.330281,291.141527 427.36589,288.553628 C434.17178,271.544376 441.191861,254.62078 448.105917,237.654356 C452.237644,227.516901 456.304043,217.35482 460.703507,206.45181 C444.29012,208.73884 429.956519,213.866457 417.177938,223.136638 C404.382222,232.419669 394.454511,244.273467 387.1517,258.139123 C378.639786,274.299305 370.786506,290.805325 362.257456,307.947345 M697.025863,215.347244 C695.436573,215.711285 694.581954,215.904012 693.729478,216.102093 C679.877805,219.324921 666.392396,213.482073 659.975261,201.710719 C658.062544,198.202012 658.017564,196.371103 661.885837,193.67078 C675.875663,183.90379 684.410067,170.15484 688.276198,153.604921 C689.583829,148.006194 688.89842,147.582194 683.214886,149.054416 C668.934833,152.752638 654.676198,156.535446 640.379009,160.165143 C637.350361,160.933911 635.752503,162.456457 634.65585,165.512255 C626.006854,189.608517 617.08905,213.608416 608.385435,237.686477 C607.359465,240.525992 605.670576,243.279851 605.75411,246.593689 C617.351432,245.116113 628.291191,243.352659 629.970442,228.784618 C630.287443,226.039325 631.763213,223.405386 632.84166,220.775729 C634.799357,216.002517 635.875663,210.850275 638.816493,205.887547 C645.017296,217.560396 651.325194,228.466618 665.040857,231.338255 C676.374726,233.710941 690.081821,226.874477 697.025863,215.347244 M305.735904,245.334537 C302.707256,245.960901 300.820241,246.35278 298.933226,246.741446 C277.287175,251.200941 259.007122,261.285931 244.787041,278.506113 C236.655315,288.353406 230.66656,299.393467 225.191861,310.820053 C219.402303,322.905123 213.367497,334.873487 206.907523,347.971446 C214.288514,346.059164 220.428273,344.446679 226.583025,342.887729 C228.436841,342.417689 228.885569,340.871588 229.578474,339.432558 C233.283963,331.742739 237.003373,324.058275 240.766693,316.396295 C241.531352,314.841628 241.840857,312.73983 243.780348,312.207689 C248.95411,310.789002 253.960803,308.624032 259.922784,308.018012 C256.065221,317.818194 252.427202,327.062679 248.600696,336.78577 C254.957858,336.277184 260.38008,333.859527 266.089317,332.944073 C269.745542,332.358396 271.528675,330.508214 272.80739,327.182598 C276.826667,316.730356 281.134029,306.388396 285.321446,296.000396 C292.023454,279.378739 298.717965,262.753871 305.735904,245.334537 M341.943668,236.461588 C335.934565,237.972356 331.011406,239.327871 326.030415,240.417851 C322.807925,241.123446 321.087979,242.710234 319.843534,245.968396 C312.73992,264.564436 305.276466,283.023426 297.981151,301.546659 C294.711539,309.849992 291.549023,318.196154 288.002035,327.393527 C301.233628,324.007952 313.397483,320.778699 325.628809,317.831042 C329.941526,316.791386 333.413548,314.802012 336.61676,311.75478 C355.037108,294.226234 369.152236,273.637608 380.340455,250.930053 C384.524659,242.435063 388.384364,233.812659 391.378742,224.088497 C384.203373,225.942962 377.872985,227.592921 371.5351,229.215042 C365.383561,230.790053 359.224525,232.336154 352.146613,234.128517 C355.520107,236.167143 357.713414,237.713244 360.093066,238.876032 C363.213815,240.40179 364.01917,242.099931 362.309933,245.484436 C351.460134,266.963891 337.617028,286.245184 320.556787,303.212679 C319.387309,304.376537 318.376332,306.172113 316.00739,305.266295 C324.526801,282.666881 333.020509,260.133851 341.943668,236.461588 M464.095207,186.253992 C463.77178,185.901729 463.447282,185.549467 463.123855,185.197204 C466.111807,177.247204 469.099759,169.297204 472.383293,160.563446 C468.889853,161.839729 465.689853,161.047406 464.351165,164.519709 C460.991593,173.236335 457.527068,181.912275 453.769103,191.456558 C461.206854,189.692032 468.123052,189.079588 474.179277,185.671527 C474.061473,185.214335 473.943668,184.758214 473.825863,184.302093 C470.581954,184.952012 467.339116,185.603002 464.095207,186.253992 M215.27593,194.88282 C208.241928,193.079749 201.208996,191.277749 193.974726,189.423285 C194.375261,187.093426 196.39079,186.764719 197.768032,186.025931 C228.919839,169.308982 261.478876,156.400537 296.397216,149.999851 C334.433092,143.027406 371.830683,143.963204 407.990254,159.368537 C410.121446,160.276497 412.172316,160.133022 414.257456,159.615871 C445.942597,151.757952 477.613815,143.847568 509.302169,136.004638 C572.502169,120.362679 635.710736,104.75177 698.919304,89.143002 C700.246212,88.8153657 701.73162,87.5305172 702.926801,88.6419111 C704.461473,90.0680929 702.751165,91.650598 702.315288,93.0114667 C698.878608,103.753871 695.26415,114.440598 691.396948,126.068477 C723.522249,118.343325 754.792932,110.823749 787.092798,103.05577 C783.589719,112.465143 780.433628,121.034012 777.210067,129.576113 C772.320107,142.534881 767.766426,155.639265 762.311004,168.356053 C759.457992,175.005143 762.078608,180.903669 762.881821,187.017406 C767.199893,219.890255 758.819705,244.621446 728.491459,263.582598 C726.939652,264.552659 725.363213,265.107285 723.47834,264.997002 C712.249424,264.337446 701.309665,262.227083 690.651566,258.642356 C693.071914,257.520255 695.45585,256.315709 697.915823,255.293184 C707.615422,251.260901 717.39427,247.368881 725.952236,241.117022 C742.933226,228.712881 749.53992,209.541871 742.996412,191.839871 C739.077805,181.237729 731.140991,173.804881 722.97178,166.536921 C719.13992,163.126719 715.799625,159.397446 718.102169,153.599568 C720.00739,148.800659 724.587845,146.063931 731.088514,146.078921 C738.617296,146.096053 744.903775,149.043709 750.348487,154.98078 C752.891995,148.532982 755.249157,142.437446 757.711272,136.384739 C758.595877,134.211204 757.755181,133.531305 755.700027,133.28076 C736.644605,130.954113 719.383025,134.815083 705.600964,148.882032 C694.426667,160.287204 694.848621,174.495487 706.057189,185.913507 C707.925997,187.817224 709.994003,189.528214 711.990254,191.304517 C723.083159,201.173224 723.720375,216.160982 713.378206,226.720295 C711.269505,228.872416 708.915556,230.851083 706.436305,232.562073 C695.002838,240.452113 682.067898,244.97478 668.912343,248.949244 C634.851834,259.23981 599.546881,263.133972 564.67245,269.259487 C534.672985,274.528436 504.803106,280.39377 476.238715,291.400638 C464.851299,295.788396 453.908327,300.992032 444.417564,309.292154 C446.072182,310.047002 446.931084,309.105851 447.848889,308.718255 C468.115556,300.172941 489.217564,294.560295 510.765087,290.364194 C537.015154,285.251568 563.566158,282.273931 590.057189,278.884073 C598.514485,277.802659 606.891459,275.947123 615.474056,275.92678 C609.125462,282.42383 602.727604,288.880194 597.493869,296.3548 C596.431486,297.873063 594.924659,297.999406 593.283963,298.1568 C575.561874,299.848517 557.869772,301.918194 540.123052,303.251224 C492.539652,306.825244 448.734565,320.475689 410.911807,350.576477 C410.236037,351.115042 409.475663,351.547608 408.631754,352.111871 C408.414351,342.815992 417.38249,324.026154 430.443802,306.502962 C419.617564,309.176517 409.410335,311.670194 399.217028,314.218477 C364.926265,322.791628 330.647282,331.415103 296.338313,339.916517 C292.903775,340.767729 290.518768,342.332032 288.305114,345.242214 C266.008996,374.559244 238.29494,396.832093 203.146345,408.908598 C182.964284,415.843568 162.33992,418.764457 141.29253,412.703184 C117.138313,405.748941 102.305649,386.283487 101.547416,361.173265 C100.708862,333.377709 110.488782,308.570497 122.808996,284.475305 C126.841124,276.589547 131.356252,268.950053 135.92921,260.695972 C123.323052,262.296679 111.155984,263.841709 97.6780723,265.552699 C105.212209,255.691487 113.195074,248.136578 121.108327,240.53884 C128.316894,233.61779 136.096278,227.349871 143.88423,221.093729 C146.30672,219.148255 148.56,218.328093 151.690388,219.424497 C156.032021,220.944901 160.541794,221.982416 164.979813,223.226578 C163.621847,225.718113 160.978742,226.671042 158.864685,228.227851 C150.94822,234.058921 142.777938,239.559143 134.418099,246.971648 C150.226399,244.159972 164.407925,240.262598 178.784364,236.93484 C178.966426,239.471345 177.166158,240.385729 176.024525,241.648093 C159.852102,259.533184 145.003373,278.387265 133.715556,299.811042 C123.965622,318.317143 116.769906,337.569527 118.706185,358.986881 C120.130549,374.735911 127.251299,387.228921 141.763748,394.452982 C158.803641,402.934053 176.369371,401.185588 193.772316,395.724982 C223.210602,386.490133 246.086104,367.445467 267.177403,345.849305 C267.574726,345.380335 267.972048,344.911366 268.369371,344.442396 C267.471914,343.839588 266.883963,344.2668 266.400964,345.036638 C257.102972,349.011103 248.133762,353.712578 238.591593,357.155972 C220.902704,363.538457 202.988916,368.375911 183.899224,366.545002 C166.634431,364.889689 156.685301,353.521992 158.5766,337.420699 C158.907523,334.609022 159.494404,331.799487 160.25585,329.071325 C165.428541,310.533103 176.217296,295.083871 187.485837,279.914093 C198.434163,265.174739 211.069237,251.884053 223.350897,238.290356 C233.491727,240.939285 243.634699,243.582861 253.773387,246.240356 C255.713949,246.748941 258.037912,247.457749 258.821847,245.006901 C259.876734,241.710194 256.522517,242.376174 255.066024,241.992861 C207.838179,229.533042 160.57071,217.226335 113.328942,204.81577 C87.911004,198.13884 62.2628112,192.132174 38.5176975,180.334053 C29.6288086,175.917386 21.2475502,170.737305 12.8919946,163.781992 C19.5747256,161.682335 25.5077912,161.233709 31.4633467,161.034558 C57.9318876,160.145871 83.3530388,166.23284 108.737778,172.623891 C168.473253,187.663042 228.223722,202.648659 287.967764,217.653547 C297.781954,220.118315 307.588648,222.609851 317.421044,224.997527 C319.154913,225.418315 321.608461,226.626073 322.07004,223.50282 C322.477001,220.750032 319.940991,221.256477 318.36241,220.844255 C300.703507,216.238073 283.041392,211.642598 265.379277,207.043911 C284.346881,194.684739 304.428273,184.989487 327.308059,182.852356 C340.252637,181.643527 346.993199,189.55284 345.19079,202.364921 C344.059866,210.408073 340.478608,217.606436 337.144739,226.145325 C361.376064,211.283911 384.693869,197.354012 408.494672,184.153265 C403.369103,178.117689 393.317162,171.957911 383.155984,168.45884 C362.157858,161.227285 340.622115,160.597709 318.781151,162.916861 C282.17178,166.803527 248.025596,178.557749 215.27593,194.88282" id="Fill-3" fill="#041F45" sketch:type="MSShapeGroup"></path>
                <path d="M285.60332,132.986315 C286.923802,132.82678 287.367175,132.909224 287.596359,132.726133 C303.04589,120.395871 319.343614,109.351527 336.891138,100.203406 C338.235181,99.5031636 339.345756,98.6926384 339.365033,97.038396 C339.454993,89.2308 340.062222,81.4435475 336.273199,74.0406788 C334.267309,70.1218909 332.78083,70.2525172 329.776814,72.8853859 C319.283641,82.0816889 310.149505,92.4878909 302.090602,103.810618 C295.731299,112.744598 289.982436,122.087588 285.60332,132.986315 M455.330763,25.3973859 C442.600375,26.1436687 430.034913,26.1254667 417.664364,28.8611232 C413.796091,29.7166182 411.151914,31.0485778 409.444819,34.5626384 C403.352182,47.1113253 399.895154,60.4705374 397.171727,74.0567394 C396.627684,76.7688404 397.006801,78.4669818 400.604123,77.5932848 C407.659545,75.8780121 414.847764,74.8040929 422.095957,74.3329818 C424.433842,74.1809414 424.849371,73.0577697 425.234913,71.0159313 C426.222329,65.7898101 427.841606,60.7435677 430.000643,55.8300929 C435.505328,43.3049616 444.559143,33.8474061 455.330763,25.3973859 M397.229558,34.4534263 C378.365837,40.1977697 362.094886,48.6263758 346.996627,59.4340929 C345.520857,60.4908808 344.023668,61.3656485 345.15245,63.6815879 C349.142811,71.872497 351.826613,80.5034667 352.975743,89.5359515 C353.370924,92.641002 354.637858,91.7137697 356.452048,91.051002 C363.94656,88.313204 371.422865,85.4940323 379.037323,83.1309818 C382.063829,82.1919717 383.283641,80.6276687 383.857671,77.6928606 C386.693548,63.2158303 390.734244,49.0867798 397.229558,34.4534263 M463.536386,139.480154 C458.892744,140.654719 454.249103,141.829285 449.607604,143.00278 C448.910415,142.508113 448.035448,142.148356 447.537456,141.499507 C436.257135,126.801911 428.51095,110.453285 425.274538,92.1698909 C424.714431,89.0070222 423.875877,87.6322343 420.704793,88.1782949 C412.871861,89.5252444 405.057135,90.9921131 397.199572,92.1773859 C394.4151,92.5981737 394.083106,94.0532646 393.786452,96.4666384 C392.029023,110.752012 391.525676,125.081285 391.693815,139.455527 C391.715234,141.332477 392.350308,143.406436 390.718179,145.030699 C386.376546,144.036012 382.035984,143.041325 377.69328,142.045568 C377.668648,127.031042 379.163695,112.094679 380.529157,96.6914869 C371.359679,99.8211636 362.65178,102.308416 354.457938,106.25076 C352.626613,107.131952 351.234378,108.088093 350.619652,110.268053 C347.974404,119.643164 345.142811,128.96581 342.378688,138.307729 C337.811084,138.352699 333.244552,138.397669 328.676948,138.442638 C330.140937,130.882376 334.767443,124.307164 335.846961,116.122679 C331.854458,116.849689 329.114967,119.173123 326.198768,120.972982 C315.734511,127.432558 305.033574,133.585911 296.281767,142.439588 C286.265167,144.794073 276.242142,147.12179 266.240535,149.536234 C265.061419,149.821042 263.795556,150.891749 262.763159,149.997709 C261.422329,148.837063 262.567175,147.391608 263.016975,146.112113 C278.575743,101.926174 305.985649,66.9718707 345.29917,41.5597091 C383.841606,16.646497 426.463293,6.25314343 471.882303,10.3839313 C534.400107,16.0693859 584.081499,45.3232444 620.95004,96.2214465 C623.17012,99.2868808 623.459277,101.008578 619.119786,101.722739 C615.115502,102.381224 611.155127,103.31381 607.175475,104.126477 C597.951379,91.1901939 587.272932,79.6490424 575.115502,69.3670424 C551.42822,49.3330424 524.415636,36.1012444 494.209478,29.5249616 C487.746292,28.1169818 481.214565,25.4487798 474.120589,29.2519313 C457.934244,37.9300121 445.522999,49.3972848 440.69087,67.8734061 C439.432503,72.6840929 440.885783,73.4036081 445.093548,73.2569212 C460.418849,72.7226384 475.592075,74.2505374 490.62929,77.1617899 C517.361285,82.3386586 542.581098,91.7041333 566.317644,104.976618 C569.72755,106.882477 574.022062,107.811851 576.072932,111.773467 C569.81751,113.778901 563.540669,115.691184 556.942544,116.236174 C556.178956,114.114032 554.157001,113.56583 552.417778,112.771366 C546.11095,109.889022 539.831968,106.925305 533.410549,104.313851 C504.771191,92.666699 475.088728,86.3409616 444.040803,86.9619717 C440.133976,87.0401333 439.835181,88.3774465 440.518447,91.8775879 C442.635716,102.717426 447.588862,112.304537 452.672664,121.911992 C455.906934,128.024659 460.998233,132.959547 463.536386,139.480154" id="Fill-5" fill="#041E43" sketch:type="MSShapeGroup"></path>
                <path d="M755.383133,362.126836 C759.461312,360.903018 762.767336,358.321543 763.867202,354.435947 C765.467202,348.784756 769.8249,345.792129 775.023293,341.199867 C770.199732,342.439745 766.878715,343.277038 763.568407,344.151806 C762.255422,344.498715 761.441499,345.292109 761.354752,346.755766 C761.01419,352.487261 757.603213,356.926412 755.383133,362.126836 M647.193574,356.428533 C644.9917,360.958695 646.322892,364.642998 649.302276,368.140998 C651.617671,370.861665 654.049799,373.415301 656.921017,375.551362 C667.997858,383.789382 680.744311,387.117139 694.238286,387.912675 C700.767871,388.298129 707.405622,388.398776 714.787684,384.612756 C686.632396,386.2852 662.714859,381.134028 647.193574,356.428533 M655.627309,327.688614 C656.317001,328.101907 656.598661,328.369584 656.927443,328.45417 C688.01178,336.402028 719.103614,344.32419 750.183668,352.291321 C752.74324,352.947665 754.438554,352.334149 754.939759,349.649887 C755.409906,347.131584 755.837216,344.532978 752.104953,344.008331 C750.885141,343.837018 749.713521,343.347705 748.510843,343.035059 C721.384739,335.999442 694.254351,328.979887 667.131459,321.92821 C659.329585,319.89922 659.340295,319.857463 655.627309,327.688614 M653.326908,345.050129 C655.778313,361.561503 666.500669,369.300574 679.895047,374.271867 C700.584739,381.948836 725.279786,376.824432 738.648461,361.906271 C708.217403,366.064897 680.14672,360.672816 653.326908,345.050129 M619.912182,312.481362 C619.787952,318.667907 619.356359,325.294513 613.612851,328.625483 C609.517537,331.001382 609.558233,333.415826 610.219009,337.001624 C611.659438,344.802796 613.646051,352.326655 619.548059,358.768028 C623.881124,333.506836 640.609371,306.375119 654.2083,302.59017 C653.325837,304.155543 652.761446,305.60421 651.825435,306.748796 C634.639893,327.748574 628.283802,352.215301 628.578313,378.842715 C628.595448,380.39417 629.533601,382.45421 628.156359,383.387867 C626.485676,384.521745 624.746452,382.877139 623.336011,381.965968 C615.555556,376.944352 610.55743,369.515786 606.131191,361.624675 C604.660776,359.004655 603.97751,355.895321 600.829987,352.868432 C603.694779,363.64724 607.574833,372.595139 613.844177,380.389887 C618.638822,386.350513 624.420884,390.872109 632.048193,392.767261 C634.697724,393.424675 636.136011,393.560655 635.601606,390.030533 C633.952343,379.145725 635.101473,368.282331 637.151272,357.623442 C643.282463,325.731362 657.437216,300.09221 690.964391,289.607846 C699.681928,286.880756 707.91004,282.679301 716.109237,277.074149 C710.325033,276.300028 705.285141,275.686513 700.264525,274.941301 C687.106827,272.987261 674.139759,269.764432 660.565462,272.194937 C641.823829,275.549463 627.417403,285.320735 616.016064,300.148958 C614.582062,302.013059 613.918072,303.516331 616.654351,304.673766 C617.740295,307.275584 618.826238,309.878473 619.912182,312.481362 M599.097189,304.133059 C616.65328,276.850372 641.401874,262.299463 674.180455,262.043564 C685.334404,261.956836 695.944311,265.255685 706.761981,267.221503 C714.50174,268.627341 722.256493,269.435725 730.114056,269.461422 C731.641232,269.465705 733.798126,268.653038 734.539224,270.330836 C735.363855,272.198149 733.324766,273.472291 732.215261,274.731442 C725.32905,282.543321 716.375904,287.259786 707.016867,291.35524 C697.253012,295.628432 687.186078,299.222796 677.761714,304.258331 C673.361178,306.609604 669.174833,309.271382 665.799197,313.803685 C671.50415,316.328412 677.383668,317.331665 683.072557,318.868129 C706.888353,325.299867 730.746988,331.572069 754.540295,338.081968 C756.999197,338.754372 758.987952,338.613038 761.175904,337.634412 C768.356627,334.423362 775.946452,334.117139 783.657296,334.413725 C786.610977,334.52722 787.569478,335.868816 786.871218,338.457786 C783.462383,351.089988 779.019009,363.243584 769.733869,372.940978 C768.153146,374.590937 766.254351,376.028897 764.285944,377.197038 C756.220616,381.983099 753.217671,381.039806 749.320482,372.760028 C748.898527,371.864917 748.397323,371.00621 747.89826,370.063988 C714.184739,402.599564 677.985542,402.702352 644.380187,374.394998 C644.380187,383.109483 644.175636,391.201887 644.464793,399.276089 C644.612584,403.42722 643.389558,404.525766 639.284605,403.809463 C611.537349,398.966655 592.524766,377.606048 590.979384,349.286917 C590.804819,346.083362 590.449264,342.874453 590.516734,339.67518 C590.731995,329.563422 590.779116,329.625523 580.904953,327.095442 C564.218474,322.822251 547.555556,318.459119 530.880857,314.14524 C529.353681,313.75122 527.790094,313.476048 526.383936,311.954574 C529.527175,310.178271 532.974565,310.405261 536.136011,310.062634 C545.337617,309.065806 554.601339,308.646089 563.821151,307.797018 C574.645248,306.801261 584.314859,311.599099 594.531727,313.633442 C596.96921,314.118473 599.356359,314.881887 601.803481,315.287685 C605.428648,315.888352 607.031861,313.527442 607.796519,310.549806 C608.693976,307.049665 605.985542,306.334432 603.517001,305.731624 C601.952343,305.349382 600.357697,305.157725 599.097189,304.133059" id="Fill-7" fill="#041F45" sketch:type="MSShapeGroup"></path>
                <path d="M223.35079,238.290463 C211.06913,251.88416 198.434056,265.174846 187.48573,279.9142 C176.217189,295.083978 165.428434,310.53321 160.255743,329.071432 C159.494297,331.799594 158.907416,334.609129 158.577564,337.420806 C156.685194,353.522099 166.634324,364.889796 183.899116,366.545109 C202.988809,368.376018 220.902597,363.538564 238.591486,357.156079 C248.133655,353.712685 257.102865,349.01121 266.400857,345.036745 C266.660027,345.307634 266.918126,345.578523 267.177296,345.849412 C246.085997,367.445574 223.210495,386.49024 193.772209,395.725089 C176.369264,401.185695 158.803534,402.93416 141.763641,394.453089 C127.251191,387.229028 120.130442,374.734947 118.706078,358.986988 C116.769799,337.569634 123.965515,318.317251 133.715448,299.811149 C145.003266,278.387372 159.851995,259.533291 176.024418,241.6482 C177.166051,240.385836 178.966319,239.470382 178.784257,236.934947 C164.407818,240.262705 150.226292,244.160079 134.417992,246.971756 C142.777831,239.559251 150.948112,234.059028 158.864578,228.227958 C160.978635,226.671149 163.62174,225.71822 164.979705,223.226685 C184.436734,228.248301 203.893762,233.268846 223.35079,238.290463" id="Fill-9" fill="#F7F9F8" sketch:type="MSShapeGroup"></path>
                <path d="M576.072932,111.773788 C574.022062,107.812172 569.72755,106.882798 566.317644,104.976939 C542.581098,91.7044545 517.361285,82.3379091 490.62929,77.1621111 C475.592075,74.2497879 460.418849,72.7218889 445.093548,73.2561717 C440.885783,73.4028586 439.432503,72.6833434 440.69087,67.8737273 C445.522999,49.3976061 457.934244,37.9292626 474.120589,29.2511818 C481.214565,25.4480303 487.746292,28.117303 494.209478,29.5242121 C524.415636,36.1004949 551.42822,49.3322929 575.115502,69.3662929 C587.272932,79.6493636 597.951379,91.1905152 607.175475,104.125727 C597.002517,107.465263 586.563963,109.727667 576.072932,111.773788" id="Fill-11" fill="#71253D" sketch:type="MSShapeGroup"></path>
                <path d="M451.630201,334.636754 C469.982008,325.004673 489.598608,318.966956 509.686426,314.300814 C511.007979,313.993521 512.557644,314.194814 513.901687,314.541723 C535.698742,320.180067 557.454029,325.977945 579.283213,331.484592 C583.675181,332.592774 585.744257,334.508269 585.040643,339.149784 C584.695797,341.421824 584.837162,343.767743 584.757912,346.0794 C583.016546,346.265703 581.952021,347.495945 580.782544,348.599844 C560.504096,367.755865 536.718286,380.828127 510.311861,389.459097 C507.101151,390.509461 504.84573,389.744976 502.466078,387.901218 C487.938635,376.647016 474.427523,364.295339 462.738099,350.099905 C458.719893,345.220693 454.0634,340.695885 451.630201,334.636754" id="Fill-13" fill="#71253D" sketch:type="MSShapeGroup"></path>
                <path d="M320.005997,341.670442 C349.069451,333.964564 378.129692,326.242624 407.20921,318.597776 C408.669987,318.213392 410.558072,317.411432 411.78324,318.715554 C412.787791,319.78519 411.446961,321.067897 410.876145,322.055089 C402.685515,336.214119 399.357001,351.625877 398.722999,369.266846 C412.128086,359.558745 423.802517,348.978018 437.846961,341.971311 C438.075074,342.63622 438.15004,343.416766 438.552718,343.949978 C451.151379,360.635877 465.70988,375.416988 482.023668,388.478543 C484.266238,390.274119 487.380562,391.066442 488.803855,394.144725 C487.15245,394.65224 485.825542,395.249695 484.440803,395.456341 C461.027684,398.944705 437.712021,398.606362 414.551647,393.434846 C384.523266,386.730079 357.698099,373.646038 334.084712,353.771574 C329.348969,349.786402 325.76664,344.437149 320.005997,341.670442" id="Fill-15" fill="#71253D" sketch:type="MSShapeGroup"></path>
                <path d="M615.47427,275.926994 C606.891673,275.947337 598.514699,277.802873 590.057403,278.884287 C563.566372,282.274145 537.015368,285.251782 510.765301,290.364408 C489.216707,294.560509 468.11577,300.173156 447.849103,308.718469 C446.931299,309.106065 446.071325,310.047216 444.417778,309.292368 C453.90747,300.992246 464.851513,295.78861 476.238929,291.400853 C504.80332,280.393984 534.672129,274.528651 564.671593,269.25863 C599.546024,263.134186 634.852048,259.240024 668.912557,248.949459 C682.068112,244.974994 695.003052,240.452327 706.435448,232.562287 C708.91577,230.850226 711.269719,228.87263 713.377349,226.719438 C723.720589,216.161196 723.083373,201.172368 711.990469,191.304731 C709.994217,189.528428 707.926212,187.817438 706.057403,185.913721 C694.848835,174.495701 694.42581,160.287418 705.601178,148.882246 C719.38324,134.815297 736.644819,130.954327 755.700241,133.279903 C757.755395,133.531519 758.59502,134.211418 757.711486,136.384954 C755.2483,142.437661 752.892209,148.533196 750.348701,154.980994 C744.903989,149.043923 738.616439,146.095196 731.088728,146.079135 C724.588059,146.064145 720.007604,148.799802 718.102383,153.598711 C715.799839,159.397661 719.139063,163.126933 722.971995,166.536065 C731.141205,173.805095 739.078019,181.236873 742.996627,191.840085 C749.539063,209.541014 742.932369,228.713095 725.95245,241.117236 C717.394485,247.369095 707.614565,251.261115 697.916037,255.293398 C695.456064,256.315923 693.071058,257.520469 690.65178,258.64257 C672.425274,255.991499 654.606801,257.247438 637.238126,263.802307 C629.349505,266.779943 622.441874,271.374347 615.47427,275.926994" id="Fill-17" fill="#F7F9F8" sketch:type="MSShapeGroup"></path>
                <path d="M320.005997,341.670442 C325.76664,344.437149 329.348969,349.786402 334.084712,353.771574 C357.698099,373.646038 384.523266,386.730079 414.551647,393.434846 C437.712021,398.606362 461.027684,398.944705 484.440803,395.456341 C485.825542,395.249695 487.15245,394.65224 488.803855,394.144725 C487.380562,391.066442 484.266238,390.274119 482.023668,388.478543 C465.70988,375.416988 451.151379,360.635877 438.552718,343.949978 C438.15004,343.416766 438.075074,342.63622 437.846961,341.971311 C442.12755,338.936927 446.809746,336.655251 451.631165,334.636968 C454.064364,340.695028 458.719786,345.219836 462.737992,350.100119 C474.427416,364.295554 487.938527,376.64616 502.465971,387.900362 C504.846693,389.74519 507.101044,390.508604 510.311754,389.459311 C536.718179,380.827271 560.503989,367.756079 580.782436,348.600059 C581.951914,347.495089 583.016439,346.264846 584.757805,346.079614 L584.750308,346.122442 C584.689264,347.929796 584.005997,349.815311 585.41751,351.438503 C585.503186,352.14517 585.430361,352.91822 585.698099,353.547796 C589.655261,362.869372 583.897831,367.443432 577.287925,372.339776 C545.013762,396.249735 509.091941,410.261008 468.923802,412.797513 C405.826613,416.782685 352.375475,395.508806 307.989933,350.820705 C306.861151,349.684685 305.816975,348.461937 304.772798,347.245614 C304.568246,347.007917 304.55004,346.610685 304.243748,345.656685 C309.521392,344.322584 314.763695,342.995978 320.005997,341.670442" id="Fill-19" fill="#041E43" sketch:type="MSShapeGroup"></path>
                <path d="M215.275716,194.88282 C248.025382,178.557749 282.171566,166.803527 318.780937,162.916861 C340.621901,160.597709 362.157644,161.227285 383.15577,168.45884 C393.316948,171.957911 403.368889,178.117689 408.494458,184.153265 C384.693655,197.354012 361.37585,211.283911 337.144525,226.145325 C340.478394,217.606436 344.059652,210.408073 345.191647,202.364921 C346.992985,189.55284 340.253494,181.643527 327.307845,182.852356 C304.428059,184.989487 284.346667,194.684739 265.380134,207.043911 C250.409317,203.373527 235.439572,199.701002 220.466613,196.039184 C218.744525,195.618396 217.006372,195.267204 215.275716,194.88282" id="Fill-21" fill="#F7F9F8" sketch:type="MSShapeGroup"></path>
                <path d="M463.536386,139.480154 C460.998233,132.959547 455.906934,128.024659 452.672664,121.911992 C447.588862,112.304537 442.635716,102.717426 440.518447,91.8775879 C439.835181,88.3774465 440.133976,87.0401333 444.040803,86.9619717 C475.088728,86.3409616 504.771191,92.666699 533.410549,104.313851 C539.831968,106.925305 546.11095,109.889022 552.417778,112.771366 C554.157001,113.56583 556.178956,114.114032 556.942544,116.236174 C547.680964,119.941891 537.831432,121.459083 528.218581,123.838194 C506.687122,129.167103 485.101044,134.279729 463.536386,139.480154" id="Fill-23" fill="#71253D" sketch:type="MSShapeGroup"></path>
                <path d="M390.718608,145.030592 C392.350736,143.406329 391.715663,141.33237 391.694244,139.45542 C391.525033,125.082248 392.029451,110.752976 393.78581,96.4665313 C394.082463,94.0531576 394.414458,92.5980667 397.2,92.1772788 C405.056493,90.9930768 412.871218,89.5251374 420.70415,88.1781879 C423.876305,87.6321273 424.713788,89.0069152 425.273896,92.1708545 C428.511379,110.454248 436.256493,126.801804 447.536814,141.500471 C448.034806,142.149319 448.910843,142.508006 449.608032,143.002673 C437.646586,146.041339 425.687282,149.081077 413.726908,152.116531 C412.319679,152.474147 411.012048,152.366006 409.589826,151.832794 C403.33012,149.483663 397.013655,147.28443 390.718608,145.030592" id="Fill-25" fill="#71253D" sketch:type="MSShapeGroup"></path>
                <path d="M342.378581,138.307729 C345.142704,128.96581 347.974297,119.643164 350.619545,110.268053 C351.23427,108.088093 352.626506,107.131952 354.457831,106.25076 C362.652744,102.308416 371.359572,99.8211636 380.52905,96.6914869 C379.163588,112.094679 377.668541,127.031042 377.694244,142.045568 C366.000535,140.056194 354.250067,138.613952 342.378581,138.307729" id="Fill-27" fill="#71253D" sketch:type="MSShapeGroup"></path>
                <path d="M296.282195,142.439481 C305.032932,133.585804 315.73494,127.432451 326.199197,120.972875 C329.115395,119.173016 331.854886,116.849582 335.846319,116.122572 C334.767871,124.307057 330.141365,130.882269 328.677376,138.442531 C317.878983,139.774491 307.080589,141.107521 296.282195,142.439481" id="Fill-29" fill="#71253D" sketch:type="MSShapeGroup"></path>
                <path d="M585.417403,351.438075 C584.00589,349.814883 584.689157,347.930438 584.750201,346.122014 C586.110308,347.75163 585.408835,349.639287 585.417403,351.438075" id="Fill-31" fill="#71253D" sketch:type="MSShapeGroup"></path>
                <path d="M341.943989,236.462016 C333.02083,260.133208 324.527122,282.666238 316.007711,305.266723 C318.375582,306.172541 319.38656,304.375895 320.557108,303.212036 C337.617349,286.245612 351.460455,266.963248 362.309183,245.484865 C364.019491,242.10036 363.213066,240.402218 360.093387,238.876461 C357.713735,237.712602 355.519357,236.167572 352.145863,234.128945 C359.224846,232.336582 365.383882,230.790481 371.535422,229.215471 C377.873307,227.593349 384.203695,225.94339 391.379063,224.087855 C388.384685,233.813087 384.52498,242.435491 380.339705,250.930481 C369.152557,273.638036 355.03743,294.225592 336.616011,311.755208 C333.413869,314.80244 329.941847,316.791814 325.628059,317.8304 C313.396734,320.778057 301.233949,324.00838 288.002356,327.392885 C291.549344,318.196582 294.71079,309.85042 297.981473,301.546016 C305.276787,283.022784 312.740241,264.564865 319.843855,245.968824 C321.0883,242.710663 322.807175,241.122804 326.030736,240.418279 C331.011727,239.328299 335.933815,237.971713 341.943989,236.462016" id="Fill-33" fill="#F7F9F8" sketch:type="MSShapeGroup"></path>
                <path d="M277.128889,269.853515 C276.749772,269.494828 276.371727,269.136141 275.99261,268.777455 C263.367175,275.622485 256.318179,287.414182 248.670522,300.553899 C254.683909,298.837556 259.380027,297.397455 264.133976,296.188626 C266.048835,295.702525 266.585382,294.254929 267.207604,292.829818 C270.546827,285.18497 273.82822,277.515495 277.128889,269.853515 M305.736118,245.334323 C298.718179,262.753657 292.022597,279.378525 285.32166,296.001253 C281.134244,306.389253 276.826881,316.730141 272.807604,327.183455 C271.528889,330.508 269.745756,332.358182 266.089531,332.944929 C260.380295,333.860384 254.958072,336.27697 248.599839,336.785556 C252.427416,327.062465 256.065435,317.819051 259.921928,308.018869 C253.961017,308.624889 248.954324,310.788788 243.779491,312.207475 C241.841071,312.739616 241.530495,314.841414 240.766908,316.396081 C237.002517,324.058061 233.284177,331.742525 229.578688,339.432343 C228.884712,340.871374 228.437055,342.418545 226.58324,342.887515 C220.428487,344.446465 214.287657,346.058949 206.907738,347.971232 C213.36664,334.874343 219.401446,322.904909 225.192075,310.819838 C230.666774,299.393253 236.655529,288.353192 244.787256,278.505899 C259.006265,261.285717 277.28739,251.200727 298.93344,246.741232 C300.820455,246.352566 302.70747,245.960687 305.736118,245.334323" id="Fill-35" fill="#F7F9F8" sketch:type="MSShapeGroup"></path>
                <path d="M644.127979,191.375612 C644.527443,191.688259 644.925837,192.001976 645.325301,192.314622 C655.421151,187.038178 662.254886,178.781956 666.624364,168.281531 C667.370817,166.487026 669.007229,164.303855 667.976975,162.802723 C666.640428,160.855107 664.306827,162.854117 662.65328,163.349855 C659.382597,164.329552 654.681124,163.627168 653.166801,167.047006 C649.672289,174.943471 647.083802,183.241451 644.127979,191.375612 M697.025435,215.346602 C690.082463,226.873834 676.374297,233.71137 665.040428,231.338683 C651.325837,228.467046 645.016867,217.560824 638.816064,205.887976 C635.875234,210.849632 634.798929,216.002945 632.841232,220.776158 C631.763855,223.405814 630.287015,226.039754 629.971084,228.785046 C628.291834,243.353087 617.351004,245.116541 605.753681,246.593046 C605.671218,243.280279 607.359036,240.52642 608.386078,237.685834 C617.088621,213.608844 626.007497,189.608945 634.655422,165.511612 C635.752075,162.456885 637.349933,160.934339 640.378581,160.165572 C654.676841,156.535875 668.935475,152.753067 683.215529,149.054844 C688.897992,147.582622 689.5834,148.006622 688.27577,153.605349 C684.41071,170.154198 675.876305,183.904218 661.885408,193.670137 C658.017135,196.370461 658.063186,198.20137 659.975904,201.710077 C666.393039,213.482501 679.877376,219.325349 693.72905,216.102521 C694.582597,215.90337 695.437216,215.710642 697.025435,215.346602" id="Fill-37" fill="#F7F9F8" sketch:type="MSShapeGroup"></path>
                <path d="M432.371191,230.34603 C431.992075,230.020535 431.614029,229.69397 431.234913,229.368475 C418.655529,236.301303 411.509076,247.97201 403.777885,261.250919 C409.888728,259.591323 414.47668,258.362152 419.052851,257.093364 C420.526479,256.685424 421.36075,255.644697 421.967979,254.230293 C425.393949,246.251384 428.894886,238.304596 432.371191,230.34603 M362.257135,307.947667 C370.787256,290.805646 378.639465,274.299626 387.151379,258.139444 C394.45419,244.272717 404.381901,232.41999 417.177617,223.13696 C429.956198,213.866778 444.289799,208.739162 460.703186,206.452131 C456.304793,217.354071 452.237323,227.517222 448.106667,237.653606 C441.191539,254.62003 434.17253,271.544697 427.365569,288.553949 C426.32996,291.141848 425.046961,292.616212 422.246426,293.134434 C416.176278,294.258677 410.379224,296.753424 403.798233,297.074636 C407.506934,287.705949 411.07427,278.69702 414.685515,269.576737 C405.366104,268.843303 397.679893,273.132556 394.106131,280.77098 C392.523266,284.152273 390.249639,287.368677 389.435716,290.922354 C386.123266,305.388677 373.999036,305.281606 362.257135,307.947667" id="Fill-39" fill="#F7F9F8" sketch:type="MSShapeGroup"></path>
                <path d="M562.370228,247.060196 C577.379598,244.70357 588.49178,237.37458 598.92498,227.782115 C600.496064,231.714822 597.915074,234.057529 597.29071,236.778196 C594.982811,246.849267 588.858046,251.747752 578.448407,253.438398 C566.911058,255.312135 555.688568,259.115287 544.319357,262.041529 C542.83502,262.423772 541.34747,263.304964 539.344793,262.263166 C544.729531,248.382519 550.119625,234.510438 555.491513,220.631933 C560.623507,207.371226 565.727657,194.100883 570.870361,180.844459 C571.551486,179.08957 571.932744,177.366802 574.424846,176.753287 C590.615475,172.767044 606.750415,168.553812 624.000214,164.133933 C620.639572,172.500438 617.646265,179.95256 614.441981,187.926115 C608.733815,179.495368 601.409585,176.881772 592.270094,179.261954 C590.90249,179.617428 589.475984,179.825145 588.87411,181.431206 C585.652691,190.026842 582.408782,198.613913 578.982811,207.706358 C585.788701,207.431186 591.907041,206.330499 599.496867,207.508277 C591.36407,211.952782 584.391111,215.940095 577.243588,219.585853 C574.359518,221.057004 572.533548,222.951085 571.342651,225.968337 C568.673842,232.727711 565.67411,239.356459 562.370228,247.060196" id="Fill-41" fill="#F7F9F8" sketch:type="MSShapeGroup"></path>
                <path d="M495.101044,196.643812 C489.40573,211.760055 484.159143,225.689954 478.909344,239.618782 C475.646158,248.276519 472.362624,256.926762 469.130495,265.596277 C468.521124,267.232317 466.955395,269.248459 468.05419,270.581489 C469.494618,272.329954 471.701847,270.559004 473.512825,270.176762 C484.622865,267.830842 493.140134,261.258842 500.743882,253.231752 C501.919786,251.990802 502.739063,250.285166 505.088728,249.745529 C505.976546,253.25959 503.499438,255.792883 502.884712,258.715913 C500.310147,270.971226 492.829558,276.501428 480.416171,278.445832 C466.982169,280.550842 453.916573,285.002842 439.678286,288.692499 C442.907202,280.110782 445.81162,272.256075 448.812423,264.438842 C456.269451,245.016216 463.800375,225.62357 471.215636,206.185954 C472.251245,203.473853 473.59743,201.897772 476.734244,201.307812 C482.468112,200.231752 488.074538,198.473651 495.101044,196.643812" id="Fill-43" fill="#F7F9F8" sketch:type="MSShapeGroup"></path>
                <path d="M505.797483,271.521998 C515.017296,247.866867 523.777671,225.391655 532.539116,202.915372 C533.441928,200.598362 534.711004,198.35523 535.192932,195.953634 C536.979277,187.061412 542.555716,182.995937 551.295743,182.268927 C554.062008,182.038725 556.756519,180.941251 560.48664,179.982968 C556.841124,189.51119 553.507256,198.331675 550.095207,207.12218 C542.966961,225.485877 535.750897,243.815311 528.691191,262.203634 C527.560268,265.151291 525.973119,266.749857 522.720643,267.349453 C517.377671,268.334503 512.145007,269.92022 505.797483,271.521998" id="Fill-45" fill="#F7F9F8" sketch:type="MSShapeGroup"></path>
                <path d="M96.2601339,175.844471 C167.418367,194.059339 237.740187,212.060067 308.486104,230.168935 C305.015154,232.558754 293.32573,235.044935 290.104311,234.200147 C237.938313,220.517582 185.756252,206.894976 133.633092,193.048592 C121.442463,189.810774 109.755181,185.049339 98.505917,179.279299 C97.6898527,178.860653 96.9241232,178.565137 96.2601339,175.844471" id="Fill-47" fill="#F9B60D" sketch:type="MSShapeGroup"></path>
                <path d="M638.721821,128.774475 C642.436948,123.697182 641.868273,115.636899 650.744311,116.889626 C647.235877,125.832172 643.751004,134.865727 640.120482,143.841465 C639.383668,145.663808 639.131995,145.562091 631.980187,147.149949 C635.393307,140.537263 635.975904,134.271485 631.948059,127.289404 C629.846854,133.465242 627.981258,139.029707 626.061044,144.573828 C624.315395,149.612576 624.289692,149.602939 617.464525,150.249646 C621.116466,140.947343 624.551004,131.895586 628.252209,122.95304 C629.368139,120.258071 632.51245,120.692778 634.770013,120.360859 C637.34672,119.982899 636.743775,122.737828 637.316734,124.24003 C637.757965,125.394253 638.05676,126.60201 638.721821,128.774475" id="Fill-49" fill="#F7F9F8" sketch:type="MSShapeGroup"></path>
                <path d="M609.933387,132.081889 C610.315716,128.109566 608.458688,128.884758 607.282784,129.046434 C604.310897,129.453303 599.178902,137.30801 599.558019,140.513707 C599.768996,142.291081 600.955609,141.681848 601.863775,141.600475 C605.227631,141.300677 609.720268,135.238333 609.933387,132.081889 M600.617189,155.004657 C601.622811,152.211182 602.371406,150.485202 602.852262,148.689626 C603.253869,147.190636 605.303668,145.058859 603.034324,144.256899 C601.456814,143.699061 598.671272,144.237626 597.415047,146.245202 C596.394431,147.875889 595.62656,149.752838 595.159625,151.624434 C594.025489,156.169586 591.066452,157.887 585.748112,157.725323 C589.269398,149.000131 592.34838,140.478374 596.162035,132.299242 C598.069398,128.210212 611.526961,124.204697 616.119197,125.348212 C618.104739,125.842879 618.253601,126.743343 617.606747,128.377242 C614.603802,135.963202 611.6951,143.585566 608.64075,151.151182 C607.278501,154.523909 603.820402,153.201586 600.617189,155.004657" id="Fill-51" fill="#F7F9F8" sketch:type="MSShapeGroup"></path>
                <path d="M657.847282,137.335313 C662.701901,137.077273 665.364284,135.654303 666.68905,131.631657 C668.240857,126.921616 670.437376,122.427859 672.132691,117.760646 C672.58249,116.525051 674.671914,114.634182 672.342597,113.757273 C670.515556,113.069879 667.516894,113.245475 666.603373,115.321576 C663.504043,122.366828 660.871647,129.617657 657.847282,137.335313 M648.945542,142.651374 C652.689585,133.046061 656.145542,124.154909 659.629344,115.275535 C660.018099,114.285131 660.532155,113.288303 661.697349,113.006707 C666.359197,111.879253 670.98249,110.474485 675.709665,109.765677 C680.53751,109.041879 681.640589,110.712182 679.934565,115.273394 C678.563748,118.939495 676.678876,122.469616 675.774993,126.240646 C673.791593,134.524707 667.940991,138.053758 660.398286,139.866465 C656.939116,140.698404 653.485301,141.546404 648.945542,142.651374" id="Fill-53" fill="#F7F9F8" sketch:type="MSShapeGroup"></path>
                <path d="M455.326801,164.374521 C454.969103,170.258057 450.916627,170.771996 447.326801,170.065329 C442.27834,169.071713 439.620241,170.768784 437.998822,175.325713 C436.270308,180.18244 434.251566,184.935309 432.512343,189.787754 C432.08075,190.991228 430.510736,192.501996 432.094672,193.632663 C433.528675,194.656259 435.600964,193.651935 436.526265,192.769673 C439.281821,190.144299 442.08664,188.111026 446.102704,188.468642 C443.701633,193.639087 429.479411,199.486218 424.906452,197.231309 C423.024793,196.304077 423.674859,194.837208 424.158929,193.579127 C426.655315,187.104562 429.173119,180.635349 431.83336,174.226097 C433.193467,170.950804 436.540187,169.986097 439.397483,168.693754 C444.279946,166.483814 449.607925,165.731107 455.326801,164.374521" id="Fill-55" fill="#F7F9F8" sketch:type="MSShapeGroup"></path>
                <path d="M558.585167,152.014065 C551.561874,154.643721 543.199893,156.059196 544.298688,166.203075 C546.711539,165.828327 549.37071,165.413964 552.02988,165.000671 C547.244873,169.992307 540.564284,169.121822 534.183561,172.235438 C538.057189,162.380651 541.519572,153.697216 544.858795,144.967741 C545.485301,143.328489 546.253173,142.203176 548.045944,141.798448 C552.686372,140.750226 557.306452,139.609923 562.021847,138.48461 C562.556252,141.474024 560.595341,141.678529 558.941794,141.769539 C552.632825,142.119661 550.060402,145.93459 549.368568,152.197156 C552.135904,151.674651 554.785435,151.17356 557.434967,150.673539 C557.818367,151.120024 558.201767,151.56758 558.585167,152.014065" id="Fill-57" fill="#F7F9F8" sketch:type="MSShapeGroup"></path>
                <path d="M497.735475,179.753301 C492.707363,183.056432 486.591165,182.945079 479.817403,185.26423 C483.764926,175.171745 487.269076,166.204574 490.781794,157.241685 C491.210174,156.147422 492.091566,155.676311 493.209639,155.408634 C498.006426,154.259766 502.78822,153.052008 507.919143,152.405301 C503.906292,156.995422 493.851138,155.138816 495.291566,165.12316 C497.569478,166.339483 500.189023,163.760149 503.58929,165.025725 C496.890495,168.049402 488.648461,169.589079 489.680857,179.725463 C492.072289,179.317523 494.712182,178.866756 497.352075,178.415988 C497.479518,178.861402 497.608032,179.307887 497.735475,179.753301" id="Fill-59" fill="#F7F9F8" sketch:type="MSShapeGroup"></path>
                <path d="M518.222651,164.514141 C526.392932,158.235515 526.54929,145.966283 538.890924,145.146121 C530.96589,155.72899 523.456386,165.757232 515.25826,176.706283 C514.263347,168.300162 513.599357,161.10501 512.480214,153.981596 C511.997216,150.908667 513.787845,150.840141 515.711272,150.395798 C518.896278,149.660222 518.15411,152.043616 518.195877,153.617556 C518.283695,156.932465 518.222651,160.250586 518.222651,164.514141" id="Fill-61" fill="#F7F9F8" sketch:type="MSShapeGroup"></path>
                <path d="M464.095422,186.253564 C467.339331,185.602574 470.582169,184.952655 473.826078,184.301665 C473.943882,184.758857 474.061687,185.214978 474.179491,185.671099 C468.122195,189.07916 461.205997,189.691604 453.768246,191.456129 C457.527282,181.911846 460.991807,173.235907 464.351379,164.520352 C465.690067,161.048048 468.890067,161.840372 472.383507,160.563018 C469.099973,169.297846 466.112021,177.247846 463.126212,185.198917 C463.010549,185.499786 462.893815,185.798513 462.777082,186.09724 C463.216171,186.148634 463.656332,186.201099 464.095422,186.253564" id="Fill-63" fill="#F7F9F8" sketch:type="MSShapeGroup"></path>
                <path d="M559.396948,164.568962 C562.927871,155.490436 566.31743,146.560739 569.891191,137.704921 C571.215957,134.421063 574.141794,135.239083 577.319304,135.569931 C574.229612,143.640921 571.227738,151.483851 568.161606,159.49381 C572.399357,160.505628 575.668969,157.339547 579.47834,158.127588 C577.625596,161.047406 569.25826,163.738093 559.396948,164.568962" id="Fill-65" fill="#F7F9F8" sketch:type="MSShapeGroup"></path>
                <path d="M266.400643,345.036853 C266.884712,344.267014 267.471593,343.839802 268.37012,344.44261 C267.972798,344.91158 267.574404,345.380549 267.178153,345.849519 C266.918983,345.57863 266.659813,345.307741 266.400643,345.036853" id="Fill-67" fill="#F7F9F8" sketch:type="MSShapeGroup"></path>
                <path d="M397.229237,34.4531051 C390.734993,49.0864586 386.693226,63.2165798 383.85842,77.6936101 C383.28332,80.6273475 382.064578,82.1927212 379.038072,83.1317313 C371.422544,85.4937111 363.946238,88.3128828 356.451727,91.0517515 C354.638608,91.7145192 353.371673,92.6406808 352.976493,89.5356303 C351.826292,80.5031455 349.143561,71.8721758 345.152129,63.6812667 C344.023347,61.3653273 345.520535,60.4905596 346.996305,59.4337717 C362.094565,48.6271253 378.366586,40.1985192 397.229237,34.4531051" id="Fill-69" fill="#71253D" sketch:type="MSShapeGroup"></path>
                <path d="M455.330977,25.3978141 C444.558286,33.8467636 435.505542,43.3053899 430.000857,55.8305212 C427.841821,60.743996 426.222544,65.7902384 425.235127,71.0152889 C424.848514,73.058198 424.434056,74.180299 422.096171,74.3323394 C414.846908,74.8045212 407.659759,75.8784404 400.604337,77.5926424 C397.007015,78.4674101 396.627898,76.768198 397.171941,74.056097 C399.895368,60.4698949 403.351325,47.1117535 409.445033,34.5630667 C411.152129,31.0479354 413.796305,29.7159758 417.664578,28.8604808 C430.035127,26.1248242 442.600589,26.1430263 455.330977,25.3978141" id="Fill-71" fill="#71253D" sketch:type="MSShapeGroup"></path>
                <path d="M285.60332,132.986315 C289.982436,122.087588 295.731299,112.744598 302.090602,103.810618 C310.149505,92.4878909 319.283641,82.0816889 329.776814,72.8853859 C332.78083,70.2525172 334.267309,70.1218909 336.273199,74.0406788 C340.062222,81.4435475 339.454993,89.2308 339.365033,97.038396 C339.345756,98.6926384 338.235181,99.5031636 336.891138,100.203406 C319.343614,109.351527 303.04589,120.395871 287.596359,132.726133 C287.367175,132.909224 286.923802,132.82678 285.60332,132.986315" id="Fill-73" fill="#71253D" sketch:type="MSShapeGroup"></path>
                <path d="M616.654244,304.673444 C613.917965,303.517081 614.581954,302.013808 616.015957,300.148636 C627.418367,285.320414 641.823722,275.549141 660.565355,272.194616 C674.139652,269.765182 687.10672,272.98801 700.264418,274.94098 C705.285033,275.686192 710.324926,276.299707 716.10913,277.074899 C707.909933,282.67898 699.681821,286.881505 690.964284,289.607525 C657.437108,300.09296 643.282356,325.732111 637.151165,357.624192 C635.101365,368.283081 633.952236,379.145404 635.601499,390.031283 C636.135904,393.561404 634.697617,393.425424 632.048086,392.766939 C624.420776,390.871788 618.638715,386.350192 613.845141,380.389566 C607.574726,372.595889 603.694672,363.646919 600.82988,352.869182 C603.977403,355.895 604.660669,359.004333 606.131084,361.624354 C610.557323,369.515465 615.555448,376.94403 623.335904,381.966717 C624.746345,382.876818 626.485569,384.521424 628.156252,383.388616 C629.533494,382.453889 628.595341,380.393848 628.578206,378.842394 C628.283695,352.21498 634.639786,327.748253 651.825328,306.749545 C652.761339,305.60496 653.32573,304.155222 654.208193,302.590919 C640.609264,306.375869 623.881017,333.506515 619.547952,358.767707 C613.645944,352.326333 611.659331,344.803545 610.219973,337.001303 C609.558126,333.415505 609.51743,331.001061 613.613815,328.626232 C619.356252,325.295263 619.787845,318.667586 619.912075,312.48104 C633.341794,294.434273 650.316359,281.318111 672.327604,275.145485 C665.138313,274.01803 658.591593,275.918535 652.132691,278.246253 C637.640589,283.46702 626.403106,293.076616 616.654244,304.673444" id="Fill-75" fill="#F9B60D" sketch:type="MSShapeGroup"></path>
                <path d="M653.327229,345.050022 C680.145971,360.672709 708.216653,366.06479 738.648782,361.906164 C725.279036,376.824325 700.58506,381.948729 679.895368,374.27176 C666.500991,369.300467 655.778635,361.561396 653.327229,345.050022" id="Fill-77" fill="#F9B60D" sketch:type="MSShapeGroup"></path>
                <path d="M655.627095,327.688186 C659.34008,319.858105 659.329371,319.898792 667.131245,321.927782 C694.254137,328.979459 721.384525,335.999014 748.510629,343.035701 C749.713307,343.347277 750.885997,343.837661 752.104739,344.008974 C755.837001,344.532549 755.409692,347.131156 754.939545,349.650529 C754.439411,352.333721 752.743025,352.948307 750.183454,352.291964 C719.1034,344.323762 688.012637,336.4016 656.927229,328.453741 C656.598447,328.369156 656.316787,328.101479 655.627095,327.688186" id="Fill-79" fill="#F9B60D" sketch:type="MSShapeGroup"></path>
                <path d="M616.654244,304.673444 C626.403106,293.076616 637.640589,283.46702 652.132691,278.246253 C658.591593,275.918535 665.138313,274.01803 672.327604,275.145485 C650.316359,281.318111 633.341794,294.434273 619.912075,312.48104 C618.826131,309.879222 617.740187,307.276333 616.654244,304.673444" id="Fill-81" fill="#F7F9F8" sketch:type="MSShapeGroup"></path>
                <path d="M647.193574,356.428962 C662.714859,381.133386 686.632396,386.285628 714.787684,384.613184 C707.405622,388.399204 700.767871,388.297487 694.238286,387.913103 C680.744311,387.117568 667.997858,383.78981 656.921017,375.55179 C654.049799,373.415729 651.618742,370.861022 649.302276,368.140356 C646.322892,364.642356 644.9917,360.959123 647.193574,356.428962" id="Fill-83" fill="#F9B60D" sketch:type="MSShapeGroup"></path>
                <path d="M755.383133,362.126836 C757.603213,356.926412 761.01419,352.487261 761.354752,346.755766 C761.441499,345.292109 762.255422,344.498715 763.568407,344.151806 C766.878715,343.277038 770.199732,342.439745 775.023293,341.199867 C769.8249,345.792129 765.467202,348.784756 763.867202,354.435947 C762.767336,358.321543 759.461312,360.903018 755.383133,362.126836" id="Fill-85" fill="#F9B60D" sketch:type="MSShapeGroup"></path>
                <path d="M277.128889,269.853515 C273.82822,277.515495 270.546827,285.18497 267.207604,292.829818 C266.585382,294.254929 266.048835,295.702525 264.133976,296.188626 C259.380027,297.397455 254.683909,298.837556 248.670522,300.553899 C256.318179,287.414182 263.367175,275.622485 275.99261,268.777455 C276.371727,269.136141 276.749772,269.494828 277.128889,269.853515" id="Fill-87" fill="#041F45" sketch:type="MSShapeGroup"></path>
                <path d="M644.127979,191.375612 C647.083802,183.241451 649.672289,174.943471 653.166801,167.047006 C654.681124,163.627168 659.382597,164.329552 662.65328,163.349855 C664.306827,162.854117 666.640428,160.855107 667.976975,162.802723 C669.007229,164.303855 667.370817,166.487026 666.624364,168.281531 C662.254886,178.781956 655.421151,187.038178 645.325301,192.314622 C644.925837,192.001976 644.527443,191.688259 644.127979,191.375612" id="Fill-89" fill="#041F45" sketch:type="MSShapeGroup"></path>
                <path d="M432.371191,230.34603 C428.894886,238.304596 425.393949,246.251384 421.967979,254.230293 C421.36075,255.644697 420.526479,256.685424 419.052851,257.093364 C414.47668,258.362152 409.888728,259.591323 403.777885,261.250919 C411.509076,247.97201 418.655529,236.301303 431.234913,229.368475 C431.614029,229.69397 431.992075,230.020535 432.371191,230.34603" id="Fill-91" fill="#041F45" sketch:type="MSShapeGroup"></path>
                <path d="M609.933387,132.081889 C609.720268,135.238333 605.227631,141.300677 601.863775,141.600475 C600.955609,141.681848 599.768996,142.291081 599.558019,140.513707 C599.178902,137.30801 604.310897,129.453303 607.282784,129.046434 C608.458688,128.884758 610.315716,128.109566 609.933387,132.081889" id="Fill-93" fill="#041F45" sketch:type="MSShapeGroup"></path>
                <path d="M657.847282,137.335313 C660.871647,129.617657 663.504043,122.366828 666.603373,115.321576 C667.516894,113.245475 670.515556,113.069879 672.342597,113.757273 C674.671914,114.634182 672.58249,116.525051 672.132691,117.760646 C670.437376,122.427859 668.240857,126.921616 666.68905,131.631657 C665.364284,135.654303 662.701901,137.077273 657.847282,137.335313" id="Fill-95" fill="#041F45" sketch:type="MSShapeGroup"></path>
                <path d="M464.095422,186.253564 C463.656332,186.201099 463.216171,186.148634 462.777082,186.09724 C462.893815,185.798513 463.010549,185.499786 463.126212,185.198917 C463.447497,185.550109 463.771995,185.901301 464.095422,186.253564" id="Fill-97" fill="#041F45" sketch:type="MSShapeGroup"></path>
            </g>
        </g>
    </g>
</svg>