<?xml version="1.0" encoding="UTF-8" standalone="no"?>
<svg width="800px" height="800px" viewBox="0 0 800 800" version="1.1" xmlns="http://www.w3.org/2000/svg" xmlns:xlink="http://www.w3.org/1999/xlink" xmlns:sketch="http://www.bohemiancoding.com/sketch/ns">
    <!-- Generator: Sketch 3.4.4 (17249) - http://www.bohemiancoding.com/sketch -->
    <title>clippers</title>
    <desc>Created with Sketch.</desc>
    <defs>
        <path id="path-1" d="M0,0.323212045 L799.519197,0.323212045 L799.519197,800 L0,800"></path>
    </defs>
    <g id="Page-1" stroke="none" stroke-width="1" fill="none" fill-rule="evenodd" sketch:type="MSPage">
        <g id="clippers" sketch:type="MSArtboardGroup">
            <g id="Page-1" sketch:type="MSLayerGroup">
                <g id="Group-3">
                    <mask id="mask-2" sketch:name="Clip 2" fill="white">
                        <use xlink:href="#path-1"></use>
                    </mask>
                    <g id="Clip-2"></g>
                    <path d="M110.76537,382.500176 C134.503388,382.500176 158.242409,382.455006 181.980427,382.555383 C185.061982,382.569435 186.149059,382.210088 185.845922,378.540326 C184.447679,361.574705 182.486324,344.712472 179.110665,328.010841 C168.28005,274.430916 146.099875,225.975207 113.58394,182.140828 C111.691844,179.58926 110.528482,178.990013 108.277039,182.032422 C65.1473024,240.329034 40.8311167,305.492396 36.2529486,377.965169 C36.017064,381.698168 36.7267252,382.631669 40.5540778,382.599548 C63.9558344,382.400803 87.361606,382.500176 110.76537,382.500176 M688.477792,178.798294 C669.621079,203.351368 654.272522,229.40808 642.257465,257.420125 C625.76261,295.872321 616.405521,336.018871 613.626098,377.750364 C613.357089,381.800552 614.624843,382.598545 618.458218,382.587503 C664.766876,382.452999 711.076537,382.500176 757.386198,382.500176 C763.596487,382.500176 763.693852,382.491142 763.186951,376.302936 C761.209536,352.186499 757.592974,328.345094 751.201004,304.962409 C738.622836,258.944843 717.782685,217.051744 688.477792,178.798294 M110.96813,621.410088 C112.416562,619.517992 113.625094,617.992271 114.778419,616.426399 C157.488582,558.406826 181.145295,493.457265 185.828858,421.552622 C186.037641,418.3466 185.071016,418.01335 182.407026,418.016361 C134.907905,418.073576 87.4087829,418.097666 39.9096612,417.980226 C36.5199498,417.971192 36.1385194,419.219875 36.2870765,422.070565 C36.8120452,432.081104 37.9633626,442.010339 39.3435383,451.935558 C46.0396487,500.077089 62.2002509,544.85601 87.038394,586.545345 C94.1972396,598.560402 101.939272,610.201054 110.96813,621.410088 M688.627353,621.752371 C693.905144,614.239197 699.031368,607.243965 703.838394,600.033927 C712.716688,586.716989 720.565119,572.797792 727.574404,558.401807 C748.300125,515.834178 759.700878,470.814354 763.282309,423.691644 C763.630615,419.112472 762.368883,417.925019 757.724467,417.943087 C711.583438,418.131794 665.440402,418.157892 619.299373,417.921004 C614.118946,417.893902 613.248683,419.507955 613.654203,424.103187 C615.16788,441.214354 617.179423,458.249235 620.766876,475.058269 C632.241907,528.828908 654.775408,577.503438 688.627353,621.752371 M381.859975,711.945596 C381.859975,696.052999 382.021581,680.15739 381.750565,664.268808 C381.680301,660.170439 382.96813,659.334304 386.745295,659.454755 C395.26926,659.726775 403.819322,659.814103 412.33325,659.425646 C416.655458,659.228908 417.463488,660.596035 417.440402,664.66931 C417.259724,696.285872 417.350063,727.904442 417.324969,759.522008 C417.322961,762.145847 416.912422,764.154379 421.08808,763.855257 C452.974655,761.573701 484.206775,755.987754 514.532497,745.795533 C571.411794,726.678846 620.60527,695.407578 662.230364,652.166424 C664.590213,649.714228 664.129486,648.470565 662.29059,646.162911 C657.817817,640.549862 653.544793,634.764166 649.446424,628.871066 C607.172898,568.075082 583.189962,500.849987 578.46926,426.842459 C575.728984,383.879348 579.241154,341.499423 590.081807,299.798043 C603.889586,246.677842 627.74404,198.500176 661.474529,155.202811 C663.170891,153.024642 665.542785,151.416612 662.212296,147.988758 C626.732246,111.461782 585.727478,83.0642911 538.686073,63.5250188 C501.121205,47.9215056 461.936261,39.2339272 421.367127,36.5468507 C417.911167,36.3179925 417.264743,37.2685571 417.275784,40.4765872 C417.384191,72.0941531 417.282811,103.712723 417.422334,135.329285 C417.43739,138.80532 416.602258,139.867302 413.051945,139.754881 C404.52798,139.486876 395.978921,139.406575 387.462986,139.774956 C382.974153,139.968683 381.705395,138.802309 381.740527,134.150866 C381.971393,102.868557 381.838896,71.5842409 381.898118,40.3009285 C381.903137,37.6429611 381.916186,36.2748306 378.289586,36.5197491 C346.551568,38.6597742 315.513174,44.3290339 285.322961,54.3937767 C228.38143,73.3759598 179.220075,104.686374 137.468507,147.766926 C135.132748,150.176964 134.925972,151.619373 137.017817,154.260276 C142.095859,160.671317 147.006274,167.233927 151.654705,173.963162 C187.11468,225.291644 209.201506,281.910966 218.043664,343.627403 C222.418068,374.162911 222.735257,404.85601 220.285069,435.602309 C217.743538,467.489887 211.129737,498.529285 200.86123,528.772698 C186.321706,571.594279 164.932497,610.749109 136.97867,646.302434 C135.418821,648.285872 134.474279,649.597792 136.863237,652.03995 C156.211794,671.824141 177.197491,689.604818 200.352321,704.783739 C254.372898,740.194529 313.720452,759.523011 378.099875,763.797039 C381.477541,764.020878 381.942284,763.090389 381.919197,760.124266 C381.79473,744.066048 381.859975,728.004818 381.859975,711.945596 M0.00301129235,399.992773 C-0.803011292,181.847729 178.654956,-3.48828105 407.057465,0.383237139 C624.731744,4.07207026 801.16537,183.315232 799.508156,403.585245 C797.877039,620.346098 620.425596,802.07458 395.64266,799.981731 C175.474028,797.933049 -0.716687578,617.553626 0.00301129235,399.992773" id="Fill-1" fill="#1E1E1E" sketch:type="MSShapeGroup" mask="url(#mask-2)"></path>
                </g>
                <path d="M310.472572,399.060678 C310.472572,452.905596 310.518745,506.750514 310.384241,560.594429 C310.374203,564.881506 311.071819,566.457415 315.923011,566.439348 C371.941079,566.238595 427.960151,566.268708 483.978218,566.401205 C487.965169,566.410238 489.42665,565.732698 489.299172,561.333199 C488.952873,549.303087 488.991016,537.251895 489.283112,525.21877 C489.385496,521.044115 488.234178,519.985144 484.067553,520.002208 C444.270314,520.167829 404.470063,519.979122 364.673827,520.24813 C359.406073,520.284266 358.572949,518.748507 358.580979,513.928432 C358.729536,421.957541 358.659272,329.98665 358.788758,238.015759 C358.79478,233.707604 357.921506,232.31739 353.360402,232.445872 C340.828407,232.801205 328.273325,232.820276 315.743338,232.441857 C311.100928,232.30133 310.367177,233.812999 310.378218,238.027804 C310.521757,291.705094 310.472572,345.383388 310.472572,399.060678 M489.042208,370.067955 L489.179724,370.067955 C489.179724,326.082008 489.127528,282.09606 489.266048,238.111117 C489.279097,233.991669 488.692898,232.408733 483.949109,232.441857 C448.661782,232.680753 413.371443,232.677742 378.084115,232.439849 C373.398545,232.407729 372.630665,233.973601 372.632673,238.08803 C372.651744,272.367578 372.503187,306.646123 372.358645,340.925671 C372.328532,347.940979 372.004316,354.955282 371.987252,361.97059 C371.866801,409.298068 371.81862,456.625546 371.63995,503.953024 C371.627905,507.015508 372.436939,507.940979 375.558645,507.899824 C388.601556,507.728181 401.649486,507.717139 414.692396,507.901832 C418.123262,507.951016 418.870063,506.732447 418.843965,503.548507 C418.733551,490.004718 418.828908,476.457917 418.928281,462.913124 C419.01862,450.710364 419.368934,438.507604 419.26655,426.307854 C419.235433,422.49054 420.801305,421.8933 424.019373,422.044868 C428.524266,422.256662 433.062284,422.324918 437.559147,422.028808 C441.257014,421.786901 442.297917,422.808733 442.255759,426.724417 C441.975709,452.474981 442.075082,478.230565 441.899423,503.984141 C441.878344,507.092798 442.772698,507.939975 445.851242,507.897817 C458.393275,507.728181 470.945345,507.57059 483.47734,507.956035 C488.356637,508.1066 489.145596,506.383137 489.131543,502.019774 C488.984994,458.035834 489.042208,414.051895 489.042208,370.067955 M249.531041,399.832572 C249.531041,461.059172 249.52,522.284768 249.55212,583.510364 C249.555132,588.347503 249.710715,593.195684 250.052999,598.019774 C251.235433,614.682258 259.412095,622.366073 276.177967,622.374103 C358.481606,622.414253 440.785245,622.414253 523.088883,622.375107 C540.442961,622.367077 549.406575,613.500828 549.44271,596.120652 C549.537064,550.619021 549.444718,505.118394 549.542083,459.616763 C549.549109,456.420778 548.800301,455.345747 545.431669,455.396939 C532.38675,455.593676 519.332798,455.670966 506.291895,455.364818 C502.019875,455.264442 501.127528,456.521154 501.145596,460.623538 C501.313225,498.42931 501.175709,536.236085 501.34133,574.040853 C501.359398,578.244617 500.636688,579.621782 496.003312,579.608733 C431.934053,579.42404 367.863789,579.428055 303.795533,579.597691 C299.02665,579.609737 297.717742,578.552773 297.724768,573.625295 C297.879348,457.865194 297.874329,342.105094 297.732798,226.344994 C297.726775,221.662434 299.01862,220.619523 303.535558,220.629561 C367.603814,220.777114 431.67207,220.788156 495.740326,220.608482 C500.489134,220.595433 501.362409,222.016763 501.342334,226.409235 C501.172698,264.381631 501.243965,302.356035 501.24798,340.329435 C501.24798,342.590916 500.598545,344.882509 504.521255,344.819272 C518.402309,344.59744 532.289385,344.669711 546.172447,344.789159 C548.842459,344.812246 549.529034,343.941982 549.525019,341.361305 C549.436688,294.856913 549.583237,248.351518 549.32527,201.84813 C549.248984,188.086524 542.332045,180.933701 528.690891,178.479498 C525.695659,177.941481 522.722509,177.823036 519.718243,177.823036 C439.924015,177.818018 360.129787,177.818018 280.334555,177.827051 C277.99478,177.827051 275.63995,177.785897 273.316236,178.007729 C259.512472,179.328683 251.840703,186.008733 250.424391,198.152271 C249.864291,202.951267 249.572196,207.810489 249.567177,212.64261 C249.51197,275.039598 249.531041,337.436587 249.531041,399.832572 M381.860276,711.944994 C381.860276,728.00522 381.795031,744.065445 381.919498,760.124668 C381.941581,763.09079 381.477842,764.020276 378.099172,763.796437 C313.720753,759.523413 254.373199,740.194931 200.352622,704.784141 C177.197792,689.60522 156.212095,671.824542 136.863538,652.040351 C134.47458,649.598193 135.419122,648.286274 136.977967,646.301832 C164.932798,610.748507 186.322008,571.59468 200.861531,528.772095 C211.130038,498.529686 217.743839,467.490289 220.28537,435.601706 C222.735558,404.856412 222.418369,374.163312 218.042961,343.627804 C209.200803,281.910364 187.114981,225.291041 151.655006,173.96256 C147.006575,167.234329 142.096161,160.670715 137.018118,154.260678 C134.92527,151.61877 135.133049,150.176361 137.468808,147.766324 C179.220376,104.686775 228.380728,73.3763614 285.323262,54.3931744 C315.513476,44.3284316 346.55187,38.6601757 378.288883,36.5191468 C381.916487,36.2752321 381.902434,37.6433626 381.898419,40.30133 C381.839197,71.5846424 381.97069,102.868959 381.739824,134.150263 C381.705696,138.80271 382.974454,139.969084 387.463287,139.775358 C395.979222,139.406976 404.528281,139.487277 413.051242,139.755282 C416.60256,139.8667 417.437691,138.804718 417.422635,135.329686 C417.283112,103.71212 417.384492,72.0935508 417.276085,40.4759849 C417.265044,37.2679548 417.911468,36.318394 421.367428,36.5472522 C461.936562,39.233325 501.121506,47.9219072 538.686374,63.5254203 C585.727779,83.0646926 626.732547,111.462183 662.212597,147.988156 C665.543087,151.417014 663.171192,153.025044 661.473827,155.203212 C627.744341,198.499573 603.889887,246.678243 590.082108,299.79744 C579.241455,341.498821 575.729285,383.879749 578.469561,426.841857 C583.190263,500.849385 607.173199,568.074479 649.446725,628.870464 C653.545094,634.764567 657.818118,640.550263 662.290891,646.162309 C664.129787,648.470966 664.590514,649.71463 662.229661,652.166826 C620.605571,695.40798 571.412095,726.679247 514.532798,745.794931 C484.207077,755.987152 452.974956,761.574103 421.088381,763.855659 C416.912723,764.153777 417.322258,762.145245 417.324266,759.522409 C417.350364,727.904843 417.260025,696.286274 417.440703,664.668708 C417.463789,660.596437 416.655759,659.228306 412.333551,659.426048 C403.819624,659.814504 395.268557,659.727177 386.745596,659.454153 C382.968432,659.333701 381.680602,660.170841 381.749862,664.26921 C382.020878,680.156788 381.860276,696.052396 381.860276,711.944994" id="Fill-4" fill="#FDFDFD" sketch:type="MSShapeGroup"></path>
                <path d="M688.627453,621.75207 C654.775508,577.503137 632.242008,528.828607 620.766976,475.057967 C617.179523,458.248934 615.16798,441.215056 613.654304,424.102886 C613.247779,419.507654 614.119046,417.894605 619.299473,417.920703 C665.440502,418.157591 711.583538,418.131493 757.724567,417.943789 C762.368984,417.924718 763.630715,419.113174 763.282409,423.691343 C759.700979,470.814053 748.299222,515.833877 727.574504,558.402509 C720.56522,572.797491 712.716788,586.716688 703.838494,600.03463 C699.031468,607.243664 693.905245,614.238896 688.627453,621.75207" id="Fill-6" fill="#FDFDFD" sketch:type="MSShapeGroup"></path>
                <path d="M110.96793,621.409987 C101.939072,610.200954 94.1970389,598.560301 87.0381932,586.545245 C62.2000502,544.85591 46.0394479,500.076989 39.3433375,451.936462 C37.9631619,442.010238 36.8118444,432.081004 36.2878795,422.070464 C36.1383187,419.219774 36.5207528,417.971092 39.9094605,417.980125 C87.4085822,418.097566 134.907704,418.073476 182.407829,418.016261 C185.071819,418.01325 186.03744,418.346499 185.828657,421.552522 C181.145094,493.457164 157.488381,558.406725 114.778218,616.426299 C113.625897,617.992171 112.417365,619.517892 110.96793,621.409987" id="Fill-8" fill="#FDFDFD" sketch:type="MSShapeGroup"></path>
                <path d="M688.477992,178.798595 C717.781882,217.051041 738.623036,258.945144 751.201205,304.961706 C757.593174,328.345395 761.209737,352.186801 763.187152,376.303237 C763.694053,382.490439 763.596688,382.499473 757.386399,382.500477 C711.076738,382.500477 664.767077,382.4533 618.458419,382.586801 C614.625044,382.598846 613.356286,381.800853 613.626299,377.750665 C616.405721,336.018168 625.762811,295.872622 642.256662,257.419423 C654.272723,229.408381 669.62128,203.350665 688.477992,178.798595" id="Fill-10" fill="#FEFEFE" sketch:type="MSShapeGroup"></path>
                <path d="M110.76537,382.500176 C87.361606,382.500176 63.9558344,382.400803 40.5540778,382.599548 C36.7267252,382.631669 36.017064,381.698168 36.2529486,377.965169 C40.8311167,305.492396 65.1473024,240.329034 108.277039,182.032422 C110.528482,178.990013 111.691844,179.58926 113.58394,182.140828 C146.099875,225.975207 168.28005,274.430916 179.110665,328.010841 C182.486324,344.712472 184.447679,361.574705 185.845922,378.540326 C186.149059,382.210088 185.061982,382.569435 181.980427,382.555383 C158.242409,382.455006 134.503388,382.500176 110.76537,382.500176" id="Fill-12" fill="#FEFEFE" sketch:type="MSShapeGroup"></path>
                <path d="M249.530841,399.833074 C249.530841,337.436085 249.511769,275.039097 249.56798,212.643112 C249.571995,207.810991 249.86409,202.951769 250.424191,198.151769 C251.840502,186.008231 259.513275,179.329184 273.316035,178.008231 C275.640753,177.785395 277.99458,177.82655 280.335358,177.82655 C360.129586,177.818519 439.923814,177.818519 519.718043,177.822535 C522.722309,177.822535 525.695458,177.940979 528.69069,178.48 C542.331844,180.934203 549.248783,188.086023 549.325069,201.848632 C549.583036,248.351016 549.437491,294.856412 549.524818,341.361807 C549.529837,343.942484 548.843262,344.811744 546.172246,344.788657 C532.289184,344.66921 518.402108,344.596939 504.521054,344.819774 C500.598344,344.882008 501.247779,342.591418 501.247779,340.328934 C501.243764,302.355533 501.172497,264.382133 501.342133,226.409737 C501.362208,222.016261 500.488934,220.594931 495.740125,220.608984 C431.67187,220.787654 367.603614,220.777616 303.535358,220.630063 C299.018419,220.619021 297.727578,221.662936 297.732597,226.344492 C297.874128,342.104592 297.879147,457.865696 297.724567,573.625797 C297.717541,578.552271 299.026449,579.610238 303.795332,579.597189 C367.864592,579.428557 431.933852,579.424542 496.003112,579.608231 C500.637491,579.622284 501.359197,578.245119 501.341129,574.041355 C501.176512,536.235583 501.313024,498.428808 501.145395,460.62404 C501.127327,456.520652 502.019674,455.264944 506.291694,455.36532 C519.332597,455.671468 532.38655,455.594178 545.431468,455.396437 C548.8001,455.346248 549.548908,456.420276 549.541882,459.617265 C549.444517,505.117892 549.536863,550.619523 549.442509,596.120151 C549.406374,613.50133 540.44276,622.366575 523.088683,622.375609 C440.785044,622.414755 358.481405,622.414755 276.17877,622.374605 C259.411895,622.366575 251.235232,614.68276 250.052798,598.020276 C249.710514,593.195182 249.554931,588.348005 249.55192,583.510866 C249.519799,522.284266 249.530841,461.05867 249.530841,399.833074" id="Fill-14" fill="#0147AE" sketch:type="MSShapeGroup"></path>
                <path d="M419.37074,327.374354 C419.37074,342.075483 419.444015,356.777616 419.312522,371.477742 C419.284417,374.605471 419.935859,375.997691 423.434981,375.777867 C428.427704,375.463689 433.456562,375.606223 438.465345,375.737716 C440.878394,375.800954 442.032723,375.331192 442.023689,372.500577 C441.930339,342.429812 441.928331,312.358043 442.025696,282.287277 C442.03473,279.444617 440.881405,279.002961 438.473375,279.067202 C433.465596,279.200703 428.436738,279.338218 423.444015,279.026048 C419.996085,278.811242 419.274379,280.099072 419.304492,283.270966 C419.44803,297.971092 419.367729,312.673225 419.37074,327.374354 M489.042008,370.067453 C489.042008,414.051393 488.984793,458.036336 489.131343,502.019272 C489.145395,506.383639 488.356437,508.106098 483.477139,507.956537 C470.945144,507.571092 458.393074,507.728683 445.852045,507.898319 C442.772497,507.939473 441.878143,507.092296 441.899222,503.983639 C442.074881,478.231066 441.975508,452.475483 442.255558,426.723915 C442.29872,422.809235 441.256813,421.786399 437.558946,422.02931 C433.062083,422.324417 428.525069,422.256161 424.019172,422.044366 C420.801104,421.893802 419.235232,422.490038 419.267353,426.308356 C419.368733,438.508105 419.018419,450.710866 418.929084,462.913626 C418.828708,476.458419 418.734354,490.00522 418.843764,503.549009 C418.869862,506.731945 418.123061,507.950514 414.692196,507.902334 C401.649285,507.716637 388.601355,507.727679 375.558444,507.900326 C372.436738,507.941481 371.627704,507.01601 371.639749,503.953526 C371.818419,456.626048 371.8666,409.297566 371.987051,361.970088 C372.005119,354.95478 372.328331,347.940477 372.358444,340.925169 C372.502986,306.646625 372.651543,272.367077 372.632472,238.088532 C372.630464,233.973099 373.398344,232.408231 378.083915,232.439348 C413.371242,232.678243 448.661581,232.681255 483.948908,232.441355 C488.692698,232.409235 489.278896,233.991167 489.265847,238.110615 C489.127327,282.096562 489.179523,326.082509 489.179523,370.067453 L489.042008,370.067453" id="Fill-16" fill="#D6083C" sketch:type="MSShapeGroup"></path>
                <path d="M310.472572,399.060678 C310.472572,345.383388 310.521757,291.705094 310.378218,238.027804 C310.367177,233.812999 311.100928,232.30133 315.743338,232.441857 C328.273325,232.820276 340.828407,232.801205 353.360402,232.445872 C357.921506,232.31739 358.79478,233.707604 358.788758,238.015759 C358.659272,329.98665 358.729536,421.957541 358.580979,513.928432 C358.572949,518.748507 359.406073,520.284266 364.673827,520.24813 C404.470063,519.979122 444.270314,520.167829 484.067553,520.002208 C488.234178,519.985144 489.385496,521.044115 489.283112,525.21877 C488.991016,537.251895 488.952873,549.303087 489.299172,561.333199 C489.42665,565.732698 487.965169,566.410238 483.978218,566.401205 C427.960151,566.268708 371.941079,566.238595 315.923011,566.439348 C311.071819,566.457415 310.374203,564.881506 310.384241,560.594429 C310.518745,506.750514 310.472572,452.905596 310.472572,399.060678" id="Fill-18" fill="#D6083C" sketch:type="MSShapeGroup"></path>
                <path d="M419.369435,327.374354 C419.368432,312.673225 419.447729,297.971092 419.305194,283.270966 C419.274078,280.099072 419.995784,278.811242 423.443714,279.026048 C428.436437,279.338218 433.465295,279.200703 438.474078,279.067202 C440.881104,279.002961 442.034429,279.444617 442.025395,282.287277 C441.929034,312.358043 441.930038,342.429812 442.023388,372.500577 C442.032422,375.331192 440.878093,375.800954 438.465044,375.737716 C433.456261,375.606223 428.427403,375.463689 423.435684,375.777867 C419.935558,375.997691 419.284115,374.605471 419.312221,371.477742 C419.443714,356.777616 419.370439,342.075483 419.369435,327.374354" id="Fill-20" fill="#FDFDFD" sketch:type="MSShapeGroup"></path>
            </g>
        </g>
    </g>
</svg>