<?xml version="1.0" encoding="UTF-8" standalone="no"?>
<svg width="800px" height="800px" viewBox="0 0 800 800" version="1.1" xmlns="http://www.w3.org/2000/svg" xmlns:xlink="http://www.w3.org/1999/xlink" xmlns:sketch="http://www.bohemiancoding.com/sketch/ns">
    <!-- Generator: Sketch 3.4.4 (17249) - http://www.bohemiancoding.com/sketch -->
    <title>grizzlies</title>
    <desc>Created with Sketch.</desc>
    <defs>
        <path id="path-1" d="M0,0 L800,0 L800,746 L0,746"></path>
    </defs>
    <g id="Page-1" stroke="none" stroke-width="1" fill="none" fill-rule="evenodd" sketch:type="MSPage">
        <g id="grizzlies" sketch:type="MSArtboardGroup">
            <g id="Page-1" sketch:type="MSLayerGroup" transform="translate(0.000000, 27.000000)">
                <g id="Group-3">
                    <mask id="mask-2" sketch:name="Clip 2" fill="white">
                        <use xlink:href="#path-1"></use>
                    </mask>
                    <g id="Clip-2"></g>
                    <path d="M462.018642,510.220973 C469.189284,504.230945 473.64433,496.776819 474.31956,487.360772 C474.746716,481.398646 473.300844,476.188394 468.594789,472.252804 C455.686165,461.457831 439.959193,460.905674 424.339376,459.930587 C435.34855,462.820603 446.574972,464.901473 456.213138,471.609599 C464.74745,477.549697 468.173505,485.569197 466.196257,495.660756 C465.228917,500.597867 463.436624,505.373441 462.018642,510.220973 M405.079193,591.39987 C384.709284,591.366095 367.126899,591.733221 349.704514,594.194433 C344.650569,594.908126 336.15589,593.348575 335.821211,599.898103 C335.465982,606.845595 343.812404,607.946973 349.628183,609.49037 C372.368734,615.528859 395.62011,614.277693 418.780477,614.00602 C432.970569,613.838611 447.097541,612.773945 460.596257,607.876485 C464.703413,606.385953 470.055339,604.566477 469.440294,599.478111 C468.836991,594.486666 463.016807,595.23854 459.222312,594.686382 C440.354055,591.934406 421.340477,591.269174 405.079193,591.39987 M402.357725,693.64152 C402.357725,673.301272 402.343046,653.849469 402.369468,634.396197 C402.373872,630.48704 399.765431,630.30054 396.891303,630.27117 C389.311119,630.19187 381.70011,630.475292 374.156624,629.892296 C347.087266,627.801146 325.036624,618.98278 312.850202,591.424835 C300.088367,562.565796 287.242862,533.905004 278.529468,503.486414 C261.910018,445.458481 256.650569,386.91804 270.106716,327.547894 C271.890202,319.678181 271.586349,314.498768 262.870018,312.243146 C261.077725,311.77763 259.495339,310.328217 257.932037,309.173973 C243.285431,298.346693 234.912587,282.843697 233.242128,265.726815 C231.67589,249.686347 222.202128,246.461512 210.093505,243.975335 C206.266716,243.189685 202.345982,242.832839 198.551486,241.931178 C191.871119,240.342256 184.936807,241.10441 178.171303,239.5243 C190.635156,235.49913 203.426349,234.165729 216.302679,233.578327 C256.85167,231.730949 293.907083,240.869449 325.068917,268.430331 C334.577908,276.840453 343.603963,285.801264 353.835156,293.390493 C362.058275,299.489189 370.834789,302.664095 381.261211,300.421689 C388.991119,298.757874 392.693138,294.735642 393.174606,286.510552 C394.991853,255.545678 397.287633,224.607237 399.452771,193.661453 C400.452404,179.371441 401.563596,165.088772 402.748183,149.13054 C406.006899,161.579048 405.476991,172.672126 406.224147,183.578705 C408.675523,219.395516 410.643963,255.246103 413.634055,291.029138 C413.948183,294.788508 415.388183,296.756304 418.605798,298.213059 C429.378642,303.089961 439.581945,301.829985 449.289101,295.513949 C457.314055,290.291949 464.311486,283.78354 471.110752,277.109189 C500.810569,247.947638 536.245431,233.15393 578.021578,233.403575 C595.608367,233.509307 612.95589,235.133473 630.141945,238.737181 C587.424881,211.223292 542.79956,209.046969 495.637725,230.962922 C499.689101,210.004433 505.126165,192.163579 514.572037,175.634099 C523.414606,160.161941 537.986349,151.901607 553.027817,143.98637 C571.090202,134.483681 586.169835,122.403768 594.589651,102.530504 C607.586349,71.8505201 631.559927,54.8334965 664.825248,51.4133508 C674.052404,50.4646972 683.330936,51.2929335 692.605064,51.6556539 C673.911486,41.0163429 653.939376,37.8825555 633.289101,42.907776 C609.849835,48.6114453 593.817541,64.5579295 581.440294,84.3562996 C578.28433,89.4050161 575.452771,90.269965 570.215339,88.1979059 C553.159927,81.4471933 535.100477,79.7804413 517.030752,79.1959768 C479.024147,77.9683075 442.902312,86.9261815 407.869651,100.896059 C404.406899,102.276453 401.479927,102.294075 398.028917,101.271996 C383.743413,97.0427051 369.391853,93.1056461 354.749651,90.1671697 C314.434055,82.072776 274.042128,78.1269059 233.344881,87.0407248 C229.396257,87.9056736 228.173505,86.0436106 226.470752,83.4928193 C219.250202,72.6670083 210.779009,62.8485909 200.74745,54.6029413 C187.03589,43.3321736 171.518826,34.8985555 153.38011,35.8736421 C118.806899,37.7357051 85.874789,62.5181776 87.981211,105.770024 C88.9030459,124.691697 94.1375413,142.321087 102.456073,159.114898 C104.566899,163.375028 104.759193,166.244485 101.375706,170.159516 C90.5059817,182.72991 80.6652477,196.112386 72.1382752,210.425894 C43.8681835,257.886473 28.6667156,308.476433 35.261945,364.288394 C36.514055,374.889524 38.2124037,385.402544 42.5735046,395.952276 C50.3107523,388.941638 54.6380917,379.875095 62.0113028,373.603115 C64.0590092,375.174414 64.1045138,377.181859 64.5654312,379.038048 C74.0993761,417.37628 87.5305688,454.213701 107.072587,488.655993 C120.699009,512.668969 137.107083,534.373457 159.906349,550.557839 C167.096073,555.662359 167.533505,555.292296 168.687266,546.509174 C169.735339,538.53226 169.760294,530.343882 172.433321,521.78691 C201.830752,555.204185 233.064514,584.979571 267.761028,611.02202 C291.259009,628.660221 316.04433,644.048674 342.880294,656.293059 C363.907817,665.886796 384.455339,676.653867 402.357725,693.64152 M280.787083,265.691571 C274.993321,261.848496 268.62855,259.564973 261.723596,258.85128 C258.941945,258.563453 257.038092,258.932048 257.848367,262.780996 C262.95222,287.040681 278.796624,317.362351 313.625248,312.915721 C319.330936,312.187343 318.884697,314.498768 317.377174,318.545965 C305.606165,350.176071 299.758092,383.032378 298.422312,416.633217 C296.166165,473.36593 307.203229,527.825398 327.584881,580.588744 C328.914789,584.032386 330.276991,584.66678 334.008367,583.64617 C350.478092,579.142268 367.099009,575.493036 384.321761,574.838083 C390.202128,574.613402 398.41644,577.350693 401.521028,572.579524 C404.33644,568.251843 402.429651,560.734571 402.288734,554.63 C402.156624,548.870528 403.67589,542.815886 399.88433,537.563048 C391.722862,526.255567 382.712954,515.667654 372.609468,506.05189 C368.622679,502.257276 364.502312,502.771252 361.32433,507.040193 C358.724697,510.536701 356.472954,514.368028 354.594055,518.303619 C352.895706,521.861804 351.558459,522.500603 349.318459,518.895426 C346.362128,514.136004 343.096073,509.554272 340.384881,504.662685 C330.115523,486.133103 336.424514,470.270323 356.534606,463.827996 C369.454972,459.688284 382.752587,458.087615 396.268917,458.648583 C399.966532,458.801307 401.264147,458.19041 401.243596,454.016922 C401.052771,413.66537 401.06745,373.313819 401.208367,332.962268 C401.223046,328.781437 400.034055,327.602229 395.86378,327.731457 C382.338642,328.149981 370.099376,323.672512 358.115523,317.708918 C345.043963,311.203445 334.874422,300.856367 323.107817,292.648898 C309.562128,282.780552 296.354055,272.382075 280.787083,265.691571 M527.109284,265.516819 C511.088734,272.098654 496.864881,281.448619 484.295339,293.344969 C475.000661,300.517142 465.70745,307.690784 455.074055,315.898252 C461.664881,315.898252 466.54855,316.237477 471.360294,315.796926 C475.70378,315.398961 477.970202,317.011378 479.929835,320.803056 C485.576807,331.724319 489.703046,343.285851 493.080661,354.960457 C510.447266,414.97087 510.711486,475.385122 496.499376,536.093075 C493.312587,549.704638 488.600661,562.866839 486.212404,576.465185 C532.091303,491.516638 529.703046,404.023174 498.76433,315.200713 C499.38378,314.82037 499.768367,314.38863 500.185248,314.356323 C530.055339,312.034619 545.513688,289.874894 551.137174,264.480056 C552.120661,260.0393 551.402862,258.785197 546.668917,259.623713 C539.881394,260.826418 533.568,263.359587 527.109284,265.516819 M405.137908,745.999559 L402.202128,745.999559 C397.554789,738.4118 390.651303,732.909315 384.299743,726.951595 C358.378275,702.639044 327.25167,686.312217 296.273321,669.728402 C267.853505,654.514701 240.213138,638.063052 216.26011,616.152973 C209.132037,609.632815 202.144881,602.958465 194.523596,595.821536 C193.836624,599.356225 193.300844,601.905548 192.85167,604.469556 C192.346716,607.352229 191.797725,610.23637 191.483596,613.144008 C190.966899,617.909304 189.170202,618.746351 184.999927,616.108918 C151.730202,595.07113 122.599927,569.416367 98.3180917,538.392752 C73.9702018,507.285433 55.8182752,472.904819 44.674055,433.597374 C40.5977248,437.905965 37.1261651,441.290867 33.9907523,444.963595 C30.6175413,448.912402 28.3643303,449.940355 25.2186422,444.348292 C16.4142385,428.69404 10.1346055,412.101414 6.10231193,394.701111 C3.5467156,383.672646 1.99955963,372.409221 0.000293577982,361.251528 L0.000293577982,323.070426 C3.08286239,317.415217 2.43552294,311.028693 3.45277064,304.982863 C11.8491009,255.105126 33.5738716,210.992737 62.0435963,169.884906 C64.8237798,165.870016 64.7606606,163.674603 62.4502018,159.765445 C58.8685505,153.707867 55.7081835,147.274351 53.3199266,140.657272 C33.5870826,85.9789965 64.0678165,32.9087327 112.161761,10.3363587 C123.283963,5.11582717 135.203229,3.28019724 146.789284,-0.000440551181 L168.807633,-0.000440551181 C171.08433,2.94390984 174.601394,1.63987835 177.469651,2.2948311 C201.823413,7.8531185 221.107083,21.0740594 236.334972,40.5537642 C239.490936,44.59215 242.461945,46.7346972 248.408367,45.8873705 C299.805064,38.5551303 349.515156,45.4277287 397.503413,65.0087602 C400.800294,66.3553783 403.350018,66.045524 406.494239,64.7679256 C455.283963,44.9431224 505.78378,38.4332445 557.912954,46.2383429 C563.157725,47.0239925 565.189284,45.1619295 567.684697,41.5024177 C576.90745,27.9716224 588.803229,17.5848941 603.461578,9.95601614 C612.806165,5.0923311 623.151853,3.9366185 632.660844,-0.000440551181 L660.550752,-0.000440551181 C661.314055,2.35063425 663.388183,1.34030354 664.891303,1.60757126 C696.076624,7.15557913 721.70011,22.1695634 740.026716,48.0357917 C762.707083,80.0477091 764.261578,114.987823 747.363229,149.314103 C740.424514,163.410272 740.911853,173.121489 750.523596,183.903244 C751.008,184.446591 751.408734,185.073642 751.809468,185.686008 C771.212037,215.360067 785.280294,247.348489 794.006899,281.745256 C796.489101,291.529898 796.333505,301.807957 800.000294,311.322394 L800.000294,359.783024 C798.130202,360.840347 798.652771,362.76115 798.463413,364.345666 C795.678826,387.6053 788.838459,409.634327 778.089101,430.400441 C774.673321,436.999898 771.493872,443.890119 765.820477,449.664276 C762.080294,443.013422 758.674789,436.954374 754.98011,430.385756 C739.197358,515.63241 696.68433,580.782587 617.902679,621.451335 L617.902679,592.03867 C616.78855,592.51887 616.26011,592.577611 616.029651,592.869843 C588.543413,627.771776 552.652037,651.705453 513.70011,671.771091 C485.560661,686.266693 456.754789,699.710847 431.808,719.645788 C422.02011,727.46704 411.702312,734.865363 405.137908,745.999559" id="Fill-1" fill="#24375B" sketch:type="MSShapeGroup" mask="url(#mask-2)"></path>
                </g>
                <path d="M114.386936,109.250525 C116.760514,108.771793 118.206385,108.623474 119.558312,108.184391 C125.065835,106.397222 130.749505,106.363446 136.22033,107.588179 C142.102165,108.903958 142.789138,111.722017 138.623266,115.684041 C133.808587,120.261368 129.575193,125.326238 125.871706,130.780261 C121.686752,136.945041 118.442716,143.545966 119.600881,152.260069 C145.862899,129.700911 171.210422,107.382588 204.468404,97.4011669 C207.48345,96.4965685 206.602716,94.7373008 205.02033,93.0764228 C193.44455,80.9201472 180.973358,69.9122417 164.326018,65.4054031 C149.804183,61.4742181 136.65189,64.1057772 124.515376,75.8259071 C140.738495,77.5455252 155.467303,79.6131787 167.790239,92.0954622 C139.00345,86.4564071 123.826936,91.2951276 114.386936,109.250525 M402.357578,693.641667 C384.455193,676.654013 363.90767,665.886943 342.880147,656.293206 C316.044183,644.04882 291.258862,628.660368 267.760881,611.022167 C233.064367,584.97825 201.830606,555.202864 172.434642,521.787057 C169.760147,530.344029 169.735193,538.532407 168.687119,546.50932 C167.533358,555.292443 167.095927,555.662506 159.906202,550.557986 C137.106936,534.373604 120.698862,512.669116 107.07244,488.656139 C87.530422,454.213848 74.0992294,417.376427 64.5652844,379.038194 C64.104367,377.180537 64.0588624,375.173092 62.011156,373.603261 C54.637945,379.875242 50.3106055,388.941785 42.5733578,395.952423 C38.2137248,385.402691 36.5153761,374.889671 35.2617982,364.288541 C28.6665688,308.47658 43.8680367,257.88662 72.1381284,210.426041 C80.6651009,196.112533 90.5073028,182.730057 101.37556,170.159663 C104.759046,166.244631 104.566752,163.373706 102.455927,159.115045 C94.1373945,142.319765 88.9028991,124.691844 87.9810642,105.770171 C85.8746422,62.5183244 118.806752,37.735852 153.379963,35.873789 C171.518679,34.8972339 187.035743,43.3323205 200.748771,54.6030882 C210.778862,62.8487378 219.250055,72.6671551 226.472073,83.4929661 C228.173358,86.0437575 229.39611,87.9058205 233.344734,87.0408717 C274.041982,78.1270528 314.433908,82.0729228 354.750972,90.1673165 C369.391706,93.1057929 383.743266,97.042852 398.028771,101.272143 C401.47978,102.294222 404.406752,102.2766 407.869505,100.896206 C442.902165,86.9263283 479.024,77.9684543 517.030606,79.1961236 C535.10033,79.7805882 553.15978,81.4473402 570.215193,88.1980528 C575.452624,90.2701118 578.284183,89.405163 581.440147,84.3564465 C593.817394,64.5580764 609.849688,48.6115921 633.290422,42.9079228 C653.939229,37.8827024 673.911339,41.0164898 692.604917,51.6558008 C683.330789,51.2930803 674.052257,50.4648441 664.825101,51.4134976 C631.55978,54.8336433 607.586202,71.8506669 594.589505,102.530651 C586.171156,122.403915 571.090055,134.48236 553.02767,143.986517 C537.986202,151.901754 523.414459,160.16062 514.57189,175.634246 C505.126018,192.163726 499.688954,210.00458 495.637578,230.963069 C542.799413,209.047116 587.424734,211.223439 630.141798,238.737328 C612.955743,235.13362 595.609688,233.509454 578.021431,233.403722 C536.245284,233.152608 500.810422,247.947785 471.110606,277.109336 C464.312807,283.783687 457.313908,290.292096 449.288954,295.514096 C439.581798,301.830131 429.378495,303.090108 418.605651,298.213206 C415.388037,296.75645 413.948037,294.788655 413.633908,291.029285 C410.643817,255.24625 408.675376,219.395663 406.224,183.578852 C405.476844,172.672273 406.006752,161.579194 402.749505,149.130687 C401.56345,165.088919 400.452257,179.371588 399.452624,193.6616 C397.287486,224.607383 394.991706,255.545824 393.174459,286.510698 C392.692991,294.73432 388.990972,298.758021 381.261064,300.420368 C370.83611,302.664242 362.058128,299.489336 353.835009,293.390639 C343.603817,285.801411 334.577761,276.8406 325.068771,268.430478 C293.906936,240.869596 256.851523,231.731096 216.302532,233.578474 C203.426202,234.165876 190.635009,235.499277 178.171156,239.524446 C184.936661,241.104557 191.870972,240.342403 198.551339,241.931324 C202.345835,242.832986 206.266569,243.188364 210.093358,243.975482 C222.201982,246.461659 231.675743,249.686494 233.241982,265.726962 C234.91244,282.843844 243.285284,298.34684 257.93189,309.17412 C259.495193,310.328364 261.077578,311.777777 262.869872,312.241824 C271.58767,314.498915 271.890055,319.67686 270.106569,327.548041 C256.650422,386.918187 261.911339,445.457159 278.529321,503.485092 C287.242716,533.905151 300.08822,562.565943 312.850055,591.424982 C325.036477,618.982927 347.088587,627.801293 374.157945,629.892443 C381.699963,630.475439 389.310972,630.192017 396.891156,630.271317 C399.765284,630.300687 402.373725,630.485718 402.369321,634.396344 C402.342899,653.849616 402.357578,673.301419 402.357578,693.641667" id="Fill-4" fill="#6088B8" sketch:type="MSShapeGroup"></path>
                <path d="M323.10767,292.648457 C334.874275,300.855926 345.043817,311.203005 358.115376,317.708477 C370.099229,323.67354 382.338495,328.14954 395.863633,327.732485 C400.033908,327.603257 401.222899,328.780997 401.20822,332.961828 C401.067303,373.313379 401.052624,413.666398 401.24345,454.016481 C401.264,458.191438 399.966385,458.802335 396.268771,458.648143 C382.75244,458.087174 369.454826,459.689312 356.534459,463.827556 C336.424367,470.271351 330.115376,486.134131 340.384734,504.662245 C343.095927,509.553831 346.361982,514.137032 349.318312,518.894985 C351.558312,522.501631 352.89556,521.862831 354.593908,518.303178 C356.472807,514.369056 358.72455,510.536261 361.325651,507.039753 C364.502165,502.770812 368.622532,502.256835 372.609321,506.05145 C382.714275,515.667213 391.722716,526.255127 399.884183,537.564076 C403.675743,542.815446 402.156477,548.870087 402.288587,554.631028 C402.429505,560.734131 404.336294,568.252871 401.520881,572.579083 C398.416294,577.350253 390.201982,574.612961 384.321615,574.837643 C367.098862,575.494064 350.477945,579.141828 334.00822,583.645729 C330.276844,584.666339 328.914642,584.031946 327.584734,580.589772 C307.203083,527.824957 296.166018,473.365489 298.422165,416.632776 C299.757945,383.031938 305.606018,350.177099 317.378495,318.545524 C318.88455,314.498328 319.330789,312.186902 313.625101,312.91528 C278.796477,317.36191 262.952073,287.041709 257.84822,262.780556 C257.037945,258.931607 258.941798,258.563013 261.72345,258.850839 C268.628404,259.564532 274.993174,261.848056 280.786936,265.692599 C279.314642,272.308209 280.936661,278.706481 282.699596,284.924127 C285.324183,294.180107 289.890789,302.170237 298.97556,306.890009 C302.319413,308.62578 304.67244,308.013414 306.16822,305.069064 C309.76455,297.99528 316.333358,295.240367 323.10767,292.648457" id="Fill-6" fill="#B9CFE2" sketch:type="MSShapeGroup"></path>
                <path d="M527.109138,265.516819 C533.567853,263.359587 539.881248,260.826418 546.668771,259.623713 C551.402716,258.785197 552.120514,260.0393 551.137028,264.480056 C545.513541,289.874894 530.056661,312.034619 500.185101,314.356323 C499.769688,314.38863 499.383633,314.82037 498.764183,315.200713 C529.702899,404.023174 532.091156,491.516638 486.212257,576.466654 C488.601982,562.866839 493.31244,549.704638 496.499229,536.093075 C510.711339,475.385122 510.447119,414.97087 493.081982,354.960457 C489.702899,343.285851 485.576661,331.724319 479.929688,320.803056 C477.970055,317.011378 475.703633,315.398961 471.361615,315.796926 C466.548404,316.237477 461.664734,315.898252 455.073908,315.898252 C465.707303,307.690784 475.000514,300.518611 484.295193,293.346437 C492.051523,294.186422 498.149138,297.778382 502.068404,304.568744 C504.114642,308.115181 506.833174,308.157768 509.975927,306.75241 C522.921248,300.963567 531.013725,278.210567 527.109138,265.516819" id="Fill-8" fill="#6088B8" sketch:type="MSShapeGroup"></path>
                <path d="M405.078459,591.400458 C421.339743,591.269761 440.353321,591.934993 459.221578,594.685501 C463.016073,595.239127 468.836257,594.487253 469.43956,599.478698 C470.054606,604.567064 464.702679,606.386541 460.595523,607.877072 C447.096807,612.774533 432.969835,613.839198 418.779743,614.006607 C395.620844,614.278281 372.368,615.529446 349.628917,609.490958 C343.813138,607.946092 335.465248,606.846182 335.821945,599.89869 C336.156624,593.349163 344.649835,594.908714 349.705248,594.195021 C367.126165,591.73234 384.710018,591.366682 405.078459,591.400458" id="Fill-10" fill="#B9CFE2" sketch:type="MSShapeGroup"></path>
                <path d="M527.109138,265.516819 C531.013725,278.210567 522.921248,300.963567 509.975927,306.75241 C506.833174,308.157768 504.114642,308.115181 502.068404,304.568744 C498.149138,297.778382 492.051523,294.186422 484.295193,293.346437 C496.864734,281.448619 511.088587,272.098654 527.109138,265.516819" id="Fill-12" fill="#FAB729" sketch:type="MSShapeGroup"></path>
                <path d="M323.10767,292.648457 C316.333358,295.240367 309.76455,297.99528 306.16822,305.069064 C304.67244,308.013414 302.319413,308.62578 298.97556,306.890009 C289.890789,302.170237 285.324183,294.180107 282.699596,284.924127 C280.936661,278.706481 279.314642,272.308209 280.786936,265.692599 C296.355376,272.381635 309.56345,282.780111 323.10767,292.648457" id="Fill-14" fill="#FAB729" sketch:type="MSShapeGroup"></path>
                <path d="M462.018642,510.220973 C463.436624,505.373441 465.228917,500.597867 466.196257,495.660756 C468.173505,485.569197 464.74745,477.549697 456.213138,471.609599 C446.574972,464.901473 435.34855,462.820603 424.339376,459.930587 C439.959193,460.905674 455.686165,461.457831 468.594789,472.252804 C473.300844,476.188394 474.746716,481.398646 474.31956,487.360772 C473.64433,496.776819 469.189284,504.230945 462.018642,510.220973" id="Fill-16" fill="#6088B8" sketch:type="MSShapeGroup"></path>
                <path d="M114.386936,109.250525 C123.826936,91.2951276 139.00345,86.4564071 167.790239,92.0954622 C155.467303,79.6131787 140.738495,77.5455252 124.515376,75.8259071 C136.65189,64.1057772 149.804183,61.4742181 164.326018,65.4054031 C180.973358,69.9122417 193.44455,80.9201472 205.02033,93.0764228 C206.602716,94.7373008 207.48345,96.4965685 204.468404,97.4011669 C171.210422,107.382588 145.862899,129.700911 119.600881,152.260069 C118.442716,143.545966 121.686752,136.945041 125.871706,130.780261 C129.575193,125.326238 133.808587,120.261368 138.623266,115.684041 C142.789138,111.722017 142.102165,108.903958 136.22033,107.588179 C130.749505,106.363446 125.065835,106.397222 119.558312,108.184391 C118.206385,108.623474 116.760514,108.771793 114.386936,109.250525" id="Fill-18" fill="#24375B" sketch:type="MSShapeGroup"></path>
            </g>
        </g>
    </g>
</svg>