<?xml version="1.0" encoding="UTF-8" standalone="no"?>
<svg width="800px" height="800px" viewBox="0 0 800 800" version="1.1" xmlns="http://www.w3.org/2000/svg" xmlns:xlink="http://www.w3.org/1999/xlink" xmlns:sketch="http://www.bohemiancoding.com/sketch/ns">
    <!-- Generator: Sketch 3.4.4 (17249) - http://www.bohemiancoding.com/sketch -->
    <title>hawks</title>
    <desc>Created with Sketch.</desc>
    <defs>
        <path id="path-1" d="M0,0.186436498 L799.074877,0.186436498 L799.074877,800 L0,800"></path>
    </defs>
    <g id="Page-1" stroke="none" stroke-width="1" fill="none" fill-rule="evenodd" sketch:type="MSPage">
        <g id="hawks" sketch:type="MSArtboardGroup">
            <g id="Page-1" sketch:type="MSLayerGroup">
                <g id="Group-3">
                    <mask id="mask-2" sketch:name="Clip 2" fill="white">
                        <use xlink:href="#path-1"></use>
                    </mask>
                    <g id="Clip-2"></g>
                    <path d="M399.697143,781.29016 C609.684335,781.251689 783.333596,609.376967 780.137537,394.113835 C777.037044,185.337509 605.392709,16.8117386 394.937537,19.104217 C187.840985,21.3601973 14.2065025,192.655882 19.0153695,409.200395 C23.5799015,614.787571 191.973005,781.229001 399.697143,781.29016 M399.757241,799.993983 C180.468571,801.209273 -3.69891626,619.774007 0.0567487685,393.083009 C3.59369458,179.570801 177.66266,-0.498249075 401.063645,0.188310727 C623.304039,0.870924784 801.375961,182.97598 799.051823,404.512848 C796.738522,625.054402 615.989754,800.85021 399.757241,799.993983" id="Fill-1" fill="#CC0B30" sketch:type="MSShapeGroup" mask="url(#mask-2)"></path>
                </g>
                <path d="M399.454187,763.325179 C601.034483,763.323206 763.805911,598.329864 762.2,397.242811 C760.62069,199.629988 600.659113,40.6045869 406.266995,37.1165475 C204.693596,33.4992848 36.6216749,195.932824 36.8561576,400.501998 C37.08867,602.867472 201.064039,763.23344 399.454187,763.325179 M399.697537,781.29016 C191.972414,781.229001 23.5802956,614.787571 19.0147783,409.200395 C14.2068966,192.655882 187.841379,21.3601973 394.937931,19.104217 C605.392118,16.8117386 777.037438,185.337509 780.136946,394.113835 C783.333005,609.376967 609.684729,781.251689 399.697537,781.29016" id="Fill-4" fill="#FDFAFB" sketch:type="MSShapeGroup"></path>
                <path d="M560.810739,689.960148 C559.676749,687.77815 558.873793,684.816868 556.976256,682.998866 C555.233399,681.328829 553.249163,684.027719 551.342759,684.66397 C549.339803,685.332774 547.359507,686.296523 545.629458,687.505894 C542.359507,689.790481 541.028473,688.458792 539.558522,685.288385 C535.007783,675.477287 530.158522,665.805277 525.384138,656.098742 C521.451133,648.101702 521.467882,648.191467 513.646207,652.486412 C511.756552,653.524143 511.489557,654.320197 512.430443,656.226979 C519.831429,671.230678 527.149655,686.274821 534.428473,701.338693 C535.297438,703.134994 536.098424,703.834377 538.130936,702.799605 C544.990049,699.308607 551.935862,695.987275 558.833399,692.572232 C559.774286,692.106634 561.156552,691.933021 560.810739,689.960148 L560.810739,689.960148 Z M506.349655,714.570752 C506.582167,707.924143 503.829458,705.73524 497.444236,707.498002 C495.394975,708.063231 493.276749,708.460764 491.321084,709.258792 C488.499409,710.409963 487.360493,709.639556 486.600887,706.657559 C483.850148,695.86397 480.808768,685.144365 477.891527,674.393194 C475.524039,665.670136 475.201872,665.553736 466.871823,668.789248 C465.062956,669.491591 464.686601,670.356695 465.156552,672.08 C469.600887,688.352256 474.026502,704.629445 478.407783,720.918471 C478.875764,722.661504 479.585123,723.352996 481.48266,722.817361 C489.197931,720.638323 496.945714,718.575684 504.674778,716.443009 C505.581182,716.19344 506.714187,716.018841 506.349655,714.570752 L506.349655,714.570752 Z M204.953596,202.265943 C204.848177,201.781603 204.885616,201.374205 204.70335,201.208483 C202.536847,199.227719 200.589064,196.773465 198.053103,195.515758 C196.487586,194.740419 195.485616,197.568533 194.195961,198.718718 C192.488571,200.240789 190.810739,201.89307 189.52798,203.770259 C187.424532,206.844982 185.72798,206.771985 183.052118,204.230925 C175.083645,196.665943 166.840296,189.391961 158.756552,181.947324 C152.893498,176.547571 153.113202,176.686658 147.525025,182.391221 C144.989064,184.97963 145.845222,186.141652 148.01468,188.090851 C159.968374,198.835117 171.86,209.64942 183.650148,220.572232 C185.63931,222.414895 186.739803,222.762121 188.662956,220.505154 C193.339803,215.011689 198.289557,209.751023 203.124039,204.3927 C203.776256,203.669642 204.394975,202.916991 204.953596,202.265943 L204.953596,202.265943 Z M676.891527,584.917485 C676.045222,583.014649 674.094483,582.554969 672.875764,581.286412 C670.25803,578.559901 668.182167,578.498742 666.16936,582.119951 C664.830443,584.528829 662.581182,586.430678 661.245222,588.840543 C659.515172,591.959655 657.889557,591.317485 655.603842,589.576424 C646.88266,582.933761 638.087586,576.387768 629.297438,569.836843 C621.79202,564.242762 621.864926,564.314772 616.940788,572.274328 C615.855074,574.029199 616.221576,574.762121 617.617635,575.799852 C631.144729,585.852626 644.674778,595.900469 658.119113,606.061751 C659.906305,607.412182 660.672808,607.187275 661.918128,605.465943 C666.424532,599.230678 671.106305,593.122663 675.702365,586.952503 C676.175271,586.316252 676.510246,585.577411 676.891527,584.917485 L676.891527,584.917485 Z M301.535862,673.095043 C301.452118,673.327842 301.106305,674.244242 300.789064,675.169519 C296.74867,686.930801 292.795961,698.724636 288.615665,710.43561 C287.624532,713.211443 287.804828,714.736473 290.963448,715.214895 C291.919113,715.359901 292.924039,715.653859 293.743744,716.150037 C297.821576,718.62106 299.198916,716.531788 300.408768,712.799112 C303.889557,702.057805 307.918128,691.490111 311.225517,680.699482 C312.635369,676.097756 314.06197,674.777904 318.970345,676.698496 C326.741773,679.739679 324.77133,680.307867 327.921084,672.676794 C329.14867,669.700715 328.183153,668.834624 325.495468,667.959655 C316.166404,664.92439 306.846207,661.833884 297.666897,658.378397 C294.34867,657.129568 293.035369,657.426486 291.813695,660.974698 C290.36936,665.171985 289.835369,668.084932 295.443251,668.745845 C297.021576,668.931295 298.502365,669.863477 300.057044,670.3636 C301.083645,670.694057 301.898424,671.08074 301.535862,673.095043 L301.535862,673.095043 Z M324.732906,86.2393095 C326.96936,85.3692725 326.892512,87.6114427 327.286601,89.3248829 C329.820591,100.327596 332.3733,111.326363 334.883645,122.334007 C336.663941,130.144612 336.594975,129.929568 344.229458,128.393687 C347.598916,127.716005 347.932906,126.605277 347.14867,123.487152 C344.553596,113.170999 342.308276,102.766067 339.989064,92.3808631 C337.968374,83.3362269 337.942759,83.0067571 347.06197,81.2321578 C350.92601,80.4795068 350.549655,78.502688 349.601872,76.3256227 C348.644236,74.1248829 350.514187,69.3475709 344.762463,70.8439951 C335.43931,73.2716153 326.046207,75.5177312 316.574286,77.2439951 C312.212709,78.0390629 311.499409,79.5216769 312.481675,83.6094698 C313.417635,87.5078668 314.554581,89.4748212 318.826502,87.6331443 C320.449163,86.9337608 322.309261,86.7887546 324.732906,86.2393095 L324.732906,86.2393095 Z M134.14867,216.08 C133.997931,214.011443 131.97133,213.960148 130.838325,212.976671 C127.320099,209.919704 125.048177,210.015388 122.608768,214.694057 C118.605813,222.375438 114.009754,229.786535 109.157537,236.967793 C106.400887,241.046708 106.628473,243.075808 111.201872,245.327842 C114.26,246.833144 116.020591,247.487152 117.430443,243.792947 C117.9467,242.43857 119.132906,241.342639 119.665911,239.992207 C121.004828,236.600838 122.77133,236.803058 125.547685,238.548064 C134.832414,244.383822 144.262956,249.987768 153.638325,255.679507 C160.725025,259.98037 160.558522,259.872848 164.887586,253.083206 C166.574286,250.436597 166.162463,249.425499 163.608768,247.926116 C153.447192,241.963107 143.531921,235.572972 133.289557,229.756942 C129.085616,227.368779 127.39399,225.29233 131.035369,221.15127 C132.310246,219.701208 133.100394,217.82402 134.14867,216.08 L134.14867,216.08 Z M612.868867,600.967793 C609.825517,598.342885 606.806798,595.858052 603.930936,593.217361 C601.965419,591.412182 600.534877,591.542392 598.553596,593.418594 C592.010739,599.614402 585.353596,605.698742 578.54867,611.603551 C576.186108,613.653366 576.376256,614.810456 578.404828,617.00725 C589.410739,628.92439 600.301379,640.951023 611.060985,653.091097 C613.115172,655.409223 614.166404,654.843009 616.056059,653.061504 C622.255074,647.218841 628.630443,641.561628 634.943744,635.841282 C640.829458,630.508607 640.833399,630.512552 635.390049,624.684686 C630.46197,619.409223 630.399901,619.348064 625.141773,624.637337 C624.12798,625.656326 621.16936,626.461258 623.248177,628.70836 C625.211724,630.833144 623.786108,631.801825 622.443251,633.02106 C620.866897,634.45238 619.1733,635.769273 617.717143,637.311073 C615.617635,639.535487 614.15064,639.189248 612.205813,636.906634 C607.320099,631.171492 602.201872,625.630678 597.110246,620.073095 C591.517143,613.968039 591.464926,613.975931 597.699409,608.425253 C598.79399,607.450654 599.963448,605.033884 601.600887,606.790727 C604.375271,609.767793 605.870837,607.345105 607.61665,605.895043 C609.376256,604.433144 610.967389,602.767053 612.868867,600.967793 L612.868867,600.967793 Z M690.378227,550.515512 C695.189064,552.159901 697.890542,549.936473 699.345714,545.325869 C699.933892,543.463477 700.906305,541.72143 701.702365,539.924143 C707.423547,526.990974 707.347685,527.088631 695.940788,518.285672 C686.055074,510.657559 674.079704,507.215882 663.307291,501.402811 C657.870837,498.470136 657.741773,502.516498 656.042266,505.50836 C654.111232,508.908607 654.318128,510.497756 658.269852,512.292084 C669.117143,517.218348 680.507291,521.095043 690.254089,528.297016 C692.994975,530.323157 694.200887,531.902441 692.408768,535.455586 C690.807783,538.629938 689.438325,539.566067 685.763448,538.777904 C673.736847,536.198372 663.251133,529.95127 652.138818,525.221307 C648.975271,523.874821 647.558522,523.652873 646.141773,527.389494 C643.508276,534.336967 643.220591,534.219581 649.996946,537.215388 C652.241281,538.207744 654.465911,539.247448 656.698424,540.266436 C667.430443,545.16508 678.062956,550.388261 690.378227,550.515512 L690.378227,550.515512 Z M230.987094,649.445228 C232.758522,655.848187 229.915172,660.295043 227.161478,664.818841 C224.86,668.599852 223.017635,672.688631 220.46,676.276301 C218.257044,679.36582 219.376256,680.613662 222.131921,682.137707 C229.729951,686.340912 237.210739,690.756202 244.744729,695.076794 C250.718128,698.503674 250.55064,698.395166 254.151626,692.301948 C255.673793,689.727349 255.081675,688.701455 252.735862,687.472355 C248.820591,685.421554 245.035369,683.121184 241.206798,680.903674 C233.465911,676.421307 233.604828,676.498249 238.205813,668.952996 C239.622562,666.629938 240.780197,666.457312 242.833399,667.72291 C245.485616,669.357435 248.184138,670.923896 250.919113,672.417361 C251.819606,672.909593 252.993005,674.271862 253.906305,672.901702 C255.530936,670.464217 257.448177,667.915265 257.979212,665.169026 C258.292512,663.546338 255.035369,663.049174 253.518128,661.855586 C253.135862,661.554723 252.666897,661.363354 252.23931,661.119704 C244.957537,656.973711 245.096453,657.05164 249.062956,649.928582 C250.628473,647.119211 251.906305,646.65164 254.676749,648.410456 C259.649163,651.569026 264.995961,654.142639 269.940788,657.339679 C272.698424,659.123157 274.204828,658.483946 274.951626,655.735734 C275.602857,653.33672 280.544729,651.128089 275.43734,648.252626 C266.583153,643.267176 257.724039,638.284686 249.001872,633.076301 C246.626502,631.657805 245.68069,632.17963 244.510246,634.375438 C242.118128,638.861751 239.39399,643.170506 236.993005,647.651887 C235.663941,650.131788 234.288571,651.718964 230.987094,649.445228 L230.987094,649.445228 Z M229.28069,619.86397 C227.720099,618.240296 226.1467,616.792207 224.797931,615.158668 C222.380197,612.228952 220.358522,611.800838 217.368374,614.839063 C212.770345,619.50984 207.321084,623.229692 201.956552,627.021554 C197.826502,629.940419 196.139803,626.342885 193.781182,624.404538 C190.689557,621.863477 194.08069,620.809963 195.131921,619.526609 C198.35064,615.593687 201.845222,611.888631 205.186108,608.055339 C210.411724,602.058792 210.271823,602.177164 204.476749,596.744858 C202.110246,594.526363 200.928966,595.088631 199.111232,597.245968 C195.412709,601.634624 191.606798,605.959162 187.52601,609.985795 C185.870837,611.619334 185.266897,616.371985 180.965419,613.108853 C180.223547,612.545598 179.791034,614.12291 179.783153,614.713785 C179.70532,620.49529 175.444236,623.674575 172.055074,627.384562 C164.073793,636.12143 164.06197,636.109593 173.209754,643.728829 C176.380197,640.200345 179.531921,636.642269 182.747685,633.144365 C183.674778,632.136227 184.372315,630.697016 186.360493,631.763354 C191.832414,634.69603 192.892512,638.118964 189.741773,643.538446 C189.165419,644.529815 188.567389,645.50836 187.970345,646.486905 C183.386108,653.999605 183.421576,653.953243 190.301379,659.37963 C191.766404,660.534747 192.518128,660.82476 193.685616,659.02254 C197.16936,653.642515 200.81665,648.30984 202.747685,642.175191 C203.584138,639.519704 204.985123,638.158422 207.225517,636.856326 C215.318128,632.150037 222.582167,626.325129 229.28069,619.86397 L229.28069,619.86397 Z M645.917143,270.962367 C647.100394,270.058792 648.031429,269.389001 648.919113,268.665943 C654.755567,263.913292 658.291527,256.244735 664.52798,252.808977 C671.042266,249.219334 679.007783,247.887645 685.979212,244.568286 C693.222562,241.120691 693.113202,241.189741 688.656059,234.211689 C687.086601,231.755462 685.86,231.412182 683.26,232.83857 C677.222562,236.150037 670.740788,238.48 664.28266,240.89381 C659.244236,242.77889 659.005813,238.576671 657.209754,236.333514 C654.768374,233.285425 658.193005,232.791221 659.595961,231.816621 C663.633399,229.011196 667.869852,226.49381 672.021576,223.852133 C679.290542,219.225746 679.158522,219.306634 674.564433,212.225993 C672.961478,209.755956 671.809754,209.903921 669.650148,211.356942 C664.072808,215.109346 658.342759,218.634871 652.668867,222.244242 C651.724039,222.845968 650.459015,224.25164 649.708276,223.546338 C645.740788,219.816621 645.850148,224.482466 644.802857,225.974945 C643.842266,227.344118 642.942759,228.556449 641.493498,229.45016 C637.584138,231.859038 633.881675,234.639803 629.841281,236.790234 C626.347685,238.649667 625.646207,240.186535 628.195961,243.657805 C632.296453,249.239063 632.036355,249.431418 637.685616,245.784562 C638.788079,245.073342 639.879704,244.345351 640.983153,243.636104 C647.085616,239.719951 646.848177,239.883699 650.824532,245.742145 C654.045222,250.487891 649.586108,251.865943 647.563448,253.92365 C639.764433,261.857559 639.654089,261.749051 645.917143,270.962367 L645.917143,270.962367 Z M675.355567,310.62106 C674.632414,310.59344 673.3467,311.105401 672.718128,309.242022 C671.725025,306.296523 670.453103,303.445721 669.321084,300.546584 C668.920099,299.520691 669.001872,298.383329 670.107291,298.053859 C673.255074,297.117731 671.912217,295.227719 671.263941,293.435364 C668.551626,285.930555 668.551626,285.930555 661.101379,288.908607 C660.189064,289.272602 659.310246,289.773711 658.364433,289.988755 C655.23734,290.698002 654.665911,292.168779 655.940788,295.212922 C659.357537,303.368779 662.648177,311.593687 665.543744,319.945845 C666.686601,323.241529 668.48069,323.730801 671.376256,323.301702 C677.400887,322.409963 683.151626,320.614649 688.85803,318.531295 C691.609754,317.526116 692.497438,315.931048 692.68069,313.09603 C693.156552,305.733268 694.098424,298.402072 694.627488,291.042269 C694.784138,288.857312 695.524039,287.719951 697.629458,287.367793 C699.019606,287.134994 700.768374,286.127842 701.59202,287.78111 C703.121084,290.8509 704.275764,294.113046 705.491527,297.331788 C706.441281,299.846215 703.671823,299.513785 702.85803,300.673835 C702.564433,301.094057 702.676749,301.89307 702.783153,302.486905 C704.251133,310.631911 706.08266,311.643995 713.783153,308.628459 C714.850148,308.211196 715.914187,307.745598 717.021576,307.472355 C719.66,306.822293 720.115172,305.559655 719.055074,302.987028 C715.564433,294.506634 712.21468,285.964094 709.052118,277.355462 C708.056059,274.643748 706.538818,273.889125 703.894483,274.242269 C697.843251,275.049174 692.075764,276.782343 686.401872,279.000838 C684.34867,279.803798 683.828473,281.023033 683.621576,283.025499 C682.846207,290.529322 681.575271,297.99566 681.118128,305.514279 C680.883645,309.383083 678.681675,309.982836 675.355567,310.62106 L675.355567,310.62106 Z M157.691527,569.004291 C157.177241,566.23635 159.609754,565.957189 161.128966,564.898742 C163.283645,563.395413 163.94867,565.300222 164.90335,566.540173 C166.404828,568.491344 167.920099,570.432651 169.39202,572.40651 C170.181182,573.46397 171.203842,574.734501 169.507291,575.712059 C166.876749,577.228212 168.515172,578.583576 169.484631,579.961628 C174.363448,586.89233 174.3733,586.886412 181.215665,581.683946 C182.129951,580.988508 182.972315,580.161874 183.968374,579.616375 C186.37133,578.298496 185.953596,576.904661 184.520099,575.039309 C178.823547,567.624266 173.109261,560.215142 167.681675,552.603798 C166.17133,550.485919 164.921084,550.459285 162.832414,551.218841 C157.533892,553.145351 152.951626,556.258545 148.28069,559.315512 C145.19202,561.337707 144.442266,563.574945 145.167389,567.121184 C146.613695,574.189001 147.594975,581.352503 148.797931,588.470629 C149.092512,590.211689 149.093498,591.793933 147.134877,592.556449 C145.538818,593.177904 143.863941,595.527596 142.388079,594.129815 C139.804828,591.684439 137.805813,588.590974 135.725025,585.65238 C134.157537,583.436843 137.036355,583.159655 137.629458,581.862491 C137.994975,581.061504 137.312217,580.693564 137.036355,580.152996 C133.087586,572.396646 131.48069,572.012922 124.665911,577.188755 C123.621576,577.982836 122.634384,578.887398 121.494483,579.50984 C119.236355,580.743872 119.708276,581.994673 121.019606,583.702195 C126.81665,591.251393 132.579212,598.830185 138.205813,606.50762 C139.5467,608.33746 140.678719,608.503181 142.728966,607.760395 C149.467882,605.317978 155.164433,601.225253 160.86197,597.046708 C162.653103,595.732774 162.136847,594.365573 161.844236,592.741899 C160.417635,584.834624 159.060985,576.914525 157.691527,569.004291 L157.691527,569.004291 Z M483.714187,117.645475 C487.009754,118.645721 489.977241,119.573958 492.962463,120.443009 C495.01468,121.039803 495.954581,121.90984 494.942759,124.292084 C493.86,126.841036 493.309261,129.612922 492.473793,132.270382 C490.540788,138.416868 490.632414,138.146584 496.5467,140.463724 C500.495468,142.011443 502.110246,141.294303 503.344729,137.12365 C507.39202,123.457559 511.822562,109.903921 516.153596,96.3226634 C518.656059,88.4745746 518.659015,88.6107028 510.650148,86.145598 C507.873793,85.291344 506.951626,85.9739581 506.253103,88.6767941 C505.107291,93.112799 503.476749,97.4235265 502.064926,101.791467 C498.679704,112.261504 498.709261,112.195413 488.377241,108.158915 C486.195961,107.30762 485.757537,106.432651 486.532906,104.22402 C488.377241,98.9722318 489.947685,93.6218002 491.604828,88.3039211 C493.958522,80.7488039 493.883645,80.9451048 486.345714,78.4316646 C483.255074,77.4008385 482.39202,78.2836991 481.610739,81.058545 C480.057044,86.5746979 478.385123,92.0829593 476.297438,97.4116893 C475.45803,99.5522565 476.831429,104.219088 471.587094,102.908113 C470.936847,102.745351 470.88266,103.936967 471.099409,104.461751 C473.793005,111.002811 470.17133,116.638323 468.423547,122.471122 C465.735862,131.441776 465.601872,131.317485 474.732906,133.457065 C476.663941,133.90984 477.338818,133.53598 477.864926,131.701208 C478.993005,127.763354 480.325025,123.881726 481.621576,119.993194 C482.001872,118.848927 482.021576,117.1927 483.714187,117.645475 L483.714187,117.645475 Z M430.642266,675.425993 C424.887586,675.975438 419.676749,676.614649 414.445222,676.920444 C411.208768,677.10984 409.347685,678.277781 408.849163,681.672109 C408.278719,685.555709 407.193005,689.36434 406.646207,693.2509 C406.081675,697.255832 407.420591,702.80651 405.234384,705.045721 C400.353596,710.042022 408.735862,710.921924 407.041281,714.291591 C406.849163,714.672355 407.047192,715.262244 407.098424,715.751517 C407.598916,720.480493 408.363448,725.199605 408.52798,729.939433 C408.650148,733.485672 410.044236,733.755956 413.096453,733.266683 C420.272808,732.116498 420.299409,732.285179 419.822562,724.943132 C419.758522,723.960641 419.720099,722.975191 419.615665,721.996646 C418.845222,714.731541 418.840296,714.732528 426.03931,714.15349 C433.041281,713.590234 433.042266,713.590234 433.528966,720.805031 C433.594975,721.787522 433.617635,722.772972 433.713202,723.752503 C434.475764,731.571985 434.561478,731.515758 442.529951,730.412922 C445.352611,730.022293 446.385123,729.412676 445.835369,726.211689 C444.949655,721.053613 444.709261,715.77815 444.313202,710.544118 C443.477734,699.494057 441.338818,688.819827 436.14867,678.874575 C434.759507,676.213169 433.307291,674.514525 430.642266,675.425993 L430.642266,675.425993 Z M105.758522,315.383576 C113.312217,313.944365 113.312217,313.944365 125.867882,318.460271 C133.893498,321.346584 133.778227,321.307127 136.452118,313.390974 C137.266897,310.980123 137.046207,309.848681 134.499409,309.102935 C131.363448,308.185549 128.388079,306.700962 125.23734,305.854599 C121.865911,304.949051 120.963448,303.612429 122.317143,300.070136 C125.793005,290.973218 125.612709,290.904168 134.812709,294.271862 C142.591034,297.119704 142.428473,297.061504 145.234384,289.197633 C146.252118,286.344858 145.403842,285.600099 142.893498,284.74979 C135.30335,282.180123 127.832414,279.260271 120.264926,276.62254 C112.290542,273.842762 104.030443,272.892824 95.6048276,273.03783 C92.8905419,273.085179 91.1378325,273.692824 90.242266,276.700469 C88.6560591,282.02328 86.7427586,287.272109 84.589064,292.3927 C83.3939901,295.233637 84.17133,296.843502 86.313202,298.684192 C91.6944828,303.31058 97.4363547,307.368779 103.92601,310.221554 C106.344729,311.284932 107.37133,312.459778 105.758522,315.383576 L105.758522,315.383576 Z M576.443251,120.076054 C577.010739,118.275808 575.486601,117.472848 574.049163,116.635364 C569.236355,113.832898 564.271823,111.257312 559.652118,108.164834 C556.776256,106.239309 554.664926,106.480986 552.341773,108.737953 C549.520099,111.478274 546.459015,113.986782 543.783153,116.860271 C541.123054,119.717978 539.041281,125.224266 536.30335,125.49455 C529.020591,126.214649 535.32601,132.281233 531.990049,134.002565 C531.37133,134.32217 531.116158,135.35201 530.700394,136.058298 C528.290542,140.152996 525.833399,144.220074 523.510246,148.363107 C522.891527,149.464957 521.653103,150.474081 523.624532,152.022787 C530.561478,157.471862 531.828473,157.376178 536.12798,150.029199 C537.286601,148.04942 538.590049,146.141652 539.580197,144.081973 C540.501379,142.165327 541.489557,141.931541 543.39202,142.855832 C553.711232,147.871862 553.731921,147.826486 547.929951,157.653366 C547.429458,158.500715 547.053103,159.444735 546.441281,160.198372 C544.241281,162.906141 544.711232,164.813909 547.956552,166.129815 C549.010739,166.556942 550.050148,167.131048 550.939803,167.83635 C553.456059,169.832898 554.924039,169.369273 556.490542,166.451393 C560.362463,159.234624 564.654089,152.244735 568.671823,145.104908 C572.990049,137.432404 575.194975,129.072355 576.443251,120.076054 L576.443251,120.076054 Z M105.629458,552.88 C105.81665,552.787275 106.395961,552.48148 106.990049,552.20725 C114.429458,548.781356 121.913202,545.445228 129.302365,541.912799 C137.235369,538.121924 143.989064,532.744858 149.9733,526.296523 C151.631429,524.5091 151.655074,523.125129 150.677734,521.111813 C148.16936,515.948804 145.640296,510.77889 143.514187,505.45312 C142.418621,502.710826 140.724039,502.233391 138.195961,502.409963 C131.962463,502.843995 125.856059,503.824513 119.822562,505.534994 C117.610739,506.161381 114.962463,509.3091 112.676749,505.303181 C112.292512,504.631418 111.402857,505.345598 111.137833,505.883206 C107.942759,512.37889 101.10532,513.3673 95.5210837,516.153983 C88.3752709,519.717978 88.451133,519.495043 91.7053202,526.830185 C92.9870936,529.718471 94.3033498,529.993687 96.8619704,528.595906 C99.730936,527.028459 102.860985,525.942392 105.733892,524.379877 C108.434384,522.912059 109.79202,523.222787 111.152611,526.293564 C115.276749,535.60947 115.430443,535.541406 106.41468,539.615388 C99.015665,542.959408 98.4737931,545.229199 103.356552,551.946831 C103.874778,552.660025 104.185123,553.348557 105.629458,552.88 L105.629458,552.88 Z M417.32798,94.6792602 C414.024532,94.7611344 412.832414,94.0637238 412.605813,91.2464612 C412.175271,85.8763009 410.974286,80.5840691 409.181182,75.4368434 C406.273793,67.0925771 406.355567,67.0639704 397.418621,67.0639704 L391.513202,67.0639704 C381.218621,67.0639704 381.427488,67.1310481 378.296453,76.9135388 C374.235369,89.6020715 375.753596,102.603305 375.587094,115.514772 C375.481675,123.652873 375.564433,123.550284 383.791034,123.273095 C386.474778,123.183329 387.576256,122.479014 387.380197,119.600592 C387.124039,115.840296 387.289557,112.04942 387.337833,108.272355 C387.351626,107.216868 386.928966,105.650407 388.634384,105.582343 C392.557537,105.425499 396.756552,104.633391 400.318128,105.760888 C402.462956,106.440543 400.881675,110.526363 401.179212,113.063477 C401.446207,115.33524 401.383153,117.645475 401.54867,119.932035 C401.617635,120.879014 401.68069,122.495783 402.12601,122.640789 C405.325025,123.682466 408.673793,123.019581 411.822562,122.456326 C414.163448,122.03709 412.844236,119.394427 413.019606,117.757928 C413.822562,110.277781 410.568374,102.213662 417.32798,94.6792602 L417.32798,94.6792602 Z M248.362463,166.742392 C247.442266,165.542885 246.846207,164.773465 246.25803,163.998126 C241.403842,157.596153 236.684631,151.086658 231.66197,144.820814 C226.285616,138.115018 219.785123,132.642269 212.359507,128.257559 C210.310246,127.047201 208.699409,126.652626 206.645222,128.317731 C202.063941,132.032651 197.355567,135.594673 192.606798,139.092577 C190.586108,140.58111 190.244236,142.036104 190.99399,144.5091 C192.715172,150.17815 194.956552,155.575931 197.519113,160.90762 C198.710246,163.385549 203.1467,165.457065 199.342759,169.212429 C198.951626,169.598126 199.785123,170.268903 200.471823,170.432651 C207.292512,172.06619 209.768374,178.295536 213.574286,183.038323 C218.841281,189.601085 218.608768,189.554723 225.442266,184.402565 C227.66,182.730555 227.656059,181.774698 226.035369,179.857065 C223.710246,177.104908 221.691527,174.094303 219.424532,171.288878 C217.843251,169.332774 217.464926,168.112552 219.945714,166.224513 C228.250148,159.905401 228.147685,159.7673 234.555567,167.947818 C235.161478,168.721184 235.863941,169.449174 236.321084,170.306387 C238.044236,173.539926 239.976256,173.934501 242.668867,171.237583 C244.343744,169.560641 246.401872,168.266436 248.362463,166.742392 L248.362463,166.742392 Z M112.787094,478.508607 C118.572315,477.69381 123.913202,476.906634 129.265911,476.205277 C131.759507,475.878767 132.540788,474.666436 131.994975,472.201332 C129.798916,462.288631 127.564433,452.379877 125.645222,442.411936 C125.059015,439.371739 123.650148,439.350037 121.295468,439.883699 C116.189064,441.039803 111.052118,442.063724 105.923054,443.116252 C104.755567,443.355956 103.106305,444.517978 102.625517,442.583576 C101.877734,439.576917 100.487586,440.611689 99.3959606,441.969026 C96.8087685,445.185795 93.2294581,445.967053 89.4915271,446.673342 C84.3457143,447.645968 79.2550739,448.930308 74.0944828,449.808237 C71.1516256,450.309346 70.3762562,451.545351 71.0609852,454.429692 C72.7240394,461.442269 74.1338916,468.514032 75.6668966,475.558175 C78.2540887,487.448681 78.1920197,487.225746 89.913202,483.588755 C97.5141872,481.230185 104.23734,474.764094 112.787094,478.508607 L112.787094,478.508607 Z M687.685616,484.949051 C694.12601,480.875068 699.822562,482.786782 705.543744,484.160888 C709.361478,485.077287 713.238325,485.760888 717.025517,486.783822 C719.732906,487.513785 721.050148,487.169519 721.679704,483.99418 C723.589064,474.3636 725.811724,464.791221 728.067882,455.232651 C728.745714,452.362121 728.120099,451.073835 725.03931,450.622047 C718.542759,449.669149 712.040296,448.954969 705.477734,449.197633 C702.41665,449.311073 699.776256,448.600838 697.134877,447.001825 C691.046207,443.315512 684.183153,441.640543 677.360493,439.904414 C675.152611,439.342145 674.227488,439.955709 673.737833,442.310333 C671.63734,452.408483 669.349655,462.469149 667.047192,472.523896 C666.52601,474.798619 667.215665,475.798866 669.509261,476.233884 C674.488571,477.177904 679.419606,478.369519 684.383153,479.398372 C686.907291,479.921184 689.143744,480.586042 687.685616,484.949051 L687.685616,484.949051 Z M337.908276,694.38037 C341.970345,699.996153 341.017635,705.501455 340.101379,711.043255 C339.379212,715.406264 338.796946,719.79492 338.274778,724.187522 C338.102365,725.639556 337.249163,727.504908 339.99202,727.845228 C350.54867,729.159162 361.096453,730.542145 371.634384,731.995166 C373.730936,732.285179 374.476749,731.700222 374.752611,729.551763 C375.591034,723.006757 375.718128,716.466683 374.889557,709.941406 C374.464926,706.604291 374.652118,703.634131 376.206798,700.472602 C379.335862,694.106141 380.657044,687.156695 381.530936,680.133268 C381.758522,678.310333 381.72601,676.956942 379.370345,676.661011 C368.979212,675.351023 358.596946,673.971985 348.221576,672.544612 C345.964433,672.233884 345.026502,672.88 344.802857,675.283946 C344.331921,680.335487 343.347685,685.341652 342.942759,690.396153 C342.711232,693.282466 341.966404,695.068903 337.908276,694.38037 L337.908276,694.38037 Z M595.077734,199.47926 C593.438325,203.057065 595.36936,204.943132 597.484631,206.893317 C600.259015,209.449174 603.131921,211.960641 605.516158,214.858792 C607.715172,217.533021 609.650148,217.405771 612.624532,216.183576 C628.92601,209.481726 639.085616,195.557189 651.120099,183.832404 C651.891527,183.079753 652.388079,182.319211 651.345714,181.37815 C648.918128,179.186289 646.768374,176.400592 643.936847,175.115265 C643.051133,174.712799 640.349655,178.346831 638.466897,180.120444 C630.251133,187.861011 623.343744,197.02402 613.532906,203.033391 C611.739803,204.131295 610.328966,204.816868 608.363448,202.989988 C606.422562,201.185795 607.393005,199.820567 608.269852,198.277781 C611.109261,193.280493 614.177241,188.446954 618.250148,184.322663 C623.43734,179.068903 628.507291,173.695783 633.774286,168.524883 C635.485616,166.845968 635.656059,165.676054 633.709261,164.255586 C633.185123,163.872848 632.77133,163.339186 632.308276,162.874575 C627.555567,158.102195 627.59399,158.141652 622.943744,162.701948 C615.003842,170.489864 608.091527,179.445721 598.209754,185.038816 C596.225517,186.161381 594.360493,189.166067 591.406798,186.242269 C588.238325,183.104414 591.444236,181.099975 592.720099,179.08074 C598.376256,170.124883 606.447192,163.270136 613.626502,155.639063 C619.112217,149.808237 618.988079,149.913785 613.515172,144.299975 C611.409754,142.140666 610.220591,141.990727 608.141773,144.291097 C604.073793,148.791221 599.696453,153.012182 595.421576,157.32291 C587.967389,164.840543 581.828473,173.224266 577.841281,183.134994 C576.849163,185.599112 576.862956,187.245475 579.013695,189.074328 C582.255074,191.831418 585.342759,194.802565 588.241281,197.920691 C590.157537,199.982343 592.036355,200.861258 595.077734,199.47926 L595.077734,199.47926 Z M646.832414,400.400592 C647.23931,264.17963 537.087586,154.3636 402.955567,152.491344 C268.925025,150.620074 152.342759,257.637583 152.154581,400.028705 C151.97133,538.111073 262.796946,647.507867 399.072808,647.918224 C535.960493,648.331541 646.847192,537.248927 646.832414,400.400592 L646.832414,400.400592 Z M267.047192,119.258298 C276.158522,123.511813 286.301379,126.107127 289.980197,137.615882 C292.35064,145.029938 292.920099,144.662984 300.28266,141.576424 C303.124039,140.385795 303.48266,139.22476 302.26,136.540666 C296.083645,122.984069 290.078719,109.348557 284.000887,95.7475709 C280.866897,88.7349938 280.918128,88.8829593 273.713202,92.0750678 C270.951626,93.2982491 270.50335,94.4711221 271.782167,97.1700123 C273.422562,100.633391 275.538818,103.99418 276.132906,108.743872 C271.749655,106.545105 267.70532,105.082219 264.320099,102.686165 C259.096453,98.9870284 254.451133,100.150037 249.431429,102.842022 C247.333892,103.96656 247.044236,104.839556 248.006798,106.975191 C254.804828,122.066683 261.495468,137.20651 268.137833,152.367053 C269.054089,154.459285 270.027488,155.225746 272.168374,153.942392 C273.420591,153.190727 274.813695,152.597879 276.21665,152.187522 C279.443251,151.241529 280.067882,149.804291 278.483645,146.564834 C274.813695,139.061011 271.564433,131.346091 268.285616,123.656819 C267.691527,122.265943 266.223547,120.966806 267.128966,119.143872 L267.047192,119.258298 Z M399.454089,763.325376 C201.063941,763.232651 37.0885714,602.86767 36.8560591,400.501208 C36.6215764,195.933021 204.693498,33.4994821 406.266897,37.1167448 C600.659015,40.6037978 760.620591,199.630185 762.199901,397.243009 C763.805813,598.330062 601.034384,763.323403 399.454089,763.325376 L399.454089,763.325376 Z" id="Fill-6" fill="#CC0B30" sketch:type="MSShapeGroup"></path>
                <path d="M319.760197,330.768533 C320.554286,330.683699 321.346404,330.569273 322.143448,330.517978 C331.92867,329.879753 331.92867,329.882713 331.97202,339.398866 C332.057734,358.500222 344.477438,371.06545 365.639015,372.409963 C381.645911,373.427965 394.578916,364.633884 397.665616,345.173465 C398.095172,342.463724 398.184828,341.13894 394.634089,341.078767 C384.984828,340.915018 375.948374,338.245721 367.486305,333.461504 C360.785813,329.673588 353.99468,326.000099 346.488276,323.946338 C336.391724,321.184316 327.221281,322.427226 319.760197,330.768533 M285.904039,478.407497 C285.706995,478.192454 285.499113,477.989248 285.281379,477.795906 C295.17399,463.677041 307.820296,452.49381 322.400591,443.301208 C314.960197,443.853613 308.082365,445.990234 301.250837,448.207744 C263.494187,460.465203 227.028177,476.014402 190.588768,491.645475 C187.04197,493.16656 187.900099,494.712306 189.015369,497.154723 C203.499113,528.86767 223.792709,556.283699 250.623251,578.484439 C301.850837,620.874575 360.747389,638.721184 426.829163,631.213416 C484.269557,624.687152 532.721773,599.511319 571.204532,556.551023 C616.101084,506.430185 635.524729,447.148311 629.679409,380.007497 C625.010443,326.385795 603.906995,279.661258 566.368079,241.315512 C511.698128,185.470382 444.814384,162.288138 367.343448,172.559901 C305.457734,180.766067 255.601576,210.998372 216.73064,259.726363 C214.054778,263.081233 214.981872,264.083453 218.584828,265.118224 C240.304039,271.35053 262.018325,277.605524 283.668571,284.075561 C317.701084,294.245721 352.031133,303.459038 385.471527,315.546831 C397.390739,319.854599 409.386798,324.451393 418.233103,333.851147 C434.313892,350.940173 452.773005,365.05312 471.640985,378.747818 C500.649852,399.802318 499.852808,440.659531 469.573005,463.000345 C469.344433,462.773465 469.10798,462.555462 468.86266,462.346338 C469.179901,451.803305 467.927685,449.821554 458.094187,445.661751 C456.141478,444.836104 454.112906,444.157435 452.071527,443.578397 C439.61734,440.043995 426.873498,439.554723 414.050837,440.171245 C384.254778,441.604538 356.04197,449.881726 328.266601,460.097263 C313.801576,465.417115 299.932611,472.089371 285.904039,478.407497 M646.832118,400.401085 C646.846897,537.24942 535.960197,648.331048 399.072512,647.918718 C262.79665,647.507374 151.971034,538.11058 152.154286,400.029199 C152.343448,257.63709 268.924729,150.619581 402.956256,152.490851 C537.088276,154.364094 647.239015,264.180123 646.832118,400.401085" id="Fill-8" fill="#FEFDFE" sketch:type="MSShapeGroup"></path>
                <path d="M595.077635,199.479556 C592.036256,200.860567 590.157438,199.981652 588.241182,197.920986 C585.34266,194.802861 582.254975,191.831714 579.013596,189.074624 C576.863842,187.245771 576.849064,185.599408 577.841182,183.13529 C581.82936,173.224562 587.967291,164.840838 595.421478,157.323206 C599.69734,153.012478 604.073695,148.791517 608.141675,144.290407 C610.220493,141.991023 611.409655,142.140962 613.515074,144.300271 C618.98798,149.914081 619.112118,149.807546 613.626404,155.639359 C606.447094,163.270432 598.376158,170.124192 592.72,179.081036 C591.444138,181.100271 588.238227,183.10471 591.4067,186.241578 C594.360394,189.166363 596.225419,186.161677 598.209655,185.039112 C608.092414,179.446017 615.003744,170.49016 622.943645,162.702244 C627.593892,158.141948 627.555468,158.102491 632.308177,162.874871 C632.771232,163.339482 633.185025,163.873144 633.709163,164.255882 C635.655961,165.67635 635.485517,166.846264 633.775172,168.525179 C628.507192,173.696079 623.438227,179.069199 618.250049,184.322959 C614.177143,188.44725 611.109163,193.280789 608.269754,198.278076 C607.392906,199.820863 606.422463,201.186091 608.36335,202.990284 C610.328867,204.817164 611.739704,204.131591 613.532808,203.033687 C623.344631,197.024316 630.25202,187.861307 638.466798,180.12074 C640.349557,178.347127 643.051034,174.713095 643.936749,175.115561 C646.768276,176.400888 648.91803,179.186584 651.345616,181.378446 C652.38798,182.319507 651.892414,183.080049 651.12,183.8327 C639.085517,195.557485 628.925911,209.482022 612.624433,216.182885 C609.650049,217.406067 607.715074,217.533317 605.516059,214.859088 C603.131823,211.960937 600.258916,209.44947 597.484532,206.892626 C595.369261,204.943428 593.438227,203.057361 595.077635,199.479556" id="Fill-10" fill="#FDFAFB" sketch:type="MSShapeGroup"></path>
                <path d="M363.722365,714.841726 C363.442562,707.827176 361.9933,706.146289 354.781478,707.159359 C349.293793,707.930752 351.03665,714.118668 351.494778,716.583773 C352.406108,721.483403 358.051429,719.531245 361.583448,719.873539 C366.142069,720.315462 362.371626,716.090555 363.722365,714.841726 M361.916453,697.333465 C365.383448,697.464661 369.073103,692.954673 368.089852,687.890308 C367.150936,683.059729 361.542069,684.763305 358.329261,684.761332 C352.049458,684.759359 354.715468,690.863428 354.542069,693.772429 C354.223842,699.110037 359.808079,695.701899 361.916453,697.333465 M337.908571,694.380074 C341.965714,695.069593 342.711527,693.28217 342.943054,690.395857 C343.34798,685.342343 344.332217,680.336178 344.803153,675.284636 C345.026798,672.880691 345.964729,672.233588 348.221872,672.544316 C358.597241,673.971689 368.979507,675.351714 379.369655,676.660715 C381.72532,676.957633 381.757833,678.310037 381.531232,680.132972 C380.65734,687.1564 379.336158,694.106831 376.206108,700.473292 C374.652414,703.634821 374.465222,706.603995 374.888867,709.94111 C375.718424,716.467374 375.59133,723.006461 374.751921,729.551467 C374.477044,731.700912 373.731232,732.284883 371.63468,731.995857 C361.096749,730.54185 350.54798,729.158866 339.992315,727.845919 C337.249458,727.504612 338.10266,725.640247 338.275074,724.187226 C338.797241,719.79561 339.379507,715.406954 340.10069,711.042959 C341.016946,705.501159 341.969655,699.995857 337.908571,694.380074" id="Fill-12" fill="#FDFAFB" sketch:type="MSShapeGroup"></path>
                <path d="M709.882266,460.605968 C703.315764,460.417559 701.408374,461.860715 701.930542,469.154427 C702.280296,474.05307 708.100985,473.166264 710.872414,472.960099 C716.34532,472.55566 714.604433,466.672552 715.202463,463.297953 C716.018227,458.691295 711.319704,461.872552 709.882266,460.605968 M692.999507,460.316942 C693.214286,457.658496 687.582759,453.200789 683.852709,454.054057 C678.878325,455.192404 680.110837,460.789445 680.010345,464.116695 C679.845813,469.567744 685.727586,467.833588 688.511823,468.070333 C694.285222,468.560592 690.94532,462.369716 692.999507,460.316942 M687.686207,484.949248 C689.144335,480.586239 686.906897,479.921381 684.382759,479.397583 C679.419212,478.369716 674.488177,477.178101 669.509852,476.234081 C667.215271,475.799063 666.526601,474.798816 667.046798,472.524094 C669.349261,462.46836 671.636946,452.408681 673.737438,442.31053 C674.227094,439.955906 675.153202,439.342343 677.360099,439.904612 C684.183744,441.639753 691.046798,443.314723 697.135468,447.002022 C699.775862,448.601036 702.416256,449.31127 705.478325,449.19783 C712.039901,448.955166 718.542365,449.669346 725.038916,450.622244 C728.12069,451.074032 728.746305,452.362318 728.068473,455.232848 C725.81133,464.791418 723.589655,474.362811 721.680296,483.994377 C721.050739,487.169716 719.732512,487.513983 717.025123,486.783033 C713.237931,485.761085 709.361084,485.077485 705.54335,484.161085 C699.822167,482.786979 694.125616,480.875265 687.686207,484.949248" id="Fill-14" fill="#FDFAFB" sketch:type="MSShapeGroup"></path>
                <path d="M82.8256158,461.273588 C85.2876847,465.098002 82.7832512,470.378397 87.1743842,472.019827 C90.2453202,473.168039 97.3369458,467.945845 96.5901478,465.863477 C95.6098522,463.133021 97.4926108,458.246215 93.1221675,458.058792 C89.9172414,457.920691 85.7763547,458.320197 82.8256158,461.273588 M113.258128,466.403058 C114.548768,464.73894 119.68867,468.778397 119.127094,463.534501 C118.758621,460.098742 119.898522,454.388261 115.190148,453.616868 C112.44532,453.167053 106.30936,452.278274 105.839409,457.49455 C105.213793,464.435117 107.384236,466.418841 113.258128,466.403058 M112.786207,478.508607 C104.237438,474.764094 97.5142857,481.230185 89.9133005,483.588755 C78.1921182,487.225746 78.2541872,487.448681 75.6669951,475.558175 C74.1339901,468.514032 72.7241379,461.442269 71.0600985,454.429692 C70.3763547,451.545351 71.1517241,450.309346 74.0945813,449.808237 C79.2551724,448.930308 84.3458128,447.645968 89.4916256,446.673342 C93.2295567,445.967053 96.808867,445.185795 99.3960591,441.969026 C100.487685,440.611689 101.877833,439.576917 102.625616,442.583576 C103.106404,444.517978 104.75468,443.355956 105.923153,443.116252 C111.052217,442.063724 116.189163,441.039803 121.295567,439.883699 C123.650246,439.350037 125.059113,439.371739 125.644335,442.411936 C127.564532,452.379877 129.799015,462.288631 131.995074,472.201332 C132.540887,474.666436 131.759606,475.878767 129.26601,476.205277 C123.9133,476.906634 118.572414,477.69381 112.786207,478.508607" id="Fill-16" fill="#FDFAFB" sketch:type="MSShapeGroup"></path>
                <path d="M267.129163,119.143773 C266.223744,120.966708 267.691724,122.265845 268.285813,123.65672 C271.564631,131.345993 274.812906,139.060912 278.483842,146.564735 C280.068079,149.804192 279.442463,151.242417 276.216847,152.187423 C274.812906,152.597781 273.420788,153.190629 272.167586,153.942293 C270.027685,155.225647 269.054286,154.459186 268.137044,152.366954 C261.495665,137.206412 254.805025,122.066584 248.00601,106.975092 C247.044433,104.839457 247.334089,103.966461 249.431626,102.841924 C254.45133,100.149938 259.09665,98.9869297 264.320296,102.686067 C267.705517,105.082121 271.749852,106.545006 276.133103,108.743773 C275.539015,103.994081 273.422759,100.633292 271.782365,97.1699137 C270.503547,94.4710234 270.951823,93.2981504 273.713399,92.0749692 C280.918325,88.8838471 280.867094,88.7348952 284.001084,95.7474723 C290.078916,109.348459 296.083842,122.98397 302.260197,136.540567 C303.482857,139.224661 303.124236,140.385697 300.282857,141.577312 C292.920296,144.662885 292.350837,145.02984 289.980394,137.615783 C286.300591,126.107028 276.158719,123.511714 267.047389,119.259186 C266.902562,119.079655 266.757734,118.900123 266.612906,118.721578 C266.582365,118.849815 266.551823,118.979038 266.520296,119.107275 C266.723251,119.119112 266.926207,119.131936 267.129163,119.143773" id="Fill-18" fill="#FDFAFB" sketch:type="MSShapeGroup"></path>
                <path d="M209.434483,140.034328 C206.294581,140.112256 202.846305,145.232848 204.085714,147.929766 C205.374384,150.733218 206.937931,153.408434 208.294581,156.182293 C209.815764,159.293514 211.30936,159.952454 214.421675,157.479457 C222.536946,151.030136 222.685714,151.18106 214.734975,143.982047 C213.068966,142.473785 211.564532,140.692281 209.434483,140.034328 M248.362562,166.742096 C246.40197,168.266141 244.343842,169.560345 242.668966,171.238274 C239.976355,173.934205 238.044335,173.540617 236.321182,170.306091 C235.864039,169.448878 235.161576,168.720888 234.555665,167.947522 C228.147783,159.76799 228.250246,159.905105 219.945813,166.224217 C217.465025,168.112256 217.84335,169.332478 219.424631,171.289568 C221.691626,174.094007 223.710345,177.104612 226.035468,179.857756 C227.656158,181.775388 227.660099,182.730259 225.442365,184.402269 C218.608867,189.554427 218.841379,189.601776 213.574384,183.039014 C209.768473,178.296227 207.292611,172.065894 200.471921,170.433342 C199.784236,170.268607 198.951724,169.59783 199.342857,169.212133 C203.145813,165.457756 198.710345,163.386239 197.519212,160.907324 C194.95665,155.575635 192.715271,150.178841 190.994089,144.508804 C190.244335,142.036794 190.586207,140.580814 192.606897,139.092281 C197.355665,135.595364 202.064039,132.032355 206.64532,128.318422 C208.699507,126.65233 210.310345,127.046905 212.359606,128.257263 C219.785222,132.642959 226.285714,138.114723 231.662069,144.821504 C236.684729,151.086363 241.403941,157.596843 246.258128,163.99783 C246.846305,164.773169 247.442365,165.543576 248.362562,166.742096" id="Fill-20" fill="#FDFAFB" sketch:type="MSShapeGroup"></path>
                <path d="M393.45202,94.6837978 C401.620493,94.6788656 401.628374,94.6778792 400.211626,86.478619 C399.960394,85.0305302 399.47468,83.6100617 399.354483,82.1550678 C399.077635,78.8110481 397.678621,77.522762 394.051034,77.5168434 C390.51803,77.5109248 388.958424,78.5910727 388.618522,81.981455 C388.423448,83.9286806 387.912118,85.8423674 387.609655,87.7817016 C386.531823,94.6857707 386.54266,94.6877435 393.45202,94.6837978 M417.327882,94.6788656 C410.568276,102.214254 413.822463,110.277386 413.019507,117.75852 C412.844138,119.394032 414.16335,122.037682 411.822463,122.455931 C408.673695,123.019186 405.324926,123.683058 402.125911,122.640395 C401.680591,122.495388 401.617537,120.879605 401.548571,119.93164 C401.383054,117.64508 401.446108,115.335832 401.179113,113.063083 C400.881576,110.526954 402.463842,106.441134 400.31803,105.76148 C396.756453,104.632996 392.557438,105.425105 388.634286,105.581948 C386.928867,105.650999 387.351527,107.216473 387.337734,108.271961 C387.289458,112.049026 387.124926,115.840888 387.380099,119.600197 C387.576158,122.479605 386.47468,123.182935 383.790936,123.273687 C375.564335,123.549889 375.481576,123.652478 375.586995,115.515364 C375.753498,102.60291 374.235271,89.6016769 378.296355,76.9141307 C381.427389,67.1306535 381.218522,67.0635758 391.513103,67.0635758 L397.418522,67.0635758 C406.355468,67.0635758 406.273695,67.0921825 409.181084,75.4374353 C410.974187,80.5836745 412.175172,85.8759063 412.605714,91.247053 C412.832315,94.0633292 414.024433,94.7617263 417.327882,94.6788656" id="Fill-22" fill="#FDFAFB" sketch:type="MSShapeGroup"></path>
                <path d="M132.501576,514.167596 C129.989261,514.868952 126.095665,516.006313 122.172512,517.035166 C119.42867,517.754279 119.178424,519.082022 120.278916,521.613218 C124.861182,532.154279 124.929163,532.229248 134.335074,525.2364 C135.508473,524.363403 136.67399,523.474624 137.790246,522.531591 C140.060197,520.611985 137.921281,518.986338 137.267094,517.388311 C136.658227,515.897805 136.58335,513.594476 132.501576,514.167596 M105.629655,552.880296 C104.184335,553.348853 103.874975,552.660321 103.356749,551.947127 C98.4730049,545.229494 99.0158621,542.959704 106.414877,539.615684 C115.43064,535.541702 115.276946,535.609766 111.151823,526.293859 C109.792217,523.223083 108.434581,522.912355 105.734089,524.380173 C102.861182,525.941702 99.731133,527.028755 96.8611823,528.596202 C94.3035468,529.992996 92.9872906,529.718767 91.7055172,526.829494 C88.45133,519.495339 88.3744828,519.718274 95.5202956,516.153292 C101.105517,513.367596 107.942956,512.3782 111.13803,505.883502 C111.403054,505.345894 112.292709,504.631714 112.676946,505.303477 C114.96266,509.308409 117.610936,506.161677 119.821773,505.534303 C125.856256,503.824809 131.96266,502.843305 138.196158,502.410259 C140.724236,502.233687 142.418818,502.711122 143.514384,505.453416 C145.640493,510.7782 148.169557,515.9491 150.677931,521.112109 C151.655271,523.125425 151.631626,524.509396 149.972512,526.296819 C143.989261,532.745154 137.234581,538.122219 129.302562,541.913095 C121.912414,545.444538 114.429655,548.780666 106.990246,552.207546 C106.395172,552.480789 105.816847,552.787571 105.629655,552.880296" id="Fill-24" fill="#FDFAFB" sketch:type="MSShapeGroup"></path>
                <path d="M557.716552,139.206412 C560.521478,136.988903 561.507685,133.761282 562.233793,130.792109 C562.885025,128.126757 566.35202,125.332182 563.031823,122.408385 C558.686995,118.581011 557.226897,118.728977 553.464335,123.052528 C551.5333,125.27201 549.790443,127.660173 548.029852,130.022688 C547.384532,130.887793 546.130345,132.122811 547.390443,132.982984 C550.62197,135.188656 554.086995,137.052035 557.716552,139.206412 M576.443645,120.076449 C575.195369,129.071763 572.990443,137.432799 568.672217,145.104316 C564.653498,152.245129 560.362857,159.235018 556.489951,166.451788 C554.924433,169.368681 553.455468,169.833292 550.939212,167.836745 C550.050542,167.130456 549.011133,166.557337 547.956946,166.13021 C544.711626,164.813317 544.241675,162.906535 546.44069,160.198767 C547.053498,159.445129 547.429852,158.50111 547.930345,157.653761 C553.732315,147.82688 553.711626,147.87127 543.391429,142.85524 C541.489951,141.930949 540.501773,142.165721 539.580591,144.081381 C538.589458,146.14106 537.28601,148.049815 536.128374,150.028607 C531.828867,157.375586 530.561872,157.47127 523.624926,152.022195 C521.653498,150.47349 522.891921,149.465351 523.509655,148.363502 C525.832808,144.220469 528.290936,140.152404 530.699803,136.058693 C531.115567,135.352404 531.371724,134.321578 531.990443,134.001973 C535.326404,132.280641 529.020985,126.215043 536.303744,125.494945 C539.041675,125.223674 541.122463,119.717386 543.783547,116.859679 C546.458424,113.987176 549.519507,111.478668 552.341182,108.737361 C554.664335,106.481381 556.77665,106.239704 559.652512,108.165228 C564.272217,111.25672 569.235764,113.832306 574.048571,116.635758 C575.48601,117.472256 577.011133,118.276202 576.443645,120.076449" id="Fill-26" fill="#FDFAFB" sketch:type="MSShapeGroup"></path>
                <path d="M101.073695,284.419038 C98.684532,283.301406 98.1081773,285.475512 97.7308374,287.145549 C97.2549754,289.243699 94.5160591,291.620025 97.8983251,293.596843 C101.4333,295.662441 105.030345,297.624464 108.607685,299.617065 C110.596847,300.724834 111.40867,299.641726 112.190936,297.899679 C116.825419,287.573662 116.090443,286.232109 104.804729,284.864908 C103.665813,284.726806 102.526897,284.592651 101.073695,284.419038 M105.759409,315.384266 C107.371232,312.460469 106.344631,311.284636 103.925911,310.222244 C97.4372414,307.36947 91.6943842,303.31127 86.3131034,298.684883 C84.1712315,296.844192 83.3938916,295.234328 84.5889655,292.392404 C86.7426601,287.271813 88.6559606,282.022984 90.2421675,276.700173 C91.137734,273.692528 92.8904433,273.084883 95.6047291,273.037534 C104.030345,272.892528 112.290443,273.842466 120.264828,276.622244 C127.832315,279.259975 135.303251,282.180814 142.893399,284.750481 C145.403744,285.599803 146.25202,286.344562 145.234286,289.197337 C142.428374,297.061208 142.590936,297.119408 134.812611,294.272552 C125.612611,290.903872 125.792906,290.972922 122.317044,300.06984 C120.96335,303.612133 121.865813,304.948755 125.238227,305.85529 C128.38798,306.701652 131.36335,308.185253 134.49931,309.103625 C137.046108,309.849371 137.266798,310.979827 136.45202,313.390678 C133.778128,321.307818 133.893399,321.346289 125.868768,318.459975 C113.312118,313.945055 113.312118,313.945055 105.759409,315.384266" id="Fill-28" fill="#FDFAFB" sketch:type="MSShapeGroup"></path>
                <path d="M417.694877,698.095388 C417.694877,698.025351 417.789458,698.85889 417.678128,699.663822 C417.193399,703.176523 418.171724,704.766658 422.170739,704.176769 C433.602266,702.490949 432.477143,705.052725 429.68798,693.107965 C429.502759,692.314871 429.009163,691.578002 428.91064,690.783921 C428.444631,687.059137 426.367783,686.372577 422.82197,686.44656 C418.734286,686.531393 418.499803,689.025105 418.148079,691.801924 C417.922463,693.590333 417.881084,695.402417 417.694877,698.095388 M430.641675,675.426091 C433.3067,674.514624 434.758916,676.213268 436.148079,678.874673 C441.339212,688.819926 443.477143,699.494155 444.312611,710.544217 C444.70867,715.778249 444.950049,721.053711 445.835764,726.211788 C446.385517,729.412774 445.353005,730.022392 442.530345,730.413021 C434.561872,731.515857 434.476158,731.572084 433.713596,723.752602 C433.61803,722.77307 433.595369,721.78762 433.528374,720.805129 C433.041675,713.590333 433.041675,713.590333 426.038719,714.153588 C418.84069,714.732626 418.844631,714.73164 419.616059,721.996745 C419.719507,722.97529 419.757931,723.96074 419.82197,724.943231 C420.299803,732.285277 420.272217,732.116597 413.095862,733.266782 C410.043645,733.756054 408.650542,733.485771 408.527389,729.939531 C408.363842,725.199704 407.598325,720.480592 407.098818,715.751615 C407.046601,715.262343 406.849557,714.672454 407.041675,714.291689 C408.736256,710.922022 400.353005,710.042121 405.233793,705.04582 C407.42,702.806609 406.082069,697.255931 406.645616,693.250999 C407.193399,689.364439 408.279113,685.555808 408.849557,681.671221 C409.347094,678.277879 411.209163,677.109938 414.445616,676.920543 C419.676158,676.613761 424.88798,675.975536 430.641675,675.426091" id="Fill-30" fill="#FDFAFB" sketch:type="MSShapeGroup"></path>
                <path d="M483.71399,117.645179 C482.021379,117.192404 482.00266,118.849618 481.621379,119.992898 C480.324828,123.88143 478.992808,127.763058 477.864729,131.701899 C477.338621,133.535684 476.664729,133.909544 474.733695,133.457756 C465.60266,131.317189 465.735665,131.44148 468.42335,122.470826 C470.171133,116.638027 473.792808,111.003502 471.099212,104.462441 C470.882463,103.937657 470.93665,102.745055 471.586897,102.907818 C476.831232,104.219778 475.457833,99.5519605 476.297241,97.4113933 C478.385911,92.0826634 480.056847,86.5753884 481.610542,81.0582491 C482.391823,78.2843896 483.255862,77.401529 486.345517,78.4313687 C493.883448,80.9457953 493.958325,80.748508 491.604631,88.3036252 C489.947488,93.6224908 488.37803,98.9719359 486.532709,104.22471 C485.75734,106.433342 486.196749,107.307324 488.37803,108.159605 C498.709064,112.195117 498.679507,112.262195 502.064729,101.792158 C503.476552,97.4232306 505.107094,93.1134895 506.252906,88.6764982 C506.951429,85.9736621 507.873596,85.2910481 510.649951,86.1462885 C518.659803,88.6113933 518.655862,88.4742787 516.153399,96.3233539 C511.822365,109.904612 507.391823,123.457263 503.345517,137.12434 C502.110049,141.294007 500.495271,142.011147 496.546502,140.463428 C490.632217,138.146289 490.540591,138.416572 492.473596,132.271073 C493.309064,129.612626 493.859803,126.84074 494.942562,124.291788 C495.954384,121.909544 495.014483,121.040493 492.962266,120.442713 C489.977044,119.573662 487.009557,118.645425 483.71399,117.645179" id="Fill-32" fill="#FDFAFB" sketch:type="MSShapeGroup"></path>
                <path d="M157.685813,569.001332 C159.061182,576.914525 160.417833,584.834624 161.843448,592.741899 C162.137044,594.365573 162.6533,595.732774 160.862167,597.046708 C155.164631,601.225253 149.468079,605.317978 142.729163,607.760395 C140.678916,608.503181 139.546897,608.33746 138.20601,606.50762 C132.578424,598.830185 126.816847,591.251393 121.019803,583.702195 C119.708473,581.994673 119.235567,580.743872 121.49468,579.50984 C122.633596,578.887398 123.621773,577.982836 124.666108,577.188755 C131.479901,572.012922 133.087783,572.396646 137.036552,580.152996 C137.311429,580.693564 137.995172,581.061504 137.629655,581.862491 C137.036552,583.159655 134.156749,583.436843 135.725222,585.65238 C137.805025,588.590974 139.805025,591.684439 142.388276,594.129815 C143.864138,595.527596 145.539015,593.177904 147.135074,592.556449 C149.092709,591.793933 149.092709,590.211689 148.798128,588.470629 C147.595172,581.352503 146.613892,574.189001 145.167586,567.121184 C144.442463,563.574945 145.192217,561.337707 148.280887,559.315512 C152.951823,556.258545 157.534089,553.145351 162.831626,551.218841 C164.921281,550.459285 166.171527,550.485919 167.681872,552.603798 C173.109458,560.215142 178.823744,567.624266 184.520296,575.039309 C185.953793,576.904661 186.371527,578.298496 183.967586,579.616375 C182.972512,580.161874 182.130148,580.988508 181.214877,581.683946 C174.373498,586.886412 174.363645,586.89233 169.484828,579.961628 C168.514384,578.583576 166.876946,577.228212 169.507488,575.712059 C171.204039,574.734501 170.180394,573.46397 169.392217,572.40651 C167.920296,570.432651 166.405025,568.491344 164.903547,566.540173 C163.948867,565.300222 163.283842,563.395413 161.128177,564.898742 C159.609951,565.957189 157.177438,566.23635 157.685813,569.001332" id="Fill-34" fill="#FDFAFB" sketch:type="MSShapeGroup"></path>
                <path d="M675.356059,310.620764 C678.682167,309.983527 680.883153,309.382787 681.118621,305.513983 C681.575764,297.995364 682.845714,290.529026 683.621084,283.025203 C683.82798,281.022737 684.348177,279.803502 686.401379,279.000543 C692.076256,276.782047 697.843744,275.048878 703.89399,274.241973 C706.538325,273.889815 708.056552,274.643453 709.052611,277.355166 C712.214187,285.963798 715.563941,294.506338 719.055567,302.986732 C720.11468,305.559359 719.660493,306.821998 717.021084,307.472059 C715.913695,307.745302 714.85064,308.2109 713.78266,308.629149 C706.082167,311.644686 704.25064,310.632602 702.783645,302.486609 C702.676256,301.892774 702.563941,301.093761 702.858522,300.674525 C703.67133,299.51349 706.441773,299.846905 705.49202,297.331492 C704.276256,294.11275 703.121576,290.850604 701.592512,287.780814 C700.767882,286.127546 699.019113,287.135684 697.628966,287.367497 C695.523547,287.719655 694.783645,288.858002 694.626995,291.041973 C694.098916,298.401776 693.156059,305.733958 692.680197,313.095734 C692.496946,315.930752 691.610246,317.52582 688.858522,318.530999 C683.151133,320.614353 677.400394,322.410654 671.376749,323.301406 C668.481182,323.730506 666.686108,323.241233 665.544236,319.945549 C662.647685,311.593391 659.35803,303.368483 655.941281,295.212626 C654.665419,292.168483 655.237833,290.697707 658.364926,289.988459 C659.309754,289.773416 660.189557,289.272306 661.100887,288.908311 C668.552118,285.930259 668.551133,285.931245 671.264433,293.435068 C671.911724,295.227423 673.254581,297.117435 670.107783,298.05455 C669.001379,298.38402 668.919606,299.520395 669.320591,300.546289 C670.453596,303.445425 671.724532,306.296227 672.717635,309.241726 C673.347192,311.106091 674.632906,310.594131 675.356059,310.620764" id="Fill-36" fill="#FDFAFB" sketch:type="MSShapeGroup"></path>
                <path d="M645.91665,270.962072 C639.653596,261.748755 639.763941,261.857263 647.563941,253.923354 C649.586601,251.866634 654.044729,250.487596 650.824039,245.742836 C646.847685,239.883403 647.085123,239.719655 640.983645,243.636794 C639.879212,244.345055 638.787586,245.073046 637.685123,245.784266 C632.036847,249.432109 632.295961,249.238767 628.196453,243.657509 C625.645714,240.186239 626.348177,238.650358 629.840788,236.790925 C633.881182,234.639507 637.583645,231.858742 641.493005,229.449864 C642.943251,228.557139 643.841773,227.343822 644.802365,225.974649 C645.849655,224.48217 645.741281,219.817312 649.707783,223.546042 C650.459507,224.25233 651.723547,222.845672 652.66936,222.244932 C658.342266,218.635561 664.072315,215.109051 669.649655,211.356646 C671.809261,209.903625 672.96197,209.756646 674.564926,212.226683 C679.159015,219.306338 679.291034,219.22545 672.021084,223.851837 C667.870345,226.493514 663.633892,229.011887 659.595468,231.816326 C658.193498,232.790925 654.768867,233.285129 657.210246,236.333218 C659.006305,238.576375 659.243744,242.778594 664.283153,240.894501 C670.740296,238.479704 677.222069,236.150727 683.259507,232.83926 C685.859507,231.412873 687.086108,231.755166 688.655567,234.21238 C693.113695,241.190432 693.223054,241.120395 685.979704,244.568977 C679.008276,247.887349 671.042759,249.219038 664.527488,252.808681 C658.291034,256.245425 654.755074,263.912996 648.918621,268.665647 C648.030936,269.388705 647.100887,270.059482 645.91665,270.962072" id="Fill-38" fill="#FDFAFB" sketch:type="MSShapeGroup"></path>
                <path d="M229.280887,619.864168 C222.582365,626.325327 215.318325,632.150234 207.225714,636.855536 C204.98532,638.158619 203.584335,639.519901 202.747882,642.175388 C200.815862,648.310037 197.169557,653.642713 193.684828,659.021751 C192.518325,660.82397 191.766601,660.534945 190.301576,659.379827 C183.421773,653.952454 183.386305,653.999803 187.970542,646.487102 C188.567586,645.507571 189.165616,644.529026 189.74197,643.538644 C192.892709,638.119162 191.831626,634.696227 186.36069,631.763551 C184.372512,630.697213 183.674975,632.136424 182.747882,633.144562 C179.531133,636.642466 176.380394,640.199556 173.208966,643.729026 C164.061182,636.10979 164.07399,636.120641 172.055271,627.38476 C175.444433,623.674772 179.705517,620.494501 179.782365,614.713983 C179.790246,614.123107 180.223744,612.545795 180.965616,613.109051 C185.267094,616.372182 185.871034,611.619531 187.526207,609.985993 C191.606995,605.959359 195.412906,601.634821 199.111429,597.246165 C200.929163,595.088829 202.110443,594.52656 204.476946,596.745055 C210.27202,602.176375 210.411921,602.058989 205.186305,608.05455 C201.845419,611.888829 198.350837,615.593884 195.132118,619.526806 C194.080887,620.81016 190.689754,621.862688 193.781379,624.403748 C196.14,626.343083 197.8267,629.940617 201.956749,627.020764 C207.320296,623.229889 212.770542,619.510037 217.368571,614.838274 C220.358719,611.801036 222.379409,612.229149 224.798128,615.158866 C226.146897,616.792404 227.720296,618.240493 229.280887,619.864168" id="Fill-40" fill="#FDFAFB" sketch:type="MSShapeGroup"></path>
                <path d="M230.986798,649.445623 C234.288276,651.719359 235.663645,650.131196 236.992709,647.652281 C239.39468,643.1709 242.117833,638.862145 244.509951,634.375832 C245.680394,632.180025 246.626207,631.6582 249.001576,633.075709 C257.724729,638.28508 266.583842,643.267571 275.43803,648.253021 C280.545419,651.128483 275.602562,653.337115 274.95133,655.736128 C274.204532,658.48434 272.699113,659.122565 269.940493,657.340074 C264.995665,654.142047 259.649852,651.56942 254.676453,648.410851 C251.906995,646.652035 250.628177,647.118619 249.063645,649.928977 C245.096158,657.051048 244.958227,656.974106 252.239015,661.120099 C252.667586,661.363748 253.135567,661.555117 253.518818,661.85598 C255.036059,663.048582 258.292217,663.546732 257.978916,665.168434 C257.448867,667.91566 255.53064,670.463625 253.90601,672.902096 C252.992709,674.27127 251.81931,672.909001 250.918818,672.417756 C248.183842,670.924291 245.486305,669.35783 242.833103,667.722318 C240.779901,666.457707 239.622266,666.630333 238.206502,668.953391 C233.604532,676.498644 233.466601,676.421702 241.207488,680.904069 C245.035074,683.120592 248.820296,685.421948 252.736552,687.47275 C255.082365,688.700863 255.673498,689.727744 254.15133,692.302343 C250.550345,698.395561 250.717833,698.504069 244.744433,695.077189 C237.211429,690.756597 229.729655,686.341307 222.131626,682.138101 C219.376946,680.614057 218.256749,679.366215 220.459704,676.276695 C223.01734,672.689026 224.859704,668.600247 227.161182,664.819236 C229.914877,660.295438 232.758227,655.848582 230.986798,649.445623" id="Fill-42" fill="#FDFAFB" sketch:type="MSShapeGroup"></path>
                <path d="M690.377931,550.515709 C678.06266,550.388459 667.431133,545.165277 656.698128,540.266634 C654.465616,539.247645 652.24197,538.207941 649.99665,537.215586 C643.220296,534.219778 643.50798,534.337164 646.141478,527.389692 C647.558227,523.65307 648.974975,523.875018 652.139507,525.221504 C663.250837,529.951467 673.736552,536.19857 685.764138,538.778101 C689.43803,539.566264 690.807488,538.630136 692.409458,535.454797 C694.200591,531.902639 692.995665,530.322367 690.253793,528.297213 C680.506995,521.09524 669.116847,517.218545 658.269557,512.292281 C654.317833,510.497953 654.110936,508.908804 656.04197,505.508557 C657.741478,502.516695 657.871527,498.470333 663.306995,501.403009 C674.079409,507.216079 686.054778,510.656769 695.940493,518.285869 C707.347389,527.088829 707.423251,526.991171 701.702069,539.92434 C700.906995,541.721628 699.933596,543.462688 699.345419,545.326067 C697.890246,549.936671 695.188768,552.160099 690.377931,550.515709" id="Fill-44" fill="#FDFAFB" sketch:type="MSShapeGroup"></path>
                <path d="M612.869261,600.967398 C610.967783,602.767645 609.37665,604.43275 607.617044,605.894649 C605.871232,607.34471 604.375665,609.767398 601.601281,606.791319 C599.963842,605.034476 598.794384,607.450259 597.699803,608.424858 C591.464335,613.975536 591.516552,613.968631 597.109655,620.073687 C602.201281,625.63127 607.319507,631.171097 612.206207,636.907226 C614.150049,639.18984 615.617044,639.536079 617.716552,637.311665 C619.172709,635.768878 620.867291,634.451985 622.44266,633.021652 C623.785517,631.802417 625.212118,630.83275 623.247586,628.708952 C621.168768,626.460863 624.127389,625.656917 625.141182,624.636942 C630.400296,619.348656 630.461379,619.409815 635.389458,624.685277 C640.833793,630.512158 640.829852,630.508212 634.944138,635.840888 C628.629852,641.562219 622.255468,647.218446 616.056453,653.06111 C614.166798,654.842614 613.115567,655.408829 611.061379,653.091689 C600.300788,640.950629 589.410148,628.924982 578.405222,617.006856 C576.37665,614.811048 576.186502,613.653958 578.549064,611.604143 C585.35399,605.699334 592.010148,599.614007 598.55399,593.419186 C600.535271,591.542984 601.964828,591.411788 603.93133,593.216967 C606.807192,595.857657 609.825911,598.342491 612.869261,600.967398" id="Fill-46" fill="#FDFAFB" sketch:type="MSShapeGroup"></path>
                <path d="M134.14867,216.080197 C133.100394,217.824217 132.310246,219.701406 131.035369,221.151467 C127.39399,225.292528 129.085616,227.368977 133.290542,229.756153 C143.531921,235.572182 153.447192,241.963305 163.608768,247.926313 C166.162463,249.425697 166.574286,250.436794 164.887586,253.083403 C160.558522,259.873046 160.725025,259.980567 153.638325,255.678718 C144.262956,249.987965 134.832414,244.38402 125.547685,238.548261 C122.77133,236.803255 121.004828,236.601036 119.665911,239.992404 C119.132906,241.342836 117.9467,242.438767 117.430443,243.793144 C116.020591,247.487349 114.26,246.833342 111.201872,245.328039 C106.629458,243.075018 106.401872,241.046905 109.157537,236.96799 C114.009754,229.785746 118.605813,222.374649 122.608768,214.694254 C125.048177,210.015586 127.320099,209.919901 130.838325,212.975882 C131.97133,213.960345 133.997931,214.01164 134.14867,216.080197" id="Fill-48" fill="#FDFAFB" sketch:type="MSShapeGroup"></path>
                <path d="M324.732709,86.2389149 C322.309064,86.7893465 320.448966,86.9343527 318.826305,87.6337361 C314.554384,89.4754131 313.418424,87.5084587 312.481478,83.6090752 C311.500197,79.5212824 312.213498,78.0386683 316.574089,77.2436005 C326.04601,75.5173366 335.439113,73.2712207 344.762266,70.8445869 C350.51399,69.3471763 348.644039,74.1254747 349.601675,76.3252281 C350.549458,78.5032799 350.925813,80.4791122 347.061773,81.2317633 C337.942562,83.007349 337.969163,83.3358323 339.988867,92.381455 C342.308079,102.765672 344.553399,113.171591 347.148473,123.487744 C347.932709,126.605869 347.598719,127.716597 344.229261,128.394279 C336.594778,129.929174 336.664729,130.145203 334.883448,122.334599 C332.373103,111.325968 329.821379,100.327201 327.287389,89.3244883 C326.892315,87.6120345 326.969163,85.3688779 324.732709,86.2389149" id="Fill-50" fill="#FDFAFB" sketch:type="MSShapeGroup"></path>
                <path d="M301.536256,673.095339 C301.897833,671.081036 301.084039,670.694353 300.056453,670.363896 C298.502759,669.863773 297.02197,668.931591 295.443645,668.746141 C289.835764,668.085228 290.369754,665.172281 291.814089,660.974994 C293.035764,657.425795 294.349064,657.129864 297.667291,658.378693 C306.845616,661.83418 316.165813,664.924686 325.494877,667.959951 C328.183547,668.83492 329.149064,669.701011 327.920493,672.676104 C324.770739,680.308163 326.741182,679.739975 318.970739,676.698792 C314.062365,674.7782 312.634778,676.098052 311.224926,680.698792 C307.917537,691.490407 303.888966,702.058101 300.409163,712.799408 C299.19931,716.532084 297.820985,718.621356 293.743153,716.150333 C292.924433,715.654155 291.919507,715.359211 290.962857,715.215191 C287.805222,714.736769 287.624926,713.211739 288.615074,710.435906 C292.796355,698.724932 296.749064,686.931097 300.788473,675.168829 C301.1067,674.243551 301.451527,673.328138 301.536256,673.095339" id="Fill-52" fill="#FDFAFB" sketch:type="MSShapeGroup"></path>
                <path d="M676.891232,584.917879 C676.509951,585.577805 676.174975,586.316646 675.702069,586.951911 C671.106995,593.123058 666.424236,599.231073 661.917833,605.465351 C660.673498,607.18767 659.90601,607.411591 658.119803,606.062145 C644.674483,595.899877 631.144433,585.852035 617.618325,575.800247 C616.221281,574.762515 615.854778,574.029593 616.940493,572.274723 C621.864631,564.315166 621.792709,564.243157 629.298128,569.836252 C638.088276,576.388163 646.882365,582.934155 655.603547,589.576819 C657.889261,591.317879 659.514877,591.960049 661.244926,588.839951 C662.580887,586.431073 664.830148,584.529223 666.170049,582.120345 C668.182857,578.499137 670.257734,578.560296 672.876453,581.28582 C674.095172,582.554377 676.044926,583.014057 676.891232,584.917879" id="Fill-54" fill="#FDFAFB" sketch:type="MSShapeGroup"></path>
                <path d="M204.95399,202.265746 C204.395369,202.916794 203.775665,203.669445 203.124433,204.392503 C198.289951,209.751813 193.340197,215.012478 188.662365,220.504957 C186.739212,222.76291 185.638719,222.415684 183.649557,220.572035 C171.859409,209.649223 159.967783,198.83492 148.014089,188.09164 C145.845616,186.142441 144.989458,184.979433 147.524433,182.391023 C153.113596,176.686461 152.892906,176.547374 158.756946,181.947127 C166.839704,189.391763 175.084039,196.665746 183.052512,204.230727 C185.728374,206.771788 187.424926,206.845771 189.527389,203.770062 C190.810148,201.893859 192.488966,200.240592 194.195369,198.71852 C195.48601,197.568335 196.48798,194.740222 198.053498,195.516547 C200.589458,196.773268 202.537241,199.227522 204.703744,201.208286 C204.885025,201.374994 204.848571,201.781406 204.95399,202.265746" id="Fill-56" fill="#FDFAFB" sketch:type="MSShapeGroup"></path>
                <path d="M506.34532,714.567497 C506.713793,716.018545 505.581773,716.193144 504.674384,716.443699 C496.946305,718.575388 489.197537,720.639014 481.482266,722.817065 C479.584729,723.3527 478.876355,722.661208 478.407389,720.919162 C474.026108,704.629149 469.601478,688.351961 465.157143,672.079704 C464.686207,670.3564 465.062562,669.491295 466.871429,668.788952 C475.202463,665.55344 475.524631,665.670826 477.891133,674.392898 C480.808374,685.145055 483.850739,695.863674 486.600493,706.658249 C487.361084,709.63926 488.5,710.410654 491.321675,709.258496 C493.276355,708.460469 495.395567,708.062935 497.443842,707.497707 C503.829064,705.735931 506.581773,707.923847 506.34532,714.567497" id="Fill-58" fill="#FDFAFB" sketch:type="MSShapeGroup"></path>
                <path d="M560.810739,689.960148 C561.156552,691.933021 559.774286,692.106634 558.833399,692.572232 C551.935862,695.987275 544.990049,699.308607 538.130936,702.799605 C536.098424,703.834377 535.297438,703.134994 534.428473,701.338693 C527.149655,686.274821 519.831429,671.230678 512.430443,656.226979 C511.489557,654.320197 511.756552,653.524143 513.646207,652.486412 C521.467882,648.191467 521.451133,648.101702 525.384138,656.098742 C530.158522,665.805277 535.007783,675.477287 539.558522,685.288385 C541.028473,688.458792 542.359507,689.790481 545.629458,687.505894 C547.359507,686.296523 549.339803,685.332774 551.342759,684.66397 C553.249163,684.027719 555.233399,681.328829 556.976256,682.998866 C558.873793,684.816868 559.676749,687.77815 560.810739,689.960148" id="Fill-60" fill="#FDFAFB" sketch:type="MSShapeGroup"></path>
                <path d="M407.30798,533.654057 C412.356256,524.849125 416.976946,517.302885 420.050837,508.993144 C423.398621,499.943576 422.386798,497.8691 413.050837,495.277731 C401.308966,492.019531 389.276453,492.289815 377.358227,493.482417 C341.288276,497.090801 307.967094,509.634328 275.722759,525.540617 C272.63803,527.062688 271.839015,527.923847 274.875468,530.734205 C319.938522,572.435808 372.736552,588.707078 433.137537,577.905598 C521.057734,562.183773 584.823251,479.989938 578.824236,391.17021 C575.580887,343.141603 556.993695,302.021998 521.304039,269.806954 C470.615369,224.05307 411.70601,211.385253 346.133596,229.98254 C335.517833,232.993144 325.33064,237.307818 315.400591,243.080444 C316.236059,243.357633 316.541478,243.476991 316.855764,243.559852 C349.798621,252.256276 382.659704,261.217065 414.413399,273.760592 C432.390739,280.862935 448.635074,290.311023 459.709951,306.913736 C462.121773,310.530999 465.83803,312.792898 469.536552,314.962072 C481.582857,322.027916 493.009458,329.919408 503.618325,339.074525 C546.840985,376.374649 552.157241,436.537411 515.456749,479.821258 C487.48335,512.813613 449.709951,526.62471 407.30798,533.654057 M469.573005,463.000543 C499.851823,440.658742 500.649852,399.802515 471.640985,378.748015 C452.773005,365.053317 434.313892,350.94037 418.233103,333.851344 C409.386798,324.450604 397.390739,319.854797 385.471527,315.546042 C352.031133,303.459236 317.701084,294.245919 283.668571,284.075758 C262.018325,277.605721 240.304039,271.350727 218.584828,265.117435 C214.981872,264.08365 214.054778,263.08143 216.73064,259.72656 C255.601576,210.997583 305.457734,180.766264 367.343448,172.560099 C444.814384,162.288335 511.698128,185.47058 566.368079,241.315709 C603.906995,279.661455 625.010443,326.385993 629.679409,380.006708 C635.524729,447.147522 616.101084,506.430382 571.204532,556.551221 C532.720788,599.511517 484.269557,624.687349 426.829163,631.213613 C360.747389,638.721381 301.850837,620.873785 250.623251,578.484636 C223.792709,556.283896 203.499113,528.867867 189.015369,497.153933 C187.900099,494.712503 187.04197,493.166757 190.588768,491.644686 C227.028177,476.014599 263.494187,460.465401 301.250837,448.207941 C308.082365,445.990432 314.960197,443.85381 322.400591,443.300419 C307.820296,452.493021 295.17399,463.677238 285.28335,477.79709 C285.195665,478.151221 285.105025,478.503379 285.014384,478.856523 L285.904039,478.407694 C299.932611,472.089568 313.801576,465.417312 328.266601,460.096473 C356.04197,449.880937 384.254778,441.604735 414.050837,440.171443 C426.873498,439.55492 439.61734,440.044192 452.071527,443.578594 C454.112906,444.157633 456.141478,444.836301 458.094187,445.661948 C467.927685,449.820764 469.179901,451.803502 468.86266,462.346535 C468.290246,462.573416 468.270542,462.993637 468.465616,463.487842 C468.834089,463.326067 469.203547,463.163305 469.573005,463.000543" id="Fill-62" fill="#CC0B30" sketch:type="MSShapeGroup"></path>
                <path d="M319.760197,330.768533 C327.221281,322.427226 336.391724,321.184316 346.488276,323.946338 C353.99468,326.000099 360.785813,329.673588 367.486305,333.461504 C375.948374,338.245721 384.984828,340.915018 394.634089,341.078767 C398.184828,341.13894 398.095172,342.463724 397.665616,345.173465 C394.578916,364.633884 381.645911,373.427965 365.639015,372.409963 C344.477438,371.06545 332.057734,358.500222 331.97202,339.398866 C331.92867,329.882713 331.92867,329.879753 322.143448,330.517978 C321.346404,330.569273 320.554286,330.683699 319.760197,330.768533" id="Fill-64" fill="#CC0B30" sketch:type="MSShapeGroup"></path>
                <path d="M361.916552,697.333169 C359.808177,695.702589 354.223941,699.109741 354.542167,693.77312 C354.715567,690.863132 352.049557,684.759063 358.32936,684.762022 C361.542167,684.763009 367.151034,683.059433 368.089951,687.890012 C369.073202,692.954377 365.383547,697.464365 361.916552,697.333169" id="Fill-66" fill="#CC0B30" sketch:type="MSShapeGroup"></path>
                <path d="M363.722365,714.841726 C362.371626,716.090555 366.142069,720.315462 361.583448,719.873539 C358.051429,719.531245 352.406108,721.483403 351.494778,716.583773 C351.03665,714.118668 349.293793,707.930752 354.781478,707.159359 C361.9933,706.146289 363.442562,707.827176 363.722365,714.841726" id="Fill-68" fill="#CC0B30" sketch:type="MSShapeGroup"></path>
                <path d="M692.99931,460.317041 C690.946108,462.369815 694.285025,468.560691 688.511626,468.069445 C685.728374,467.833687 679.845616,469.567842 680.011133,464.116794 C680.111626,460.789544 678.878128,455.192503 683.852512,454.054155 C687.582562,453.199901 693.214089,457.658594 692.99931,460.317041" id="Fill-70" fill="#CC0B30" sketch:type="MSShapeGroup"></path>
                <path d="M709.882266,460.605968 C711.319704,461.872552 716.018227,458.691295 715.202463,463.297953 C714.604433,466.672552 716.34532,472.55566 710.872414,472.960099 C708.100985,473.166264 702.280296,474.05307 701.930542,469.154427 C701.408374,461.860715 703.315764,460.417559 709.882266,460.605968" id="Fill-72" fill="#CC0B30" sketch:type="MSShapeGroup"></path>
                <path d="M113.257833,466.403255 C107.383941,466.419038 105.213498,464.435314 105.839113,457.494747 C106.309064,452.277485 112.44601,453.16725 115.189852,453.617065 C119.898227,454.387472 118.758325,460.097953 119.126798,463.534698 C119.68936,468.778594 114.549458,464.739137 113.257833,466.403255" id="Fill-74" fill="#CC0B30" sketch:type="MSShapeGroup"></path>
                <path d="M82.8256158,461.273588 C85.7763547,458.320197 89.9172414,457.920691 93.1221675,458.058792 C97.4926108,458.246215 95.6098522,463.133021 96.5901478,465.863477 C97.3369458,467.945845 90.2453202,473.168039 87.1743842,472.019827 C82.7832512,470.378397 85.2876847,465.098002 82.8256158,461.273588" id="Fill-76" fill="#CC0B30" sketch:type="MSShapeGroup"></path>
                <path d="M267.129163,119.143773 C266.926207,119.131936 266.723251,119.119112 266.520296,119.107275 C266.551823,118.979038 266.582365,118.849815 266.612906,118.721578 C266.757734,118.900123 266.902562,119.079655 267.047389,119.259186 C267.047389,119.2582 267.129163,119.143773 267.129163,119.143773" id="Fill-78" fill="#CC0B30" sketch:type="MSShapeGroup"></path>
                <path d="M209.434483,140.034328 C211.564532,140.692281 213.068966,142.473785 214.734975,143.982047 C222.685714,151.18106 222.536946,151.030136 214.421675,157.479457 C211.30936,159.952454 209.815764,159.293514 208.294581,156.182293 C206.937931,153.408434 205.374384,150.733218 204.085714,147.929766 C202.846305,145.232848 206.294581,140.112256 209.434483,140.034328" id="Fill-80" fill="#CC0B30" sketch:type="MSShapeGroup"></path>
                <path d="M393.45202,94.6837978 C386.54266,94.6877435 386.531823,94.6857707 387.609655,87.7817016 C387.912118,85.8423674 388.423448,83.9286806 388.618522,81.981455 C388.958424,78.5910727 390.51803,77.5109248 394.051034,77.5168434 C397.678621,77.522762 399.077635,78.8110481 399.354483,82.1550678 C399.47468,83.6100617 399.960394,85.0305302 400.211626,86.478619 C401.628374,94.6778792 401.620493,94.6788656 393.45202,94.6837978" id="Fill-82" fill="#CC0B30" sketch:type="MSShapeGroup"></path>
                <path d="M132.501576,514.167596 C136.58335,513.594476 136.658227,515.897805 137.267094,517.388311 C137.921281,518.986338 140.060197,520.611985 137.790246,522.531591 C136.67399,523.474624 135.508473,524.363403 134.335074,525.2364 C124.929163,532.229248 124.861182,532.154279 120.278916,521.613218 C119.178424,519.082022 119.42867,517.754279 122.172512,517.035166 C126.095665,516.006313 129.989261,514.868952 132.501576,514.167596" id="Fill-84" fill="#CC0B30" sketch:type="MSShapeGroup"></path>
                <path d="M557.716552,139.206412 C554.086995,137.052035 550.62197,135.188656 547.390443,132.982984 C546.130345,132.122811 547.384532,130.887793 548.029852,130.022688 C549.790443,127.660173 551.5333,125.27201 553.464335,123.052528 C557.226897,118.728977 558.686995,118.581011 563.031823,122.408385 C566.35202,125.332182 562.885025,128.126757 562.233793,130.792109 C561.507685,133.761282 560.521478,136.988903 557.716552,139.206412" id="Fill-86" fill="#CC0B30" sketch:type="MSShapeGroup"></path>
                <path d="M101.073695,284.419038 C102.526897,284.592651 103.665813,284.726806 104.804729,284.864908 C116.090443,286.232109 116.825419,287.573662 112.190936,297.899679 C111.40867,299.641726 110.596847,300.724834 108.607685,299.617065 C105.030345,297.624464 101.4333,295.662441 97.8983251,293.596843 C94.5160591,291.620025 97.2549754,289.243699 97.7308374,287.145549 C98.1081773,285.475512 98.684532,283.301406 101.073695,284.419038" id="Fill-88" fill="#CC0B30" sketch:type="MSShapeGroup"></path>
                <path d="M417.694877,698.095388 C417.881084,695.402417 417.922463,693.590333 418.148079,691.801924 C418.499803,689.025105 418.734286,686.531393 422.82197,686.44656 C426.367783,686.372577 428.444631,687.059137 428.91064,690.783921 C429.009163,691.578002 429.502759,692.314871 429.68798,693.107965 C432.477143,705.052725 433.602266,702.490949 422.170739,704.176769 C418.171724,704.766658 417.193399,703.176523 417.678128,699.663822 C417.789458,698.85889 417.694877,698.025351 417.694877,698.095388" id="Fill-90" fill="#CC0B30" sketch:type="MSShapeGroup"></path>
                <path d="M407.30798,533.654057 C449.709951,526.62471 487.48335,512.813613 515.456749,479.821258 C552.157241,436.537411 546.840985,376.374649 503.618325,339.074525 C493.009458,329.919408 481.582857,322.027916 469.536552,314.962072 C465.83803,312.792898 462.121773,310.530999 459.709951,306.913736 C448.635074,290.311023 432.390739,280.862935 414.413399,273.760592 C382.659704,261.217065 349.798621,252.256276 316.855764,243.559852 C316.541478,243.476991 316.236059,243.357633 315.400591,243.080444 C325.33064,237.307818 335.517833,232.993144 346.133596,229.98254 C411.70601,211.385253 470.615369,224.05307 521.304039,269.806954 C556.993695,302.021998 575.580887,343.141603 578.824236,391.17021 C584.823251,479.989938 521.057734,562.183773 433.137537,577.905598 C372.736552,588.707078 319.938522,572.435808 274.875468,530.734205 C271.839015,527.923847 272.63803,527.062688 275.722759,525.540617 C307.967094,509.634328 341.288276,497.090801 377.358227,493.482417 C389.276453,492.289815 401.308966,492.019531 413.050837,495.277731 C422.386798,497.8691 423.398621,499.943576 420.050837,508.993144 C416.976946,517.302885 412.356256,524.849125 407.30798,533.654057" id="Fill-92" fill="#FEFDFE" sketch:type="MSShapeGroup"></path>
                <path d="M469.572906,463.000543 C469.203448,463.163305 468.83399,463.326067 468.465517,463.487842 C468.270443,462.993637 468.290148,462.573416 468.862562,462.346535 C469.107882,462.554673 469.344335,462.773662 469.572906,463.000543" id="Fill-94" fill="#FEFDFE" sketch:type="MSShapeGroup"></path>
                <path d="M285.904138,478.407398 L285.014483,478.856227 C285.105123,478.504069 285.195764,478.150925 285.283448,477.797781 C285.499212,477.989149 285.707094,478.192355 285.904138,478.407398" id="Fill-96" fill="#FEFDFE" sketch:type="MSShapeGroup"></path>
            </g>
        </g>
    </g>
</svg>