<?xml version="1.0" encoding="UTF-8" standalone="no"?>
<svg width="800px" height="800px" viewBox="0 0 800 800" version="1.1" xmlns="http://www.w3.org/2000/svg" xmlns:xlink="http://www.w3.org/1999/xlink" xmlns:sketch="http://www.bohemiancoding.com/sketch/ns">
    <!-- Generator: Sketch 3.4.4 (17249) - http://www.bohemiancoding.com/sketch -->
    <title>heat</title>
    <desc>Created with Sketch.</desc>
    <defs>
        <path id="path-1" d="M0,0 L764,0 L764,800 L0,800"></path>
    </defs>
    <g id="Page-1" stroke="none" stroke-width="1" fill="none" fill-rule="evenodd" sketch:type="MSPage">
        <g id="heat" sketch:type="MSArtboardGroup">
            <g id="Page-1" sketch:type="MSLayerGroup" transform="translate(18.000000, 0.000000)">
                <g id="Group-3">
                    <mask id="mask-2" sketch:name="Clip 2" fill="white">
                        <use xlink:href="#path-1"></use>
                    </mask>
                    <g id="Clip-2"></g>
                    <path d="M83.1541441,681.693653 C87.3219989,691.474987 92.3786972,700.352853 98.4170715,708.669653 C115.210133,731.798187 135.900021,750.57792 160.510211,765.13152 C164.130675,767.27232 164.424111,766.23232 164.490267,762.783787 C164.723949,750.436053 160.756697,739.124053 156.541893,727.788587 C154.885848,723.337387 152.032585,721.319253 147.640653,719.904853 C130.019569,714.228053 113.155016,706.80192 98.3413117,695.498453 C92.9218201,691.362987 88.1959039,686.32192 83.1541441,681.693653 M590.633675,87.8717867 C593.835859,104.749653 587.029217,117.07712 573.919574,126.71872 C569.913909,129.664853 565.833552,132.511787 561.880172,135.526187 C555.62839,140.295253 551.996189,146.45632 551.568306,154.50432 C551.257798,160.34432 550.570625,166.17472 549.82263,171.97952 C548.580597,181.612587 548.502703,181.604053 558.013222,183.180587 C558.538206,183.268053 559.086664,183.258453 559.595641,183.399253 C561.469362,183.917653 562.113854,183.06112 562.322993,181.295787 C563.300401,173.036587 568.505418,167.588053 574.784943,162.914987 C581.336563,158.039253 588.041837,153.36512 594.48782,148.354987 C602.486345,142.140587 607.43634,134.148053 606.768373,123.66912 C605.886999,109.871787 599.438882,98.4349867 590.633675,87.8717867 M542.712949,91.47072 C540.508446,101.25312 537.15901,109.06112 532.508854,116.368853 C523.002602,131.309653 509.869485,142.53952 495.952094,153.076053 C488.595926,158.64512 481.558803,164.631253 475.357172,172.08512 C493.557658,174.250453 510.968535,176.11712 528.302585,178.537387 C532.353066,179.10272 533.907742,177.796053 535.543513,174.599253 C546.377161,153.42272 548.016133,130.874453 545.715597,107.74272 C545.220491,102.758187 545.110585,97.64672 542.712949,91.47072 M303.044228,788.032853 C294.511116,785.386453 286.7292,783.132587 279.050787,780.566187 C250.593921,771.05472 226.85977,754.438187 206.904004,732.23232 C205.256496,730.399787 203.50015,729.577387 200.956328,729.40352 C192.836161,728.848853 184.682915,728.28352 176.659848,726.996053 C172.041703,726.25472 171.317183,726.854187 172.94015,731.284053 C177.556161,743.88352 180.042362,756.927787 178.833407,770.37632 C178.551708,773.513387 179.13858,774.647253 181.921418,775.871787 C215.377362,790.588587 250.321826,795.07712 286.454971,791.138987 C291.751753,790.56192 297.220328,790.19392 303.044228,788.032853 M560.458876,275.85472 C552.919178,275.247787 547.095278,278.102187 542.529418,283.943253 C539.485155,287.839787 538.650731,292.656853 536.563602,296.934187 C532.022284,306.23872 520.824775,308.224853 514.766127,300.486187 C510.526781,295.069653 508.680803,288.412587 509.581384,281.513387 C510.736988,272.665387 516.438178,266.85632 524.039764,262.976853 C531.416206,259.212587 539.038066,255.92512 547.500753,251.986987 C534.575708,249.38112 522.434937,248.32192 510.46596,246.262187 C505.041133,245.328853 502.190004,247.575253 499.600301,251.420587 C491.53882,263.391787 484.905038,276.092587 479.862211,289.632853 C466.048323,326.72512 469.00082,365.568853 467.560317,405.469653 C468.52172,402.99392 468.991217,401.901653 469.373217,400.77952 C474.731887,385.017387 484.229602,372.56512 499.056111,364.685653 C504.666602,361.70432 510.776468,359.674453 516.591831,357.062187 C531.872898,350.201387 543.212323,340.288853 544.552524,322.092587 C544.879038,317.668053 544.872636,313.24672 545.210887,308.834987 C546.190429,296.057387 547.509289,283.447253 560.458876,275.85472 M521.607982,7.61152 C514.64982,8.37952 508.926222,9.92405333 503.40963,12.2781867 C486.037166,19.6925867 481.697518,28.0957867 485.92406,46.1341867 C486.247373,47.51232 486.788362,48.8392533 487.152222,50.20992 C489.337518,58.4200533 492.961183,66.2077867 494.378211,74.6397867 C495.82725,83.2648533 493.213004,88.5501867 485.610351,92.6888533 C480.542982,95.44832 474.989044,96.6077867 469.405228,97.64352 C452.502261,100.77952 436.421982,106.210987 421.871837,115.47712 C403.529435,127.158187 390.461407,142.922453 385.168893,164.46592 C384.517999,167.111253 384.224563,168.59392 387.963468,168.55872 C410.158949,168.35392 432.311747,169.629653 454.462412,170.844587 C456.264641,170.943787 457.943094,171.03552 459.371859,169.54112 C470.689943,157.70112 484.07168,148.217387 496.257267,137.360853 C510.983474,124.239787 517.826396,108.364587 515.502384,88.5565867 C514.322239,78.5000533 512.327943,68.5885867 510.932256,58.58112 C508.434317,40.6792533 506.576602,22.81472 521.607982,7.61152 M501.214731,371.753387 C504.276066,373.927253 506.509379,372.324053 508.905949,372.073387 C526.0522,370.27712 543.121625,367.856853 560.080077,364.743253 C590.881228,359.087787 621.323854,352.098987 649.998396,339.034453 C659.722323,334.60352 669.081323,329.50592 676.630625,321.68512 C684.593937,313.437653 684.742256,306.976853 676.898451,298.534187 C671.016932,292.202453 663.729055,287.74272 656.109328,283.850453 C630.259239,270.647253 602.450066,263.408853 574.321848,257.16032 C572.749032,256.81152 571.187954,256.290987 570.129451,258.180053 C568.131954,261.74272 565.041809,264.431787 562.131993,267.538987 C566.617826,269.414187 571.403496,268.937387 575.619368,271.126187 C561.108703,280.393387 551.955641,292.380587 552.596932,310.14912 C552.699368,312.980053 552.411267,315.82272 552.326971,318.66112 C551.771044,337.279787 543.674351,351.366187 527.010401,360.058453 C521.196105,363.092053 515.055295,365.49952 509.064937,368.19712 C506.445356,369.375787 503.831111,370.567253 501.214731,371.753387 M276.11963,717.047253 C277.350993,717.988053 277.984815,718.576853 278.710401,719.012053 C300.656194,732.175787 324.001943,737.83232 349.555396,732.75072 C393.586764,723.994453 426.383278,700.157653 447.47544,660.44992 C458.230127,640.202453 464.575809,618.540587 468.798083,596.061653 C472.845362,574.509653 474.036178,552.767787 474.257055,530.976853 C474.398971,516.98752 472.863502,502.972587 474.686004,489.00032 C478.954161,456.269653 494.742072,430.745387 522.599261,412.820053 C523.549993,412.207787 525.024641,411.85792 524.309725,409.821653 C518.733379,409.77152 513.142094,409.981653 507.487854,410.534187 C485.407613,412.690987 470.725155,425.19552 465.359016,446.626987 C462.023451,459.95392 461.701206,473.64672 460.174273,487.183787 C455.344854,529.98912 440.587703,569.26272 417.175798,605.11552 C385.423915,653.740587 341.681714,688.42752 288.900625,712.048853 C284.908831,713.83552 280.749513,715.247787 276.11963,717.047253 M314.736842,276.114987 C314.285485,276.087253 313.834127,276.05952 313.381703,276.03072 C312.857787,277.12512 312.31253,278.208853 311.812088,279.31392 C306.900507,290.150187 305.460004,301.805653 304.256384,313.421653 C301.881155,336.349653 290.639898,353.562453 271.890954,366.527787 C249.877937,381.751253 225.523837,391.794987 200.152848,399.596587 C169.8372,408.918187 143.035312,423.92192 122.070127,448.052053 C89.4624793,485.580587 78.620295,528.911787 89.370714,577.383253 C94.4860994,600.444587 106.665284,620.388053 119.236072,639.99872 C132.926183,661.35552 148.391848,681.581653 160.462194,703.958187 C163.067904,708.788053 166.005463,711.846187 171.608485,712.252587 C178.289217,712.736853 184.871781,714.628053 192.262094,714.329387 C191.453278,712.89472 191.147038,712.271787 190.769306,711.695787 C163.517127,670.17472 149.691502,624.322987 147.480597,574.96512 C146.374077,550.239787 149.204932,525.826987 155.618904,501.78432 C167.162133,458.518187 193.632172,426.701653 230.455692,402.652587 C248.362742,390.95872 267.814865,382.282453 287.449451,373.961387 C296.616384,370.07552 305.534697,365.562453 312.603831,358.288853 C323.730915,346.839253 323.346781,332.598187 321.722747,318.265387 C320.118988,304.098987 312.969826,290.909653 314.736842,276.114987 M333.800563,239.82592 C331.282351,239.82592 330.120345,239.785387 328.961541,239.83232 C288.444999,241.449387 248.133328,245.146453 208.178049,252.169387 C177.345954,257.588053 146.89906,264.556587 117.909742,276.740053 C106.74958,281.430187 95.8284346,286.70592 87.1224626,295.421653 C78.811295,303.740587 78.7216637,310.550187 86.5163844,319.03872 C88.1916358,320.86272 90.0429486,322.55552 91.9742894,324.106453 C99.932267,330.495787 108.903932,335.19552 118.250127,339.116587 C159.922273,356.599253 203.947239,364.349653 248.392619,370.314453 C250.20872,370.557653 251.819949,370.37312 253.488798,369.42592 C263.266077,363.87712 272.379658,357.48032 280.464613,349.609387 C292.474139,337.917653 295.952686,322.799787 297.518032,307.05472 C300.197368,280.116053 310.995803,257.613653 333.800563,239.82592 M238.149044,649.247787 C238.399798,651.17632 238.856491,653.10272 238.870362,655.03232 C239.002675,673.337387 246.35244,688.60352 258.040787,702.28992 C261.114926,705.890987 263.962854,705.821653 267.777518,704.51712 C293.00339,695.885653 316.018356,683.129387 337.527731,667.500587 C378.27582,637.88992 409.017217,600.224853 428.255932,553.602987 C444.61044,513.968853 451.09377,472.183253 453.237451,429.648853 C454.309826,408.377387 453.302541,387.053653 454.282083,365.754453 C454.926574,351.75872 455.332049,337.744853 457.07239,323.84832 C460.500787,296.48512 469.976094,271.264853 485.032016,248.159787 C487.356027,244.59392 486.600563,243.421653 482.327072,243.199787 C470.467999,242.586453 458.61106,241.788587 446.786133,240.70592 C440.022172,240.086187 439.771418,240.080853 438.616882,246.822187 C435.50006,265.02912 434.392474,283.442987 433.534574,301.82912 C432.583842,322.21312 431.193491,342.52352 427.912345,362.663253 C423.126675,392.044587 413.381407,419.609387 397.531608,444.957653 C380.166613,472.729387 357.384261,495.322453 331.740111,515.392853 C312.322133,530.591787 292.947904,545.882453 275.500747,563.423787 C251.856228,587.194453 237.420256,614.906453 238.149044,649.247787 M246.08568,710.199253 C232.320876,692.14592 225.745781,676.20032 224.26153,656.009387 C221.504301,618.516053 232.961099,586.150187 259.547446,559.23392 C285.822217,532.634453 316.563613,511.277653 344.427206,486.54592 C365.188585,468.11712 382.996401,447.38112 396.146591,422.80512 C414.132602,389.19232 418.981228,352.62272 420.16244,315.309653 C420.91577,291.558187 420.363044,267.753387 423.47453,244.12032 C423.974971,240.319787 422.668915,238.956587 418.904401,239.06752 C413.576675,239.225387 408.23401,239.151787 402.906284,238.950187 C400.152256,238.845653 399.006256,239.247787 399.906837,242.434987 C400.865038,245.823787 401.320664,249.36512 401.131798,252.96512 C400.502245,264.950187 393.405368,272.20672 380.462183,273.95712 C370.812949,275.26272 363.182552,269.719253 359.286792,259.111253 C357.453619,254.118187 356.881686,249.05472 357.368256,243.924053 C357.795072,239.421653 356.040859,238.543787 351.943429,238.857387 C340.58053,239.728853 325.990904,254.82752 324.568541,267.86432 C323.991273,273.151787 324.101178,278.484053 324.943072,283.80032 C326.913893,296.234453 330.573837,308.292053 332.495574,320.770987 C336.696507,348.060587 324.708323,369.263787 298.945731,379.658453 C270.079122,391.305387 241.652133,403.94752 218.643569,425.760853 C201.066234,442.426453 184.623161,459.96352 175.513848,483.135787 C165.898759,507.591253 162.042479,533.094187 161.438535,559.087787 C160.947697,580.23552 163.677183,601.172053 168.577027,621.799253 C176.163675,653.73952 188.881714,683.408853 207.515418,710.490453 C208.896166,712.49792 209.902384,714.864853 213.077893,714.706987 C224.069463,714.16192 234.926585,712.746453 246.08568,710.199253 M232.089328,380.116053 C217.271356,377.389653 203.426524,375.129387 189.708669,372.258987 C158.340921,365.695787 127.387183,357.73312 98.9292503,342.343253 C89.9778592,337.50272 81.5887978,331.81632 75.3135408,323.572053 C67.1368201,312.829653 67.2637978,301.919787 75.6806022,291.367253 C81.430876,284.15872 88.8041162,278.895787 96.7460883,274.426453 C117.995105,262.468053 141.048485,255.30432 164.56496,249.567787 C230.568798,233.468587 297.831742,228.319787 365.49696,227.471787 C415.660602,226.844587 465.705803,229.370453 515.503451,235.801387 C556.457479,241.08992 596.985759,248.42432 635.944423,262.589653 C653.692485,269.04192 671.022267,276.51712 684.713446,290.201387 C697.199937,302.681387 697.257558,317.042987 684.956731,329.66272 C678.948234,335.826987 671.875898,340.57792 664.328731,344.649387 C647.813099,353.558187 630.202686,359.644587 612.198535,364.652587 C573.028597,375.548587 532.984753,381.44512 492.603725,385.407787 C483.819859,386.268587 481.607887,388.416853 479.016049,397.647787 C510.374194,392.681387 523.944798,392.838187 545.193815,401.750187 C555.391507,406.026453 564.674747,406.618453 575.300323,404.300587 C615.318558,395.57312 654.818211,385.37472 691.715356,367.056853 C710.450429,357.75552 728.14834,346.870187 741.191826,329.96352 C755.374909,311.580587 755.750507,291.796053 742.414653,272.810453 C737.682334,266.07552 731.818954,260.381653 725.411384,255.236053 C705.471625,239.226453 682.606044,228.649387 658.818541,219.997653 C597.343217,197.641387 533.351815,187.682987 468.499312,182.450987 C411.181172,177.826987 353.816083,177.839787 296.468066,182.26752 C245.335552,186.215253 194.736558,193.498453 145.166189,206.954453 C112.830636,215.732053 81.3241721,226.687787 52.6837754,244.532053 C39.4738313,252.76352 27.3319933,262.33152 18.9514682,275.799253 C8.50622235,292.58432 8.81032849,309.337387 19.5266022,325.919787 C22.8237531,331.021653 26.7856693,335.57312 31.1829374,339.746987 C42.3729765,350.367787 55.2734793,358.51712 68.9315799,365.494187 C99.6687084,381.194453 132.462021,391.00032 165.825133,399.228587 C171.941401,400.736853 177.381166,400.93632 183.187993,397.959253 C187.884032,395.55072 193.152004,394.224853 198.219373,392.583253 C209.346457,388.980053 220.461803,385.357653 232.089328,380.116053 M142.729072,703.19872 L143.522949,703.54112 L143.099334,702.83072 C141.382468,698.11072 138.384088,694.11712 135.682345,689.974187 C121.343474,667.988053 105.685742,646.854187 92.9954458,623.804587 C79.8057754,599.84832 70.9024011,574.716587 71.3676302,546.89472 C71.4892726,539.57312 71.6311888,532.262187 72.1903173,524.922453 C68.1291665,535.373653 65.3345911,546.109653 63.4416637,557.094187 C60.5659933,573.786453 58.676267,590.749653 61.7824179,607.372587 C67.5177531,638.05632 82.9247307,663.577387 107.213742,683.373653 C117.828647,692.025387 129.354803,699.337387 142.729072,703.19872 M416.182384,720.038187 C416.836479,719.936853 417.189669,719.574187 417.177932,718.893653 C417.282502,718.768853 417.387072,718.642987 417.491641,718.518187 C417.410546,718.665387 417.329451,718.813653 417.247289,718.960853 C416.871692,719.300053 416.496094,719.638187 416.120496,719.977387 C415.722491,720.28672 415.324485,720.594987 414.926479,720.903253 C414.003491,721.40992 413.001541,721.812053 412.167116,722.438187 C390.631066,738.60672 365.910971,746.527787 339.515625,748.672853 C310.735446,751.010987 284.84801,742.319787 261.947217,724.72192 C260.642228,723.718187 259.432206,722.060587 257.298127,722.665387 C246.29482,725.783253 234.969267,727.295787 223.669323,728.895787 C224.010775,731.328853 225.513166,732.404053 226.760535,733.618987 C253.387429,759.52512 285.795541,772.80192 322.213585,777.51552 C330.654932,778.608853 338.388831,778.327253 346.401228,774.35712 C360.46587,767.386453 373.968183,759.599787 386.276479,749.951787 C397.001289,741.545387 407.575647,732.82752 415.414116,721.40352 C415.670206,720.94912 415.926295,720.493653 416.182384,720.038187 M-0.000213407821,290.13312 C0.352976536,289.783253 0.927043575,289.48672 1.02627821,289.074987 C6.0328257,268.324053 19.6855911,253.951787 36.1852168,241.807787 C57.7244682,225.954987 81.9942726,215.514453 107.068625,206.77632 C154.940267,190.092587 204.42634,180.815787 254.619859,174.826453 C294.172865,170.106453 333.876323,167.85792 373.702491,167.712853 C375.97315,167.70432 377.43606,167.72992 378.125368,164.730453 C385.34282,133.32352 406.238647,113.882453 434.548261,101.15072 C445.605988,96.1768533 457.23458,92.9672533 469.140602,90.69952 C472.614882,90.0381867 476.103032,89.2221867 479.420457,88.0221867 C487.389105,85.1389867 489.238284,81.4877867 487.138351,73.2008533 C484.65215,63.3928533 480.563256,54.05632 478.589234,44.08832 C475.251535,27.2317867 480.331708,16.4840533 495.517809,8.43925333 C501.042937,5.51232 506.89458,3.52085333 512.939356,1.98165333 C514.521775,1.57952 516.60677,2.05525333 517.513753,-0.000213333333 L534.586379,-0.000213333333 C534.625859,1.09418667 537.916608,1.09312 535.409066,3.19445333 C532.849239,5.33952 530.937105,8.24512 528.426362,10.46272 C519.321317,18.50752 516.810574,29.0408533 516.427507,40.5608533 C516.077518,51.1144533 518.380189,61.3117867 520.089585,71.5997867 C522.983396,89.0120533 525.214574,106.384853 516.778563,123.069653 C516.409368,123.56672 516.040172,124.064853 515.670977,124.56192 C516.552351,125.09632 517.2662,124.892587 517.8392,124.06912 C533.695401,108.708053 537.309463,88.9384533 537.804569,67.84192 C554.375686,86.98752 553.719457,110.086187 553.570072,133.612587 C561.173792,127.632853 568.257865,122.33152 575.030362,116.65792 C581.537166,111.207253 584.958094,104.01792 584.119401,95.48032 C583.21882,86.32192 582.068552,77.1592533 579.771217,68.20992 C579.494854,67.1304533 579.052032,65.9325867 579.891792,65.3064533 C580.909747,64.5469867 581.86368,65.4920533 582.554055,66.3581867 C592.489256,78.8349867 603.63768,90.40832 609.666451,105.657387 C617.825032,126.295253 614.101066,141.631787 596.79796,155.24352 C590.796932,159.964587 584.438446,164.228053 578.286965,168.761387 C575.118926,171.095253 572.248591,173.74272 570.471971,177.362987 C567.684865,183.044053 568.201312,184.124587 574.366664,185.316053 C597.757228,189.83872 620.879965,195.46432 643.539608,202.820053 C674.05906,212.72832 703.78677,224.434987 729.61872,244.08512 C745.505865,256.170453 758.498133,270.46272 762.663854,290.89472 C762.818574,291.65312 763.173898,292.180053 763.999787,292.266453 L763.999787,308.266453 C763.194172,308.42432 762.891133,308.97472 762.741747,309.732053 C758.999641,328.75712 747.380653,342.57792 732.953217,354.46592 C713.378384,370.594987 690.800904,381.31072 667.301502,390.224853 C622.876396,407.074987 576.732289,417.087787 529.76763,423.14112 C518.309764,424.618453 510.493703,429.511253 503.592094,437.968853 C485.736261,459.850453 480.120435,485.154987 481.264301,512.727253 C482.960893,553.625387 479.024585,593.772587 467.512301,633.367253 C460.420759,657.759787 452.861854,681.661653 438.814284,702.948053 C402.784641,757.540053 352.26034,789.394987 287.434513,798.554453 C285.870234,798.775253 283.771368,797.80032 282.76515,799.999787 L241.150625,799.999787 C240.130535,797.865387 238.017798,798.70592 236.45672,798.498987 C223.926479,796.834987 211.591507,794.30592 199.541435,790.480853 C106.723971,761.021653 46.3839765,673.250987 53.7273397,576.249387 C59.0273229,506.24832 93.1010827,452.59712 151.111731,413.696853 C153.161513,412.32192 155.776826,411.545387 157.328301,408.94272 C140.702764,404.852053 124.671569,400.276053 108.934876,394.727253 C82.223686,385.309653 56.2754291,374.327253 33.6392615,356.842453 C19.9406134,346.26112 8.39418324,333.932587 2.55854637,317.14432 C1.77107151,314.87872 1.98874749,312.210987 -0.000213407821,310.399787 L-0.000213407821,290.13312" id="Fill-1" fill="#0C1C25" sketch:type="MSShapeGroup" mask="url(#mask-2)"></path>
                </g>
                <path d="M232.089222,380.116267 C220.461697,385.357867 209.34635,388.980267 198.219266,392.583467 C193.151898,394.225067 187.883926,395.550933 183.187887,397.9584 C177.38106,400.936533 171.941294,400.737067 165.825026,399.2288 C132.462982,391.000533 99.6686017,381.194667 68.9314732,365.493333 C55.2733726,358.517333 42.3728698,350.366933 31.1838978,339.7472 C26.7855626,335.572267 22.8236464,331.021867 19.5264955,325.92 C8.81022179,309.3376 8.50611564,292.584533 18.9513615,275.799467 C27.3318866,262.330667 39.4737246,252.762667 52.6836687,244.532267 C81.3240654,226.688 112.830529,215.732267 145.166082,206.954667 C194.736451,193.498667 245.336512,186.215467 296.467959,182.267733 C353.815976,177.84 411.181065,177.826133 468.499205,182.4512 C533.351708,187.682133 597.34311,197.6416 658.818434,219.997867 C682.605937,228.648533 705.471518,239.226667 725.411278,255.236267 C731.818847,260.3808 737.683294,266.075733 742.414546,272.810667 C755.750401,291.796267 755.374803,311.5808 741.191719,329.963733 C728.148233,346.8704 710.450322,357.755733 691.71525,367.057067 C654.818104,385.374933 615.318451,395.573333 575.300216,404.3008 C564.674641,406.6176 555.391401,406.026667 545.193708,401.7504 C523.944691,392.8384 510.374088,392.6816 479.015942,397.648 C481.608847,388.417067 483.819753,386.2688 492.603618,385.406933 C532.984646,381.445333 573.02849,375.547733 612.198428,364.6528 C630.202579,359.6448 647.812993,353.5584 664.328624,344.648533 C671.875792,340.578133 678.948127,335.826133 684.956624,329.662933 C697.258518,317.042133 697.199831,302.680533 684.713339,290.2016 C671.02216,276.517333 653.692378,269.042133 635.944317,262.5888 C596.985652,248.424533 556.457373,241.090133 515.503345,235.8016 C465.706764,229.370667 415.660496,226.843733 365.496853,227.472 C297.831635,228.32 230.568691,233.4688 164.564853,249.568 C141.048378,255.303467 117.994998,262.468267 96.7459816,274.426667 C88.8040095,278.896 81.4307693,284.158933 75.6804955,291.367467 C67.2636911,301.92 67.1367134,312.829867 75.3145011,323.572267 C81.5886911,331.816533 89.9777525,337.501867 98.9291436,342.343467 C127.387077,357.733333 158.340814,365.696 189.708563,372.2592 C203.426417,375.1296 217.27125,377.389867 232.089222,380.116267" id="Fill-4" fill="#FCFCFC" sketch:type="MSShapeGroup"></path>
                <path d="M246.08568,710.19968 C234.926585,712.74688 224.069463,714.162347 213.077893,714.707413 C209.902384,714.864213 208.896166,712.49728 207.515418,710.49088 C188.881714,683.408213 176.163675,653.73888 168.577027,621.79968 C163.677183,601.17248 160.947697,580.235947 161.438535,559.087147 C162.042479,533.094613 165.898759,507.59168 175.513848,483.136213 C184.623161,459.963947 201.066234,442.425813 218.643569,425.76128 C241.652133,403.947947 270.079122,391.305813 298.945731,379.657813 C324.708323,369.263147 336.696507,348.061013 332.495574,320.771413 C330.573837,308.29248 326.913893,296.233813 324.943072,283.800747 C324.101178,278.483413 323.991273,273.152213 324.568541,267.864747 C325.990904,254.827947 340.58053,239.728213 351.944496,238.857813 C356.040859,238.543147 357.795072,239.42208 357.368256,243.92448 C356.881686,249.055147 357.453619,254.117547 359.286792,259.11168 C363.182552,269.718613 370.812949,275.263147 380.462183,273.957547 C393.405368,272.20608 400.502245,264.950613 401.131798,252.96448 C401.320664,249.36448 400.865038,245.823147 399.906837,242.435413 C399.006256,239.247147 400.152256,238.845013 402.906284,238.949547 C408.23401,239.152213 413.576675,239.224747 418.904401,239.067947 C422.668915,238.957013 423.974971,240.319147 423.47453,244.11968 C420.363044,267.752747 420.91577,291.557547 420.16244,315.309013 C418.981228,352.62208 414.132602,389.192747 396.146591,422.80448 C382.996401,447.38048 365.188585,468.117547 344.427206,486.54528 C316.563613,511.27808 285.822217,532.633813 259.547446,559.234347 C232.961099,586.149547 221.504301,618.51648 224.26153,656.009813 C225.745781,676.200747 232.321943,692.146347 246.08568,710.19968" id="Fill-6" fill="#97012E" sketch:type="MSShapeGroup"></path>
                <path d="M238.14915,649.248107 C237.420363,614.906773 251.856335,587.193707 275.500854,563.42304 C292.948011,545.881707 312.32224,530.592107 331.740217,515.393173 C357.383301,495.322773 380.16672,472.729707 397.531715,444.956907 C413.381513,419.609707 423.126782,392.04384 427.912452,362.662507 C431.193597,342.52384 432.583949,322.21344 433.534681,301.82944 C434.39258,283.44224 435.500167,265.028373 438.616988,246.822507 C439.771525,240.081173 440.022279,240.086507 446.78624,240.705173 C458.611167,241.78784 470.468106,242.585707 482.327178,243.200107 C486.60067,243.421973 487.356134,244.593173 485.032122,248.160107 C469.975134,271.265173 460.500893,296.484373 457.072497,323.847573 C455.332156,337.745173 454.926681,351.75904 454.282189,365.754773 C453.302647,387.052907 454.308865,408.377707 453.237558,429.649173 C451.093877,472.183573 444.610547,513.968107 428.256039,553.603307 C409.017323,600.225173 378.275927,637.89024 337.527837,667.500907 C316.018463,683.129707 293.003497,695.885973 267.777625,704.51744 C263.96296,705.821973 261.115033,705.89024 258.040893,702.29024 C246.352547,688.602773 239.002782,673.337707 238.870469,655.03264 C238.856597,653.101973 238.399904,651.175573 238.14915,649.248107" id="Fill-8" fill="#97012E" sketch:type="MSShapeGroup"></path>
                <path d="M314.736949,276.114667 C312.969932,290.909333 320.119094,304.099733 321.722854,318.265067 C323.346888,332.597867 323.731022,346.838933 312.603938,358.288533 C305.534804,365.5632 296.616491,370.0752 287.449558,373.961067 C267.814972,382.2832 248.362849,390.9584 230.455798,402.652267 C193.632279,426.701333 167.16224,458.518933 155.619011,501.784 C149.205039,525.826667 146.374184,550.239467 147.480703,574.965867 C149.691608,624.322667 163.517234,670.175467 190.769413,711.695467 C191.147145,712.271467 191.453385,712.895467 192.262201,714.329067 C184.871888,714.627733 178.288256,712.736533 171.608592,712.252267 C166.005569,711.845867 163.068011,708.787733 160.462301,703.957867 C148.391955,681.581333 132.92629,661.3552 119.236178,639.9984 C106.665391,620.387733 94.4862061,600.444267 89.3708207,577.382933 C78.6204017,528.911467 89.462586,485.580267 122.070234,448.051733 C143.035418,423.922667 169.83624,408.917867 200.152955,399.596267 C225.523944,391.794667 249.878044,381.750933 271.891061,366.528533 C290.640005,353.5632 301.881262,336.349333 304.256491,313.421333 C305.460111,301.8064 306.900614,290.149867 311.812195,279.3136 C312.312636,278.2096 312.857893,277.1248 313.381809,276.031467 C313.834234,276.0592 314.285592,276.086933 314.736949,276.114667" id="Fill-10" fill="#97012E" sketch:type="MSShapeGroup"></path>
                <path d="M276.119737,717.047573 C280.74962,715.248107 284.908938,713.83584 288.900731,712.049173 C341.680754,688.42784 385.424022,653.73984 417.175904,605.11584 C440.587809,569.26304 455.34496,529.98944 460.174379,487.184107 C461.701312,473.64704 462.023558,459.953173 465.359122,446.627307 C470.725262,425.19584 485.40772,412.69024 507.48796,410.534507 C513.142201,409.981973 518.733485,409.77184 524.309832,409.821973 C525.024748,411.85824 523.5501,412.208107 522.599368,412.819307 C494.742178,430.745707 478.954268,456.268907 474.686111,489.00064 C472.863608,502.972907 474.399078,516.98784 474.257161,530.977173 C474.036284,552.768107 472.845469,574.509973 468.797122,596.061973 C464.575916,618.540907 458.230234,640.202773 447.475547,660.449173 C426.383385,700.157973 393.586871,723.994773 349.555502,732.749973 C324.00205,737.831573 300.656301,732.17504 278.710508,719.012373 C277.984921,718.576107 277.3511,717.988373 276.119737,717.047573" id="Fill-12" fill="#97012E" sketch:type="MSShapeGroup"></path>
                <path d="M521.608089,7.61173333 C506.576709,22.8149333 508.434424,40.6794667 510.932363,58.5813333 C512.32805,68.5888 514.321279,78.5002667 515.502491,88.5568 C517.826502,108.3648 510.98358,124.24 496.257374,137.36 C484.071787,148.2176 470.69005,157.701333 459.371966,169.540267 C457.943201,171.034667 456.264748,170.942933 454.462519,170.8448 C432.311854,169.629867 410.159055,168.353067 387.963575,168.558933 C384.22467,168.593067 384.518106,167.111467 385.168999,164.466133 C390.461513,142.9216 403.529541,127.1584 421.871944,115.477333 C436.422089,106.2112 452.502368,100.778667 469.405335,97.6437333 C474.98915,96.608 480.543089,95.4485333 485.610458,92.6890667 C493.213111,88.5493333 495.827357,83.2650667 494.378318,74.64 C492.960223,66.208 489.337625,58.4192 487.152329,50.2090667 C486.788469,48.8384 486.24748,47.5125333 485.924167,46.1333333 C481.697625,28.096 486.037273,19.6917333 503.409737,12.2784 C508.926329,9.92426667 514.649927,8.37973333 521.608089,7.61173333" id="Fill-14" fill="#F79F1B" sketch:type="MSShapeGroup"></path>
                <path d="M560.458663,275.854507 C547.509076,283.44704 546.190216,296.057173 545.210674,308.834773 C544.872422,313.246507 544.878825,317.668907 544.553378,322.09344 C543.212109,340.28864 531.872685,350.201173 516.591618,357.06304 C510.776255,359.67424 504.666389,361.704107 499.055897,364.686507 C484.229389,372.564907 474.731674,385.017173 469.373003,400.780373 C468.991003,401.90144 468.521506,402.993707 467.561171,405.46944 C469.000607,365.56864 466.048109,326.724907 479.861998,289.63264 C484.904825,276.092373 491.538607,263.391573 499.600087,251.420373 C502.189791,247.57504 505.04092,245.329707 510.465746,246.261973 C522.434724,248.321707 534.575495,249.381973 547.50054,251.986773 C539.037853,255.924907 531.417059,259.212373 524.039551,262.977707 C516.437964,266.857173 510.736774,272.665173 509.581171,281.513173 C508.68059,288.412373 510.526568,295.06944 514.766981,300.485973 C520.824562,308.22464 532.02207,306.238507 536.563389,296.933973 C538.650517,292.65664 539.484942,287.839573 542.529204,283.94304 C547.095065,278.101973 552.918964,275.24864 560.458663,275.854507" id="Fill-16" fill="#97012E" sketch:type="MSShapeGroup"></path>
                <path d="M415.420732,721.41024 C407.57586,732.826773 397.001503,741.545707 386.276693,749.952107 C373.968397,759.59904 360.466084,767.385707 346.400374,774.356373 C338.389045,778.327573 330.655145,778.609173 322.212732,777.51584 C285.795754,772.80224 253.387642,759.52544 226.760749,733.61824 C225.512313,732.404373 224.010989,731.328107 223.669536,728.896107 C234.968413,727.296107 246.295034,725.782507 257.298341,722.66464 C259.432419,722.060907 260.641374,723.718507 261.94743,724.721173 C284.848223,742.31904 310.734592,751.01024 339.514771,748.672107 C365.910117,746.528107 390.631279,738.60704 412.16733,722.438507 C413.000687,721.812373 414.002637,721.41024 414.92776,720.90464 C415.091017,721.075307 415.255341,721.24384 415.420732,721.41024" id="Fill-18" fill="#97012E" sketch:type="MSShapeGroup"></path>
                <path d="M303.043801,788.03232 C297.219902,790.194453 291.751326,790.561387 286.455611,791.138453 C250.321399,795.077653 215.376935,790.58912 181.922058,775.87232 C179.138153,774.647787 178.551282,773.512853 178.834047,770.375787 C180.041935,756.92832 177.555734,743.882987 172.939723,731.28352 C171.317823,726.85472 172.041276,726.254187 176.659421,726.99552 C184.683555,728.284053 192.836801,728.84832 200.956969,729.402987 C203.499723,729.576853 205.257136,730.40032 206.903578,732.232853 C226.86041,754.437653 250.593494,771.054187 279.051427,780.565653 C286.728773,783.132053 294.510689,785.386987 303.043801,788.03232" id="Fill-20" fill="#97012E" sketch:type="MSShapeGroup"></path>
                <path d="M142.721922,703.205973 C129.354056,699.337173 117.8279,692.025173 107.212995,683.37344 C82.9239838,663.577173 67.5170061,638.056107 61.782738,607.372373 C58.6755201,590.74944 60.5652464,573.78624 63.4419838,557.093973 C65.3349112,546.10944 68.1294866,535.37344 72.1906374,524.92224 C71.6315089,532.261973 71.4895927,539.572907 71.3668832,546.894507 C70.9027212,574.71744 79.8050285,599.848107 92.9946989,623.804373 C105.684995,646.853973 121.343794,667.98784 135.681598,689.973973 C138.384408,694.116907 141.381721,698.110507 143.098587,702.830507 L142.721922,703.205973 Z" id="Fill-22" fill="#97012E" sketch:type="MSShapeGroup"></path>
                <path d="M542.713055,91.47072 C545.110692,97.64672 545.220597,102.758187 545.715703,107.741653 C548.01624,130.874453 546.377268,153.42272 535.54362,174.599253 C533.907849,177.796053 532.353173,179.10272 528.302692,178.537387 C510.968642,176.11712 493.557765,174.250453 475.357279,172.08512 C481.55891,164.631253 488.596033,158.64512 495.952201,153.076053 C509.869592,142.53952 523.001642,131.309653 532.50896,116.368853 C537.159117,109.06112 540.508553,101.25312 542.713055,91.47072" id="Fill-24" fill="#F79F1B" sketch:type="MSShapeGroup"></path>
                <path d="M590.633461,87.8717867 C599.438668,98.4349867 605.886785,109.871787 606.76816,123.66912 C607.436126,134.148053 602.486132,142.140587 594.487607,148.354987 C588.041623,153.364053 581.33635,158.039253 574.78473,162.914987 C568.505204,167.588053 563.300188,173.036587 562.32278,181.295787 C562.114707,183.06112 561.470216,183.917653 559.595428,183.399253 C559.08645,183.258453 558.537992,183.268053 558.013009,183.180587 C548.502489,181.604053 548.580383,181.612587 549.822417,171.97952 C550.570411,166.17472 551.258651,160.34432 551.568093,154.50432 C551.995975,146.45632 555.628177,140.295253 561.879959,135.526187 C565.833339,132.511787 569.913696,129.664853 573.919361,126.71872 C587.029003,117.07712 593.835646,104.749653 590.633461,87.8717867" id="Fill-26" fill="#F79F1B" sketch:type="MSShapeGroup"></path>
                <path d="M83.1541441,681.693653 C88.1959039,686.32192 92.9218201,691.362987 98.3413117,695.498453 C113.155016,706.80192 130.019569,714.228053 147.640653,719.904853 C152.032585,721.319253 154.885848,723.337387 156.541893,727.788587 C160.756697,739.124053 164.723949,750.436053 164.490267,762.783787 C164.424111,766.23232 164.130675,767.27232 160.510211,765.13152 C135.900021,750.57792 115.210133,731.798187 98.4170715,708.669653 C92.3786972,700.352853 87.3219989,691.474987 83.1541441,681.693653" id="Fill-28" fill="#97012E" sketch:type="MSShapeGroup"></path>
                <path d="M143.099121,702.830613 L143.522735,703.541013 C143.258109,703.42688 142.993484,703.312747 142.725657,703.20288 C142.722456,703.20608 143.099121,702.830613 143.099121,702.830613" id="Fill-30" fill="#97012E" sketch:type="MSShapeGroup"></path>
                <path d="M417.248143,718.961067 L417.491428,718.5184 C417.386858,718.6432 417.282288,718.768 417.177718,718.893867 L417.248143,718.961067 Z" id="Fill-32" fill="#97012E" sketch:type="MSShapeGroup"></path>
                <path d="M417.177825,718.893547 C417.19063,719.57408 416.836373,719.936747 416.182278,720.03808 L416.120389,719.97728 C416.495987,719.63808 416.871585,719.299947 417.24825,718.960747 L417.177825,718.893547" id="Fill-34" fill="#97012E" sketch:type="MSShapeGroup"></path>
                <path d="M416.182278,720.038293 C415.926188,720.49376 415.670099,720.94816 415.417211,721.406827 C415.255021,721.243627 415.090697,721.075093 414.92744,720.904427 C415.324378,720.595093 415.722384,720.28576 416.120389,719.977493 L416.182278,720.038293" id="Fill-36" fill="#97012E" sketch:type="MSShapeGroup"></path>
            </g>
        </g>
    </g>
</svg>