<?xml version="1.0" encoding="UTF-8" standalone="no"?>
<svg width="800px" height="800px" viewBox="0 0 800 800" version="1.1" xmlns="http://www.w3.org/2000/svg" xmlns:xlink="http://www.w3.org/1999/xlink" xmlns:sketch="http://www.bohemiancoding.com/sketch/ns">
    <!-- Generator: Sketch 3.4.4 (17249) - http://www.bohemiancoding.com/sketch -->
    <title>hornets</title>
    <desc>Created with Sketch.</desc>
    <defs>
        <path id="path-1" d="M0,0.907820144 L799.093642,0.907820144 L799.093642,771 L0,771"></path>
    </defs>
    <g id="Page-1" stroke="none" stroke-width="1" fill="none" fill-rule="evenodd" sketch:type="MSPage">
        <g id="hornets" sketch:type="MSArtboardGroup">
            <g id="Page-1" sketch:type="MSLayerGroup" transform="translate(0.000000, 15.000000)">
                <g id="Group-3">
                    <mask id="mask-2" sketch:name="Clip 2" fill="white">
                        <use xlink:href="#path-1"></use>
                    </mask>
                    <g id="Clip-2"></g>
                    <path d="M14.3938035,87.7700299 C13.5151908,89.1696629 14.1255954,90.0044507 14.4187746,90.8364651 C29.5660578,133.78135 46.7951908,175.848922 67.4092948,216.490051 C74.3762312,230.226609 81.4707977,243.878116 92.329526,255.099217 C109.788948,273.139138 130.578775,285.907785 154.35311,293.771246 C158.528832,295.15239 160.855769,297.422864 162.595422,301.415609 C167.012532,311.55694 171.486058,321.714911 177.540162,331.038095 C182.35496,338.454116 187.865249,345.378325 193.882358,352.938562 L187.606289,352.938562 C172.500624,352.939487 157.39311,353.050422 142.289295,352.860908 C138.582474,352.81376 137.597503,353.989674 137.632647,357.60339 C137.803746,375.167213 137.631723,392.732886 137.783399,410.29671 C137.809295,413.362221 136.867792,415.039192 134.09785,416.333436 C125.175769,420.503677 116.354497,424.890242 107.521202,429.2463 C106.502012,429.749206 104.775306,429.843501 104.869642,431.354069 C104.954728,432.726893 106.587098,432.922879 107.637734,433.472008 C116.365595,438.036069 125.035191,442.721235 133.881434,447.042163 C136.838197,448.48617 137.811145,450.223231 137.778775,453.436656 C137.622474,468.842789 137.732532,484.250771 137.684439,499.658753 C137.67704,502.074368 137.883283,503.988926 140.353572,505.460667 C151.189179,511.917098 161.893457,518.593551 172.650451,525.181256 C174.239353,526.154713 175.826405,526.797213 177.853688,526.540213 C192.035422,524.743062 206.237503,523.104918 220.422012,521.326256 C224.807676,520.776203 228.756809,521.099764 232.671723,523.706742 C238.167214,527.367605 244.066867,530.424796 249.800046,533.728818 C289.919353,556.848649 330.037734,579.968479 370.165364,603.073519 C371.668254,603.938814 372.914035,604.797638 373.329295,606.727911 C380.073341,638.066195 386.872879,669.393386 393.68074,700.718728 C395.316809,708.246609 397.029642,715.75785 398.70363,723.263544 C400.634728,722.915023 400.349873,721.801972 400.532069,720.976429 C408.835422,683.38417 417.160046,645.797458 425.363514,608.183936 C425.90548,605.700836 426.86548,604.102444 429.084208,602.825764 C475.752416,575.972037 522.388254,549.060994 569.003746,522.114821 C570.566751,521.211623 572.024324,520.860328 573.803746,521.067408 C588.915884,522.825731 604.042821,524.455555 619.144786,526.296156 C621.883283,526.629886 624.191723,526.431127 626.583399,524.936274 C636.886289,518.491861 647.222474,512.095519 657.669642,505.890541 C660.286058,504.335598 661.146173,502.545843 661.120277,499.582947 C660.986173,484.176814 661.147098,468.767908 660.985249,453.361774 C660.951029,450.116918 661.989642,448.427005 664.94548,447.022749 C673.845364,442.796116 682.584324,438.229282 691.361202,433.746573 C692.37022,433.231649 694.044208,433.096677 693.93415,431.574091 C693.849064,430.407422 692.387792,430.190174 691.457387,429.722397 C683.074497,425.506857 674.748948,421.164667 666.236578,417.22739 C662.418775,415.462595 660.847445,413.330789 660.931607,408.888756 C661.246058,392.254015 661.058312,375.610954 661.056462,358.970667 C661.055538,352.941336 661.052763,352.938562 655.073572,352.937638 C639.813457,352.934864 624.553341,352.943185 609.293225,352.920073 C608.263861,352.918224 606.994035,353.347174 606.281896,352.322872 C605.575306,351.307814 606.651838,350.679181 607.216925,350.025587 C619.524902,335.784274 628.394266,319.476792 635.643283,302.251321 C637.575306,297.659526 640.425711,295.228195 645.23496,293.508699 C681.640046,280.491372 710.283746,258.578886 728.07704,223.130451 C748.249064,182.942307 765.852763,141.728012 781.259931,99.5356378 C782.57415,95.9348644 784.482127,92.3895586 784.574613,87.6729615 C773.607676,92.9257457 763.178081,97.9215299 752.219468,103.171541 C752.69022,101.46776 752.934382,100.449929 753.252532,99.4552097 C759.670104,79.42585 765.542936,59.2374831 770.929295,38.9076737 C772.265711,33.8610442 773.499468,28.7876054 774.785017,23.7280335 C775.017156,22.8146665 775.292763,21.7376701 774.548254,21.110886 C773.689064,20.3879579 772.841896,21.3133428 772.065017,21.7164076 C771.387098,22.068627 770.785942,22.5687601 770.145942,22.9958608 C739.202127,43.6843608 708.545942,64.7907169 678.03496,86.1133968 C613.480046,131.227066 549.834266,177.564721 488.08259,226.464979 C487.092994,227.247997 486.212532,227.985717 484.810451,227.798051 C478.755422,226.989149 473.603977,220.957969 474.64074,215.12185 C476.030798,207.29999 472.55704,202.163688 466.477965,198.028577 C462.812763,195.535307 458.534382,194.3483 454.243977,192.26549 C459.506405,188.367041 464.508023,184.815264 469.339468,181.047163 C477.817618,174.434497 487.522127,169.416526 495.063399,161.610382 C499.40837,157.111033 502.512185,151.90817 502.120046,145.044051 C500.20837,145.288109 499.104092,146.363256 497.887908,147.270152 C480.87889,159.958372 463.818081,172.576332 446.877503,185.355149 C443.676578,187.769839 440.84652,188.419735 436.771607,187.304836 C410.840509,180.2133 384.87889,180.214224 359.056,188.057346 C357.258081,188.603703 356.076116,188.39385 354.517734,187.218861 C341.503168,177.402015 328.385017,167.723839 315.290913,158.011458 C309.296,153.564803 303.287214,149.135713 296.981549,144.475508 C296.322127,150.463238 298.413225,155.849145 302.697156,160.641548 C308.94363,167.629544 317.203514,172.005015 324.539468,177.57489 C331.041202,182.509659 337.690913,187.249368 344.694844,192.382897 C342.670335,193.160368 341.383861,193.643861 340.105711,194.146767 C326.602821,199.465188 323.839353,203.518947 324.340624,217.891533 C324.438659,220.688026 323.725595,222.589641 321.160971,223.832116 C319.50548,224.633623 317.93415,225.634814 316.405364,226.664663 C314.178312,228.165062 312.373919,228.025469 310.231954,226.185792 C305.567908,222.180105 300.705942,218.399062 295.831029,214.647602 C266.70178,192.231285 237.410682,170.035915 207.742243,148.328659 C148.776231,105.185015 88.8400462,63.4382313 28.1898728,22.7065047 C26.9949595,21.904073 25.6899884,20.1688608 24.2296416,21.2227457 C23.030104,22.0889651 24.1103353,23.7770299 24.4266358,25.1027061 C29.4153064,46.0176989 35.3658266,66.6655227 41.616,87.230145 C43.1716069,92.3525802 44.7790058,97.4583752 46.5704509,103.2418 C35.2455954,97.7967277 24.7919538,92.7704363 14.3938035,87.7700299 M714.881202,431.266246 C700.865942,438.379044 688.11126,445.092476 675.119815,451.310397 C670.822012,453.368246 669.084208,455.675699 669.211838,460.622487 C669.593803,475.40276 669.345942,490.199674 669.353341,504.990116 C669.354266,506.9888 669.42178,508.668544 667.155884,510.009936 C656.079815,516.565285 644.757734,522.822033 634.311491,530.287976 C626.881202,535.598077 619.461087,534.742951 611.535075,533.724195 C599.814382,532.218249 588.073341,530.865764 576.353572,529.350573 C573.106405,528.930868 570.717503,530.772393 568.262936,532.18312 C540.622705,548.069048 513.041665,564.058515 485.442127,580.014703 C469.517965,589.221404 453.636347,598.502987 437.619699,607.545134 C434.537156,609.284969 433.406058,611.763447 432.745711,614.835429 C423.56837,657.505749 414.364208,700.170523 405.236809,742.851936 C403.317734,751.823825 401.67889,760.856728 399.687676,770.999908 C397.497618,765.852512 397.19889,761.361483 396.278659,757.048875 C386.179237,709.715577 376.089988,662.380429 366.06178,615.032339 C365.276578,611.327102 363.50363,608.859717 360.10941,606.923897 C335.347329,592.803688 310.695306,578.490267 286.006289,564.241559 C267.02548,553.286703 248.031723,542.353109 229.068486,531.366821 C226.15704,529.679681 223.308486,529.224846 219.860624,529.696321 C205.87311,531.60903 191.834728,533.14271 177.811145,534.784551 C175.031029,535.109962 172.43311,534.878846 169.868486,533.290623 C157.109179,525.383713 144.294382,517.563703 131.391723,509.893454 C129.062012,508.508613 129.436578,506.666163 129.431029,504.747908 C129.390335,489.495235 129.249757,474.240713 129.464324,458.991738 C129.516116,455.322555 128.262012,453.608605 125.049988,452.038872 C112.500624,445.908774 100.10941,439.451418 87.6821272,433.073566 C86.7850173,432.614109 85.2886012,432.493005 85.2580809,431.269944 C85.2201618,429.7603 86.8710289,429.594821 87.8994682,429.101159 C100.482127,423.057962 113.055538,416.993501 125.720509,411.125026 C128.495075,409.839102 129.468023,408.25735 129.443052,405.171501 C129.289526,386.376296 129.458775,367.579242 129.283977,348.784037 C129.251607,345.296972 130.218081,344.373436 133.667792,344.430753 C146.148717,344.637832 158.636116,344.525972 171.12074,344.491767 C172.446058,344.487145 174.180162,345.093591 174.95889,343.664375 C175.813457,342.097415 173.920277,341.369864 173.239584,340.302113 C166.625017,329.925969 161.169295,318.937832 156.267561,307.688073 C154.758197,304.22412 152.900162,302.103408 149.163746,300.793447 C123.671954,291.851141 101.444902,277.76144 83.1725318,257.736703 C75.6793526,249.524721 70.0802775,239.987062 64.9769249,230.189631 C39.139237,180.58031 17.8675607,129.066602 0.794728324,75.8139831 C0.43865896,74.7037061 -0.525965318,73.6535191 0.371144509,71.8554435 C8.43588439,75.665145 16.4932254,79.5229183 24.6014335,83.2716054 C26.8590058,84.3153212 29.5753064,87.1876198 31.4092948,85.6225083 C33.3413179,83.9723464 30.812763,80.8791018 30.0923006,78.5245011 C22.736,54.4903788 16.8280231,30.0864723 11.2067514,5.60676007 C10.9690636,4.57413777 10.6943815,3.50453705 11.3963468,2.49595072 C13.1045549,2.20936799 14.3318382,3.27342194 15.5757688,4.10636079 C54.5390058,30.1798428 93.3524162,56.4770442 131.750566,83.3742205 C178.546405,116.153738 224.871491,149.592397 270.402127,184.112674 C283.952185,194.385278 297.172994,205.093303 310.538081,215.609965 C311.733919,216.551066 312.953803,218.044069 314.476116,217.537465 C316.332301,216.92085 315.62941,214.888886 315.589642,213.468915 C315.348254,204.931523 318.085827,197.809479 325.209064,192.723098 C327.908717,190.795598 326.882127,189.60212 324.705017,188.072138 C316.934382,182.614123 308.963052,177.380753 301.640971,171.364364 C291.224324,162.802936 286.068254,151.837911 288.954728,138.015379 C290.811838,129.121145 290.746173,129.195102 298.059931,134.66421 C317.320046,149.066379 336.668023,163.352066 355.880971,177.816174 C358.09415,179.482051 360.181549,179.33876 362.379006,178.737861 C387.105017,171.975433 411.807908,171.944001 436.517272,178.793328 C439.198428,179.536595 441.313572,178.929224 443.693225,177.132073 C463.989179,161.81099 484.479353,146.748756 504.794728,131.453559 C507.810682,129.183084 508.561665,130.240667 509.146173,133.166584 C512.511723,150.014875 510.056231,162.532069 492.939931,174.569469 C486.427098,179.15017 479.992879,183.84458 473.485595,188.434526 C471.499006,189.836008 471.252994,191.072012 473.364439,192.560393 C480.68652,197.72258 483.324208,205.058174 483.165133,213.709274 C483.140162,215.021084 482.600971,216.755372 484.089064,217.477375 C485.500393,218.161476 486.659237,216.882947 487.699699,216.040764 C508.902936,198.884627 530.667561,182.456965 552.468254,166.071828 C577.817618,147.019623 603.456462,128.364012 629.290451,109.980192 C668.481202,82.0929183 707.91704,54.5569399 747.963283,27.9028968 C761.062936,19.1843104 774.020162,10.2530982 787.796809,0.907727698 C787.722821,7.27171331 785.96652,12.3479255 784.730913,17.4343068 C779.452763,39.1628248 773.796347,60.7961234 767.283514,82.1955335 C766.895075,83.4731378 765.805595,84.9106737 767.328832,85.9469939 C768.493225,86.7401809 769.595653,85.5282133 770.648139,85.0290047 C779.885595,80.6415155 789.108254,76.2225946 799.092994,71.4514543 C797.270104,79.1873392 794.836809,85.8804327 792.500624,92.6179004 C781.502243,124.342609 769.249757,155.579203 755.219699,186.08085 C745.996116,206.133321 736.930682,226.30135 725.039815,245.006882 C714.168139,262.110325 699.087445,274.731983 682.03311,285.175613 C671.159584,291.835426 659.757965,297.513462 647.630335,301.553354 C645.445827,302.280904 644.33785,303.498418 643.506405,305.410203 C638.120971,317.794274 632.261087,329.941685 624.642127,341.1369 C622.114497,344.851382 624.714266,344.49639 626.988486,344.501012 C639.627561,344.523199 652.26941,344.657246 664.903861,344.422433 C668.600509,344.353098 669.51704,345.444886 669.482821,349.048433 C669.305249,367.689253 669.475422,386.332846 669.327445,404.973667 C669.302474,408.203731 670.269873,409.864987 673.281202,411.234113 C684.728139,416.4379 696.032647,421.958778 707.376925,427.389059 C709.55126,428.430001 711.664555,429.598519 714.881202,431.266246" id="Fill-1" fill="#878B8E" sketch:type="MSShapeGroup" mask="url(#mask-2)"></path>
                </g>
                <path d="M421.592046,274.242666 C428.163145,273.849771 434.182104,274.117864 437.301642,268.498069 C440.624647,262.510339 438.126613,256.753724 434.921988,250.605137 C433.362682,260.213979 429.174936,267.593947 421.592046,274.242666 L421.592046,274.242666 Z M378.040601,274.27872 C370.414243,267.655886 366.14511,260.352648 364.597827,250.09576 C361.801988,256.731537 358.847075,262.151648 362.004532,268.090382 C365.136092,273.981044 371.206844,273.791529 378.040601,274.27872 L378.040601,274.27872 Z M473.947191,340.683637 C471.795052,340.683637 469.640139,340.740029 467.48985,340.667922 C465.520832,340.60136 463.954127,340.511688 464.06326,343.4034 C464.154821,345.830109 464.531237,347.254702 467.327075,346.82945 C469.754821,346.460591 470.647306,347.57549 470.454012,349.975389 C470.294936,351.960206 469.909272,354.146555 470.52615,355.930763 C471.90511,359.917037 466.612162,365.984271 473.76222,367.933033 C477.045457,368.828835 477.241526,368.110529 477.244301,356.190537 C477.244301,354.038393 477.355283,351.879778 477.214705,349.736878 C477.071353,347.536663 477.932393,346.497569 480.114127,346.839619 C483.160601,347.315717 483.567538,345.816242 483.608231,343.165814 C483.657249,339.981047 481.641988,340.737256 479.943954,340.695655 C477.946266,340.646659 475.946728,340.683637 473.947191,340.683637 L473.947191,340.683637 Z M396.058636,354.919404 C396.345341,358.595983 394.195977,364.372936 396.810543,367.081605 C399.655399,370.028785 405.524532,367.734274 410.058173,368.079098 C410.210775,368.091116 410.368,368.060609 410.517827,368.082796 C413.396902,368.505274 413.133318,366.60181 413.281295,364.668763 C413.466266,362.250375 412.342566,361.794616 410.318058,361.996148 C409.254474,362.102461 408.151121,361.88244 407.100486,362.039598 C404.017942,362.500904 402.737017,361.563501 402.97378,358.166109 C403.292855,353.584483 402.94511,348.961256 403.095861,344.36299 C403.178173,341.854004 402.934012,340.533875 399.755283,340.547742 C396.57563,340.562533 395.818173,341.627512 396.009618,344.515526 C396.222335,347.724328 396.058636,350.957166 396.058636,354.919404 L396.058636,354.919404 Z M503.854243,357.308209 C503.854243,359.927206 504.025341,362.560069 503.807075,365.161501 C503.58326,367.839663 504.899329,368.214994 507.10141,368.121623 C509.184185,368.032875 511.10326,368.337022 510.968231,365.155954 C510.766613,360.388512 511.032046,355.60258 510.873896,350.83144 C510.782335,348.088565 511.223491,346.329317 514.551121,346.792472 C517.330312,347.178896 516.778173,345.076673 516.89378,343.448699 C517.022335,341.651547 516.697711,340.579173 514.470659,340.643886 C509.696555,340.78163 504.913202,340.772386 500.138173,340.647583 C497.824185,340.587494 497.696555,341.873418 497.785341,343.570727 C497.863954,345.0739 497.498636,347.128051 499.881064,346.751796 C504.455399,346.027943 503.972624,348.9289 503.867191,351.761447 C503.797827,353.608519 503.854243,355.459288 503.854243,357.308209 L503.854243,357.308209 Z M247.157827,352.282842 C247.157827,356.231213 247.107884,359.466824 247.170775,362.701512 C247.239214,366.238497 249.128694,368.043968 252.657017,368.0754 C256.201988,368.106832 259.750659,368.174317 263.289156,368.034724 C264.60985,367.982029 266.866497,369.037763 266.979329,366.658202 C267.089387,364.358145 268.312971,361.317594 266.059098,359.879134 C264.848462,359.106285 261.98141,358.431429 260.414705,360.925623 C259.052393,363.092558 256.715283,362.146835 255.00985,361.798314 C253.340486,361.458112 254.268116,359.443713 254.191353,358.187371 C254.050775,355.88454 254.047075,353.561371 254.189503,351.259465 C254.277364,349.826551 253.302566,347.620788 254.94326,347.1299 C256.704185,346.602033 258.871121,345.952137 260.687538,348.312285 C262.14511,350.206504 266.667653,349.281119 267.088462,347.496911 C268.328694,342.240429 267.126382,340.686411 261.820486,340.683637 C261.049156,340.683637 260.276902,340.648508 259.508347,340.690109 C255.542566,340.902735 250.393896,339.019609 247.923607,341.420432 C245.414474,343.859159 247.523145,349.035213 247.157827,352.282842 L247.157827,352.282842 Z M473.360832,519.976267 C470.256092,521.019058 468.533087,522.981688 466.464185,524.375774 C456.964994,530.777663 446.65563,535.301047 435.478751,537.888612 C434.245919,538.173346 432.436902,538.067033 431.972624,539.625673 C431.429734,541.445936 433.121295,542.319551 434.236671,543.27267 C437.311815,545.900911 441.076902,547.263565 444.720832,548.870278 C446.688925,549.737422 448.039214,549.273342 449.713202,548.042886 C457.828809,542.080116 464.540486,534.819404 470.20615,526.548256 C471.463029,524.713202 472.743954,522.86613 473.360832,519.976267 L473.360832,519.976267 Z M304.16222,354.425742 C304.16222,351.041292 303.994821,347.645749 304.214012,344.275166 C304.391584,341.548008 303.704416,340.604134 300.726382,340.553288 C297.458867,340.495972 297.259098,342.009314 297.454243,344.434173 C297.565225,345.809771 297.34511,347.216799 297.498636,348.584076 C297.850081,351.69581 297.232277,353.24613 293.423723,353.267393 C289.428347,353.288655 289.248925,351.368551 289.477364,348.455576 C289.596671,346.926519 289.340486,345.360483 289.532855,343.846217 C289.887075,341.066364 288.570081,340.629094 286.119214,340.598587 C283.533318,340.566231 282.684301,341.300253 282.755514,343.944209 C282.932162,350.555026 282.810081,357.174163 282.814705,363.789601 C282.816555,366.028645 282.131237,368.267688 286.060948,368.237181 C289.703954,368.209447 289.817711,366.386411 289.463491,363.951382 C288.89748,360.059404 290.457711,359.074853 294.247769,359.133094 C299.42696,359.213522 297.334936,362.841105 297.350659,365.001569 C297.371931,367.956145 298.758289,368.092965 301.046382,368.148432 C303.429734,368.205749 304.342566,367.518875 304.209387,365.038547 C304.019792,361.509882 304.161295,357.964576 304.16222,354.425742 L304.16222,354.425742 Z M532.378636,354.263961 C532.378636,357.798173 532.48037,361.335159 532.341642,364.8629 C532.254705,367.089925 532.677364,368.24735 535.308578,368.138263 C540.06511,367.940429 544.840139,367.958918 549.59852,368.129943 C552.252855,368.225163 552.532162,366.928145 552.596902,364.761209 C552.665341,362.432494 551.723838,361.858404 549.612393,361.982281 C547.162451,362.125573 544.696786,362.028504 542.237595,362.009091 C540.757827,361.997073 539.192971,362.387195 539.164301,359.880983 C539.134705,357.248119 540.678289,357.367375 542.441988,357.392335 C544.901179,357.427465 547.369618,357.26476 549.816786,357.438558 C552.191815,357.607735 552.645919,356.494684 552.578405,354.435911 C552.516439,352.547238 552.41748,351.106004 549.911121,351.232655 C547.152277,351.372249 544.380486,351.257616 541.613318,351.242824 C540.274127,351.235429 539.266035,350.969184 539.210543,349.239519 C539.151353,347.387824 540.017942,346.811886 541.679908,346.828526 C544.292624,346.853486 546.91459,346.683386 549.515283,346.859033 C552.077133,347.031907 552.597827,345.852296 552.595977,343.579972 C552.594127,341.448166 552.037364,340.570853 549.749272,340.639263 C544.835514,340.787177 539.911584,340.764065 534.996902,340.645735 C533.033434,340.597663 532.263954,341.141245 532.343491,343.204641 C532.485919,346.885842 532.38326,350.577213 532.378636,354.263961 L532.378636,354.263961 Z M379.391815,367.799911 C378.992277,363.744303 375.395514,360.627022 378.377249,355.943706 C379.977249,353.431947 378.779561,349.059249 378.62326,345.53613 C378.491006,342.542727 376.819792,340.743727 373.707653,340.701202 C369.101873,340.639263 364.493318,340.757594 359.889387,340.649432 C358.044301,340.605983 357.536555,341.291932 357.552277,343.04286 C357.622566,350.563346 357.607769,358.084756 357.563376,365.605242 C357.554127,367.240612 357.939792,367.902526 359.816324,368.161375 C365.897249,369.001709 363.847769,364.656745 364.244532,361.747468 C364.414705,360.495749 363.173549,358.402771 365.882451,358.337134 C367.705341,358.29276 369.670659,357.935918 370.197827,360.541972 C370.376324,361.425756 370.979329,362.225414 371.154127,363.109199 C372.058636,367.687127 374.867422,368.987842 379.391815,367.799911 L379.391815,367.799911 Z M427.260486,352.944756 C427.155977,352.944756 427.051468,352.945681 426.94696,352.945681 C426.94696,356.17667 427.00615,359.408583 426.931237,362.637724 C426.847075,366.244968 428.456324,368.104058 432.132624,368.086494 C436.288,368.06708 440.448925,367.957069 444.596902,368.128094 C447.159676,368.233483 448.174243,367.466181 448.078983,364.767681 C447.897711,359.69794 448.025341,354.616181 448.025341,349.539044 C448.027191,341.087627 447.625803,340.652206 439.212393,340.697504 C435.228116,340.719691 429.688231,339.375526 427.697942,341.418583 C425.705803,343.46349 427.260486,348.960332 427.260486,352.944756 L427.260486,352.944756 Z M319.29563,353.439342 C319.29563,357.551342 319.493549,360.945961 319.237364,364.30545 C318.998751,367.429202 320.191815,368.108681 323.161526,368.202051 C326.641757,368.310213 326.628809,366.339263 326.24222,364.164008 C325.421873,359.537083 327.782104,358.827098 331.596208,359.218145 C336.314821,359.702562 333.844532,363.209965 333.945341,365.20495 C334.104416,368.365681 335.880139,368.018083 337.927769,368.11885 C340.139098,368.227936 341.317364,367.808231 341.211931,365.158727 C340.999214,359.790386 340.852162,354.395235 341.153665,349.037062 C341.517133,342.590799 339.670197,340.065173 332.700486,340.635565 C328.432277,340.985012 322.674127,339.212821 320.214012,341.377907 C317.349734,343.897062 319.708116,349.772932 319.29563,353.439342 L319.29563,353.439342 Z M434.730543,529.109936 C438.331006,528.020922 442.62696,526.847781 446.837827,525.423188 C456.205688,522.253213 465.018636,518.006242 472.83459,511.82345 C475.487075,509.72585 475.574012,508.139476 472.624647,506.278537 C468.709734,503.808378 464.558983,501.874407 460.343491,499.992206 C457.991584,498.942019 456.523838,499.143551 454.747191,501.024828 C449.788116,506.280386 444.57563,511.296508 439.570312,516.510465 C436.689387,519.511263 434.33748,522.924371 432.57378,526.724828 C431.820023,528.349105 431.761757,529.424253 434.730543,529.109936 L434.730543,529.109936 Z M362.329156,528.558958 C364.360139,529.111785 365.240601,529.414083 365.737249,528.67544 C366.52985,527.496753 365.913896,526.343026 365.327538,525.241069 C361.72985,518.48049 356.235283,513.300738 350.897942,508.001731 C340.182566,497.360267 339.575861,497.459184 326.609387,505.943882 C322.737942,508.476904 323.597133,510.112274 326.49378,512.335601 C337.549503,520.81845 350.233896,525.637663 362.329156,528.558958 L362.329156,528.558958 Z M238.23852,488.528896 C235.655399,488.87372 233.071353,489.213922 230.489156,489.56799 C229.767769,489.666907 228.826266,489.473695 228.600601,490.457321 C228.400832,491.328163 229.088925,491.854181 229.707653,492.294224 C230.331006,492.737965 231.016324,493.096655 231.681295,493.480306 C253.519908,506.087173 275.355746,518.697738 297.199908,531.294436 C304.127075,535.289029 311.069965,539.256814 318.025803,543.20426 C318.766613,543.623965 319.660948,544.427321 320.469272,543.460335 C320.753202,543.121058 320.756902,542.127263 320.469272,541.791684 C316.337942,536.969699 314.452162,530.528983 308.324994,527.070576 C287.707191,515.431619 267.325225,503.37758 246.801757,491.570371 C244.196439,490.071821 241.666035,487.973296 238.23852,488.528896 L238.23852,488.528896 Z M398.879445,660.071774 C399.207769,660.050512 399.536092,660.029249 399.864416,660.008911 C404.028116,642.154806 408.161295,624.294231 412.395283,606.456767 C412.918751,604.251004 412.177017,603.017774 410.43089,601.881612 C405.225803,598.493465 391.695168,598.676508 386.471584,602.218116 C385.226728,603.061224 384.494243,603.724062 384.959445,605.519364 C389.66696,623.685936 394.257017,641.883015 398.879445,660.071774 L398.879445,660.071774 Z M546.730543,385.057738 C539.339098,385.057738 531.93563,385.313814 524.561757,384.956047 C520.528462,384.760986 519.044994,385.793609 519.58141,389.934267 C520.107653,394.003742 517.911121,399.442342 520.402682,401.899558 C522.885919,404.349378 528.298173,402.722328 532.393434,402.535587 C535.818173,402.379353 536.759676,403.298267 536.726382,406.814914 C536.537711,426.823012 536.728231,446.834806 536.54696,466.842904 C536.515514,470.229202 537.396902,471.44949 540.781873,471.461508 C544.457249,471.47445 548.251006,471.544709 551.77378,472.446058 C556.630197,473.688533 557.303491,471.922814 557.256324,467.538098 C557.039908,447.22308 557.238751,426.90344 557.081526,406.587497 C557.05563,403.317681 557.959214,402.283209 561.169387,402.571641 C564.224185,402.84713 567.333549,402.476422 570.399445,402.678878 C572.880832,402.843432 573.591121,401.935612 573.476439,399.550504 C573.299792,395.864681 573.207306,392.146501 573.498636,388.475468 C573.739098,385.436767 572.522913,384.939407 569.827884,384.998573 C562.132162,385.167749 554.429965,385.057738 546.730543,385.057738 L546.730543,385.057738 Z M369.481988,385.057738 C370.706497,386.583098 371.321526,387.617569 372.181642,388.375627 C375.948578,391.696288 376.792971,395.810137 376.734705,400.730116 C376.496092,420.592148 376.757827,440.460652 376.536786,460.322684 C376.489618,464.496623 377.038983,466.612713 381.844532,465.782547 C384.536786,465.318468 387.407538,465.432177 390.14141,465.76036 C394.56037,466.290076 396.102104,465.127105 396.001295,460.207127 C395.635052,442.352098 395.942104,424.483202 395.781179,406.621702 C395.751584,403.370375 396.632046,402.358091 399.87274,402.561472 C404.32222,402.839735 408.828116,402.922012 413.263723,402.543907 C417.163838,402.211101 418.057249,403.469292 418.010081,407.295634 C417.788116,425.464055 417.95459,443.637098 417.863954,461.807368 C417.850081,464.503094 418.094243,466.015512 421.461642,465.805659 C425.586497,465.547735 429.771468,465.761285 433.897249,466.136616 C437.188809,466.435217 437.957364,465.311997 437.932393,462.09395 C437.776092,442.230069 437.652162,422.360641 437.975861,402.501382 C438.074821,396.43045 437.175861,391.558544 431.938405,387.750691 C429.732624,386.147677 427.934705,384.911673 425.069503,384.990253 C417.679908,385.192709 410.281988,385.057738 402.886844,385.057738 L369.481988,385.057738 Z M445.575399,385.058663 C452.130775,394.757177 452.130775,394.757177 452.130775,406.556065 C452.130775,425.196886 452.214012,443.837706 452.050312,462.476677 C452.022566,465.65867 452.823491,466.579432 456.042913,466.700537 C472.639445,467.325472 489.229503,468.166731 505.812162,469.08472 C508.161295,469.215069 509.222104,468.944202 509.112971,466.307641 C508.940948,462.155889 508.954821,457.986573 509.112046,453.832972 C509.200832,451.48022 508.519214,450.677788 506.035977,450.625094 C498.191353,450.458691 490.355977,449.892922 482.511353,449.660882 C472.117827,449.353961 472.265803,449.426994 472.324994,438.912181 C472.343491,435.790278 473.528231,435.428814 476.116902,435.56286 C485.945341,436.071314 495.783029,436.37731 505.612393,436.86635 C508.050312,436.987454 509.283145,436.502112 509.126844,433.668641 C508.89748,429.521512 508.934474,425.346648 509.115746,421.195821 C509.232277,418.530601 508.220486,417.767922 505.650312,417.757753 C498.107191,417.730019 490.564994,417.473943 483.022798,417.286278 C472.164069,417.015411 472.304647,417.007091 472.325919,406.018954 C472.331468,402.980253 473.358058,402.500458 476.025341,402.57349 C482.49378,402.750062 488.972393,402.741742 495.441757,402.592904 C499.856092,402.491213 505.906497,404.597134 508.263029,401.787699 C510.937711,398.59831 508.788347,392.648483 509.093549,387.912472 C509.236902,385.691918 508.432277,385.008742 506.208,385.016137 C486.182104,385.08917 466.155283,385.058663 445.575399,385.058663 L445.575399,385.058663 Z M355.116208,438.050583 C356.02904,437.8509 356.651468,437.545828 357.227653,437.615163 C361.807538,438.170763 362.591815,435.985339 362.472509,431.79476 C362.14511,420.26304 362.368,408.716529 362.355052,397.17649 C362.349503,391.947742 355.549965,385.072529 350.338405,385.065134 C334.637133,385.044796 318.934936,385.057738 303.23274,385.057738 L296.135399,385.057738 C295.865341,385.338774 295.594358,385.61981 295.324301,385.900846 C303.783954,391.078749 302.743491,399.079954 302.690775,406.924925 C302.561295,426.004864 302.747191,445.086652 302.559445,464.164742 C302.524301,467.726688 303.517595,468.755612 306.957133,468.334058 C310.913665,467.847792 314.921988,467.624997 318.90904,467.608357 C321.222104,467.599112 321.754821,466.737515 321.704879,464.617727 C321.583723,459.388055 321.666035,454.154684 321.666035,448.923163 C321.666035,437.833335 321.666035,437.911914 332.858636,437.893425 C335.069965,437.889727 336.139098,438.375069 336.821642,440.57436 C338.091468,444.662324 339.621179,448.680954 341.245225,452.64504 C343.092162,457.154558 343.223491,463.586954 346.955283,465.754814 C350.65378,467.90326 356.509965,466.246627 361.411699,466.45463 C364.614474,466.590526 365.457942,465.700271 364.215861,462.529371 C361.096324,454.569767 358.239445,446.507547 355.116208,438.050583 L355.116208,438.050583 Z M222.191353,385.059587 C221.931468,385.37113 221.670659,385.682673 221.410775,385.994217 C228.694012,390.712663 228.239908,397.794029 228.168694,404.968767 C227.991121,422.836738 228.495168,440.719501 227.910659,458.569907 C227.695168,465.139123 231.542566,468.579965 234.939561,472.775166 C235.61378,473.608105 236.481295,473.560033 237.444994,473.477756 C253.529156,472.096612 269.612393,470.691432 285.707653,469.446184 C288.00222,469.268688 288.41378,468.40894 288.409156,466.357562 C288.34904,442.941904 288.384185,419.52717 288.353665,396.111512 C288.349965,393.014569 281.070428,385.115979 277.995283,385.102112 C259.39459,385.017986 240.792971,385.059587 222.191353,385.059587 L222.191353,385.059587 Z M577.336786,368.283404 C578.743491,370.032483 579.366844,371.118724 580.267653,371.874932 C583.908809,374.932123 584.592277,378.806537 584.475746,383.384465 C584.19459,394.471519 584.57748,405.574288 584.277827,416.660418 C584.176092,420.420199 585.50141,421.914127 588.844763,423.269386 C599.496324,427.586616 609.964763,432.354058 620.515514,436.918119 C622.259792,437.672479 623.700717,438.311281 623.632277,440.768497 C623.451006,447.234173 623.51852,453.710019 623.598058,460.179393 C623.624879,462.31767 623.110659,463.249526 620.707884,462.853857 C616.311121,462.130929 611.880139,461.389512 607.441757,461.215713 C603.898636,461.076119 602.864647,459.587738 603.404763,456.405745 C603.900486,453.479828 602.726844,452.404681 599.720139,452.275256 C596.050312,452.117173 592.401757,451.376681 588.756902,450.800742 C585.708578,450.319098 583.949503,450.64913 584.278751,454.622461 C584.709734,459.826249 584.855861,465.146519 584.248231,470.314253 C583.672046,475.217591 585.98141,476.229875 589.972162,476.610753 C606.194127,478.161073 622.292162,480.687623 638.318983,483.550677 C642.544647,484.305961 642.756439,483.03945 642.716671,479.649454 C642.570543,467.325472 642.742566,454.996868 642.59089,442.672886 C642.559445,440.106583 643.36037,438.765191 645.678058,437.794508 C650.439214,435.799522 655.10141,433.567875 660.344416,431.189238 C658.651931,430.364619 657.620717,429.842299 656.57378,429.356033 C640.299098,421.800418 623.758058,414.86604 607.030197,408.391119 C604.313896,407.340008 603.174474,406.088288 603.336324,403.118922 C603.587884,398.510486 603.579561,393.868771 603.340948,389.259411 C603.182798,386.180033 603.881064,384.80536 607.309503,385.061436 C611.448231,385.37113 615.639676,385.327681 619.785803,385.070681 C622.818405,384.883015 624.060486,385.844454 623.578636,388.885929 C623.084763,392.006907 624.22326,393.343677 627.592509,393.108864 C631.58141,392.829677 635.609156,392.911029 639.609156,393.08945 C642.085919,393.200386 642.760139,392.292565 642.706497,389.914853 C642.564994,383.600788 642.603838,377.280253 642.691699,370.965263 C642.717595,369.076591 642.317133,368.233483 640.171468,368.240878 C619.547191,368.312062 598.921988,368.283404 577.336786,368.283404 L577.336786,368.283404 Z M194.824879,429.375447 L194.824879,434.106835 C194.824879,447.816583 194.876671,461.527256 194.779561,475.23608 C194.761064,477.879112 195.264185,478.712976 198.14141,478.043666 C201.715052,477.212576 205.44037,476.764213 209.111121,476.694878 C212.636671,476.628317 213.764069,475.51804 213.743723,471.829443 C213.580948,442.254105 213.699329,412.676918 213.605919,383.10158 C213.591121,378.247238 215.800601,371.575407 212.64037,369.031292 C209.623491,366.60181 203.215168,368.536706 198.318058,368.227012 C195.385341,368.040271 194.714821,369.04331 194.759214,371.842576 C194.924763,382.160479 194.652855,392.487627 194.925688,402.801832 C195.015399,406.189979 193.76222,407.711641 190.828578,408.819145 C186.246844,410.546961 181.747422,412.509591 177.283145,414.526763 C174.302335,415.873702 172.775399,416.196339 172.86326,411.829188 C173.131468,398.432832 172.899329,385.027231 173.011237,371.626253 C173.032509,369.079364 172.395283,368.086494 169.708578,368.236256 C165.867653,368.450731 161.990659,368.50435 158.158058,368.223314 C154.956208,367.987576 154.010081,368.924979 154.048925,372.232699 C154.234821,387.942979 154.033202,403.657882 154.212624,419.368163 C154.250543,422.709163 153.499561,424.710619 150.200601,426.002091 C146.235746,427.555184 142.508578,429.712875 138.351353,431.770724 C142.525225,433.879418 146.252393,436.064842 150.214474,437.668781 C153.465341,438.985213 154.279214,440.939522 154.218173,444.312878 C153.996208,456.632238 154.216324,468.959918 154.067422,481.281127 C154.032277,484.172839 154.605688,484.965101 157.580023,484.204271 C161.283145,483.256699 165.116671,482.491245 168.919676,482.352576 C172.584879,482.220378 173.068578,480.58963 173.02511,477.449238 C172.862335,465.74372 172.949272,454.035429 172.973318,442.328062 C172.976092,440.718576 172.423029,438.868731 174.554821,437.970155 C181.148116,435.193076 187.729387,432.386414 194.824879,429.375447 L194.824879,429.375447 Z M399.834821,552.22422 C398.922913,550.595321 398.576092,550.253271 398.550197,549.889033 C397.253549,531.820454 395.950428,513.752799 394.75274,495.677749 C394.58904,493.199271 394.737942,491.232943 391.20037,491.26345 C378.24222,491.373461 365.479214,492.889576 352.824416,495.637073 C349.40615,496.379414 348.961295,497.264123 351.602682,499.710245 C357.924069,505.56208 364.180717,511.486947 370.361526,517.486695 C381.330312,528.133706 382.88037,546.291958 364.571931,555.052145 C363.515746,555.5569 361.873202,555.743641 361.805688,557.156217 C361.72985,558.758306 363.404763,559.230706 364.54141,559.937918 C370.669503,563.754091 377.228578,566.723458 384.001295,569.475576 C382.896092,570.666281 381.66696,570.685695 380.454474,570.867814 C377.342335,571.336515 372.579329,569.410864 371.48615,571.866231 C370.343954,574.432533 374.412393,577.47031 375.661873,580.582968 C377.130543,584.241058 379.279908,585.003738 383.120832,583.313824 C391.828347,579.48286 400.900254,579.242501 410.212624,581.304972 C413.819561,582.103706 417.514358,585.991986 420.776324,583.658648 C423.64615,581.606346 424.882682,577.305756 426.922913,574.049806 C428.423954,571.653605 427.768231,570.928828 425.046382,570.868738 C421.694705,570.795706 418.148809,571.719242 414.478983,569.521799 C421.888925,566.683706 428.496092,563.452717 434.791584,559.602339 C437.083376,558.200857 438.322682,556.896443 434.819329,555.329483 C432.869734,554.456792 430.999676,553.304914 429.286844,552.021763 C423.434358,547.637972 419.823723,542.314004 420.41748,534.392303 C420.924301,527.648364 423.600832,522.219932 428.186266,517.665116 C434.516902,511.37786 441.132393,505.379037 447.577711,499.20549 C448.780948,498.053612 450.536324,496.759368 447.081064,495.951389 C433.856555,492.858145 420.47852,491.262526 406.896092,491.317994 C405.014012,491.325389 404.159445,492.006717 404.033665,493.998929 C403.492624,502.576997 402.822104,511.14767 402.198751,519.720191 C401.443145,530.10558 400.687538,540.490968 399.834821,552.22422 L399.834821,552.22422 Z M379.658173,228.808209 C376.039214,219.935238 370.895168,212.495181 363.156902,206.907742 C357.817711,203.053666 354.385572,203.040724 348.99274,207.301562 C349.058405,207.438382 349.088,207.624199 349.195283,207.702778 C349.688231,208.064242 350.186728,208.422008 350.711121,208.732627 C362.876671,215.936022 369.678983,226.855749 372.399908,240.455486 C373.551353,246.211177 375.162451,251.816181 377.325688,257.226123 C379.323376,262.219134 381.708578,267.201976 386.525225,270.156551 C390.010081,272.293904 388.806844,273.50772 386.263491,275.224443 C376.141873,282.054357 366.221873,280.443947 356.317595,274.770533 C354.855399,273.932972 353.679908,272.254152 351.354821,272.75336 C351.652624,273.601091 351.781179,274.195519 352.054012,274.715065 C361.389503,292.475799 374.454936,306.556256 392.554358,315.652947 C400.03089,319.409954 401.795514,318.760058 405.329387,311.024173 C405.519908,310.606317 405.668809,310.169047 405.837133,309.740098 C409.189734,301.180519 410.266266,292.330659 409.725225,283.162785 C409.395052,277.565177 407.393665,271.131857 414.860948,268.059875 C415.095861,267.962806 415.177249,267.539404 415.378867,267.311062 C421.078751,260.845386 423.694243,252.92276 425.225803,244.747756 C428.170543,229.033778 434.821179,215.973001 449.328462,207.917253 C449.609618,207.761019 449.669734,207.206342 449.82141,206.866141 C444.09748,202.942731 438.845225,203.375378 433.92037,207.996756 C432.349965,209.471271 430.742566,210.909731 429.222104,212.433242 C424.746728,216.917799 421.856555,222.438677 419.102335,228.118562 C418.476208,219.305681 420.363838,211.082605 424.650543,203.508501 C426.306035,200.583508 426.066497,199.21808 422.662104,198.587598 C407.076439,195.704206 391.503723,195.700508 375.934705,198.665253 C373.204532,199.185724 371.947653,199.914199 373.814012,203.197882 C378.292162,211.075209 380.184416,219.733706 379.658173,228.808209 L379.658173,228.808209 Z M65.4893873,93.0401014 L65.4107746,93.0160655 C67.8006012,101.121735 71.9569017,108.48876 75.168,116.252378 C78.9423353,125.376803 82.9793295,134.392141 86.9025665,143.454627 C86.6519306,143.717173 86.4012948,143.97972 86.150659,144.242267 C73.5781734,137.922655 61.0056879,131.603968 47.6165549,124.874821 C56.4590983,147.969691 65.3710058,169.919155 75.2965549,191.441519 C80.8105434,203.39849 85.6355145,215.886101 94.0211792,226.155932 C119.331699,257.156788 153.435746,271.877896 192.175168,276.766443 C216.724532,279.86431 241.44222,281.630954 266.083145,284.004968 C273.445919,284.714029 280.804994,285.457296 288.165919,286.185771 C288.25748,285.944486 288.348116,285.703202 288.439676,285.461918 C233.026035,245.456817 177.612393,205.452641 122.198751,165.44754 C122.381873,165.109188 122.565919,164.77176 122.749965,164.434332 C194.730543,203.617587 266.711121,242.801767 339.723838,282.548019 C336.717133,275.878961 334.275514,270.463472 331.833896,265.048907 C332.089156,262.30326 330.749965,260.385929 328.694936,258.759803 C308.100254,242.463414 287.512971,226.162404 266.607538,210.259835 C204.785572,163.234382 141.18511,118.783551 75.2947052,77.6284216 C69.5578266,74.0452129 63.7626821,70.5562993 57.9749364,67.0553676 C57.0898497,66.5191806 56.1270751,65.7518784 55.027422,66.520105 C54.3985202,66.9592237 54.7527399,67.6488712 54.9626821,68.2035475 C57.9915838,76.2019791 59.9300809,84.6395295 64.537711,92.0028568 C64.6792139,92.5094612 64.6681156,93.1565835 65.4893873,93.0401014 L65.4893873,93.0401014 Z M733.273896,93.0410259 C734.037827,93.0927957 734.111815,92.5039144 734.258867,91.9815942 C738.797133,84.5877597 740.666266,76.1234 743.810775,68.1693424 C744.553434,66.2908388 743.548116,65.8914719 742.002682,66.4637129 C741.010312,66.8307237 740.127075,67.5009576 739.207769,68.0574827 C705.543029,88.4658712 672.572855,109.946634 640.091931,132.186378 C616.378636,148.424526 592.924301,165.027835 569.782566,182.06749 C536.130775,206.843954 502.97563,232.269389 470.435514,258.491709 C468.254705,260.248184 466.694474,262.110047 466.933087,265.048907 C464.465572,270.52726 461.998058,276.005612 459.059792,282.528605 C531.824647,242.912702 603.507422,203.887529 675.189272,164.861432 L675.825572,165.9449 C620.616324,205.812256 565.407075,245.679612 510.198751,285.546968 C517.989734,285.460994 525.319214,284.717727 532.650543,283.998497 C553.460717,281.957288 574.241295,279.491753 595.091237,278.001522 C621.389503,276.122094 646.195052,269.555652 669.079676,256.416296 C689.382104,244.759774 705.553202,229.227914 715.827422,207.648235 C728.217711,181.6219 739.307653,155.076019 749.78904,128.254648 C750.108116,127.439274 751.348347,126.527756 750.148809,125.318562 C737.650312,131.623382 725.131468,137.937447 712.613549,144.251512 C715.093087,135.921199 718.397595,128.426598 721.541179,120.865436 C725.412624,111.553346 730.189503,102.624907 733.347884,93.0123676 L733.273896,93.0410259 Z M215.470428,318.412461 C217.335861,320.831774 219.193896,323.256634 221.070428,325.666702 C222.178405,327.090371 223.426035,327.633954 225.432971,327.413008 C244.647769,325.294145 263.902335,323.624569 283.238289,323.111494 C287.459329,322.999634 291.699792,323.196544 296.371237,321.654544 C294.190428,321.175673 292.57378,320.703274 290.924763,320.477706 C270.887769,317.738529 250.956208,314.353155 231.083838,310.6359 C216.325919,307.875461 201.551353,305.112249 187.225341,300.461288 C186.336555,300.172857 185.349734,299.791979 184.590428,300.429857 C183.433434,301.401465 184.63852,302.401731 184.896555,303.323418 C185.223029,304.491012 185.852855,305.580026 186.40222,306.67736 C195.120832,324.082177 207.126382,338.938256 221.531931,351.933396 C222.43459,352.746922 223.461179,354.177986 224.60985,353.425476 C226.312509,352.310576 224.554358,350.971958 224.089156,349.884792 C219.794127,339.852547 215.444532,329.85081 215.170775,318.674083 L215.470428,318.412461 Z M583.411237,318.513227 L583.449156,318.55113 C583.587884,321.020364 583.217942,323.408245 582.768462,325.851594 C580.973318,335.610199 576.420254,344.398119 573.281295,353.678778 C572.986266,353.993094 572.100254,354.141008 572.966844,354.785357 C573.051931,354.399857 573.137017,354.014357 573.221179,353.629781 C574.966382,353.969983 576.101179,352.952152 577.263723,351.890871 C592.291699,338.180199 604.813318,322.580853 613.396902,304.01399 C613.899098,302.9259 615.13378,301.648296 614.388347,300.659123 C613.415399,299.368576 611.869965,300.382709 610.569618,300.76636 C584.933549,308.324749 558.574243,312.34985 532.28985,316.72717 C522.498405,318.356994 512.684763,319.855544 501.639214,321.611094 C505.878751,322.573458 508.828116,323.033839 511.895861,323.072666 C529.85748,323.303781 547.771006,324.512051 565.579098,326.799166 C572.787422,327.725476 578.883145,327.45276 582.040601,319.637371 C582.234821,319.156652 582.942335,318.883936 583.411237,318.513227 L583.411237,318.513227 Z M477.046382,544.073253 C479.758983,544.441188 481.724301,542.72354 483.817249,541.522666 C508.238058,527.508771 532.632971,513.448652 557.029734,499.392231 C560.89563,497.164281 564.744879,494.907673 568.581179,492.627954 C569.361757,492.164799 570.232046,491.608274 570.200601,490.561785 C570.179329,489.850875 569.491237,489.71313 568.854012,489.604968 C562.736092,488.571422 557.062104,488.221976 551.144879,491.799637 C532.19089,503.260173 513.042682,514.42858 493.625341,525.082986 C485.491237,529.545357 481.444994,536.781109 477.098173,544.123173 C476.985341,544.168472 476.855861,544.193432 476.76615,544.266465 C476.715283,544.307141 476.728231,544.426396 476.712509,544.510522 C476.823491,544.365382 476.934474,544.219317 477.046382,544.073253 L477.046382,544.073253 Z M325.371931,520.098296 C325.340486,519.986436 325.328462,519.863483 325.270197,519.768263 C325.236902,519.712796 325.128694,519.701702 325.05378,519.671195 C325.177711,519.796922 325.300717,519.922648 325.424647,520.048375 C330.552046,532.404713 339.83852,541.188936 350.286613,548.976591 C351.104185,549.58581 351.958751,549.612619 352.892855,549.272418 C357.391353,547.634274 361.752046,545.724339 365.342335,542.461918 C367.476902,540.524249 367.847769,539.266983 364.264879,538.333278 C351.233665,534.939583 338.938636,529.861522 328.234358,521.43599 C327.427884,520.80181 326.332855,520.535565 325.371931,520.098296 L325.371931,520.098296 Z M14.393896,87.7697525 C24.7920462,92.770159 35.2456879,97.7964504 46.5705434,103.241522 C44.7790983,97.4580978 43.1716994,92.3523029 41.6151676,87.2307921 C35.3659191,66.6652453 29.4153988,46.0174216 24.4267283,25.1024288 C24.1104277,23.7767525 23.0301965,22.0896122 24.2297341,21.2233928 C25.6900809,20.1685835 26.995052,21.9037957 28.1899653,22.7062273 C88.8401387,63.437954 148.776324,105.185663 207.742335,148.328382 C237.40985,170.036562 266.701873,192.231932 295.831121,214.648249 C300.706035,218.399709 305.568,222.179828 310.231121,226.185515 C312.374012,228.025191 314.178405,228.164785 316.405457,226.664386 C317.934243,225.634537 319.505572,224.634271 321.161064,223.831839 C323.725688,222.590288 324.438751,220.687749 324.340717,217.892181 C323.839445,203.519594 326.602913,199.464911 340.105803,194.147414 C341.383954,193.643583 342.670428,193.160091 344.694936,192.382619 C337.691006,187.249091 331.04037,182.510306 324.539561,177.574612 C317.203607,172.004738 308.943723,167.629267 302.697249,160.641271 C298.413318,155.848868 296.32222,150.462961 296.981642,144.475231 C303.287306,149.13636 309.296092,153.564526 315.291006,158.012105 C328.384185,167.723562 341.50326,177.402663 354.517827,187.218583 C356.076208,188.393573 357.258173,188.603425 359.056092,188.057069 C384.878058,180.213947 410.840601,180.213947 436.771699,187.305483 C440.846613,188.419458 443.676671,187.770486 446.877595,185.354871 C463.818173,172.576055 480.878983,159.958094 497.888,147.269875 C499.104185,146.362979 500.208462,145.287832 502.120139,145.044699 C502.512277,151.907893 499.408462,157.110756 495.062566,161.610105 C487.52222,169.416249 477.817711,174.43422 469.339561,181.046886 C464.508116,184.814986 459.505572,188.366763 454.244069,192.265213 C458.534474,194.348947 462.812855,195.535954 466.478058,198.028299 C472.557133,202.163411 476.03089,207.300637 474.640832,215.121573 C473.604069,220.957691 478.755514,226.988871 484.810543,227.798699 C486.212624,227.98544 487.093087,227.248645 488.082682,226.464702 C549.834358,177.564443 613.480139,131.227713 678.035052,86.1131194 C708.546035,64.7904396 739.201295,43.6840835 770.146035,22.9965079 C770.786035,22.5684827 771.387191,22.0692741 772.06511,21.7170547 C772.841064,21.3139899 773.689156,20.388605 774.548347,21.1106086 C775.292855,21.7383173 775.017249,22.8143892 774.78511,23.7277561 C773.499561,28.7873281 772.265803,33.8616914 770.929387,38.9073964 C765.543029,59.2372058 759.670197,79.4264971 753.252624,99.4558568 C752.934474,100.449652 752.690312,101.468407 752.219561,103.171263 C763.178173,97.922177 773.607769,92.9263928 784.574705,87.6736086 C784.48222,92.3892813 782.574243,95.9345871 781.260023,99.5353604 C765.852855,141.727735 748.249156,182.942029 728.077133,223.130173 C710.282913,258.578609 681.640139,280.491094 645.235052,293.508422 C640.424879,295.227918 637.575399,297.659249 635.643376,302.251044 C628.394358,319.47744 619.524069,335.784922 607.217017,350.02531 C606.651931,350.679828 605.575399,351.307537 606.281988,352.323519 C606.994127,353.346896 608.263954,352.917947 609.293318,352.919796 C624.553434,352.942907 639.813549,352.935512 655.073665,352.93736 C661.052855,352.938285 661.05563,352.941058 661.056555,358.970389 C661.058405,375.610677 661.245225,392.254663 660.931699,408.888479 C660.847538,413.330512 662.418867,415.462317 666.236671,417.228037 C674.74904,421.164389 683.07459,425.50658 691.45748,429.722119 C692.387884,430.189896 693.849156,430.407145 693.934243,431.573814 C694.044301,433.0964 692.370312,433.231371 691.361295,433.74722 C682.584416,438.229004 673.845457,442.796763 664.945572,447.022472 C661.989734,448.426727 660.950197,450.116641 660.984416,453.361497 C661.147191,468.76763 660.986266,484.176537 661.12037,499.583594 C661.146266,502.545565 660.28615,504.336245 657.669734,505.890263 C647.222566,512.096166 636.886382,518.491583 626.583491,524.935997 C624.191815,526.431774 621.883376,526.629609 619.144879,526.295878 C604.042913,524.455278 588.915977,522.826378 573.803838,521.06713 C572.024416,520.860976 570.566844,521.211346 569.003838,522.114544 C522.388347,549.060717 475.752509,575.97176 429.084301,602.825486 C426.864647,604.102166 425.905572,605.700558 425.363607,608.183659 C417.160139,645.797181 408.835514,683.383893 400.532162,720.976152 C400.349965,721.801695 400.633896,722.914745 398.703723,723.264191 C397.029734,715.758497 395.316902,708.247256 393.680832,700.71845 C386.872971,669.394033 380.073434,638.066842 373.329387,606.727634 C372.914127,604.79736 371.667422,603.939461 370.165457,603.074166 C330.037827,579.969127 289.919445,556.849296 249.800139,533.729465 C244.06696,530.424519 238.167306,527.367328 232.67089,523.706465 C228.756902,521.099486 224.807769,520.77685 220.422104,521.325979 C206.237595,523.104641 192.035514,524.742785 177.85378,526.54086 C175.826497,526.79786 174.239445,526.154436 172.650543,525.181904 C161.893549,518.593274 151.189272,511.916821 140.353665,505.461314 C137.883376,503.989573 137.677133,502.074091 137.684532,499.658476 C137.732624,484.250494 137.622566,468.842512 137.778867,453.436378 C137.811237,450.222954 136.838289,448.486817 133.881526,447.041886 C125.035283,442.720958 116.365688,438.036717 107.637827,433.471731 C106.587191,432.922601 104.954821,432.726616 104.869734,431.353792 C104.775399,429.844148 106.502104,429.748929 107.521295,429.246947 C116.35459,424.890889 125.175861,420.504324 134.097942,416.334083 C136.867884,415.038914 137.809387,413.361943 137.783491,410.296432 C137.631815,392.732609 137.803838,375.166936 137.63274,357.604037 C137.597595,353.989396 138.582566,352.814407 142.289387,352.86063 C157.393202,353.051069 172.500717,352.939209 187.606382,352.939209 L193.882451,352.939209 C187.865341,345.378972 182.355052,338.453839 177.540254,331.037817 C171.48615,321.714634 167.012624,311.556663 162.595514,301.415332 C160.855861,297.422587 158.528925,295.152112 154.353202,293.770968 C130.577942,285.908432 109.788116,273.139785 92.3296185,255.099864 C81.4708902,243.878763 74.3753988,230.226332 67.4084624,216.490699 C46.7952832,175.848645 29.5652254,133.781073 14.4188671,90.8371122 C14.1256879,90.0041734 13.5143584,89.1693856 14.393896,87.7697525 L14.393896,87.7697525 Z" id="Fill-4" fill="#1F1748" sketch:type="MSShapeGroup"></path>
                <path d="M331.833711,265.049185 C334.275329,270.463749 336.716948,275.878314 339.724578,282.547372 C266.710936,242.80112 194.730358,203.617864 122.74978,164.433685 C122.565734,164.772037 122.381688,165.109465 122.198566,165.446893 C177.612208,205.451994 233.02585,245.457095 288.439491,285.462195 C288.347931,285.703479 288.257295,285.944764 288.165734,286.186048 C280.805734,285.457573 273.445734,284.714307 266.083884,284.004321 C241.442035,281.631231 216.724347,279.864587 192.174983,276.766721 C153.435561,271.877249 119.332439,257.156141 94.0209942,226.155285 C85.6362543,215.886379 80.8103584,203.398767 75.2963699,191.440872 C65.3708208,169.918508 56.4589133,147.969044 47.6163699,124.874174 C61.0055029,131.604246 73.5779884,137.922933 86.150474,144.242544 C86.4011098,143.979073 86.6517457,143.716526 86.9023815,143.453979 C82.9791445,134.391494 78.9421503,125.376156 75.167815,116.252656 C71.9567168,108.489037 67.8004162,101.122012 65.4115145,93.0154183 C67.2436532,91.9153104 68.1083931,93.7512888 69.1747514,94.4446342 C142.051514,141.806591 214.882035,189.240656 287.736601,236.636818 C302.393711,246.171703 317.133133,255.581785 331.833711,265.049185" id="Fill-6" fill="#FDFDFD" sketch:type="MSShapeGroup"></path>
                <path d="M733.347884,93.0122752 C730.189503,102.624815 725.412624,111.553254 721.541179,120.865344 C718.397595,128.426505 715.093087,135.921106 712.613549,144.251419 C725.131468,137.937354 737.650312,131.62329 750.148809,125.319394 C751.348347,126.527664 750.108116,127.439182 749.78904,128.254556 C739.307653,155.075926 728.217711,181.621808 715.827422,207.648142 C705.553202,229.227822 689.382104,244.759682 669.079676,256.416203 C646.195052,269.555559 621.389503,276.122002 595.091237,278.00143 C574.241295,279.49166 553.460717,281.957196 532.650543,283.998405 C525.319214,284.717635 517.989734,285.460901 510.198751,285.546876 C565.407075,245.67952 620.616324,205.812164 675.825572,165.944808 L675.189272,164.86134 C603.507422,203.887437 531.824647,242.913534 459.059792,282.528513 C461.998058,276.00552 464.465572,270.527167 466.933087,265.048815 C472.886382,261.301977 478.891468,257.633718 484.785572,253.796282 C566.381873,200.670315 647.959676,147.515689 729.583723,94.4303975 C730.640832,93.7435234 731.51852,91.9001493 733.347884,93.0122752" id="Fill-8" fill="#FDFDFD" sketch:type="MSShapeGroup"></path>
                <path d="M379.658266,228.80784 C380.184509,219.73426 378.292254,211.075764 373.814104,203.198437 C371.947746,199.913829 373.204624,199.185354 375.934798,198.665807 C391.503815,195.700138 407.076532,195.703836 422.662197,198.588153 C426.06659,199.21771 426.306127,200.584063 424.650636,203.509055 C420.363931,211.08316 418.476301,219.306235 419.102428,228.119117 C421.856647,222.439232 424.746821,216.917429 429.222197,212.433796 C430.742659,210.909361 432.350058,209.470901 433.920462,207.997311 C438.845318,203.375009 444.097572,202.942361 449.821503,206.865771 C449.669827,207.206897 449.609711,207.760649 449.328555,207.916883 C434.821272,215.972631 428.170636,229.034332 425.225896,244.747386 C423.694335,252.923314 421.078844,260.84594 415.37896,267.310692 C415.177341,267.539034 415.095954,267.963361 414.86104,268.059505 C407.393757,271.132412 409.395145,277.564807 409.725318,283.162415 C410.266358,292.330289 409.189827,301.181073 405.837225,309.739728 C405.668902,310.168678 405.52,310.605947 405.32948,311.024728 C401.795607,318.760613 400.030983,319.410509 392.554451,315.652577 C374.455029,306.556811 361.389595,292.475429 352.054104,274.714696 C351.781272,274.196073 351.652717,273.600721 351.354913,272.752991 C353.68,272.254706 354.855491,273.932602 356.317688,274.770163 C366.221965,280.444501 376.141965,282.053987 386.263584,275.224073 C388.806936,273.508275 390.010173,272.293534 386.525318,270.156181 C381.708671,267.201606 379.323468,262.218764 377.32578,257.225753 C375.162543,251.816735 373.551445,246.210807 372.4,240.455117 C369.679075,226.856304 362.876763,215.935653 350.711214,208.733181 C350.186821,208.421638 349.688324,208.063872 349.195376,207.702408 C349.088092,207.623829 349.058497,207.438937 348.992832,207.302117 C354.385665,203.041278 357.817803,203.053296 363.156994,206.908296 C370.89526,212.494811 376.039306,219.934868 379.658266,228.80784" id="Fill-10" fill="#00758B" sketch:type="MSShapeGroup"></path>
                <path d="M399.834636,552.22385 C400.688277,540.490599 401.44296,530.106135 402.198566,519.720746 C402.821919,511.1473 403.493364,502.577552 404.03348,493.999483 C404.15926,492.006347 405.013827,491.325944 406.895908,491.318548 C420.478335,491.262156 433.85637,492.858699 447.081803,495.951019 C450.536139,496.758998 448.780763,498.053242 447.577526,499.206045 C441.133133,505.378667 434.516717,511.377491 428.186081,517.664746 C423.600647,522.219563 420.924116,527.647994 420.41822,534.392858 C419.823538,542.314559 423.434173,547.638527 429.286659,552.021394 C431.000416,553.304545 432.869549,554.457347 434.819145,555.329113 C438.323422,556.896998 437.083191,558.200487 434.792324,559.601969 C428.496832,563.453271 421.88874,566.683336 414.478798,569.521429 C418.148624,571.719796 421.69452,570.795336 425.046197,570.869293 C427.768046,570.928458 428.423769,571.653235 426.922728,574.049437 C424.882497,577.306311 423.64689,581.606901 420.777064,583.659203 C417.514173,585.991617 413.819376,582.10426 410.212439,581.305527 C400.900069,579.242131 391.828162,579.482491 383.120647,583.314379 C379.279723,585.003368 377.130358,584.241613 375.661688,580.583523 C374.412208,577.46994 370.343769,574.432163 371.485965,571.866786 C372.580069,569.410494 377.34215,571.336145 380.454289,570.867444 C381.666775,570.685325 382.895908,570.665912 384.00111,569.475206 C377.229318,566.724012 370.670243,563.753721 364.541225,559.938473 C363.404578,559.23126 361.729665,558.757937 361.805503,557.156771 C361.873017,555.744196 363.515561,555.557455 364.572671,555.051775 C382.88111,546.291588 381.330127,528.133336 370.361341,517.486325 C364.180532,511.486577 357.923884,505.562635 351.602497,499.709876 C348.96111,497.264678 349.40689,496.379045 352.825156,495.636703 C365.479029,492.890131 378.242035,491.373091 391.200185,491.263081 C394.737757,491.233498 394.588855,493.198901 394.75348,495.677379 C395.950243,513.752429 397.253364,531.820084 398.550012,549.888663 C398.575908,550.253825 398.922728,550.594951 399.834636,552.22385" id="Fill-12" fill="#00758B" sketch:type="MSShapeGroup"></path>
                <path d="M194.824879,429.375447 C187.729387,432.386414 181.148116,435.193076 174.554821,437.970155 C172.423029,438.868731 172.976092,440.718576 172.973318,442.328062 C172.949272,454.035429 172.862335,465.74372 173.02511,477.449238 C173.069503,480.58963 172.584879,482.220378 168.919676,482.352576 C165.116671,482.491245 161.283145,483.256699 157.580023,484.204271 C154.605688,484.965101 154.032277,484.172839 154.067422,481.281127 C154.217249,468.959918 153.996208,456.632238 154.218173,444.312878 C154.279214,440.939522 153.465341,438.985213 150.214474,437.668781 C146.252393,436.064842 142.525225,433.879418 138.351353,431.770724 C142.508578,429.712875 146.235746,427.555184 150.201526,426.002091 C153.499561,424.710619 154.250543,422.709163 154.212624,419.368163 C154.033202,403.657882 154.234821,387.942979 154.048925,372.232699 C154.010081,368.924979 154.956208,367.987576 158.158983,368.223314 C161.990659,368.50435 165.867653,368.450731 169.708578,368.236256 C172.395283,368.086494 173.032509,369.079364 173.011237,371.626253 C172.899329,385.027231 173.131468,398.432832 172.86326,411.829188 C172.775399,416.196339 174.302335,415.873702 177.283145,414.526763 C181.747422,412.509591 186.246844,410.546961 190.828578,408.819145 C193.76222,407.711641 195.015399,406.189979 194.925688,402.801832 C194.652855,392.487627 194.924763,382.160479 194.759214,371.842576 C194.714821,369.04331 195.385341,368.040271 198.318058,368.226087 C203.215168,368.536706 209.623491,366.60181 212.64037,369.031292 C215.800601,371.575407 213.591121,378.247238 213.605919,383.10158 C213.699329,412.676918 213.580948,442.254105 213.743723,471.829443 C213.764069,475.51804 212.636671,476.628317 209.111121,476.694878 C205.44037,476.764213 201.715052,477.212576 198.14141,478.043666 C195.264185,478.712976 194.761064,477.879112 194.779561,475.23608 C194.876671,461.527256 194.824879,447.816583 194.824879,434.106835 L194.824879,429.375447" id="Fill-14" fill="#FEFEFE" sketch:type="MSShapeGroup"></path>
                <path d="M577.337064,368.283311 C598.922266,368.283311 619.546543,368.311969 640.171746,368.240786 C642.31741,368.23339 642.717873,369.076498 642.691052,370.965171 C642.604116,377.281085 642.565272,383.600696 642.706775,389.914761 C642.759491,392.292473 642.086197,393.200293 639.609434,393.089358 C635.609434,392.910937 631.580763,392.829585 627.592786,393.108772 C624.223538,393.343585 623.08504,392.006815 623.578913,388.886761 C624.060763,385.844362 622.818682,384.882923 619.786081,385.070588 C615.639954,385.327588 611.448509,385.371038 607.30978,385.061344 C603.881341,384.805268 603.18215,386.179941 603.341225,389.259318 C603.578913,393.868678 603.587237,398.510394 603.336601,403.118829 C603.174751,406.089121 604.313249,407.339915 607.029549,408.391027 C623.758335,414.865948 640.299376,421.800326 656.573133,429.355941 C657.620994,429.843131 658.652208,430.365451 660.344694,431.189146 C655.100763,433.568707 650.438566,435.79943 645.678335,437.794415 C643.360647,438.765099 642.559723,440.106491 642.591168,442.672793 C642.741919,454.996775 642.569896,467.325379 642.716948,479.649362 C642.756717,483.039358 642.544925,484.305869 638.318335,483.550585 C622.292439,480.687531 606.194405,478.16098 589.972439,476.61066 C585.981688,476.229782 583.672324,475.217498 584.248509,470.31416 C584.855214,465.146426 584.710012,459.826156 584.279029,454.623293 C583.94978,450.649038 585.707931,450.319005 588.757179,450.800649 C592.40111,451.376588 596.05059,452.117081 599.719491,452.275164 C602.727121,452.404588 603.900763,453.479736 603.404116,456.405653 C602.864925,459.587646 603.897988,461.076951 607.442035,461.215621 C611.880416,461.389419 616.311399,462.130836 620.708162,462.853764 C623.110012,463.249433 623.624231,462.317577 623.598335,460.180225 C623.518798,453.709926 623.450358,447.234081 623.63163,440.768405 C623.700994,438.311189 622.260069,437.672387 620.515792,436.918027 C609.964116,432.353966 599.495676,427.586523 588.84504,423.269293 C585.500763,421.914034 584.17637,420.420106 584.278104,416.660326 C584.576832,405.574196 584.194867,394.471426 584.476023,383.384372 C584.592555,378.806444 583.909087,374.932031 580.267931,371.87484 C579.367121,371.118631 578.742844,370.03239 577.337064,368.283311" id="Fill-16" fill="#FBFBFB" sketch:type="MSShapeGroup"></path>
                <path d="M331.833711,265.049185 C317.133133,255.581785 302.393711,246.171703 287.736601,236.636818 C214.882035,189.240656 142.051514,141.806591 69.1747514,94.4446342 C68.1083931,93.7512888 67.2436532,91.9153104 65.4115145,93.0154183 C65.4105896,93.0154183 65.4892023,93.0403788 65.4892023,93.0403788 C66.0681618,91.8737097 65.1053873,92.1196162 64.5384509,92.0031342 C59.929896,84.6398068 57.9923237,76.201332 54.9624971,68.2029004 C54.7525549,67.6491486 54.3983353,66.9595011 55.027237,66.5194579 C56.1268902,65.7512313 57.0896647,66.5194579 57.9747514,67.055645 C63.7624971,70.5565766 69.5576416,74.0454903 75.2945202,77.6286989 C141.184925,118.783828 204.786312,163.234659 266.607353,210.260113 C287.512786,226.162681 308.100994,242.463692 328.695676,258.76008 C330.74978,260.385282 332.088971,262.303537 331.833711,265.049185" id="Fill-18" fill="#00758B" sketch:type="MSShapeGroup"></path>
                <path d="M733.347884,93.0122752 C731.51852,91.9001493 730.640832,93.7435234 729.583723,94.4303975 C647.959676,147.515689 566.381873,200.670315 484.785572,253.796282 C478.891468,257.633718 472.886382,261.301977 466.933087,265.048815 C466.694474,262.110879 468.254705,260.248092 470.435514,258.491617 C502.97563,232.269297 536.130775,206.843862 569.782566,182.067397 C592.924301,165.028667 616.378636,148.424433 640.091931,132.186286 C672.572855,109.946541 705.543029,88.4657788 739.207769,68.0573903 C740.127075,67.5008651 741.010312,66.8306313 742.002682,66.4636205 C743.548116,65.892304 744.553434,66.2907464 743.810775,68.16925 C740.666266,76.1233076 738.797133,84.5876673 734.257942,91.9824263 C733.643838,92.0693255 732.66904,91.8206457 733.273896,93.0409335 L733.347884,93.0122752 Z" id="Fill-20" fill="#00758B" sketch:type="MSShapeGroup"></path>
                <path d="M247.337988,427.435374 C247.337988,434.978971 247.355561,442.521644 247.325965,450.065241 C247.318566,451.91786 247.385156,453.27959 249.989549,453.006874 C255.48874,452.430011 261.015676,452.051906 266.540763,451.799529 C268.66978,451.70246 269.415214,451.087694 269.400416,448.85882 C269.306081,434.388241 269.307931,419.916737 269.397642,405.446158 C269.411514,403.212662 268.744694,402.524863 266.517642,402.584953 C261.131283,402.730094 255.733827,402.754129 250.349318,402.577558 C247.861457,402.495281 247.242728,403.375367 247.285272,405.729968 C247.417526,412.962946 247.333364,420.199622 247.337988,427.435374 M222.191168,385.059957 C240.792786,385.059957 259.394405,385.018356 277.995098,385.101558 C281.070243,385.115424 288.34978,393.014939 288.354405,396.111881 C288.384,419.526615 288.348855,442.942273 288.408971,466.357007 C288.41452,468.409309 288.00296,469.269058 285.707468,469.446554 C269.612208,470.691802 253.529896,472.096982 237.444809,473.477201 C236.48111,473.560403 235.61452,473.608475 234.939376,472.774612 C231.542382,468.580335 227.695908,465.138568 227.910474,458.570277 C228.494983,440.719871 227.990936,422.836183 228.168509,404.969137 C228.240647,397.793475 228.693827,390.712108 221.41059,385.993662 C221.671399,385.683043 221.931283,385.3715 222.191168,385.059957" id="Fill-22" fill="#FBFBFB" sketch:type="MSShapeGroup"></path>
                <path d="M329.90363,419.802012 C333.123052,419.645778 336.360046,419.212206 339.557272,419.412814 C342.533457,419.599555 343.289064,418.539199 343.037503,415.77876 C342.650913,411.536411 344.755884,406.037721 342.213457,403.356785 C339.867098,400.884778 334.357734,402.70689 330.245827,402.660667 C321.665942,402.563598 321.665942,402.631084 321.665942,411.184192 C321.665942,419.671663 321.665942,419.671663 329.90363,419.802012 M355.116116,438.050861 C358.239353,446.5069 361.096231,454.56912 364.215769,462.529649 C365.45785,465.700548 364.614382,466.590803 361.411607,466.454908 C356.509873,466.246904 350.653688,467.902613 346.955191,465.754167 C343.223399,463.587231 343.092069,457.153911 341.245133,452.645318 C339.621087,448.680307 338.091376,444.662602 336.821549,440.574638 C336.139006,438.375346 335.069873,437.890005 332.858543,437.892778 C321.665942,437.911267 321.665942,437.832688 321.665942,448.92344 C321.665942,454.154962 321.58363,459.388332 321.704786,464.61708 C321.754728,466.736868 321.222012,467.59939 318.908948,467.608634 C314.921896,467.62435 310.913572,467.848069 306.95704,468.333411 C303.517503,468.75589 302.524208,467.726965 302.559353,464.165019 C302.747098,445.086929 302.561202,426.004217 302.690682,406.925203 C302.743399,399.079307 303.783861,391.079026 295.324208,385.901123 C295.594266,385.620087 295.865249,385.339051 296.135306,385.058015 L303.232647,385.058015 C318.934844,385.058015 334.63704,385.045073 350.338312,385.065411 C355.549873,385.071882 362.34941,391.947095 362.35496,397.175843 C362.367908,408.716807 362.145017,420.263318 362.472416,431.795037 C362.591723,435.984692 361.807445,438.170116 357.227561,437.61544 C356.651376,437.545181 356.028948,437.851177 355.116116,438.050861" id="Fill-24" fill="#FBFBFB" sketch:type="MSShapeGroup"></path>
                <path d="M445.575399,385.058847 C466.155283,385.058847 486.182104,385.089355 506.208,385.016322 C508.432277,385.008927 509.236902,385.692103 509.093549,387.912657 C508.788347,392.647743 510.937711,398.598495 508.263029,401.787883 C505.907422,404.597319 499.856092,402.490473 495.441757,402.593088 C488.972393,402.741927 482.49378,402.750247 476.025341,402.573675 C473.358058,402.500642 472.331468,402.980437 472.325919,406.019139 C472.305572,417.007276 472.164069,417.015596 483.022798,417.285538 C490.564994,417.474128 498.107191,417.730204 505.650312,417.757937 C508.220486,417.768106 509.232277,418.530786 509.115746,421.196006 C508.934474,425.346833 508.89748,429.521696 509.126844,433.668826 C509.283145,436.502297 508.050312,436.987639 505.612393,436.866535 C495.783029,436.377495 485.945341,436.070574 476.116902,435.562121 C473.528231,435.428999 472.343491,435.790463 472.324994,438.911441 C472.265803,449.427178 472.117827,449.354146 482.511353,449.661067 C490.355977,449.893106 498.191353,450.457952 506.035977,450.625279 C508.519214,450.677973 509.200832,451.480405 509.112046,453.833157 C508.954821,457.986758 508.940948,462.156074 509.112971,466.307826 C509.222104,468.944387 508.161295,469.215254 505.812162,469.084905 C489.229503,468.166916 472.639445,467.325657 456.042913,466.700722 C452.823491,466.579617 452.022566,465.658855 452.050312,462.476862 C452.214012,443.837891 452.130775,425.196146 452.130775,406.55625 C452.130775,394.757362 452.130775,394.757362 445.575399,385.058847" id="Fill-26" fill="#FBFBFB" sketch:type="MSShapeGroup"></path>
                <path d="M369.482358,385.058015 L402.887214,385.058015 C410.281434,385.058015 417.680277,385.192062 425.069873,384.99053 C427.93415,384.911951 429.732069,386.14703 431.93785,387.750969 C437.176231,391.558821 438.074266,396.430728 437.976231,402.501659 C437.652532,422.360918 437.775538,442.230346 437.931838,462.093303 C437.957734,465.31135 437.189179,466.435494 433.897618,466.135969 C429.771838,465.761562 425.586867,465.547087 421.461087,465.805012 C418.094613,466.015789 417.850451,464.503372 417.863399,461.807645 C417.954035,443.636451 417.787561,425.464332 418.010451,407.295911 C418.056694,403.469569 417.164208,402.211379 413.264092,402.544185 C408.828486,402.921364 404.32259,402.840012 399.872185,402.561749 C396.631491,402.358368 395.751954,403.370652 395.780624,406.621979 C395.942474,424.483479 395.634497,442.351451 396.001665,460.207404 C396.102474,465.126458 394.559815,466.290354 390.14178,465.760638 C387.407908,465.432454 384.537156,465.317821 381.843977,465.782825 C377.038428,466.612066 376.489988,464.4969 376.536231,460.322962 C376.758197,440.460005 376.496462,420.592426 376.73415,400.730393 C376.793341,395.810415 375.948023,391.695641 372.181087,388.375904 C371.321896,387.617846 370.705942,386.583375 369.482358,385.058015" id="Fill-28" fill="#FBFBFB" sketch:type="MSShapeGroup"></path>
                <path d="M546.730913,385.058015 C554.430335,385.058015 562.131607,385.167102 569.827329,384.99885 C572.523283,384.939685 573.739468,385.437044 573.499006,388.475746 C573.207676,392.146778 573.299237,395.864958 573.476809,399.550782 C573.590566,401.93589 572.880277,402.84371 570.399815,402.679156 C567.333919,402.475774 564.22363,402.846483 561.168832,402.571918 C557.959584,402.283487 557.056,403.317958 557.080971,406.58685 C557.239121,426.903717 557.039353,447.223357 557.256694,467.538375 C557.303861,471.923091 556.630566,473.68881 551.77415,472.446336 C548.251376,471.544987 544.456694,471.473803 540.782243,471.461785 C537.397272,471.449767 536.515884,470.229479 536.546405,466.843181 C536.728601,446.835084 536.538081,426.823289 536.726751,406.815192 C536.760046,403.298544 535.818543,402.379631 532.393803,402.535864 C528.298543,402.722605 522.886289,404.349656 520.402127,401.899836 C517.910566,399.44262 520.108023,394.004019 519.580855,389.934544 C519.045364,385.793886 520.528832,384.761264 524.561202,384.956325 C531.936,385.314091 539.339468,385.058015 546.730913,385.058015" id="Fill-30" fill="#FBFBFB" sketch:type="MSShapeGroup"></path>
                <path d="M215.171052,318.673899 C215.444809,329.850625 219.794405,339.852363 224.089434,349.884607 C224.554636,350.971773 226.311861,352.310391 224.610127,353.425291 C223.461457,354.177801 222.433942,352.746737 221.532208,351.933212 C207.126659,338.938071 195.12111,324.081992 186.402497,306.6781 C185.853133,305.579841 185.223306,304.490827 184.895908,303.324158 C184.637873,302.401546 183.432786,301.40128 184.590705,300.429672 C185.349087,299.791794 186.335908,300.172672 187.225618,300.461104 C201.55163,305.112064 216.325272,307.875276 231.084116,310.635715 C250.955561,314.352971 270.888046,317.739269 290.924116,320.477521 C292.574058,320.703089 294.18978,321.176413 296.371514,321.654359 C291.700069,323.197283 287.458682,322.999449 283.238566,323.111309 C263.902613,323.624384 244.648046,325.294884 225.432324,327.412823 C223.426312,327.633769 222.178682,327.091111 221.06978,325.667442 C219.193249,323.256449 217.336139,320.831589 215.46978,318.413201 C215.282035,318.008287 215.498451,317.052395 214.781688,317.375956 C214.241572,317.619089 214.678104,318.324453 215.171052,318.673899" id="Fill-32" fill="#00758B" sketch:type="MSShapeGroup"></path>
                <path d="M573.28111,353.678593 C576.420069,344.398859 580.973133,335.610014 582.768277,325.851409 C583.217757,323.40806 583.587699,321.020179 583.448971,318.550945 C583.568277,318.406729 583.688509,318.263438 583.80874,318.120147 C583.676486,318.25142 583.544231,318.382694 583.411977,318.513967 C582.943075,318.883751 582.234636,319.157391 582.040416,319.638111 C578.88296,327.452575 572.787237,327.725291 565.578913,326.799906 C547.770821,324.511866 529.85822,323.303596 511.895676,323.073406 C508.827931,323.033654 505.878566,322.573273 501.639029,321.611834 C512.684578,319.855359 522.49822,318.356809 532.289665,316.726985 C558.574983,312.349665 584.933364,308.324564 610.569434,300.766176 C611.86978,300.383449 613.415214,299.368391 614.388162,300.658938 C615.133595,301.648111 613.898913,302.92664 613.396717,304.013805 C604.814058,322.580668 592.291514,338.180014 577.263538,351.891611 C576.100994,352.951967 574.966197,353.970722 573.220994,353.629596 L573.28111,353.678593 Z" id="Fill-34" fill="#00758B" sketch:type="MSShapeGroup"></path>
                <path d="M398.879168,660.071867 C394.25674,641.883108 389.667607,623.686028 384.959168,605.519456 C384.493965,603.724154 385.226451,603.061316 386.471306,602.217284 C391.69489,598.6766 405.225526,598.492633 410.431538,601.881705 C412.17674,603.017867 412.918474,604.251097 412.395006,606.456859 C408.161017,624.294323 404.028763,642.154899 399.865064,660.009003 C399.535815,660.029341 399.207491,660.050604 398.879168,660.071867" id="Fill-36" fill="#FBFBFB" sketch:type="MSShapeGroup"></path>
                <path d="M477.098173,544.123543 C481.444994,536.781478 485.491237,529.545727 493.625341,525.083356 C513.042682,514.42895 532.19089,503.260543 551.144879,491.800007 C557.062104,488.222345 562.736092,488.571791 568.854012,489.605338 C569.491237,489.712576 570.179329,489.851245 570.200601,490.56123 C570.232046,491.608644 569.361757,492.164245 568.581179,492.628324 C564.744879,494.907119 560.89563,497.164651 557.029734,499.392601 C532.632971,513.449022 508.238058,527.508216 483.817249,541.522112 C481.724301,542.722986 479.758983,544.440633 477.046382,544.073622 L477.098173,544.123543 Z" id="Fill-38" fill="#00758B" sketch:type="MSShapeGroup"></path>
                <path d="M238.238613,488.528804 C241.666127,487.973203 244.196532,490.071728 246.80185,491.570279 C267.325318,503.377487 287.707283,515.431527 308.325087,527.070484 C314.452254,530.529815 316.338035,536.970531 320.469364,541.792516 C320.756994,542.128095 320.753295,543.120966 320.469364,543.460243 C319.66104,544.427228 318.76578,543.623872 318.025896,543.204167 C311.070058,539.257646 304.127168,535.288937 297.2,531.294344 C275.355838,518.697646 253.52,506.087081 231.681387,493.480214 C231.016416,493.096563 230.331098,492.737872 229.707746,492.294131 C229.089017,491.854088 228.400925,491.32807 228.600694,490.458153 C228.826358,489.473603 229.767861,489.666815 230.489249,489.567897 C233.071445,489.213829 235.655491,488.873628 238.238613,488.528804" id="Fill-40" fill="#00758B" sketch:type="MSShapeGroup"></path>
                <path d="M362.329249,528.55905 C350.233988,525.637755 337.549595,520.818543 326.493873,512.335694 C323.597225,510.112367 322.738035,508.476996 326.60948,505.943974 C339.575954,497.458352 340.182659,497.360359 350.898035,508.001823 C356.235376,513.300831 361.729942,518.480582 365.32763,525.241162 C365.913988,526.343118 366.529942,527.496845 365.737341,528.675532 C365.239769,529.414176 364.360231,529.111877 362.329249,528.55905" id="Fill-42" fill="#00758B" sketch:type="MSShapeGroup"></path>
                <path d="M434.730173,529.110121 C431.761387,529.424437 431.820578,528.34929 432.574335,526.725013 C434.338035,522.924556 436.689942,519.511448 439.570867,516.509725 C444.57526,511.296693 449.787746,506.280571 454.747746,501.025013 C456.523468,499.143736 457.991214,498.942204 460.343121,499.992391 C464.558613,501.874592 468.709364,503.808563 472.624277,506.277797 C475.573642,508.138736 475.486705,509.726035 472.83422,511.823635 C465.018266,518.005502 456.205318,522.253398 446.837457,525.423373 C442.627514,526.847966 438.331561,528.021106 434.730173,529.110121" id="Fill-44" fill="#00758B" sketch:type="MSShapeGroup"></path>
                <path d="M330.260254,353.028605 C332.383723,353.355864 334.16037,353.373428 334.191815,350.027806 C334.22326,346.745972 332.518751,346.733954 330.182566,346.790346 C328.002682,346.84304 326.12615,346.462162 326.15852,349.912249 C326.188116,353.151558 327.654012,353.405785 330.260254,353.028605 M319.295168,353.43999 C319.707653,349.773579 317.350197,343.896785 320.213549,341.37763 C322.67459,339.212544 328.431815,340.984734 332.700023,340.635288 C339.669734,340.064896 341.517595,342.590522 341.154127,349.037709 C340.852624,354.394957 340.999676,359.790108 341.212393,365.15845 C341.316902,367.807954 340.139561,368.228583 337.927306,368.119497 C335.880601,368.017806 334.104879,368.365403 333.944879,365.204673 C333.844994,363.209687 336.314358,359.702285 331.596671,359.217867 C327.782566,358.826821 325.42141,359.537731 326.242682,364.163731 C326.628347,366.338986 326.641295,368.309936 323.161988,368.201774 C320.192277,368.109328 318.998289,367.428925 319.236902,364.305173 C319.494012,360.945684 319.295168,357.551065 319.295168,353.43999" id="Fill-46" fill="#FBFBFB" sketch:type="MSShapeGroup"></path>
                <path d="M441.376092,354.119468 C441.376092,353.507475 441.386266,352.894558 441.374243,352.282565 C441.319676,349.544313 442.403607,346.648903 437.408462,346.633187 C432.302335,346.617472 433.684994,349.685756 433.592509,352.280716 C433.504647,354.726838 433.548116,357.178508 433.587884,359.627403 C433.603607,360.6175 433.325225,361.615918 434.907653,362.040245 C439.319214,363.223554 441.364069,361.832241 441.375168,357.333817 C441.378867,356.262367 441.376092,355.190918 441.376092,354.119468 M427.260948,352.944479 C427.260948,348.960979 425.706266,343.463213 427.698405,341.418306 C429.688694,339.375249 435.228578,340.719414 439.212855,340.698151 C447.625341,340.651928 448.026728,341.087349 448.025803,349.539691 C448.024879,354.615903 447.898173,359.697662 448.07852,364.768328 C448.174705,367.465903 447.160139,368.23413 444.597364,368.128741 C440.448462,367.957716 436.287538,368.066803 432.132162,368.086216 C428.456786,368.103781 426.847538,366.244691 426.931699,362.637446 C427.006613,359.409231 426.947422,356.176392 426.947422,352.946328 C427.051931,352.945403 427.156439,352.945403 427.260948,352.944479" id="Fill-48" fill="#FBFBFB" sketch:type="MSShapeGroup"></path>
                <path d="M368.075653,346.827417 C366.24259,346.921712 364.124671,346.073057 364.107098,349.480618 C364.089526,352.864143 366.155653,352.197607 368.021087,352.168949 C369.862474,352.140291 372.071029,352.900197 372.080277,349.52869 C372.089526,346.207104 369.957734,346.889355 368.075653,346.827417 M379.39126,367.80065 C374.867792,368.987658 372.059006,367.686942 371.154497,363.109014 C370.979699,362.225229 370.376694,361.426496 370.197272,360.541787 C369.670104,357.935733 367.704786,358.292575 365.882821,358.336949 C363.173919,358.402586 364.415075,360.495564 364.244902,361.747283 C363.848139,364.65656 365.896694,369.002449 359.816694,368.16119 C357.940162,367.902341 357.553572,367.240427 357.563746,365.605057 C357.608139,358.084571 357.622936,350.563161 357.552647,343.042676 C357.536,341.291747 358.044671,340.605798 359.888832,340.649247 C364.492763,340.758334 369.102243,340.639078 373.708023,340.701017 C376.819237,340.743542 378.490451,342.542542 378.622705,345.535945 C378.779006,349.059064 379.976694,353.431762 378.377618,355.944445 C375.39496,360.626837 378.992647,363.744118 379.39126,367.80065" id="Fill-50" fill="#FBFBFB" sketch:type="MSShapeGroup"></path>
                <path d="M532.381318,354.264331 C532.383168,350.577583 532.485827,346.886212 532.343399,343.205011 C532.263861,341.140691 533.033341,340.598032 534.996809,340.64518 C539.912416,340.764435 544.835422,340.787547 549.749179,340.639633 C552.037272,340.570299 552.594035,341.448536 552.595884,343.580342 C552.598659,345.852665 552.07704,347.032277 549.515191,346.859403 C546.914497,346.683755 544.292532,346.853856 541.679815,346.827971 C540.01785,346.812255 539.15126,347.38727 539.210451,349.238964 C539.266867,350.968629 540.274035,351.235799 541.613225,351.24227 C544.380393,351.257061 547.152185,351.372619 549.911029,351.233025 C552.417387,351.106374 552.517272,352.546683 552.578312,354.436281 C552.645827,356.495054 552.191723,357.608104 549.816694,357.438928 C547.369526,357.265129 544.901087,357.427835 542.441896,357.392705 C540.678197,357.367745 539.134613,357.248489 539.164208,359.880428 C539.192879,362.38664 540.757734,361.997442 542.237503,362.008536 C544.696694,362.028874 547.162358,362.125018 549.613225,361.981727 C551.723746,361.858773 552.665249,362.431939 552.596809,364.760655 C552.532994,366.92759 552.252763,368.224608 549.598428,368.129388 C544.840046,367.959288 540.065017,367.940799 535.308486,368.137709 C532.677272,368.246795 532.254613,367.090295 532.342474,364.86327 C532.480277,361.335529 532.378543,357.797619 532.381318,354.264331" id="Fill-52" fill="#FBFBFB" sketch:type="MSShapeGroup"></path>
                <path d="M304.161665,354.425742 C304.161665,357.964576 304.020162,361.510806 304.209757,365.038547 C304.342936,367.519799 303.429179,368.205749 301.045827,368.148432 C298.758659,368.092965 297.371376,367.956145 297.350104,365.001569 C297.334382,362.841105 299.426405,359.213522 294.248139,359.133094 C290.457156,359.074853 288.89785,360.059404 289.463861,363.951382 C289.818081,366.386411 289.704324,368.209447 286.061318,368.237181 C282.131607,368.267688 282.816925,366.028645 282.815075,363.789601 C282.810451,357.174163 282.932532,350.555026 282.75496,343.944209 C282.684671,341.300253 283.532763,340.566231 286.119584,340.598587 C288.569526,340.629094 289.88652,341.066364 289.533225,343.846217 C289.340855,345.360483 289.59704,346.926519 289.476809,348.455576 C289.249295,351.368551 289.427792,353.288655 293.424092,353.267393 C297.231723,353.24613 297.849526,351.69581 297.499006,348.584076 C297.344555,347.216799 297.564671,345.810695 297.453688,344.434173 C297.258543,342.009314 297.459237,340.495972 300.725827,340.553288 C303.703861,340.604134 304.391029,341.548008 304.214382,344.275166 C303.995191,347.645749 304.161665,351.041292 304.161665,354.425742" id="Fill-54" fill="#FBFBFB" sketch:type="MSShapeGroup"></path>
                <path d="M325.372023,520.098388 C326.332948,520.535658 327.427977,520.801903 328.234451,521.436082 C338.938728,529.861615 351.233757,534.939676 364.264971,538.33337 C367.847861,539.267075 367.476994,540.524341 365.342428,542.46201 C361.752139,545.724431 357.391445,547.634367 352.892948,549.27251 C351.958844,549.612712 351.103353,549.584978 350.286705,548.976683 C339.838613,541.188104 330.552139,532.404805 325.42474,520.048467 L325.372023,520.098388 Z" id="Fill-56" fill="#00758B" sketch:type="MSShapeGroup"></path>
                <path d="M473.360555,519.976359 C472.743676,522.866223 471.462751,524.713295 470.205873,526.548349 C464.540208,534.819496 457.828532,542.080208 449.712925,548.042978 C448.038936,549.273435 446.689572,549.737514 444.72148,548.869446 C441.076624,547.263658 437.311538,545.901003 434.236393,543.272762 C433.121017,542.319644 431.429457,541.446028 431.972347,539.625766 C432.436624,538.067126 434.245642,538.173438 435.479399,537.888705 C446.655353,535.30114 456.965642,530.777755 466.464832,524.375867 C468.532809,522.98178 470.255815,521.019151 473.360555,519.976359" id="Fill-58" fill="#00758B" sketch:type="MSShapeGroup"></path>
                <path d="M247.157457,352.28238 C247.523699,349.035675 245.414104,343.859621 247.924162,341.41997 C250.393526,339.020071 255.542197,340.902272 259.508902,340.689646 C260.276532,340.64897 261.049711,340.683175 261.820116,340.6841 C267.126936,340.685949 268.328324,342.239967 267.088092,347.497373 C266.667283,349.280657 262.14474,350.206042 260.687168,348.311823 C258.871676,345.951675 256.70474,346.601571 254.94289,347.129438 C253.302197,347.621251 254.277919,349.826089 254.189133,351.259003 C254.04763,353.560909 254.050405,355.885003 254.190983,358.186909 C254.268671,359.444175 253.340116,361.45765 255.00948,361.798776 C256.714913,362.147297 259.052948,363.092096 260.414335,360.925161 C261.98104,358.431891 264.848092,359.105823 266.059653,359.879596 C268.312601,361.317132 267.089017,364.357682 266.979884,366.65774 C266.866127,369.038226 264.610405,367.981567 263.289711,368.034262 C259.750289,368.174779 256.201618,368.106369 252.657572,368.074938 C249.128324,368.043506 247.239769,366.238035 247.170405,362.701049 C247.108439,359.467287 247.157457,356.230751 247.157457,352.28238" id="Fill-60" fill="#FBFBFB" sketch:type="MSShapeGroup"></path>
                <path d="M503.85415,357.307747 C503.85415,355.458826 503.797734,353.608056 503.867098,351.761909 C503.972532,348.929362 504.455306,346.028405 499.880971,346.751333 C497.498543,347.127589 497.864786,345.073438 497.785249,343.570265 C497.696462,341.872956 497.824092,340.587031 500.139006,340.648046 C504.91311,340.772848 509.696462,340.782092 514.470566,340.643423 C516.697618,340.578711 517.022243,341.651085 516.893688,343.449161 C516.778081,345.076211 517.331145,347.179359 514.551029,346.79201 C511.224324,346.329779 510.782243,348.089028 510.873803,350.831902 C511.031954,355.602118 510.76652,360.388974 510.968139,365.156416 C511.103168,368.33656 509.184092,368.033337 507.102243,368.121161 C504.899237,368.214531 503.583168,367.840125 503.806983,365.161038 C504.025249,362.560531 503.85415,359.926744 503.85415,357.307747" id="Fill-62" fill="#FBFBFB" sketch:type="MSShapeGroup"></path>
                <path d="M396.058451,354.919681 C396.058451,350.957444 396.22215,347.724605 396.009434,344.515803 C395.818913,341.627789 396.575445,340.561886 399.755098,340.548019 C402.933827,340.533228 403.178913,341.854282 403.095676,344.363267 C402.944925,348.961533 403.292671,353.58476 402.973595,358.166386 C402.737757,361.563778 404.017757,362.501181 407.100301,362.039875 C408.150936,361.882717 409.254289,362.102738 410.318798,361.996426 C412.342382,361.794893 413.466081,362.250652 413.28111,364.669041 C413.133133,366.602087 413.396717,368.505551 410.518566,368.083073 C410.367815,368.060886 410.21059,368.090469 410.057988,368.079375 C405.524347,367.734551 399.655214,370.029062 396.811283,367.081882 C394.195792,364.372289 396.346081,358.595336 396.058451,354.919681" id="Fill-64" fill="#FBFBFB" sketch:type="MSShapeGroup"></path>
                <path d="M473.947376,340.684007 C475.945988,340.684007 477.946451,340.646104 479.944139,340.695101 C481.642173,340.737626 483.656509,339.981417 483.608416,343.166183 C483.567723,345.816612 483.160786,347.316086 480.114312,346.839065 C477.931653,346.497939 477.071538,347.537032 477.21489,349.737248 C477.354543,351.879223 477.244486,354.038763 477.244486,356.189982 C477.241711,368.110899 477.045642,368.828281 473.762405,367.933403 C466.611422,365.983716 471.905295,359.917406 470.526335,355.931133 C469.908532,354.146 470.294197,351.960576 470.454197,349.975759 C470.647491,347.57586 469.755006,346.46096 467.326335,346.82982 C464.531422,347.255072 464.155006,345.830478 464.063445,343.402845 C463.954312,340.511133 465.521017,340.60173 467.490035,340.667367 C469.640324,340.739475 471.794312,340.684007 473.947376,340.684007" id="Fill-66" fill="#FBFBFB" sketch:type="MSShapeGroup"></path>
                <path d="M378.040231,274.278813 C371.207399,273.791622 365.135723,273.981136 362.005087,268.090474 C358.84763,262.151741 361.802543,256.731629 364.598382,250.095852 C366.14474,260.352741 370.414798,267.655978 378.040231,274.278813" id="Fill-68" fill="#FBFBFB" sketch:type="MSShapeGroup"></path>
                <path d="M421.592046,274.242666 C429.174936,267.593947 433.362682,260.213979 434.921988,250.605137 C438.126613,256.753724 440.624647,262.510339 437.301642,268.498069 C434.182104,274.117864 428.163145,273.849771 421.592046,274.242666" id="Fill-70" fill="#FBFBFB" sketch:type="MSShapeGroup"></path>
                <path d="M573.221364,353.629596 C573.136277,354.015096 573.052116,354.399672 572.967029,354.785172 C572.100439,354.140823 572.985526,353.993834 573.28148,353.678593 L573.221364,353.629596" id="Fill-72" fill="#00758B" sketch:type="MSShapeGroup"></path>
                <path d="M325.424647,520.04819 C325.300717,519.922463 325.177711,519.796737 325.05378,519.67101 C325.128694,519.702442 325.236902,519.712611 325.270197,519.768078 C325.328462,519.863298 325.340486,519.986251 325.371931,520.098111 L325.424647,520.04819" id="Fill-74" fill="#00758B" sketch:type="MSShapeGroup"></path>
                <path d="M477.046197,544.073437 C476.935214,544.219502 476.823306,544.364642 476.712324,544.510707 C476.728046,544.426581 476.715098,544.307326 476.765965,544.26665 C476.856601,544.193617 476.985156,544.168657 477.097988,544.123358 L477.046197,544.073437" id="Fill-76" fill="#00758B" sketch:type="MSShapeGroup"></path>
                <path d="M733.273896,93.0412108 C732.66904,91.820923 733.643838,92.0696029 734.258867,91.9827036 C734.111815,92.5040993 734.037827,93.0929806 733.273896,93.0412108" id="Fill-78" fill="#FDFDFD" sketch:type="MSShapeGroup"></path>
                <path d="M64.5380809,92.0030417 C65.1050173,92.1195237 66.0677919,91.8736173 65.4897572,93.0402863 C64.6684855,93.1558439 64.6795838,92.509646 64.5380809,92.0030417" id="Fill-80" fill="#FDFDFD" sketch:type="MSShapeGroup"></path>
                <path d="M247.335861,427.435374 C247.334012,420.199622 247.417249,412.962946 247.285919,405.729968 C247.242451,403.375367 247.861179,402.495281 250.349965,402.577558 C255.734474,402.754129 261.131006,402.730094 266.517364,402.584953 C268.745341,402.524863 269.411237,403.212662 269.397364,405.446158 C269.307653,419.916737 269.305803,434.388241 269.400139,448.85882 C269.414936,451.087694 268.670428,451.70246 266.540486,451.799529 C261.015399,452.051906 255.489387,452.430011 249.989272,453.006874 C247.384879,453.27959 247.318289,451.91786 247.325688,450.065241 C247.355283,442.521644 247.337711,434.978971 247.335861,427.435374" id="Fill-82" fill="#1F1748" sketch:type="MSShapeGroup"></path>
                <path d="M329.90363,419.802012 C321.665942,419.671663 321.665942,419.671663 321.665942,411.184192 C321.665942,402.631084 321.665942,402.563598 330.245827,402.660667 C334.357734,402.70689 339.867098,400.884778 342.213457,403.356785 C344.755884,406.037721 342.650913,411.536411 343.037503,415.77876 C343.289064,418.539199 342.533457,419.599555 339.557272,419.412814 C336.360046,419.212206 333.123052,419.645778 329.90363,419.802012" id="Fill-84" fill="#1F1748" sketch:type="MSShapeGroup"></path>
                <path d="M215.171052,318.673899 C214.678104,318.324453 214.241572,317.619089 214.781688,317.375956 C215.498451,317.052395 215.282035,318.008287 215.46978,318.413201 C215.470705,318.412276 215.171052,318.673899 215.171052,318.673899" id="Fill-86" fill="#1F1748" sketch:type="MSShapeGroup"></path>
                <path d="M583.411699,318.51369 C583.543954,318.382416 583.676208,318.251143 583.809387,318.119869 C583.689156,318.263161 583.568925,318.407377 583.448694,318.550668 L583.411699,318.51369" id="Fill-88" fill="#1F1748" sketch:type="MSShapeGroup"></path>
                <path d="M330.260254,353.028605 C327.654012,353.405785 326.188116,353.151558 326.15852,349.912249 C326.12615,346.462162 328.002682,346.84304 330.182566,346.790346 C332.518751,346.733954 334.22326,346.745972 334.191815,350.027806 C334.16037,353.373428 332.383723,353.355864 330.260254,353.028605" id="Fill-90" fill="#1F1748" sketch:type="MSShapeGroup"></path>
                <path d="M441.376,354.119468 C441.376,355.190918 441.378775,356.262367 441.376,357.333817 C441.363977,361.832241 439.319121,363.223554 434.907561,362.040245 C433.325133,361.615918 433.603514,360.6175 433.587792,359.627403 C433.548023,357.178508 433.504555,354.726838 433.592416,352.280716 C433.684902,349.685756 432.302243,346.617472 437.40837,346.633187 C442.404439,346.648903 441.319584,349.544313 441.37415,352.282565 C441.386173,352.894558 441.376,353.507475 441.376,354.119468" id="Fill-92" fill="#1F1748" sketch:type="MSShapeGroup"></path>
                <path d="M368.071214,346.827509 C369.956994,346.889448 372.088786,346.207196 372.080462,349.528782 C372.071214,352.90029 369.861734,352.140383 368.021272,352.169041 C366.154913,352.1977 364.088786,352.864236 364.106358,349.48071 C364.124855,346.073149 366.24185,346.921804 368.071214,346.827509" id="Fill-94" fill="#1F1748" sketch:type="MSShapeGroup"></path>
            </g>
        </g>
    </g>
</svg>