<?xml version="1.0" encoding="UTF-8" standalone="no"?>
<svg width="800px" height="800px" viewBox="0 0 800 800" version="1.1" xmlns="http://www.w3.org/2000/svg" xmlns:xlink="http://www.w3.org/1999/xlink" xmlns:sketch="http://www.bohemiancoding.com/sketch/ns">
    <!-- Generator: Sketch 3.4.4 (17249) - http://www.bohemiancoding.com/sketch -->
    <title>jazz</title>
    <desc>Created with Sketch.</desc>
    <defs>
        <path id="path-1" d="M0,0 L799.810695,0 L799.810695,578 L0,578 L0,0 Z"></path>
    </defs>
    <g id="Page-1" stroke="none" stroke-width="1" fill="none" fill-rule="evenodd" sketch:type="MSPage">
        <g id="jazz" sketch:type="MSArtboardGroup">
            <g id="Page-1" sketch:type="MSLayerGroup" transform="translate(0.000000, 111.000000)">
                <g id="Group-3">
                    <mask id="mask-2" sketch:name="Clip 2" fill="white">
                        <use xlink:href="#path-1"></use>
                    </mask>
                    <g id="Clip-2"></g>
                    <path d="M440.090374,10.4824581 C430.061497,10.2244989 420.105348,10.9073952 410.183422,11.9295989 C403.643316,12.6039322 397.089305,13.4591581 390.650802,14.7714322 C285.160963,36.2601878 212.63369,96.8806137 174.827273,198.031684 C162.847594,230.083925 158.473262,263.615417 159.572727,297.821243 C160.169519,316.39324 162.417647,334.777921 166.935294,352.804029 C168.134225,357.585373 166.447594,361.542532 164.132086,364.784684 C162.579144,366.959677 158.910695,364.635903 156.243316,364.067536 C150.326738,362.805569 144.431551,361.436566 138.551337,360.014043 C136.076471,359.414636 133.620856,359.201632 131.147059,359.762506 C95.5759358,367.821325 60.015508,375.932591 24.4262032,383.916484 C21.0604278,384.671095 20.5459893,385.520969 22.8647059,388.235429 C28.2240642,394.51208 32.1780749,401.663225 35.5780749,409.179366 C38.0882353,414.727095 39.0807487,420.219166 37.6775401,426.282814 C35.4304813,435.990003 33.5128342,445.775329 31.5802139,455.553162 C26.0593583,483.479125 33.3278075,501.134884 56.9245989,517.020251 C75.6935829,529.655973 96.7106952,536.116729 118.987701,538.045536 C141.929947,540.032143 164.45615,538.151503 185.817647,528.123203 C205.474332,518.89661 225.555615,510.571269 245.133155,501.186262 C251.493583,498.136777 255.372727,498.765084 260.894652,503.237091 C326.87754,556.679614 402.265775,576.540336 485.85508,563.596347 C542.290374,554.856773 591.30107,529.979225 632.773797,490.510388 C680.487166,445.100995 708.805882,389.751073 717.606952,324.45741 C718.025134,321.356547 719.25615,320.251925 722.025134,319.562606 C730.657219,317.413303 739.194118,314.875454 747.848663,312.832117 C751.074332,312.070014 753.149198,310.646421 754.708556,307.705043 C763.883957,290.399295 773.09893,273.111743 782.570588,255.966551 C784.70107,252.108936 783.413369,251.201262 779.870053,250.653232 C770.377005,249.184684 760.850802,247.851003 751.437968,245.961799 C746.287166,244.927821 741.662567,244.928891 737.182353,247.952688 C736.23262,248.592769 734.762032,250.103062 733.519251,248.21814 C732.494652,246.665032 730.81123,245.161162 732.420856,242.979747 C733.159893,241.978951 733.779144,240.888243 734.448663,239.836069 C747.85615,218.794729 761.219786,197.724488 774.719251,176.742017 C776.606952,173.809203 776.821925,172.382399 772.993048,171.160036 C765.703209,168.833051 758.645455,165.772862 751.338503,163.510099 C746.997326,162.165714 742.875401,159.780929 737.955615,160.444558 C724.89893,162.204247 711.756684,163.408414 698.76631,165.550225 C693.257219,166.458969 690.533155,165.092106 688.035829,160.158769 C672.711765,129.885484 651.818717,103.791995 626.490374,81.4212544 C573.29893,34.4405581 510.94385,11.1289619 440.090374,10.4824581 L440.090374,10.4824581 Z M457.754545,0.000321111111 C462.47754,2.4932137 467.782353,1.39394333 472.710695,1.87561 C511.316043,5.64545444 547.272193,17.6132656 581.073262,36.1874026 C601.74492,47.5472433 620.604813,61.4138915 637.871123,77.7263359 C654.540642,93.4736248 669.222995,110.674477 681.893583,129.659636 C686.696791,136.854666 690.887166,144.471421 695.110695,152.034658 C696.538503,154.590703 697.689305,155.231854 700.860428,154.703091 C714.402674,152.44568 728.000535,150.130469 741.670053,149.239921 C746.705348,148.911317 752.01123,152.400725 757.162032,154.239621 C767.640107,157.980566 778.064706,161.877784 788.582353,165.504199 C791.679679,166.572429 793.151337,167.046603 790.729947,170.772562 C777.631551,190.926566 764.862567,211.296784 751.993048,231.599569 C751.345989,232.619632 750.813369,233.71248 750.019786,235.144636 C765.813369,237.804506 781.173797,240.542514 796.596257,242.874851 C800.109626,243.405754 800.479679,244.357314 798.970588,247.164895 C789.659358,264.48884 780.402674,281.840614 771.095722,299.165629 C767.994118,304.938136 764.45615,310.505132 761.772727,316.461743 C760.153476,320.056047 757.65508,321.351195 754.247594,322.198929 C746.556684,324.11061 738.971658,326.499677 731.217647,328.084895 C727.639037,328.817029 726.650802,330.803636 726.229412,333.726817 C722.443316,359.956243 714.710695,385.014684 703.647594,409.040217 C692.572727,433.09358 678.757754,455.43328 661.302139,475.426729 C643.636898,495.65994 624.280749,513.960062 601.830481,528.919558 C569.78877,550.269166 534.909626,564.783388 497.265775,572.344484 C484.345989,574.940132 471.23369,577.355958 457.87861,576.935303 C456.686096,576.896769 455.329947,576.631317 454.545989,578.000321 L424.599465,578.000321 C423.813369,576.634529 422.462567,576.936373 421.264706,576.92888 C404.752406,576.830406 388.58877,573.869762 372.65615,570.05068 C328.854011,559.553558 289.371658,540.13811 254.734225,511.169606 C253.057219,509.767421 251.912834,509.73531 250.075401,510.576621 C231.431551,519.117106 212.674332,527.412477 194.09893,536.098532 C178.737433,543.281788 162.645455,547.865114 145.827273,548.945117 C121.393048,550.51321 97.384492,547.693854 74.5930481,538.151503 C58.0112299,531.20801 42.442246,522.448099 31.1919786,507.904977 C22.1919786,496.270051 18.5278075,482.631391 19.4743316,468.071143 C20.4240642,453.460588 24.4882353,439.295306 26.8465241,424.874206 C27.4219251,421.350547 28.0165775,418.223995 26.555615,414.582595 C20.9085561,400.512577 11.2572193,389.662232 0.000534759358,379.981803 L0.000534759358,378.911432 C28.1374332,372.496703 56.2754011,366.088395 84.4112299,359.664032 C99.8497326,356.138232 115.273262,352.539647 130.723529,349.066295 C136.827273,347.69408 142.444385,350.520929 148.272193,351.490684 C149.998396,351.778614 151.661497,352.434751 153.359893,352.897151 C155.578075,353.499769 156.387701,352.658458 155.843316,350.43851 C152.942781,338.615199 150.846524,326.529647 150.181283,314.497614 C149.481818,301.847977 147.509626,289.201551 149.426203,276.299306 C150.737433,267.468751 150.590909,258.359899 151.758824,249.386984 C154.181283,230.767891 158.560963,212.647591 164.63369,194.939384 C172.52246,171.933914 182.732086,150.01594 196.650802,129.983958 C205.221925,117.64901 214.374866,105.814995 224.5,94.6264137 C249.418717,67.0879248 278.70107,45.4953433 311.860428,29.2257137 C336.841176,16.9689026 363.141711,8.41664333 390.764171,4.20901741 C400.009091,2.80041 409.187701,0.985061852 418.594118,1.07176185 C419.645455,1.08139519 420.76631,1.15739148 421.390909,0.000321111111 L457.754545,0.000321111111 Z" id="Fill-1" fill="#AEB0B0" sketch:type="MSShapeGroup" mask="url(#mask-2)"></path>
                </g>
                <path d="M403.281711,74.5456233 C403.177968,74.1078419 403.01861,73.4153122 402.848556,72.7259937 C400.554439,63.4266159 398.183316,54.1454344 395.984385,44.8235789 C393.923422,36.0807937 393.969412,35.8260456 402.960856,34.5127011 C406.338396,34.0192604 406.354439,33.0998122 405.59508,30.2462048 C404.924492,27.7254826 404.965134,25.9722159 401.445348,27.0639937 C390.765134,30.3778604 379.84,32.7605048 368.807914,34.5801344 C366.004706,35.0425344 364.982246,35.8335381 365.931979,38.9247678 C366.770481,41.6499307 367.256043,43.6579456 370.66246,41.8522307 C371.737326,41.2817233 373.053904,41.1864604 374.212193,40.7465381 C377.400428,39.5359493 379.135187,39.8463567 380.027166,43.8923567 C382.472086,54.9781826 385.302032,65.9805196 387.098824,77.2022826 C387.429305,79.2638159 387.508449,80.4572789 390.26139,79.4650456 C393.569412,78.2737233 397.137326,77.7845641 400.611123,77.087753 C401.99508,76.8094567 403.622888,77.0171085 403.281711,74.5456233 L403.281711,74.5456233 Z M503.383316,82.4984752 C501.90738,74.3722233 500.433583,66.7008789 499.138396,58.9995641 C497.811123,51.1141456 496.064599,43.2330085 495.619679,35.2865789 C495.269947,29.0591641 490.420749,31.5723937 487.760856,29.9604159 C484.88385,28.2189233 484.155508,30.8777233 483.082781,32.5838937 C475.043209,45.3833826 466.561925,57.8820974 457.667807,70.1014456 C457.105241,70.8731826 455.980107,71.550727 456.48492,72.620027 C461.731979,74.6344641 466.407914,75.4372419 468.275294,68.4434419 C468.86139,66.2523937 470.630374,66.1250196 472.580107,66.6216715 C474.985455,67.2349937 477.398289,68.0292085 479.847487,68.2186641 C484.149091,68.5494085 486.215401,70.325153 485.842139,74.8988456 C485.669947,77.0053344 485.453904,79.5303381 488.97262,79.9477826 C493.68492,80.5065159 498.335187,81.579027 503.383316,82.4984752 L503.383316,82.4984752 Z M334.26139,90.7595937 C334.108449,89.9000863 334.216471,87.7400789 333.348021,86.09599 C328.199358,76.3374233 322.81861,66.7008789 317.530909,57.0150974 C316.634652,55.37529 315.800428,55.8516048 314.663529,56.8342048 C313.602567,57.7525826 312.387594,58.6559752 311.081711,59.0969678 C307.761925,60.2187159 308.397219,61.6230419 309.998289,64.0324456 C314.925561,71.44369 319.72984,78.9512678 324.231444,86.6268937 C327.731979,92.5952789 326.565134,97.1186641 321.344813,100.413264 C316.136257,103.700371 311.815401,102.710279 307.774759,96.7590196 C304.077433,91.3129752 300.752299,85.6100419 297.349091,79.9681196 C295.607914,77.0802604 294.693476,72.5236937 292.256043,71.521827 C289.175829,70.2555789 286.665668,74.9298863 283.430374,76.21219 C282.278503,76.6692381 281.244278,77.4184974 280.103102,77.9076567 C278.30631,78.677253 277.644278,79.4104567 278.99508,81.4323863 C284.24,89.2824826 289.126631,97.3744826 294.436791,105.178553 C299.975829,113.32086 306.695615,115.700294 315.15123,113.037212 C326.531979,109.453612 334.257112,100.89172 334.26139,90.7595937 L334.26139,90.7595937 Z M555.489198,81.5041011 C558.881711,83.5720567 563.138396,85.2150752 565.943743,88.2163937 C567.762995,90.162327 564.011123,92.5909974 563.097754,94.9640085 C562.531979,96.433627 561.447487,97.7020159 560.604706,99.0656678 C555.721283,106.967142 555.725561,106.96179 563.456043,111.531201 C564.681711,112.254771 565.97262,112.930175 567.033583,113.857116 C569.203636,115.754883 570.394011,115.416646 571.749091,112.781394 C578.184385,100.268764 584.421818,87.6341122 592.446417,76.0152419 C593.465668,74.5402715 594.077433,73.5127159 591.782246,72.3620678 C587.81861,70.3733196 583.760856,65.7546715 580.333048,66.2588159 C576.422888,66.8336048 575.918075,73.4484937 573.436791,77.1434122 C573.337326,77.290053 573.244278,77.4473974 573.184385,77.6143752 C571.748021,81.6015048 569.656043,81.8648159 566.005775,79.7304974 C557.679572,74.8613826 557.562995,75.0636826 562.677433,66.7929307 C564.265668,64.2240419 567.338396,61.4667678 567.052834,59.1226567 C566.691337,56.1598715 562.028235,56.0753122 559.537326,54.2257122 C558.538396,53.4839456 557.338396,52.9744493 556.450695,52.1267159 C553.991872,49.7836752 552.99615,50.8412011 551.589733,53.4464826 C546.004706,63.78519 540.153369,73.9804678 534.35016,84.2003641 C532.863529,86.8195604 529.756578,89.4794307 529.99508,91.8588641 C530.258182,94.4727085 534.754439,94.7188937 537.168342,96.4036567 C538.481711,97.3209641 539.968342,98.0263381 541.159786,99.0742307 C543.103102,100.783612 544.064599,100.094294 545.103102,98.0745048 C547.544813,93.3231307 550.136257,88.6488233 552.727701,83.9766567 C553.277433,82.9854937 553.472086,81.5222974 555.489198,81.5041011 L555.489198,81.5041011 Z M235.760856,197.078412 C241.606845,203.972668 246.460321,210.097327 251.770481,215.795979 C254.630374,218.864731 254.909519,221.40472 253.297754,225.261264 C243.475294,248.752683 234.10738,272.434627 224.253904,295.912131 C217.760856,311.383264 213.569412,328.267286 199.52984,339.453727 C196.231444,342.081486 196.383316,344.613983 198.289198,348.147275 C200.03893,351.393709 202.924492,354.349001 201.333048,358.954805 C188.813262,395.167575 176.482781,431.444568 164.08492,467.700153 C163.519144,469.351734 163.320214,471.347975 161.253904,471.927046 C155.436791,473.55722 149.688128,475.655146 143.525561,475.461409 C139.047487,475.32012 136.599358,472.831509 136.619679,468.35522 C136.629305,466.071049 136.909519,463.685194 137.610053,461.520905 C145.657112,436.640146 152.538396,411.230623 169.700963,390.448312 C172.17262,387.455557 174.099893,384.011105 176.880642,379.881616 C173.820749,380.492797 172.078503,380.772164 170.370481,381.19282 C139.95123,388.683271 109.535187,396.189779 79.1202139,403.697357 C72.1437433,405.419583 71.9063102,405.58656 75.784385,411.478949 C80.1031016,418.039249 81.2432086,424.418657 78.4121925,432.102846 C75.037861,441.262005 72.8849198,450.87179 70.2014973,460.285697 C68.1148663,467.60489 67.5416043,475.102834 69.0186096,482.509797 C72.211123,498.515046 82.2047059,509.715401 96.1982888,516.973583 C122.361925,530.545879 149.564064,529.628571 176.468877,519.746912 C198.356578,511.70736 219.014332,500.687897 240.233583,491.026734 C243.397219,489.587086 243.059251,488.160283 241.646417,485.774427 C236.942674,477.83656 236.57262,470.105275 239.866738,461.004986 C251.50631,428.84892 262.408984,396.420979 273.144813,363.948083 C276.66139,353.310742 280.666738,343.272809 289.302032,335.719205 C292.155508,333.224171 292.974759,330.269949 291.564064,326.652097 C289.104171,320.342264 290.17262,314.354612 292.413262,308.04692 C302.185455,280.548034 311.710588,252.958168 321.013262,225.296586 C323.619679,217.544964 327.137326,210.722423 333.076364,204.956338 C339.073155,199.134594 344.504171,192.725216 350.137326,186.532053 C350.872086,185.724994 352.368342,185.114883 351.365134,183.333786 C313.271016,187.862523 275.112727,192.399823 235.760856,197.078412 L235.760856,197.078412 Z M262.994011,456.980394 C264.420749,458.105353 265.719144,457.120612 266.960856,456.632523 C291.66139,446.901786 316.336257,437.108968 341.051765,427.419975 C343.459251,426.475909 344.678503,424.91959 345.530909,422.593675 C348.776898,413.732079 352.175829,404.927212 355.497754,396.093446 C356.192941,394.244916 356.823957,392.528042 359.052834,391.818386 C367.52984,389.116771 375.977968,386.322034 384.403636,383.464146 C387.341604,382.468701 387.35123,384.051779 387.025027,386.100468 C386.521283,389.265553 385.937326,392.417794 385.481711,395.589301 C384.592941,401.776042 383.768342,407.971346 382.847487,414.666512 C384.602567,414.172001 385.471016,413.993249 386.292406,413.687123 C447.678503,390.75979 510.30631,371.565909 572.997219,352.688857 C588.852834,347.915005 599.872086,340.709271 606.574759,325.428664 C611.527701,314.138397 618.63893,303.795409 625.497754,291.790134 C621.927701,293.22229 619.642139,294.012223 617.463529,295.033357 C600.01754,303.215268 581.784385,309.197568 563.305241,314.489479 C562.169412,314.814871 560.608984,315.337212 559.828235,314.843771 C558.48492,313.997109 559.710588,312.592783 560.125561,311.522412 C564.290267,300.780175 567.721283,289.526301 579.149091,283.754864 C582.135187,282.246712 582.715936,280.112394 580.700963,277.324079 C577.466738,272.84672 578.35123,268.642305 580.783316,263.924112 C590.75016,244.586801 600.397219,225.083583 610.114866,205.617827 C610.882781,204.077564 612.757647,202.267568 611.674225,200.807583 C610.429305,199.130312 608.045348,200.389068 606.206845,200.672716 C568.031444,206.541557 529.869947,212.501379 491.681711,218.281379 C488.702032,218.733075 486.95016,219.780968 485.526631,222.434416 C478.282781,235.930716 470.829305,249.314627 463.517005,262.773464 C462.554439,264.544927 460.952299,266.11516 461.152299,269.486827 C481.737326,260.721564 502.797219,255.315123 524.635722,253.140131 C524.849626,253.389527 525.075294,253.626079 525.314866,253.849786 C519.075294,264.859616 514.803636,277.446101 502.146952,283.362038 C499.225027,284.72676 498.853904,286.977749 499.55123,289.509175 C501.61754,297.00819 498.891337,303.271997 495.259251,309.60859 C491.014332,317.017694 487.339465,324.754331 483.399358,332.338975 C474.387594,349.688609 465.364064,367.03182 456.149091,384.755012 C451.364064,380.539894 448.256043,376.486401 448.890267,369.884357 C450.287059,355.346586 451.619679,340.758509 451.891337,326.170431 C452.064599,316.902094 454.46139,309.121571 460.724492,302.439249 C462.648556,300.386279 463.258182,298.340801 460.825027,296.132627 C454.01861,289.95552 452.678503,282.047623 453.394011,273.319823 C453.786524,268.536338 453.669947,263.682209 453.404706,258.881597 C453.15123,254.274723 454.187594,250.208386 456.376898,246.139909 C460.536257,238.411834 464.296684,230.470757 468.588663,221.886386 C454.971551,224.031409 442.341604,226.038353 429.70738,228.006764 C403.687059,232.060257 377.674225,236.162986 351.630374,240.063416 C347.368342,240.701357 345.960856,242.056446 347.37262,246.455668 C350.780107,257.076953 349.852834,266.927571 343.621818,276.824216 C335.265668,290.095738 331.167273,306.136309 317.768342,316.069346 C314.208984,318.708879 313.783316,321.975649 314.81754,325.943512 C315.802567,329.72299 316.387594,333.370812 314.630374,337.361153 C304.298824,360.822601 294.184385,384.381453 284.054973,407.932812 C277.022888,424.281649 270.08385,440.67009 263.10631,457.042475 C262.99508,457.149512 262.863529,457.244775 262.782246,457.372149 C262.758717,457.408542 262.875294,457.536986 262.92877,457.622616 C262.95016,457.408542 262.97262,457.194468 262.994011,456.980394 L262.994011,456.980394 Z M535.885989,373.610316 C525.597219,376.957364 515.290267,380.249823 505.021818,383.661094 C465.44107,396.811664 425.962995,410.263009 386.799358,424.616675 C383.06246,425.985679 380.17262,425.774816 377.03893,423.209138 C373.481711,420.29666 369.339465,418.10026 365.77262,415.196346 C362.123422,412.224997 360.362995,413.44522 358.860321,417.26002 C356.909519,422.214764 354.620749,427.035712 352.651765,431.984034 C351.446417,435.013183 349.412193,436.56522 346.348021,437.800427 C337.691337,441.289834 328.556578,443.73349 320.649626,448.960109 C317.149091,448.672179 314.419679,450.38049 311.498824,452.126264 C362.926631,495.280386 438.249626,511.587479 506.754439,486.445549 C574.39615,461.62152 617.069947,412.89826 637.748021,343.332749 C632.869947,343.819768 629.226096,344.860168 625.837861,346.820016 C618.137326,348.148346 610.856043,350.969842 603.422888,353.227253 C583.610053,359.244875 563.851765,365.438038 544.071016,371.561627 C541.342674,372.244523 538.614332,372.92742 535.885989,373.610316 L535.885989,373.610316 Z M771.210053,258.030653 C769.277433,257.111205 767.789733,258.51446 766.221818,259.116009 C758.752299,261.98139 751.403636,265.170023 743.88492,267.893046 C731.381176,272.422853 718.190802,273.967397 704.537326,277.161383 C709.428235,268.334038 713.536257,260.192801 722.139465,255.814986 C725.713797,253.997497 726.092406,251.526012 723.823957,248.534327 C721.096684,244.938953 722.118075,241.946197 724.35123,238.413975 C736.432513,219.293949 748.289198,200.030494 760.17369,180.785234 C761.04107,179.381979 762.583316,178.162827 762.102032,175.926823 C761.352299,176.027438 760.671016,176.101294 759.99615,176.210471 C721.176898,182.467857 682.365134,188.766986 643.52877,194.916264 C640.344813,195.420409 638.450695,196.86969 636.913797,199.512434 C630.914866,209.829734 624.777968,220.065686 618.752299,230.366931 C616.627166,233.999768 613.910588,237.318986 612.157647,242.344375 C621.937326,239.070112 630.911658,235.875057 640.005775,233.072827 C649.097754,230.270597 658.591872,229.69902 668.700963,228.021749 C662.244278,238.871023 657.343743,249.84232 644.966203,253.901164 C638.654973,255.97126 637.834652,259.947686 639.888128,265.781205 C640.988663,268.906686 642.477433,272.148838 640.24107,275.929386 C633.258182,287.733431 626.715936,299.796505 619.982246,311.74826 C614.323422,321.791546 608.634652,331.818775 602.711658,342.291279 C604.093476,342.291279 604.81861,342.447553 605.450695,342.268801 C651.642139,329.209212 697.826096,316.118583 744.01861,303.062205 C745.425027,302.665097 746.789733,302.370746 747.539465,300.959997 C755.21754,286.529264 764.06246,272.740753 771.105241,257.961079 C771.208984,257.87759 771.32984,257.808016 771.408984,257.706331 C771.437861,257.668868 771.370481,257.555409 771.346952,257.477271 C771.300963,257.661375 771.256043,257.845479 771.210053,258.030653 L771.210053,258.030653 Z M578.560856,144.678431 C578.355508,143.762194 577.81754,143.148871 576.913797,142.870575 C574.576898,139.746164 572.145882,136.685975 569.939465,133.470583 C568.681711,131.637038 567.499893,131.06546 565.749091,132.693494 C553.343743,122.748683 539.980107,114.276701 525.682781,107.379234 C517.24107,103.306475 508.760856,99.1523678 499.398289,97.4387048 L499.473155,97.4729567 C499.071016,97.2331937 498.668877,96.9923604 498.266738,96.7525974 C495.298824,93.2300085 492.32984,89.70849 489.175829,85.9654048 C487.092406,88.2174641 485.068877,90.4074419 483.044278,92.5974196 C476.485989,90.901953 469.797219,89.9707307 463.081711,89.1904307 C452.602567,74.0607456 442.123422,58.92999 431.423957,43.4813344 C430.026096,45.3437789 428.952299,46.7448937 427.908449,48.1674159 C417.17262,62.7983085 406.44,77.4313419 395.70738,92.0643752 C384.353369,94.0070974 373.50631,97.6324419 362.871016,101.96209 C361.125561,100.275186 359.380107,98.5882826 357.429305,96.7033604 C354.130909,100.794316 350.740535,104.99766 347.35123,109.202075 C346.75123,109.27379 346.15123,109.346575 346.415401,110.216786 L346.492406,110.123664 C345.354439,109.697657 344.435722,110.288501 343.504171,110.783012 C318.254973,124.181909 296.713797,142.053883 278.942674,164.457805 C278.705241,164.757509 278.802567,165.322664 278.730909,165.853568 C281.631444,166.110457 284.210053,165.551723 286.761925,164.78962 C289.334118,165.05186 291.789733,164.440679 294.237861,163.783471 C300.627166,163.081309 307.016471,162.379146 313.404706,161.676983 C314.776898,163.249357 316.79615,163.383153 318.594011,163.98149 C325.931979,166.421934 333.281711,168.827057 340.627166,171.245023 C341.094545,171.249305 341.561925,171.253586 342.030374,171.257868 C350.427166,174.03762 358.779037,176.971505 367.245348,179.521127 C370.597219,180.531557 370.374759,181.575168 368.171551,183.531805 C367.112727,184.47159 366.125561,185.499146 365.166203,186.543827 C357.17262,195.247009 349.192941,203.965175 341.876364,211.950138 C347.242139,211.019986 354.399358,210.74276 361.298824,208.625568 C362.719144,208.600949 364.162995,208.733675 365.557647,208.528164 C379.558717,206.46342 393.594011,204.58599 407.535187,202.168023 C420.687059,199.887064 433.736257,197.27536 446.548021,203.45996 C449.15123,204.716575 450.380107,203.548801 451.375829,201.23252 C452.194011,199.328331 452.879572,197.179027 455.601497,196.969234 C459.12984,196.698431 462.720214,196.574268 466.143743,195.778983 C469.837861,194.920546 473.968342,195.956664 477.249626,193.307497 C479.88492,194.901279 482.599358,193.532275 485.277433,193.520501 C501.988663,191.318749 518.700963,189.116997 535.412193,186.915246 C541.737326,186.144579 548.051765,185.269016 554.389733,184.622512 C570.454973,182.983775 586.651765,177.73682 602.348021,186.55132 C605.724492,188.446946 606.003636,185.267946 606.733048,183.168949 C608.589733,181.72716 608.088128,180.175123 607.000428,178.540668 C598.737326,166.140427 589.437861,154.612538 578.437861,144.513594 L578.560856,144.678431 Z M440.090267,10.4828863 C510.943743,11.12939 573.298824,34.4399159 626.490267,81.4216826 C651.81861,103.792423 672.711658,129.885912 688.035722,160.158127 C690.533048,165.092534 693.257112,166.458327 698.766203,165.550653 C711.756578,163.407771 724.898824,162.204675 737.955508,160.443916 C742.875294,159.781357 746.997219,162.166142 751.338396,163.509457 C758.645348,165.77222 765.703102,168.832409 772.992941,171.159394 C776.821818,172.381757 776.606845,173.809631 774.719144,176.742446 C761.219679,197.724916 747.856043,218.794086 734.448556,239.836497 C733.779037,240.888671 733.159786,241.979379 732.420749,242.980175 C730.811123,245.16052 732.494545,246.66546 733.519144,248.218568 C734.761925,250.10242 736.233583,248.593197 737.183316,247.952046 C741.66246,244.92932 746.287059,244.927179 751.437861,245.962227 C760.850695,247.851431 770.376898,249.185112 779.869947,250.65259 C783.413262,251.20062 784.702032,252.108294 782.570481,255.966979 C773.099893,273.112171 763.88385,290.399723 754.708449,307.705471 C753.149091,310.646849 751.074225,312.070442 747.848556,312.832546 C739.194011,314.875883 730.657112,317.413731 722.025027,319.561964 C719.256043,320.251283 718.025027,321.356975 717.606845,324.457838 C708.805775,389.751501 680.487059,445.101423 632.77369,490.509746 C591.300963,529.979653 542.290267,554.857201 485.854973,563.596775 C402.265668,576.540764 326.877433,556.678971 260.894545,503.23752 C255.37262,498.764442 251.493476,498.137205 245.133048,501.18562 C225.555508,510.570627 205.474225,518.895968 185.81754,528.123631 C164.456043,538.151931 141.92984,540.031501 118.987594,538.045964 C96.7105882,536.117157 75.6934759,529.655331 56.924492,517.020679 C33.3287701,501.135312 26.0592513,483.479553 31.580107,455.55252 C33.5127273,445.775757 35.4303743,435.990431 37.6774332,426.283242 C39.0806417,420.219594 38.0881283,414.727523 35.5779679,409.179794 C32.1779679,401.663653 28.2239572,394.511438 22.8645989,388.235857 C20.5458824,385.520327 21.0603209,384.671523 24.4260963,383.915842 C60.0154011,375.93302 95.5758289,367.821753 131.146952,359.762934 C133.620749,359.20206 136.076364,359.415064 138.55123,360.013401 C144.431444,361.436994 150.326631,362.804927 156.243209,364.066894 C158.910588,364.636331 162.579037,366.959034 164.131979,364.785112 C166.447487,361.54189 168.134118,357.584731 166.935187,352.804457 C162.41754,334.777279 160.169412,316.393668 159.57262,297.820601 C158.473155,263.614775 162.847487,230.084353 174.827166,198.032112 C212.633583,96.8810419 285.160856,36.2595456 390.650695,14.77079 C397.089198,13.4595863 403.643209,12.60329 410.183316,11.930027 C420.105241,10.9078233 430.06139,10.224927 440.090267,10.4828863 L440.090267,10.4828863 Z" id="Fill-4" fill="#062444" sketch:type="MSShapeGroup"></path>
                <path d="M472.337112,372.803471 C474.423743,372.227611 475.251551,372.023171 476.063316,371.771634 C508.336043,361.76153 540.455829,351.215171 572.955294,342.012126 C584.822674,338.652234 593.49754,333.367815 598.028021,321.798182 C599.375615,318.356941 602.413048,315.658537 603.091123,311.433786 C583.594866,320.309297 563.144599,323.956049 541.957433,330.498152 C547.11893,318.328041 551.846203,307.799878 556.041925,297.062993 C558.578824,290.570126 561.709305,284.807252 568.112513,281.504089 C571.371337,279.822537 571.36385,277.766356 569.232299,275.239211 C566.837647,272.40166 567.331765,269.747141 568.940321,266.533889 C577.313583,249.808282 585.437647,232.958511 593.629091,216.142993 C594.161711,215.051215 595.280428,213.873808 594.617326,212.697471 C593.881497,211.392689 592.379893,212.151582 591.235508,212.316419 C560.074011,216.805552 528.916791,221.326797 497.756364,225.825563 C496.175615,226.053552 494.537112,225.964711 493.567059,227.63556 C489.039786,235.424645 484.488984,243.199815 479.393797,251.925474 C500.877219,245.588882 521.975615,244.213456 543.923209,240.249874 C537.332834,252.023949 531.348877,262.321982 525.769198,272.834089 C522.449412,279.089334 518.78738,284.779423 511.990588,287.687619 C509.49754,288.754778 508.40877,290.603308 509.267594,293.223574 C510.792727,297.879686 509.34139,301.817578 506.979893,305.829326 C504.184171,310.57856 501.834439,315.592174 499.305027,320.497682 C490.496471,337.574371 481.693262,354.654271 472.337112,372.803471 M279.419465,441.286837 C281.235508,441.008541 281.940321,441.027808 282.54246,440.789115 C299.771337,433.964434 316.970267,427.061615 334.233369,420.321493 C336.755294,419.336752 337.706096,417.4818 338.530695,415.289682 C341.855829,406.456986 345.237647,397.645697 348.461176,388.776608 C349.240856,386.630515 350.168128,385.079549 352.522139,384.327078 C366.413048,379.885041 380.295401,375.410893 394.111444,370.741937 C398.116791,369.387919 398.284706,371.221463 397.866524,374.235626 C396.960642,380.762745 396.174545,387.30806 395.207701,393.826615 C394.311444,399.867786 394.241925,399.876349 400.238717,397.931486 C412.090053,394.087786 423.87615,390.02573 435.80877,386.458186 C440.394866,385.088111 443.326417,383.921408 440.123209,378.507474 C439.34246,377.188778 439.872941,375.028771 439.968128,373.2648 C440.930695,355.474174 442.023743,337.689971 442.868663,319.893993 C443.18631,313.199897 443.67508,306.748774 449.344599,302.073397 C451.14246,300.590934 451.628021,298.966111 449.598075,297.248167 C445.466524,293.754478 444.176684,289.13583 444.376684,283.947745 C444.989519,268.022774 440.707166,251.361389 451.448342,236.940289 C452.03016,236.158919 452.632299,234.5448 452.259037,234.056711 C451.11893,232.564615 449.325348,233.486204 447.855829,233.715263 C419.203422,238.177637 390.571337,242.777019 361.899679,247.105597 C358.133904,247.673963 356.883636,248.700449 358.082567,252.452097 C360.824813,261.038608 358.543529,268.591141 353.912513,276.138323 C348.524278,284.921782 343.917861,294.205104 339.283636,303.428486 C336.441925,309.084323 333.317861,314.398711 327.922139,317.934145 C323.870802,320.588663 322.995936,324.143363 324.49754,328.479434 C325.685775,331.9089 325.033369,334.989426 323.607701,338.261549 C315.638717,356.543474 307.834439,374.897115 299.982032,393.230419 C293.255829,408.932752 286.54139,424.640437 279.419465,441.286837 M524.635508,253.140345 C502.798075,255.314267 481.737112,260.721778 461.152086,269.487041 C460.953155,266.115374 462.555294,264.545141 463.516791,262.773678 C470.829091,249.313771 478.282567,235.93093 485.526417,222.43463 C486.949947,219.781182 488.701818,218.732219 491.681497,218.281593 C529.869733,212.501593 568.03123,206.541771 606.206631,200.67186 C608.045134,200.389282 610.429091,199.130526 611.674011,200.807797 C612.757433,202.267782 610.883636,204.077778 610.114652,205.618041 C600.397005,225.083797 590.749947,244.585945 580.783102,263.924326 C578.351016,268.642519 577.466524,272.846934 580.700749,277.324293 C582.715722,280.112608 582.134973,282.246926 579.148877,283.755078 C567.722139,289.526515 564.290053,300.780389 560.125348,311.522626 C559.710374,312.592997 558.485775,313.996252 559.828021,314.843986 C560.60877,315.336356 562.169198,314.815086 563.305027,314.489693 C581.784171,309.197782 600.017326,303.215482 617.463316,295.033571 C619.641925,294.012437 621.927487,293.222504 625.49754,291.790349 C618.639786,303.795623 611.528556,314.138611 606.575615,325.428878 C599.871872,340.709486 588.85262,347.915219 572.997005,352.689071 C510.306096,371.566123 447.678289,390.760004 386.292193,413.686267 C385.470802,413.993463 384.602353,414.172215 382.847273,414.665656 C383.768128,407.97156 384.592727,401.776256 385.481497,395.589515 C385.938182,392.418008 386.52107,389.264697 387.024813,386.100682 C387.351016,384.051993 387.34139,382.467845 384.404492,383.46436 C375.977754,386.322249 367.529626,389.116986 359.05262,391.81753 C356.824813,392.528256 356.192727,394.24513 355.49754,396.09366 C352.175615,404.926356 348.776684,413.732293 345.530695,422.592819 C344.678289,424.919804 343.459037,426.476123 341.051551,427.420189 C316.336043,437.109182 291.661176,446.902 266.960642,456.631667 C265.72,457.120826 264.420535,458.105567 262.994866,456.980608 L263.103957,457.040549 C270.083636,440.669234 277.022674,424.281863 284.054759,407.933026 C294.184171,384.381667 304.29861,360.822815 314.63123,337.360297 C316.38738,333.371026 315.802353,329.723204 314.817326,325.942656 C313.783102,321.975863 314.20877,318.708023 317.768128,316.06956 C331.167059,306.136523 335.266524,290.095952 343.621604,276.82443 C349.85262,266.927786 350.779893,257.076097 347.372406,246.455882 C345.960642,242.05666 347.368128,240.701571 351.63016,240.06363 C377.674011,236.1632 403.686845,232.060471 429.707166,228.006978 C442.34246,226.038567 454.971337,224.031623 468.588449,221.8866 C464.296471,230.470971 460.536043,238.412049 456.377754,246.140123 C454.18738,250.2086 453.151016,254.274937 453.405561,258.880741 C453.669733,263.682423 453.78631,268.536552 453.393797,273.320037 C452.678289,282.047837 454.019465,289.955734 460.824813,296.132841 C463.257968,298.339945 462.648342,300.386493 460.724278,302.439463 C454.461176,309.120715 452.064385,316.901237 451.892193,326.169574 C451.619465,340.758723 450.286845,355.34573 448.890053,369.884571 C448.255829,376.486615 451.36385,380.540108 456.148877,384.755226 C465.36385,367.032034 474.38738,349.688823 483.400214,332.339189 C487.340321,324.754545 491.014118,317.017908 495.260107,309.608804 C498.891123,303.271141 501.617326,297.008404 499.551016,289.509389 C498.85369,286.976893 499.224813,284.726974 502.146738,283.362252 C514.803422,277.445245 519.07508,264.85983 525.314652,253.85 C525.524278,253.623082 525.733904,253.397234 525.943529,253.171386 C525.507166,253.161752 525.071872,253.151049 524.635508,253.140345" id="Fill-6" fill="#F79F08" sketch:type="MSShapeGroup"></path>
                <path d="M568.047166,139.472899 C555.202246,150.909806 555.190481,151.079995 565.024706,162.697795 C565.938075,163.777799 566.761604,164.93701 567.700642,165.993465 C568.691016,167.10665 569.667487,169.178887 571.414011,167.383876 C572.839679,165.916399 575.864278,164.192032 573.678182,161.762291 C568.186203,155.66011 566.932727,148.512176 568.047166,139.472899 M547.117754,184.453073 C544.897433,165.326624 541.657861,146.945154 537.278182,127.661361 C533.804385,131.837947 531.135936,135.134687 528.363743,138.341517 C526.978717,139.943861 526.68246,141.438099 528.272834,142.997628 C530.843957,145.520491 530.356257,148.275624 529.288877,151.32618 C527.939144,155.180584 526.985134,159.173065 525.817219,163.093832 C525.418289,164.431795 524.411872,165.86288 525.822567,167.031724 C532.886738,172.881299 540.012941,178.653806 547.117754,184.453073 M430.886738,53.9310393 C430.279251,54.3238652 429.72738,54.502617 429.452513,54.8825985 C412.314545,78.5206578 395.234332,102.201532 378.020428,125.783932 C376.420428,127.97498 377.184064,129.164161 378.524171,130.80825 C385.274973,139.092917 392.086738,147.334769 398.594759,155.808891 C400.709198,158.562954 402.011872,158.308206 404.456791,156.32695 C410.679251,151.282295 417.166952,146.565173 423.523102,141.684284 C429.420428,137.155547 429.340214,137.183376 424.932727,130.869261 C423.479251,128.788461 421.150909,127.163639 421.697433,123.915065 C422.994759,116.196624 424.115615,108.442861 425.110267,100.678395 C427.096364,85.182643 428.94984,69.6708356 430.886738,53.9310393 M361.298503,208.625247 C354.399037,210.74351 347.242888,211.019665 341.876043,211.949817 C349.19262,203.964854 357.172299,195.247758 365.165882,186.543506 C366.125241,185.499895 367.112406,184.472339 368.17123,183.531484 C370.374439,181.575917 370.596898,180.531236 367.245027,179.521876 C358.778717,176.971184 350.427914,174.037299 342.030053,171.257547 C348.753048,161.860765 355.307059,152.335539 362.284599,143.133565 C364.902781,139.68055 364.634332,137.207995 361.713476,134.496747 C358.920963,131.90538 358.055722,128.733873 358.070695,124.908369 C358.095294,118.721628 357.530588,112.532747 357.164813,105.380532 C346.924171,118.64028 337.335936,130.988073 327.826845,143.396876 C322.720963,150.058861 322.986203,149.936839 328.494225,156.64378 C332.510267,161.534302 338.231123,165.018358 340.626845,171.244702 C333.28139,168.826736 325.931658,166.422684 318.59369,163.981169 C316.795829,163.382832 314.776578,163.250106 313.405455,161.676661 C315.01615,155.133487 314.168021,148.445813 314.032193,141.336413 C307.434332,148.819373 300.836471,156.301261 294.23861,163.78315 C291.789412,164.440358 289.333797,165.051539 286.761604,164.789299 C294.361604,156.087187 301.981925,147.403273 309.556257,138.678684 C314.972299,132.439495 315.01615,132.352795 320.263209,138.395036 C321.963743,140.352743 323.128449,141.344976 325.025775,138.66905 C331.912406,128.953299 340.028984,120.161276 346.492086,110.124413 L346.41615,110.217536 C346.728449,109.878228 347.039679,109.539991 347.351979,109.201754 C350.741283,104.99841 354.130588,100.793995 357.428984,96.7030393 C359.379786,98.5890319 361.12631,100.274865 362.872834,101.961769 C365.925241,107.644365 370.543422,112.161328 374.277112,117.334428 C375.52738,119.067358 376.546631,119.196873 377.864278,117.31195 C383.769091,108.865658 389.751979,100.475024 395.707059,92.0651244 C406.440749,77.4320911 417.172299,62.7979874 427.909198,48.1681652 C428.953048,46.7445726 430.025775,45.3434578 431.423636,43.4820837 C442.124171,58.9307393 452.603316,74.0604244 463.08139,89.19118 C463.794759,90.3942763 464.447166,91.6401874 465.231123,92.795117 C474.140214,105.903943 474.145561,105.900732 483.043957,92.5981689 C485.068556,90.4081911 487.093155,88.2182133 489.175508,85.9650837 C492.330588,89.7081689 495.298503,93.2296874 498.266417,96.7522763 C498.478182,97.31208 498.666417,97.9114874 499.472834,97.4737059 L499.397968,97.4383837 C506.735936,109.586017 516.23861,120.102406 524.880321,131.266369 C526.359465,133.17591 527.231123,131.573565 528.143422,130.513899 C530.46107,127.824058 532.86,125.19951 535.084599,122.435813 C536.685668,120.448136 537.847166,120.158065 539.556257,122.437954 C542.428984,126.27095 545.655722,129.836354 548.621497,133.601917 C557.406524,144.756247 557.385134,144.772302 565.74984,132.693173 C567.499572,131.06621 568.68139,131.636717 569.939144,133.470261 C572.145561,136.685654 574.576578,139.745843 576.911337,142.869184 C576.977647,143.910654 577.61508,144.435136 578.560535,144.67811 C578.560535,144.67811 578.43754,144.514343 578.43861,144.514343 C578.924171,145.638232 579.210802,146.913043 579.92631,147.862461 C588.825775,159.659013 597.787273,171.407399 606.732727,183.168628 C606.003316,185.267624 605.724171,188.447695 602.347701,186.550999 C586.651444,177.736499 570.454652,182.983454 554.389412,184.622191 C548.052513,185.268695 541.737005,186.144258 535.411872,186.915995 C528.72738,181.319028 522.08246,175.674965 515.350909,170.135799 C507.23754,163.460969 507.206524,163.498432 499.436471,170.150784 C489.609733,178.563895 489.652513,178.539276 483.512406,167.184787 C482.272834,164.893124 481.991551,163.387113 484.162674,161.234599 C489.719893,155.723261 494.769091,149.702428 500.256791,144.116165 C502.351979,141.983987 502.323102,140.445865 500.579786,138.244113 C496.269626,132.80235 492.129519,127.225721 487.892086,121.725087 C486.509198,119.929006 485.684599,118.37911 487.340214,116.060687 C492.056791,109.456502 488.156257,102.422028 488.396898,95.5052948 C483.249305,101.114036 478.716684,106.829813 474.163743,112.528465 C473.23754,113.686606 472.874973,114.980684 472.676043,116.441739 C470.943422,129.139543 469.401176,141.872669 467.23861,154.498758 C466.356257,159.64938 467.498503,163.570147 470.205455,167.898724 C475.453583,176.292569 481.451444,184.279673 485.277112,193.52018 C482.599037,193.533024 479.884599,194.900958 477.248235,193.307176 C467.112406,174.441899 453.986203,157.593199 441.558396,140.272465 C439.773369,137.785995 438.978717,138.879913 438.083529,140.971417 C434.79369,148.652395 431.022567,156.155691 428.203316,164.002576 C425.893155,170.431221 421.973369,174.655973 416.074973,177.947361 C406.578717,183.244624 406.700642,183.576439 399.270695,176.023906 C397.674973,174.400154 396.520963,173.481776 394.523102,175.489791 C383.488877,186.575617 372.380856,197.587587 361.298503,208.625247" id="Fill-8" fill="#FBFCF9" sketch:type="MSShapeGroup"></path>
                <path d="M253.809626,203.729373 C256.817112,207.274439 258.831016,210.251139 261.432086,212.56635 C264.961497,215.710028 264.839572,218.650336 263.136898,222.835484 C250.313369,254.346117 237.634225,285.917761 225.212834,317.58895 C221.659893,326.649636 217.937968,335.406336 210.073797,341.590936 C207.387166,343.702776 207.700535,345.761099 208.893048,348.523724 C210.245989,351.655628 212.576471,354.443943 211.163636,358.537039 C197.779679,397.286587 184.559358,436.092865 171.336898,474.898073 C170.739037,476.65348 170.13369,478.150928 168.286631,478.983676 C161.426738,482.077047 154.413904,484.697313 146.817112,484.991665 C132.792513,485.534343 125.129412,476.614947 127.990374,462.837139 C130.93369,448.660084 137.19893,435.524499 141.375401,421.727424 C144.104813,412.709554 148.256684,404.582232 154.997861,397.87315 C155.877005,396.998658 157.329412,396.162699 156.642781,394.021958 C134.183957,399.599658 111.770053,405.205187 89.3251337,410.686554 C86.8748663,411.284891 86.3957219,412.156173 87.6181818,414.272295 C90.7326203,419.660539 90.0385027,425.054136 88.1208556,430.735661 C85.2748663,439.163758 82.8449198,447.739565 80.4417112,456.30895 C78.5176471,463.170024 76.7390374,470.15205 77.4395722,477.341728 C78.8684492,492.021858 87.7165775,501.82431 99.884492,508.583699 C118.71016,519.044428 138.989305,519.911428 159.545455,515.246754 C183.954011,509.707587 205.159358,496.354717 227.767914,486.42275 C229.833155,485.515076 230.128342,484.408313 229.358289,482.255799 C226.879144,475.316587 227.435294,468.638547 229.966845,461.532358 C242.875936,425.291758 255.411765,388.917361 267.898396,352.52798 C270.35615,345.366132 273.056684,338.421569 278.751872,333.269876 C282.093048,330.248221 282.136898,327.089558 280.893048,323.283321 C279.957219,320.42115 279.425668,317.583599 280.535829,314.463469 C292.583957,280.59588 304.540107,246.69511 316.449198,212.778284 C317.253476,210.487691 318.64492,208.826476 320.252406,207.119236 C324.405348,202.706099 329.536898,199.218832 333.684492,193.508406 C306.807487,196.947506 280.897326,200.263513 253.809626,203.729373 M235.760428,197.078091 C275.112299,192.399502 313.270588,187.862202 351.365775,183.333465 C352.368984,185.115632 350.871658,185.724673 350.137968,186.531732 C344.503743,192.724895 339.073797,199.134273 333.075936,204.956017 C327.136898,210.722102 323.619251,217.544643 321.012834,225.296265 C311.71016,252.957847 302.186096,280.547713 292.413904,308.046599 C290.172193,314.354291 289.103743,320.341943 291.564706,326.651776 C292.975401,330.269628 292.15508,333.22385 289.301604,335.719954 C280.66631,343.273558 276.662032,353.310421 273.145455,363.947761 C262.409626,396.420658 251.505882,428.849669 239.86738,461.004665 C236.573262,470.104954 236.942246,477.836239 241.645989,485.775176 C243.059893,488.159961 243.396791,489.586765 240.234225,491.027484 C219.013904,500.687576 198.35615,511.707039 176.469519,519.746591 C149.564706,529.62825 122.361497,530.545558 96.197861,516.973261 C82.2053476,509.71508 72.2117647,498.514724 69.0192513,482.509476 C67.5411765,475.103584 68.115508,467.604569 70.2010695,460.285376 C72.8855615,450.871469 75.0385027,441.261684 78.4117647,432.102524 C81.2427807,424.418336 80.1026738,418.039999 75.7850267,411.478628 C71.9069519,405.58731 72.1433155,405.419261 79.1197861,403.698106 C109.535829,396.189458 139.951872,388.684021 170.371123,381.192499 C172.078075,380.771843 173.820321,380.493547 176.881283,379.881295 C174.099465,384.010784 172.172193,387.455236 169.700535,390.447991 C152.537968,411.230302 145.656684,436.639824 137.609626,461.520584 C136.91016,463.684873 136.628877,466.070728 136.619251,468.354899 C136.6,472.831187 139.047059,475.319799 143.526203,475.461087 C149.687701,475.654824 155.436364,473.557969 161.254545,471.926724 C163.320856,471.347654 163.519786,469.351413 164.084492,467.699832 C176.482353,431.445317 188.812834,395.167254 201.33262,358.954484 C202.925134,354.34975 200.039572,351.393387 198.28877,348.146954 C196.383957,344.613661 196.231016,342.082236 199.530481,339.453406 C213.570053,328.266965 217.760428,311.382943 224.253476,295.91288 C234.106952,272.434306 243.474866,248.752361 253.297326,225.262013 C254.91016,221.405469 254.629947,218.86441 251.770053,215.795658 C246.459893,210.097006 241.606417,203.972347 235.760428,197.078091" id="Fill-10" fill="#F79F08" sketch:type="MSShapeGroup"></path>
                <path d="M507.958182,474.885121 C510.182781,475.526273 511.831979,475.437432 513.54107,474.687103 C537.620214,464.121477 559.136791,449.837384 577.459786,430.859717 C579.350695,428.90201 579.38385,427.54264 577.349626,425.57744 C568.574225,417.097966 558.389198,411.213069 546.610588,408.021225 C543.258717,407.113551 541.704706,407.612343 540.768877,411.556658 C535.167807,435.141199 525.305775,456.624603 507.958182,474.885121 M364.475829,473.858636 C365.866203,476.204888 367.963529,476.425384 369.715401,477.085803 C398.173155,487.819477 427.56139,491.596814 457.846952,489.046121 C472.323957,487.826969 485.654439,484.642617 496.800963,474.12944 C515.507914,456.486525 526.233048,434.676658 532.439465,410.20371 C533.609519,405.588273 530.353904,406.723936 528.064064,406.997951 C514.418075,408.630266 501.78385,413.559321 489.838396,419.979403 C476.349626,427.22688 463.29615,435.284629 450.055508,442.993436 C428.919679,455.298414 407.346417,466.55764 383.105775,471.61514 C377.045882,472.879247 370.860856,473.152191 364.475829,473.858636 M625.838396,346.819588 C629.226631,344.86081 632.869412,343.82041 637.747487,343.332321 C617.070481,412.898903 574.395615,461.621091 506.754973,486.446191 C438.249091,511.588121 362.927166,495.281029 311.498289,452.125836 C314.420214,450.381132 317.149626,448.671751 320.65016,448.960751 C330.254439,456.47368 339.343209,464.147166 352.728235,465.086951 C376.681176,466.767432 398.442674,460.050858 419.507914,450.037543 C441.53893,439.56504 461.442674,425.257399 483.089733,414.051691 C498.484385,406.082784 514.113262,398.90274 531.810588,398.120299 C534.930374,397.982221 535.194545,396.065188 535.276898,393.877351 C535.532513,387.123314 535.689733,380.366066 535.885455,373.609888 C538.613797,372.926991 541.342139,372.244095 544.071551,371.562269 C544.506845,379.402732 544.692941,387.238914 543.69508,395.055829 C543.465134,396.85298 542.990267,398.609458 545.697219,399.063295 C560.314332,401.514443 572.119679,409.269277 582.685455,419.153077 C585.069412,421.382658 586.409519,420.986621 588.142139,418.644651 C591.424492,414.210106 595.081176,410.037803 598.178503,405.482306 C610.475829,387.396258 620.344278,368.132803 625.838396,346.819588" id="Fill-12" fill="#FBFCF9" sketch:type="MSShapeGroup"></path>
                <path d="M751.671016,274.880423 C730.41754,282.545346 708.014332,285.114234 684.860321,290.805394 C689.495615,283.503327 693.28492,277.516746 697.091337,271.541938 C701.566203,264.517097 705.309519,256.883216 712.92877,252.467938 C715.054973,251.235942 714.605775,249.503012 713.549091,247.913512 C711.342674,244.594294 712.225027,241.832738 714.237861,238.661231 C723.488128,224.083857 732.523422,209.371616 741.589733,194.678642 C742.675294,192.917883 744.280642,191.356212 744.326631,188.752001 C743.421818,188.695271 742.571551,188.48762 741.77369,188.613923 C710.518075,193.534416 679.268877,198.495583 648.012193,203.408583 C646.126631,203.705075 644.64,204.371916 643.654973,206.064171 C639.814332,212.664075 635.95123,219.251134 632.098824,225.845686 C631.976898,225.931316 631.835722,226.00089 631.740535,226.110068 C631.700963,226.155023 631.758717,226.285609 631.77262,226.37659 C631.850695,226.177501 631.927701,225.978412 632.004706,225.778253 C633.28385,226.486838 634.360856,225.693694 635.533048,225.361879 C652.607914,220.531297 670.144813,218.328475 687.696684,216.210212 L687.711658,216.228409 C688.352299,218.347742 686.562995,219.465209 685.648556,220.835283 C679.915936,229.422864 673.866738,237.803864 668.309519,246.500623 C664.680642,252.181079 660.539465,257.100501 654.297754,259.884534 C650.802567,261.445134 649.451765,263.811723 650.888128,267.488446 C652.112727,270.625701 651.078503,273.243827 649.511658,276.039634 C641.330909,290.633064 633.28385,305.30249 625.289198,319.999746 C624.436791,321.565697 622.185455,323.33716 623.739465,325.085075 C624.941604,326.439094 627.068877,324.874212 628.731979,324.410742 C664.846417,314.34819 700.854973,303.898164 737.311658,295.10186 C738.953369,294.705823 740.781176,294.599857 741.826096,292.708512 C745.085989,286.809701 749.313797,281.477116 752.06246,275.272179 C752.28492,275.048471 752.726631,274.664209 752.698824,274.625675 C752.194011,273.939568 751.904171,274.329183 751.671016,274.880423 L751.671016,274.880423 Z M771.10738,257.962149 C764.06246,272.740753 755.21754,286.529264 747.539465,300.959997 C746.789733,302.370746 745.425027,302.665097 744.01861,303.062205 C697.826096,316.118583 651.642139,329.209212 605.450695,342.268801 C604.81861,342.447553 604.093476,342.291279 602.711658,342.291279 C608.634652,331.818775 614.323422,321.791546 619.982246,311.74826 C626.715936,299.796505 633.258182,287.733431 640.24107,275.929386 C642.477433,272.148838 640.988663,268.906686 639.888128,265.781205 C637.834652,259.947686 638.654973,255.97126 644.966203,253.901164 C657.343743,249.84232 662.244278,238.871023 668.700963,228.021749 C658.591872,229.69902 649.097754,230.270597 640.005775,233.072827 C630.911658,235.875057 621.937326,239.070112 612.157647,242.344375 C613.910588,237.318986 616.627166,233.999768 618.752299,230.366931 C624.777968,220.065686 630.914866,209.829734 636.913797,199.512434 C638.450695,196.86969 640.344813,195.420409 643.52877,194.916264 C682.365134,188.766986 721.176898,182.467857 759.99615,176.210471 C760.671016,176.101294 761.352299,176.027438 762.102032,175.926823 C762.583316,178.162827 761.04107,179.381979 760.17369,180.785234 C748.289198,200.030494 736.432513,219.293949 724.35123,238.413975 C722.118075,241.946197 721.096684,244.938953 723.823957,248.534327 C726.092406,251.526012 725.713797,253.997497 722.139465,255.814986 C713.536257,260.192801 709.428235,268.334038 704.537326,277.161383 C718.190802,273.967397 731.381176,272.422853 743.88492,267.893046 C751.403636,265.170023 758.752299,261.98139 766.221818,259.116009 C767.789733,258.51446 769.277433,257.111205 771.210053,258.030653 L771.10738,257.962149 Z" id="Fill-14" fill="#F79F08" sketch:type="MSShapeGroup"></path>
                <path d="M535.885882,373.609888 C535.69016,380.366066 535.531872,387.123314 535.277326,393.877351 C535.193904,396.065188 534.930802,397.982221 531.811016,398.120299 C514.11262,398.90274 498.484813,406.082784 483.09016,414.051691 C461.443102,425.256329 441.538289,439.56504 419.507273,450.037543 C398.443102,460.050858 376.681604,466.767432 352.728663,465.086951 C339.342567,464.147166 330.254866,456.47368 320.650588,448.960751 C328.556471,443.734132 337.69123,441.289406 346.348984,437.799999 C349.412086,436.564791 351.44631,435.013825 352.651658,431.984677 C354.620642,427.036354 356.909412,422.215406 358.861283,417.260662 C360.362888,413.444791 362.123316,412.22564 365.772513,415.195917 C369.339358,418.099832 373.481604,420.296232 377.039893,423.20978 C380.173583,425.775458 383.062353,425.986321 386.799251,424.616247 C425.962888,410.26258 465.440963,396.811236 505.022781,383.661736 C515.29016,380.250466 525.597112,376.956936 535.885882,373.609888" id="Fill-16" fill="#2E5039" sketch:type="MSShapeGroup"></path>
                <path d="M625.838075,346.819588 C620.345027,368.132803 610.475508,387.396258 598.179251,405.482306 C595.080856,410.037803 591.424171,414.210106 588.141818,418.644651 C586.409198,420.986621 585.07016,421.382658 582.686203,419.153077 C572.119358,409.269277 560.314011,401.514443 545.696898,399.063295 C542.989947,398.609458 543.464813,396.85298 543.694759,395.055829 C544.69369,387.238914 544.506524,379.402732 544.07123,371.562269 C563.850909,365.43868 583.610267,359.244447 603.423102,353.226825 C610.856257,350.969414 618.13754,348.148988 625.838075,346.819588" id="Fill-18" fill="#2E5039" sketch:type="MSShapeGroup"></path>
                <path d="M361.298824,208.625354 C372.381176,197.587694 383.489198,186.575724 394.522353,175.489898 C396.521283,173.481883 397.674225,174.400261 399.271016,176.024013 C406.699893,183.576546 406.579037,183.243661 416.075294,177.946398 C421.97369,174.65608 425.893476,170.431328 428.202567,164.002683 C431.022888,156.154728 434.794011,148.652502 438.08385,140.971524 C438.979037,138.88002 439.77369,137.786102 441.557647,140.272572 C453.986524,157.592235 467.111658,174.442006 477.248556,193.307283 C473.968342,195.95645 469.837861,194.920331 466.143743,195.778769 C462.720214,196.574054 459.12984,196.698217 455.601497,196.970091 C452.879572,197.178813 452.194011,199.328117 451.375829,201.233376 C450.380107,203.548587 449.15123,204.717431 446.548021,203.459746 C433.736257,197.275146 420.687059,199.88685 407.535187,202.167809 C393.594011,204.585776 379.558717,206.463206 365.557647,208.52795 C364.162995,208.733461 362.719144,208.600735 361.298824,208.625354" id="Fill-20" fill="#2E5039" sketch:type="MSShapeGroup"></path>
                <path d="M485.277326,193.52018 C481.451658,184.279673 475.453797,176.292569 470.204599,167.898724 C467.498717,163.570147 466.356471,159.64938 467.238824,154.498758 C469.40139,141.872669 470.943636,129.139543 472.676257,116.441739 C472.875187,114.980684 473.237754,113.686606 474.163957,112.528465 C478.716898,106.829813 483.249519,101.114036 488.397112,95.5052948 C488.156471,102.422028 492.057005,109.456502 487.340428,116.060687 C485.684813,118.37911 486.509412,119.929006 487.892299,121.725087 C492.129733,127.225721 496.26984,132.80235 500.58,138.244113 C502.323316,140.445865 502.352193,141.983987 500.257005,144.116165 C494.769305,149.702428 489.720107,155.723261 484.161818,161.234599 C481.991765,163.387113 482.273048,164.893124 483.51262,167.184787 C489.652727,178.539276 489.608877,178.562824 499.436684,170.150784 C507.205668,163.498432 507.237754,163.460969 515.350053,170.135799 C522.082674,175.674965 528.727594,181.319028 535.412086,186.915995 C518.700856,189.116676 501.988556,191.318428 485.277326,193.52018" id="Fill-22" fill="#2E5039" sketch:type="MSShapeGroup"></path>
                <path d="M555.489305,81.5045293 C553.472193,81.5227256 553.27754,82.9859219 552.727807,83.9770848 C550.136364,88.6481811 547.54492,93.3235589 545.102139,98.0738626 C544.064706,100.093651 543.103209,100.78297 541.159893,99.0746589 C539.968449,98.0267663 538.481818,97.3203219 537.16738,96.4030144 C534.754545,94.7193219 530.258289,94.4720663 529.995187,91.8592922 C529.756684,89.4798589 532.863636,86.8199885 534.350267,84.2007922 C540.153476,73.9808959 546.004813,63.7856181 551.58984,53.4458404 C552.996257,50.8416293 553.991979,49.783033 556.450802,52.1271441 C557.338503,52.973807 558.538503,53.4843737 559.537433,54.2261404 C562.028342,56.07467 566.691444,56.1602996 567.052941,59.1220144 C567.338503,61.4661256 564.265775,64.2233996 562.676471,66.7933589 C557.563102,75.0630404 557.679679,74.8607404 566.005882,79.7298552 C569.65615,81.8652441 571.747059,81.6008626 573.184492,77.613733 C573.244385,77.4478256 573.337433,77.2904811 573.436898,77.14277 C575.918182,73.4489219 576.422995,66.834033 580.333155,66.2592441 C583.760963,65.7550996 587.818717,70.3737478 591.781283,72.3614256 C594.07754,73.5131441 593.465775,74.5406996 592.446524,76.01567 C584.421925,87.63347 578.184492,100.268122 571.749198,112.780751 C570.394118,115.417074 569.203743,115.755311 567.03369,113.856474 C565.972727,112.929533 564.681818,112.2552 563.45615,111.530559 C555.725668,106.961148 555.72139,106.96757 560.604813,99.0660959 C561.447594,97.7024441 562.532086,96.4340552 563.097861,94.9644367 C564.01123,92.5903552 567.763102,90.1616848 565.94385,88.2168219 C563.138503,85.2155033 558.881818,83.5724848 555.489305,81.5045293" id="Fill-24" fill="#FBFCF9" sketch:type="MSShapeGroup"></path>
                <path d="M334.261711,90.7594867 C334.256364,100.891613 326.532299,109.453505 315.151551,113.037105 C306.694866,115.700187 299.97615,113.320753 294.436043,105.179516 C289.125882,97.3743756 284.240321,89.2823756 278.995401,81.4322793 C277.643529,79.4103496 278.305561,78.6771459 280.102353,77.9075496 C281.244599,77.4183904 282.278824,76.6691311 283.430695,76.212083 C286.66492,74.9297793 289.17615,70.2554719 292.256364,71.52172 C294.693797,72.5235867 295.608235,77.0801533 297.349412,79.9680126 C300.75262,85.6099348 304.077754,91.3128681 307.77508,96.7589126 C311.815722,102.710172 316.135508,103.700264 321.345134,100.413157 C326.564385,97.118557 327.732299,92.5951719 324.231765,86.6267867 C319.73016,78.9511607 314.925882,71.443583 309.99861,64.0323385 C308.396471,61.6229348 307.761176,60.2186089 311.082032,59.0968607 C312.387914,58.6558681 313.602888,57.7524756 314.66385,56.8340978 C315.800749,55.8514978 316.634973,55.375183 317.53123,57.0160607 C322.81893,66.7007719 328.199679,76.3373163 333.348342,86.095883 C334.215722,87.7399719 334.10877,89.8999793 334.261711,90.7594867" id="Fill-26" fill="#FBFCF9" sketch:type="MSShapeGroup"></path>
                <path d="M340.626738,171.244595 C338.231016,165.018251 332.51016,161.534195 328.494118,156.644743 C322.986096,149.936732 322.720856,150.058754 327.826738,143.396769 C337.335829,130.989036 346.924064,118.640173 357.164706,105.380425 C357.530481,112.53264 358.095187,118.721521 358.070588,124.908262 C358.055615,128.733766 358.920856,131.905273 361.713369,134.49664 C364.634225,137.207888 364.903743,139.680443 362.285561,143.133458 C355.306952,152.336503 348.752941,161.861729 342.031016,171.25851 C341.562567,171.253158 341.094118,171.248877 340.626738,171.244595" id="Fill-28" fill="#2E5039" sketch:type="MSShapeGroup"></path>
                <path d="M481.874759,46.5602548 C479.814866,49.7820696 478.426631,51.9624141 477.02877,54.1363363 C472.757112,60.7769141 473.061925,61.2992548 481.071551,62.0645696 C483.398824,62.2872067 484.294011,61.9050844 483.763529,59.2955215 C483.000963,55.5502956 482.618075,51.7290733 481.874759,46.5602548 M503.382781,82.49794 C498.335722,81.5795622 493.684385,80.5070511 488.973155,79.9483178 C485.453369,79.5308733 485.669412,77.0047993 485.841604,74.8983104 C486.215936,70.3246178 484.148556,68.5499437 479.848021,68.2181289 C477.397754,68.0297437 474.985989,67.2344585 472.580642,66.6211363 C470.630909,66.1255548 468.860856,66.2529289 468.275829,68.443977 C466.408449,75.437777 461.732513,74.6339289 456.484385,72.6205622 C455.980642,71.5512622 457.105775,70.8737178 457.667273,70.1019807 C466.56139,57.8815622 475.042674,45.3828474 483.083316,32.5844289 C484.154973,30.8771881 484.884385,28.2183881 487.76139,29.9609511 C490.421283,31.5718585 495.269412,29.0596993 495.619144,35.2860437 C496.065134,43.2324733 497.811658,51.1146807 499.137861,59.0000993 C500.434118,66.7003437 501.907914,74.3716881 503.382781,82.49794" id="Fill-30" fill="#FBFCF9" sketch:type="MSShapeGroup"></path>
                <path d="M403.281711,74.5456233 C403.622888,77.0171085 401.99508,76.8094567 400.611123,77.087753 C397.137326,77.7845641 393.569412,78.2737233 390.26139,79.4650456 C387.508449,80.4572789 387.429305,79.2638159 387.098824,77.2022826 C385.302032,65.9805196 382.472086,54.9781826 380.027166,43.8923567 C379.135187,39.8463567 377.400428,39.5359493 374.212193,40.7465381 C373.053904,41.1864604 371.737326,41.2817233 370.66246,41.8522307 C367.256043,43.6579456 366.770481,41.6499307 365.931979,38.9247678 C364.982246,35.8335381 366.004706,35.0425344 368.807914,34.5801344 C379.84,32.7605048 390.765134,30.3778604 401.445348,27.0639937 C404.965134,25.9722159 404.924492,27.7254826 405.59508,30.2462048 C406.354439,33.0998122 406.338396,34.0192604 402.960856,34.5127011 C393.969412,35.8260456 393.923422,36.0807937 395.984385,44.8235789 C398.183316,54.1454344 400.554439,63.4266159 402.848556,72.7259937 C403.01861,73.4153122 403.177968,74.1078419 403.281711,74.5456233" id="Fill-32" fill="#FBFCF9" sketch:type="MSShapeGroup"></path>
                <path d="M565.749519,132.693173 C557.384813,144.772302 557.406203,144.756247 548.621176,133.601917 C545.655401,129.836354 542.428663,126.27095 539.555936,122.437954 C537.847914,120.158065 536.685348,120.448136 535.085348,122.435813 C532.859679,125.19951 530.460749,127.824058 528.144171,130.513899 C527.230802,131.573565 526.359144,133.17591 524.88,131.266369 C516.238289,120.102406 506.735615,109.586017 499.397647,97.4383837 C508.761283,99.153117 517.241497,103.306154 525.683209,107.378913 C539.980535,114.27745 553.344171,122.749432 565.749519,132.693173" id="Fill-34" fill="#F79F08" sketch:type="MSShapeGroup"></path>
                <path d="M346.492513,110.123878 C340.029412,120.161811 331.912834,128.953834 325.025134,138.668515 C323.128877,141.344441 321.964171,140.352208 320.263636,138.3945 C315.016578,132.35226 314.971658,132.43896 309.555615,138.678149 C301.982353,147.402737 294.362032,156.087723 286.762032,164.788763 C284.21016,165.551937 281.631551,166.1096 278.731016,165.853782 C278.802674,165.322878 278.704278,164.756652 278.941711,164.458019 C296.713904,142.054097 318.25508,124.182123 343.504278,110.783226 C344.435829,110.288715 345.354545,109.6968 346.492513,110.123878" id="Fill-36" fill="#F79F08" sketch:type="MSShapeGroup"></path>
                <path d="M395.707166,92.0646963 C389.752086,100.475667 383.768128,108.8663 377.864385,117.312593 C376.546738,119.196444 375.527487,119.06693 374.277219,117.33507 C370.543529,112.1609 365.925348,107.643937 362.872941,101.961341 C373.507166,97.632763 384.353155,94.0074185 395.707166,92.0646963" id="Fill-38" fill="#F79F08" sketch:type="MSShapeGroup"></path>
                <path d="M294.238182,163.783364 C300.836043,156.301476 307.433904,148.818516 314.031765,141.336627 C314.167594,148.446027 315.015722,155.133701 313.405027,161.676876 C307.015722,162.379039 300.627487,163.081201 294.238182,163.783364" id="Fill-40" fill="#2E5039" sketch:type="MSShapeGroup"></path>
                <path d="M606.733048,183.168735 C597.787594,171.407506 588.826096,159.65805 579.926631,147.862569 C579.210053,146.91315 578.924492,145.638339 578.437861,144.51445 C589.437861,154.612324 598.737326,166.140213 607.000428,178.541524 C608.088128,180.174909 608.589733,181.728017 606.733048,183.168735" id="Fill-42" fill="#F79F08" sketch:type="MSShapeGroup"></path>
                <path d="M483.044385,92.5979548 C474.145989,105.900518 474.140642,105.903729 465.231551,92.794903 C464.446524,91.6399733 463.795187,90.3940622 463.081818,89.1909659 C469.797326,89.9701956 476.486096,90.9014178 483.044385,92.5979548" id="Fill-44" fill="#F79F08" sketch:type="MSShapeGroup"></path>
                <path d="M578.560642,144.677896 C577.615187,144.434921 576.977754,143.91044 576.911444,142.86897 C577.818396,143.149407 578.355294,143.761659 578.560642,144.677896" id="Fill-46" fill="#F79F08" sketch:type="MSShapeGroup"></path>
                <path d="M771.21016,258.030332 C771.25615,257.846228 771.30107,257.661054 771.347059,257.47695 C771.370588,257.555087 771.437968,257.668547 771.409091,257.70601 C771.329947,257.807695 771.209091,257.878339 771.106417,257.961828 C771.107487,257.961828 771.21016,258.030332 771.21016,258.030332" id="Fill-48" fill="#F79F08" sketch:type="MSShapeGroup"></path>
                <path d="M347.351658,109.202182 C347.039358,109.540419 346.728128,109.878656 346.415829,110.216893 C346.151658,109.346682 346.750588,109.273897 347.351658,109.202182" id="Fill-50" fill="#F79F08" sketch:type="MSShapeGroup"></path>
                <path d="M499.473369,97.4732778 C498.665882,97.9121296 498.478717,97.3116519 498.266952,96.7518481 C498.669091,96.9926815 499.07123,97.2324444 499.473369,97.4732778" id="Fill-52" fill="#F79F08" sketch:type="MSShapeGroup"></path>
                <path d="M262.994545,456.980608 C262.972086,457.194682 262.950695,457.408756 262.928235,457.62283 C262.875829,457.5372 262.758182,457.408756 262.781711,457.372363 C262.864064,457.244989 262.994545,457.149726 263.105775,457.040549 C263.103636,457.040549 262.994545,456.980608 262.994545,456.980608" id="Fill-54" fill="#F79F08" sketch:type="MSShapeGroup"></path>
                <path d="M358.063316,363.169923 C371.371337,358.908779 383.34139,354.988012 395.380963,351.293094 C397.968128,350.498879 398.650481,348.967179 398.773476,346.634842 C400.12107,321.091523 401.490053,295.549275 402.85369,270.007027 C402.610909,269.89892 402.367059,269.790812 402.124278,269.682705 C387.619465,300.457994 373.114652,331.233283 358.063316,363.169923 M279.419465,441.286623 C286.54139,424.640223 293.255829,408.932538 299.982032,393.230205 C307.834439,374.897971 315.638717,356.54326 323.607701,338.261334 C325.033369,334.989212 325.685775,331.908686 324.49754,328.47922 C322.995936,324.143149 323.870802,320.588449 327.922139,317.933931 C333.317861,314.398497 336.441925,309.084109 339.283636,303.428271 C343.917861,294.20596 348.524278,284.922638 353.912513,276.138109 C358.543529,268.590927 360.824813,261.038394 358.082567,252.452953 C356.883636,248.700234 358.133904,247.673749 361.899679,247.105383 C390.571337,242.777875 419.203422,238.178494 447.855829,233.715049 C449.325348,233.48706 451.11893,232.564401 452.259037,234.056497 C452.632299,234.544586 452.03016,236.158705 451.448342,236.940075 C440.707166,251.361175 444.989519,268.02256 444.376684,283.947531 C444.176684,289.135616 445.466524,293.754264 449.598075,297.249023 C451.628021,298.965897 451.14246,300.59072 449.344599,302.073183 C443.67508,306.749631 443.18631,313.199683 442.868663,319.893779 C442.023743,337.689757 440.930695,355.47396 439.968128,373.265657 C439.872941,375.029627 439.34246,377.188564 440.123209,378.508331 C443.326417,383.921194 440.394866,385.087897 435.80877,386.459042 C423.87615,390.025516 412.090053,394.087571 400.238717,397.931271 C394.241925,399.876134 394.311444,399.867571 395.207701,393.826401 C396.174545,387.307846 396.960642,380.763601 397.866524,374.235412 C398.284706,371.221249 398.117861,369.387705 394.111444,370.741723 C380.295401,375.410679 366.413048,379.884827 352.522139,384.326864 C350.168128,385.079334 349.240856,386.630301 348.461176,388.776394 C345.237647,397.645483 341.855829,406.456771 338.530695,415.289468 C337.706096,417.481586 336.755294,419.336538 334.233369,420.322349 C316.970267,427.062471 299.771337,433.96422 282.54246,440.789971 C281.940321,441.027594 281.235508,441.008327 279.419465,441.286623" id="Fill-56" fill="#FBFCF9" sketch:type="MSShapeGroup"></path>
                <path d="M472.337112,372.803471 C481.693262,354.654271 490.496471,337.574371 499.305027,320.497682 C501.834439,315.592174 504.184171,310.57856 506.979893,305.829326 C509.34139,301.817578 510.792727,297.879686 509.267594,293.223574 C508.40877,290.603308 509.49754,288.754778 511.990588,287.687619 C518.78738,284.779423 522.449412,279.089334 525.769198,272.834089 C531.348877,262.321982 537.332834,252.023949 543.923209,240.249874 C521.975615,244.213456 500.877219,245.588882 479.393797,251.925474 C484.488984,243.199815 489.039786,235.424645 493.567059,227.63556 C494.537112,225.964711 496.175615,226.053552 497.756364,225.825563 C528.916791,221.326797 560.074011,216.805552 591.235508,212.316419 C592.379893,212.151582 593.881497,211.392689 594.617326,212.697471 C595.280428,213.873808 594.161711,215.051215 593.629091,216.142993 C585.437647,232.958511 577.313583,249.808282 568.940321,266.533889 C567.331765,269.747141 566.837647,272.40166 569.232299,275.239211 C571.36385,277.766356 571.371337,279.822537 568.112513,281.504089 C561.709305,284.807252 558.578824,290.570126 556.041925,297.062993 C551.846203,307.799878 547.11893,318.328041 541.957433,330.498152 C563.144599,323.956049 583.594866,320.309297 603.091123,311.433786 C602.413048,315.658537 599.375615,318.356941 598.028021,321.798182 C593.49754,333.367815 584.822674,338.652234 572.955294,342.012126 C540.455829,351.215171 508.336043,361.76153 476.063316,371.771634 C475.251551,372.023171 474.423743,372.227611 472.337112,372.803471" id="Fill-58" fill="#FBFCF9" sketch:type="MSShapeGroup"></path>
                <path d="M524.635829,253.140559 C525.072193,253.151263 525.507487,253.160896 525.94385,253.1716 C525.734225,253.397448 525.523529,253.623296 525.313904,253.850214 C525.075401,253.625437 524.849733,253.388885 524.635829,253.140559" id="Fill-60" fill="#062444" sketch:type="MSShapeGroup"></path>
                <path d="M430.886524,53.9309322 C428.949626,69.6707285 427.09615,85.1825359 425.110053,100.678288 C424.115401,108.442754 422.995615,116.196517 421.697219,123.914958 C421.150695,127.163532 423.479037,128.788354 424.932513,130.869154 C429.34,137.183269 429.421283,137.15544 423.522888,141.684177 C417.166738,146.565066 410.679037,151.282188 404.456578,156.326843 C402.012727,158.308099 400.708984,158.562847 398.594545,155.808784 C392.086524,147.334662 385.275829,139.09281 378.523957,130.808143 C377.18492,129.164054 376.421283,127.974873 378.020214,125.783825 C395.235187,102.201425 412.314332,78.5205507 429.452299,54.8824915 C429.728235,54.50251 430.279037,54.3237581 430.886524,53.9309322" id="Fill-62" fill="#2E5039" sketch:type="MSShapeGroup"></path>
                <path d="M547.117754,184.453501 C540.012941,178.654234 532.886738,172.881727 525.823636,167.032153 C524.411872,165.863308 525.418289,164.431153 525.817219,163.09426 C526.985134,159.173493 527.939144,155.181012 529.288877,151.325538 C530.356257,148.276053 530.843957,145.520919 528.272834,142.998056 C526.68246,141.438527 526.979786,139.94429 528.363743,138.341945 C531.135936,135.135116 533.804385,131.838375 537.278182,127.66179 C541.657861,146.945582 544.897433,165.327053 547.117754,184.453501" id="Fill-64" fill="#2E5039" sketch:type="MSShapeGroup"></path>
                <path d="M568.047166,139.472899 C566.932727,148.512176 568.186203,155.66011 573.678182,161.762291 C575.864278,164.192032 572.839679,165.916399 571.414011,167.383876 C569.667487,169.178887 568.691016,167.10665 567.700642,165.993465 C566.761604,164.93701 565.938075,163.777799 565.024706,162.697795 C555.190481,151.079995 555.202246,150.909806 568.047166,139.472899" id="Fill-66" fill="#2E5039" sketch:type="MSShapeGroup"></path>
                <path d="M253.809626,203.729373 C280.897326,200.263513 306.807487,196.947506 333.684492,193.508406 C329.536898,199.218832 324.405348,202.706099 320.252406,207.119236 C318.64492,208.826476 317.253476,210.487691 316.449198,212.778284 C304.540107,246.69511 292.583957,280.59588 280.535829,314.463469 C279.425668,317.583599 279.957219,320.42115 280.893048,323.283321 C282.136898,327.089558 282.093048,330.248221 278.751872,333.269876 C273.056684,338.421569 270.35615,345.366132 267.898396,352.52798 C255.411765,388.917361 242.875936,425.291758 229.966845,461.532358 C227.435294,468.638547 226.879144,475.316587 229.358289,482.255799 C230.128342,484.408313 229.833155,485.515076 227.767914,486.42275 C205.159358,496.354717 183.954011,509.707587 159.545455,515.246754 C138.989305,519.911428 118.71016,519.044428 99.884492,508.583699 C87.7165775,501.82431 78.8684492,492.021858 77.4395722,477.341728 C76.7390374,470.15205 78.5176471,463.170024 80.4417112,456.30895 C82.8449198,447.739565 85.2748663,439.163758 88.1208556,430.735661 C90.0385027,425.054136 90.7326203,419.660539 87.6181818,414.272295 C86.3957219,412.156173 86.8748663,411.284891 89.3251337,410.686554 C111.770053,405.205187 134.183957,399.599658 156.642781,394.021958 C157.329412,396.162699 155.877005,396.998658 154.997861,397.87315 C148.256684,404.582232 144.104813,412.709554 141.375401,421.727424 C137.19893,435.524499 130.93369,448.660084 127.990374,462.837139 C125.129412,476.614947 132.792513,485.534343 146.817112,484.991665 C154.413904,484.697313 161.426738,482.077047 168.286631,478.983676 C170.13369,478.150928 170.739037,476.65348 171.336898,474.898073 C184.559358,436.092865 197.779679,397.286587 211.163636,358.537039 C212.576471,354.443943 210.245989,351.655628 208.893048,348.523724 C207.700535,345.761099 207.387166,343.702776 210.073797,341.590936 C217.937968,335.406336 221.659893,326.649636 225.212834,317.58895 C237.634225,285.917761 250.313369,254.346117 263.136898,222.835484 C264.839572,218.650336 264.961497,215.710028 261.432086,212.56635 C258.831016,210.251139 256.817112,207.274439 253.809626,203.729373" id="Fill-68" fill="#FBFCF9" sketch:type="MSShapeGroup"></path>
                <path d="M364.475508,473.85885 C370.861604,473.151335 377.045561,472.879461 383.105455,471.615354 C407.346096,466.557854 428.919358,455.298628 450.055187,442.99365 C463.295829,435.284843 476.349305,427.227094 489.838075,419.978546 C501.784599,413.559535 514.418824,408.63048 528.063743,406.998165 C530.353583,406.72415 533.610267,405.588487 532.439144,410.203924 C526.232727,434.675802 515.507594,456.486739 496.800642,474.129654 C485.655187,484.642831 472.323636,487.826113 457.847701,489.045265 C427.56107,491.597028 398.172834,487.81862 369.71615,477.086017 C367.964278,476.425598 365.865882,476.204031 364.475508,473.85885" id="Fill-70" fill="#2E5039" sketch:type="MSShapeGroup"></path>
                <path d="M507.958182,474.885121 C525.305775,456.624603 535.167807,435.141199 540.768877,411.556658 C541.704706,407.612343 543.258717,407.113551 546.610588,408.021225 C558.389198,411.213069 568.574225,417.097966 577.349626,425.57744 C579.38385,427.54264 579.350695,428.90201 577.459786,430.859717 C559.136791,449.837384 537.620214,464.121477 513.54107,474.687103 C511.831979,475.437432 510.182781,475.526273 507.958182,474.885121" id="Fill-72" fill="#2E5039" sketch:type="MSShapeGroup"></path>
                <path d="M632.096898,225.843331 C635.951444,219.25092 639.814545,212.663861 643.655187,206.063957 C644.640214,204.371702 646.126845,203.705931 648.012406,203.409439 C679.269091,198.495369 710.518289,193.534202 741.772834,188.613709 C742.571765,188.488476 743.422032,188.695057 744.326845,188.751787 C744.279786,191.355998 742.675508,192.918739 741.589947,194.678428 C732.523636,209.371402 723.487273,224.084713 714.238075,238.661017 C712.225241,241.832524 711.342888,244.59408 713.549305,247.913298 C714.60492,249.502798 715.055187,251.235728 712.928984,252.467724 C705.308663,256.883002 701.566417,264.516883 697.091551,271.541724 C693.285134,277.516531 689.495829,283.503113 684.860535,290.80518 C708.013476,285.11402 730.417754,282.545131 751.67123,274.880209 C751.801711,275.012935 751.933262,275.144591 752.065882,275.276246 C749.312941,281.476902 745.086203,286.809487 741.82631,292.708298 C740.78139,294.599643 738.953583,294.705609 737.311872,295.101646 C700.855187,303.89795 664.845561,314.347976 628.732193,324.411598 C627.069091,324.873998 624.941818,326.43888 623.73861,325.084861 C622.184599,323.336946 624.437005,321.565483 625.289412,319.999531 C633.282995,305.302276 641.331123,290.63392 649.510802,276.03942 C651.077647,273.244683 652.112941,270.625487 650.887273,267.489302 C649.451979,263.811509 650.801711,261.44492 654.297968,259.885391 C660.539679,257.100287 664.679786,252.180865 668.309733,246.500409 C673.866952,237.80365 679.91615,229.42265 685.64877,220.835069 C686.563209,219.464994 688.352513,218.347528 687.711872,216.228194 C687.928984,216.161831 688.146096,216.096539 688.363209,216.030176 C688.304385,215.901731 688.245561,215.772217 688.185668,215.642702 L687.696898,216.209998 C670.145027,218.328261 652.608128,220.531083 635.533262,225.361665 C634.36107,225.69348 633.284064,226.487694 632.00492,225.778039 L632.096898,225.843331 Z" id="Fill-74" fill="#FBFCF9" sketch:type="MSShapeGroup"></path>
                <path d="M751.671016,274.880423 C751.904171,274.329183 752.194011,273.939568 752.698824,274.625675 C752.726631,274.664209 752.28492,275.048471 752.064599,275.27432 C751.934118,275.144805 751.801497,275.013149 751.671016,274.880423" id="Fill-76" fill="#FBFCF9" sketch:type="MSShapeGroup"></path>
                <path d="M632.004385,225.77836 C631.92738,225.977449 631.850374,226.177608 631.773369,226.376697 C631.759465,226.285716 631.700642,226.15513 631.740214,226.110175 C631.835401,226.000997 631.976578,225.931423 632.098503,225.844723 C632.096364,225.843653 632.004385,225.77836 632.004385,225.77836" id="Fill-78" fill="#FBFCF9" sketch:type="MSShapeGroup"></path>
                <path d="M481.874759,46.5602548 C482.618075,51.7290733 483.000963,55.5502956 483.763529,59.2955215 C484.294011,61.9050844 483.398824,62.2872067 481.071551,62.0645696 C473.061925,61.2992548 472.757112,60.7769141 477.02877,54.1363363 C478.426631,51.9624141 479.814866,49.7820696 481.874759,46.5602548" id="Fill-80" fill="#062444" sketch:type="MSShapeGroup"></path>
                <path d="M373.858824,348.708042 C379.648128,346.810276 384.11016,345.301053 388.605348,343.902079 C390.031016,343.457876 390.548663,342.572679 390.642781,341.201535 C391.341176,330.940964 392.056684,320.680394 392.767914,310.419824 C392.379679,310.356672 391.992513,310.29245 391.605348,310.228227 C385.921925,322.552472 380.238503,334.875646 373.858824,348.708042 M358.063102,363.169816 C373.115508,331.233176 387.619251,300.457887 402.124064,269.682598 C402.366845,269.790705 402.610695,269.898813 402.853476,270.00692 C401.48984,295.549168 400.120856,321.091416 398.773262,346.634735 C398.650267,348.967072 397.968984,350.498772 395.380749,351.292987 C383.341176,354.987905 371.371123,358.908672 358.063102,363.169816" id="Fill-82" fill="#F79F08" sketch:type="MSShapeGroup"></path>
                <path d="M687.696578,216.210212 L688.186417,215.642916 C688.245241,215.772431 688.304064,215.900875 688.363957,216.03039 C688.145775,216.096753 687.928663,216.162046 687.711551,216.227338 C687.711551,216.228409 687.696578,216.210212 687.696578,216.210212" id="Fill-84" fill="#F79F08" sketch:type="MSShapeGroup"></path>
                <path d="M373.858824,348.708042 C380.238503,334.875646 385.921925,322.552472 391.605348,310.228227 C391.992513,310.29245 392.379679,310.356672 392.767914,310.419824 C392.056684,320.680394 391.341176,330.940964 390.642781,341.201535 C390.548663,342.572679 390.031016,343.457876 388.605348,343.902079 C384.11016,345.301053 379.648128,346.810276 373.858824,348.708042" id="Fill-86" fill="#062444" sketch:type="MSShapeGroup"></path>
            </g>
        </g>
    </g>
</svg>