<?xml version="1.0" encoding="UTF-8" standalone="no"?>
<svg width="800px" height="800px" viewBox="0 0 800 800" version="1.1" xmlns="http://www.w3.org/2000/svg" xmlns:xlink="http://www.w3.org/1999/xlink" xmlns:sketch="http://www.bohemiancoding.com/sketch/ns">
    <!-- Generator: Sketch 3.4.4 (17249) - http://www.bohemiancoding.com/sketch -->
    <title>knicks</title>
    <desc>Created with Sketch.</desc>
    <defs>
        <path id="path-1" d="M0,1.13612545 L799.329985,1.13612545 L799.329985,659 L0,659"></path>
        <path id="path-3" d="M0,1.13612545 L799.329985,1.13612545 L799.329985,659 L0,659"></path>
    </defs>
    <g id="Page-1" stroke="none" stroke-width="1" fill="none" fill-rule="evenodd" sketch:type="MSPage">
        <g id="knicks" sketch:type="MSArtboardGroup">
            <g id="Page-1" sketch:type="MSLayerGroup" transform="translate(0.000000, 71.000000)">
                <g id="Group-3">
                    <mask id="mask-2" sketch:name="Clip 2" fill="white">
                        <use xlink:href="#path-1"></use>
                    </mask>
                    <g id="Clip-2"></g>
                    <path d="M397.086558,235.361496 C397.036928,235.652023 396.912851,236.03703 396.912851,236.420856 C396.922304,242.112112 396.958936,247.803368 396.964845,253.494625 C396.97548,262.837544 396.967208,262.896594 406.541211,263.082012 C408.335007,263.116261 411.409749,264.244119 411.706352,261.883293 C412.29483,257.206519 414.076809,251.917985 410.34387,247.848247 C406.282422,243.420664 401.599409,239.562325 397.086558,235.361496 M353.699852,282.507159 C364.461448,289.662859 373.946824,295.538352 386.233973,286.83908 C392.882127,282.130419 401.17873,279.748334 408.732053,276.316338 C390.179616,275.196747 372.067947,275.996286 353.699852,282.507159 M361.41034,252.585252 C357.585229,252.910028 352.898671,253.290311 348.215657,253.710748 C332.529985,255.114962 332.578434,255.111419 335.73353,270.685313 C336.346824,273.715768 337.112555,275.08337 340.622157,273.655537 C350.267061,269.729881 360.306647,267.056089 370.618021,265.557395 C374.521123,264.989333 375.588183,263.154053 375.370753,259.26737 C375.071787,253.92451 373.255539,251.354646 367.57164,252.530926 C365.879468,252.880503 364.052585,252.585252 361.41034,252.585252 M374.764549,604.121598 C382.939439,614.671503 390.008272,623.761687 397.033383,632.88494 C398.505761,634.795804 399.776071,634.739116 401.211817,632.882578 C408.251108,623.773497 415.314032,614.684494 423.257312,604.442831 C406.765731,606.528483 391.746529,606.253309 374.764549,604.121598 M429.407976,252.510849 C428.412999,252.510849 425.854653,252.55927 423.298671,252.496677 C420.851403,252.435265 417.693944,251.32394 418.226883,255.691291 C418.618021,258.895354 415.876514,263.540241 422.144165,264.258291 C439.262038,266.219938 455.662629,270.836481 471.335303,277.991001 C474.01418,279.214521 475.709897,279.337345 476.083309,275.653795 C476.597341,270.579023 477.436337,265.536137 478.216248,260.492071 C478.614476,257.912759 478.057903,256.605388 475.039882,256.274707 C460.381093,254.670904 445.699852,253.400144 429.407976,252.510849 M366.073264,297.135069 C358.626292,293.419632 352.096307,290.243913 345.65613,286.894587 C343.843427,285.952146 342.361595,286.22732 340.649335,286.959542 C329.045199,291.915033 317.706942,297.368908 307.555096,304.958037 C305.633678,306.395318 302.987888,307.321225 302.300148,310.320974 C313.944461,311.819668 325.455244,313.196718 336.64579,316.365351 C338.384047,316.857829 340.011226,316.896802 341.575775,315.473693 C348.84904,308.857711 356.756869,303.044811 366.073264,297.135069 M554.363959,357.50561 C563.279764,375.723772 568.448449,393.601804 571.449926,413.80287 C582.054357,400.086695 591.50901,387.824334 601.015657,375.60449 C602.19616,374.086901 601.851108,373.288542 600.25938,372.530338 C586.055539,365.757282 571.267947,360.81242 554.363959,357.50561 M282.369867,309.644259 C292.060857,300.944987 301.288626,293.632213 311.500739,287.672868 C313.962186,286.236768 314.583752,284.405032 313.991728,281.780842 C312.438996,274.892048 310.879173,268.002073 309.507238,261.075487 C308.970753,258.367446 307.889513,257.579716 305.067651,258.082824 C294.440768,259.979515 283.771344,261.641187 273.10901,263.331204 C270.796455,263.697315 268.590251,264.011462 269.553323,267.214343 C273.728213,281.094678 277.932644,294.966747 282.369867,309.644259 M486.545938,282.841383 C486.046086,285.314404 487.702806,286.332429 489.45288,287.409505 C499.01743,293.296808 508.095126,299.856101 516.293648,307.551521 C518.68774,309.79779 519.971049,310.011551 521.019202,306.435472 C524.664697,294.001867 528.404727,281.594243 532.296012,269.235041 C533.267356,266.15144 531.750074,265.305842 529.377253,264.878318 C517.976366,262.822191 506.564845,260.823933 495.15805,258.79615 C492.899852,258.394609 491.440473,258.93787 490.942984,261.507734 C489.563959,268.635091 488.023043,275.731741 486.545938,282.841383 M256.662334,365.753739 C259.225406,366.857978 260.364549,364.888064 261.764845,363.661001 C275.348301,351.765933 290.555391,344.633852 309.166913,347.447003 C310.794092,347.692652 312.206204,347.710367 313.320532,346.130184 C319.155687,337.857254 325.745938,330.185454 333.270901,322.525465 C319.984047,317.78846 307.0387,317.582965 294.118168,317.249922 C291.699261,317.18851 290.359232,319.122994 288.824225,320.607515 C275.327031,333.661148 264.795864,348.813424 256.662334,365.753739 M31.850517,158.371872 C32.2806499,159.657985 32.3302806,160.265021 32.6410635,160.671286 C45.3311669,177.18644 58.1016248,193.640182 70.7054653,210.221472 C73.2602659,213.582609 74.1358936,211.942195 75.301034,209.365245 C82.4242245,193.615381 89.5474151,177.866698 96.7556869,162.155808 C97.9657312,159.518627 97.9255539,158.314003 94.5022157,158.328175 C73.8534712,158.415569 53.2047267,158.371872 31.850517,158.371872 M769.828656,158.365967 C749.97164,158.365967 731.702806,158.939935 713.494239,158.128585 C704.160118,157.711691 698.729099,160.184713 695.331758,169.192227 C693.5226,173.990644 693.516691,176.092831 697.917282,179.006367 C707.392024,185.278677 717.810931,190.254245 721.940916,202.729186 C725.685672,214.037295 726.758641,213.74913 734.191433,204.244413 C745.793205,189.407465 757.303988,174.500838 769.828656,158.365967 M84.7320532,328.548584 C84.0100443,328.904066 83.1166913,329.304426 82.2611521,329.773284 C75.0233383,333.744999 67.8446086,337.830091 60.5335303,341.661266 C57.5367799,343.232001 57.5225997,344.455521 59.8446086,346.764383 C77.1397341,363.963338 94.3651403,381.233153 111.538552,398.554933 C113.541507,400.574449 115.232496,400.933474 117.697489,399.399351 C122.704284,396.286225 127.815066,393.330173 132.973117,390.470963 C135.882422,388.858894 136.384638,387.420431 134.023634,384.667512 C118.660561,366.763497 103.445199,348.733116 88.1565731,330.766508 C87.304579,329.766198 86.5967504,328.412768 84.7320532,328.548584 M382.825997,295.701331 C383.674446,297.325211 384.919941,297.352374 386.044904,297.648806 C399.546824,301.197722 413.300443,303.501859 427.026883,305.947718 C460.912851,311.986189 495.018612,317.406996 523.449926,339.242571 C524.357459,339.939363 525.465879,340.921958 526.509306,339.771661 C527.441654,338.744187 526.661743,337.559641 525.984638,336.601847 C525.191728,335.479894 524.342097,334.394551 523.45938,333.343458 C499.342393,304.606098 468.828951,286.532019 432.167208,278.771644 C430.113442,278.337035 428.071492,277.604813 425.802659,278.292157 C410.945347,282.794143 396.84904,289.100702 382.825997,295.701331 M236.609158,271.240385 C223.474742,274.481058 210.405318,277.967381 197.569867,282.288673 C195.461743,282.998456 196.451994,284.376687 196.964845,285.604931 C205.510783,306.071723 214.881536,326.154689 224.911669,345.935318 C226.002363,348.084745 227.206499,348.612653 229.581684,347.775322 C238.45613,344.645662 247.504284,341.984861 256.28774,338.627268 C259.72644,337.31163 262.901625,334.579969 261.197637,330.017752 C254.264697,311.463005 247.198227,292.957859 240.183752,274.432637 C239.552733,272.766241 239.069424,270.943953 236.609158,271.240385 M605.315805,286.130478 C605.110192,283.734222 602.950074,283.912553 601.45997,283.481487 C589.751846,280.094368 577.97164,276.950537 566.314328,273.40044 C562.369867,272.199359 560.781684,273.264625 559.387297,277.002501 C553.617134,292.479553 547.785524,307.944795 541.43161,323.188008 C539.007976,329.002089 538.517578,333.59265 543.058789,338.603648 C545.146824,340.906605 547.002068,342.72417 550.033087,343.393799 C556.558346,344.835804 563.111965,346.197501 569.54387,347.985541 C573.006204,348.949239 574.464402,347.659584 575.903693,344.764944 C585.190547,326.099182 594.625111,307.505462 604.007681,288.88694 C604.449631,288.010635 604.850222,287.113073 605.315805,286.130478 M206.660561,353.085114 C206.454948,352.683573 206.125258,351.972609 205.738848,351.293532 C194.831905,332.158911 183.878877,313.050273 173.057016,293.867232 C171.666174,291.402478 170.116987,291.188716 167.755982,292.043763 C154.249335,296.93548 140.949483,302.332666 127.794978,308.098325 C125.683309,309.024232 124.466174,309.86865 126.246972,312.378282 C139.792614,331.469205 153.253176,350.620359 166.706647,369.776238 C167.846972,371.400118 168.756869,372.181942 170.984343,371.159193 C182.063811,366.073791 193.253176,361.228134 204.383456,356.253747 C205.561595,355.727019 207.14387,355.350279 206.660561,353.085114 M291.427474,550.322161 C291.533826,549.318308 291.785524,548.677023 291.620089,548.173915 C291.069424,546.505157 290.382866,544.880096 289.722304,543.250311 C264.929394,482.122747 268.551256,422.727714 300.459084,364.991992 C302.291876,361.674553 307.166322,357.44656 305.038109,355.122345 C302.661743,352.526499 296.905761,354.188171 292.641064,355.039675 C277.545052,358.050053 266.491581,367.299673 256.756869,378.458976 C251.735894,384.215187 247.1226,389.993838 245.40325,398.03411 C240.125849,422.71118 240.04904,447.263064 245.927917,471.732277 C253.264993,502.262401 267.771344,528.761759 291.427474,550.322161 M377.18582,161.698759 C377.17164,161.698759 377.158641,161.697578 377.144461,161.697578 C378.128804,135.194677 379.02452,108.689413 380.186115,82.1947789 C380.37873,77.8073505 379.355391,76.3122 374.772821,76.7763344 C367.349483,77.5262717 359.867061,77.8486857 352.403545,77.97151 C348.846677,78.0305602 347.598818,79.3568272 347.410931,82.7864616 C346.991433,90.4358219 346.324963,98.073372 345.64904,105.706198 C341.547415,152.084209 337.439882,198.463401 333.240177,244.833144 C332.918759,248.38206 333.601773,249.749662 337.554505,249.404809 C348.125849,248.481265 358.726736,247.771481 369.329985,247.392379 C373.467061,247.244754 374.395864,245.73425 374.504579,241.818042 C375.246677,215.107284 376.260561,188.404793 377.18582,161.698759 M398.202068,161.316114 C398.202068,181.578592 398.189069,201.842252 398.21034,222.10473 C398.216248,227.688515 415.329394,246.774714 420.800591,247.07587 C439.067061,248.079723 457.344165,248.93477 475.490103,251.411334 C478.65229,251.843582 479.050517,250.647225 478.70901,247.842342 C477.547415,238.282118 476.444904,228.707722 475.70517,219.108524 C475.370753,214.770698 473.509601,213.706614 469.405613,213.640478 C460.559527,213.496395 451.72644,212.694494 442.882718,212.274057 C439.470015,212.112259 437.750665,211.070614 437.548597,207.130786 C435.917873,175.320454 434.113442,143.517209 432.181388,111.72223 C431.940325,107.759963 433.428065,107.112773 436.853767,107.364327 C444.30901,107.911132 451.791433,108.076472 459.24904,108.584304 C462.44195,108.801609 463.439291,107.69737 462.979616,104.551177 C462.01418,97.9399186 461.091285,91.3121265 460.518168,84.6583523 C460.158936,80.4811427 458.432496,78.9989832 454.198523,79.0603953 C448.906942,79.1359796 443.406204,79.1796767 438.341507,77.8852968 C422.419498,73.8167394 410.820089,79.5434258 401.448154,92.1955172 C399.465288,94.8716713 398.121713,97.1262072 398.142984,100.527497 C398.272969,120.789976 398.206795,141.052454 398.202068,161.316114 M631.03161,293.763304 C628.192024,293.502302 627.695716,295.787544 626.80709,297.377175 C616.648154,315.549277 606.638109,333.80523 596.376366,351.919463 C594.392319,355.421139 594.349778,356.89267 598.530576,358.650003 C626.658198,370.469487 653.584047,384.661607 679.405022,400.899225 C683.009158,403.166752 685.303988,403.384057 688.433087,400.070161 C704.62452,382.931437 720.994387,365.961596 737.428065,349.053168 C740.208567,346.191596 739.646086,344.904302 736.420089,343.059575 C703.611817,324.301695 669.652585,308.006207 634.198523,294.866361 C633.09483,294.457734 631.975775,294.091623 631.03161,293.763304 M515.457016,163.025026 C514.726736,159.47611 514.265879,157.368019 513.85938,155.249299 C509.638405,133.251926 505.338257,111.269906 501.29808,89.2394652 C500.651699,85.7118075 499.34003,84.216657 495.729985,83.9202251 C489.070015,83.3734204 482.407681,82.5986821 475.825702,81.4590136 C470.755096,80.581528 470.041359,82.1463577 470.706647,86.9672143 C474.683013,115.788426 478.323781,144.655696 482.041359,173.511157 C485.282718,198.668895 488.502806,223.827815 491.660266,248.996182 C492.051403,252.109308 493.045199,253.625716 496.619793,254.121738 C507.132053,255.581458 517.580502,257.545467 528.004136,259.566164 C532.018316,260.344446 533.257903,259.697256 532.350369,255.286207 C529.264993,240.270928 526.532939,225.183607 523.669719,210.122268 C522.846086,205.791528 528.486263,193.959053 532.368095,191.948985 C532.821861,191.713965 533.692762,191.486032 533.912555,191.70806 C539.154505,197.000137 547.455835,199.337343 549.29808,207.927963 C553.212999,226.183917 557.288626,244.40444 561.209453,262.659213 C561.841654,265.603454 562.932349,267.367874 566.229247,268.220558 C577.647858,271.173067 588.950665,274.568453 600.30192,277.780782 C601.770753,278.196496 603.472378,279.525125 604.72969,278.39018 C606.237518,277.029664 604.886854,275.076284 604.456721,273.520903 C597.805022,249.465041 590.615657,225.547356 584.539439,201.349773 C581.767208,190.310933 577.1161,181.46994 567.344756,175.359428 C563.537371,172.978524 560.464993,169.4426 556.719055,166.940053 C553.090103,164.515453 553.465879,162.559711 556.004136,159.565867 C559.559823,155.372123 562.569572,150.718969 566.02127,146.429564 C567.807976,144.210458 568.103397,142.23582 567.309306,139.436842 C563.553914,126.202515 559.985229,112.91032 556.612703,99.5732466 C555.865879,96.6195566 554.44904,95.2755746 551.622452,94.6992448 C543.532644,93.0470208 535.406204,91.4999061 527.425111,89.4130728 C522.899261,88.2297072 522.900443,89.6433685 523.908419,93.2690495 C527.48774,106.145532 530.837814,119.085788 534.317873,131.989433 C534.881536,134.079809 535.746529,136.030827 534.155982,138.124747 C528.116396,146.076444 522.157164,154.088372 515.457016,163.025026 M263.854062,148.172725 L265.233087,148.182173 C269.32644,168.123419 273.471787,188.054035 277.437518,208.021263 C277.841654,210.05377 277.339439,212.326021 276.977843,214.440017 C274.692467,227.803073 272.469719,241.177938 269.904284,254.487849 C269.161004,258.346187 270.101625,258.854019 273.64904,258.195019 C283.503102,256.365644 293.377253,254.54808 303.317578,253.330465 C307.74062,252.789566 309.081832,251.140885 309.534417,246.831403 C311.441654,228.658119 313.774298,210.529714 315.959232,192.385956 C320.306647,156.283858 324.620975,120.177035 329.068833,84.0879276 C329.503693,80.5685369 328.121123,80.7138004 325.482422,81.1365996 C318.496307,82.257372 311.48065,83.230519 304.450812,84.0300584 C300.795864,84.4457717 299.211226,85.8960441 298.599114,89.8039849 C296.072674,105.918779 293.08065,121.95917 289.994092,139.536046 C289.112555,136.137118 288.548892,134.272313 288.148301,132.373259 C285.393796,119.308997 282.478582,106.27308 280.052585,93.1462251 C279.253767,88.823752 277.78257,88.2438792 273.797932,89.3870907 C265.302806,91.8258631 256.670606,93.8052251 248.046677,95.7692341 C244.984934,96.4672072 243.472378,98.0119599 242.655835,101.061311 C227.356573,158.179368 211.994682,215.282073 196.528804,272.356433 C195.377843,276.604503 196.440177,277.11942 200.291285,276.01282 C211.623634,272.757974 223.004431,269.666107 234.399409,266.638014 C236.966027,265.956575 238.219793,264.819268 238.796455,262.027376 C241.74003,247.791558 244.97548,233.617153 248.111669,219.42149 C253.358346,195.671508 258.606204,171.922707 263.854062,148.172725 M347.253767,318.984816 C442.168981,356.484042 505.014476,422.764325 534.033087,520.719125 C534.79291,519.685747 535.537371,518.789365 536.157755,517.812675 C553.575775,490.374419 560.560709,460.275361 559.722895,427.976094 C558.749188,390.470963 543.475923,360.937607 512.065583,340.035024 C492.860857,327.254204 471.124963,321.21337 448.899852,316.550768 C424.485081,311.428756 399.6,308.43373 375.836337,300.381648 C374.223338,299.836024 372.837223,299.944677 371.374298,300.881213 C362.929985,306.280761 354.809453,312.093661 347.253767,318.984816 M427.225406,590.775076 C427.189956,588.800438 425.955096,587.974917 425.112555,586.961616 C408.643427,567.150281 395.854062,545.164718 385.97873,521.410012 C374.775185,494.45951 367.877696,466.203999 360.332644,438.133906 C355.594092,420.505066 351.694535,402.569164 343.724077,385.99496 C338.460857,375.051781 331.503102,365.419515 320.632792,359.112956 C316.201477,356.541911 313.706942,357.10525 310.820089,361.665105 C292.723781,390.257202 283.319941,421.554978 281.599409,455.133272 C279.662629,492.949006 287.292762,528.592876 307.499557,561.084646 C309.065288,563.601365 310.777548,565.852358 313.446972,567.450256 C338.661743,582.538757 365.595864,592.217082 395.199409,593.291795 C405.955096,593.681526 416.72969,593.435877 427.225406,590.775076 M683.316396,148.599067 C675.199409,130.704501 667.748892,114.453892 660.494535,98.1158882 C659.27031,95.3582448 657.100739,94.5220943 654.688922,93.6670477 C634.311965,86.4487538 613.721123,79.7630925 593.651403,71.7736032 C584.473264,68.1195781 577.600591,68.414829 570.618021,75.5669867 C568.096307,78.1498416 567.002068,79.7831695 568.151846,83.4194796 C576.092762,108.52053 583.836337,133.684173 591.46647,158.880885 C592.405908,161.981019 594.171344,163.85291 596.677696,165.611424 C617.448154,180.186189 637.724668,195.521521 659.043427,209.237696 C671.636632,217.339381 679.81743,227.407437 684.231019,241.552316 C687.584638,252.301811 692.467356,262.575361 697.18582,274.346424 C685.494239,269.086234 675.156869,264.417727 664.799409,259.791736 C662.735007,258.869372 662.219793,256.995119 661.554505,255.13622 C658.576662,246.812506 655.421566,238.547843 652.642245,230.159175 C651.597637,227.002352 649.855835,225.400911 646.703102,224.521064 C635.913146,221.510686 625.203545,218.206238 614.421861,215.163972 C612.853767,214.721096 610.920532,212.968487 609.546233,214.582919 C608.390547,215.939892 609.67031,217.931064 610.165436,219.563211 C616.661152,240.990159 623.278582,262.380496 629.640768,283.847598 C630.65938,287.281956 632.507533,288.895207 635.74062,290.091564 C671.967504,303.495954 706.718464,320.053625 740.060857,339.530736 C743.309306,341.428609 745.420975,341.673076 748.02777,338.62963 C751.472378,334.605951 755.202954,330.78068 759.146233,327.243575 C762.115805,324.580411 762.469129,322.316428 760.76514,318.605714 C743.370753,280.749825 726.155982,242.811266 709.008567,204.844363 C707.483013,201.467874 705.419793,199.017291 702.32969,196.971793 C677.238996,180.364521 652.325554,163.48798 627.140325,147.028333 C621.610044,143.413281 617.771935,139.383696 615.880059,132.874005 C613.253176,123.833422 609.602954,115.093996 606.5613,106.167971 C605.922009,104.292537 604.181388,102.452533 605.690399,99.7551211 C612.720236,102.26003 619.676809,104.914926 626.758641,107.17891 C629.673855,108.110722 631.349483,109.60351 632.430724,112.466263 C634.860266,118.895646 637.63486,125.193938 640.258198,131.5501 C640.925849,133.166894 641.249631,135.080119 643.204136,135.710775 C656.052585,139.864365 668.915214,143.9778 683.316396,148.599067 M179.141507,80.1173935 C167.175775,84.8957341 156.823043,89.1934061 146.334417,93.129691 C142.566027,94.5445333 140.300739,96.6762448 138.606204,100.403492 C107.210044,169.46622 75.6437223,238.451001 44.1967504,307.490109 C41.7695716,312.817616 36.5997046,318.42384 37.9952733,323.560024 C39.3565731,328.572204 45.6774003,332.116395 49.4032496,336.647906 C52.1648449,340.007861 54.5022157,339.681904 57.8688331,337.639949 C64.4189069,333.668234 71.121418,329.905557 77.9822747,326.501904 C81.4375185,324.788268 83.4144756,322.443976 84.7816839,318.937576 C94.4844904,294.038478 104.335007,269.197248 114.131167,244.334761 C114.920532,242.330598 115.423929,240.172904 117.119645,238.657677 C125.626588,231.055557 134.141802,223.460523 142.661743,215.872575 C143.682718,214.963202 144.77223,213.756216 146.148892,215.225385 C149.170458,218.454248 152.387001,221.027655 150.250517,226.795677 C142.471492,247.796282 135.285672,269.018917 128.033678,290.210845 C126.555391,294.530956 124.363368,298.714071 124.02777,303.657752 C139.282127,297.757458 154.095716,291.984713 168.951846,286.326524 C171.366027,285.406523 171.932053,283.572424 172.584343,281.433627 C178.711374,261.330584 184.8774,241.239351 191.145052,221.178824 C192.037223,218.320795 191.770162,216.013114 190.146529,213.46687 C185.814476,206.671376 181.981093,199.548743 177.457607,192.887883 C174.784638,188.951598 174.751551,186.581324 178.567208,183.195386 C188.564254,174.326049 198.074446,164.911089 207.765436,155.699261 C209.750665,153.812017 211.688626,151.994453 212.535894,149.137605 C219.011521,127.281953 225.547415,105.442834 232.239291,83.6521373 C233.281536,80.260295 232.415362,78.6848362 229.261448,77.4022663 C223.254948,74.9599509 217.241359,72.4550423 211.503102,69.4541122 C207.540916,67.3814509 205.964549,68.0144688 204.507533,72.3109599 C197.879468,91.8471211 190.934712,111.276992 184.06322,130.731664 C183.351846,132.747637 183.056425,135.052956 181.334712,136.537478 C169.602954,146.650411 157.828656,156.714924 146.068538,166.79479 C145.736484,166.576304 145.405613,166.356637 145.07356,166.138152 C156.236928,137.95232 167.399114,109.766489 179.141507,80.1173935 M526.787001,528.416906 C525.51551,523.011453 524.270015,516.636395 522.509306,510.406601 C508.700148,461.531949 481.174003,421.166428 444.65288,386.620892 C416.306647,359.808567 384.143575,339.032352 346.735007,326.857386 C342.100443,325.349245 339.120236,325.938566 335.974594,329.572514 C331.082422,335.225978 326.164254,340.838107 321.568685,346.745487 C319.419202,349.507854 319.69099,350.758537 322.864993,352.352892 C334.56839,358.230747 342.549483,367.773256 348.496898,379.219542 C353.690399,389.2191 357.266174,399.818607 360.402363,410.595265 C370.116987,443.97515 377.412703,478.057732 389.666765,510.700671 C399.908419,537.984216 413.327622,563.373431 433.113737,585.096811 C435.488922,587.704467 437.625406,588.811067 441.255539,587.868627 C474.567208,579.221318 501.886558,561.316123 523.777253,534.934865 C525.132644,533.301537 526.811817,531.782766 526.787001,528.416906 M248.032496,354.375951 C247.257312,354.341702 246.425406,354.106682 245.716396,354.305091 C229.760118,358.77637 214.523486,365.143161 199.388479,371.804021 C195.507829,373.511752 198.160709,375.240741 199.246677,376.668575 C206.511669,386.219351 213.890103,395.683913 221.242541,405.167372 C223.692171,408.327738 226.174889,411.462121 229.428065,415.610987 C230.497489,409.56661 231.280945,404.993765 232.117578,400.431548 C235.083604,384.263609 241.389069,369.238881 247.948597,354.301548 C248.012408,354.176361 248.075037,354.052356 248.138848,353.92717 C248.103397,354.077157 248.067947,354.225963 248.032496,354.375951 M-0.00059084195,143.268017 C31.7713442,143.268017 61.884195,142.696411 91.9556869,143.57744 C102.489217,143.885682 107.58582,140.828064 111.245495,131.016286 C116.521713,116.867863 123.643722,103.412689 129.78966,89.5784133 C131.093058,86.6436194 132.915214,84.9606892 135.884786,83.7938577 C153.262629,76.968838 170.553028,69.9170656 187.926145,63.0802358 C189.647858,62.4035208 191.317578,60.4017197 193.78257,62.5936624 C195.094239,63.7593129 195.451108,61.3642376 195.858789,60.4111677 C200.023043,50.6879652 200.007681,50.6655262 209.399705,54.9301301 C217.63486,58.6691875 225.722304,62.7790799 234.12644,66.089433 C240.376366,68.5518254 245.012112,72.031062 246.803545,78.7025513 C247.748892,82.2207609 249.63486,82.9411731 253.367799,82.0081803 C297.644313,70.9445387 342.855539,66.7259939 388.247563,63.7498649 C393.671492,63.3943828 395.251403,64.8895333 394.597932,70.0351659 C394.205613,73.1234903 394.525849,76.302752 394.525849,81.0019652 C399.732349,75.8775907 404.238109,71.7393541 408.372821,67.2598075 C410.866174,64.5600333 413.426883,63.5774384 417.139734,63.8561552 C460.518168,67.1145441 503.763072,71.3141928 546.278877,81.0326713 C548.513442,81.5440459 551.159232,82.7309545 551.923781,79.1347986 C553.379616,72.2956068 559.439291,69.5403254 563.707533,65.0725889 C573.702216,54.6088971 583.718168,53.8802179 597.088922,59.5809222 C618.929985,68.8943165 641.743575,75.9366409 664.206204,83.7666946 C667.299852,84.8437699 669.007386,86.5845692 670.309601,89.489838 C677.624225,105.816032 685.250812,122.002867 692.437814,138.384567 C694.152437,142.291327 696.356278,143.375489 700.434269,143.355411 C733.30517,143.198338 766.177253,143.268017 799.062334,143.268017 C800.088035,145.882759 797.898375,146.97873 796.832496,148.359324 C777.099557,173.887897 757.381979,199.429462 737.397341,224.760808 C734.529394,228.398299 734.316691,231.114607 736.197932,235.193793 C749.372526,263.752822 762.225702,292.460657 775.399114,321.020867 C777.051108,324.602851 776.922304,326.671969 774.037814,329.611487 C745.924372,358.259091 717.931462,387.028338 690.121713,415.970012 C686.907533,419.315795 684.876219,419.079594 681.368981,416.786085 C662.256425,404.289886 642.316691,393.217978 622.048449,382.701141 C617.787297,380.490302 615.731167,381.281575 612.98966,384.903713 C600.99675,400.743333 588.782866,416.417612 576.437814,431.985601 C573.606499,435.558137 572.234564,439.212162 571.962777,443.735406 C568.890399,494.908291 546.981979,536.459541 507.350665,568.736368 C490.69483,582.302557 471.870606,592.018673 451.318759,598.233114 C447.472378,599.396403 444.858493,601.404109 442.486854,604.493614 C429.187001,621.813032 415.657903,638.95648 402.405318,656.311327 C399.800886,659.722066 398.495126,660.038575 395.734712,656.391635 C382.081536,638.354168 368.123486,620.546996 354.382866,602.575664 C352.374003,599.947931 350.067356,598.383101 346.906352,597.342637 C279.471196,575.169295 233.2,514.78222 229.071196,443.623211 C228.927031,441.146646 228.272378,439.173189 226.742097,437.203275 C212.740325,419.183523 198.757459,401.147236 184.956573,382.972772 C182.726736,380.036797 180.9613,379.747451 177.636041,381.155207 C156.54062,390.089499 137.10192,402.056609 117.548597,413.782793 C113.110192,416.444775 110.711374,415.778689 107.26322,412.293548 C80.2747415,385.013546 53.132644,357.882351 25.8700148,330.87398 C22.7338257,327.766759 22.134712,325.481517 24.0584934,321.340919 C37.5615953,292.292954 50.684195,263.066659 64.1329394,233.992713 C65.7672083,230.45915 65.5072378,228.17627 63.1084195,225.099756 C43.5078287,199.972723 24.1081241,174.689799 4.65169867,149.450571 C3.36838996,147.786537 2.12289513,146.092978 -0.00059084195,143.268017" id="Fill-1" fill="#096BB2" sketch:type="MSShapeGroup" mask="url(#mask-2)"></path>
                </g>
                <path d="M378.909542,8.04735842 C378.143811,21.8202222 377.05548,34.7616595 376.817962,47.7184498 C376.614712,58.8293315 363.519291,62.8471057 356.105406,59.0808853 C353.315451,57.663681 351.977784,57.4357473 349.612053,59.4351864 C345.376898,63.0148082 339.754446,62.6652312 334.975716,62.0274892 C331.766263,61.5987849 328.191669,58.7986254 329.082659,53.4852903 C331.487386,39.1549928 333.359173,24.7349391 335.463752,10.3538584 C335.962422,6.93839606 341.523427,3.77684946 344.687976,5.19995878 C346.961536,6.22152688 345.751492,8.23277599 345.568331,9.80941577 C344.251935,21.1257921 342.734653,32.4220914 341.621507,43.7573638 C341.452526,45.478086 339.066706,48.7943441 343.242777,49.3092616 C347.165968,49.7946541 348.001418,47.1834552 348.361832,43.8235 C349.620325,32.1055824 351.060798,20.4065609 352.541448,8.71462545 C353.101566,4.29412903 357.179557,1.98881004 361.298907,3.46152151 C363.908065,4.39451434 362.635391,6.48489068 362.516041,7.95642115 C361.610871,19.116905 360.419734,30.2537688 359.593737,41.4189767 C359.449572,43.3770806 356.982216,46.7618369 361.569513,47.2743925 C366.018552,47.771595 365.925199,44.6478405 366.136721,41.5606971 C366.888272,30.5844498 368.074682,19.6270986 368.46582,8.64140323 C368.652526,3.38121326 370.646027,2.08092832 375.550015,2.1423405 C381.777489,2.22028674 377.724313,6.73526344 378.909542,8.04735842" id="Fill-4" fill="#0C6FB6" sketch:type="MSShapeGroup"></path>
                <path d="M479.665702,22.7004242 C480.091108,25.7084403 480.45743,28.6089851 480.923013,31.4929959 C481.360236,34.2022181 483.663338,34.0345156 485.493767,33.9872754 C488.303811,33.9140532 486.904697,31.7575407 486.746352,30.5021339 C486.406027,27.8035407 485.775007,25.1427396 485.281064,22.4618615 C484.860384,20.1754385 483.092585,19.9687629 481.289335,19.9097127 C478.949601,19.8317665 479.802777,21.6186249 479.665702,22.7004242 M484.1561,52.295193 C484.343988,53.8612038 484.426706,55.0422073 484.633501,56.2007719 C486.435569,66.2700084 486.927149,64.487874 476.823752,63.6753435 C474.630547,63.499374 473.909719,62.3715156 473.630842,60.2882253 C471.396278,43.5439565 469.06836,26.8126787 466.735716,10.0814009 C466.368213,7.44303889 466.651817,6.06008369 470.012526,6.81120197 C475.373826,8.00873961 480.9561,8.30635251 486.238227,9.74599588 C491.734239,11.2435084 495.237932,15.7372271 496.235273,20.98915 C497.551669,27.919279 499.246204,34.7242217 499.171758,42.1468292 C499.123309,46.9476088 502.816071,52.8337306 503.682245,58.5993901 C503.76969,59.1816249 504.09938,59.7756697 504.024934,60.3248364 C503.701152,62.6951106 506.765258,65.9369654 503.235569,67.3163776 C499.039409,68.9567916 493.320059,65.3523686 492.564963,61.3570335 C491.945761,58.0773866 491.158759,54.8201787 490.739261,51.5157306 C490.355214,48.4959045 488.378257,48.3648131 486.098789,48.3860711 C482.238227,48.4226823 484.849749,51.2582719 484.1561,52.295193" id="Fill-6" fill="#0C6FB6" sketch:type="MSShapeGroup"></path>
                <path d="M251.976721,76.019193 C256.892526,58.6147432 261.628715,41.6295496 266.513796,24.6868722 C267.90582,19.8565676 272.887799,20.8308955 276.295775,19.4703794 C279.381152,18.2385927 279.179084,21.8099475 280.358405,23.3298991 C281.039055,24.2073848 281.687799,25.1120335 282.974653,26.8445658 C284.12325,20.4801375 285.244668,15.4856733 292.422216,14.739279 C296.606558,14.3034887 297.180857,14.9317826 296.289867,18.6625729 C293.371108,30.876512 290.595332,43.1247002 287.768744,55.3610783 C287.415421,56.889297 287.081004,58.4222396 286.741861,59.9528203 C284.330044,70.8334063 284.330044,70.8334063 272.556928,71.3577719 C271.960177,61.7621177 280.768449,52.7675944 274.240827,42.085417 C271.661211,46.351202 271.110547,50.7386303 269.776425,54.8166357 C268.740089,57.9852683 267.371699,61.1645299 267.058552,64.4252808 C266.211285,73.2639116 260.879527,76.1880765 251.976721,76.019193" id="Fill-8" fill="#0C6FB6" sketch:type="MSShapeGroup"></path>
                <path d="M548.14003,76.2416941 C535.761891,74.571755 535.835155,74.552859 532.781684,63.0959432 C531.988774,60.1221762 532.506352,56.123298 527.746529,55.5351582 C525.230724,55.2245543 523.93678,55.453669 524.695421,58.4392461 C525.78966,62.7428231 526.718464,67.0877353 527.884786,72.1400686 C524.158936,71.4432765 521.138552,70.8468697 518.106352,70.3248661 C516.082127,69.9752891 515.288035,68.8344396 514.868538,66.8101995 C511.479468,50.4733769 507.97223,34.1601744 504.456721,17.8493339 C503.753619,14.58504 504.749778,13.6957443 508.079764,14.3559253 C512.719055,15.2771081 515.792614,16.9789342 516.546529,22.3513195 C517.332349,27.9528195 519.35421,33.372445 520.636337,38.9184378 C521.163368,41.1942317 522.257607,42.7082783 524.564254,42.2488679 C527.030428,41.7587514 527.189956,39.631764 526.692467,37.5555597 C525.275628,31.6410937 523.802068,25.7384378 522.345052,19.8109808 C530.198523,19.2488231 533.155096,20.8207389 534.445495,27.778031 C535.537371,33.6629719 540.293648,39.2314038 536.566617,45.7304665 C536.382275,46.0505185 536.762777,46.900841 537.114919,47.2929342 C544.384638,55.3733608 543.731167,66.2964629 548.14003,76.2416941" id="Fill-10" fill="#0C6FB6" sketch:type="MSShapeGroup"></path>
                <path d="M450.761477,45.4091154 C450.470783,41.8897247 450.222629,38.366791 449.878759,34.8533054 C449.306824,28.9919846 448.632083,23.1412928 448.086145,17.278791 C447.887622,15.1494416 446.982452,14.0511082 444.750251,14.1845616 C443.546115,14.2566029 442.194269,14.1928287 442.343161,15.8970168 C443.231787,26.0654577 444.144047,36.2315366 445.144934,46.3905294 C445.403722,49.0253484 447.657194,48.4100455 449.296189,48.4053215 C451.452762,48.3982355 450.929276,46.7058573 450.761477,45.4091154 M432.589542,30.0159147 C432.220857,24.5360581 431.85099,19.0550204 431.481123,13.5751638 C431.004904,6.53283943 434.85483,2.84456523 442.03356,3.40081792 C447.257784,3.80590215 452.684077,3.28035556 456.196041,8.68935197 C457.401359,10.5458896 458.408154,12.1851226 458.679941,14.4337534 C460.023516,25.5304631 461.596337,36.6000097 462.924549,47.6990814 C464.11805,57.6691136 460.01288,62.084886 450.110369,61.097567 C445.670783,60.6558717 440.705347,61.7990832 437.183929,57.1813591 C435.061625,54.3989147 433.624697,51.8125168 433.546706,48.237619 C433.413176,42.1613556 432.856603,36.0945401 432.478464,30.0241817 C432.515096,30.0206387 432.55291,30.0182767 432.589542,30.0159147" id="Fill-12" fill="#0C6FB6" sketch:type="MSShapeGroup"></path>
                <g id="Group-16">
                    <mask id="mask-4" sketch:name="Clip 15" fill="white">
                        <use xlink:href="#path-3"></use>
                    </mask>
                    <g id="Clip-15"></g>
                    <path d="M424.230665,20.7157477 C424.386647,23.6611706 424.261388,26.6550147 424.758877,29.5413875 C425.795214,35.5503337 424.286204,40.3463892 418.931994,43.5976921 C415.009985,45.9785953 417.359173,49.6645075 417.17483,52.6796097 C416.793146,58.9176706 413.986647,61.0399341 408.072319,59.052305 C405.524609,58.1960774 406.29743,56.2297065 406.367149,54.6825918 C406.636573,48.7775738 406.998168,43.0733265 400.429188,39.7452584 C398.036278,38.5323677 397.576603,35.8184215 397.649867,33.0430631 C397.896839,23.80171 398.08709,14.553271 397.990192,5.31073692 C397.95356,1.77126918 399.303043,0.818199283 402.54322,1.22210251 C405.274092,1.56341254 408.621802,0.265489606 408.439823,5.28357384 C408.153855,13.1431527 408.351196,21.0216276 408.378375,28.8930165 C408.385465,30.9845738 407.856071,33.343038 411.397578,33.2532817 C414.819734,33.1658875 414.43805,30.9184376 414.394328,28.7690111 C414.245436,21.2979824 414.035096,13.8281348 413.909838,6.35710609 C413.868479,3.86755054 413.244549,0.887878495 417.552969,1.47011326 C420.754151,1.90354158 424.469365,1.10400215 423.969513,6.56260072 C423.541743,11.2429179 423.880886,15.9940953 423.880886,20.7133857 C423.997873,20.7145667 424.113678,20.7145667 424.230665,20.7157477" id="Fill-14" fill="#0C6FB6" sketch:type="MSShapeGroup" mask="url(#mask-4)"></path>
                </g>
                <path d="M313.661329,53.4785586 C314.28644,53.3958884 314.753205,53.1797647 315.053353,53.3203041 C317.118936,54.2887271 320.803427,49.97334 321.471078,54.932374 C322.285258,60.9814744 320.099143,64.0249206 315.294417,64.7169887 C309.853944,65.4999941 304.395746,66.1873382 298.982452,67.126236 C295.89353,67.6624116 294.604313,67.115607 295.358227,63.6174744 C298.830015,47.5097665 302.246263,31.3890676 305.462806,15.2293955 C305.981566,12.6193776 307.143161,11.6119815 309.521891,11.1750102 C314.925731,10.1794242 320.339025,9.19564821 325.680236,7.91898333 C328.627356,7.2151052 328.684077,8.15518405 328.663988,10.77465 C328.622629,16.2497826 326.593678,18.9507378 320.832969,19.2743328 C316.44065,19.5223435 312.645081,26.5162468 314.045377,30.549374 C314.772112,32.6432934 316.227947,31.4280407 317.427356,31.5130729 C320.08969,31.7008525 324.035332,28.4212056 325.139025,32.6562844 C326.542866,38.0333937 323.829719,41.3236697 317.80904,41.6236446 C311.726913,41.9271625 311.222334,45.7264511 310.575953,50.1233274 C310.158818,52.954193 310.737843,54.3808453 313.661329,53.4785586" id="Fill-17" fill="#0C6FB6" sketch:type="MSShapeGroup"></path>
                <path d="M526.786765,528.417378 C526.811581,531.782058 525.132408,533.302009 523.777016,534.934156 C501.886322,561.316595 474.566972,579.221791 441.255303,587.867918 C437.62517,588.810359 435.489867,587.704939 433.113501,585.096103 C413.327386,563.372723 399.908183,537.983508 389.666529,510.699963 C377.412467,478.057024 370.11675,443.974441 360.402127,410.594556 C357.265938,399.819079 353.691344,389.218391 348.496662,379.220015 C342.550428,367.772547 334.568154,358.231219 322.864756,352.352183 C319.690753,350.757828 319.418966,349.508327 321.568449,346.744778 C326.164018,340.838579 331.082186,335.225269 335.974357,329.572986 C339.12,325.937857 342.101388,325.349717 346.734771,326.857859 C384.143338,339.032825 416.307592,359.80904 444.652644,386.621364 C481.174948,421.165719 508.699911,461.532422 522.510251,510.407074 C524.269778,516.636868 525.515273,523.011925 526.786765,528.417378" id="Fill-19" fill="#F28229" sketch:type="MSShapeGroup"></path>
                <path d="M179.141861,80.1176297 C167.399468,109.766725 156.237282,137.952556 145.073914,166.137207 C145.405968,166.356873 145.736839,166.575359 146.068892,166.795026 C157.82901,156.71516 169.603309,146.650648 181.335066,136.537714 C183.05678,135.053192 183.352201,132.747873 184.063575,130.7319 C190.933885,111.277228 197.879823,91.8473573 204.507888,72.3100151 C205.964904,68.014705 207.540089,67.3816871 211.503456,69.4543484 C217.241713,72.4552785 223.255303,74.9601871 229.261802,77.4025025 C232.415716,78.6850724 233.281891,80.2605312 232.239645,83.6523735 C225.54777,105.443071 219.011876,127.281008 212.536248,149.13666 C211.688981,151.994689 209.751019,153.811072 207.76579,155.699497 C198.074801,164.911325 188.563427,174.326286 178.567563,183.195623 C174.750724,186.58156 174.784993,188.951834 177.457962,192.888119 C181.980266,199.548979 185.81483,206.671612 190.146883,213.467106 C191.770517,216.01335 192.037578,218.321031 191.145406,221.17906 C184.877755,241.238406 178.711728,261.33082 172.583516,281.433863 C171.932408,283.57266 171.366381,285.406759 168.952201,286.326761 C154.094889,291.984949 139.282482,297.757694 124.026942,303.657988 C124.362541,298.714307 126.555746,294.531192 128.034032,290.211081 C135.286027,269.019153 142.471846,247.796519 150.250871,226.795913 C152.387356,221.027891 149.170812,218.454485 146.149247,215.225621 C144.772585,213.755271 143.683072,214.963438 142.662097,215.87163 C134.142157,223.460759 125.626942,231.055793 117.118818,238.657913 C115.424284,240.171959 114.920886,242.330834 114.131521,244.334997 C104.335362,269.197485 94.4848449,294.038714 84.7820384,318.937813 C83.4148301,322.444212 81.437873,324.788504 77.9826292,326.502141 C71.1217725,329.905793 64.4192614,333.667289 57.8691876,337.640185 C54.5013885,339.682141 52.1651994,340.008097 49.4024225,336.648142 C45.6765731,332.116632 39.3569276,328.571259 37.9956278,323.560261 C36.6000591,318.424076 41.7699261,312.816671 44.1959232,307.490345 C75.6440768,238.451237 107.210399,169.466456 138.606558,100.403728 C140.299911,96.676481 142.566381,94.5435885 146.333589,93.1299272 C156.822216,89.1924613 167.17613,84.8959703 179.141861,80.1176297" id="Fill-21" fill="#F18229" sketch:type="MSShapeGroup"></path>
                <path d="M683.31675,148.598949 C668.915569,143.977682 656.052939,139.864247 643.203309,135.711838 C641.249985,135.080001 640.926204,133.166775 640.258552,131.549982 C637.634032,125.19382 634.859439,118.895528 632.431078,112.466145 C631.348656,109.603392 629.673028,108.110603 626.757814,107.178792 C619.677164,104.915989 612.720591,102.259912 605.690753,99.755003 C604.181743,102.452415 605.921182,104.292419 606.560473,106.167853 C609.603309,115.093878 613.25353,123.833304 615.880414,132.873887 C617.771108,139.383578 621.609217,143.413163 627.140679,147.028215 C652.325908,163.487861 677.23935,180.364403 702.330044,196.971675 C705.420148,199.017173 707.483368,201.467756 709.00774,204.844245 C726.156337,242.812329 743.369926,280.749707 760.764313,318.605596 C762.469483,322.316309 762.11616,324.580293 759.146588,327.243456 C755.203309,330.780562 751.472733,334.605833 748.026942,338.629512 C745.421329,341.674139 743.30966,341.428491 740.061211,339.530618 C706.717637,320.053507 671.966677,303.495836 635.740975,290.091446 C632.507888,288.895089 630.659734,287.281838 629.641123,283.84748 C623.278936,262.381559 616.661507,240.990041 610.164609,219.563093 C609.670665,217.930946 608.390901,215.939774 609.546588,214.582801 C610.919705,212.968369 612.852939,214.720978 614.422216,215.163854 C625.2039,218.20612 635.912319,221.510568 646.703456,224.520946 C649.856189,225.400793 651.596809,227.002234 652.6426,230.159057 C655.42192,238.547725 658.577016,246.812388 661.55486,255.136102 C662.220148,256.995001 662.73418,258.869254 664.799764,259.791618 C675.156041,264.417609 685.494594,269.086116 697.186174,274.346306 C692.46771,262.575243 687.584993,252.301693 684.231374,241.552198 C679.817784,227.407318 671.636987,217.340444 659.043781,209.237578 C637.72384,195.521403 617.448508,180.186071 596.67805,165.611306 C594.171699,163.852792 592.405081,161.980901 591.466824,158.880766 C583.836691,133.684055 576.093117,108.520412 568.152201,83.4193615 C567.001241,79.7830514 568.096662,78.1497235 570.618375,75.5668686 C577.600945,68.4147109 584.473619,68.11946 593.650576,71.7734851 C613.721477,79.7629744 634.311137,86.4486357 654.689276,93.6669296 C657.101093,94.5219762 659.269483,95.3581267 660.494889,98.1157701 C667.748065,114.453774 675.199764,130.704383 683.31675,148.598949" id="Fill-23" fill="#F18229" sketch:type="MSShapeGroup"></path>
                <path d="M427.225524,590.774486 C416.729808,593.435287 405.955214,593.682117 395.199527,593.291204 C365.595982,592.217672 338.661861,582.538167 313.44709,567.450846 C310.777666,565.852948 309.065406,563.601955 307.499675,561.084056 C287.29288,528.593466 279.662747,492.948416 281.599527,455.132681 C283.320059,421.554387 292.7239,390.256611 310.820207,361.665696 C313.707061,357.105841 316.201595,356.542502 320.63291,359.113547 C331.50322,365.418925 338.460975,375.05119 343.724195,385.99555 C351.694653,402.569755 355.59421,420.505656 360.332762,438.134497 C367.877814,466.20459 374.775303,494.460101 385.978848,521.410602 C395.85418,545.165308 408.643545,567.150871 425.112674,586.961025 C425.955214,587.975507 427.190074,588.799848 427.225524,590.774486" id="Fill-25" fill="#F28229" sketch:type="MSShapeGroup"></path>
                <path d="M347.253885,318.985289 C354.809572,312.092952 362.930103,306.281233 371.373235,300.881685 C372.837341,299.945149 374.223456,299.835316 375.836455,300.38212 C399.600118,308.434203 424.485199,311.429228 448.89997,316.551241 C471.125081,321.213843 492.860975,327.254676 512.065702,340.035497 C543.476041,360.938079 558.749306,390.471436 559.723013,427.976567 C560.560827,460.275834 553.575894,490.37371 536.157873,517.813147 C535.537489,518.788656 534.793028,519.686219 534.033205,520.718416 C505.014594,422.763617 442.169099,356.484515 347.253885,318.985289" id="Fill-27" fill="#F28229" sketch:type="MSShapeGroup"></path>
                <path d="M263.85418,148.172607 C258.606322,171.922589 253.358464,195.67139 248.111787,219.421372 C244.975598,233.617035 241.740148,247.79144 238.796573,262.027258 C238.219911,264.81915 236.966145,265.956456 234.399527,266.639077 C223.004549,269.665989 211.623752,272.757856 200.291403,276.012702 C196.440295,277.119302 195.377962,276.604385 196.528922,272.356315 C211.993619,215.281955 227.356691,158.180431 242.655953,101.061193 C243.472496,98.0118418 244.985052,96.4670891 248.046795,95.7691159 C256.669542,93.805107 265.302925,91.825745 273.79805,89.3869726 C277.782688,88.2437611 279.253885,88.8236339 280.052703,93.147288 C282.4787,106.272962 285.393914,119.308879 288.148419,132.373141 C288.54901,134.273376 289.112674,136.13818 289.99421,139.537109 C293.080768,121.959051 296.072792,105.918661 298.599232,89.8038668 C299.211344,85.895926 300.795982,84.4456536 304.450931,84.0299403 C311.480768,83.2304009 318.496425,82.2572539 325.482541,81.1364815 C328.121241,80.7136823 329.502629,80.5684188 329.068951,84.0878095 C324.621093,120.176917 320.306765,156.28374 315.95935,192.385838 C313.774417,210.529596 311.441773,228.658001 309.534535,246.831284 C309.08195,251.140766 307.740739,252.789447 303.317696,253.331528 C293.377371,254.549143 283.50322,256.365526 273.649158,258.194901 C270.101743,258.853901 269.161123,258.346069 269.904402,254.487731 C272.469838,241.17782 274.692585,227.802955 276.977962,214.439899 C277.339557,212.327084 277.841773,210.053652 277.437637,208.021145 C273.471905,188.055098 269.326558,168.123301 265.233205,148.182055 L263.85418,148.172607 Z" id="Fill-29" fill="#F18229" sketch:type="MSShapeGroup"></path>
                <path d="M515.457489,163.024672 C522.156455,154.088018 528.116869,146.076089 534.155273,138.125573 C535.74582,136.030473 534.882009,134.080636 534.318346,131.99026 C530.838287,119.085434 527.488213,106.145177 523.908892,93.2686952 C522.900916,89.6430142 522.898552,88.2293529 527.424402,89.4127185 C535.406677,91.4995518 543.531935,93.0466665 551.622925,94.6988905 C554.448331,95.2752203 555.866352,96.6192023 556.613176,99.5728923 C559.985702,112.911147 563.553205,126.202161 567.309778,139.436487 C568.10387,142.235466 567.808449,144.210104 566.021743,146.429209 C562.568863,150.718615 559.560295,155.371769 556.003427,159.566693 C553.466352,162.559356 553.090576,164.515098 556.719527,166.939699 C560.465465,169.443426 563.537843,172.97817 567.345229,175.360254 C577.115391,181.469586 581.767681,190.31176 584.53873,201.349419 C590.61613,225.547002 597.805495,249.465867 604.457194,273.520548 C604.887326,275.07593 606.237991,277.030491 604.728981,278.391007 C603.472851,279.52477 601.771226,278.196141 600.302393,277.780428 C588.951137,274.568098 577.647149,271.172713 566.228538,268.220204 C562.932821,267.36752 561.842127,265.6031 561.209926,262.658858 C557.287917,244.405267 553.21229,226.183563 549.297371,207.927609 C547.455126,199.336989 539.154978,196.999783 533.911846,191.707706 C533.692053,191.485677 532.822334,191.713611 532.367386,191.949812 C528.486736,193.958699 522.845377,205.791174 523.66901,210.123095 C526.53223,225.183253 529.264284,240.270573 532.350842,255.285853 C533.257194,259.698082 532.017607,260.344091 528.004609,259.56581 C517.580975,257.546294 507.132526,255.581104 496.620266,254.121383 C493.045672,253.625362 492.050694,252.108953 491.660739,248.995828 C488.503279,223.828641 485.283191,198.668541 482.041832,173.511984 C478.324254,144.655342 474.683486,115.788072 470.705938,86.96686 C470.041832,82.1460034 470.755569,80.5811737 475.824993,81.4598403 C482.406972,82.5995088 489.070487,83.3742471 495.729276,83.9198708 C499.340502,84.2163027 500.65099,85.7114532 501.298552,89.2391109 C505.337548,111.269552 509.637696,133.251572 513.859852,155.248944 C514.266352,157.367665 514.726027,159.475756 515.457489,163.024672" id="Fill-31" fill="#F18229" sketch:type="MSShapeGroup"></path>
                <path d="M631.031492,293.762832 C631.975657,294.091151 633.094712,294.458443 634.198405,294.86707 C669.652467,308.005735 703.61288,324.301222 736.41997,343.060283 C739.645968,344.905011 740.208449,346.192305 737.427947,349.053876 C720.994269,365.961124 704.624402,382.932145 688.432969,400.070869 C685.30387,403.383584 683.00904,403.16628 679.404904,400.899934 C653.583929,384.661134 626.65808,370.470195 598.530458,358.64953 C594.34966,356.892197 594.392201,355.421848 596.376248,351.918991 C606.637991,333.805939 616.648035,315.549986 626.806972,297.376703 C627.695598,295.787072 628.191905,293.503011 631.031492,293.762832" id="Fill-33" fill="#B9BEC3" sketch:type="MSShapeGroup"></path>
                <path d="M398.204549,161.315878 C398.206913,141.053399 398.273087,120.78974 398.143102,100.527261 C398.121832,97.125971 399.465406,94.8714351 401.448272,92.195281 C410.820207,79.5431896 422.419616,73.8176842 438.341625,77.8862416 C443.406322,79.1794405 448.905879,79.1357434 454.198641,79.0601591 C458.432614,78.998747 460.159055,80.4809065 460.518287,84.6581161 C461.091403,91.3118903 462.013117,97.9408634 462.979734,104.550941 C463.439409,107.697134 462.442068,108.801372 459.249158,108.584068 C451.791551,108.077417 444.309129,107.910896 436.853885,107.364091 C433.428183,107.112537 431.940443,107.759727 432.181507,111.723175 C434.11356,143.516973 435.917991,175.320218 437.548715,207.13055 C437.750783,211.070378 439.470133,212.112023 442.882836,212.27382 C451.726558,212.694258 460.559645,213.496159 469.405731,213.640242 C473.509719,213.707559 475.370871,214.771643 475.705288,219.108288 C476.44384,228.707485 477.547533,238.283062 478.709129,247.842105 C479.050635,250.64817 478.652408,251.843346 475.490222,251.412279 C457.344284,248.934534 439.067179,248.079487 420.800709,247.075634 C415.329513,246.775659 398.216366,227.688279 398.210458,222.104494 C398.189188,201.842016 398.202186,181.578356 398.204549,161.315878" id="Fill-35" fill="#F18229" sketch:type="MSShapeGroup"></path>
                <path d="M377.185938,161.698877 C376.260679,188.40373 375.246795,215.107402 374.504697,241.81816 C374.395982,245.734368 373.467179,247.244872 369.330103,247.392497 C358.726854,247.771599 348.125968,248.481383 337.554623,249.404927 C333.601891,249.74978 332.918877,248.382178 333.240295,244.833263 C337.44,198.463519 341.547533,152.084327 345.649158,105.706316 C346.325081,98.0734901 346.991551,90.43594 347.411049,82.7865797 C347.598936,79.3569453 348.846795,78.0306783 352.403663,77.9716281 C359.867179,77.8488038 367.349601,77.5263898 374.772939,76.7764525 C379.35551,76.3123181 380.378848,77.8074686 380.186233,82.1937159 C379.024638,108.68835 378.128922,135.194795 377.144579,161.697696 C377.158759,161.697696 377.171758,161.698877 377.185938,161.698877" id="Fill-37" fill="#F18229" sketch:type="MSShapeGroup"></path>
                <path d="M291.428065,550.321806 C267.770753,528.762586 253.265583,502.262046 245.928508,471.731923 C240.048449,447.262709 240.12644,422.710826 245.40384,398.034937 C247.123191,389.994665 251.736484,384.214833 256.756278,378.459803 C266.49099,367.299319 277.544461,358.049699 292.641654,355.039321 C296.906352,354.188998 302.661152,352.526145 305.0387,355.121991 C307.165731,357.447387 302.291285,361.674199 300.458493,364.991638 C268.550665,422.72736 264.928804,482.122392 289.721713,543.249957 C290.383456,544.880923 291.068833,546.504803 291.619498,548.173561 C291.786115,548.676668 291.533235,549.317953 291.428065,550.321806" id="Fill-39" fill="#F18229" sketch:type="MSShapeGroup"></path>
                <path d="M206.660089,353.084878 C207.144579,355.351224 205.562304,355.726783 204.384165,356.25351 C193.252703,361.227897 182.063338,366.073555 170.985052,371.158957 C168.757578,372.181706 167.846499,371.399881 166.706174,369.776001 C153.252703,350.620123 139.792142,331.468969 126.246499,312.378046 C124.466883,309.868414 125.682836,309.023996 127.794505,308.098089 C140.950192,302.333611 154.250044,296.935243 167.75551,292.043527 C170.117696,291.18848 171.666883,291.402242 173.056544,293.866996 C183.878405,313.050037 194.831433,332.158675 205.738375,351.293295 C206.125968,351.972372 206.454476,352.684518 206.660089,353.084878" id="Fill-41" fill="#B9BEC3" sketch:type="MSShapeGroup"></path>
                <path d="M605.315569,286.130596 C604.849985,287.113191 604.449394,288.010754 604.007445,288.887058 C594.626056,307.50558 585.19031,326.098119 575.904638,344.765062 C574.464165,347.659702 573.007149,348.948177 569.544815,347.985659 C563.111728,346.197619 556.558109,344.835922 550.032851,343.393917 C547.001832,342.724288 545.146588,340.906723 543.058552,338.603766 C538.518523,333.592768 539.00774,329.002207 541.431374,323.188126 C547.785288,307.944913 553.616898,292.479671 559.387061,277.002619 C560.781448,273.263562 562.370812,272.199478 566.314092,273.400558 C577.971403,276.950655 589.75161,280.094487 601.459734,283.481605 C602.949838,283.912671 605.111137,283.73434 605.315569,286.130596" id="Fill-43" fill="#B9BEC3" sketch:type="MSShapeGroup"></path>
                <path d="M236.609394,271.240266 C239.068479,270.943835 239.551787,272.766123 240.183988,274.4337 C247.198464,292.957741 254.264934,311.462887 261.196691,330.018815 C262.900679,334.579851 259.726677,337.312693 256.286795,338.62715 C247.50452,341.984743 238.456366,344.645544 229.58192,347.775204 C227.206736,348.612535 226.001418,348.084627 224.911905,345.9352 C214.880591,326.154571 205.509838,306.071605 196.965081,285.605994 C196.45223,284.376569 195.461979,282.998338 197.570103,282.288555 C210.404372,277.967263 223.474978,274.48094 236.609394,271.240266" id="Fill-45" fill="#B9BEC3" sketch:type="MSShapeGroup"></path>
                <path d="M382.825406,295.701449 C396.848449,289.10082 410.944756,282.794261 425.80325,278.292275 C428.072083,277.60375 430.112851,278.337153 432.166617,278.771763 C468.82836,286.532137 499.341802,304.606216 523.45997,333.343576 C524.342688,334.394669 525.192319,335.480012 525.984047,336.600784 C526.661152,337.558578 527.441064,338.744306 526.508715,339.771779 C525.46647,340.920895 524.356869,339.939481 523.449335,339.242689 C495.019202,317.407114 460.91226,311.986307 427.026292,305.947836 C413.299852,303.501978 399.547415,301.19784 386.045495,297.647743 C384.920532,297.352492 383.675037,297.325329 382.825406,295.701449" id="Fill-47" fill="#F18229" sketch:type="MSShapeGroup"></path>
                <path d="M84.7318168,328.548347 C86.596514,328.412532 87.3055244,329.765962 88.1563368,330.766272 C103.446145,348.734061 118.660325,366.764442 134.023397,384.668457 C136.385583,387.420195 135.882186,388.858657 132.97288,390.471908 C127.81483,393.329937 122.705229,396.285989 117.698434,399.400295 C115.23226,400.933238 113.54127,400.574213 111.539498,398.554697 C94.364904,381.234098 77.1394978,363.963102 59.8443722,346.764147 C57.5235451,344.455285 57.5365436,343.231765 60.5344756,341.66103 C67.8455539,337.829854 75.0231019,333.744763 82.2609158,329.774229 C83.1164549,329.30419 84.009808,328.903829 84.7318168,328.548347" id="Fill-49" fill="#B9BEC3" sketch:type="MSShapeGroup"></path>
                <path d="M769.828892,158.366439 C757.304225,174.50131 745.793442,189.407938 734.191669,204.244886 C726.758877,213.749603 725.685908,214.037767 721.941152,202.728477 C717.811167,190.254717 707.391078,185.279149 697.917518,179.006839 C693.515746,176.093303 693.522836,173.989936 695.331994,169.191518 C698.729335,160.185185 704.160355,157.712163 713.494476,158.127877 C731.703043,158.940407 749.971876,158.366439 769.828892,158.366439" id="Fill-51" fill="#B9BEC3" sketch:type="MSShapeGroup"></path>
                <path d="M31.8502806,158.371754 C53.2044904,158.371754 73.8532349,158.415451 94.5019793,158.328057 C97.9253176,158.313885 97.9654948,159.518508 96.7554505,162.155689 C89.5471787,177.86658 82.4239882,193.615263 75.3007976,209.365127 C74.1356573,211.942077 73.2600295,213.582491 70.705229,210.221354 C58.1013885,193.640064 45.3309306,177.186322 32.6420089,160.671168 C32.3300443,160.264903 32.2804136,159.657867 31.8502806,158.371754" id="Fill-53" fill="#B9BEC3" sketch:type="MSShapeGroup"></path>
                <path d="M256.661743,365.754212 C264.795273,348.813896 275.327622,333.660439 288.824815,320.607988 C290.358641,319.123466 291.699852,317.187801 294.117578,317.250395 C307.038109,317.583438 319.984638,317.788932 333.27031,322.525938 C325.745347,330.185927 319.156278,337.857726 313.319941,346.130656 C312.205613,347.710839 310.794682,347.693124 309.166322,347.446294 C290.554801,344.633144 275.34771,351.766405 261.765436,363.661473 C260.36514,364.887355 259.225997,366.85845 256.661743,365.754212" id="Fill-55" fill="#F18229" sketch:type="MSShapeGroup"></path>
                <path d="M486.545347,282.841147 C488.022452,275.732686 489.564549,268.636035 490.943575,261.507498 C491.439882,258.937634 492.899261,258.395553 495.158641,258.797095 C506.565436,260.823697 517.975775,262.823136 529.377843,264.878082 C531.749483,265.305605 533.266765,266.152385 532.296603,269.234804 C528.404136,281.594007 524.665288,294.00163 521.019793,306.436417 C519.970458,310.011315 518.687149,309.797553 516.293058,307.551285 C508.094535,299.855865 499.018021,293.297752 489.453471,287.409268 C487.703397,286.332193 486.045495,285.314168 486.545347,282.841147" id="Fill-57" fill="#B9BEC3" sketch:type="MSShapeGroup"></path>
                <path d="M282.369631,309.643905 C277.933589,294.966392 273.727976,281.094324 269.553087,267.213989 C268.590015,264.011107 270.796219,263.698141 273.108774,263.330849 C283.771108,261.640833 294.440532,259.980342 305.067415,258.08365 C307.890458,257.579362 308.970517,258.368272 309.507001,261.075132 C310.878936,268.001718 312.438759,274.891693 313.992674,281.781668 C314.583516,284.404677 313.96195,286.236414 311.500502,287.673695 C301.28839,293.631858 292.061802,300.944632 282.369631,309.643905" id="Fill-59" fill="#B9BEC3" sketch:type="MSShapeGroup"></path>
                <path d="M247.948951,354.302138 C241.389424,369.238291 235.083959,384.264199 232.117932,400.430957 C231.2813,404.994355 230.496662,409.567201 229.427238,415.611577 C226.174062,411.462712 223.692526,408.327147 221.242895,405.167963 C213.890458,395.683323 206.512024,386.21876 199.247031,376.667984 C198.161064,375.241332 195.508183,373.511161 199.388833,371.80343 C214.522659,365.143751 229.760473,358.77578 245.715569,354.3045 C246.425761,354.106092 247.257666,354.342292 248.032851,354.37536 L247.948951,354.302138 Z" id="Fill-61" fill="#B9BEC3" sketch:type="MSShapeGroup"></path>
                <path d="M554.363486,357.505374 C571.268656,360.812184 586.055066,365.758227 600.258907,372.530102 C601.850635,373.289487 602.196869,374.086665 601.016366,375.604254 C591.508538,387.825279 582.055066,400.086458 571.449453,413.802634 C568.449158,393.601568 563.280473,375.723535 554.363486,357.505374" id="Fill-63" fill="#B9BEC3" sketch:type="MSShapeGroup"></path>
                <path d="M366.073383,297.134833 C356.756987,303.044575 348.847976,308.857475 341.575894,315.474638 C340.011344,316.896566 338.384165,316.857593 336.645908,316.365114 C325.455362,313.197663 313.944579,311.819432 302.300266,310.321919 C302.988006,307.32217 305.633796,306.395082 307.555214,304.958982 C317.707061,297.368672 329.045318,291.914797 340.649453,286.959306 C342.361713,286.228265 343.843545,285.95191 345.656248,286.895532 C352.096425,290.243677 358.626411,293.419396 366.073383,297.134833" id="Fill-65" fill="#F18229" sketch:type="MSShapeGroup"></path>
                <path d="M429.40774,252.510613 C445.699616,253.401089 460.380857,254.670668 475.039645,256.275652 C478.057666,256.605152 478.614239,257.912523 478.216012,260.491835 C477.437282,265.535901 476.597105,270.579967 476.083072,275.653559 C475.710842,279.337109 474.013944,279.214285 471.335066,277.991946 C455.663575,270.836245 439.261802,266.219702 422.143929,264.258055 C415.876278,263.540005 418.617784,258.895118 418.226647,255.691055 C417.693708,251.323704 420.852349,252.436209 423.298434,252.496441 C425.854417,252.560215 428.413944,252.510613 429.40774,252.510613" id="Fill-67" fill="#B9BEC3" sketch:type="MSShapeGroup"></path>
                <path d="M374.764431,604.121244 C391.746411,606.252955 406.765613,606.528129 423.257194,604.442477 C415.313914,614.68414 408.25099,623.774324 401.211699,632.882224 C399.775953,634.739942 398.505643,634.796631 397.033264,632.885767 C390.008154,623.761333 382.939321,614.671149 374.764431,604.121244" id="Fill-69" fill="#B9BEC3" sketch:type="MSShapeGroup"></path>
                <path d="M361.41034,252.584898 C364.052585,252.584898 365.879468,252.88133 367.57164,252.530572 C373.255539,251.354292 375.071787,253.924156 375.370753,259.267016 C375.588183,263.153699 374.521123,264.990159 370.618021,265.557041 C360.306647,267.055735 350.267061,269.729527 340.622157,273.655183 C337.112555,275.084197 336.346824,273.715414 335.73353,270.68614 C332.578434,255.111064 332.529985,255.115788 348.215657,253.710394 C352.898671,253.291138 357.585229,252.909674 361.41034,252.584898" id="Fill-71" fill="#B9BEC3" sketch:type="MSShapeGroup"></path>
                <path d="M353.699616,282.506804 C372.068892,275.997113 390.17938,275.196392 408.731817,276.315984 C401.178493,279.74798 392.883072,282.131245 386.233737,286.838726 C373.946588,295.539179 364.462393,289.662505 353.699616,282.506804" id="Fill-73" fill="#F18229" sketch:type="MSShapeGroup"></path>
                <path d="M397.086558,235.361496 C401.599409,239.562325 406.282422,243.420664 410.34387,247.848247 C414.076809,251.917985 412.29483,257.206519 411.706352,261.883293 C411.409749,264.244119 408.335007,263.116261 406.541211,263.082012 C396.967208,262.896594 396.97548,262.837544 396.964845,253.494625 C396.958936,247.803368 396.922304,242.112112 396.912851,236.420856 C396.912851,236.03703 397.036928,235.652023 397.086558,235.361496" id="Fill-75" fill="#B9BEC3" sketch:type="MSShapeGroup"></path>
                <path d="M248.03226,354.375715 C248.06771,354.226908 248.103161,354.076921 248.138612,353.928114 C248.075982,354.05212 248.012171,354.177306 247.94836,354.301311 C247.94836,354.302492 248.03226,354.375715 248.03226,354.375715" id="Fill-77" fill="#B9BEC3" sketch:type="MSShapeGroup"></path>
            </g>
        </g>
    </g>
</svg>