<?xml version="1.0" encoding="UTF-8" standalone="no"?>
<svg width="800px" height="800px" viewBox="0 0 800 800" version="1.1" xmlns="http://www.w3.org/2000/svg" xmlns:xlink="http://www.w3.org/1999/xlink" xmlns:sketch="http://www.bohemiancoding.com/sketch/ns">
    <!-- Generator: Sketch 3.4.4 (17249) - http://www.bohemiancoding.com/sketch -->
    <title>lakers</title>
    <desc>Created with Sketch.</desc>
    <defs>
        <path id="path-1" d="M0,0.340095465 L799.073621,0.340095465 L799.073621,500 L0,500"></path>
        <path id="path-3" d="M0,0.340095465 L799.073621,0.340095465 L799.073621,500 L0,500"></path>
        <path id="path-5" d="M0,0.340095465 L799.073621,0.340095465 L799.073621,500 L0,500"></path>
    </defs>
    <g id="Page-1" stroke="none" stroke-width="1" fill="none" fill-rule="evenodd" sketch:type="MSPage">
        <g id="lakers" sketch:type="MSArtboardGroup">
            <g id="Page-1" sketch:type="MSLayerGroup" transform="translate(0.000000, 150.000000)">
                <path d="M292.911237,121.424344 C287.96459,120.239379 283.011982,120.837232 278.138063,120.935084 C275.273085,120.992363 268.998271,118.552029 272.826587,126.081862 C273.14611,126.71074 272.496334,128.036516 271.992012,128.850358 C266.620924,137.522196 264.704978,148.275179 254.940447,155.701193 C267.072787,155.701193 277.912727,155.93747 288.732399,155.577088 C292.691863,155.44463 294.151177,152.078282 294.755648,147.878998 C288.646557,151.736993 282.662653,153.141527 275.200358,152.19284 C281.327332,141.852745 284.607213,130.575895 292.911237,121.424344 L292.911237,121.424344 Z M353.994993,153.282339 C358.781878,150.030549 362.139255,152.240573 365.735082,153.939857 C375.374426,158.498329 384.806319,156.352745 390.111833,148.631981 C394.129717,142.785919 393.177109,137.878998 387.237317,133.93747 C385.260566,132.627208 383.113323,131.534129 381.291565,130.040095 C379.233741,128.350358 378.872489,125.91599 379.884709,123.534129 C380.856393,121.248926 383.108554,121.598568 385.074575,121.618854 C389.984262,121.670167 392.793204,125.104535 395.682027,128.526969 C396.856393,126.554415 398.039106,124.812172 397.98307,122.344391 C395.05848,122.753699 392.789627,122.1642 390.44924,120.741766 C385.042385,117.456563 379.138361,117.170167 373.279642,119.45179 C368.464143,121.327685 365.545514,125.074702 364.987541,130.205967 C364.429568,135.344391 367.870402,138.117661 371.901401,140.297852 C372.947004,140.863484 374.049836,141.325298 375.07994,141.91599 C377.273681,143.173747 379.023905,144.801432 378.320477,147.629594 C377.631356,150.400477 375.320775,151.137947 372.84924,151.371838 C366.284709,151.994749 362.07845,148.621241 359.25997,142.42315 C356.583368,145.557995 355.108554,148.552029 353.994993,153.282339 L353.994993,153.282339 Z M325.14611,157.577088 C338.657884,157.610501 350.564888,147.318138 350.815261,135.390931 C351.006021,126.278759 343.077556,119.394511 332.366379,119.370644 C318.188137,119.339618 306.759225,128.850358 306.880835,140.578282 C306.980984,150.258473 314.818838,157.553222 325.14611,157.577088 L325.14611,157.577088 Z M550.885604,137.270406 C554.833145,141.032936 554.76161,144.461337 552.987541,147.796659 C551.504382,150.586635 548.549985,150.98401 545.711237,150.876611 C542.84149,150.768019 541.048346,149.141527 540.098122,146.365871 C537.948495,140.085442 542.216751,130.722673 549.1938,126.683294 C556.864739,122.242959 564.193502,123.22148 569.555052,129.765632 C570.661461,127.599761 572.524948,126.075895 572.540447,123.075895 C569.372638,123.72864 566.870104,122.143914 564.194694,120.972076 C555.649836,117.231026 547.177705,117.769212 538.938063,121.938663 C533.620626,124.629594 529.799463,128.895704 527.172936,134.197613 C524.09693,140.406444 525.067422,146.697613 529.74462,151.818138 C534.419434,156.935084 539.335082,157.688067 546.488584,155.035322 C549.408405,153.95179 551.720179,150.515036 555.640298,152.554415 C562.499314,156.124821 562.545812,156.043675 565.552668,148.762053 C566.537466,146.376611 567.40304,143.938663 568.487988,141.600955 C569.851923,138.660621 569.437019,137.131981 565.791118,137.239379 C561.236721,137.371838 556.675171,137.270406 550.885604,137.270406 L550.885604,137.270406 Z M449.637317,244.605728 C459.264739,226.213126 468.447452,208.654654 477.661162,191.112888 C478.194098,190.098568 478.750879,189.109308 480.056393,188.661814 C491.746408,184.653461 505.178301,191.843198 508.389031,203.808592 C510.388435,211.257279 509.539553,218.808592 509.547899,226.345585 C509.550283,228.226253 507.31839,230.938663 510.630462,231.95179 C513.664739,232.880191 514.697228,230.277566 515.777407,228.137947 C521.321371,217.148687 526.873681,206.163007 532.391416,195.159427 C536.576215,186.813365 535.292161,184.833652 525.717198,184.832458 C480.218539,184.826492 434.719881,184.828878 389.222414,184.832458 C387.633145,184.832458 386.035529,184.775179 384.45699,184.912411 C382.624501,185.072315 380.472489,185.560382 380.496334,187.69642 C380.516602,189.593795 382.654307,189.498329 384.211386,189.858711 C390.30617,191.266826 392.013472,195.342005 388.948197,200.912411 C387.161013,204.157041 384.117198,206.143914 381.332101,208.358711 C363.6093,222.45895 345.893651,236.567542 328.077854,250.547255 C325.723159,252.395704 325.075768,254.031742 325.748197,257.036516 C329.606319,274.269212 333.221222,291.557995 336.85997,308.840811 C337.938957,313.96611 340.987541,316.001909 346.167869,315.989976 C385.109151,315.901671 424.051624,315.91957 462.992906,315.972076 C467.639106,315.978043 470.805723,314.173747 473.111535,310.054415 C479.221818,299.136754 485.62301,288.381384 491.792906,277.497136 C492.660864,275.96611 495.215857,274.057995 493.115112,272.445823 C491.151475,270.938663 488.94462,272.975656 487.500805,274.541289 C483.598569,278.773986 479.925246,283.215513 476.106468,287.525776 C462.49693,302.888544 446.741341,313.679714 424.920775,311.566348 C417.484709,310.846778 416.480835,309.219093 419.721371,302.677327 C426.949985,288.091408 434.194098,273.513842 441.444173,258.938663 C445.965186,249.850358 446.922563,249.362291 456.924352,250.865871 C463.625991,251.874224 465.788733,254.324105 465.541937,261.270406 C465.408405,265.019809 464.758629,268.752506 464.342534,272.492363 C464.69544,272.593795 465.049538,272.69642 465.402444,272.797852 C473.748197,258.052029 482.093949,243.306205 490.439702,228.559189 C489.952072,228.18926 489.464441,227.818138 488.976811,227.447017 C484.201848,233.009069 479.448346,238.618854 472.761013,241.845585 C465.712429,245.246539 458.220328,245.278759 449.637317,244.605728 L449.637317,244.605728 Z M442.84149,129.894511 C442.520775,129.729833 442.017645,129.342005 441.905574,129.43389 C434.903487,135.17136 427.904978,140.882578 417.324948,137.917184 C418.948793,142.917184 422.891565,140.18926 425.049538,142.870644 C419.668912,146.109308 416.491565,152.333652 409.334486,152.6642 C408.548793,152.7 407.672489,152.95537 407.616453,153.936277 C407.541341,155.227446 408.611982,155.622434 409.558629,155.636754 C414.913025,155.713126 420.273383,155.814558 425.621818,155.621241 C427.463845,155.555609 428.929121,154.092601 426.609001,152.723866 C421.353562,149.626014 424.367571,147.168974 426.749687,144.310979 C429.626587,140.862291 433.450134,141.523389 437.179493,141.429117 C441.656393,141.316945 446.08918,141.271599 448.474873,146.074702 C450.777109,150.708353 445.519285,151.762053 443.721371,155.242959 L478.386051,155.242959 C474.551773,149.593795 478.080835,139.042482 486.467124,130.404057 C490.246557,137.746539 493.844769,144.991169 497.679046,152.108115 C500.52614,157.392124 505.502593,157.389737 508.572638,152.158234 C511.685604,146.857518 514.487392,141.373031 517.640894,136.097375 C520.702593,130.97685 522.176215,124.633174 529.688584,121.589021 C523.361311,120.510263 518.482623,120.614081 512.710939,121.339618 C520.20304,126.793079 519.770253,130.606921 511.25997,140.819332 C507.404232,135.2 503.935976,129.401671 499.729717,124.201193 C494.334784,117.532936 486.969061,122.148687 480.043279,121.322912 C483.713025,123.750119 482.452817,126.253699 481.155648,128.775179 C478.1631,134.593795 475.184858,140.41957 472.195887,146.240573 C471.361311,147.864678 470.465931,149.470883 468.280537,149.327685 C466.025991,149.179714 465.56459,147.407637 465.025693,145.647494 C462.823607,138.447017 460.462951,131.291885 458.39082,124.055609 C457.620626,121.364678 456.27696,119.173747 453.546706,120.450597 C449.137765,122.513842 444.627481,124.849165 442.76161,129.968496 L442.84149,129.894511 Z M171.091863,375.617661 C168.214963,370.284726 165.338063,364.950597 162.45997,359.617661 C169.991416,346.803819 177.748197,334.114081 184.925544,321.103341 C187.203934,316.972076 189.748197,315.815752 194.242981,315.839618 C229.574128,316.023389 264.90766,315.942243 300.241192,315.93747 C301.828077,315.93747 303.426885,315.998329 304.998271,315.826492 C306.384858,315.673747 307.871595,315.259666 308.006319,313.525776 C308.145812,311.744153 306.686498,311.1821 305.328525,310.873031 C302.356244,310.19642 299.532996,309.474463 298.366975,306.112888 C296.699016,301.307399 297.180686,296.778759 299.671297,292.362291 C317.795887,260.219093 335.894247,228.061575 354.008107,195.912411 C355.48769,193.287112 357.062653,190.795465 360.385455,190.130788 C361.916304,189.824105 363.901401,189.370644 363.786945,187.435084 C363.652221,185.1642 361.454903,184.912411 359.708256,184.905251 C344.423607,184.844391 329.140149,184.849165 313.856692,184.901671 C312.083815,184.907637 309.797079,185.188067 309.595589,187.270406 C309.357139,189.719093 311.788137,189.43389 313.466826,189.827685 C319.100209,191.149881 319.982474,193.059189 317.234337,198.194033 C314.332399,203.615274 311.034635,208.839618 308.406915,214.386158 C306.549389,218.307399 303.995589,220.814558 299.753562,221.584248 C295.529419,220.797852 291.369657,220.842005 287.33389,222.800239 L299.721371,222.800239 C303.096632,225.896897 300.50468,228.67852 299.075171,231.299045 C286.634039,254.109308 274.109449,276.874224 261.571744,299.631981 C260.721669,301.17494 259.687988,302.660621 258.514814,303.970883 C257.051923,305.602148 255.034635,305.91957 253.036423,305.201193 C251.045365,304.48401 250.729419,302.624821 250.710343,300.777566 C250.694844,299.190453 250.690075,297.585442 250.898718,296.018616 C253.438212,276.947017 256.021818,257.881384 258.586349,238.812172 C260.728823,222.888544 262.8093,206.95537 265.030462,191.042482 C265.689776,186.325298 263.99082,184.479236 259.200358,184.765632 C254.256095,185.059189 249.255797,185.141527 244.325842,184.745346 C239.033443,184.320525 235.12763,185.790692 232.358033,190.507876 C229.335678,195.657041 225.25699,199.436277 218.684113,199.040095 C213.298718,197.888544 207.999165,198.327685 202.759225,200.026969 L218.65073,200.026969 C222.691267,200.538902 223.298122,202.123628 220.622712,205.334845 C216.182772,210.66778 211.73687,216.023389 207.722563,221.67494 C203.786945,227.216706 199.664143,231.936277 192.020626,231.057995 C192.000358,231.055609 191.908554,231.679714 191.854903,231.982816 C193.475171,233.111695 195.878748,231.443437 197.693353,234.117661 C191.652221,241.716706 185.422712,249.350358 179.447154,257.177327 C177.280835,260.015036 174.712727,261.102148 171.306468,261.047255 C165.812578,260.960143 160.316304,261.024582 154.821222,261.024582 C159.505574,262.414797 164.191118,262.386158 168.876662,262.432697 C170.397973,262.447017 172.332996,261.975656 172.997079,263.889737 C173.510939,265.369451 172.100507,266.390931 171.251624,267.454177 C162.837914,277.995943 154.424203,288.536516 145.979493,299.053222 C145.026885,300.239379 144.353264,301.888544 142.397973,301.809785 C139.753562,287.222673 137.78158,272.554415 137.148495,257.726253 C137.295142,255.503103 138.103487,253.498329 139.140745,251.560382 C160.154158,212.253699 181.218838,172.975656 202.111833,133.605728 C204.986349,128.190453 208.890969,125.851551 214.967869,126.129594 C221.293949,126.41957 227.651028,126.226253 233.986647,126.001909 C235.635529,125.942243 238.134486,125.504296 238.040298,123.362291 C237.950879,121.308592 235.56161,120.979236 233.800656,120.927924 C229.047154,120.790692 224.285306,120.91957 219.530611,120.821718 C204.292459,120.506683 189.037615,121.548449 173.812578,120.273986 C177.292757,114.887351 180.772936,109.500716 184.251923,104.112888 C188.405723,102.532936 190.678152,98.9279236 193.211684,95.6522673 C205.310641,80.0102625 218.87845,65.8694511 235.037019,54.350358 C247.933592,45.1546539 251.711833,45.6009547 262.370551,57.5842482 C262.634039,57.8801909 262.834337,58.2429594 263.126438,58.5031026 C266.021222,61.0878282 265.445365,62.5747017 262.102295,64.5591885 C248.25073,72.7811456 235.426885,82.5198091 222.816453,92.5042959 C219.813174,94.8825776 213.658778,97.7023866 216.189925,101.294272 C218.214367,104.165394 222.814069,98.9995227 225.760119,96.7274463 C238.35386,87.0174224 251.417347,78.0174224 264.842086,69.4995227 C268.601252,67.1140811 270.560119,68.0412888 271.983666,71.7871122 C272.477258,73.0854415 273.059076,74.3622912 273.409598,75.6988067 C275.38158,83.222673 275.338659,90.6427208 271.956244,97.8085919 C271.354158,99.0854415 270.231058,100.668974 271.597377,101.538902 C273.43225,102.70716 274.21079,100.544869 275.163398,99.4231504 C277.693353,96.4422434 278.951177,92.8706444 279.306468,89.0675418 C279.940745,82.2739857 279.759523,75.402864 276.830164,69.1749403 C274.946408,65.1725537 276.286498,63.6988067 279.634337,61.9875895 C291.003636,56.177327 303.084709,52.4398568 315.224203,48.6809069 C321.159225,46.8431981 323.025097,48.7596659 324.756244,54.0675418 C330.045067,70.2811456 335.820328,86.3372315 341.508554,102.418377 C342.315708,104.701193 343.162206,108.802625 345.644471,107.906444 C348.453413,106.892124 346.096334,103.424344 345.385753,101.146301 C340.127928,84.2942721 334.91541,67.425537 329.364292,50.6701671 C328.130313,46.9458234 328.544024,45.3288783 332.459374,44.3599045 C340.750283,42.3097852 349.09842,40.6224344 357.535976,39.327685 C361.09842,38.7811456 363.633145,38.7906921 363.004829,43.8682578 C362.303785,49.5377088 364.876662,54.4195704 368.947004,58.2310263 C372.11839,61.2011933 375.507958,64.0782816 379.211088,66.3169451 C401.11392,79.5603819 423.122861,92.628401 445.150879,105.663007 C446.725842,106.594988 448.414069,108.105728 450.947601,106.97327 C449.782772,103.153461 446.419434,101.711933 443.496036,99.9708831 C430.711535,92.3563246 417.810194,84.9362768 405.063845,77.2584726 C395.721371,71.6307876 385.991416,66.5663484 377.524054,59.5949881 C372.67994,55.6069212 369.061461,50.9231504 368.609598,44.1128878 C368.260268,38.8408115 370.284709,37.0377088 375.263547,36.9804296 C389.354754,36.8181384 403.424501,36.3968974 417.503785,37.8420048 C466.980984,42.9231504 511.662951,60.4720764 552.094545,89.2131265 C557.090075,92.7644391 561.084113,97.6534606 566.77234,100.291885 C573.627779,110.330072 580.662057,120.253699 586.494545,130.947017 C582.814069,139.964916 579.870402,149.45895 570.415857,155.310979 C580.220924,156.731026 589.704083,154.557995 598.975022,156.521002 C602.117794,165.651074 605.261759,174.781146 608.405723,183.910024 C606.506468,185.561575 604.217347,184.784726 602.116602,184.794272 C587.215857,184.868258 572.31392,184.830072 557.413174,184.839618 C555.207511,184.840811 552.178003,184.838425 551.900209,187.176134 C551.528227,190.288305 554.831952,189.43747 556.769359,189.832458 C563.200358,191.143914 564.901699,194.769212 561.743428,200.652267 C559.771446,204.325298 557.247452,207.771599 555.771446,211.627208 C551.7631,222.096181 545.284411,228.036516 533.364292,225.464916 C532.850432,225.353938 532.235231,225.713126 531.364888,225.927924 C534.56608,227.636754 537.825693,226.526969 540.890969,227.126014 C544.848048,227.899284 546.132101,229.271599 543.872787,233.071122 C540.728823,238.362291 537.33687,243.589021 534.939255,249.222673 C531.027481,258.413604 525.84,264.873031 514.605425,262.512649 C514.372936,262.463723 514.048644,262.855131 513.729121,263.067542 C515.348197,264.312172 517.198569,263.698807 518.921371,263.756086 C525.643279,263.975656 526.157139,264.740573 523.044173,270.450597 C518.482623,278.819332 513.71839,287.083055 509.334486,295.543675 C505.081729,303.756086 501.37383,312.333652 489.680238,311.072315 C488.336572,310.92673 486.560119,311.630788 486.599463,313.236993 C486.644769,315.093795 488.452221,315.739379 490.083219,315.824105 C493.055499,315.979236 496.039702,315.932697 499.017943,315.93389 C514.3169,315.939857 529.615857,315.94821 544.914814,315.91599 C546.86772,315.912411 549.200954,316.024582 549.769657,313.584248 C550.142832,311.988783 548.449836,311.421957 547.181282,310.801432 C540.678748,307.623628 539.860864,305.269212 543.282623,298.726253 C551.01079,283.94821 558.840298,269.22148 566.610194,254.464916 C569.838808,248.333652 575.187243,247.542482 580.160119,252.563962 C582.585156,255.013842 583.992012,258.093795 585.122265,261.302625 C588.387839,270.567542 589.001848,280.324105 590.406319,289.93389 C590.674575,291.770406 589.899613,292.992363 588.249538,293.726253 L566.392012,293.726253 C566.382474,294.314558 566.374128,294.902864 566.36459,295.491169 L588.25073,295.491169 C591.739255,296.16778 591.404232,299.036516 591.734486,301.543675 C592.485604,307.247733 592.951773,313.011456 594.114218,318.630788 C595.221818,323.98401 593.617049,325.838425 588.156542,325.557995 C581.045961,325.19284 573.904382,325.468496 566.775917,325.468496 C566.78307,325.987589 566.790224,326.506683 566.798569,327.025776 C574.700805,327.025776 582.604232,327.023389 590.50766,327.028162 C592.690671,327.029356 595.399463,326.711933 596.160119,329.216706 C597.357139,333.163007 599.918092,336.676134 599.949091,340.98401 C595.424501,350.503103 590.899911,360.022196 586.380089,369.541289 C584.003934,371.154654 582.598271,373.544869 581.197377,375.961337 C555.400656,420.447017 518.132101,451.932697 471.648644,473.078282 C466.780686,475.293079 464.685902,474.905251 462.909449,469.321718 C448.894545,425.276372 434.560119,381.332458 420.279344,337.370644 C419.62003,335.338425 419.741639,332.629594 416.709747,331.814558 C415.925246,335.598568 417.468018,338.72148 418.467124,341.882578 C431.430462,382.92673 444.429568,423.95895 457.463249,464.979236 C461.378599,477.300239 461.392906,477.139141 449.251028,481.092601 C416.178003,491.864678 382.324054,493.087828 348.00155,490.18568 C339.52465,489.46969 333.738659,485.573508 328.503487,479.418377 C292.553562,437.149881 265.152072,390.223866 250.07845,336.487589 C249.333294,333.826492 249.054307,328.908831 245.899613,329.875418 C242.672191,330.863484 245.37383,335.077088 246.128525,337.673747 C259.919285,385.183294 283.097824,427.861098 312.8862,467.115274 C317.406021,473.069928 321.907958,479.037709 326.674575,485.339618 C325.416751,485.562768 324.84924,485.809785 324.334188,485.727446 C322.77234,485.478043 321.218838,485.146301 319.682027,484.766826 C270.238212,472.552029 230.045067,445.457757 196.099314,408.137947 C186.845067,397.964916 179.610492,386.314558 171.091863,375.617661 L171.091863,375.617661 Z" id="Fill-1" fill="#FBC62F" sketch:type="MSShapeGroup"></path>
                <g id="Group-5">
                    <mask id="mask-2" sketch:name="Clip 4" fill="white">
                        <use xlink:href="#path-1"></use>
                    </mask>
                    <g id="Clip-4"></g>
                    <path d="M184.178718,259.831504 C197.227899,259.831504 208.528048,259.727685 219.823428,259.894749 C223.22611,259.944869 224.21687,258.475895 224.610313,255.395943 C225.463964,248.709785 226.668137,242.068974 227.712548,235.406683 C229.750104,222.411456 231.775738,209.415036 233.80614,196.418616 C233.407928,196.244391 233.008525,196.068974 232.610313,195.893556 C216.773651,216.800477 200.93699,237.707399 184.178718,259.831504 M145.887213,316.705012 C133.812101,316.733652 121.73699,316.770644 109.661878,316.781384 C107.26307,316.783771 105.206438,316.715752 103.782891,319.518854 C99.3071833,328.331504 94.5310283,336.993795 89.7572578,345.651313 C87.6386289,349.494988 89.5736513,350.798091 92.9608346,350.973508 C97.6988376,351.219332 102.454724,351.263484 107.199881,351.196659 C123.593323,350.965155 139.580209,349.086874 153.498539,339.230072 C155.97842,339.283771 157.382891,337.400716 159.029389,336.046301 C169.534307,327.400716 177.701222,316.572554 186.550104,306.38043 C188.631773,303.984248 190.783785,301.646539 192.989449,299.364916 C193.824024,298.502148 195.029389,297.788544 196.173949,298.623866 C197.524769,299.609547 196.452936,300.824344 195.955768,301.776611 C193.982593,305.558234 191.897347,309.281384 189.052638,314.493795 C194.744441,312.897136 198.961431,311.975895 202.990045,310.528401 C209.995708,308.011695 214.626408,303.545107 215.643398,295.563007 C216.820149,286.31957 218.50003,277.12148 220.431475,268.003341 C221.264858,264.066587 219.809121,263.700239 216.612697,263.737232 C206.085127,263.85895 195.552787,263.904296 185.026408,263.707399 C182.013592,263.651313 180.343249,264.923389 178.699136,267.151313 C172.446975,275.623866 166.025514,283.971122 159.730432,292.411456 C153.785872,300.381623 156.384978,307.693079 166.064858,310.475895 C167.898539,311.003341 170.77544,310.954415 170.60614,313.399523 C170.412996,316.203819 167.500328,315.786158 165.379314,315.938902 C158.889896,316.406683 152.326557,314.984248 145.887213,316.705012 M218.683636,199.040334 C225.257705,199.436516 229.335201,195.657279 232.358748,190.508115 C235.128346,185.790931 239.034158,184.320764 244.326557,184.745585 C249.256513,185.141766 254.256811,185.059427 259.201073,184.764678 C263.991535,184.479475 265.6893,186.325537 265.031177,191.042721 C262.808823,206.955609 260.728346,222.888783 258.587064,238.812411 C256.021341,257.88043 253.437735,276.947255 250.898241,296.018854 C250.689598,297.58568 250.694367,299.190692 250.711058,300.776611 C250.730134,302.623866 251.044888,304.484248 253.037139,305.200239 C255.034158,305.919809 257.052638,305.602387 258.514337,303.971122 C259.688703,302.660859 260.722385,301.175179 261.572459,299.63222 C274.110164,276.874463 286.633562,254.109547 299.074694,231.299284 C300.504203,228.678759 303.096155,225.897136 299.722086,222.800477 C299.732817,222.394749 299.743547,221.990215 299.753085,221.584487 C303.995112,220.814797 306.548912,218.307637 308.406438,214.386396 C311.034158,208.839857 314.331923,203.615513 317.23386,198.194272 C319.983189,193.059427 319.099732,191.148926 313.467541,189.827924 C311.78766,189.434129 309.357854,189.719332 309.595112,187.270644 C309.796602,185.188305 312.084531,184.907876 313.856215,184.901909 C329.139672,184.849403 344.424322,184.843437 359.707779,184.905489 C361.454426,184.912649 363.651744,185.163246 363.786468,187.435322 C363.902116,189.370883 361.915827,189.824344 360.384978,190.129833 C357.062176,190.794511 355.487213,193.287351 354.008823,195.912649 C335.894963,228.061814 317.796602,260.219332 299.67082,292.361337 C297.180209,296.778998 296.699732,301.307637 298.366498,306.113126 C299.532519,309.473508 302.355768,310.196659 305.328048,310.87327 C306.686021,311.182339 308.145335,311.744391 308.005842,313.526014 C307.871118,315.259905 306.384382,315.673986 304.997794,315.82673 C303.427601,315.998568 301.827601,315.937709 300.240715,315.937709 C264.908376,315.942482 229.574844,316.022434 194.242504,315.839857 C189.74772,315.81599 187.203458,316.972315 184.925067,321.102387 C177.74772,334.113126 169.990939,346.804057 162.459493,359.6179 C151.15696,360.636993 139.828197,360.040334 128.513741,360.039141 C89.1766319,360.034368 49.8395231,359.889976 10.5036066,359.693079 C7.19272727,359.676372 1.58199702,361.046301 1.61418778,356.60358 C1.64876304,351.681146 7.37275708,353.252745 10.8648584,353.148926 C17.8132936,352.941289 24.7712668,353.11432 31.7256632,353.079714 C38.0338599,353.048687 46.3879583,344.663246 46.4511475,338.456802 C46.4738003,336.286158 44.9322206,336.423389 43.6207452,336.37685 C40.048763,336.250358 36.4720119,336.257518 32.8976453,336.190692 C31.8615797,336.171599 30.6860209,335.903103 30.7170194,334.726492 C30.7444411,333.681146 31.77693,333.169212 32.8881073,333.205012 C33.4830402,333.222912 34.0946647,333.187112 34.6705216,333.306444 C46.5024143,335.757518 53.0156781,330.13222 56.8702235,319.423389 C58.8326677,313.971122 59.0091207,313.300477 53.1253651,313.255131 C37.429389,313.134606 21.7310283,313.245585 6.03505216,313.166826 C4.00822653,313.156086 1.59272727,314.098807 -0.000119225037,311.6179 C1.44727273,309.08568 3.89615499,310.194272 5.84309985,310.182339 C21.9372876,310.08568 38.0326677,310.015274 54.1256632,310.191885 C59.4681371,310.250358 63.0496572,308.701432 65.3173174,303.436516 C67.900924,297.442482 71.2404173,291.756325 74.5000298,286.07852 C76.9751416,281.768258 75.5074814,280.514081 71.0711177,280.455609 C67.4395231,280.409069 63.6815499,281.237232 59.5194039,279.535561 C62.4892996,276.436516 65.8383308,277.62148 68.5840835,277.835084 C76.0559165,278.415036 81.2207452,275.944869 83.8556185,268.626253 C84.7879583,266.036754 86.3557675,263.673986 87.6517437,261.216945 C91.3083756,254.283771 91.2165723,254.102387 83.0890015,254.070167 C73.7501043,254.031981 64.4100149,254.133413 55.0735022,253.981862 C53.6749925,253.957995 50.8374367,255.34105 51.02462,252.435322 C51.1509985,250.491408 53.572459,251.432936 55.062772,251.411456 C66.3760358,251.251551 77.6928763,251.894749 89.0061401,251.07136 C92.1417586,250.842243 93.9551714,249.588067 95.3894486,246.761098 C99.9688823,237.736038 104.879762,228.879236 109.572459,219.910263 C112.609121,214.109547 112.094069,213.345823 105.298241,213.312411 C96.3575559,213.269451 87.4144858,213.36253 78.4749925,213.250358 C76.6830402,213.228878 73.553383,214.317184 73.4520417,211.776611 C73.3387779,208.971122 76.4934724,210.153699 78.2067362,210.133413 C88.1405663,210.014081 98.0815499,209.885203 108.009419,210.153699 C113.062176,210.289737 116.228793,208.421002 118.274694,203.835084 C119.96769,200.039141 122.017168,196.379236 124.165604,192.814797 C126.681252,188.639379 125.56769,187.083294 120.86307,187.393556 C119.363219,187.492601 117.651148,187.87685 116.343249,186.177566 C117.08006,183.792124 119.25234,184.540334 120.675887,184.710979 C126.736095,185.441289 130.24608,182.790931 132.579314,177.295704 C134.666945,172.382816 137.467541,167.764678 140.086915,163.090453 C141.536692,160.505728 140.92149,159.536754 138.018361,159.58926 C134.045782,159.662053 130.07082,159.60716 126.097049,159.5821 C124.892876,159.57494 123.383487,159.506921 123.354873,158.015274 C123.326259,156.503341 124.832072,156.406683 126.036244,156.398329 C130.010015,156.370883 133.983785,156.407876 137.957556,156.368496 C142.898241,156.31957 149.489001,149.836277 149.419851,145.027208 C149.373353,141.795704 146.724173,142.639379 144.998987,142.619093 C135.662474,142.509308 126.322385,142.60716 116.983487,142.523628 C115.371565,142.509308 112.580507,143.36969 112.579314,140.983055 C112.578122,138.479475 115.388256,139.554654 116.940566,139.537947 C127.073502,139.432936 137.20763,139.431742 147.340566,139.514081 C150.525067,139.539141 153.23386,139.11074 154.73848,135.804057 C155.705395,133.679952 157.739374,131.731265 156.315827,129.234845 C154.926855,126.796897 152.271714,127.079714 149.895559,127.059427 C144.134605,127.010501 138.353383,127.263484 132.621043,126.847017 C129.979016,126.654893 125.431773,127.520048 125.517615,123.397136 C125.602265,119.342243 129.919404,120.263484 132.689001,120.245585 C146.397496,120.159666 160.107183,120.247971 173.814486,120.275418 C189.038331,121.548687 204.291982,120.505728 219.530134,120.820764 C224.286021,120.919809 229.046677,120.790931 233.800179,120.928162 C235.562325,120.979475 237.950402,121.308831 238.041013,123.361337 C238.135201,125.504535 235.635052,125.942482 233.98617,126.000955 C227.651744,126.226492 221.293472,126.418616 214.967392,126.129833 C208.890492,125.85179 204.985872,128.189499 202.112548,133.605967 C181.218361,172.974702 160.154873,212.253938 139.140268,251.559427 C138.104203,253.498568 137.294665,255.503341 137.14921,257.726492 C127.799583,274.992601 118.448763,292.258711 108.554277,310.530788 C121.181401,308.921002 132.380209,307.718138 142.397496,301.810024 C144.353979,301.887589 145.026408,300.239618 145.979016,299.053461 C154.423726,288.536754 162.837437,277.994988 171.25234,267.454415 C172.10003,266.391169 173.510462,265.36969 172.996602,263.889976 C172.332519,261.975895 170.397496,262.447255 168.876185,262.431742 C164.191833,262.386396 159.506289,262.415036 154.820745,261.024821 C160.315827,261.024821 165.812101,260.960382 171.305991,261.047494 C174.71225,261.102387 177.28155,260.015274 179.447869,257.177566 C185.422235,249.349403 191.651744,241.716945 197.694069,234.1179 C195.878271,231.443675 193.474694,233.111933 191.855618,231.983055 C191.90927,231.679952 192.001073,231.055847 192.021341,231.058234 C199.663666,231.936516 203.786468,227.216945 207.723279,221.675179 C211.736393,216.023628 216.182295,210.666826 220.623428,205.335084 C223.297645,202.123866 222.691982,200.539141 218.650253,200.027208 C218.641908,199.697852 218.652638,199.368496 218.683636,199.040334" id="Fill-3" fill="#683186" sketch:type="MSShapeGroup" mask="url(#mask-2)"></path>
                </g>
                <g id="Group-8">
                    <mask id="mask-4" sketch:name="Clip 7" fill="white">
                        <use xlink:href="#path-3"></use>
                    </mask>
                    <g id="Clip-7"></g>
                    <path d="M609.94456,190.692363 C605.644113,186.775895 602.342772,188.478759 599.947541,192.796181 C592.346945,206.500239 584.897765,220.287828 577.397317,234.046778 C576.841729,235.064678 575.930849,235.999045 576.362444,237.317661 C577.385395,240.441766 588.568703,245.051551 591.543368,243.509785 C603.196423,237.476372 609.657228,227.236516 614.012519,215.373747 C614.613413,213.736516 614.740984,211.848687 613.489121,210.254415 C618.353502,204.092124 616.631893,194.592124 609.94456,190.692363 M599.948733,340.984726 C599.918927,336.67685 597.357973,333.16253 596.159762,329.217422 C595.399106,326.711456 592.690313,327.028878 590.507303,327.027685 C582.603875,327.022912 574.701639,327.025298 566.798212,327.025298 C566.791058,326.506205 566.782712,325.987112 566.775559,325.469212 C573.904024,325.469212 581.046796,325.193556 588.156185,325.557518 C593.616692,325.837947 595.222653,323.983532 594.115052,318.63031 C592.952608,313.010979 592.485246,307.247255 591.734128,301.544391 C591.403875,299.037232 591.740089,296.167303 588.250373,295.491885 C588.250373,294.90358 588.24918,294.315274 588.24918,293.725776 C589.900447,292.993079 590.674218,291.769928 590.405961,289.933413 C589.00149,280.323628 588.387481,270.567064 585.1231,261.302148 C583.991654,258.093317 582.584799,255.013365 580.159762,252.564678 C575.186885,247.543198 569.83845,248.333174 566.611028,254.464439 C558.83994,269.221002 551.011624,283.947733 543.282265,298.725776 C539.860507,305.268735 540.67839,307.62315 547.180924,310.800955 C548.450671,311.42148 550.142474,311.988305 549.770492,313.584964 C549.200596,316.024105 546.868554,315.911933 544.914456,315.916706 C529.615499,315.947733 514.316542,315.939379 499.018778,315.933413 C496.039344,315.93222 493.055142,315.979952 490.082861,315.823628 C488.453055,315.738902 486.644411,315.094511 486.599106,313.237709 C486.559762,311.631504 488.336215,310.927446 489.679881,311.071838 C501.373472,312.333174 505.081371,303.755609 509.33532,295.543198 C513.718033,287.082578 518.482265,278.818854 523.043815,270.450119 C526.156781,264.740095 525.642921,263.976372 518.922206,263.755609 C517.198212,263.699523 515.347839,264.311695 513.728763,263.067064 C514.049478,262.854654 514.37377,262.463246 514.605067,262.512172 C525.839642,264.873747 531.027124,258.413126 534.938897,249.222196 C537.337705,243.588544 540.728465,238.361814 543.873621,233.070644 C546.131744,229.271122 544.84769,227.9 540.890611,227.12673 C537.826528,226.527685 534.566915,227.636277 531.364531,225.92864 C532.234873,225.713842 532.850075,225.354654 533.363934,225.465632 C545.284054,228.036038 551.763934,222.095704 555.771088,211.627924 C557.248286,207.772315 559.771088,204.324821 561.74307,200.65179 C564.901341,194.769928 563.201192,191.143437 556.769001,189.831981 C554.831595,189.436993 551.529061,190.287828 551.899851,187.175656 C552.177645,184.839141 555.207154,184.840334 557.412817,184.839141 C572.313562,184.830788 587.215499,184.86778 602.116244,184.794988 C604.21699,184.784248 606.507303,185.562291 608.405365,183.91074 C615.738897,183.723389 623.098659,183.38926 630.245007,185.509785 C640.970492,188.693556 650.118629,193.9 652.99076,205.762768 C655.916542,217.848687 651.109389,227.520525 642.500149,235.607637 C635.058122,242.598091 626.470343,247.855847 616.938301,251.545585 C611.842623,252.567064 606.745753,253.589737 600.935917,254.755609 C606.110283,262.087351 610.844709,268.796181 615.580328,275.506205 C621.863487,284.938186 626.463189,295.284248 632.22772,306.598091 C632.315946,302.218616 639.765127,301.025298 634.057824,296.111217 C632.894188,295.110024 634.776751,294.010979 635.908197,294.059905 C639.870045,294.231742 641.301937,291.320048 643.011624,288.63031 C647.135618,282.143437 651.298957,275.679236 655.470641,269.167303 C658.245007,270.822434 656.872727,272.578998 656.475708,274.13389 C654.689717,281.132697 653.89687,288.205489 654.872131,295.39642 C656.382712,306.531265 663.288227,312.703103 674.496572,313.032458 C688.614009,313.447733 696.391058,309.243675 700.26468,299.302148 C701.497466,296.13747 701.921908,293.8821 697.288823,294.408353 C696.113264,294.542005 694.562146,294.398807 694.49538,292.91074 C694.4,290.748449 696.350522,291.212649 697.574963,291.260382 C702.624143,291.453699 702.507303,288.466826 701.520119,284.987112 C699.195231,276.785442 694.537109,269.909547 689.137407,263.475179 C687.406259,261.413126 684.988376,261.408353 682.574069,261.411933 C674.229508,261.423866 665.884948,261.444153 657.540387,261.394033 C655.648286,261.3821 653.61073,261.88926 650.690909,259.617184 C662.057824,257.18401 672.728465,260.12673 684.154993,257.329594 C677.000298,250.682816 674.969896,239.037232 661.723994,242.446539 C662.243815,240.744869 662.290313,240.132697 662.461997,240.095704 C669.81699,238.515752 669.776453,238.530072 668.315946,230.689976 C667.251267,224.972792 666.763636,219.14821 668.640238,213.578998 C670.112668,209.209069 671.632787,205.479952 664.608048,206.049165 C664.717735,205.213842 664.786885,204.507399 664.811923,204.508592 C671.385991,204.911933 674.528763,200.710263 678.210432,195.968019 C690.420268,180.241289 719.087928,176.108831 737.56304,187.888067 C745.352012,192.854654 752.541282,193.108831 760.661699,190.774702 C762.676602,190.194749 764.994337,188.703103 766.69687,190.938186 C768.200298,192.911933 766.318927,194.691169 765.406855,196.337947 C759.257228,207.452506 753.065872,218.545585 746.791058,229.589737 C745.81699,231.303341 745.305514,234.326014 742.26766,233.112411 C739.49687,232.003819 740.764232,229.411933 740.877496,227.334368 C740.909687,226.741289 741.021759,226.150597 741.124292,225.563484 C742.564531,217.261575 742.564531,217.261575 735.120119,215.090931 C734.990164,214.15179 735.412221,213.581384 736.318331,213.433413 C742.819672,212.372554 743.624441,211.084964 741.754993,204.688783 C738.355887,193.065871 723.788972,186.205489 711.015201,190.209069 C701.161252,193.297375 696.548435,204.510979 700.412519,216.405967 C703.424143,225.674463 709.167213,233.221002 715.79851,240.199523 C725.251863,250.147017 732.56155,261.310501 735.172578,275.099284 C737.300745,286.337947 734.106706,296.093317 726.355887,304.111217 C711.762742,319.207876 693.977943,323.098091 673.925484,317.984726 C667.755589,316.411933 661.710879,314.505012 656.168107,311.284248 C653.69538,309.847494 651.039046,309.192363 648.214605,309.160143 C637.210134,309.036038 634.870939,312.068258 637.925484,322.408353 C638.656334,324.880907 639.241729,327.39642 639.960656,329.87136 C648.671237,359.87494 674.937705,374.058711 707.39076,366.193556 C717.512966,363.740095 726.937705,359.62315 735.285842,353.299761 C736.580626,352.318854 739.072429,351.649403 738.318927,349.501432 C737.703726,347.746062 735.506408,348.761575 734.016095,348.532458 C732.716542,348.334368 731.195231,348.978759 730.01848,347.16611 C732.795231,344.558711 736.26468,345.756802 739.27392,345.848687 C743.323994,345.972792 746.42623,344.753222 749.486736,342.14463 C758.272429,334.65895 765.746647,326.058711 772.553204,316.784248 C770.057824,314.993079 765.224441,317.614797 765.307899,314.768735 C765.406855,311.439379 769.863487,313.544391 772.357675,313.049165 C774.608644,312.602864 776.435171,311.826014 777.904024,309.985919 C782.628912,304.070644 786.798212,297.822434 790.328465,291.106444 C792.600894,286.784248 791.879583,284.858234 786.745753,285.243675 C785.471237,285.339141 783.936811,285.686396 782.700447,283.472792 C787.453949,280.706683 795.519523,285.841527 797.087332,276.803341 C800.414903,280.074224 798.789866,282.725776 797.735917,284.707876 C776.239642,325.187589 748.059613,359.008592 703.982116,376.174463 C660.714158,393.025298 618.501341,373.280668 599.948733,340.984726" id="Fill-6" fill="#673087" sketch:type="MSShapeGroup" mask="url(#mask-4)"></path>
                </g>
                <path d="M529.13538,66.727685 C529.005425,66.8720764 528.784858,67.0140811 528.80155,67.1167064 C528.844471,67.3732697 528.995887,67.6107399 529.103189,67.8565632 C529.223607,67.7396181 529.456095,67.6059666 529.440596,67.5093079 C529.401252,67.2527446 529.255797,67.0128878 529.13538,66.727685 M380.204232,7.94725537 C358.983368,6.05465394 339.243279,8.51527446 319.696334,13.2801909 C316.818241,13.9818616 317.318987,15.8195704 318.048644,17.8625298 C320.179195,23.8303103 322.376513,29.7801909 324.281729,35.8207637 C325.179493,38.6692124 326.270402,39.4365155 329.385753,38.6250597 C339.544918,35.9770883 349.835231,33.8124105 360.296036,32.7587112 C363.478152,32.4377088 365.103189,31.0343675 366.494545,28.2420048 C369.937765,21.3291169 373.953264,14.7300716 380.204232,7.94725537 M252.367571,43.2587112 C259.707064,47.2921241 265.463249,51.8136038 270.233443,57.4973747 C271.414963,58.9054893 272.201848,59.4568019 274.099911,58.4400955 C287.80006,51.1011933 302.402742,46.0331742 317.307064,41.8231504 C319.71541,41.1429594 320.076662,40.3279236 319.196781,38.1286396 C316.694247,31.8720764 314.321669,25.5618138 311.99082,19.2396181 C311.054903,16.6966587 309.504978,15.878043 306.933294,16.727685 C287.834635,23.0463007 269.854307,31.6346062 252.367571,43.2587112 M527.672489,67.2133652 C527.838212,64.1023866 526.548197,63.1095465 525.546706,61.9926014 C519.683219,55.4484487 512.941043,49.9126492 505.628972,45.1059666 C474.403934,24.5749403 439.987243,13.3589499 403.028674,8.54152745 C391.2707,7.00811456 383.574724,10.276611 377.693353,19.8243437 C376.653711,21.5116945 375.505574,23.1417661 374.597079,24.8959427 C373.716006,26.5976134 371.686796,28.4305489 372.826587,30.2324582 C373.959225,32.0200477 376.477258,30.8804296 378.332399,30.7945107 C415.628376,29.0618138 451.81079,34.3505967 486.789031,47.6274463 C500.677556,52.8995227 514.06772,59.2002387 527.672489,67.2133652 M566.77234,100.292124 C561.084113,97.652506 557.090075,92.7634845 552.094545,89.2133652 C511.661759,60.472315 466.980984,42.923389 417.503785,37.8422434 C403.424501,36.3959427 389.354754,36.8183771 375.263547,36.9806683 C370.284709,37.0379475 368.260268,38.8410501 368.609598,44.1131265 C369.061461,50.923389 372.67994,55.6071599 377.524054,59.5952267 C385.991416,66.5665871 395.721371,71.6310263 405.062653,77.2587112 C417.810194,84.9365155 430.711535,92.3553699 443.496036,99.9711217 C446.419434,101.710979 449.782772,103.153699 450.947601,106.973508 C448.414069,108.105967 446.725842,106.595227 445.150879,105.663246 C423.122861,92.6286396 401.11392,79.5594272 379.211088,66.3171838 C375.507958,64.0785203 372.11839,61.201432 368.947004,58.2312649 C364.876662,54.4198091 362.303785,49.5379475 363.004829,43.8684964 C363.633145,38.7909308 361.09842,38.7813842 357.534784,39.3279236 C349.09842,40.6214797 340.750283,42.3088305 332.459374,44.3601432 C328.544024,45.3291169 328.130313,46.9448687 329.364292,50.6692124 C334.91541,67.4257757 340.127928,84.2933174 345.385753,101.145346 C346.096334,103.424582 348.453413,106.892363 345.644471,107.906683 C343.162206,108.802864 342.315708,104.701432 341.508554,102.418616 C335.820328,86.3374702 330.045067,70.2813842 324.756244,54.0677804 C323.025097,48.7599045 321.159225,46.8434368 315.224203,48.6811456 C303.084709,52.4400955 291.003636,56.1763723 279.634337,61.9878282 C276.285306,63.6990453 274.946408,65.171599 276.830164,69.175179 C279.759523,75.4019093 279.940745,82.2742243 279.306468,89.0677804 C278.951177,92.8708831 277.693353,96.4424821 275.163398,99.423389 C274.21079,100.545107 273.431058,102.707399 271.597377,101.539141 C270.231058,100.669212 271.354158,99.0856802 271.956244,97.8088305 C275.338659,90.6417661 275.38158,83.2229117 273.409598,75.6990453 C273.059076,74.3625298 272.477258,73.0844869 271.983666,71.7873508 C270.560119,68.0403341 268.601252,67.1143198 264.842086,69.4997613 C251.417347,78.0164678 238.35386,87.0164678 225.760119,96.727685 C222.814069,98.9997613 218.213174,104.165632 216.189925,101.293317 C213.658778,97.7026253 219.813174,94.8828162 222.816453,92.5045346 C235.426885,82.5200477 248.25073,72.7813842 262.102295,64.5594272 C265.445365,62.5749403 266.021222,61.0880668 263.126438,58.5033413 C262.834337,58.2420048 262.634039,57.8804296 262.370551,57.5832936 C251.711833,45.6011933 247.933592,45.1548926 235.037019,54.3505967 C218.87845,65.8696897 205.310641,80.0105012 193.211684,95.6513126 C190.678152,98.9281623 188.405723,102.533174 184.251923,104.113126 C180.809896,100.372076 184.321073,97.8577566 186.086796,95.3863962 C202.585156,72.2825776 223.310045,53.6930788 247.23851,38.5844869 C287.633145,13.0797136 331.351773,-1.02649165 379.472191,0.444868735 C442.938063,2.38520286 498.283517,23.9687351 543.930015,68.9400955 C551.71541,76.6107399 559.73687,84.0379475 566.146408,92.9353222 C567.62003,94.9806683 570.736572,97.5128878 566.77234,100.292124" id="Fill-9" fill="#2A2821" sketch:type="MSShapeGroup"></path>
                <g id="Group-13">
                    <mask id="mask-6" sketch:name="Clip 12" fill="white">
                        <use xlink:href="#path-5"></use>
                    </mask>
                    <g id="Clip-12"></g>
                    <path d="M171.092101,375.618019 C179.609538,386.314916 186.845306,397.964081 196.098361,408.138305 C230.044113,445.458115 270.23845,472.552387 319.682265,484.76599 C321.219076,485.145465 322.772578,485.478401 324.334426,485.727804 C324.848286,485.810143 325.415797,485.563126 326.674814,485.339976 C321.907004,479.038067 317.405067,473.070286 312.886438,467.115632 C283.098063,427.860263 259.919523,385.182458 246.127571,337.672912 C245.374069,335.076253 242.672429,330.863842 245.899851,329.874582 C249.054545,328.909189 249.33234,333.82685 250.078689,336.486754 C265.15231,390.223031 292.552608,437.150239 328.503726,479.417542 C333.738897,485.572673 339.523696,489.470048 348.000596,490.186038 C382.324292,493.086993 416.177049,491.865036 449.250075,481.092959 C461.393145,477.138305 461.377645,477.300597 457.463487,464.979594 C444.429806,423.958115 431.4307,382.925895 418.46617,341.882936 C417.468256,338.720644 415.924292,335.598926 416.709985,331.813723 C419.741878,332.629952 419.619076,335.337589 420.279583,337.371002 C434.559165,381.331623 448.894784,425.275537 462.908495,469.320883 C464.684948,474.905609 466.779732,475.293437 471.64769,473.07864 C518.13234,451.933055 555.400894,420.446181 581.196423,375.961695 C582.59851,373.545227 584.004173,371.153819 586.380328,369.540453 C589.80924,372.511814 586.794039,375.033294 585.550522,377.341169 C566.147839,413.367422 538.542474,441.992721 503.645306,462.699165 C430.301639,506.217064 353.757973,512.588186 275.554694,476.892482 C235.08614,458.421122 202.306408,429.799403 177.06766,392.900835 C174.612817,389.31253 172.477496,385.474821 170.529359,381.584606 C169.597019,379.723031 167.64769,377.275537 171.092101,375.618019" id="Fill-11" fill="#2A2821" sketch:type="MSShapeGroup" mask="url(#mask-6)"></path>
                </g>
                <path d="M718.015499,132.984606 C718.422057,136.552625 716.715946,138.179117 715.918331,140.131384 C714.553204,143.472673 713.43845,146.675537 708.996125,142.628998 C707.250671,141.038305 703.45693,140.568138 701.821162,142.506086 C699.749031,144.959547 698.699851,148.420167 697.73532,151.606325 C697.270343,153.139737 699.205365,153.031146 700.302235,153.093198 C706.579434,153.444033 712.600298,152.763842 717.730551,148.607518 C719.056334,147.533532 720.192548,145.871241 722.724888,147.000119 C719.466468,153.046659 716.047094,157.372434 707.900447,156.679117 C697.650671,155.805609 687.272131,156.484606 676.948435,156.436874 C675.644113,156.429714 673.78301,156.870048 673.318033,155.256683 C672.742176,153.260263 674.765425,153.197017 675.987481,152.944033 C678.907303,152.340215 680.116244,150.093198 681.359762,147.810382 C684.302235,142.410621 687.32459,137.053819 690.160954,131.599165 C691.623845,128.786516 693.932042,126.250716 689.905812,122.92136 C687.614307,121.025179 690.599702,120.402267 692.36304,120.399881 C701.891505,120.381981 711.421162,120.390334 720.949627,120.390334 C723.728763,120.390334 726.509091,120.422554 729.287034,120.385561 C731.716841,120.353341 733.943964,121.070525 734.071535,123.71611 C734.208644,126.560979 732.720715,129.331862 730.490015,130.860501 C728.18301,132.44284 727.237556,129.802029 726.129955,128.21253 C722.428018,122.901074 716.662295,122.889141 711.594039,124.140931 C707.353204,125.188663 707.177943,130.695823 705.260805,134.23043 C704.193741,136.197017 706.214605,136.310382 707.597615,136.399881 C711.217288,136.631384 714.701043,136.311575 718.015499,132.984606" id="Fill-14" fill="#683186" sketch:type="MSShapeGroup"></path>
                <path d="M598.974545,156.521002 C589.703607,154.557995 580.221639,156.731026 570.416572,155.310979 C579.871118,149.45895 582.813592,139.964916 586.494069,130.947017 C587.581401,128.889737 589.380507,126.899284 587.693472,124.417184 C587.000775,123.400477 584.705693,123.351551 585.374545,121.553222 C586.098241,119.605728 588.120298,120.432697 589.57842,120.425537 C601.056215,120.362291 612.535201,120.386158 624.014188,120.394511 C626.379613,120.396897 629.096751,120.059189 629.936095,123.040095 C630.78617,126.061575 628.715231,128.438663 627.049657,130.48401 C625.510462,132.371838 623.841311,130.989976 622.854128,129.254893 C619.497943,123.349165 613.729836,122.802625 608.315827,124.037709 C602.731326,125.313365 603.346528,131.68926 600.295559,135.68926 C605.764411,137.172554 609.998092,136.414797 614.675291,132.825298 C614.08155,137.362291 611.966498,140.010263 610.677675,142.936277 C609.741759,145.060382 608.52924,144.907637 606.495261,143.67136 C600.251446,139.877804 598.219851,140.7179 595.068733,147.643914 C593.020447,149.057995 591.680358,151.307399 592.506587,153.402864 C592.981103,154.603341 595.613592,154.318138 597.13848,153.079475 C600.885723,153.186874 604.696155,153.376611 608.15845,151.695227 C611.41687,150.112888 614.503607,148.17852 618.027899,146.19642 C615.989151,153.910024 612.897645,156.442243 606.062474,156.470883 C603.699434,156.48043 601.337586,156.504296 598.974545,156.521002" id="Fill-16" fill="#683186" sketch:type="MSShapeGroup"></path>
                <path d="M754.998033,117.231981 C761.333651,116.06611 765.718748,122.447971 771.988793,121.637709 C773.222772,121.477804 773.347958,123.012411 772.977168,123.914558 C772.234396,125.723628 771.581043,127.753461 770.277914,129.095943 C769.022474,130.388305 768.402504,128.517184 767.845723,127.630549 C765.786706,124.344153 762.765544,122.718854 758.993264,122.405012 C757.37538,122.270167 755.752727,122.421718 754.808465,124.024344 C753.724709,125.863246 754.503249,127.452745 755.672846,128.916945 C757.208465,130.836993 759.453472,131.731981 761.480298,132.967064 C768.18313,137.05179 769.334844,143.334606 764.636185,149.632936 C759.017109,157.165155 749.821282,159.192601 740.047213,154.978998 C736.658838,153.518377 733.482683,150.873986 729.542295,153.574463 C729.263308,153.765394 728.758987,153.7642 728.402504,153.678282 C727.472548,153.452745 727.050492,152.607876 727.375976,151.887112 C728.974784,148.354893 729.662712,144.171122 733.169121,141.899045 C734.441252,141.074463 734.965842,142.920525 735.426051,143.964678 C737.781937,149.30358 742.078808,150.921718 747.552429,150.378759 C749.487452,150.186635 751.063607,149.496897 751.631118,147.51599 C752.309508,145.150835 750.910999,143.8 749.023666,142.788067 C748.149747,142.32148 747.271058,141.864439 746.387601,141.416945 C741.517258,138.945585 737.599523,135.81432 738.44006,129.542243 C739.241252,123.552983 743.858838,119.036277 750.292221,117.899045 C751.851684,117.623389 753.429031,117.451551 754.998033,117.231981" id="Fill-18" fill="#683186" sketch:type="MSShapeGroup"></path>
                <path d="M647.201788,151.13031 C656.766021,152.811695 663.471237,148.849881 669.288227,142.401193 C669.569598,142.846301 669.850969,143.291408 670.133532,143.735322 C667.837258,147.304535 665.54456,150.876134 663.242325,154.441766 C662.280179,155.93222 660.80775,156.355847 659.143368,156.358234 C648.82921,156.37136 638.515052,156.397613 628.200894,156.380907 C627.09687,156.37852 625.654247,156.703103 625.285842,155.127924 C625.029508,154.032458 625.811624,153.031265 626.708197,152.781862 C630.772578,151.654177 631.741878,147.979952 633.357377,144.894033 C636.022057,139.805728 638.522206,134.631504 641.079583,129.488305 C641.765127,128.111217 643.312668,126.526492 642.231297,125.167303 C637.198808,118.843914 643.012221,120.551551 645.742474,120.447733 C650.891803,120.250835 656.054247,120.376134 661.211923,120.408353 C662.351714,120.415513 663.73234,120.168496 664.254545,121.606444 C664.978241,123.600477 663.347243,123.685203 662.109687,124.298568 C661.117735,124.791408 660.12459,125.706683 659.616692,126.686396 C655.530849,134.567064 651.560656,142.507399 647.201788,151.13031" id="Fill-20" fill="#683186" sketch:type="MSShapeGroup"></path>
                <path d="M615.57997,275.505609 C610.845544,268.796778 606.109925,262.087947 600.935559,254.755012 C606.746587,253.589141 611.842265,252.567661 616.939136,251.546181 C616.48608,259.533055 616.033025,267.518735 615.57997,275.505609" id="Fill-22" fill="#FBC62F" sketch:type="MSShapeGroup"></path>
                <path d="M597.13848,153.079833 C595.613592,154.318496 592.981103,154.602506 592.506587,153.402029 C591.680358,151.307757 593.021639,149.058353 595.068733,147.644272 C595.757854,149.455728 596.448167,151.267184 597.13848,153.079833" id="Fill-24" fill="#FBC62F" sketch:type="MSShapeGroup"></path>
                <path d="M423.632548,200.641885 C427.947303,200.424702 431.305872,200.483174 434.595291,200.034487 C439.28918,199.394869 441.491267,196.007041 441.447154,191.692005 C441.400656,187.059547 437.503189,187.114439 434.063547,186.76599 C423.93538,185.738544 415.134188,188.116826 407.030462,194.768377 C392.160715,206.974821 376.923756,218.750477 361.503189,230.254057 C357.1169,233.52494 356.20006,236.675298 357.237317,241.739737 C361.337466,261.738544 365.070402,281.811337 368.9631,301.851909 C369.684411,305.56432 370.127928,309.566706 375.055499,310.195585 C379.699314,310.788663 381.765484,307.670525 383.583666,304.175298 C391.915112,288.170525 400.123756,272.098926 408.700805,256.226611 C411.225991,251.554773 409.281431,250.640692 405.294545,250.541647 C401.373234,250.443795 397.447154,250.520167 393.523458,250.520167 C397.102593,249.268377 400.655499,249.076253 404.179791,249.311337 C409.971744,249.696778 413.687988,247.693198 416.296632,242.0858 C421.059672,231.850716 426.64775,221.999881 431.873383,211.980788 C436.773532,202.5858 436.762802,202.588186 426.092161,201.657399 C425.579493,201.612053 425.093055,201.257637 423.632548,200.641885 M449.637914,244.606086 C458.220924,245.279117 465.711833,245.246897 472.760417,241.845943 C479.448942,238.618019 484.201252,233.008234 488.976215,227.447375 C489.463845,227.818496 489.952668,228.188425 490.440298,228.559547 C482.094545,243.30537 473.748793,258.051193 465.40304,272.79821 C465.048942,272.695585 464.696036,272.594153 464.341937,272.492721 C464.759225,268.751671 465.407809,265.020167 465.541341,261.26957 C465.788137,254.324463 463.625395,251.873389 456.924948,250.866229 C446.921967,249.362649 445.965782,249.850716 441.443577,258.939021 C434.193502,273.513007 426.950581,288.091766 419.721967,302.677685 C416.480238,309.218258 417.484113,310.847136 424.921371,311.566706 C446.741937,313.678878 462.496334,302.888902 476.105872,287.526134 C479.92465,283.214678 483.599165,278.774344 487.500209,274.541647 C488.944024,272.976014 491.152072,270.939021 493.114516,272.444988 C495.216453,274.058353 492.660268,275.965274 491.79231,277.496301 C485.623607,288.381742 479.221222,299.135919 473.110939,310.05358 C470.805127,314.174105 467.639702,315.978401 462.993502,315.972434 C424.051028,315.918735 385.109747,315.902029 346.168465,315.990334 C340.988137,316.001074 337.938361,313.966468 336.859374,308.839976 C333.220626,291.558353 329.605723,274.26957 325.747601,257.03568 C325.075171,254.0321 325.722563,252.394869 328.077258,250.547613 C345.894247,236.5679 363.609896,222.459308 381.331505,208.359069 C384.116602,206.143079 387.16161,204.157399 388.947601,200.911575 C392.014069,195.342363 390.305574,191.26599 384.21079,189.857876 C382.653711,189.498687 380.516006,189.592959 380.495738,187.695585 C380.473085,185.56074 382.625097,185.072673 384.456393,184.912768 C386.036125,184.774344 387.632548,184.831623 389.221818,184.831623 C434.720477,184.829236 480.219136,184.825656 525.716602,184.831623 C535.292757,184.83401 536.576811,186.813723 532.39082,195.159785 C526.874277,206.163365 521.321967,217.147852 515.776811,228.137112 C514.697824,230.277924 513.665335,232.880549 510.629866,231.952148 C507.318987,230.939021 509.549687,228.226611 509.548495,226.345943 C509.538957,218.80895 510.387839,211.256444 508.389627,203.80895 C505.178897,191.843556 491.745812,184.652625 480.05699,188.662172 C478.750283,189.109666 478.193502,190.098926 477.660566,191.113246 C468.446855,208.653819 459.265335,226.212291 449.637914,244.606086" id="Fill-26" fill="#683084" sketch:type="MSShapeGroup"></path>
                <path d="M442.76149,129.968735 C444.627362,124.84821 449.138838,122.514081 453.546587,120.450835 C456.276841,119.172792 457.620507,121.364916 458.3907,124.054654 C460.462832,131.292124 462.823487,138.446062 465.025574,145.646539 C465.564471,147.407876 466.025872,149.179952 468.280417,149.32673 C470.465812,149.469928 471.361192,147.864916 472.195768,146.240811 C475.184739,140.419809 478.162981,134.594033 481.155529,128.775418 C482.452697,126.253938 483.712906,123.750358 480.043159,121.32315 C486.968942,122.147733 494.334665,117.531981 499.729598,124.201432 C503.935857,129.401909 507.404113,135.199045 511.259851,140.818377 C519.770134,130.60716 520.202921,126.793317 512.71082,121.339857 C518.482504,120.613126 523.361192,120.510501 529.688465,121.58926 C522.176095,124.633413 520.702474,130.977088 517.640775,136.097613 C514.487273,141.372076 511.685484,146.857757 508.572519,152.158473 C505.502474,157.388783 500.526021,157.392363 497.678927,152.10716 C493.84465,144.990215 490.246438,137.746778 486.467004,130.403103 C478.080715,139.042721 474.551654,149.594033 478.385931,155.243198 L443.721252,155.243198 C445.519165,151.762291 450.77699,150.708592 448.474754,146.07494 C446.089061,141.271838 441.656274,141.317184 437.179374,141.429356 C433.450015,141.523628 429.626468,140.86253 426.749568,144.311217 C424.367452,147.169212 421.353443,149.626253 426.608882,152.724105 C428.929001,154.09284 427.463726,155.554654 425.621699,155.62148 C420.273264,155.814797 414.912906,155.713365 409.55851,155.6358 C408.611863,155.622673 407.541222,155.226492 407.616334,153.936516 C407.67237,152.955609 408.548674,152.700239 409.334367,152.663246 C416.491446,152.33389 419.668793,146.108353 425.049419,142.870883 C422.891446,140.189499 418.948674,142.917422 417.324829,137.916229 C427.906051,140.881623 434.903368,135.170406 441.905455,129.432936 C442.017526,129.342243 442.520656,129.730072 442.841371,129.894749 C441.481013,133.543914 437.178182,134.430549 435.281311,137.744391 C451.87386,138.917422 450.044948,139.759905 448.777586,126.931742 C446.232131,126.882816 445.410671,130.278998 442.76149,129.968735" id="Fill-28" fill="#683084" sketch:type="MSShapeGroup"></path>
                <path d="M550.885246,137.270883 C556.674814,137.270883 561.236364,137.372315 565.79076,137.238663 C569.437854,137.132458 569.851565,138.659905 568.48763,141.601432 C567.403875,143.939141 566.537109,146.377088 565.55231,148.761337 C562.546647,156.044153 562.498957,156.125298 555.63994,152.554893 C551.721013,150.51432 549.408048,153.952267 546.488227,155.034606 C539.335917,157.688544 534.420268,156.935561 529.745455,151.817422 C525.067064,146.696897 524.096572,140.406921 527.172578,134.196897 C529.799106,128.894988 533.620268,124.630072 538.937705,121.939141 C547.177347,117.76969 555.649478,117.231504 564.194337,120.972554 C566.870939,122.144391 569.373472,123.727924 572.541282,123.075179 C572.52459,126.076372 570.661103,127.599045 569.554694,129.76611 C564.193145,123.220764 556.864382,122.243437 549.193443,126.683771 C542.216393,130.72315 537.948137,140.084726 540.097765,146.366348 C541.047988,149.142005 542.842325,150.767303 545.710879,150.877088 C548.55082,150.984487 551.504024,150.585919 552.988376,147.795943 C554.761252,144.461814 554.833979,141.033413 550.885246,137.270883" id="Fill-30" fill="#683084" sketch:type="MSShapeGroup"></path>
                <path d="M318.658003,142.223031 C318.611505,146.372196 318.548316,149.563126 321.679165,151.169332 C324.911356,152.82685 327.925365,151.544033 330.412399,149.33043 C335.833562,144.508234 338.866647,138.470048 339.047869,131.122792 C339.119404,128.209905 338.584083,125.404415 335.698838,124.069093 C332.938778,122.793437 330.154873,123.657399 327.896751,125.458115 C322.182295,130.016587 319.202861,136.07864 318.658003,142.223031 M325.14623,157.577446 C314.818957,157.552387 306.981103,150.257637 306.880954,140.57864 C306.759344,128.849523 318.188256,119.338783 332.366498,119.371002 C343.077675,119.393675 351.004948,126.279117 350.81538,135.391289 C350.565007,147.317303 338.658003,157.609666 325.14623,157.577446" id="Fill-32" fill="#683084" sketch:type="MSShapeGroup"></path>
                <path d="M353.994993,153.28222 C355.108554,148.551909 356.583368,145.557876 359.25997,142.423031 C362.07845,148.621122 366.284709,151.99463 372.84924,151.371718 C375.320775,151.137828 377.631356,150.400358 378.320477,147.629475 C379.023905,144.802506 377.273681,143.173628 375.07994,141.915871 C374.049836,141.325179 372.947004,140.864558 371.901401,140.297733 C367.870402,138.117542 364.429568,135.344272 364.987541,130.205847 C365.545514,125.074582 368.464143,121.327566 373.279642,119.451671 C379.138361,117.170048 385.042385,117.456444 390.44924,120.741647 C392.789627,122.164081 395.05848,122.75358 397.98307,122.344272 C398.039106,124.812053 396.856393,126.554296 395.682027,128.52685 C392.793204,125.104415 389.984262,121.670048 385.074575,121.618735 C383.108554,121.598449 380.856393,121.248807 379.884709,123.53401 C378.872489,125.915871 379.233741,128.351432 381.291565,130.039976 C383.113323,131.535203 385.260566,132.627088 387.236125,133.938544 C393.177109,137.878878 394.129717,142.7858 390.111833,148.633055 C384.806319,156.352625 375.374426,158.49821 365.735082,153.940931 C362.139255,152.240453 358.781878,150.03043 353.994993,153.28222" id="Fill-34" fill="#683084" sketch:type="MSShapeGroup"></path>
                <path d="M292.911237,121.424344 C284.607213,130.575895 281.327332,141.852745 275.200358,152.19284 C282.662653,153.141527 288.646557,151.736993 294.755648,147.878998 C294.151177,152.078282 292.691863,155.44463 288.732399,155.577088 C277.912727,155.93747 267.072787,155.701193 254.940447,155.701193 C264.704978,148.275179 266.620924,137.522196 271.992012,128.850358 C272.496334,128.036516 273.14611,126.71074 272.826587,126.081862 C268.998271,118.552029 275.273085,120.992363 278.138063,120.935084 C283.011982,120.837232 287.96459,120.239379 292.911237,121.424344" id="Fill-36" fill="#683084" sketch:type="MSShapeGroup"></path>
                <path d="M588.24918,293.726372 C588.24918,294.314678 588.250373,294.902983 588.250373,295.491289 L566.364232,295.491289 C566.37377,294.902983 566.382116,294.314678 566.391654,293.726372 L588.24918,293.726372 Z" id="Fill-38" fill="#683084" sketch:type="MSShapeGroup"></path>
                <path d="M218.683875,199.040095 C218.652876,199.368258 218.642146,199.697613 218.650492,200.026969 L202.758987,200.026969 C207.998927,198.327685 213.29848,197.888544 218.683875,199.040095" id="Fill-40" fill="#683084" sketch:type="MSShapeGroup"></path>
                <path d="M299.753681,221.584248 C299.742951,221.989976 299.732221,222.395704 299.72149,222.800239 L287.334009,222.800239 C291.369776,220.842005 295.529538,220.797852 299.753681,221.584248" id="Fill-42" fill="#683084" sketch:type="MSShapeGroup"></path>
                <path d="M145.886855,316.705131 C152.3262,314.984368 158.889538,316.406802 165.378957,315.939021 C167.501162,315.786277 170.412638,316.203938 170.606975,313.399642 C170.775082,310.954535 167.898182,311.003461 166.064501,310.476014 C156.38462,307.693198 153.785514,300.381742 159.730075,292.411575 C166.026349,283.971241 172.446617,275.623986 178.698778,267.151432 C180.342891,264.923508 182.013234,263.651432 185.027243,263.707518 C195.552429,263.904415 206.084769,263.859069 216.61234,263.737351 C219.808763,263.700358 221.264501,264.065513 220.431118,268.003461 C218.499672,277.121599 216.819791,286.31969 215.64304,295.561933 C214.626051,303.545227 209.99535,308.011814 202.990879,310.52852 C198.961073,311.976014 194.744083,312.897255 189.05228,314.492721 C191.89699,309.281504 193.982235,305.558353 195.95541,301.77673 C196.452578,300.824463 197.524411,299.609666 196.174784,298.623986 C195.029031,297.78747 193.823666,298.502267 192.990283,299.365036 C190.78462,301.646659 188.631416,303.984368 186.550939,306.380549 C177.700864,316.572673 169.533949,327.400835 159.029031,336.04642 C157.382534,337.400835 155.979255,339.28389 153.498182,339.227804 C150.961073,331.719451 148.423964,324.212291 145.886855,316.705131" id="Fill-44" fill="#FBC62F" sketch:type="MSShapeGroup"></path>
                <path d="M184.178718,259.831504 C200.93699,237.707399 216.773651,216.800477 232.610313,195.893556 C233.008525,196.068974 233.407928,196.244391 233.80614,196.418616 C231.775738,209.415036 229.750104,222.411456 227.712548,235.406683 C226.668137,242.068974 225.463964,248.709785 224.610313,255.395943 C224.21687,258.475895 223.22611,259.944869 219.823428,259.894749 C208.528048,259.727685 197.227899,259.831504 184.178718,259.831504" id="Fill-46" fill="#FBC62F" sketch:type="MSShapeGroup"></path>
                <path d="M613.48924,210.254535 C614.741103,211.848807 614.613532,213.735442 614.012638,215.373866 C609.657347,227.236635 603.196542,237.476492 591.543487,243.509905 C588.568823,245.051671 577.385514,240.441885 576.362563,237.31778 C575.930969,235.999165 576.841848,235.063604 577.397437,234.046897 C584.896692,220.287947 592.347064,206.500358 599.94766,192.796301 C602.342891,188.478878 605.644232,186.776014 609.94468,190.692482 C611.1262,197.212768 612.30772,203.734248 613.48924,210.254535" id="Fill-48" fill="#FBC62F" sketch:type="MSShapeGroup"></path>
                <path d="M527.673085,67.2137232 C514.068316,59.2005967 500.678152,52.8998807 486.788435,47.6278043 C451.810194,34.3509547 415.628972,29.0621718 378.331803,30.7936754 C376.476662,30.8807876 373.958629,32.0204057 372.827183,30.2316229 C371.687392,28.4297136 373.71541,26.5979714 374.596483,24.8963007 C375.504978,23.1409308 376.654307,21.5108592 377.693949,19.8235084 C383.57532,10.276969 391.270104,7.00847255 403.028077,8.54069212 C439.986647,13.3581146 474.404531,24.574105 505.629568,45.1051313 C512.940447,49.9130072 519.683815,55.4488067 525.54611,61.9929594 C526.547601,63.1099045 527.837615,64.1027446 527.673085,67.2137232" id="Fill-50" fill="#FBC62F" sketch:type="MSShapeGroup"></path>
                <path d="M252.367332,43.2589499 C269.854069,31.6348449 287.834396,23.0465394 306.934247,16.7279236 C309.504739,15.8770883 311.054665,16.6968974 311.991773,19.2386635 C314.321431,25.5620525 316.694009,31.872315 319.197735,38.127685 C320.077615,40.326969 319.715171,41.1431981 317.306826,41.823389 C302.402504,46.0322196 287.799821,51.101432 274.099672,58.4403341 C272.20161,59.4570406 271.414724,58.9045346 270.233204,57.49642 C265.464203,51.8138425 259.706826,47.2911695 252.367332,43.2589499" id="Fill-52" fill="#FBC62F" sketch:type="MSShapeGroup"></path>
                <path d="M380.204232,7.94677804 C373.953264,14.7295943 369.937765,21.3286396 366.494545,28.2415274 C365.103189,31.0350835 363.478152,32.4372315 360.296036,32.7582339 C349.835231,33.8131265 339.544918,35.9778043 329.385753,38.6245823 C326.270402,39.4372315 325.179493,38.6699284 324.281729,35.8214797 C322.376513,29.7809069 320.179195,23.8310263 318.048644,17.8632458 C317.318987,15.8190931 316.818241,13.9813842 319.696334,13.2797136 C339.243279,8.51479714 358.983368,6.05536993 380.204232,7.94677804" id="Fill-54" fill="#FBC62F" sketch:type="MSShapeGroup"></path>
                <path d="M529.13538,66.727685 C529.255797,67.0128878 529.401252,67.2527446 529.440596,67.5093079 C529.456095,67.6059666 529.223607,67.7396181 529.103189,67.8565632 C528.995887,67.6107399 528.844471,67.3732697 528.80155,67.1167064 C528.784858,67.0140811 529.005425,66.8720764 529.13538,66.727685" id="Fill-56" fill="#FBC62F" sketch:type="MSShapeGroup"></path>
                <path d="M423.632548,200.641885 C425.093055,201.257637 425.579493,201.612053 426.092161,201.657399 C436.762802,202.588186 436.773532,202.5858 431.873383,211.980788 C426.64775,221.999881 421.059672,231.850716 416.296632,242.0858 C413.687988,247.693198 409.971744,249.696778 404.179791,249.311337 C400.655499,249.076253 397.102593,249.268377 393.523458,250.520167 C397.447154,250.520167 401.373234,250.443795 405.294545,250.541647 C409.281431,250.640692 411.225991,251.554773 408.700805,256.226611 C400.123756,272.098926 391.915112,288.170525 383.583666,304.175298 C381.765484,307.670525 379.699314,310.788663 375.055499,310.195585 C370.127928,309.566706 369.684411,305.56432 368.9631,301.851909 C365.070402,281.811337 361.337466,261.738544 357.237317,241.739737 C356.20006,236.675298 357.1169,233.52494 361.503189,230.254057 C376.923756,218.750477 392.160715,206.974821 407.030462,194.768377 C415.134188,188.116826 423.93538,185.738544 434.063547,186.76599 C437.503189,187.114439 441.400656,187.059547 441.447154,191.692005 C441.491267,196.007041 439.28918,199.394869 434.595291,200.034487 C431.305872,200.483174 427.947303,200.424702 423.632548,200.641885" id="Fill-58" fill="#FBC62F" sketch:type="MSShapeGroup"></path>
                <path d="M442.76149,129.968735 C445.410671,130.278998 446.232131,126.882816 448.777586,126.931742 C450.044948,139.759905 451.87386,138.917422 435.281311,137.744391 C437.178182,134.430549 441.481013,133.543914 442.841371,129.894749 L442.76149,129.968735" id="Fill-60" fill="#FBC62F" sketch:type="MSShapeGroup"></path>
                <path d="M318.658003,142.223031 C319.202861,136.07864 322.182295,130.016587 327.896751,125.458115 C330.154873,123.657399 332.938778,122.793437 335.698838,124.069093 C338.584083,125.404415 339.119404,128.209905 339.047869,131.122792 C338.866647,138.470048 335.833562,144.508234 330.412399,149.33043 C327.925365,151.544033 324.911356,152.82685 321.679165,151.169332 C318.548316,149.563126 318.611505,146.372196 318.658003,142.223031" id="Fill-62" fill="#FBC62F" sketch:type="MSShapeGroup"></path>
            </g>
        </g>
    </g>
</svg>