<?xml version="1.0" encoding="UTF-8" standalone="no"?>
<svg width="800px" height="800px" viewBox="0 0 800 800" version="1.1" xmlns="http://www.w3.org/2000/svg" xmlns:xlink="http://www.w3.org/1999/xlink" xmlns:sketch="http://www.bohemiancoding.com/sketch/ns">
    <!-- Generator: Sketch 3.4.4 (17249) - http://www.bohemiancoding.com/sketch -->
    <title>magic</title>
    <desc>Created with Sketch.</desc>
    <defs>
        <path id="path-1" d="M0,1.07438889 L798.978674,1.07438889 L798.978674,581 L0,581"></path>
        <path id="path-3" d="M0,1.07438889 L798.978674,1.07438889 L798.978674,581 L0,581"></path>
    </defs>
    <g id="Page-1" stroke="none" stroke-width="1" fill="none" fill-rule="evenodd" sketch:type="MSPage">
        <g id="magic" sketch:type="MSArtboardGroup">
            <g id="Page-1" sketch:type="MSLayerGroup" transform="translate(0.000000, 110.000000)">
                <g id="Group-3">
                    <mask id="mask-2" sketch:name="Clip 2" fill="white">
                        <use xlink:href="#path-1"></use>
                    </mask>
                    <g id="Clip-2"></g>
                    <path d="M650.587089,359.293974 C647.336369,353.087418 644.48219,348.147765 642.63781,342.735474 C641.022824,349.772029 642.087954,355.550904 650.587089,359.293974 M482.374986,147.196696 L480.651643,147.433015 C480.651643,159.429974 480.618213,171.428085 480.679308,183.425043 C480.691988,185.864321 482.653948,185.96346 484.424553,185.858557 C492.308127,185.389376 500.1283,186.392293 507.911585,187.219987 C522.324265,188.752029 536.90755,188.998724 551.060865,192.68646 C558.002651,194.496321 558.054524,194.366057 557.96,186.758876 C557.923112,183.773182 558.683919,180.66414 553.898905,180.077376 C533.629164,177.59314 513.410144,174.676613 493.133487,172.253474 C489.397464,171.807349 488.086801,170.56696 487.139251,166.974904 C485.411297,160.424821 485.196888,153.451668 482.374986,147.196696 M791.413602,242.365418 C791.71562,241.620724 791.976138,241.276043 791.976138,240.931363 C792.016484,210.586793 791.983055,180.242224 792.122536,149.897654 C792.139827,146.151126 789.56,146.203001 787.286801,145.55514 C764.598617,139.08921 741.936945,132.525293 719.194582,126.253029 C708.855677,123.40221 698.668934,119.939265 687.968069,118.438349 C669.170375,115.803099 653.532334,125.948696 648.864899,144.362015 C647.696023,148.973126 646.974409,153.833237 646.962882,158.580376 C646.834928,213.320029 646.769222,268.059682 646.934063,322.799335 C647.01245,348.610029 661.667205,368.353654 686.245879,374.548682 C720.306974,383.134571 753.882767,393.317057 787.422824,403.655168 C791.327147,404.857515 792.260865,404.094376 792.232046,400.063112 C792.052219,374.712376 792.002651,349.358182 792.158271,324.007446 C792.181326,320.342765 790.862594,319.04589 787.592277,318.151335 C778.529452,315.674015 769.565764,312.832418 760.543285,310.198321 C755.453948,308.71239 749.321383,304.440196 745.498905,306.76189 C741.668357,309.088196 742.340403,316.490182 741.176138,321.68921 C738.336945,334.360543 738.423401,334.38014 725.999193,331.01864 C717.834352,328.809918 716.111009,326.601196 716.101787,318.014154 C716.079885,294.966668 716.097176,271.918029 716.097176,248.870543 C716.097176,227.551071 716.070663,206.230446 716.14098,184.912126 C716.146744,183.149529 715.132334,180.797862 717.40438,179.737307 C720.328876,178.373571 727.844726,183.023876 728.377291,186.360015 C730.222824,197.913154 732.025706,209.470904 733.895447,221.019432 C734.182478,222.797015 733.930029,224.735987 736.520231,225.517571 C754.854524,231.052057 773.142709,236.737557 791.413602,242.365418 M271.397464,403.16639 C282.28853,398.865376 293.251066,394.802987 304.727723,392.27264 C335.224553,385.550793 366.007262,384.808404 396.942133,387.991224 C416.656254,390.01896 436.011873,393.881918 454.876427,400.109224 C458.145591,401.188224 459.194582,402.291432 457.43781,405.632182 C454.939827,410.382779 452.739251,415.306293 450.68853,420.269001 C449.464323,423.233946 448.124841,423.706585 445.080461,422.424696 C425.308703,414.099335 404.623977,409.126251 383.346744,406.781501 C370.71389,405.390099 358.008415,403.951432 343.980749,406.540571 C356.520231,410.477307 367.866628,413.863015 379.095447,417.602626 C400.501787,424.732557 420.970951,433.826821 439.230317,447.339682 C441.308703,448.87864 443.77902,450.044099 443.59804,453.50589 C442.379597,476.703237 448.402651,498.154126 461.081614,517.37439 C484.712738,553.19696 517.449337,573.670293 561.308703,571.959571 C600.223977,570.441362 629.587666,550.944432 651.383631,519.515099 C685.08853,470.91514 681.495447,406.461029 642.491412,364.79964 C636.532911,358.435154 634.373833,352.603251 634.433775,343.754529 C634.955965,266.523029 634.705821,189.285765 634.817637,112.050807 C634.823401,108.19246 633.533487,106.776849 629.871239,105.981432 C610.351931,101.748432 590.710432,98.4388069 570.823401,96.4237514 C565.716772,95.9061542 564.866052,97.2456819 564.881037,101.997432 C565.044726,155.024057 564.645879,208.055293 565.237233,261.076154 C565.369798,273.028154 563.207262,283.339751 555.774409,292.533154 C554.686225,293.879599 554.522536,296.896418 552.122536,296.050279 C550.414179,295.448529 551.331758,292.944696 551.332911,291.31121 C551.346744,262.685432 551.305245,234.059654 551.601499,205.437335 C551.647608,200.966862 550.083343,199.40139 546.01879,198.750071 C523.813602,195.187988 501.487378,192.970043 478.997464,192.933154 C474.438386,192.926237 472.645879,192.205751 472.786513,187.126612 C473.131182,174.650099 472.830317,162.156293 472.750778,149.669404 C472.685072,139.294404 472.656254,139.563001 483.051643,139.73246 C487.343285,139.802779 489.131182,141.211474 489.800922,145.328043 C490.660865,150.620446 492.262017,155.791807 493.150778,161.081904 C493.634928,163.969612 494.658559,165.45439 497.719078,165.829043 C514.293141,167.862543 530.855677,169.997487 547.40438,172.224654 C550.530605,172.645418 551.372104,171.603307 551.359424,168.576112 C551.262594,145.905585 551.301787,123.235057 551.305245,100.563376 C551.306398,98.6151819 551.374409,96.7926403 549.052795,95.8070153 C545.352507,94.2357792 541.897752,91.9809458 537.788242,91.5717097 C505.887378,88.3935014 473.971527,85.1000153 441.885072,84.9340153 C417.574986,84.8083625 403.361729,99.5143486 403.200346,123.882918 C403.095447,139.635626 403.16,155.39064 403.181902,171.144501 C403.241844,213.792668 403.274121,256.439682 403.430893,299.087849 C403.457406,306.266196 404.343862,303.702418 393.319078,305.455793 C387.856254,306.324987 390.093718,301.742696 390.089107,299.576626 C389.968069,232.141432 389.988818,164.705085 389.988818,97.2687375 C389.988818,84.1697236 389.988818,84.1581958 376.981326,84.2504181 C346.429164,84.4659875 315.951931,86.3000569 285.565764,89.3041958 C267.764035,91.0644875 253.942709,99.4532514 246.287378,116.31839 C242.640115,124.352099 241.822824,132.908015 241.836657,141.629932 C241.936945,204.261501 241.986513,266.893071 242.048761,329.52464 C242.057983,338.668474 239.13464,342.156779 229.563458,344.30671 C229.563458,342.160237 229.562305,340.050654 229.564611,337.941071 C229.623401,258.786737 229.68219,179.633557 229.750202,100.479224 C229.752507,97.2479875 230.621671,93.8910986 224.989395,95.0196681 C200.351931,99.9547097 175.712161,104.924335 150.950202,109.170015 C141.535793,110.785057 133.56,116.177751 124.197464,117.594515 C114.33464,119.087362 104.489107,120.733529 94.6827666,122.562988 C75.4366571,126.152737 56.2666282,130.150571 37.6199424,136.203807 C18.8706628,142.291626 7.33521614,157.179751 7.32138329,175.234557 C7.26144092,250.548988 7.3340634,325.863418 7.2026513,401.176696 C7.19458213,405.87196 8.47757925,406.082918 12.333487,404.593529 C30.245879,397.673404 48.5340634,391.862251 67.1669164,387.23846 C71.4343516,386.179057 72.8706628,384.57439 72.8579827,380.008237 C72.6793084,318.912168 72.7369452,257.816099 72.738098,196.720029 C72.738098,195.183376 72.6331988,193.63289 72.7980403,192.112376 C73.2049568,188.361237 78.1525072,183.274029 81.3329107,184.130543 C85.1623055,185.161126 83.0516427,188.933015 83.0585591,191.31696 C83.208415,239.348599 83.2752738,287.38139 83.0343516,335.411876 C83.0066859,341.085849 84.5571182,341.531974 89.445879,340.308876 C108.423401,335.555974 127.456254,331.004807 146.555965,326.768349 C151.216484,325.73546 152.517925,323.939432 152.496023,319.175001 C152.28853,272.682321 152.379597,226.187335 152.351931,179.692349 C152.349625,176.795418 152.43147,173.942293 153.36634,171.171015 C154.243573,168.568043 156.180173,166.312057 158.695447,166.74089 C161.426282,167.20546 159.930029,170.282224 159.933487,172.085168 C160.029164,231.068196 160.011873,290.051224 160.011873,349.034251 C160.011873,352.685099 160.187089,356.346321 159.961153,359.983335 C159.745591,363.464724 160.442997,364.727015 164.354236,363.673376 C171.013602,361.88196 177.813602,360.55396 184.606686,359.323946 C194.826859,357.47489 205.091988,355.878293 215.337522,354.17564 C197.020519,368.75021 179.806686,383.976099 164.08219,400.85046 C146.339251,419.889737 126.736945,447.481474 123.879308,458.144668 C170.833775,416.69539 222.491412,386.149085 283.45049,370.998126 C279.445879,382.510918 273.910432,392.038626 270.746167,402.521988 C270.543285,402.750238 270.129452,403.117974 270.172104,403.182529 C270.551354,403.754307 270.989395,403.561793 271.397464,403.16639 M653.653372,363.394404 C653.279885,363.004765 652.906398,362.615126 652.532911,362.22664 C652.393429,361.290585 652.228588,360.364904 650.964035,360.438682 C650.826859,360.446751 650.598617,360.683071 650.590548,360.822557 C650.521383,362.064099 651.37902,362.308488 652.361153,362.398404 L653.517349,363.530432 C653.660288,364.018057 653.802075,364.505682 653.945014,364.99446 L654.5917,364.555251 C654.280461,364.166765 653.968069,363.778279 653.653372,363.394404 M655.540403,367.551321 C665.375562,380.526987 672.685072,394.092876 677.047032,409.168904 C686.165187,440.68239 684.600922,471.606807 671.96,501.897196 C659.754813,531.143168 640.053372,553.934738 611.351354,567.549043 C575.693718,584.462599 538.922536,586.297821 503.292565,568.05396 C465.347896,548.625043 443.417061,516.498279 436.042997,474.602876 C435.060865,469.021126 433.951931,463.234182 434.683919,457.467988 C435.155389,453.76296 433.267205,451.859724 430.461441,450.140932 C405.131182,434.621085 377.873545,423.429918 349.814755,414.001349 C341.148473,411.088279 332.560576,407.943501 322.376138,404.356057 C363.059712,398.044599 401.498905,398.87114 439.027435,412.780557 C441.781326,413.800765 444.972104,416.192779 447.456254,411.662362 C450.391124,406.313474 450.376138,405.486932 444.446455,403.821168 C423.579597,397.959293 402.377291,394.550529 380.672392,393.087654 C354.000346,391.289321 327.949625,394.149362 302.206686,400.415863 C287.68219,403.952585 273.615331,409.12164 260.419942,416.361085 C259.639539,416.788765 258.828012,417.485043 257.143862,416.567432 C262.054524,405.005071 266.998617,393.360863 272.310432,380.853224 C207.058559,398.205987 155.844726,436.919724 106.648184,479.384599 C125.02513,434.83089 153.942709,398.131057 189.18536,365.530501 C179.145014,367.70464 169.10121,369.867251 159.06317,372.056376 C152.877579,373.405126 152.340403,373.038543 152.319654,366.932279 C152.28853,357.327335 152.155965,347.718932 152.37268,338.118599 C152.475274,333.636599 150.659712,332.909196 146.76,333.845251 C126.116772,338.798738 105.455101,343.677293 84.7726801,348.464779 C81.1023631,349.315529 79.3409798,350.762265 79.4758501,354.998724 C79.8112968,365.553557 79.5219597,376.126835 79.5738329,386.692043 C79.5888184,389.654682 79.1231124,391.544085 75.555389,392.413279 C51.511585,398.274001 28.0014986,405.866196 4.9951585,414.992737 C1.47008646,416.39221 -0.00541786744,416.074043 0.000345821326,411.643918 C0.107550432,332.113779 -0.000806916426,252.582487 0.139827089,173.052349 C0.170951009,155.239626 14.3461671,136.749071 32.192853,130.563265 C53.770951,123.085196 76.1744092,118.913293 98.5133141,114.537349 C111.752507,111.943599 125.18536,110.854224 137.979597,105.522626 C148.867205,100.986446 161.015908,100.18296 172.643573,97.9292792 C192.333487,94.1124319 212.098329,90.6771542 231.746744,86.6677931 C236.550202,85.6879319 237.474697,87.0966264 237.381326,91.3699736 C237.195735,99.8106125 237.325994,108.258168 237.325994,117.69596 C240.800346,112.561487 242.383055,107.474279 245.61879,103.25396 C255.897752,89.8460014 269.845879,83.7939181 286.151354,82.2169181 C316.280461,79.3026958 346.455677,77.4271264 376.750778,77.2922514 C382.22513,77.2680431 387.815908,76.7423764 393.354813,76.4518764 C396.672392,76.2778069 397.689107,77.6622931 397.633775,80.8416542 C397.486225,89.2869042 397.583055,97.7344597 397.583055,106.124376 C398.868357,106.603932 398.861441,105.656349 399.098905,105.062668 C406.603228,86.3380986 421.576138,78.5614597 440.606686,77.7718069 C458.416484,77.0328764 476.143285,79.2404458 493.867781,80.8508764 C504.724265,81.8376542 515.599193,82.6422931 526.479885,83.3039875 C535.337522,83.8423347 544.030317,84.7438069 551.859712,89.4840292 C554.096023,90.8373903 556.36,92.4270708 558.990548,89.5877792 C559.754813,88.7635431 561.903516,89.0978486 563.417061,89.1082236 C580.142133,89.2258069 596.432622,92.8132514 612.852219,95.3655014 C620.981326,96.6289458 628.951354,98.6336264 636.965187,100.468849 C641.097752,101.415279 642.109856,103.331196 642.033775,107.205682 C641.828588,117.669446 641.963458,128.140126 642.404957,138.77796 C646.748473,128.728043 652.879885,120.539863 662.825706,115.584071 C673.70755,110.162557 685.027435,109.843238 696.40611,112.90271 C721.729452,119.711015 746.950202,126.897432 772.21245,133.931682 C779.588818,135.985932 786.945591,138.122029 794.351931,140.065612 C797.555389,140.90714 798.958271,142.361946 798.94098,146.009335 C798.787666,179.62664 798.814179,213.245099 798.902939,246.862404 C798.912161,250.663112 798.290836,252.000335 794.037233,250.649279 C773.774409,244.211015 753.429741,238.024057 733.072392,231.885515 C729.368646,230.769626 727.26951,229.317126 727.203804,224.854724 C727.135793,220.227474 725.714467,215.619821 724.671239,209.810974 C723.02513,214.923543 722.464899,218.67814 723.51389,222.817765 C724.980173,228.609321 722.576715,234.41471 723.334063,240.488696 C724.48219,249.702849 723.94732,259.163696 723.705245,268.509265 C723.28219,284.901765 723.337522,301.281585 723.660288,317.675237 C723.745591,321.985474 725.145014,323.63164 729.297176,324.61496 C732.740403,325.431126 733.357118,323.857585 733.925418,321.513987 C735.595735,314.636515 737.339827,307.770571 738.730029,300.834307 C739.351354,297.729876 740.165187,296.558654 743.630317,297.618057 C760.840692,302.879335 778.119078,307.915821 795.387089,312.985738 C798.022248,313.759251 798.901787,315.327029 798.896023,318.056807 C798.833775,348.600807 798.794582,379.14596 798.977867,409.688807 C799.00438,413.982904 797.290259,413.936793 794.197464,413.00189 C781.180749,409.065154 768.100634,405.331307 755.131182,401.245863 C733.754813,394.51364 712.214755,388.37164 690.445303,383.060793 C679.698329,380.439376 669.556542,376.699765 660.973256,369.459168 C659.955389,368.601501 658.774986,367.925974 657.621095,367.246988 C657.383631,367.107501 656.932911,367.33114 655.540403,367.551321" id="Fill-1" fill="#C0C7CD" sketch:type="MSShapeGroup" mask="url(#mask-2)"></path>
                </g>
                <g id="Group-6">
                    <mask id="mask-4" sketch:name="Clip 5" fill="white">
                        <use xlink:href="#path-3"></use>
                    </mask>
                    <g id="Clip-5"></g>
                    <path d="M407.84,21.3727306 C407.84,19.8429944 408.017522,18.2867444 407.792738,16.7904389 C407.542594,15.1212167 409.057291,12.4168 406.229625,12.0582861 C403.505706,11.7147583 400.469395,11.0207861 397.944899,13.0139389 C396.970836,13.7816889 396.299942,28.8796194 397.165648,29.8871472 C397.503401,30.2779389 398.113199,30.479675 398.635389,30.6595083 C404.551239,32.699925 407.835389,30.4035917 407.84,24.2408417 L407.84,21.3727306 M424.192738,33.7639389 C424.18928,42.7913417 424.074006,51.8222028 424.250375,60.8461472 C424.312622,64.0612444 423.966801,65.5610083 420.005994,65.4941472 C407.80196,65.2889528 407.797349,65.5033694 407.798501,53.1559667 C407.798501,51.4268 407.551816,49.6561333 407.843458,47.9776889 C408.79562,42.4754806 406.344899,41.2016611 401.223285,41.4137722 C397.437695,41.57055 396.767954,42.9458139 396.90513,46.2243139 C397.120692,51.4014389 396.830202,56.5981611 397.012334,61.7787444 C397.109164,64.5235083 396.203112,65.2947167 393.446916,65.43305 C380.578905,66.0809111 380.584669,66.1777444 380.586974,53.4729806 C380.58928,40.4108556 380.554697,27.3498833 380.599654,14.2877583 C380.628473,5.90475833 384.199654,1.71671667 392.626167,1.31900833 C402.017522,0.874036111 411.443458,1.21410556 420.852104,1.07461944 C423.766225,1.03196667 424.273429,2.40031389 424.242305,4.95141111 C424.125879,14.55405 424.196196,24.1589944 424.192738,33.7639389" id="Fill-4" fill="#112329" sketch:type="MSShapeGroup" mask="url(#mask-4)"></path>
                </g>
                <path d="M311.483458,26.1165264 C311.483458,16.9023736 311.50536,17.0510819 304.727262,18.0367069 C301.901902,18.4482486 300.787205,19.4407903 300.988934,22.3711514 C301.23562,25.9712764 301.160692,29.6048319 301.011988,33.2153319 C300.903631,35.8240681 301.916888,36.3831653 304.403343,36.1837347 C310.556657,35.6914986 311.483458,34.5248875 311.483458,26.1165264 M284.80219,41.9072764 C284.80219,32.5017625 284.832161,23.0974014 284.781441,13.6930403 C284.768761,11.3909431 284.882882,9.75745694 287.948012,9.44390139 C296.715735,8.54704028 305.420058,6.98156806 314.198156,6.25647083 C324.143977,5.43454028 327.884611,8.87212361 327.477695,18.6096375 C327.204496,25.1343597 329.727839,32.0844569 325.21487,38.1630542 C324.97049,38.4927486 325.009683,39.2996931 325.244841,39.6812625 C330.523228,48.2348736 326.643112,57.6473042 327.788934,66.5824847 C327.975677,68.0407486 327.459251,69.1658597 325.664438,69.3387764 C321.848876,69.7088181 318.043689,70.1952903 314.231585,70.6172069 C311.574524,70.9100125 311.639078,69.0747903 311.642536,67.2787625 C311.654063,61.7131514 311.583746,56.1452347 311.692104,50.5819292 C311.747435,47.7645403 310.914006,45.9419986 307.786628,46.6279014 C305.195274,47.1962208 301.076542,45.4324708 301.085764,50.5496514 C301.096138,56.5002903 300.928991,62.4555403 301.150317,68.3981097 C301.259827,71.3388458 300.176254,72.3579014 297.379712,72.8420681 C284.78951,75.0231236 284.803343,75.0992069 284.80219,62.6365264 L284.80219,41.9072764" id="Fill-7" fill="#112329" sketch:type="MSShapeGroup"></path>
                <path d="M500.674813,39.0150722 C500.674813,44.9634056 500.778559,50.9128917 500.644841,56.8577667 C500.521499,62.2735167 504.907666,59.9748778 507.315735,60.7449333 C509.311124,61.3835722 511.71804,61.1610861 511.720346,57.9725028 C511.729568,46.0769889 512.017752,34.1699472 511.572795,22.2905722 C511.383746,17.2321833 506.378559,17.8477667 503.001037,17.7071278 C499.021787,17.539975 500.850029,21.0547944 500.761268,22.9026972 C500.500749,28.2619611 500.669049,33.6431278 500.674813,39.0150722 M484.82928,36.6276694 C484.826974,27.6210167 484.973372,18.6097528 484.755504,9.60771111 C484.667896,5.96493333 485.398732,4.43980833 489.472507,5.07498889 C497.78951,6.37186389 506.197579,7.07851667 514.524957,8.32236389 C524.317464,9.78523889 527.806801,13.9329333 527.837925,23.6681417 C527.877118,36.1239056 527.896715,48.5808222 527.829856,61.0365861 C527.783746,69.850725 523.548588,73.6525861 514.792392,72.7015444 C506.039654,71.7505028 497.320346,70.4697667 488.556081,69.6363083 C485.558963,69.3515722 484.73245,68.2368361 484.776254,65.3721833 C484.920346,55.7926 484.830432,46.2095583 484.82928,36.6276694" id="Fill-9" fill="#112329" sketch:type="MSShapeGroup"></path>
                <path d="M432.94098,33.7686653 C432.94098,24.3631514 432.96634,14.9564847 432.922536,5.55097083 C432.912161,3.25694306 432.939827,1.34217917 436.152507,1.57273472 C445.898905,2.27131806 455.706398,2.41310972 465.389395,3.59124861 C473.257983,4.54805417 476.076427,8.5666375 476.090259,16.6084153 C476.117925,32.1559292 475.979597,47.7057486 476.173256,63.2521097 C476.221671,67.1415819 475.604957,68.6574847 471.177291,68.0822486 C459.949625,66.6262903 459.918501,66.8453181 459.91389,55.2449153 C459.90928,43.5361514 459.931182,31.8262347 459.904669,20.1174708 C459.891988,14.4239014 458.139827,13.0866792 452.217061,12.9944569 C448.199769,12.9310542 449.187666,15.5743736 449.179597,17.6470681 C449.123112,32.2331653 448.984784,46.8215681 449.233775,61.4042069 C449.304092,65.5553597 448.093718,66.4729708 444.071816,66.2712347 C432.950202,65.7132903 432.939827,65.9138736 432.94098,54.5002208 L432.94098,33.7686653" id="Fill-11" fill="#16272D" sketch:type="MSShapeGroup"></path>
                <path d="M260.591585,46.4853028 C260.591585,41.3081778 260.771412,36.1229833 260.499366,30.9608444 C260.396772,29.0184139 262.334524,25.1727472 257.773141,25.7491361 C254.475159,26.1652889 250.120115,25.6084972 250.203112,31.3112889 C250.370259,42.8125528 250.234236,54.317275 250.281499,65.8208444 C250.28611,67.0208861 249.703977,68.5656083 251.567954,69.1650528 C255.529914,70.4388722 260.536254,66.8491222 260.578905,62.5896083 C260.630778,57.222275 260.591585,51.8537889 260.591585,46.4853028 M234.463631,51.0641361 C234.465937,44.5509417 234.430202,38.0365944 234.474006,31.5222472 C234.528184,23.7225528 237.148357,19.6221222 244.630778,17.5517333 C251.426167,15.6704 258.424438,14.3181917 265.421556,13.4213306 C272.719539,12.4864278 276.580058,16.2917472 276.615793,23.6752889 C276.67804,36.8953444 276.645764,50.1154 276.626167,63.3354556 C276.613487,71.1270806 273.864207,75.3393306 266.44634,77.2540944 C259.611758,79.0178444 252.608876,80.3054972 245.601383,81.1712333 C237.80196,82.1361083 234.569683,78.9855667 234.478617,71.1812611 C234.401383,64.4767056 234.462478,57.7698444 234.463631,51.0641361" id="Fill-13" fill="#16272D" sketch:type="MSShapeGroup"></path>
                <path d="M551.279539,45.9710486 C551.279539,52.0922986 551.170029,58.2158542 551.314121,64.3324931 C551.4317,69.3228681 555.810951,67.9856458 558.61902,68.8732847 C560.391931,69.4346875 561.593084,68.8986458 561.589625,66.7394931 C561.568876,54.4981458 561.754467,42.2521875 561.470893,30.0166042 C561.363689,25.3651458 556.902594,26.1455764 553.979251,25.7178958 C549.764841,25.1000069 551.428242,28.6551736 551.348703,30.4811736 C551.122767,35.6352431 551.269164,40.8066042 551.279539,45.9710486 M577.52853,51.5228264 C577.52853,58.0487014 577.576945,64.5757292 577.51585,71.1016042 C577.446686,78.3963819 574.501441,81.5803542 567.408646,81.1630486 C559.3683,80.6915625 551.448991,79.0592292 543.776369,76.6072708 C538.282421,74.8515903 535.357925,70.8595208 535.363689,64.9100347 C535.378674,51.0916875 535.263401,37.2721875 535.378674,23.4549931 C535.438617,16.3746319 539.289914,12.6027431 546.364265,13.4442708 C553.563112,14.2996319 560.748127,15.7659653 567.746398,17.6738125 C574.790778,19.5931875 577.478963,23.8907431 577.520461,31.3676597 C577.557349,38.0860486 577.52853,44.8044375 577.52853,51.5228264" id="Fill-15" fill="#112329" sketch:type="MSShapeGroup"></path>
                <path d="M335.831124,35.5396778 C335.829971,26.5272611 335.961383,17.5113861 335.76196,8.50358056 C335.687032,5.17781667 336.504323,3.86480278 340.100865,3.55816389 C352.315274,2.51605278 352.301441,2.35120556 352.303746,14.8069694 C352.304899,26.6955667 352.243804,38.5853167 352.371758,50.4727611 C352.391354,52.3344972 350.994236,55.2314278 353.85879,55.90465 C357.481844,56.7554 357.313545,53.1425944 358.233429,51.0687472 C359.462248,48.2963167 359.036888,44.7676639 363.770029,44.3077056 C373.074928,43.4016222 373.04611,43.1076639 373.035735,52.3229694 C373.020749,66.0594694 373.019597,66.0341083 359.567147,66.8237611 C353.063401,67.2041778 346.548127,67.5234972 340.075504,68.2220806 C336.744092,68.5817472 335.699712,67.6768167 335.765418,64.3026361 C335.954467,54.7184417 335.832277,45.1273306 335.831124,35.5396778" id="Fill-17" fill="#16272D" sketch:type="MSShapeGroup"></path>
                <path d="M318.709164,351.681721 C317.57487,359.135582 312.514352,359.654332 306.498213,359.296971 C312.162767,363.106901 312.0717,367.639624 309.080346,373.300915 C314.797925,368.357804 319.180634,370.55961 323.701671,375.246804 C320.590432,368.28979 323.830778,364.674679 330.001383,361.516068 C321.327032,363.224485 320.38755,357.469818 318.709164,351.681721 M481.745476,266.099499 C481.745476,259.392637 481.466513,252.669637 481.841153,245.983526 C482.103977,241.288263 479.042305,242.031804 476.318386,241.636401 C472.596196,241.095749 472.895908,243.541943 472.900519,245.915513 C472.922421,258.179915 472.90513,270.443165 472.945476,282.707568 C472.950086,284.033262 473.102248,285.392388 473.425014,286.676582 C474.234236,289.908971 476.985821,289.723374 479.446916,289.799457 C482.742594,289.900901 481.674006,287.273721 481.703977,285.643693 C481.820403,279.130499 481.752392,272.613846 481.745476,266.099499 M442.826744,324.455415 C452.850951,330.33804 452.175447,337.58786 446.893602,346.316693 C455.589856,338.84554 462.527032,341.269832 469.396196,349.008429 C464.822133,338.425929 469.176023,332.726596 478.839424,328.721846 C467.539135,329.550693 462.948934,324.00929 462.226167,313.17779 C459.925303,324.989151 452.712622,326.433582 442.826744,324.455415 M311.576023,285.135318 C311.576023,295.891887 311.540288,306.648457 311.623285,317.403874 C311.632507,318.696137 310.628473,320.62704 313.057291,321.110054 C316.36219,321.76829 320.093602,318.662707 320.099366,315.078721 C320.127032,294.526999 320.116657,273.975276 320.109741,253.423554 C320.109741,251.171026 320.701095,248.523096 316.860173,248.941554 C314.003689,249.251651 311.293602,248.81936 311.459597,253.447762 C311.836542,263.997985 311.578329,274.571262 311.576023,285.135318 M649.866513,423.392568 C643.807723,428.808318 638.524726,434.342804 632.377176,438.878985 C628.236542,441.934999 621.988703,444.579471 620.860173,448.585374 C619.729337,452.59704 623.786974,458.071582 625.566801,462.906332 C625.699366,463.264846 625.838847,463.626818 625.921844,463.999165 C626.488991,466.564096 627.641729,467.253457 630.434813,466.438443 C637.774294,464.294276 645.254409,462.587013 652.947781,462.327637 C655.497637,462.241179 656.138559,461.087249 656.191585,458.757485 C656.463631,446.737471 654.208876,435.20854 649.866513,423.392568 M616.619251,439.516471 C617.015793,439.311276 617.556427,439.102624 618.018674,438.782151 C627.653256,432.100651 636.673429,424.722874 644.427896,415.858012 C645.965648,414.101179 645.308588,412.842346 644.388703,411.272262 C639.422709,402.793582 633.480346,395.090721 626.559308,388.104887 C624.417522,385.942276 623.223285,385.667915 621.473429,388.563693 C616.088991,397.479276 609.48611,405.425374 601.365072,412.003124 C599.245187,413.71961 599.255562,415.025707 600.781787,417.21829 C605.371988,423.819096 609.697061,430.60204 614.129337,437.313512 C614.735677,438.231124 615.022709,439.496874 616.619251,439.516471 M566.229625,555.840971 C567.709741,555.983915 568.474006,556.20179 569.197925,556.107262 C587.622133,553.676054 604.365648,547.146721 619.114928,535.691568 C620.932795,534.278262 621.769683,532.419985 622.212334,530.380721 C625.634813,514.636082 625.369683,498.831499 622.916657,482.984262 C622.416369,479.750721 621.222133,479.28154 618.410605,480.880443 C609.981787,485.67254 602.578905,491.657762 596.347205,499.08511 C582.434813,515.66436 574.551239,535.416054 566.229625,555.840971 M489.385821,336.86161 C515.023862,344.106818 540.498213,351.226374 563.483804,365.327151 C552.88438,363.156471 542.488991,359.560957 531.747781,363.889637 C531.825014,364.06486 531.858444,364.344985 531.98755,364.400318 C554.781787,374.223137 575.487262,387.066235 592.02098,405.929137 C593.63366,407.768971 594.888991,407.053096 596.377176,405.794262 C604.188127,399.188846 611.272853,391.959776 616.737983,383.218262 C618.131643,380.98879 617.972565,379.58586 616.002536,377.857846 C610.793314,373.29054 605.353545,369.056387 599.399654,365.510443 C565.474582,345.30686 527.581787,340.236943 489.385821,336.86161 M474.85902,482.218818 C489.828473,481.977887 504.646916,480.34786 519.367378,477.623846 C549.386974,472.067457 577.751239,461.962207 604.561614,447.344985 C608.643458,445.120124 609.122997,443.123512 606.518963,439.523387 C602.701095,434.242512 598.985821,428.871721 595.540288,423.344151 C593.294755,419.742874 591.329337,419.163026 587.428473,421.453596 C568.782939,432.402679 548.560461,434.773943 527.429625,431.713318 C508.701095,429.000832 491.023862,422.661707 473.412334,416.140443 C469.89072,414.836651 468.438271,415.432637 467.021556,418.929012 C460.569683,434.846568 457.97487,451.230999 459.469971,468.386638 C460.673429,482.203832 460.405994,482.226887 474.283804,482.218818 L474.85902,482.218818 M465.202536,491.338443 C465.310893,492.152304 465.274006,492.751749 465.474582,493.255512 C480.490144,530.879874 513.234813,554.52104 552.973141,557.072138 C556.024438,557.26811 557.306282,556.02311 558.419827,553.352124 C562.331066,543.973124 566.244611,534.579137 570.657291,525.430693 C579.932219,506.200054 591.543746,488.726249 609.584092,476.414582 C619.963343,469.333068 619.760461,469.420679 615.196772,457.43179 C613.475735,452.910596 611.876888,452.905985 607.958732,455.085888 C571.064207,475.613401 531.423862,487.045499 489.361614,490.138401 C481.358156,490.726318 473.327032,490.944193 465.202536,491.338443 M222.312622,224.53379 C222.312622,185.92611 222.254986,147.319582 222.39562,108.713054 C222.410605,104.539999 221.42732,103.429874 217.209452,104.285235 C201.050375,107.560276 184.780634,110.294665 168.645764,113.67461 C154.337983,116.671832 139.060749,117.149082 127.480346,128.07511 C127.108012,128.425554 125.952968,129.241721 125.841153,127.931012 C125.429625,123.103179 122.191585,125.768401 120.297637,125.97129 C115.347781,126.501568 110.43366,127.416874 105.527608,128.30336 C83.6348127,132.257387 61.8204035,136.592985 40.5604611,143.272179 C25.5737176,147.978971 15.0549856,160.199568 15.0411527,173.259387 C14.965072,245.672276 15.0376945,318.085165 14.9293372,390.498054 C14.9224207,394.789846 15.8434582,395.126457 19.7581556,393.792693 C32.8186744,389.346429 45.9287608,384.958957 59.2521037,381.42454 C64.5039769,380.030832 65.5552738,377.91779 65.5402882,372.913582 C65.3593084,313.178943 65.5137752,253.443151 65.3178098,193.709665 C65.2912968,185.79354 68.8267435,181.051012 75.53683,178.06186 C77.9691066,176.979401 80.5754467,176.185137 83.1794813,175.607596 C90.8843804,173.900332 90.9051297,173.968346 90.9051297,181.668901 C90.9074352,229.879221 90.9546974,278.08954 90.8232853,326.29986 C90.8106052,330.555915 91.3765994,332.063749 96.125879,330.848721 C110.424438,327.189804 124.801383,323.805249 139.232507,320.713499 C143.754697,319.744012 145.2717,318.154332 145.24634,313.255026 C145.004265,267.734137 145.094179,222.210943 145.109164,176.688901 C145.113775,165.07236 149.664784,160.295249 161.054986,158.016207 C166.622709,156.902624 167.642882,158.206415 167.626744,163.607179 C167.448069,225.450249 167.573718,287.294471 167.420403,349.136387 C167.407723,354.197082 168.53049,354.983276 173.472277,353.957304 C187.541441,351.038471 201.699366,348.367485 215.943746,346.558776 C221.361614,345.871721 222.419827,344.087221 222.399078,339.201749 C222.241153,300.980249 222.31147,262.756443 222.312622,224.53379 M334.361037,315.147887 L375.748934,307.290554 C381.189856,308.079054 382.779481,305.900304 382.763343,300.324318 C382.563919,232.761165 382.569683,165.19686 382.757579,97.6337069 C382.771412,92.4450542 381.468818,91.3545264 376.371412,91.5355125 C348.384092,92.5269014 320.42098,93.8468319 292.513199,96.1731375 C262.005994,98.7173181 249.52415,112.313179 249.513775,142.948249 C249.491873,203.982068 249.494179,265.015887 249.535677,326.05086 C249.537983,328.388693 248.887839,330.899443 250.365648,333.31336 C252.575447,331.752499 255.422709,331.668346 256.487839,328.974304 C258.596196,329.484985 260.121268,328.052082 261.806571,327.290096 C270.347205,323.427138 278.923573,319.656401 287.807723,316.64304 C289.203689,316.169249 290.913199,315.32311 292.069395,316.648804 C292.532795,317.180235 291.845764,318.728415 291.660173,319.809721 C291.171412,322.661693 288.751816,325.130943 289.761614,328.737985 C292.547781,327.656679 295.015793,326.697568 297.482651,325.73961 C302.694179,325.640471 304.373718,323.225401 304.276888,317.855762 C303.925303,298.316179 304.068242,278.765068 304.180058,259.218568 C304.212334,253.707137 301.833084,246.634846 305.126455,243.102735 C308.430202,239.559096 315.709741,241.967249 321.132219,240.993151 C326.460173,240.035193 327.750086,241.827762 327.682075,247.119012 C327.382363,270.282929 327.552968,293.45261 327.552968,316.750249 C330.196196,316.803276 332.37487,316.400957 334.361037,315.147887 M619.939135,344.092985 C621.791585,346.208332 623.895331,347.932887 626.936254,349.036096 C626.936254,271.316971 626.909741,194.160401 627.018098,117.004985 C627.022709,113.327624 625.298213,112.543735 622.329914,111.999624 C607.813487,109.333249 593.261326,106.93086 578.653833,104.798221 C573.540288,104.051221 572.764496,105.576346 572.777176,110.300429 C572.938559,170.380901 572.872853,230.461374 572.914352,290.541846 C572.916657,293.398429 573.611758,296.257318 573.572565,299.110443 C573.520692,302.881179 575.690144,304.074304 578.863631,304.457026 C586.954697,307.16836 595.045764,309.880846 604.114352,312.920721 C596.086686,316.52661 589.113775,319.65986 580.96853,323.319929 C595.450375,329.456165 607.922997,336.360151 619.939135,344.092985 M537.030778,292.419721 C539.363919,292.085415 543.732795,298.145568 543.82732,291.12054 C544.192738,263.853887 543.957579,236.580318 544.003689,209.307901 C544.007147,206.980443 543.248646,205.749276 540.826744,205.48529 C536.253833,204.98729 531.712046,204.173429 527.132219,203.772263 C512.612334,202.49729 498.077464,201.375637 483.554121,200.138707 C479.912622,199.82861 478.467089,201.036721 478.625014,204.97461 C478.939712,212.835401 478.952392,220.728471 478.630778,228.589263 C478.455562,232.893735 479.435389,235.210818 484.178905,234.565262 C488.393314,233.991179 489.760461,235.709971 489.690144,240.070929 C489.429625,256.199443 489.59562,272.334874 489.591009,288.467999 C489.588703,298.244707 489.580634,298.244707 479.902248,297.601457 C468.656138,296.854457 465.596772,293.53561 465.59562,282.051637 C465.592161,248.057374 465.607147,214.06311 465.588703,180.068846 C465.580634,166.630915 465.528761,153.192985 465.44,139.755054 C465.404265,134.414235 468.365648,132.097151 473.287839,131.870054 C478.85902,131.612985 484.39562,132.283901 489.948357,132.641262 C493.570259,132.875276 495.415793,133.683374 495.901095,137.676596 C496.499366,142.60011 498.289568,147.373762 498.965072,152.294971 C499.617522,157.037499 501.648646,158.98454 506.58928,159.411068 C517.283228,160.33329 527.956427,161.726999 538.547781,163.47461 C542.868242,164.187026 543.806571,163.127624 543.761614,159.00529 C543.579481,141.914207 543.422709,124.812749 543.831931,107.729735 C543.970259,101.987749 541.778905,99.7167764 536.560461,99.2187764 C527.396196,98.3461236 518.250375,97.2313875 509.073429,96.5408736 C487.072277,94.8831792 465.104553,92.4623458 443.013487,92.4427486 C421.686686,92.4243042 410.816369,103.588957 410.800231,124.923415 C410.794467,132.990554 410.817522,141.05654 410.817522,149.122526 C410.815216,197.713262 410.803689,246.302846 410.814063,294.892429 C410.816369,304.031651 410.853256,304.031651 418.203112,303.180901 C434.971988,302.836221 451.739712,302.492693 468.507435,302.148012 C477.540288,302.762443 486.573141,303.378026 495.604841,303.992457 C509.38121,305.582137 523.120692,307.428887 537.454986,310.298151 C533.189856,302.718637 526.920115,297.464276 522.937406,289.627693 C528.167378,290.66404 532.598501,291.541304 537.030778,292.419721 M535.291297,403.354985 C522.879769,397.766318 510.540865,392.028943 497.076888,389.228846 C490.967378,387.957332 485.866513,388.283568 482.372565,394.444012 C480.396772,397.926554 477.783516,401.055193 475.366225,404.274901 C473.68438,406.513596 473.833084,407.698651 476.754121,408.747679 C492.997349,414.581887 509.234813,420.379207 526.372565,423.134346 C546.228473,426.326387 565.280922,424.349374 583.261326,414.752499 C586.520115,413.012957 587.376599,411.779485 584.248069,408.717707 C575.845764,400.494943 566.929337,392.954624 557.026167,386.635096 C518.978905,362.357596 476.657291,352.251193 432.228473,349.748512 C410.207723,348.508124 388.177752,349.392304 366.355274,353.065054 C358.909741,354.318124 351.380058,355.315276 343.358156,358.201832 C348.370259,359.513693 352.246916,357.81911 356.237695,357.958596 C381.698213,358.850846 407.193314,359.22204 432.491297,362.640026 C456.077464,365.827457 479.377752,370.339429 501.431931,379.687304 C514.371412,385.171068 526.776023,391.597804 536.271124,402.420082 C535.944899,402.731332 535.618674,403.043735 535.291297,403.354985 M538.234236,300.120276 L538.159308,299.391721 C538.010605,299.42861 537.861902,299.465499 537.712046,299.502387 C537.928761,299.67761 538.145476,299.852832 538.36219,300.028054 C540.271124,304.721012 543.985245,308.148221 547.005418,312.031929 C548.84634,314.397429 548.958156,316.222276 547.535677,318.719193 C545.314352,322.61904 543.39389,326.689499 540.650375,332.044151 C546.044035,330.251582 550.103977,329.252124 553.849222,327.556387 C557.322421,325.983999 559.407723,326.840512 561.631354,329.675193 C564.507435,333.342179 567.828473,336.659874 572.057867,341.345915 C571.53683,335.101318 571.416945,330.534012 570.702248,326.060082 C570.10513,322.317012 571.44,320.650096 574.862478,319.281749 C578.784092,317.715124 583.058444,316.581943 586.822133,313.358776 C581.879193,311.731054 577.577176,310.082582 573.144899,308.930957 C569.850375,308.075596 568.464784,306.385624 568.185821,302.986082 C567.797349,298.264304 566.845187,293.58979 565.909164,287.410901 C563.47804,291.345332 561.433084,293.912568 560.188127,296.823332 C557.723573,302.584915 554.192738,304.202262 548.18121,301.847137 C545.148357,300.658624 541.808876,299.120818 538.234236,300.120276 M647.778905,471.553318 C646.659597,471.702026 645.541441,471.850735 644.423285,471.999443 C640.118963,471.751596 636.188127,473.470388 632.099366,474.348804 C629.731643,474.857179 629.459597,476.045693 629.856138,478.489582 C631.171412,486.600526 632.26536,494.76911 632.924726,502.95729 C633.390432,508.730401 633.01464,514.571526 633.01464,521.181554 C642.516657,510.811165 650.040576,494.796776 654.026744,477.24804 C655.732795,469.73654 655.506859,469.530193 647.778905,471.553318 M270.746052,402.521526 C273.910317,392.038165 279.446916,382.510457 283.450375,370.998818 C222.491297,386.148624 170.83366,416.694929 123.879193,458.144207 C126.73683,447.482165 146.339135,419.889276 164.082075,400.849999 C179.806571,383.975637 197.020403,368.750901 215.337406,354.175179 C205.091873,355.878985 194.826744,357.474429 184.607723,359.323485 C177.813487,360.553499 171.01464,361.881499 164.354121,363.674068 C160.442882,364.726554 159.745476,363.465415 159.961037,359.982874 C160.186974,356.347013 160.011758,352.684638 160.011758,349.034943 C160.011758,290.051915 160.029049,231.067735 159.933372,172.084707 C159.929914,170.282915 161.426167,167.206151 158.695331,166.740429 C156.180058,166.312749 154.243458,168.568735 153.366225,171.171707 C152.431354,173.941832 152.34951,176.794957 152.351816,179.691888 C152.379481,226.186874 152.288415,272.68186 152.495908,319.175693 C152.51781,323.940124 151.216369,325.734999 146.55585,326.76904 C127.456138,331.004346 108.423285,335.556665 89.4457637,340.308415 C84.5570029,341.532665 83.0065706,341.085388 83.0342363,335.411415 C83.2751585,287.380929 83.2082997,239.348138 83.0584438,191.316499 C83.0515274,188.932554 85.1621902,185.160665 81.3327954,184.130082 C78.1523919,183.274721 73.2048415,188.360776 72.7979251,192.111915 C72.6330836,193.632429 72.7379827,195.182915 72.7379827,196.719568 C72.73683,257.815637 72.6791931,318.91286 72.8578674,380.008929 C72.8705476,384.573929 71.4342363,386.178596 67.1668012,387.237999 C48.5339481,391.86179 30.2457637,397.672943 12.3345245,404.593068 C8.47746398,406.082457 7.19446686,405.872651 7.20253602,401.177388 C7.33394813,325.862957 7.26132565,250.548526 7.32126801,175.234096 C7.33510086,157.17929 18.8705476,142.291165 37.6198271,136.204499 C56.266513,130.15011 75.4365418,126.153429 94.6826513,122.563679 C104.488991,120.734221 114.334524,119.088054 124.198501,117.594054 C133.559885,116.17729 141.535677,110.784596 150.951239,109.170707 C175.712046,104.925026 200.351816,99.9542486 224.98928,95.0192069 C230.621556,93.8906375 229.752392,97.2475264 229.750086,100.479915 C229.682075,179.633096 229.623285,258.787429 229.564496,337.94061 C229.56219,340.050193 229.563343,342.160929 229.563343,344.307401 C239.134524,342.157471 242.057867,338.668013 242.048646,329.524179 C241.986398,266.89261 241.93683,204.26104 241.836542,141.629471 C241.822709,132.907554 242.64,124.351638 246.287262,116.317929 C253.942594,99.4527903 267.763919,91.0651792 285.565648,89.3037347 C315.951816,86.2995958 346.429049,84.4655264 376.98121,84.2499569 C389.988703,84.1577347 389.988703,84.1704153 389.988703,97.2682764 C389.988703,164.704624 389.967954,232.140971 390.088991,299.577318 C390.093602,301.742235 387.856138,306.324526 393.318963,305.455332 C404.343746,303.701957 403.457291,306.266887 403.430778,299.087387 C403.274006,256.440374 403.241729,213.792207 403.181787,171.14404 C403.159885,155.390179 403.095331,139.636318 403.200231,123.882457 C403.361614,99.5138875 417.57487,84.8079014 441.884957,84.9335542 C473.971412,85.0995542 505.887262,88.3930403 537.78928,91.5712486 C541.897637,91.9804847 545.352392,94.2364708 549.05268,95.8077069 C551.374294,96.7933319 551.306282,98.6147208 551.30513,100.564068 C551.301671,123.234596 551.262478,145.906276 551.359308,168.576804 C551.371988,171.603999 550.53049,172.644957 547.404265,172.224193 C530.855562,169.997026 514.293026,167.862082 497.718963,165.829735 C494.659597,165.453929 493.635965,163.970304 493.150663,161.081443 C492.261902,155.792499 490.661902,150.621137 489.800807,145.328735 C489.131066,141.211013 487.34317,139.802318 483.051527,139.731999 C472.656138,139.56254 472.684957,139.295096 472.750663,149.670096 C472.830202,162.155832 473.131066,174.65079 472.786398,187.126151 C472.645764,192.206443 474.438271,192.925776 478.997349,192.933846 C501.487262,192.970735 523.813487,195.188679 546.018674,198.74961 C550.083228,199.402082 551.647493,200.967554 551.601383,205.436874 C551.30513,234.059193 551.346628,262.686124 551.332795,291.310749 C551.331643,292.944235 550.414063,295.448068 552.122421,296.049818 C554.522421,296.895957 554.68611,293.879138 555.774294,292.532693 C563.207147,283.340443 565.369683,273.027693 565.237118,261.075693 C564.645764,208.054832 565.044611,155.024749 564.880922,101.998124 C564.865937,97.2463736 565.716657,95.9068458 570.823285,96.4244431 C590.710317,98.4394986 610.351816,101.747971 629.871124,105.982124 C633.534524,106.776387 634.823285,108.191999 634.817522,112.051499 C634.705706,189.286457 634.95585,266.522568 634.43366,343.755221 C634.373718,352.60279 636.532795,358.434693 642.491297,364.799179 C681.495331,406.460568 685.088415,470.915832 651.383516,519.51579 C629.58755,550.945124 600.223862,570.440901 561.308588,571.95911 C517.449222,573.669832 484.712622,553.196499 461.081499,517.373929 C448.403689,498.153665 442.379481,476.702776 443.597925,453.505429 C443.780058,450.043637 441.309741,448.878179 439.230202,447.339221 C420.971988,433.82636 400.501671,424.732096 379.095331,417.603318 C367.866513,413.862554 356.520115,410.476846 343.981787,406.54011 C358.0083,403.952124 370.713775,405.389637 383.347781,406.782193 C404.623862,409.12579 425.308588,414.100026 445.080346,422.425388 C448.124726,423.707276 449.464207,423.233485 450.688415,420.26854 C452.739135,415.305832 454.939712,410.383471 457.437695,405.632874 C459.194467,402.290971 458.145476,401.187762 454.876311,400.108762 C436.011758,393.881457 416.656138,390.018499 396.94317,387.990762 C366.007147,384.809096 335.224438,385.550332 304.727608,392.273332 C293.250951,394.802526 282.288415,398.864915 271.397349,403.165929 C271.18755,402.944596 270.970836,402.729026 270.746052,402.521526" id="Fill-19" fill="#112329" sketch:type="MSShapeGroup"></path>
                <path d="M783.401844,231.882633 C783.76611,231.195578 784.09464,230.864731 784.095793,230.532731 C784.162651,205.560106 784.17072,180.586328 784.296369,155.613703 C784.309049,153.066064 782.931527,152.325981 780.960346,151.787633 C750.994928,143.593689 721.427205,133.906897 691.145937,126.929133 C669.723458,121.991786 654.940749,133.941481 654.860058,155.869619 C654.653718,212.349967 654.55804,268.833772 654.926916,325.312967 C655.04219,343.086494 663.663516,356.343439 680.026628,364.152356 C685.983977,366.995106 692.42317,368.097161 698.722882,369.726036 C725.651988,376.691119 752.292911,384.660272 778.812795,393.023675 C783.579366,394.526897 784.555735,393.447897 784.492334,388.716897 C784.22951,369.124286 784.231816,349.528217 784.31366,329.9333 C784.327493,326.570647 783.596657,324.812661 779.982824,323.875453 C771.447954,321.663272 762.994928,319.074133 754.645648,316.237147 C751.021441,315.005981 750.058905,316.267119 749.407608,319.467231 C747.956311,326.606383 746.153429,333.674064 744.699827,340.813217 C744.194928,343.291689 743.458329,343.949925 740.876196,343.110703 C735.230086,341.275481 729.487147,339.711161 723.729222,338.249439 C712.808184,335.477008 708.635274,330.347147 708.612219,319.106411 C708.575331,301.046994 708.606455,282.987578 708.607608,264.929314 C708.609914,236.879925 708.598386,208.830536 708.619135,180.7823 C708.626052,171.066689 710.465821,169.678744 720.01049,172.133008 C723.167839,172.944564 726.244496,174.12155 729.432968,174.740592 C733.384553,175.507189 735.019135,177.432328 735.518271,181.630744 C736.833545,192.673203 738.744784,203.6488 740.57879,214.624397 C740.886571,216.466536 740.454294,218.742119 743.394928,219.611314 C756.794352,223.569953 770.118847,227.782203 783.401844,231.882633 M791.413372,242.365994 C773.142478,236.738133 754.854294,231.052633 736.521153,225.516994 C733.929798,224.735411 734.182248,222.796439 733.895216,221.020008 C732.025476,209.471481 730.222594,197.912578 728.377061,186.360592 C727.844496,183.0233 720.328646,178.372994 717.40415,179.737883 C715.132104,180.797286 716.146513,183.150106 716.140749,184.91155 C716.070432,206.231022 716.096945,227.550494 716.096945,248.869967 C716.096945,271.918606 716.079654,294.966092 716.101556,318.014731 C716.110778,326.601772 717.834121,328.810494 725.998963,331.019217 C738.42317,334.379564 738.336715,334.359967 741.175908,321.689786 C742.341326,316.489606 741.668127,309.088772 745.498674,306.762467 C749.321153,304.440772 755.453718,308.712967 760.544207,310.198897 C769.565533,312.832994 778.529222,315.674592 787.593199,318.151911 C790.862363,319.045314 792.181095,320.342189 792.15804,324.008022 C792.002421,349.358758 792.051988,374.7118 792.231816,400.063689 C792.260634,404.094953 791.326916,404.858092 787.423746,403.654592 C753.882536,393.317633 720.307896,383.133994 686.246801,374.549258 C661.666974,368.353078 647.012219,348.609453 646.933833,322.798758 C646.768991,268.060258 646.834697,213.319453 646.962651,158.580953 C646.974179,153.832661 647.695793,148.97255 648.864669,144.362592 C653.532104,125.948119 669.170144,115.802522 687.967839,118.437772 C698.668703,119.938689 708.856599,123.401633 719.194352,126.252453 C741.936715,132.524717 764.598386,139.088633 787.287723,145.555717 C789.559769,146.203578 792.139597,146.151703 792.122305,149.897078 C791.983977,180.241647 792.016254,210.586217 791.977061,240.930786 C791.975908,241.276619 791.715389,241.620147 791.413372,242.365994" id="Fill-21" fill="#16272D" sketch:type="MSShapeGroup"></path>
                <path d="M652.355504,362.403937 C651.377983,362.308257 650.521499,362.063868 650.590663,360.823479 C650.598732,360.68284 650.826974,360.447674 650.96415,360.439604 C652.228703,360.365826 652.393545,361.290354 652.533026,362.22641 L652.355504,362.403937 Z" id="Fill-23" fill="#C0C7CD" sketch:type="MSShapeGroup"></path>
                <path d="M653.656599,363.390254 C653.967839,363.77874 654.280231,364.167226 654.59147,364.55456 L653.944784,364.993768 C653.801844,364.506143 653.660058,364.018518 653.519424,363.528587 C653.521729,363.526282 653.656599,363.390254 653.656599,363.390254" id="Fill-25" fill="#C0C7CD" sketch:type="MSShapeGroup"></path>
                <path d="M271.39781,403.166506 C270.989741,403.561908 270.550548,403.754422 270.171297,403.182644 C270.128646,403.118089 270.543631,402.750353 270.74536,402.522103 C270.970144,402.729603 271.188012,402.944019 271.39781,403.166506" id="Fill-27" fill="#112329" sketch:type="MSShapeGroup"></path>
                <path d="M334.293487,167.532503 C334.293487,154.87385 334.117118,142.210586 334.393775,129.557697 C334.483689,125.386947 333.130375,124.196128 329.192622,124.630725 C323.672161,125.240544 318.065245,125.188669 312.581671,126.003683 C303.273314,127.387017 297.503862,133.743433 297.447378,142.715503 C297.307896,164.388878 297.450836,186.064558 297.342478,207.737933 C297.327493,210.757058 298.201268,211.755364 301.258329,211.534031 C310.627781,210.853892 320.007608,210.221017 329.395504,209.960489 C333.530375,209.845211 334.444496,208.166767 334.37879,204.357989 C334.167839,192.085517 334.300403,179.808433 334.293487,167.532503 M375.748242,307.290669 C361.952277,309.909781 348.157464,312.528892 334.361499,315.148003 C334.340749,289.450281 334.292334,263.752558 334.336138,238.055989 C334.340749,235.012656 334.26928,233.001058 330.115965,233.432197 C320.784553,234.400531 311.408184,235.0726 302.034121,235.439183 C298.188588,235.590197 297.298674,236.957392 297.319424,240.5921 C297.484265,268.973489 297.453141,297.357183 297.483112,325.739725 C295.015101,326.697683 292.548242,327.655642 289.762075,328.7381 C288.751124,325.131058 291.171873,322.661808 291.660634,319.809836 C291.846225,318.728531 292.533256,317.18035 292.069856,316.648919 C290.912507,315.323225 289.202997,316.169364 287.808184,316.643156 C278.924035,319.656517 270.347666,323.427253 261.807032,327.290211 C260.120576,328.052197 258.595504,329.4851 256.4883,328.974419 C256.412219,328.212433 256.268127,327.449294 256.268127,326.686156 C256.254294,263.683392 256.230086,200.680628 256.283112,137.677864 C256.287723,132.084586 257.289452,126.580072 259.657176,121.444447 C265.760922,108.202489 277.471585,104.277281 290.678501,103.124503 C316.685418,100.853531 342.753429,99.585475 368.832968,98.4534472 C374.087147,98.22635 375.888876,99.1405028 375.868127,105.027739 C375.631816,172.447947 375.735562,239.869308 375.748242,307.290669" id="Fill-29" fill="#0674BC" sketch:type="MSShapeGroup"></path>
                <path d="M468.507666,302.147897 C451.739942,302.492578 434.971066,302.836106 418.203343,303.180786 C417.914006,299.743203 417.37683,296.305619 417.373372,292.868036 C417.321499,237.181953 417.319193,181.495869 417.346859,125.809786 C417.356081,106.901925 425.067896,99.0918556 443.917464,99.2601611 C473.889798,99.5264528 503.669625,102.813022 533.500173,105.289189 C536.601037,105.546258 537.235043,106.998758 537.218905,109.741217 C537.131297,123.950356 537.109395,138.160647 537.22928,152.369786 C537.253487,155.343953 536.506513,156.52555 533.343401,156.057522 C525.184323,154.852869 517.005648,153.749661 508.80853,152.838967 C506.035043,152.531175 505.443689,150.897689 504.98951,148.686661 C503.792968,142.862828 502.42121,137.074731 501.276542,131.241675 C500.69902,128.300939 499.610836,126.557939 496.161844,126.442661 C489.648876,126.223633 483.158963,125.286425 476.645994,125.105439 C464.05464,124.756147 458.680576,130.125786 458.688646,142.674925 C458.717464,189.333606 458.83389,235.992286 458.749741,282.649814 C458.733602,290.978633 461.230432,297.660133 468.507666,302.147897" id="Fill-31" fill="#0674BC" sketch:type="MSShapeGroup"></path>
                <path d="M118.845072,152.042282 C118.845072,146.664574 118.795504,141.286865 118.86928,135.91031 C118.899251,133.789199 118.433545,132.66524 115.948242,133.120587 C90.2859942,137.821615 64.5176945,142.167587 39.7522767,150.619754 C27.7568876,154.713268 21.671585,164.445018 21.6704323,177.160157 C21.6658213,223.642462 21.6681268,270.124768 21.6681268,316.608226 C21.6681268,338.120212 21.7292219,359.633351 21.6116427,381.145337 C21.5920461,384.808865 22.1926225,385.861351 26.115389,384.505685 C34.9926225,381.43699 43.9701441,378.565421 53.0779251,376.301365 C57.81683,375.123226 58.7989625,372.936407 58.7862824,368.380629 C58.6237464,310.18149 58.7701441,251.981199 58.5926225,193.783212 C58.5614986,183.417435 63.3626513,176.771671 72.1349856,172.317337 C76.9926225,169.851546 82.3217291,169.005407 87.5874352,167.954074 C97.5136599,165.971296 97.5125072,165.966685 97.5125072,175.820629 L97.5125072,185.040546 C97.5125072,228.834574 97.5113545,272.628601 97.5136599,316.421476 C97.5136599,323.561782 97.5274928,323.595213 104.697522,321.91331 C114.034697,319.724185 123.293487,317.124671 132.71366,315.403574 C137.351124,314.556282 138.405879,312.685324 138.387435,308.262115 C138.223746,266.773643 138.290605,225.285171 138.290605,183.796699 C138.290605,159.309393 143.220865,153.85099 167.643919,150.188615 C172.828934,149.41049 174.307896,150.253171 174.2883,155.847601 C174.07389,217.118893 174.153429,278.39249 174.154582,339.664935 C174.155735,346.770657 174.152277,346.708407 181.423746,345.427671 C191.059481,343.730782 200.676772,341.837921 210.378213,340.651712 C214.653718,340.128351 215.601268,338.633199 215.596657,334.554671 C215.51366,262.142935 215.550548,189.731199 215.728069,117.320615 C215.739597,112.72449 214.712507,111.380351 210.032392,112.326782 C191.798386,116.014518 173.524035,119.51781 155.225476,122.870087 C144.125764,124.903587 134.234121,128.870296 127.087147,138.113268 C123.783401,142.385462 121.737291,147.311282 118.845072,152.042282 M222.312507,224.53356 C222.311354,262.756213 222.241037,300.980018 222.398963,339.202671 C222.419712,344.08699 221.361499,345.87149 215.943631,346.559699 C201.699251,348.367254 187.541326,351.039393 173.472161,353.958226 C168.530375,354.983046 167.407608,354.198004 167.420288,349.13731 C167.573602,287.29424 167.447954,225.450018 167.626628,163.606949 C167.642767,158.206185 166.622594,156.902393 161.05487,158.015976 C149.664669,160.296171 145.11366,165.073282 145.110202,176.688671 C145.094063,222.211865 145.005303,267.733907 145.246225,313.254796 C145.271585,318.154101 143.754582,319.743782 139.232392,320.713268 C124.801268,323.805018 110.424323,327.189574 96.1257637,330.84849 C91.3764841,332.064671 90.8104899,330.555685 90.82317,326.299629 C90.9545821,278.08931 90.9073199,229.87899 90.9050144,181.668671 C90.9050144,173.968115 90.8842651,173.900101 83.179366,175.608518 C80.5753314,176.184907 77.9689914,176.979171 75.5367147,178.062782 C68.8266282,181.050782 65.2911816,185.794462 65.3176945,193.709435 C65.5136599,253.444074 65.3591931,313.179865 65.5401729,372.914504 C65.5551585,377.91756 64.5038617,380.030601 59.2519885,381.42431 C45.9286455,384.958726 32.8185591,389.347351 19.7591931,393.793615 C15.8433429,395.126226 14.9223055,394.790768 14.9292219,390.497824 C15.0375793,318.084935 14.9649568,245.672046 15.0410375,173.259157 C15.0548703,160.199337 25.5736023,147.979893 40.5603458,143.271949 C61.8202882,136.593907 83.6346974,132.25831 105.527493,128.303129 C110.433545,127.417796 115.347666,126.50249 120.297522,125.97106 C122.19147,125.768171 125.42951,123.102949 125.841037,127.931935 C125.952853,129.24149 127.107896,128.426476 127.480231,128.074879 C139.060634,117.150004 154.337867,116.672754 168.645648,113.674379 C184.780519,110.294435 201.050259,107.561199 217.209337,104.285004 C221.427205,103.429643 222.41049,104.539768 222.395504,108.712824 C222.25487,147.319351 222.312507,185.927032 222.312507,224.53356" id="Fill-33" fill="#EEF1F1" sketch:type="MSShapeGroup"></path>
                <path d="M619.939481,344.093215 C607.923343,336.360382 595.45072,329.456396 580.967723,323.32016 C589.114121,319.66009 596.087032,316.52684 604.114697,312.919799 C595.044957,309.881076 586.95389,307.16859 578.860519,304.457257 C578.963112,299.855368 579.15562,295.253479 579.157925,290.65159 C579.177522,233.048438 579.251297,175.444132 579.040346,117.842132 C579.020749,112.365285 580.65072,111.333549 585.583285,112.278826 C594.996542,114.081771 604.458213,115.697965 613.959078,116.94066 C618.914697,117.589674 620.294524,119.620868 620.280692,124.637757 C620.095101,192.417632 620.160807,260.19866 620.146974,327.978535 C620.145821,333.350479 620.012104,338.721271 619.939481,344.093215" id="Fill-35" fill="#0674BC" sketch:type="MSShapeGroup"></path>
                <path d="M468.507666,302.147897 C461.230432,297.660133 458.733602,290.978633 458.749741,282.649814 C458.83389,235.992286 458.717464,189.333606 458.688646,142.674925 C458.680576,130.125786 464.05464,124.756147 476.645994,125.105439 C483.158963,125.286425 489.648876,126.223633 496.161844,126.442661 C499.610836,126.557939 500.69902,128.300939 501.276542,131.241675 C502.42121,137.074731 503.792968,142.862828 504.98951,148.686661 C505.443689,150.897689 506.035043,152.531175 508.80853,152.838967 C517.005648,153.749661 525.184323,154.852869 533.343401,156.057522 C536.506513,156.52555 537.253487,155.343953 537.22928,152.369786 C537.109395,138.160647 537.131297,123.950356 537.218905,109.742369 C537.235043,106.998758 536.601037,105.546258 533.500173,105.289189 C503.669625,102.813022 473.889798,99.5264528 443.917464,99.2601611 C425.067896,99.0918556 417.356081,106.901925 417.346859,125.809786 C417.319193,181.495869 417.321499,237.181953 417.373372,292.868036 C417.37683,296.305619 417.914006,299.743203 418.203343,303.180786 C410.853487,304.031536 410.815447,304.031536 410.814294,294.892314 C410.803919,246.302731 410.815447,197.713147 410.816599,149.122411 C410.817752,141.056425 410.794697,132.990439 410.800461,124.9233 C410.815447,103.588842 421.686916,92.4241889 443.013718,92.4426333 C465.103631,92.4633833 487.071354,94.8830639 509.07366,96.5407583 C518.250605,97.232425 527.395274,98.3460083 536.559539,99.2186611 C541.779135,99.7166611 543.969337,101.988786 543.832161,107.729619 C543.421787,124.813786 543.579712,141.914092 543.761844,159.005175 C543.805648,163.127508 542.868473,164.186911 538.548012,163.474494 C527.956657,161.726883 517.282305,160.333175 506.588357,159.410953 C501.648876,158.984425 499.616599,157.037383 498.965303,152.294856 C498.289798,147.3748 496.499597,142.601147 495.901326,137.677633 C495.416023,133.683258 493.569337,132.875161 489.948588,132.641147 C484.39585,132.283786 478.858098,131.614022 473.288069,131.869939 C468.365879,132.097036 465.404496,134.414119 465.440231,139.756092 C465.527839,153.192869 465.580865,166.6308 465.587781,180.068731 C465.607378,214.062994 465.592392,248.057258 465.59585,282.051522 C465.597003,293.536647 468.656369,296.854342 479.901326,297.601342 C489.580865,298.244592 489.588934,298.244592 489.591239,288.467883 C489.594697,272.334758 489.429856,256.199328 489.689222,240.070814 C489.759539,235.709856 488.393545,233.991064 484.179135,234.565147 C479.43562,235.211856 478.45464,232.893619 478.631009,228.5903 C478.952622,220.728356 478.93879,212.836439 478.625245,204.974494 C478.46732,201.037758 479.912853,199.828494 483.554352,200.138592 C498.077695,201.375522 512.611412,202.497175 527.13245,203.772147 C531.712277,204.173314 536.254063,204.987175 540.826974,205.485175 C543.248876,205.749161 544.007378,206.980328 544.002767,209.307786 C543.95781,236.580203 544.192968,263.854925 543.82755,291.121578 C543.733026,298.145453 539.36415,292.086453 537.029856,292.4173 C537.105937,266.696522 537.146282,240.979203 537.307666,215.263036 C537.32611,212.385703 536.514582,211.289411 533.493256,211.0358 C518.971066,209.812703 504.463862,208.399397 489.967032,206.896175 C486.57683,206.543425 484.921499,207.220106 485.225821,211.047328 C485.514006,214.671661 485.601614,218.370925 485.209683,221.974508 C484.674813,226.896869 486.211412,229.255453 491.424092,228.552258 C494.397003,228.151092 495.902478,229.087147 495.872507,232.601967 C495.670778,256.397606 495.670778,280.19555 495.605072,303.992342 C486.572219,303.377911 477.540519,302.762328 468.507666,302.147897" id="Fill-37" fill="#EEF1F1" sketch:type="MSShapeGroup"></path>
                <path d="M536.271124,402.419851 C526.776023,391.597574 514.371412,385.170838 501.431931,379.687074 C479.377752,370.339199 456.077464,365.827226 432.491297,362.640949 C407.193314,359.22181 381.698213,358.850615 356.237695,357.959518 C352.246916,357.818879 348.370259,359.513463 343.358156,358.201601 C351.380058,355.315046 358.909741,354.319046 366.355274,353.064824 C388.177752,349.392074 410.207723,348.507893 432.228473,349.748282 C476.657291,352.250962 518.978905,362.357365 557.026167,386.634865 C566.929337,392.954393 575.845764,400.494712 584.248069,408.717476 C587.376599,411.779254 586.520115,413.013879 583.261326,414.752268 C565.280922,424.350296 546.228473,426.326157 526.372565,423.134115 C509.234813,420.378976 492.997349,414.58281 476.754121,408.747449 C473.833084,407.698421 473.68438,406.513365 475.366225,404.274671 C477.783516,401.056115 480.396772,397.926324 482.372565,394.443782 C485.866513,388.283338 490.967378,387.958254 497.076888,389.228615 C510.540865,392.028712 522.879769,397.76724 535.29245,403.354754 C535.790432,403.762837 536.287262,404.173226 536.784092,404.583615 C537.385821,403.679837 537.13683,402.976643 536.271124,402.419851" id="Fill-39" fill="#C0C7CD" sketch:type="MSShapeGroup"></path>
                <path d="M495.605303,303.992687 C495.671009,280.195896 495.671009,256.397951 495.872738,232.602312 C495.902709,229.087493 494.397233,228.151437 491.424323,228.552604 C486.21049,229.255799 484.675043,226.896062 485.209914,221.974854 C485.601844,218.371271 485.513084,214.672007 485.226052,211.047674 C484.921729,207.220451 486.575908,206.543771 489.967262,206.895368 C504.462939,208.399743 518.971297,209.811896 533.493487,211.034993 C536.514813,211.289757 537.32634,212.384896 537.307896,215.262229 C537.146513,240.979549 537.105014,266.696868 537.030086,292.416493 C532.598963,291.541535 528.167839,290.664271 522.937867,289.627924 C526.919424,297.464507 533.190317,302.717715 537.455447,310.297229 C523.12,307.429118 509.380519,305.582368 495.605303,303.992687" id="Fill-41" fill="#0674BC" sketch:type="MSShapeGroup"></path>
                <path d="M583.891643,486.092497 C564.416138,500.276275 546.190202,513.646192 523.093948,516.727567 C543.123919,505.559456 563.480115,495.058803 579.608069,477.882414 C547.927378,493.164789 514.340058,500.594442 478.493372,502.904608 C494.320461,526.789011 513.529683,542.714636 541.694524,545.389081 C545.942363,545.792553 548.336599,544.305469 550.45879,540.712261 C559.332565,525.697331 567.155043,510.042608 577.511239,495.919928 C579.476657,493.240872 582.064553,490.937622 583.891643,486.092497 M465.202305,491.338789 C473.326801,490.944539 481.357925,490.726664 489.361383,490.137594 C531.423631,487.045844 571.063977,475.613747 607.958501,455.086233 C611.876657,452.906331 613.475504,452.910942 615.196542,457.432136 C619.760231,469.419872 619.963112,469.332261 609.583862,476.414928 C591.543516,488.726594 579.931988,506.199247 570.657061,525.431039 C566.245533,534.578331 562.330836,543.973469 558.420749,553.352469 C557.306052,556.023456 556.024207,557.268456 552.972911,557.072483 C513.234582,554.521386 480.489914,530.879067 465.475504,493.255858 C465.273775,492.750942 465.310663,492.15265 465.202305,491.338789" id="Fill-43" fill="#C0C7CD" sketch:type="MSShapeGroup"></path>
                <path d="M549.151354,444.768526 C549.04415,444.384651 548.935793,444.000776 548.828588,443.616901 C548.285648,443.510846 547.745014,443.324096 547.199769,443.311415 C522.915043,442.752318 498.92196,440.593165 476.523112,430.06254 C473.446455,428.615804 472.87585,430.661985 472.032046,432.599804 C466.857406,444.464193 466.949625,456.83004 468.510432,469.35036 C468.970375,473.048471 470.664899,474.307304 474.577291,474.231221 C500.616484,473.72861 526.139251,470.015513 550.988818,462.20429 C559.445303,459.545985 567.898329,456.655971 575.437233,451.680582 C554.3917,454.954471 533.392277,457.685401 512.020519,455.816749 C524.397464,452.133624 536.774409,448.451651 549.151354,444.768526 M474.859712,482.218818 L474.283343,482.218818 C460.406686,482.226888 460.674121,482.203832 459.46951,468.386638 C457.974409,451.230999 460.569222,434.846568 467.021095,418.929013 C468.43781,415.432638 469.890259,414.836651 473.413026,416.141596 C491.024553,422.661707 508.701787,429.000832 527.430317,431.713318 C548.56,434.773943 568.782478,432.402679 587.428012,421.453596 C591.328876,419.163026 593.295447,419.742874 595.539827,423.344151 C598.986513,428.871721 602.701787,434.242513 606.519654,439.523388 C609.122536,443.123513 608.642997,445.120124 604.562305,447.344985 C577.750778,461.962207 549.386513,472.06861 519.368069,477.623846 C504.647608,480.34786 489.829164,481.977888 474.859712,482.218818" id="Fill-45" fill="#C0C7CD" sketch:type="MSShapeGroup"></path>
                <path d="M375.748473,307.291131 C375.735793,239.869769 375.632046,172.448408 375.868357,105.027047 C375.887954,99.1398111 374.086225,98.2256583 368.833199,98.4539083 C342.75366,99.5847833 316.685648,100.852839 290.678732,103.123811 C277.471816,104.277742 265.761153,108.20295 259.657406,121.444908 C257.289683,126.579381 256.287954,132.085047 256.283343,137.677172 C256.230317,200.679936 256.254524,263.6827 256.268357,326.686617 C256.268357,327.448603 256.411297,328.211742 256.48853,328.974881 C255.422248,331.668922 252.574986,331.753075 250.365187,333.312783 C248.88853,330.900019 249.537522,328.389269 249.536369,326.050283 C249.49487,265.016464 249.491412,203.982644 249.513314,142.947672 C249.523689,112.313756 262.005533,98.7178944 292.512738,96.1737139 C320.421671,93.8462556 348.383631,92.526325 376.370951,91.5349361 C381.468357,91.3551028 382.770951,92.4456306 382.757118,97.6342833 C382.570375,165.197436 382.563458,232.761742 382.762882,300.324894 C382.780173,305.899728 381.189395,308.079631 375.748473,307.291131" id="Fill-47" fill="#EEF1F1" sketch:type="MSShapeGroup"></path>
                <path d="M619.939481,344.093215 C620.012104,338.721271 620.145821,333.350479 620.146974,327.978535 C620.160807,260.19866 620.095101,192.417632 620.280692,124.637757 C620.294524,119.620868 618.914697,117.589674 613.959078,116.94066 C604.458213,115.697965 594.996542,114.081771 585.583285,112.278826 C580.65072,111.333549 579.020749,112.365285 579.040346,117.842132 C579.251297,175.444132 579.177522,233.048438 579.157925,290.65159 C579.15562,295.253479 578.963112,299.855368 578.860519,304.457257 C575.689337,304.074535 573.521037,302.88141 573.572911,299.109521 C573.612104,296.257549 572.91585,293.39866 572.914697,290.542076 C572.872046,230.461604 572.938905,170.381132 572.777522,110.30066 C572.764841,105.576576 573.540634,104.051451 578.654179,104.798451 C593.260519,106.93109 607.813833,109.332326 622.330259,111.998701 C625.297406,112.543965 627.023055,113.326701 627.017291,117.005215 C626.910086,194.160632 626.936599,271.317201 626.936599,349.036326 C623.894524,347.933118 621.791931,346.208563 619.939481,344.093215" id="Fill-49" fill="#EEF1F1" sketch:type="MSShapeGroup"></path>
                <path d="M571.202305,359.060421 C571.741787,361.209199 573.487032,361.41324 574.764265,362.087615 C584.617867,367.299324 593.51585,373.82174 601.672622,381.393185 C603.40634,383.002462 604.863401,385.558171 607.63804,382.388032 C610.451873,379.170629 608.806916,377.231657 606.101441,375.549754 C598.804611,371.012421 591.537752,366.39324 583.451297,363.324546 C579.473199,361.81556 575.892795,359.045435 571.202305,359.060421 M567.140058,357.696685 C567.511239,357.991796 567.881268,358.286907 568.25245,358.583171 C568.371182,358.381435 568.489914,358.178546 568.608646,357.97681 C568.121037,357.882282 567.632277,357.786601 567.144669,357.690921 C566.726225,357.398115 566.307781,357.106463 565.889337,356.813657 C565.784438,356.963518 565.679539,357.113379 565.57464,357.262088 C566.09683,357.407337 566.61902,357.551435 567.140058,357.696685 M489.385591,336.861379 C527.581556,340.236713 565.474352,345.306629 599.399424,365.510213 C605.354467,369.056157 610.793084,373.29031 616.002305,377.857615 C617.972334,379.585629 618.132565,380.98856 616.737752,383.218032 C611.272622,391.959546 604.187896,399.188615 596.378098,405.795185 C594.888761,407.054018 593.634582,407.76874 592.021902,405.928907 C575.487032,387.066004 554.781556,374.222907 531.98732,364.40124 C531.858213,364.344754 531.824784,364.064629 531.74755,363.889407 C542.488761,359.560726 552.88415,363.15624 563.484726,365.326921 C540.497983,351.226143 515.023631,344.10774 489.385591,336.861379" id="Fill-51" fill="#C0C7CD" sketch:type="MSShapeGroup"></path>
                <path d="M604.878617,495.944251 C592.347205,510.712488 583.367378,526.355682 578.147781,544.088863 C577.783516,545.326946 576.771412,546.833626 578.195043,547.715501 C578.903977,548.153557 580.386398,547.597918 581.418098,547.218654 C590.460173,543.896349 599.007723,539.602251 606.83366,533.947876 C608.704553,532.595668 610.417522,531.155849 611.048069,528.695821 C613.808876,517.91389 614.378329,506.97864 614.115504,494.411057 C609.872277,499.545529 608.21464,504.733029 604.192738,508.696279 C603.495331,504.28114 606.056715,500.689085 604.878617,495.944251 M566.229625,555.840279 C574.551239,535.416515 582.434813,515.664821 596.347205,499.085571 C602.578905,491.658224 609.981787,485.671849 618.410605,480.880904 C621.222133,479.282001 622.416369,479.751182 622.916657,482.984724 C625.369683,498.830807 625.634813,514.63539 622.212334,530.380029 C621.769683,532.419293 620.932795,534.278724 619.113775,535.690876 C604.365648,547.146029 587.622133,553.675363 569.197925,556.106571 C568.474006,556.202251 567.709741,555.984376 566.229625,555.840279" id="Fill-53" fill="#C0C7CD" sketch:type="MSShapeGroup"></path>
                <path d="M297.482997,325.739956 C297.453026,297.357414 297.48415,268.973719 297.319308,240.592331 C297.298559,236.957622 298.188473,235.590428 302.034006,235.439414 C311.409222,235.072831 320.784438,234.400761 330.117003,233.432428 C334.270317,233.001289 334.340634,235.012886 334.336023,238.055067 C334.293372,263.752789 334.340634,289.450511 334.361383,315.148233 C332.375216,316.40015 330.196542,316.803622 327.553314,316.750594 C327.553314,293.452956 327.381556,270.283275 327.682421,247.119358 C327.750432,241.828108 326.460519,240.035539 321.132565,240.993497 C315.710086,241.967594 308.429395,239.559442 305.125648,243.103081 C301.832277,246.635192 304.211527,253.707483 304.180403,259.218914 C304.068588,278.765414 303.925648,298.315372 304.277233,317.856108 C304.374063,323.224594 302.694524,325.639664 297.482997,325.739956" id="Fill-55" fill="#EEF1F1" sketch:type="MSShapeGroup"></path>
                <path d="M627.459827,393.731826 C626.971066,393.992354 626.466167,394.203312 626.022363,394.50534 C621.406801,397.650118 620.848876,401.07041 623.910548,405.984701 C625.928991,409.222854 627.685764,412.622396 629.632738,415.90666 C630.257522,416.960299 630.402767,418.642201 632.267896,418.43009 C635.119769,418.10616 639.268473,411.313993 638.139942,408.591132 C635.986628,403.401326 631.965879,399.439229 628.848876,394.881146 C628.543401,394.435021 627.987781,394.158354 627.459827,393.731826 M616.619481,439.515549 C615.022939,439.497104 614.735908,438.231354 614.128415,437.313743 C609.697291,430.602271 605.372219,423.818174 600.782017,417.218521 C599.255793,415.025938 599.245418,413.71984 601.365303,412.003354 C609.48634,405.425604 616.089222,397.478354 621.47366,388.563924 C623.222363,385.666993 624.417752,385.942507 626.559539,388.105118 C633.480576,395.090951 639.422939,402.793813 644.388934,411.272493 C645.308818,412.842576 645.965879,414.10141 644.428127,415.858243 C636.672507,424.723104 627.653487,432.100882 618.018905,438.782382 C617.556657,439.102854 617.016023,439.311507 616.619481,439.515549" id="Fill-57" fill="#C0C7CD" sketch:type="MSShapeGroup"></path>
                <path d="M538.232968,300.120968 C541.808761,299.12151 545.148242,300.659315 548.181095,301.846676 C554.192622,304.202954 557.723458,302.585607 560.188012,296.822871 C561.432968,293.91326 563.477925,291.344871 565.909049,287.411593 C566.845072,293.589329 567.797233,298.264996 568.185706,302.986774 C568.464669,306.386315 569.850259,308.075135 573.144784,308.931649 C577.577061,310.082121 581.879078,311.730593 586.822017,313.358315 C583.058329,316.581482 578.783977,317.714663 574.862363,319.28244 C571.439885,320.649635 570.105014,322.317704 570.702133,326.060774 C571.41683,330.533551 571.536715,335.10201 572.057752,341.346607 C567.828357,336.660565 564.50732,333.341718 561.631239,329.674732 C559.407608,326.841204 557.322305,325.983538 553.849107,327.555926 C550.103862,329.251663 546.043919,330.251121 540.650259,332.04369 C543.393775,326.689037 545.314236,322.619732 547.535562,318.719885 C548.95804,316.221815 548.846225,314.398121 547.006455,312.031468 C543.98513,308.14776 540.271009,304.720551 538.362075,300.027593 L538.232968,300.120968 Z" id="Fill-59" fill="#C0C7CD" sketch:type="MSShapeGroup"></path>
                <path d="M645.180634,453.415282 C647.038847,452.486143 651.362767,453.553615 650.809452,449.880865 C650.099366,445.153324 650.71147,440.341629 649.2717,435.642907 C648.234236,432.25374 647.215216,432.030101 644.65268,434.062449 C639.667089,438.015324 637.91147,447.095754 641.219827,452.219851 C642.146628,453.653907 643.503401,453.33574 645.180634,453.415282 M649.866513,423.392337 C654.208876,435.209462 656.463631,446.738393 656.191585,458.757254 C656.138559,461.087018 655.497637,462.240949 652.947781,462.327407 C645.254409,462.586782 637.774294,464.294046 630.434813,466.438212 C627.641729,467.253226 626.488991,466.563865 625.921844,463.998935 C625.838847,463.626588 625.699366,463.264615 625.566801,462.906101 C623.786974,458.071351 619.729337,452.59681 620.860173,448.585143 C621.988703,444.57924 628.236542,441.934768 632.377176,438.878754 C638.524726,434.342574 643.807723,428.808087 649.866513,423.392337" id="Fill-61" fill="#C0C7CD" sketch:type="MSShapeGroup"></path>
                <path d="M311.577061,285.135779 C311.578213,274.571724 311.836427,263.998446 311.459481,253.448224 C311.293487,248.819821 314.003573,249.25096 316.860058,248.940862 C320.70098,248.523557 320.109625,251.171487 320.109625,253.424015 C320.116542,273.975738 320.126916,294.52746 320.099251,315.079182 C320.09464,318.663168 316.362075,321.768751 313.057176,321.110515 C310.628357,320.626349 311.632392,318.695446 311.62317,317.403182 C311.540173,306.647765 311.575908,295.892349 311.577061,285.135779" id="Fill-63" fill="#C0C7CD" sketch:type="MSShapeGroup"></path>
                <path d="M647.778444,471.553664 C655.50755,469.530539 655.733487,469.736886 654.026282,477.248386 C650.040115,494.797122 642.516196,510.811511 633.015331,521.1819 C633.015331,514.571872 633.389971,508.730747 632.925418,502.957636 C632.264899,494.769456 631.172104,486.600872 629.85683,478.488775 C629.460288,476.046039 629.731182,474.857525 632.098905,474.34915 C636.188818,473.470733 640.118501,471.751942 644.422824,471.999789 C640.279885,478.118733 642.76634,485.152983 641.626282,491.744567 C644.355965,485.171428 648.149625,478.990233 647.778444,471.553664" id="Fill-65" fill="#C0C7CD" sketch:type="MSShapeGroup"></path>
                <path d="M442.826859,324.455415 C452.712738,326.433582 459.925418,324.989151 462.226282,313.17779 C462.949049,324.00929 467.539251,329.550693 478.839539,328.721846 C469.176138,332.726596 464.822248,338.425929 469.396311,349.008429 C462.527147,341.269832 455.589971,338.84554 446.893718,346.316693 C452.175562,337.58786 452.851066,330.33804 442.826859,324.455415" id="Fill-67" fill="#EEF1F1" sketch:type="MSShapeGroup"></path>
                <path d="M481.748818,266.099037 C481.752277,272.614537 481.820288,279.13119 481.703862,285.644385 C481.67389,287.27326 482.742478,289.901593 479.446801,289.800149 C476.985706,289.724065 474.234121,289.909662 473.424899,286.676121 C473.103285,285.391926 472.949971,284.032801 472.94536,282.70826 C472.905014,270.443857 472.922305,258.179454 472.900403,245.916204 C472.895793,243.542635 472.596081,241.09644 476.318271,241.63594 C479.04219,242.031343 482.103862,241.288954 481.841037,245.983065 C481.466398,252.669176 481.74536,259.392176 481.748818,266.099037" id="Fill-69" fill="#C0C7CD" sketch:type="MSShapeGroup"></path>
                <path d="M318.709164,351.681721 C320.38755,357.469818 321.327032,363.224485 330.001383,361.516068 C323.830778,364.674679 320.590432,368.28979 323.701671,375.246804 C319.180634,370.55961 314.797925,368.357804 309.080346,373.300915 C312.0717,367.639624 312.162767,363.106901 306.498213,359.296971 C312.514352,359.654332 317.57487,359.135582 318.709164,351.681721" id="Fill-71" fill="#EEF1F1" sketch:type="MSShapeGroup"></path>
                <path d="M647.778444,471.553664 C648.149625,478.990233 644.355965,485.171428 641.626282,491.744567 C642.76634,485.152983 640.279885,478.118733 644.422824,471.999789 C645.54098,471.851081 646.660288,471.702372 647.778444,471.553664" id="Fill-73" fill="#EEF1F1" sketch:type="MSShapeGroup"></path>
                <path d="M538.362421,300.028054 C538.145706,299.852832 537.928991,299.67761 537.712277,299.502387 C537.86098,299.465499 538.010836,299.42861 538.159539,299.391721 C538.184899,299.634957 538.209107,299.87704 538.233314,300.121429 L538.362421,300.028054" id="Fill-75" fill="#C0C7CD" sketch:type="MSShapeGroup"></path>
                <path d="M661.560115,240.42829 C661.560115,268.079971 661.444841,295.732804 661.599308,323.383332 C661.707666,342.618582 671.771066,356.100318 690.420058,360.797887 C718.13879,367.780262 745.600461,375.609929 772.844265,384.215415 C777.405648,385.656387 777.912853,384.044804 777.839078,380.109221 C777.64196,369.552082 777.863285,358.986874 777.733026,348.427429 C777.660403,342.503304 780.013141,335.311124 776.772795,331.003193 C773.540519,326.707943 765.95781,327.029568 760.350893,325.121721 C760.168761,325.059471 759.982017,325.006443 759.810259,324.924596 C756.655216,323.419068 755.097867,324.235235 754.420058,327.860721 C753.118617,334.82811 751.297291,341.69636 749.877118,348.642999 C749.293833,351.501887 748.288646,352.45754 745.222363,351.512262 C736.2483,348.744443 727.110548,346.498832 718.167608,343.641096 C707.715735,340.300346 701.986628,332.096026 701.943977,321.068554 C701.894409,308.587429 701.93245,296.105151 701.93245,283.624026 C701.93245,248.482749 701.900173,213.342624 701.952046,178.201346 C701.968184,167.523165 707.948588,162.612332 718.303631,164.923651 C724.656369,166.341568 730.859251,168.420026 737.17049,170.040832 C740.077695,170.787832 740.894986,172.530832 741.294986,175.366665 C742.92611,186.947471 744.904207,198.478707 746.666744,210.041068 C747.009107,212.282068 747.547435,213.963971 750.08,214.690221 C758.001614,216.96004 765.896715,219.33361 773.73879,221.862804 C776.962997,222.901457 777.806801,221.807471 777.796427,218.733012 C777.734179,199.722554 777.731873,180.712096 777.804496,161.701637 C777.81487,159.223165 777.082882,157.849054 774.569914,157.143554 C746.508818,149.267776 718.581441,140.882471 690.384323,133.535818 C672.858098,128.969665 662.10536,138.069693 661.590086,156.321624 C661.541671,158.048485 661.555504,159.777651 661.555504,161.505665 C661.553199,187.813207 661.553199,214.120749 661.560115,240.42829 M783.40219,231.882749 C770.119193,227.782318 756.794697,223.570068 743.395274,219.611429 C740.453487,218.742235 740.885764,216.466651 740.577983,214.624512 C738.74513,203.648915 736.832738,192.673318 735.518617,181.63086 C735.019481,177.432443 733.383746,175.507304 729.433314,174.740707 C726.243689,174.121665 723.167032,172.944679 720.010836,172.133124 C710.466167,169.67886 708.626398,171.066804 708.619481,180.782415 C708.598732,208.830651 708.610259,236.88004 708.607954,264.928276 C708.606801,282.987693 708.575677,301.04711 708.612565,319.106526 C708.63562,330.347262 712.807378,335.477124 723.729568,338.249554 C729.487493,339.711276 735.230432,341.275596 740.876542,343.110818 C743.458674,343.95004 744.195274,343.291804 744.700173,340.813332 C746.153775,333.674179 747.956657,326.606499 749.407954,319.467346 C750.059251,316.267235 751.021787,315.004943 754.645994,316.237262 C762.995274,319.074249 771.4483,321.662235 779.98317,323.875568 C783.597003,324.812776 784.327839,326.570762 784.314006,329.933415 C784.232161,349.528332 784.229856,369.124401 784.49268,388.717012 C784.556081,393.448013 783.579712,394.527012 778.813141,393.02379 C752.293256,384.660387 725.652334,376.691235 698.722075,369.726151 C692.422363,368.097276 685.984323,366.995221 680.026974,364.152471 C663.662709,356.343554 655.042536,343.08661 654.92611,325.313082 C654.558386,268.833888 654.652911,212.350082 654.860403,155.869735 C654.941095,133.941596 669.723804,121.991901 691.146282,126.929249 C721.42755,133.907013 750.995274,143.593804 780.960692,151.786596 C782.93072,152.326096 784.309395,153.066179 784.296715,155.613818 C784.171066,180.586443 784.161844,205.560221 784.094986,230.532846 C784.094986,230.864846 783.766455,231.195693 783.40219,231.882749" id="Fill-77" fill="#EEF1F1" sketch:type="MSShapeGroup"></path>
                <path d="M327.554121,167.460915 C327.554121,159.402999 327.552968,151.343929 327.554121,143.286012 C327.556427,130.053276 327.2083,129.831943 313.882651,132.553651 C308.447493,133.663776 304.303401,136.144554 304.249222,142.166665 C304.0717,161.927582 304.191585,181.690804 304.091297,201.451721 C304.077464,204.036249 304.970836,204.778638 307.437695,204.544624 C312.778329,204.036249 318.135101,203.469082 323.489568,203.413749 C326.767954,203.379165 327.686686,202.349735 327.627896,199.117346 C327.433084,188.568276 327.554121,178.013443 327.554121,167.460915 M334.296484,167.532387 C334.299942,179.808318 334.16853,192.085401 334.378329,204.357874 C334.444035,208.166651 333.531066,209.845096 329.395043,209.960374 C320.0083,210.220901 310.62732,210.853776 301.25902,211.533915 C298.200807,211.755249 297.328184,210.756943 297.34317,207.737818 C297.451527,186.064443 297.308588,164.388762 297.446916,142.715387 C297.504553,133.743318 303.274006,127.386901 312.58121,126.003568 C318.064784,125.188554 323.6717,125.240429 329.193314,124.63061 C333.129914,124.196012 334.48438,125.386832 334.393314,129.557582 C334.11781,142.210471 334.293026,154.873735 334.296484,167.532387" id="Fill-79" fill="#EEF1F1" sketch:type="MSShapeGroup"></path>
                <path d="M118.845072,152.042282 C121.737291,147.311282 123.783401,142.385462 127.087147,138.113268 C134.234121,128.870296 144.125764,124.903588 155.225476,122.870087 C173.524035,119.51781 191.798386,116.014518 210.032392,112.326782 C214.712507,111.380351 215.739597,112.72449 215.728069,117.320615 C215.550548,189.731199 215.51366,262.142935 215.596657,334.554671 C215.601268,338.633199 214.653718,340.128351 210.378213,340.651713 C200.676772,341.837921 191.059481,343.730782 181.423746,345.427671 C174.152277,346.708407 174.155735,346.770657 174.154582,339.664935 C174.153429,278.39249 174.07389,217.118893 174.2883,155.847601 C174.307896,150.253171 172.828934,149.41049 167.643919,150.188615 C143.220865,153.85099 138.290605,159.309393 138.290605,183.796699 C138.290605,225.285171 138.223746,266.773643 138.387435,308.262115 C138.405879,312.685324 137.351124,314.556282 132.71366,315.403574 C123.293487,317.124671 114.034697,319.724185 104.697522,321.91331 C97.5274928,323.595213 97.5136599,323.561782 97.5136599,316.421476 C97.5113545,272.628601 97.5125072,228.834574 97.5125072,185.040546 L97.5125072,175.820629 C97.5125072,165.966685 97.5136599,165.971296 87.5874352,167.954074 C82.3217291,169.005407 76.9926225,169.851546 72.1349856,172.317338 C63.3626513,176.771671 58.5614986,183.417435 58.5926225,193.783212 C58.7701441,251.981199 58.6237464,310.18149 58.7862824,368.380629 C58.7989625,372.936407 57.81683,375.123226 53.0779251,376.301365 C43.9701441,378.565421 34.9926225,381.43699 26.115389,384.505685 C22.1926225,385.861351 21.5920461,384.808865 21.6116427,381.145338 C21.7292219,359.633351 21.6681268,338.120212 21.6681268,316.608226 C21.6681268,270.124768 21.6658213,223.642462 21.6704323,177.160157 C21.671585,164.445018 27.7568876,154.713268 39.7522767,150.619754 C64.5176945,142.167587 90.2859942,137.821615 115.948242,133.120587 C118.433545,132.66524 118.899251,133.789199 118.86928,135.91031 C118.795504,141.286865 118.845072,146.664574 118.845072,152.042282" id="Fill-81" fill="#0674BC" sketch:type="MSShapeGroup"></path>
                <path d="M536.271124,402.419851 C537.13683,402.976643 537.385821,403.679837 536.784092,404.583615 C536.287262,404.173226 535.790432,403.762837 535.29245,403.354754 C535.618674,403.043504 535.944899,402.731101 536.271124,402.419851" id="Fill-83" fill="#112329" sketch:type="MSShapeGroup"></path>
                <path d="M583.891643,486.092497 C582.064553,490.937622 579.476657,493.240872 577.511239,495.919928 C567.155043,510.042608 559.332565,525.697331 550.45879,540.712261 C548.336599,544.305469 545.942363,545.792553 541.694524,545.389081 C513.529683,542.714636 494.320461,526.789011 478.493372,502.904608 C514.340058,500.594442 547.927378,493.164789 579.608069,477.882414 C563.480115,495.058803 543.123919,505.559456 523.093948,516.727567 C546.190202,513.646192 564.416138,500.276275 583.891643,486.092497" id="Fill-85" fill="#0674BC" sketch:type="MSShapeGroup"></path>
                <path d="M549.151354,444.768526 C536.774409,448.451651 524.397464,452.133624 512.020519,455.816749 C533.392277,457.685401 554.3917,454.954471 575.437233,451.680582 C567.898329,456.655971 559.445303,459.545985 550.988818,462.20429 C526.139251,470.015512 500.616484,473.72861 474.577291,474.231221 C470.664899,474.307304 468.970375,473.048471 468.510432,469.35036 C466.949625,456.83004 466.857406,444.464193 472.032046,432.599804 C472.87585,430.661985 473.446455,428.615804 476.523112,430.06254 C498.92196,440.593165 522.915043,442.752318 547.199769,443.311415 C547.745014,443.324096 548.285648,443.510846 548.828588,443.616901 C548.935793,444.000776 549.04415,444.384651 549.151354,444.768526" id="Fill-87" fill="#0674BC" sketch:type="MSShapeGroup"></path>
                <path d="M571.202305,359.060421 C575.892795,359.045435 579.473199,361.81556 583.451297,363.324546 C591.537752,366.39324 598.804611,371.012421 606.101441,375.549754 C608.806916,377.231657 610.451873,379.170629 607.63804,382.388032 C604.863401,385.558171 603.40634,383.002462 601.672622,381.393185 C593.51585,373.82174 584.617867,367.299324 574.764265,362.087615 C573.487032,361.41324 571.741787,361.209199 571.202305,359.060421" id="Fill-89" fill="#FBFDFB" sketch:type="MSShapeGroup"></path>
                <path d="M567.140519,357.696224 C566.618329,357.552126 566.097291,357.406876 565.575101,357.262779 C565.68,357.112918 565.783746,356.963057 565.888646,356.813196 C566.307089,357.106001 566.726686,357.398807 567.14513,357.691613 L567.140519,357.696224 Z" id="Fill-91" fill="#FBFDFB" sketch:type="MSShapeGroup"></path>
                <path d="M567.145014,357.691151 C567.632622,357.786832 568.120231,357.88136 568.607839,357.97704 C568.489107,358.178776 568.370375,358.380513 568.251643,358.582249 C567.881614,358.287138 567.511585,357.992026 567.140403,357.695763 L567.145014,357.691151" id="Fill-93" fill="#FBFDFB" sketch:type="MSShapeGroup"></path>
                <path d="M604.878617,495.944251 C606.056715,500.689085 603.495331,504.28114 604.192738,508.696279 C608.21464,504.733029 609.872277,499.545529 614.115504,494.411057 C614.378329,506.97864 613.808876,517.91389 611.048069,528.695821 C610.417522,531.155849 608.704553,532.595668 606.83366,533.947876 C599.007723,539.602251 590.460173,543.896349 581.418098,547.218654 C580.386398,547.597918 578.903977,548.153557 578.195043,547.715501 C576.771412,546.833626 577.783516,545.326946 578.147781,544.088863 C583.367378,526.355682 592.347205,510.712488 604.878617,495.944251" id="Fill-95" fill="#0674BC" sketch:type="MSShapeGroup"></path>
                <path d="M627.459827,393.731826 C627.987781,394.158354 628.543401,394.435021 628.848876,394.881146 C631.965879,399.439229 635.986628,403.401326 638.139942,408.591132 C639.268473,411.313993 635.119769,418.10616 632.267896,418.43009 C630.402767,418.642201 630.257522,416.960299 629.632738,415.90666 C627.685764,412.622396 625.928991,409.222854 623.910548,405.984701 C620.848876,401.07041 621.406801,397.650118 626.022363,394.50534 C626.466167,394.203312 626.971066,393.992354 627.459827,393.731826" id="Fill-97" fill="#FBFDFB" sketch:type="MSShapeGroup"></path>
                <path d="M645.180634,453.415282 C643.503401,453.33574 642.146628,453.653907 641.219827,452.219851 C637.91147,447.095754 639.667089,438.015324 644.65268,434.062449 C647.215216,432.030101 648.234236,432.25374 649.2717,435.642907 C650.71147,440.341629 650.099366,445.153324 650.809452,449.880865 C651.362767,453.553615 647.038847,452.486143 645.180634,453.415282" id="Fill-99" fill="#FBFDFB" sketch:type="MSShapeGroup"></path>
                <path d="M661.556888,240.42829 C661.553429,214.120749 661.553429,187.813207 661.554582,161.505665 C661.555735,159.777651 661.541902,158.048485 661.590317,156.321624 C662.104438,138.069693 672.858329,128.969665 690.384553,133.535818 C718.581671,140.882471 746.509049,149.267776 774.568991,157.143554 C777.083112,157.849054 777.813948,159.223165 777.804726,161.701638 C777.732104,180.712096 777.734409,199.722554 777.796657,218.733013 C777.807032,221.807471 776.963228,222.901457 773.73902,221.862804 C765.896945,219.33361 758.000692,216.96004 750.080231,214.690221 C747.546513,213.963971 747.008184,212.282068 746.666974,210.041068 C744.903285,198.478707 742.92634,186.947471 741.295216,175.366665 C740.895216,172.530832 740.076772,170.787832 737.17072,170.040832 C730.859481,168.420026 724.656599,166.341568 718.303862,164.923651 C707.948818,162.612332 701.968415,167.523165 701.952277,178.201346 C701.899251,213.342624 701.93268,248.482749 701.931527,283.624026 C701.931527,296.105151 701.89464,308.587429 701.944207,321.068554 C701.986859,332.096026 707.715965,340.300346 718.167839,343.641096 C727.110778,346.498832 736.24853,348.744443 745.222594,351.512263 C748.288876,352.45754 749.294063,351.501887 749.877349,348.642999 C751.296369,341.69636 753.118847,334.82811 754.420288,327.860721 C755.098098,324.235235 756.654294,323.419068 759.809337,324.924596 C759.982248,325.006443 760.168991,325.059471 760.351124,325.121721 C765.95804,327.029568 773.540749,326.707943 776.771873,331.003193 C780.013372,335.311124 777.660634,342.503304 777.733256,348.427429 C777.863516,358.986874 777.64219,369.552082 777.839308,380.109221 C777.913084,384.044804 777.405879,385.656387 772.843343,384.215415 C745.600692,375.609929 718.13902,367.780262 690.420288,360.797888 C671.771297,356.100318 661.706744,342.618582 661.599539,323.383332 C661.445072,295.732804 661.560346,268.079971 661.556888,240.42829" id="Fill-101" fill="#0674BC" sketch:type="MSShapeGroup"></path>
                <path d="M320.112507,168.047218 C320.112507,159.822149 319.988012,151.594774 320.173602,143.374315 C320.24853,140.075065 318.826052,139.578218 316.019135,139.860649 C312.587435,140.205329 311.540749,142.079746 311.552277,145.248732 C311.608761,160.932274 311.611066,176.616968 311.549971,192.301663 C311.539597,194.946135 311.768991,196.700662 315.230663,196.376732 C318.120576,196.106982 320.351124,196.239551 320.198963,192.143732 C319.899251,184.121551 320.110202,176.080926 320.112507,168.047218 M327.554582,167.460454 C327.554582,178.012982 327.433545,188.567815 327.627205,199.116885 C327.687147,202.350426 326.768415,203.379857 323.490029,203.413287 C318.134409,203.468621 312.77879,204.03694 307.438156,204.544163 C304.971297,204.779329 304.077925,204.03694 304.090605,201.452412 C304.192046,181.690343 304.071009,161.927121 304.24853,142.167357 C304.302709,136.144093 308.447954,133.663315 313.883112,132.55319 C327.208761,129.831482 327.556888,130.052815 327.554582,143.285551 C327.553429,151.344621 327.554582,159.402537 327.554582,167.460454" id="Fill-103" fill="#112329" sketch:type="MSShapeGroup"></path>
                <path d="M320.11147,168.047218 C320.110317,176.080926 319.899366,184.121551 320.197925,192.143732 C320.351239,196.239551 318.120692,196.106982 315.230778,196.376732 C311.769107,196.700662 311.539712,194.946135 311.550086,192.301663 C311.611182,176.616968 311.608876,160.932274 311.552392,145.248732 C311.540865,142.079746 312.58755,140.205329 316.019251,139.860649 C318.826167,139.578218 320.248646,140.075065 320.173718,143.374315 C319.988127,151.594774 320.112622,159.822149 320.11147,168.047218" id="Fill-105" fill="#C0C7CD" sketch:type="MSShapeGroup"></path>
            </g>
        </g>
    </g>
</svg>