<?xml version="1.0" encoding="UTF-8" standalone="no"?>
<svg width="800px" height="800px" viewBox="0 0 800 800" version="1.1" xmlns="http://www.w3.org/2000/svg" xmlns:xlink="http://www.w3.org/1999/xlink" xmlns:sketch="http://www.bohemiancoding.com/sketch/ns">
    <!-- Generator: Sketch 3.4.4 (17249) - http://www.bohemiancoding.com/sketch -->
    <title>nets</title>
    <desc>Created with Sketch.</desc>
    <defs>
        <path id="path-1" d="M0,0.590581717 L784.993388,0.590581717 L784.993388,800 L0,800"></path>
    </defs>
    <g id="Page-1" stroke="none" stroke-width="1" fill="none" fill-rule="evenodd" sketch:type="MSPage">
        <g id="nets" sketch:type="MSArtboardGroup">
            <g id="Page-1" sketch:type="MSLayerGroup" transform="translate(7.000000, 0.000000)">
                <g id="Group-3">
                    <mask id="mask-2" sketch:name="Clip 2" fill="white">
                        <use xlink:href="#path-1"></use>
                    </mask>
                    <g id="Clip-2"></g>
                    <path d="M401.475053,0.664709141 C527.708427,2.53950139 649.451956,25.9245429 765.417443,76.8719114 C771.654447,79.6109695 779.566551,81.1843767 783.153993,86.4829917 C786.622814,91.6065374 784.105175,99.3638781 784.191646,105.958892 C784.673888,142.70349 783.411189,179.399335 779.809335,215.967756 C769.805296,317.507922 746.093372,415.453629 699.867925,506.935069 C647.283527,610.997119 572.741017,696.129529 475.494303,760.910693 C451.810094,776.687978 426.649225,789.833684 399.506173,798.891856 C395.105017,800.361108 391.069699,800.37108 386.656348,798.911801 C350.175527,786.859723 317.196785,768.0841 286.425273,745.540055 C201.602681,683.392687 134.839242,605.643102 86.7579927,512.053075 C52.2139024,444.814294 29.9032536,373.475789 16.0922691,299.348366 C6.95737489,250.319003 1.75691509,200.887424 0.361183075,151.003767 C-0.207530606,130.696842 0.436568124,110.414294 0.0019954866,90.1284211 C-0.0844755994,86.0863158 2.15490381,84.8032133 5.12152722,83.3350693 C45.093341,63.5522438 87.0617501,49.1478116 129.830571,36.8741274 C174.913048,23.9356233 220.752701,14.6104155 267.23867,8.54504155 C311.773496,2.73451524 356.521175,0.101828255 401.475053,0.664709141" id="Fill-1" fill="#363636" sketch:type="MSShapeGroup" mask="url(#mask-2)"></path>
                </g>
                <path d="M379.538558,14.6765651 C508.554527,14.5380609 621.249633,34.9879224 729.917182,77.2017729 C742.115148,81.940831 754.084742,87.2217175 765.935715,92.7818283 C769.080823,94.2566205 770.049743,96.1701939 770.087436,99.5785042 C770.538637,140.196787 769.657297,180.772964 765.389173,221.187368 C754.851895,320.951357 730.60895,416.880443 684.85466,506.757452 C658.393399,558.737507 624.804925,605.685983 585.508251,648.674349 C548.714804,688.923657 508.228598,724.820609 461.709371,753.58072 C441.908601,765.822271 421.360632,776.593463 399.322699,784.374072 C395.087833,785.868809 391.339644,785.98626 387.06376,784.494848 C350.448798,771.724765 317.434581,752.304266 286.78945,728.991247 C171.284034,641.121994 93.538767,527.077673 51.7754496,388.308698 C36.6596386,338.080443 26.4261182,286.878227 20.3110604,234.788476 C15.0296725,189.806759 13.5629898,144.689861 13.7204116,99.4555125 C13.7392578,94.2688089 16.9253848,93.340277 20.1059687,91.8610526 C61.6664116,72.5280886 104.926344,57.9585596 149.140784,46.0937396 C192.647935,34.4183934 236.806945,26.039446 281.530234,20.8228255 C318.220581,16.5424931 355.053938,14.2023269 379.538558,14.6765651" id="Fill-4" fill="#FFFFFF" sketch:type="MSShapeGroup"></path>
                <path d="M397.164691,25.0706925 C516.442686,25.5083657 636.259461,49.1936842 751.049828,97.886205 C757.436494,100.595346 759.616009,103.788698 759.621552,110.836898 C759.645941,146.282881 758.98743,181.688975 755.463179,216.975402 C744.410401,327.659058 716.538996,433.313352 660.908155,530.569861 C634.54556,576.657396 601.903834,617.999224 565.153622,656.18759 C529.781405,692.944377 490.998014,725.457396 446.63613,750.992022 C431.593487,759.651302 416.050863,767.243546 399.76215,773.326648 C395.166988,775.041884 391.087326,775.082881 386.454471,773.372078 C349.372787,759.682327 316.000491,739.413075 285.040517,715.250194 C209.421552,656.229695 149.133467,584.352687 105.907902,498.558781 C77.7316307,442.635235 58.1038028,383.667922 44.9568719,322.523324 C32.75558,265.777618 25.7192725,208.406981 24.9155348,150.326094 C24.7237464,136.488975 24.8601047,122.641884 24.3579072,108.816953 C24.1672274,103.569307 25.986446,101.023047 30.7501159,98.9488089 C69.35613,82.1366205 109.075182,68.5366205 149.661162,57.4429917 C198.841038,44.0003324 248.839064,34.8025485 299.555464,29.653518 C330.238288,26.5388366 361.031972,25.2047645 397.164691,25.0706925" id="Fill-6" fill="#363636" sketch:type="MSShapeGroup"></path>
                <path d="M243.335844,424.199668 C257.374093,404.593019 273.487647,389.40964 292.401534,377.120443 C304.999706,368.934294 318.4382,362.464488 332.659368,357.693296 C348.032375,352.534294 363.752375,354.227368 379.18192,356.86892 C426.121308,364.905485 461.496851,391.499391 490.22299,427.988033 C509.201176,452.095512 523.828093,478.596343 532.219114,508.338172 C533.570502,513.125983 532.433074,515.247867 527.786916,516.614072 C508.384135,522.318227 489.421469,519.320997 470.574098,514.003546 C465.792691,512.655069 461.189768,510.681662 456.443836,509.190249 C454.921723,508.712687 452.707841,506.539834 451.703447,509.173629 C450.564911,512.161994 446.82559,514.826814 449.547212,518.656177 C453.012707,523.53374 456.993703,527.191357 463.443559,528.513241 C478.072693,531.510471 492.552166,535.240111 507.574854,535.73097 C516.361647,536.01795 524.899004,534.742604 532.814434,530.712687 C535.537164,529.327645 536.745542,529.706593 537.126902,532.86892 C538.254352,542.207424 539.378476,551.525983 539.673365,560.955346 C539.815266,565.509363 538.345258,567.838449 534.136998,569.616842 C513.70765,578.253961 492.680764,584.978615 471.102902,590.015734 C463.130933,591.87723 463.239576,591.779723 463.430256,600.175291 C463.507858,603.607978 464.214039,604.523213 467.925644,603.651191 C490.558896,598.334848 512.968211,592.376953 534.318809,582.969751 C535.791035,582.320443 537.151291,581.171413 539.328589,581.582493 C538.786482,591.702161 536.960612,601.621274 534.513923,611.441773 C534.131455,612.976399 532.7457,613.716565 531.433114,614.447867 C490.361565,637.344266 449.714612,661.179169 406.61321,680.061163 C375.952558,693.492742 343.629001,696.785817 310.911889,686.993019 C290.809579,680.975291 275.309083,667.703269 261.097892,653.096066 C235.469193,626.751468 219.443218,595.272244 212.995579,559.019612 C212.480078,556.123213 212.106479,553.202438 211.423579,548.675014 C216.883452,556.067812 221.808978,562.02349 227.434033,567.34759 C246.56299,585.451745 270.019935,595.470582 294.640913,603.29108 C304.307937,606.36144 314.188922,608.619612 324.104273,610.751468 C327.622981,611.508255 328.589683,610.515457 328.662851,606.99856 C328.893441,595.907147 328.9655,596.119889 318.052406,593.123767 C292.27737,586.045651 266.452448,579.051745 242.954485,565.716565 C232.299695,559.66892 222.484118,552.552022 214.073142,543.56144 C211.39919,540.703823 210.222961,537.637895 210.140925,533.647867 C209.460242,500.260609 216.989878,468.963102 233.288569,439.756454 C235.093376,436.522105 237.068908,435.016288 240.913545,434.717119 C265.010155,432.836787 287.228789,439.817396 309.063847,448.697175 C314.183379,450.779169 319.200919,453.14482 324.140857,455.627922 C327.416781,457.275568 328.014318,456.280554 328.260428,452.963102 C328.698327,447.061717 327.346939,443.402992 321.14541,440.704931 C304.717012,433.558116 288.429407,426.256177 270.569802,423.379723 C261.963712,421.994681 253.364273,422.072244 243.335844,424.199668" id="Fill-8" fill="#FFFFFF" sketch:type="MSShapeGroup"></path>
                <path d="M195.552698,289.657396 C195.552698,274.78205 195.674645,259.905596 195.526092,245.031357 C195.250049,217.353795 194.812151,189.678449 194.449638,162.001994 C194.127034,137.462382 193.965178,112.919446 193.386487,88.385374 C193.252346,82.6834349 194.909708,79.921108 200.760918,79.1432687 C206.762898,78.3465928 212.665104,76.7277562 218.572853,75.3083657 C223.128106,74.2136288 225.258842,76.0773407 225.542645,80.5116898 C225.624681,81.7992244 225.569251,83.0956233 225.569251,84.3886981 C225.57036,162.11723 225.571468,239.845762 225.568142,317.574294 C225.568142,325.92554 225.481671,325.891191 217.274678,327.642992 C207.363762,329.757119 197.404066,331.73385 187.645028,334.423047 C182.825928,335.750471 180.890306,334.06626 179.327175,330.011967 C170.449477,306.980388 161.504154,283.974294 152.521138,260.982604 C138.711262,225.640776 124.853717,190.317784 111.003931,154.991468 C110.482887,153.665152 109.819942,152.395346 108.481858,149.491191 C108.27344,152.804211 108.06724,154.487313 108.076109,156.169307 C108.2812,197.331634 108.490726,238.495069 108.740162,279.657396 C108.884281,303.465706 108.987381,327.275125 109.377609,351.079003 C109.454103,355.774848 107.858822,358.17374 103.418865,359.501163 C97.7771805,361.18759 92.3106559,363.455734 86.7388138,365.388144 C81.0494598,367.362659 79.2080691,366.137175 79.1825712,360.142715 C79.1138378,343.526648 79.1559647,326.910582 79.1559647,310.293407 C79.1548561,248.074017 79.2424358,185.853518 79.0140635,123.634127 C78.9918914,117.608643 80.8465853,114.65241 86.5614372,112.92831 C95.7273724,110.164875 104.751406,106.883989 113.696729,103.459058 C118.62669,101.57097 120.950323,102.890637 122.861556,107.769307 C143.956066,161.628587 165.239039,215.413629 186.466583,269.220831 C189.167141,276.065152 191.841093,282.920554 194.52724,289.771524 C194.86869,289.73385 195.211248,289.695069 195.552698,289.657396" id="Fill-10" fill="#FFFFFF" sketch:type="MSShapeGroup"></path>
                <path d="M595.843652,266.40133 C595.844761,269.909363 595.968924,273.422936 595.822588,276.925429 C595.168512,292.662825 602.17267,304.273906 615.183243,312.478892 C629.300202,321.380831 644.868323,326.436787 661.364346,328.28831 C674.310619,329.740942 681.056473,323.07169 682.555305,310.054515 C685.340117,285.860609 674.713043,267.327645 659.149356,250.398006 C642.261996,232.027922 623.83922,215.204654 606.454098,197.34205 C597.947782,188.602992 589.785133,179.5559 583.272086,169.183601 C572.004239,151.236787 568.925646,131.86615 573.909928,111.339834 C577.890924,94.946482 589.307325,84.5221053 605.938597,83.9780609 C636.721195,82.9719668 664.613663,92.1165651 688.455294,111.754238 C704.072194,124.616288 709.353581,142.477784 709.573085,162.113241 C709.658447,169.683324 709.654013,177.255623 709.56865,184.825706 C709.498808,190.939834 707.789342,192.122105 702.12216,190.156454 C695.855223,187.982493 689.663672,185.568089 683.330219,183.615734 C679.658524,182.484432 678.455689,180.318227 678.447928,176.697175 C678.427973,166.919889 678.379195,157.135956 677.991184,147.368643 C677.542199,136.093296 672.324002,127.157008 663.06827,120.909917 C650.721751,112.576399 637.033821,108.004654 622.008916,108.005762 C612.474924,108.00687 606.801091,112.581939 604.991849,122.011302 C602.190408,136.602992 604.446416,150.236233 613.189973,162.561994 C621.547737,174.345928 631.42983,184.811302 641.21104,195.379723 C658.258038,213.797452 676.517849,231.081662 692.435181,250.557562 C709.651796,271.624598 717.510687,295.281108 713.555189,322.564211 C710.874586,341.055069 698.746461,352.26615 679.926806,352.920997 C657.668261,353.695512 636.93183,347.204654 616.635514,339.103823 C601.937646,333.237895 588.455917,325.289972 577.79115,313.288864 C568.501051,302.835679 563.311677,290.789141 563.574416,276.556454 C563.776182,265.665596 563.664213,254.766981 563.593263,243.872798 C563.564439,239.421828 564.940216,237.289972 569.914521,238.518781 C576.527342,240.152022 583.227742,241.467258 589.939229,242.640665 C594.478961,243.434017 596.058721,245.94482 595.891322,250.338172 C595.687339,255.68554 595.842543,261.046205 595.843652,266.40133" id="Fill-12" fill="#FFFFFF" sketch:type="MSShapeGroup"></path>
                <path d="M252.348792,194.238892 C252.348792,155.465485 252.347683,116.692078 252.348792,77.9186704 C252.348792,69.3868144 252.33438,69.2760111 260.832936,67.9098061 C298.963359,61.7812742 337.358739,58.5513573 375.953667,57.6593906 C386.221554,57.4222715 386.281418,57.6904155 386.326871,68.140277 C386.382301,80.6134072 387.115088,80.3618837 374.584541,80.6355679 C345.984784,81.2582825 317.458194,83.1508033 289.082375,86.9945706 C286.02152,87.4089751 284.974998,88.5701939 284.98165,91.5219945 C285.038188,117.555235 285.050383,143.588476 284.978324,169.621717 C284.968346,173.011191 286.4184,173.607313 289.423825,173.170748 C312.453957,169.827812 335.64262,168.30759 358.876736,167.332521 C367.468414,166.971302 367.746674,167.153019 367.715633,175.553019 C367.65466,192.457175 369.340846,189.525319 353.302676,190.280997 C331.921038,191.288199 310.604806,193.157452 289.351765,195.743601 C285.916203,196.162438 284.324248,197.256066 284.348637,201.194017 C284.523796,230.181274 284.530448,259.16964 284.350854,288.155789 C284.323139,292.620055 285.698916,293.218393 289.804076,292.657729 C319.452572,288.604543 349.25073,286.511468 379.187463,286.357452 C383.727195,286.334183 385.631777,288.16133 385.482115,292.603435 C385.357951,296.292078 385.316933,299.994017 385.492093,303.678227 C385.698293,308.035014 383.509909,309.657175 379.471266,309.652742 C354.342547,309.627258 329.319145,311.478781 304.363368,314.199003 C289.702084,315.796787 275.101774,317.944155 260.46488,319.76687 C253.172485,320.674349 252.354335,319.917562 252.352118,312.77518 C252.344358,273.262715 252.348792,233.750249 252.348792,194.238892" id="Fill-14" fill="#FFFFFF" sketch:type="MSShapeGroup"></path>
                <path d="M465.085291,196.681219 C465.085291,160.675679 465.004362,124.670139 465.185065,88.6657064 C465.208346,84.0795568 463.802636,82.7421607 459.301705,82.5283102 C442.52964,81.7305263 425.775313,80.520554 408.973316,80.5659834 C404.84931,80.5781717 402.748506,79.0756787 402.969118,74.6989474 C403.155364,71.0158449 403.083305,67.3127978 402.987965,63.6230471 C402.869344,59.0922992 404.567725,56.9238781 409.506554,57.0091967 C432.585465,57.4080886 455.617815,58.6756787 478.592518,60.7576731 C503.023925,62.9715235 527.325626,66.3067036 551.506489,70.485097 C560.603691,72.0562881 560.618103,71.9731856 560.621429,81.2950693 C560.622537,83.5100277 560.642492,85.7260942 560.616994,87.9410526 C560.542718,94.5427147 559.105968,95.7017175 552.596247,94.4308033 C536.303099,91.2507479 519.876918,88.9770637 503.415262,86.8673684 C498.241409,86.2047645 497.32792,87.986482 497.336788,92.7310803 C497.474255,163.818061 497.432128,234.905042 497.429911,305.99313 C497.429911,314.341053 497.035248,314.753241 488.595449,314.076233 C482.897226,313.618615 477.225609,312.70892 471.522952,312.464044 C466.584123,312.25241 464.859135,310.218061 464.988842,305.248532 C465.292599,293.624155 465.085291,281.986482 465.085291,270.353241 L465.085291,196.681219" id="Fill-16" fill="#FFFFFF" sketch:type="MSShapeGroup"></path>
                <path d="M544.619067,505.431801 C515.656797,426.773629 469.608726,366.696066 383.481307,348.557562 C386.648588,347.945928 390.964382,347.806316 395.342258,348.095512 C399.941854,348.399114 404.581361,348.28831 409.153242,348.800222 C453.682526,353.788587 491.919375,371.922659 523.057835,404.248421 C537.071694,418.795789 549.71421,434.424598 554.269462,454.897729 C557.380204,468.88 557.560907,482.67723 551.234106,495.952576 C549.577852,499.425152 547.718723,502.822382 544.619067,505.431801" id="Fill-18" fill="#FFFFFF" sketch:type="MSShapeGroup"></path>
                <path d="M344.152262,700.952355 C355.802578,700.586704 367.236716,701.015512 378.527844,699.258172 C407.137579,694.809418 433.44807,683.925208 458.664369,670.178947 C481.506039,657.725762 503.742411,644.249861 525.324707,629.709141 C526.312473,629.044321 527.098473,627.795568 529.14163,628.195568 C519.184152,651.089751 505.99066,671.095291 483.796414,683.657064 C441.151757,707.792244 395.925162,714.445983 348.158755,703.023269 C346.801825,702.698615 345.251997,702.720776 344.152262,700.952355" id="Fill-20" fill="#FFFFFF" sketch:type="MSShapeGroup"></path>
                <path d="M567.515946,484.741053 C571.590064,499.124432 573.603289,512.702271 572.96695,526.273463 C572.321743,540.035235 564.435136,550.458504 553.022061,559.52 C551.428998,548.588144 552.045382,538.366537 549.330411,528.696731 C547.584361,522.481773 548.981201,518.089529 553.471046,513.513352 C560.948578,505.888975 564.975026,496.180388 567.515946,484.741053" id="Fill-22" fill="#FEFEFE" sketch:type="MSShapeGroup"></path>
                <path d="M569.825832,556.924654 C569.323635,568.748476 566.028865,579.633795 562.129906,590.344044 C560.305144,595.356787 558.070199,600.225485 555.89401,605.103047 C555.227739,606.595568 554.994933,607.937396 552.069328,607.528532 C546.240289,606.714127 545.91436,604.342936 547.469731,599.526316 C549.794473,592.326316 550.528368,584.755125 551.495071,577.26482 C551.703488,575.652632 551.298848,573.785596 552.938473,572.714127 C559.421587,568.478116 564.855962,563.131856 569.825832,556.924654" id="Fill-24" fill="#FEFEFE" sketch:type="MSShapeGroup"></path>
                <path d="M534.942399,634.364432 C536.977795,629.639778 539.003214,624.910693 541.058565,620.194903 C541.421078,619.36277 541.709315,618.253629 542.381129,617.843657 C544.439806,616.584931 546.488506,613.367202 548.901936,615.228698 C551.008283,616.851967 548.439648,619.23313 547.375389,620.992687 C544.046252,626.498504 540.750373,632.045319 536.385801,636.839778 C534.354839,636.916233 534.13977,635.936731 534.942399,634.364432" id="Fill-26" fill="#F9F9F9" sketch:type="MSShapeGroup"></path>
                <path d="M534.942399,634.364432 C535.423533,635.189917 535.904667,636.014294 536.385801,636.839778 C534.44907,640.259169 532.064463,643.297396 528.324035,645.34615 C530.530156,641.685208 532.736277,638.025374 534.942399,634.364432" id="Fill-28" fill="#DEDEDE" sketch:type="MSShapeGroup"></path>
                <path d="M427.910816,519.378504 C447.386766,528.436676 451.306788,545.145817 451.193711,563.807313 C451.086176,581.339723 451.325634,598.868809 450.883302,616.407867 C450.093976,647.791801 427.886427,660.846648 403.910656,661.791801 C385.649736,662.510914 367.340038,662.05108 349.052512,662.04554 C342.743448,662.044432 340.909818,660.133075 340.878777,653.721994 C340.832216,643.935845 340.882103,634.149695 340.862148,624.364654 C340.721355,553.471579 340.569476,482.578504 340.428684,411.686537 C340.40762,401.071579 341.407581,400.042216 352.156602,400.087645 C369.328873,400.159668 386.542162,399.621163 403.663437,400.611745 C427.395316,401.985706 440.67417,415.810637 441.616483,439.726427 C442.298275,457.054958 442.00006,474.433352 441.751733,491.782936 C441.602072,502.172964 437.925942,508.927535 427.910816,519.378504" id="Fill-30" fill="#363636" sketch:type="MSShapeGroup"></path>
                <path d="M370.971934,576.882438 C370.971934,564.521219 371.016278,552.158892 370.937568,539.797673 C370.91983,537.067479 371.215827,535.147258 374.673562,535.180499 C384.447012,535.276898 394.251503,535.076343 403.728955,537.983823 C414.532298,541.299058 420.386834,548.074681 420.631836,559.231468 C421.035367,577.670249 421.084146,596.134515 420.569754,614.567756 C420.206132,627.61374 414.04673,632.883546 398.706981,634.120111 C390.999968,634.741717 383.20981,634.250859 375.460671,634.44144 C371.172592,634.546704 371.403181,631.737839 371.405398,628.880222 C371.415376,611.548366 371.409833,594.215402 371.409833,576.882438 L370.971934,576.882438" id="Fill-32" fill="#FFFFFF" sketch:type="MSShapeGroup"></path>
                <path d="M370.722277,467.188366 C370.723385,455.558449 370.84644,443.927424 370.652435,432.300831 C370.589244,428.461496 371.820903,427.138504 375.718753,427.193906 C383.290517,427.300277 390.853411,427.330194 398.373069,428.319668 C406.735267,429.419945 410.904725,432.945706 411.516674,441.27036 C412.666296,456.92133 412.703989,472.659834 411.574322,488.294183 C410.80606,498.92133 402.881761,505.563989 391.336762,506.817175 C386.211687,507.372299 381.006793,507.163989 375.862872,507.596122 C371.544861,507.959557 370.579267,506.012742 370.648,502.074792 C370.853092,490.449307 370.721168,478.818283 370.722277,467.188366" id="Fill-34" fill="#FFFFFF" sketch:type="MSShapeGroup"></path>
            </g>
        </g>
    </g>
</svg>