<?xml version="1.0" encoding="UTF-8" standalone="no"?>
<svg width="800px" height="800px" viewBox="0 0 800 800" version="1.1" xmlns="http://www.w3.org/2000/svg" xmlns:xlink="http://www.w3.org/1999/xlink" xmlns:sketch="http://www.bohemiancoding.com/sketch/ns">
    <!-- Generator: Sketch 3.4.4 (17249) - http://www.bohemiancoding.com/sketch -->
    <title>pacers</title>
    <desc>Created with Sketch.</desc>
    <defs>
        <path id="path-1" d="M0,1.29378959 L800,1.29378959 L800,677 L0,677 L0,1.29378959 Z"></path>
        <path id="path-3" d="M0,1.29378959 L800,1.29378959 L800,677 L0,677 L0,1.29378959 Z"></path>
        <path id="path-5" d="M0,1.29378959 L800,1.29378959 L800,677 L0,677"></path>
    </defs>
    <g id="Page-1" stroke="none" stroke-width="1" fill="none" fill-rule="evenodd" sketch:type="MSPage">
        <g id="pacers" sketch:type="MSArtboardGroup">
            <g id="Page-1" sketch:type="MSLayerGroup" transform="translate(0.000000, 62.000000)">
                <g id="Group-3">
                    <mask id="mask-2" sketch:name="Clip 2" fill="white">
                        <use xlink:href="#path-1"></use>
                    </mask>
                    <g id="Clip-2"></g>
                    <path d="M79.8062385,396.714804 C60.5504587,484.034587 41.293211,571.35437 21.9478899,659.075067 C24.4858716,659.208704 26.4102752,659.401084 28.333211,659.399615 C103.182385,659.380524 178.033028,659.267446 252.882202,659.462763 C258.383853,659.477448 259.825321,657.352461 260.930642,652.682483 C272.68844,602.979522 284.711927,553.33824 296.406606,503.620594 C297.721835,498.034242 299.511193,495.800583 305.867156,495.847576 C353.074495,496.200028 400.284771,496.108978 447.495046,496.009116 C472.992294,495.956249 498.197431,493.227689 523.103119,487.541477 C642.714128,460.229446 729.868624,343.706145 703.268991,209.043355 C681.303486,97.8420666 588.013211,20.6170731 473.033394,19.5156631 C371.528807,18.5434852 270.009541,19.2469191 168.497615,19.0589451 C163.939817,19.0501338 162.166606,20.3674202 161.249174,24.8670471 C157.782018,41.8640059 153.796697,58.7552293 150.147523,75.7184115 C145.061284,99.3590753 140.102752,123.02911 135.089908,146.685928 C132.776514,151.398494 131.884037,156.467917 131.351193,161.625453 C123.994128,195.38734 116.638532,229.149227 109.281468,262.909646 C107.110459,268.156763 106.063853,273.641785 105.811376,279.294221 C105.28,281.166618 104.651743,283.016986 104.230459,284.914349 C97.0656881,317.294333 89.9244037,349.680192 82.7787156,382.064583 C81.7878899,386.9475 80.7970642,391.831887 79.8062385,396.714804 L79.8062385,396.714804 Z M0,677.000147 C7.96036697,640.561099 15.9001835,604.119114 23.8825688,567.685941 C39.4319266,496.728704 54.973945,425.769999 70.5776147,354.824511 C81.7306422,304.108253 93.0069725,253.418429 104.174679,202.705108 C118.382385,138.193323 132.585688,73.6800688 146.627523,9.13156985 C147.848807,3.51731605 149.867156,1.29099935 156.192294,1.30568482 C262.369174,1.54946356 368.550459,0.920925597 474.721468,1.69778677 C535.12367,2.13835076 589.004037,22.4542249 635.713761,61.0314766 C680.594495,98.0975937 708.440367,145.845919 720.085138,202.380559 C735.368807,276.584752 722.416147,345.582947 676.521101,407.006379 C634.96367,462.626114 579.47156,495.834359 511.320367,508.15106 C489.188991,512.151381 466.882936,513.998813 444.383119,513.928323 C403.527339,513.79909 362.667156,514.136856 321.817248,513.674264 C314.075596,513.58762 311.414312,516.163451 309.743853,523.291776 C297.724771,574.579299 285.313761,625.775772 273.027523,677.000147 L0,677.000147 Z" id="Fill-1" fill="#BCBFC1" sketch:type="MSShapeGroup" mask="url(#mask-2)"></path>
                </g>
                <g id="Group-6">
                    <mask id="mask-4" sketch:name="Clip 5" fill="white">
                        <use xlink:href="#path-3"></use>
                    </mask>
                    <g id="Clip-5"></g>
                    <path d="M433.377908,658.697797 C444.867083,658.697797 444.865615,658.697797 447.416807,647.790901 C448.304881,643.994708 449.05644,640.158864 450.138275,636.417007 C451.306716,632.374098 451.127633,630.332819 445.800661,630.262328 C429.182679,630.043515 429.185615,629.810016 425.480661,646.122632 C425.319193,646.834877 425.121028,647.53978 424.949284,648.250556 C422.42745,658.697797 422.42745,658.697797 433.377908,658.697797 L433.377908,658.697797 Z M406.605064,677.000294 C400.50011,672.418428 399.817541,666.729279 401.887266,659.590673 C404.941945,649.05532 406.980844,638.227725 409.611303,627.56314 C412.205064,617.04394 417.413138,612.917324 428.345982,612.673545 C435.184881,612.522285 442.063413,612.218296 448.861211,612.770469 C454.465615,613.227187 456.677725,611.191782 457.377908,605.811027 C458.031119,600.78566 459.575339,595.876309 460.872954,590.292895 L452.350385,590.292895 C439.691303,590.295832 439.284697,590.20625 436.574972,602.486237 C435.381578,607.893426 432.281394,607.25314 428.629284,607.257545 C415.22011,607.273699 415.221578,607.306007 418.196991,594.277062 C418.359927,593.561879 418.443596,592.829075 418.606532,592.115361 C422.647633,574.412031 424.605798,572.848029 442.748917,572.846561 C452.278459,572.845092 461.809468,572.801036 471.337541,572.8774 C481.212037,572.955233 484.373872,576.733803 482.179376,586.116348 C475.563596,614.399088 468.765798,642.639239 462.254239,670.945476 C461.590752,673.825296 459.701578,675.199856 457.981211,677.000294 L441.834422,677.000294 C435.474055,672.277448 429.113688,675.51853 422.751853,677.000294 L406.605064,677.000294 Z" id="Fill-4" fill="#062A60" sketch:type="MSShapeGroup" mask="url(#mask-4)"></path>
                </g>
                <g id="Group-9">
                    <mask id="mask-6" sketch:name="Clip 8" fill="white">
                        <use xlink:href="#path-5"></use>
                    </mask>
                    <g id="Clip-8"></g>
                    <path d="M727.984,675.8024 C721.385835,674.548261 719.944367,670.076537 721.099596,664.297806 C722.103633,659.272439 723.48345,654.321969 724.670972,649.331847 C727.923817,635.646461 727.925284,635.976884 741.713174,635.683175 C747.753541,635.555411 748.007486,637.711238 746.583633,642.434084 C745.112807,647.31847 744.179229,652.364396 743.034275,657.239971 C744.998312,658.752574 747.009321,658.182778 748.886752,658.201869 C762.197578,658.345786 761.928954,658.253268 765.224367,645.454884 C766.303266,641.266589 765.288954,639.307548 761.956844,637.128225 C754.187303,632.045585 746.84345,626.30063 738.977028,621.383936 C733.736661,618.110546 732.350972,614.105819 733.814459,608.400515 C735.939963,600.120849 737.683817,591.742791 739.840147,583.470467 C741.66767,576.459626 746.30767,572.813225 753.704367,572.841127 C765.68822,572.883715 777.675009,573.027632 789.652991,572.7677 C793.975927,572.673713 797.02033,574.579886 800.000147,577.138094 L800.000147,588.886467 C796.615193,592.772242 796.961615,597.882784 795.794642,602.44409 C794.861064,606.09196 793.629505,607.616311 789.545835,607.666242 C774.401615,607.851279 774.410422,608.03191 777.614826,593.201057 C777.76455,592.507903 777.633908,591.754539 777.633908,590.296272 C773.092257,590.296272 768.515376,590.287461 763.938495,590.299209 C761.057028,590.306552 757.469505,589.66186 757.544367,594.079248 C757.626569,598.829997 751.291156,603.871517 758.20345,608.368207 C766.181431,613.558051 773.98767,619.016639 782.011156,624.134524 C786.997578,627.316864 788.789872,631.39355 787.330789,637.175218 C785.062899,646.167129 783.084183,655.232467 780.894092,664.246407 C779.39244,670.431925 775.998679,674.830222 769.277211,675.83324 C755.512807,675.82296 741.748404,675.81268 727.984,675.8024" id="Fill-7" fill="#062A60" sketch:type="MSShapeGroup" mask="url(#mask-6)"></path>
                </g>
                <path d="M360.704734,610.316087 C362.166752,610.316087 363.68455,610.06056 365.081982,610.360144 C371.87244,611.809599 374.632073,608.650756 375.590606,602.234675 C376.450789,596.467693 378.102165,590.815257 379.493725,585.134918 C384.403817,565.101005 384.421431,565.199398 363.926752,565.980664 C360.348037,566.115771 358.806752,567.154033 358.058128,570.743161 C356.119046,580.043467 353.763083,589.258597 351.511339,598.49135 C348.632807,610.292591 348.606385,610.286716 360.704734,610.316087 M371.298495,547.889638 C379.119413,547.892575 386.946202,547.735441 394.762716,547.932226 C403.934092,548.164257 407.686018,552.868011 405.670606,561.705725 C401.598679,579.563252 397.413725,597.397283 393.095193,615.196068 C390.908037,624.211476 385.538495,628.320469 376.286385,628.42033 C367.242716,628.515786 358.194642,628.580402 349.155376,628.368931 C345.573725,628.285224 344.06033,629.413068 343.276477,633.049189 C340.703266,644.984068 337.275743,656.745658 335.038679,668.734873 C333.945101,674.595842 331.572991,676.098166 325.920147,675.933688 C312.513908,675.543055 312.493358,675.823547 315.600881,662.712363 C324.158679,626.60227 332.828037,590.517142 341.178862,554.358586 C342.310606,549.456578 343.95611,547.358025 349.308037,547.753064 C356.601982,548.29202 363.964917,547.88817 371.298495,547.889638" id="Fill-10" fill="#062A60" sketch:type="MSShapeGroup"></path>
                <path d="M609.203817,612.814526 C620.013358,612.814526 620.008954,612.814526 622.315009,602.578756 C622.743633,600.674051 623.000514,598.687107 623.730055,596.898417 C626.014092,591.301786 624.054459,590.062333 618.392807,590.193033 C604.488954,590.514645 604.483083,590.23709 601.44455,603.023725 C599.117945,612.814526 599.116477,612.814526 609.203817,612.814526 M616.591706,675.743218 C602.350239,675.753498 588.108771,675.765246 573.867303,675.776994 C567.352807,674.652088 565.313908,670.311064 566.661431,664.505899 C573.008587,637.167435 579.437945,609.845125 586.184367,582.602116 C587.743266,576.307925 592.637211,572.918519 599.292624,572.8774 C611.995743,572.79663 624.703266,572.720266 637.404917,572.915582 C645.274275,573.036003 648.447853,577.143528 646.728954,584.934168 C644.047119,597.086391 641.140697,609.191621 638.171156,621.27776 C636.710606,627.2195 632.930789,630.175684 626.544,630.009738 C617.755743,629.782114 608.951339,630.163936 600.166018,629.884912 C596.32455,629.763023 594.517578,630.813033 593.788037,634.766361 C592.593174,641.23384 590.963817,647.636704 589.196477,653.97642 C588.264367,657.314426 589.115743,658.562691 592.496294,658.235205 C593.222899,658.164715 593.961248,658.219051 594.695193,658.229331 C608.960147,658.401151 608.808954,658.3615 612.403817,644.529259 C613.209688,641.432094 612.252624,636.371482 616.008954,635.644552 C621.415193,634.598947 627.197211,635.129092 632.781064,635.530005 C635.462899,635.722385 634.074275,638.236537 633.754275,639.662495 C631.882716,647.990623 629.996477,656.321689 627.859229,664.5852 C626.348771,670.42561 622.905101,674.6095 616.591706,675.743218" id="Fill-12" fill="#062A60" sketch:type="MSShapeGroup"></path>
                <path d="M535.81622,675.647909 L491.709064,675.634692 C485.587963,673.931178 484.53255,669.300851 485.740624,664.094853 C492.030532,636.984013 498.40411,609.890796 505.034569,582.860727 C506.681541,576.145063 511.761908,572.901044 518.685945,572.87461 C531.149798,572.826148 543.616587,572.716007 556.078972,572.898107 C564.117138,573.01559 566.985394,576.73395 565.404477,584.756621 C564.225761,590.742417 562.448147,596.609261 561.301725,602.599462 C560.691083,605.796488 559.469798,607.480911 556.049615,606.975731 C555.333284,606.869996 554.584661,607.009508 553.853651,606.98748 C549.723009,606.86559 544.216954,608.295955 541.81989,606.190059 C539.013284,603.7229 542.432,598.659352 543.318606,594.808822 C544.181725,591.064028 543.160073,590.372343 539.557872,590.226957 C523.405211,589.576391 523.441908,589.464781 519.791266,605.059278 C516.061358,620.988603 512.37989,636.929677 508.409248,652.797323 C507.361174,656.981213 508.036404,658.254443 512.600073,658.33815 C527.89989,658.620111 527.780991,658.77284 531.847046,642.821486 C532.652917,639.661174 531.904294,634.543289 535.325945,633.78405 C540.679339,632.595996 546.500991,633.108519 552.078972,633.518243 C554.545028,633.700343 553.33255,636.267362 552.986128,637.740315 C550.862092,646.768939 548.585394,655.762319 546.432,664.78507 C545.053651,670.565269 541.605578,674.227825 535.81622,675.647909" id="Fill-14" fill="#062A60" sketch:type="MSShapeGroup"></path>
                <path d="M666.35567,675.446425 C659.902826,675.487544 653.45145,675.527195 646.998606,675.568314 C650.414385,654.855932 656.375486,634.719221 660.870165,614.250618 C663.538789,602.098394 666.693284,590.054843 669.398606,577.909962 C670.213284,574.251813 671.585761,572.614383 675.688514,572.761238 C689.633468,573.264949 703.527046,574.546991 717.549798,572.120952 C725.643743,570.721427 729.226862,575.495672 728.181725,583.679882 C727.811817,586.575856 727.061725,589.426305 726.446679,592.289971 C723.136587,607.719991 723.138055,607.548171 707.529982,607.078236 C703.218789,606.949004 702.461358,605.625843 703.792734,601.9207 C704.362275,600.331733 704.227229,598.47549 704.85989,596.923236 C706.691817,592.42214 704.746862,591.780385 700.65145,591.733392 C686.64044,591.57332 686.641908,591.429403 683.362642,605.010522 C677.695119,628.489646 672.024661,651.967301 666.35567,675.446425" id="Fill-16" fill="#062A60" sketch:type="MSShapeGroup"></path>
                <path d="M625.247706,250.518784 C633.793761,250.518784 642.341284,250.50263 650.887339,250.526126 C655.133945,250.537875 658.006606,249.339541 657.65578,244.233404 C656.140917,222.186113 653.061284,200.517708 642.375046,180.707013 C640.949725,178.065098 640.162936,173.898831 636.383119,174.104428 C633.256514,174.273311 632.280367,177.907964 630.938716,180.486731 C625.07156,191.766638 617.528073,202.780738 606.228257,207.744426 C590.094679,214.8331 589.249174,225.986712 592.466789,240.067137 C592.684037,241.012881 592.82789,242.012961 592.776514,242.976328 C592.462385,248.913662 595.941284,250.558434 601.073028,250.530532 C609.130275,250.485007 617.188991,250.517315 625.247706,250.518784 M625.692477,263.256957 C617.381284,263.256957 609.065688,263.389126 600.758899,263.208495 C595.571376,263.096885 593.194862,265.302643 592.835229,270.491018 C592.412477,276.576675 591.92367,282.718137 590.680367,288.670157 C589.369541,294.942319 591.396697,298.562287 596.858716,301.810712 C612.283303,310.986191 624.807339,323.085547 632.13211,339.890126 C632.882202,341.609794 633.178716,343.937441 635.84,343.701005 C638.132844,343.496877 638.966606,341.562801 639.800367,339.794671 C650.116697,317.92948 656.87633,295.162601 657.767339,270.806755 C657.966972,265.329076 655.828257,263.195278 650.627523,263.242272 C642.31633,263.315699 634.00367,263.261363 625.692477,263.256957 M491.003303,69.5938377 C491.465688,72.8819137 493.219817,73.4678638 494.542385,74.435636 C536.519633,105.162037 567.975046,143.7481 583.497982,194.114844 C585.54422,200.751207 589.095046,201.319534 594.457248,198.364818 C607.299817,191.287892 615.442202,180.195959 620.515229,166.829248 C624.324404,156.790263 622.841835,147.338697 616.286239,138.440773 C594.90789,109.417885 566.049174,91.0493041 532.664954,79.0777119 C519.383486,74.3152152 505.789358,70.7422412 491.003303,69.5938377 M621.532477,364.892133 C620.735413,342.465957 609.883303,328.17553 593.393028,317.590246 C587.426055,313.761744 585.109725,315.021757 582.756697,321.898961 C566.000734,370.874992 537.028991,410.481695 493.291743,438.796742 C491.14422,440.187456 487.587523,441.438658 488.717798,444.556382 C489.837798,447.643267 493.416514,446.519829 495.926606,446.089545 C545.055413,437.673304 585.811376,414.769851 617.299083,375.803434 C620.418349,371.942625 621.827523,367.799855 621.532477,364.892133 M560.766239,206.822178 C570.138716,206.952879 571.939817,204.454881 568.336147,194.18974 C550.266422,142.712775 517.852477,103.235304 469.793761,76.8925145 C457.382752,70.088738 444.499083,68.6950872 430.808073,71.7614126 C419.33211,74.3313692 408.149725,77.7222434 397.275596,82.180751 C373.931743,91.752738 353.244771,105.405816 335.032661,122.827185 C333.20367,124.577692 330.206239,126.337011 331.586055,129.393057 C332.736881,131.945391 335.900183,131.2493 338.213578,131.434337 C343.324771,131.841124 348.463853,131.935111 353.594128,132.070217 C401.478165,133.339042 447.092844,143.137185 488.921835,167.594361 C504.13945,176.493753 518.375046,186.827916 532.930642,196.702423 C541.354862,202.418007 550.328073,206.643016 560.766239,206.822178 M109.281468,262.91038 C116.638532,229.148493 123.994128,195.386606 131.348257,161.627656 C164.838165,161.610033 198.332477,161.588005 231.825321,161.574788 C242.825688,161.568914 253.833394,161.363317 264.82789,161.636467 C285.068624,162.140178 295.46422,176.963688 289.00844,195.976961 C285.701284,205.714894 283.17211,215.62171 281.489908,225.763493 C278.652477,242.870593 284.663486,250.05766 301.966972,250.088499 C387.509725,250.236823 473.052477,250.417454 558.595229,250.49235 C580.728073,250.511441 579.191193,252.210549 577.12,229.558217 C576.551927,223.352139 573.840734,221.28002 567.772477,221.28002 C552.519633,221.281489 538.37211,216.93459 525.464954,208.807653 C517.817248,203.992289 510.121101,199.207764 502.812477,193.906311 C457.638165,161.135692 406.599633,147.169814 351.448073,146.930441 C279.329174,146.616172 207.208807,146.746872 135.089908,146.686662 C140.102752,123.028376 145.061284,99.3598095 150.147523,75.7176772 C153.795229,58.7559636 157.782018,41.8647401 161.249174,24.8663128 C162.166606,20.3666859 163.939817,19.0508681 168.497615,19.0582108 C270.009541,19.2461848 371.528807,18.5442195 473.033394,19.5163974 C588.013211,20.6178074 681.303486,97.8413323 703.268991,209.044089 C729.868624,343.70541 642.714128,460.228712 523.103119,487.540742 C498.197431,493.228423 472.992294,495.955515 447.495046,496.009851 C400.284771,496.109712 353.074495,496.199293 305.867156,495.846842 C299.511193,495.799849 297.721835,498.034977 296.406606,503.619859 C284.711927,553.338974 272.68844,602.980256 260.930642,652.683217 C259.825321,657.353196 258.383853,659.476714 252.882202,659.463497 C178.033028,659.266712 103.182385,659.37979 28.333211,659.40035 C26.4088073,659.40035 24.4858716,659.209439 21.9478899,659.074332 C41.293211,571.355105 60.5489908,484.035321 79.8047706,396.715538 C160.02789,396.78456 240.252477,396.860925 320.477064,396.906449 C330.965138,396.912324 341.014312,398.463109 349.420917,405.331502 C367.25578,419.900953 387.834128,429.149859 408.91156,437.983167 C431.412844,447.412705 452.384587,444.53876 473.108257,434.043057 C504.757431,418.01387 528.350826,393.290888 547.340917,363.812751 C556.377248,349.783725 563.772477,334.917627 568.952661,319.026484 C571.678532,310.661643 570.050642,308.867079 561.501651,309.323797 C552.990826,309.777577 545.293211,312.635369 537.865688,316.491773 C526.118165,322.592115 515.246972,330.109606 504.50789,337.766608 C486.228257,350.798491 466.395596,360.501178 445.014312,367.255024 C407.564037,379.084167 369.250642,383.000781 330.03156,382.636582 C250.791927,381.902308 171.539083,382.422174 92.2906422,382.403083 C89.12,382.401614 85.9493578,382.181332 82.7787156,382.063849 C89.9244037,349.679458 97.0642202,317.293599 104.230459,284.915083 C104.651743,283.017721 105.28,281.167352 105.811376,279.294955 C153.235963,279.356634 200.662018,279.349291 248.088073,279.510831 C268.606239,279.581321 279.969174,288.551204 285.382752,307.837627 C287.555229,315.579805 290.435229,323.129603 293.117064,330.723458 C299.907523,349.954076 314.077064,360.818384 333.322569,365.64256 C355.167706,371.117302 376.929174,368.459233 398.774312,365.04633 C443.713761,358.025209 482.181284,336.690163 518.464587,310.873113 C530.266422,302.475964 542.793394,297.996896 556.811743,295.845475 C562.85211,294.917354 570.993028,298.678302 574.540917,292.671946 C577.517798,287.631894 576.866055,280.386085 577.589725,274.090426 C578.83156,263.268705 578.756697,263.259894 567.693211,263.255489 C417.576514,263.202621 267.458349,263.149753 117.341651,263.088074 C114.655413,263.086606 111.967706,262.972059 109.281468,262.91038" id="Fill-18" fill="#02275D" sketch:type="MSShapeGroup"></path>
                <path d="M109.281761,262.909793 C111.968,262.971472 114.655706,263.086018 117.341945,263.087487 C267.458642,263.149166 417.576807,263.202033 567.693505,263.25637 C578.756991,263.259307 578.831853,263.268118 577.58855,274.089838 C576.866349,280.385498 577.518092,287.632775 574.541211,292.671359 C570.993321,298.677715 562.852404,294.918235 556.812037,295.844888 C542.793688,297.997777 530.266716,302.475376 518.464881,310.873994 C482.181578,336.689576 443.714055,358.024621 398.774606,365.045743 C376.929468,368.458645 355.168,371.118183 333.322862,365.641973 C314.077358,360.817797 299.907817,349.953489 293.11589,330.722871 C290.434055,323.129016 287.555523,315.579218 285.381578,307.83704 C279.968,288.552085 268.606532,279.580734 248.088367,279.511712 C200.662312,279.348704 153.236257,279.356046 105.810202,279.294367 C106.064147,273.641931 107.109284,268.155441 109.281761,262.909793" id="Fill-20" fill="#FBC222" sketch:type="MSShapeGroup"></path>
                <path d="M135.089908,146.686515 C207.208807,146.746726 279.329174,146.616025 351.448073,146.930294 C406.599633,147.169667 457.638165,161.135546 502.813945,193.906164 C510.122569,199.209086 517.817248,203.992142 525.464954,208.807507 C538.37211,216.935912 552.519633,221.281342 567.772477,221.279873 C573.840734,221.279873 576.553394,223.351992 577.12,229.55807 C579.191193,252.210402 580.728073,250.511294 558.595229,250.492203 C473.052477,250.417307 387.509725,250.236676 301.966972,250.088352 C284.663486,250.057513 278.652477,242.870446 281.489908,225.763346 C283.17211,215.621563 285.701284,205.714747 289.00844,195.976815 C295.46422,176.963541 285.068624,162.140031 264.82789,161.63632 C253.833394,161.36317 242.825688,161.570235 231.825321,161.574641 C198.332477,161.587858 164.839633,161.609886 131.348257,161.627509 C131.884037,156.467036 132.776514,151.399081 135.089908,146.686515" id="Fill-22" fill="#FCC222" sketch:type="MSShapeGroup"></path>
                <path d="M82.778422,382.063995 C85.9490642,382.181479 89.1197064,382.401761 92.2903486,382.40323 C171.538789,382.422321 250.791633,381.902455 330.032734,382.636729 C369.250349,382.99946 407.565211,379.084314 445.015486,367.255171 C466.395303,360.501325 486.227963,350.798638 504.507596,337.766755 C515.246679,330.109752 526.117872,322.592262 537.865394,316.49192 C545.292917,312.634048 552.990532,309.777724 561.502826,309.322475 C570.050349,308.867225 571.678239,310.661789 568.952367,319.026631 C563.772183,334.917774 556.378422,349.783872 547.340624,363.812898 C528.350532,393.291034 504.757138,418.014017 473.107963,434.043204 C452.384294,444.538907 431.41255,447.412852 408.911266,437.983314 C387.833835,429.150006 367.255486,419.9011 349.422092,405.331648 C341.015486,398.463256 330.964844,396.91247 320.476771,396.906596 C240.252183,396.861071 160.027596,396.783238 79.8044771,396.715685 C80.7967706,391.831299 81.7875963,386.946913 82.778422,382.063995" id="Fill-24" fill="#FBC222" sketch:type="MSShapeGroup"></path>
                <path d="M560.768587,206.815864 C550.327486,206.642575 541.354275,202.417566 532.930055,196.703451 C518.375927,186.828944 504.14033,176.493313 488.921248,167.595389 C447.093725,143.136744 401.477578,133.338601 353.595009,132.069777 C348.464734,131.93467 343.325651,131.840684 338.212991,131.433896 C335.899596,131.250328 332.737761,131.946419 331.585468,129.392616 C330.205651,126.336571 333.203083,124.577252 335.033541,122.826744 C353.244183,105.405375 373.931156,91.7522974 397.276477,82.1803104 C408.149138,77.7218028 419.331523,74.3309286 430.808954,71.760972 C444.499963,68.6946466 457.382165,70.0882974 469.794642,76.892074 C517.85189,103.234864 550.265835,142.712334 568.33556,194.190768 C571.939229,204.455909 570.138128,206.952438 560.768587,206.815864" id="Fill-26" fill="#FCC222" sketch:type="MSShapeGroup"></path>
                <path d="M621.532917,364.891986 C621.826495,367.799708 620.417321,371.942478 617.298055,375.803287 C585.810349,414.769704 545.055853,437.673157 495.927046,446.089398 C493.416954,446.519682 489.838239,447.64312 488.718239,444.556235 C487.587963,441.438511 491.143193,440.187309 493.292183,438.796595 C537.029431,410.481548 566.001174,370.874845 582.75567,321.900283 C585.108697,315.021611 587.426495,313.761598 593.393468,317.590099 C609.883743,328.175383 620.735853,342.46581 621.532917,364.891986" id="Fill-28" fill="#FBC222" sketch:type="MSShapeGroup"></path>
                <path d="M491.00389,69.5941315 C505.789945,70.7425349 519.384073,74.3140403 532.664073,79.0765371 C566.049761,91.0495978 594.907009,109.416711 616.286826,138.441066 C622.840954,147.33899 624.324991,156.790557 620.515817,166.828073 C615.442789,180.196253 607.298936,191.286717 594.457835,198.365112 C589.095633,201.319828 585.543339,200.7515 583.498569,194.115138 C567.974165,143.746925 536.52022,105.162331 494.541505,74.4359297 C493.220404,73.4681575 491.466275,72.8807388 491.00389,69.5941315" id="Fill-30" fill="#FBC222" sketch:type="MSShapeGroup"></path>
                <path d="M625.692477,263.259454 C634.00367,263.262391 642.31633,263.315258 650.627523,263.241831 C655.828257,263.194838 657.966972,265.328636 657.767339,270.806315 C656.87633,295.162161 650.116697,317.929039 639.800367,339.79423 C638.966606,341.56236 638.132844,343.497905 635.84,343.700564 C633.178716,343.937 632.882202,341.610822 632.13211,339.889686 C624.807339,323.085107 612.283303,310.987219 596.858716,301.81174 C591.396697,298.563315 589.369541,294.941879 590.680367,288.669716 C591.92367,282.717697 592.412477,276.577703 592.835229,270.492046 C593.194862,265.302202 595.571376,263.096445 600.758899,263.209523 C609.065688,263.388686 617.381284,263.256516 625.692477,263.259454" id="Fill-32" fill="#FBC222" sketch:type="MSShapeGroup"></path>
                <path d="M625.247706,250.518343 C617.188991,250.518343 609.130275,250.484566 601.073028,250.530091 C595.941284,250.557994 592.462385,248.913221 592.776514,242.975887 C592.82789,242.012521 592.684037,241.012441 592.466789,240.066697 C589.249174,225.986271 590.094679,214.83266 606.228257,207.743985 C617.528073,202.780297 625.07156,191.766198 630.938716,180.486291 C632.280367,177.908992 633.256514,174.274339 636.383119,174.103987 C640.162936,173.898391 640.949725,178.066126 642.375046,180.708041 C653.061284,200.517267 656.140917,222.187141 657.65578,244.234432 C658.006606,249.3391 655.133945,250.537434 650.887339,250.525686 C642.341284,250.502189 633.793761,250.518343 625.247706,250.518343" id="Fill-34" fill="#FBC222" sketch:type="MSShapeGroup"></path>
            </g>
        </g>
    </g>
</svg>