<?xml version="1.0" encoding="UTF-8" standalone="no"?>
<svg width="800px" height="800px" viewBox="0 0 800 800" version="1.1" xmlns="http://www.w3.org/2000/svg" xmlns:xlink="http://www.w3.org/1999/xlink" xmlns:sketch="http://www.bohemiancoding.com/sketch/ns">
    <!-- Generator: Sketch 3.4.4 (17249) - http://www.bohemiancoding.com/sketch -->
    <title>pistons</title>
    <desc>Created with Sketch.</desc>
    <defs></defs>
    <g id="Page-1" stroke="none" stroke-width="1" fill="none" fill-rule="evenodd" sketch:type="MSPage">
        <g id="pistons" sketch:type="MSArtboardGroup">
            <g id="Page-1" sketch:type="MSLayerGroup" transform="translate(0.000000, 58.000000)">
                <path d="M745.487413,410.376075 L745.581358,410.376075 C745.581358,413.065105 745.736954,415.765877 745.550532,418.443165 C745.080807,425.153997 748.583193,434.324882 744.026862,437.813869 C740.653651,440.398684 731.783193,435.899843 725.390532,434.429096 C712.32778,431.423019 712.493651,431.384856 712.757872,444.866701 C712.834202,448.762272 713.92778,450.539791 717.904294,451.134255 C722.473835,451.816787 726.930349,453.253774 731.436771,454.359036 C741.634202,456.858718 751.759706,459.716547 762.046679,461.767079 C775.858055,464.519225 784.559706,456.397826 783.906495,443.779053 C782.996404,426.216693 783.20778,408.567731 783.661358,390.974547 C783.913835,381.140212 780.204477,374.052152 772.471633,368.524375 C765.516771,363.552899 758.554569,358.578487 751.793468,353.350143 C744.925211,348.039603 741.883743,341.014658 742.586862,332.168161 C742.870165,328.599912 743.397138,327.466761 747.182826,328.577894 C755.614385,331.054092 764.151633,333.178015 772.681541,335.301937 C775.26356,335.946306 777.979156,336.531963 780.606679,336.432152 C787.279706,336.178221 790.48411,331.983216 791.706862,325.809603 C793.048514,319.031251 788.081174,318.417706 783.549798,317.262538 C778.814385,316.055997 774.109798,314.730564 769.383193,313.488796 C755.92411,309.952839 742.522275,306.164418 728.978055,302.980736 C715.89622,299.904203 709.883743,304.604135 709.189431,317.855534 C708.844477,324.444538 708.966312,331.057027 708.624294,337.646032 C707.87567,352.054066 713.76778,364.640547 726.162642,369.874761 C745.221725,377.924238 747.769982,391.605706 745.494752,408.909731 C745.431633,409.391173 745.487413,409.887294 745.487413,410.376075 M46.0231927,463.799997 C57.3009908,460.980332 67.1564037,458.097551 77.192367,456.161508 C83.3266789,454.97992 85.444844,452.569774 85.2466789,446.112873 C84.725578,429.25653 85.2672294,412.369362 84.9501651,395.501276 C84.8562202,390.465216 86.0642936,388.190109 91.3560367,387.228693 C102.153835,385.266229 112.867963,382.72398 123.49255,379.948349 C136.296954,376.603208 146.032,369.055723 147.624661,355.403611 C149.550532,338.909817 149.506495,322.182641 146.545761,305.718203 C144.935486,296.76162 140.399706,293.627843 131.049248,293.450238 C122.611817,293.291714 114.679339,295.973405 106.59567,297.759731 C80.1105321,303.610427 53.9365872,310.667663 27.7729174,317.799757 C21.7031927,319.45398 21.2466789,322.537852 22.8393394,327.421259 C25.0646606,334.243645 30.4885138,337.72089 39.3281468,335.734942 C46.5369541,334.115946 46.5868624,336.988452 46.5310826,342.516229 C46.1978716,375.744538 46.1553028,408.977251 46.0275963,442.207027 C46.0011743,449.233439 46.0231927,456.259852 46.0231927,463.799997 M763.49989,355.394804 C766.661725,357.531937 769.785394,359.727783 772.991266,361.794461 C785.428697,369.813113 791.787596,380.560427 791.110899,395.987122 C790.246312,415.689551 790.770349,435.453628 790.695486,455.192753 C783.921174,466.555079 773.76044,470.055809 761.306862,467.313937 C744.942826,463.710461 728.718239,459.450873 712.307229,456.092521 C706.551633,454.915336 705.882275,452.044298 705.738422,447.074289 C705.502092,438.883903 707.58356,430.508573 704.283743,422.497259 C706.124477,410.265989 709.675303,398.33562 710.683743,385.960504 C712.50833,387.158238 714.192,388.719989 716.180991,389.486186 C722.655853,391.97853 724.525945,396.540487 723.969615,403.223431 C723.404477,410.007654 723.52044,416.899027 723.953468,423.7038 C724.434936,431.280641 731.452917,429.90677 735.797872,430.477748 C740.66833,431.119182 738.114202,426.133027 738.183193,423.926907 C738.528147,412.959422 738.118606,401.968452 738.434202,390.998032 C738.582459,385.891517 736.721174,383.0058 732.175119,380.730693 C719.662826,374.470478 708.994202,365.785439 704.045945,352.347628 C699.304661,339.467585 701.682642,325.949045 702.632367,312.593431 C703.275303,303.553182 707.198972,298.012195 715.962275,295.817817 C716.744661,295.622598 717.384661,294.853465 719.005211,293.701233 L709.863193,293.701233 C685.60778,148.128126 569.814752,38.8305039 422.870165,28.8068215 C294.422459,20.0454567 195.538055,74.2135597 126.840807,182.803697 C106.255119,215.34507 93.9894312,251.413594 87.1608073,289.328624 C86.2169541,294.56871 86.7263119,296.638324 92.5435596,294.856401 C98.1362202,293.143465 103.86833,291.884083 109.540257,290.425079 C113.553468,289.650075 117.541725,288.679852 121.587229,288.138229 C131.474936,286.815731 141.44044,285.391955 149.79567,293.037783 C151.303193,297.356083 153.648881,301.229637 154.394569,306.001491 C156.445211,319.125191 155.511633,332.265036 155.55567,345.391671 C155.626128,366.608882 144.351266,380.849585 123.750899,386.004538 C115.974018,387.950856 108.217688,390.198075 100.311633,391.351774 C93.8132844,392.29998 91.351633,395.171019 92.3615413,401.479671 C92.6301651,403.152976 92.5288807,404.884993 92.5978716,406.589122 C90.5545688,420.442324 94.7483303,433.206409 99.7097982,445.748856 C149.066128,570.506933 240.016587,642.974238 373.615119,656.711482 C458.839339,665.474315 535.347229,638.909869 601.274569,583.883096 C639.981358,551.575105 669.428697,512.133551 688.643376,465.310375 C697.189431,467.168624 705.916037,468.278289 714.13622,471.485457 C695.106495,519.325826 665.960073,560.163268 628.013651,594.721414 C572.804844,644.998349 507.853651,673.90689 433.695853,682.286624 C431.952,682.483311 429.637138,681.467585 428.624294,683.99956 L369.908697,683.99956 C368.478972,681.518959 365.98356,682.580186 363.975486,682.360015 C289.283376,674.206324 223.872734,645.208246 168.273468,594.655362 C131.07567,560.83259 102.448881,520.79804 83.4411743,474.087886 C84.5743853,473.640203 85.6885138,472.866667 86.845211,472.796212 C94.459156,472.32798 92.7886972,466.515448 92.1663119,462.427594 C91.312,456.804409 87.0477798,459.901491 84.1751193,460.584023 C72.5538349,463.346444 60.9677798,466.264452 49.3875963,469.192736 C39.4558532,471.705628 39.4631927,471.746727 39.4631927,461.765611 C39.4617248,424.845757 39.3442936,387.924435 39.5762202,351.006049 C39.6158532,344.728221 38.5633761,341.167311 31.2400734,342.074418 C25.7090642,342.759886 21.1042936,340.295431 18.1641101,335.572015 C13.965945,328.830358 13.5754862,321.805414 17.6327339,314.75992 C29.5872294,311.336985 41.4830092,307.682135 53.5299817,304.618813 C57.7046606,303.556118 59.4940183,301.888684 60.1208073,297.532221 C80.6096147,155.026839 183.894752,42.2710532 323.356037,9.98214335 C467.665761,-23.4281742 620.534752,43.6155682 693.973284,172.374899 C715.266495,209.708676 729.53145,249.420306 735.627596,291.994169 C736.25145,296.3521 737.805945,298.644821 742.522275,299.777972 C757.469798,303.36677 772.291083,307.50453 787.091817,311.673113 C799.991633,315.305946 799.950532,315.451259 799.162275,329.131259 C795.554202,340.85907 788.343927,345.111319 776.545028,342.284315 C769.695853,340.643302 762.896587,338.787989 756.088514,336.981113 C754.234569,336.489397 752.120807,335.238821 750.717505,337.152847 C749.34356,339.030178 749.985028,341.344916 751.014018,343.383706 C753.772183,348.845431 758.90833,351.838298 763.49989,355.394804" id="Fill-1" fill="#046DB7" sketch:type="MSShapeGroup"></path>
                <path d="M83.4407339,474.088326 C65.7878899,476.753871 48.7368807,481.963133 31.5684404,486.610223 C26.2297248,488.054549 24.5387156,487.824103 24.587156,481.538936 C24.8807339,442.666893 24.6370642,403.790446 24.8543119,364.916936 C24.8836697,359.919039 23.879633,357.695305 18.520367,356.855717 C8.52550459,355.288094 3.61981651,347.670155 0,339.064378 L0,327.321888 C4.23192661,320.825356 8.97614679,315.048052 17.6322936,314.760361 C13.5750459,321.805854 13.9655046,328.830798 18.1636697,335.572455 C21.1053211,340.295871 25.7086239,342.760326 31.239633,342.074858 C38.5629358,341.167751 39.6154128,344.728661 39.5757798,351.006489 C39.3453211,387.924876 39.4612844,424.846197 39.4627523,461.766052 C39.4627523,471.7457 39.4554128,471.704601 49.387156,469.193176 C60.9688073,466.264893 72.5533945,463.345416 84.1761468,460.582996 C87.0473394,459.900464 91.3115596,456.80485 92.1673394,462.428034 C92.7882569,466.515888 94.4587156,472.326953 86.8462385,472.795185 C85.6880734,472.867107 84.573945,473.640644 83.4407339,474.088326" id="Fill-3" fill="#042860" sketch:type="MSShapeGroup"></path>
                <path d="M714.135486,471.484723 C705.916771,468.277555 697.190165,467.169358 688.642642,465.309641 C681.382459,463.860912 674.123743,462.41365 666.86356,460.966388 C664.601541,459.770122 662.153101,459.526465 659.653284,459.554354 C655.066128,458.672199 650.478972,457.790045 645.891817,456.90789 C641.348697,455.997847 636.832,454.926345 632.259523,454.204182 C609.137321,450.552268 586.134018,446.016731 562.691817,444.700105 C559.537321,443.707864 557.620257,442.172534 558.003376,438.240268 C558.316037,435.028697 558.920807,431.596955 557.383927,428.416208 C557.143193,428.184294 556.902459,427.952379 556.661725,427.718997 C556.531083,428.021367 556.401908,428.323736 556.272734,428.626105 L556.374018,428.55565 C546.888514,434.856963 537.301725,440.499229 525.557138,442.150517 C507.913101,444.631118 490.470165,442.746448 472.956771,441.407804 C469.248881,440.016319 465.472,438.933075 461.476404,438.822989 C437.213651,430.437384 429.338422,412.7165 430.29989,388.120388 C431.427229,359.239736 430.56411,330.281289 430.56411,301.123221 C426.602275,302.47801 424.211083,306.661272 419.780991,306.847684 C419.741358,303.693358 419.894018,300.522886 419.613651,297.390577 C419.265761,293.503813 420.898055,291.504654 424.652917,290.87056 C434.207413,289.2545 439.807413,282.917959 443.775119,274.677667 C447.111633,272.310088 450.446679,269.942508 453.781725,267.574929 C456.735119,266.58856 459.687046,265.602191 462.638972,264.615821 C462.21622,265.473023 462.023927,266.678096 461.335486,267.134585 C449.20044,275.191401 446.00778,287.089478 446.103193,300.795899 C446.305761,330.127169 446.756404,359.477521 445.965211,388.788242 C445.401541,409.66492 457.176954,420.330036 474.054752,424.114053 C492.927413,428.345753 512.077505,430.255375 531.361174,427.014448 C549.065394,424.039195 563.443376,415.638912 562.61255,391.985135 C561.601174,363.176405 562.232367,334.30456 562.454018,305.46207 C562.524477,296.299993 561.585028,287.490191 557.761174,279.103118 C558.593468,268.421856 558.593468,268.411581 569.731817,268.313238 C571.17622,268.300027 572.622092,268.468826 574.067963,268.552491 C573.971083,321.323238 573.909431,374.092517 573.717138,426.861796 C573.699523,431.635118 576.481174,432.43801 580.174385,432.904774 C592.96411,434.522302 605.799339,435.89177 618.493651,438.075873 C623.170349,438.881701 624.037872,437.683967 623.974752,433.552079 C623.825028,423.648757 623.926312,413.7425 623.926312,403.836242 C629.824294,414.643736 634.461358,425.765341 638.912,436.961804 C640.05989,439.846053 641.366312,442.077126 644.721908,442.706817 C658.349798,445.26668 671.954202,447.948371 685.571817,450.559607 C689.52778,451.316997 691.37145,450.006242 691.30833,445.59547 C691.18356,437.057212 691.538789,428.511615 691.695853,419.970422 C695.753101,421.496946 699.791266,423.127684 704.281541,422.497993 C707.582826,430.507839 705.502826,438.883169 705.739156,447.073555 C705.881541,452.043564 706.552367,454.914603 712.306495,456.093255 C728.717505,459.450139 744.942092,463.709727 761.306128,467.313203 C773.759706,470.056542 783.92044,466.555813 790.69622,455.192019 C790.762275,468.119032 781.482275,478.152989 767.832367,480.136002 C757.150532,481.687478 747.036771,479.027804 736.836404,476.520783 C729.313468,474.672809 721.991633,471.845804 714.135486,471.484723" id="Fill-5" fill="#042860" sketch:type="MSShapeGroup"></path>
                <path d="M763.500477,355.394511 C758.908917,351.838004 753.771303,348.845137 751.014606,343.38488 C749.985615,341.344622 749.342679,339.029884 750.718092,337.152554 C752.119927,335.238528 754.235156,336.489103 756.089101,336.98082 C762.897174,338.789163 769.694972,340.644476 776.544147,342.285489 C788.344514,345.111026 795.554789,340.858777 799.161394,329.130966 C800.759927,346.338116 787.584147,358.689747 770.700477,355.889163 C768.338642,355.497258 765.901945,355.548631 763.500477,355.394511" id="Fill-7" fill="#042860" sketch:type="MSShapeGroup"></path>
                <path d="M441.414165,633.065338 C485.095633,626.159287 524.257468,611.440076 561.307009,586.526918 C541.374532,583.928892 531.517651,574.344085 528.358752,556.383948 C526.736734,547.164626 526.369761,537.892463 527.825908,528.69369 C528.722789,523.019132 527.265174,522.145785 521.854532,523.273064 C505.838385,526.612334 489.565358,528.45884 473.258569,529.580248 C468.201688,529.928119 467.049394,531.671879 466.416734,536.411441 C462.046826,569.098128 456.518752,601.538222 441.414165,633.065338 M284.454165,613.307132 C285.707743,613.894257 286.936367,614.544497 288.219303,615.058231 C330.190679,631.874943 373.764991,638.265793 418.840954,635.634008 C425.031046,635.272926 428.553982,633.228265 431.265174,627.715167 C445.625541,598.510128 450.669211,566.972737 455.11545,535.240128 C455.82444,530.179115 452.664073,531.161081 449.767927,531.187501 C430.959853,531.351896 412.148844,531.652797 393.342239,531.479596 C388.587743,531.435561 386.808661,532.495321 385.726826,537.472669 C379.795083,564.75781 366.162789,586.824883 340.724257,600.159948 C323.207927,609.342574 304.241321,612.223888 284.454165,613.307132 M461.475817,438.824016 C465.472881,438.932634 469.248294,440.015879 472.956183,441.407364 C472.15178,465.800918 471.457468,490.206214 468.689028,514.476471 C468.131229,519.361347 471.182972,518.27957 473.622606,518.082883 C491.389945,516.642961 509.031046,514.287124 526.540037,510.89648 C529.365725,510.348986 530.698569,509.261338 531.279853,506.400574 C536.737468,479.522016 546.513615,454.023201 556.373431,428.555209 L556.272147,428.625664 L556.854899,428.665295 L557.384807,428.415767 C558.921688,431.596514 558.316917,435.028257 558.002789,438.239827 C557.61967,442.172094 559.536734,443.707424 562.692697,444.699664 C555.150679,464.842437 547.743706,485.02484 543.188844,506.823304 C554.921688,504.583424 565.290862,501.144342 575.519119,497.382342 C601.265908,487.914961 625.568294,475.845149 645.891229,456.908918 C650.478385,457.789604 655.065541,458.671759 659.651229,459.553913 C651.077284,469.4543 640.505541,476.934265 629.594716,483.913707 C604.003523,500.284205 575.969761,510.865656 546.588477,517.99775 C542.15545,519.073656 540.065174,520.654488 539.542606,525.42781 C538.578202,534.224403 537.900037,543.018059 539.150679,551.751536 C542.328661,573.938969 567.243156,583.616248 584.781505,569.205278 C620.706642,539.687596 648.219303,503.655767 666.862972,460.965948 C674.123156,462.413209 681.383339,463.861939 688.643523,465.309201 C669.428844,512.133845 639.981505,551.575398 601.274716,583.88339 C535.347376,638.910162 458.839486,665.474609 373.615266,656.711776 C240.016734,642.974531 149.066275,570.507227 99.709945,445.747682 C94.7484771,433.206703 90.5547156,420.442617 92.5965505,406.589415 C100.370495,405.102523 108.145908,403.612694 115.919853,402.124334 C125.204257,416.723184 136.634716,429.409476 150.008661,440.362282 C151.155083,445.82254 151.102239,451.291604 150.133431,456.768008 C137.693064,447.980222 127.874349,436.318463 116.759486,425.901407 C117.176367,429.183433 118.168661,432.022179 119.146275,434.866797 C142.774899,503.649896 185.662239,556.957862 247.708477,594.886102 C250.675083,596.698849 253.773798,597.940617 257.214532,598.41472 C270.816,600.293518 284.468844,601.084669 298.177468,600.105639 C335.362055,597.450368 361.353982,578.047373 371.893431,545.175742 C376.486459,530.848437 376.47178,531.056866 361.760587,529.966282 C313.494899,526.387759 266.38444,517.34751 221.493431,498.737132 C197.305541,488.707579 174.212697,476.58933 154.001321,459.605287 C159.69233,458.646806 165.384807,457.688325 171.077284,456.729845 C173.39655,458.480943 175.611596,460.394969 178.051229,461.959656 C237.289394,499.945141 303.501505,514.238686 372.473248,519.238051 C376.096,519.500789 377.27178,518.461579 377.233615,514.935896 C377.161688,508.311664 376.300037,501.806325 374.946642,495.350892 C370.57233,474.471278 360.33233,456.161802 349.754716,438.002042 C354.171596,437.905167 358.588477,437.809759 363.005358,437.712883 C363.451596,438.581827 363.861138,439.472789 364.348477,440.318248 C377.922055,463.823776 388.782972,488.215862 388.600954,516.093999 C388.573064,520.363862 391.19178,519.857467 393.878018,520.021862 C412.198752,521.137398 430.500404,519.845724 448.807927,519.828111 C455.447193,519.822239 457.478752,517.544197 457.917651,511.263433 C459.604257,487.138488 461.157284,463.013544 461.475817,438.824016" id="Fill-9" fill="#FCF9FA" sketch:type="MSShapeGroup"></path>
                <path d="M109.539523,290.424785 C103.869064,291.88379 98.1369541,293.143172 92.5428257,294.856107 C86.7270459,296.639498 86.2176881,294.568416 87.1600734,289.32833 C93.9886972,251.4133 106.255853,215.344777 126.841541,182.804871 C195.537321,74.2147339 294.421725,20.0451631 422.870899,28.8065279 C569.815486,38.8302103 685.608514,148.127833 709.860991,293.702408 C702.926679,295.208382 696.767413,298.016305 692.528147,304.032863 C691.066128,301.094305 691.538789,297.879798 691.926312,294.945644 C692.570716,290.068107 690.608147,287.527326 686.19567,286.306107 C678.205945,245.355644 662.24411,207.967558 637.166679,174.614485 C645.448514,209.097773 645.17255,243.261077 636.981725,277.468416 C633.262092,276.916519 629.543927,276.364622 625.825761,275.812725 C636.375486,232.904202 632.845211,191.075987 616.319706,150.200382 C614.451083,145.579712 611.877872,141.65185 608.375486,138.107086 C565.455853,94.664279 514.117872,66.7465107 454.249982,54.7530258 C440.068697,51.9128112 425.700991,49.8769571 410.261725,49.8666824 C430.19567,84.1371373 440.498789,120.577017 447.779523,158.0473 C443.857321,157.675944 439.935119,157.30312 436.014385,156.931764 C430.919339,132.027412 424.102459,107.617712 414.584661,84.0226481 C410.380624,73.6011888 405.295853,63.6186052 398.936954,54.2759871 C396.423927,50.5844421 393.560073,49.3456094 389.203376,49.5144077 C310.992734,52.5395665 244.272734,81.7431373 188.843743,136.971 C185.731817,140.072485 184.751266,143.088837 185.295853,147.341086 C187.126312,161.671326 190.067963,175.718279 194.663927,189.427635 C204.374018,218.387549 219.687046,244.427987 236.332917,269.782957 C233.196037,271.836425 230.060624,273.891361 226.923743,275.944828 C202.085578,238.577292 181.159339,199.508562 174.627229,153.941833 C148.738055,175.989824 115.632734,245.772502 109.539523,290.424785" id="Fill-11" fill="#FCF9FA" sketch:type="MSShapeGroup"></path>
                <path d="M84.6670092,346.708151 C84.6670092,353.305962 84.6332477,359.905241 84.6875596,366.503052 C84.7037064,368.359833 84.3411376,370.859516 87.5382018,370.156434 C93.9719633,368.741464 100.364624,367.131276 106.792514,365.685482 C109.374532,365.105696 109.541872,363.072778 109.552147,361.164623 C109.61233,350.172185 109.662239,339.17828 109.469945,328.188778 C109.409761,324.815748 107.768661,321.885997 104.122422,321.175576 C97.8985688,319.963164 91.7172844,321.651147 86.375633,324.137619 C82.6002202,325.894589 85.016367,331.253567 84.722789,334.983276 C84.416,338.870039 84.6537982,342.797902 84.6670092,346.708151 M46.0233394,463.799851 C46.0233394,456.261173 46.0013211,449.233293 46.0277431,442.206881 C46.1554495,408.977104 46.1980183,375.745859 46.5312294,342.516082 C46.5870092,336.988306 46.535633,334.115799 39.3282936,335.734795 C30.4886606,337.722211 25.0648073,334.243499 22.8394862,327.421112 C21.2468257,322.537705 21.7033394,319.453833 27.7730642,317.79961 C53.9367339,310.668984 80.1106789,303.61028 106.595817,297.759585 C114.679486,295.973258 122.611963,293.291567 131.049394,293.450091 C140.399853,293.627696 144.935633,296.761473 146.545908,305.719524 C149.506642,322.183962 149.550679,338.911138 147.624807,355.403464 C146.030679,369.055576 136.297101,376.604529 123.492697,379.948203 C112.86811,382.723833 102.153982,385.266082 91.3561835,387.228546 C86.0644404,388.189962 84.856367,390.466537 84.9503119,395.50113 C85.2673761,412.369215 84.7257248,429.256383 85.2468257,446.112726 C85.4449908,452.569627 83.3268257,454.979773 77.1925138,456.162829 C67.1565505,458.097404 57.3011376,460.980185 46.0233394,463.799851" id="Fill-13" fill="#F9FBFD" sketch:type="MSShapeGroup"></path>
                <path d="M109.539523,290.424785 C115.632734,245.772502 148.738055,175.989824 174.627229,153.941833 C181.159339,199.508562 202.085578,238.577292 226.920807,275.944828 C224.152367,279.949017 221.385394,283.953206 218.616954,287.957395 C218.521541,283.846056 218.402642,279.734717 218.336587,275.62191 C218.301358,273.342399 218.349798,270.961609 214.99567,271.532588 C198.608147,274.324365 181.938789,275.572004 165.913835,280.377618 C150.763743,282.161009 150.763743,282.161009 149.794936,293.037489 C141.441174,285.391661 131.474202,286.816906 121.587963,288.137936 C117.542459,288.679558 113.554202,289.649781 109.539523,290.424785" id="Fill-15" fill="#EC174C" sketch:type="MSShapeGroup"></path>
                <path d="M745.487413,410.376075 C745.487413,409.887294 745.431633,409.391173 745.494752,408.909731 C747.769982,391.605706 745.221725,377.924238 726.162642,369.874761 C713.76778,364.640547 707.87567,352.054066 708.624294,337.646032 C708.966312,331.057027 708.844477,324.444538 709.189431,317.855534 C709.883743,304.604135 715.89622,299.904203 728.978055,302.980736 C742.522275,306.164418 755.92411,309.952839 769.383193,313.488796 C774.109798,314.730564 778.814385,316.055997 783.549798,317.262538 C788.081174,318.417706 793.048514,319.031251 791.706862,325.809603 C790.48411,331.983216 787.279706,336.178221 780.606679,336.432152 C777.979156,336.531963 775.26356,335.946306 772.681541,335.301937 C764.151633,333.178015 755.614385,331.054092 747.182826,328.577894 C743.397138,327.466761 742.870165,328.599912 742.586862,332.168161 C741.883743,341.014658 744.925211,348.039603 751.793468,353.350143 C758.554569,358.578487 765.516771,363.552899 772.471633,368.524375 C780.204477,374.052152 783.913835,381.140212 783.661358,390.974547 C783.20778,408.567731 782.996404,426.216693 783.906495,443.779053 C784.559706,456.397826 775.858055,464.519225 762.046679,461.767079 C751.759706,459.716547 741.634202,456.858718 731.436771,454.359036 C726.930349,453.253774 722.473835,451.816787 717.904294,451.134255 C713.92778,450.539791 712.834202,448.762272 712.757872,444.866701 C712.493651,431.384856 712.32778,431.423019 725.390532,434.429096 C731.783193,435.899843 740.653651,440.398684 744.026862,437.813869 C748.583193,434.324882 745.080807,425.153997 745.550532,418.443165 C745.736954,415.765877 745.581358,413.065105 745.581358,410.376075 L745.487413,410.376075" id="Fill-17" fill="#F9FBFD" sketch:type="MSShapeGroup"></path>
                <path d="M149.795229,293.037049 C150.764037,282.162036 150.764037,282.162036 165.914128,280.377178 C165.936147,283.067676 165.97578,285.756706 165.978716,288.445736 C166.012477,337.593924 166.121101,386.743581 165.966972,435.89177 C165.949358,441.666139 166.868257,443.280731 173.230092,442.052173 C187.794495,439.238379 202.579083,437.560671 217.274128,435.42207 C217.382752,436.863461 217.378349,438.323933 217.617615,439.743306 C218.877064,447.199787 216.066055,450.192654 208.227523,450.923624 C195.772477,452.08613 183.453945,454.717916 171.078165,456.728817 C165.385688,457.687298 159.693211,458.647246 154.000734,459.605727 C151.91633,459.745169 150.44844,459.04062 150.132844,456.76698 C151.101651,451.290577 151.154495,445.821512 150.009541,440.362723 C150.10789,426.110276 150.342752,411.856362 150.231193,397.603916 C150.190092,392.515015 151.078165,387.285203 149.563303,381.772105 C138.413211,393.394233 136.581284,394.489221 115.920734,402.124774 C108.145321,403.613135 100.371376,405.101495 92.5974312,406.589856 C92.5299083,404.884259 92.6297248,403.152242 92.3611009,401.480405 C91.3511927,395.170285 93.8143119,392.299246 100.311193,391.35104 C108.217248,390.198809 115.973578,387.95159 123.751927,386.005272 C144.352294,380.850319 155.625688,366.608148 155.555229,345.392405 C155.512661,332.26577 156.444771,319.125924 154.394128,306.000757 C153.64844,301.228903 151.30422,297.356817 149.795229,293.037049" id="Fill-19" fill="#042860" sketch:type="MSShapeGroup"></path>
                <path d="M692.524477,304.036532 C696.768147,298.017039 702.925945,295.209116 709.861725,293.701674 L719.005211,293.701674 C717.384661,294.853906 716.744661,295.621571 715.962275,295.818258 C707.198972,298.011167 703.275303,303.553622 702.632367,312.593871 C701.682642,325.949485 699.303193,339.468026 704.045945,352.346601 C708.994202,365.78588 719.662826,374.470918 732.175119,380.731133 C736.721174,383.00624 738.582459,385.890489 738.434202,390.998472 C738.118606,401.968893 738.528147,412.959863 738.183193,423.927348 C738.114202,426.133468 740.66833,431.119622 735.797872,430.478189 C731.452917,429.905742 724.434936,431.281082 723.953468,423.70424 C723.52044,416.899468 723.404477,410.008094 723.969615,403.223871 C724.525945,396.540927 722.655853,391.97897 716.180991,389.486627 C714.192,388.720429 712.50833,387.15721 710.683743,385.959476 C703.44411,380.117588 697.066128,373.515373 692.496587,365.326455 C691.223927,362.882549 691.204844,360.249296 691.212183,357.569073 C691.251817,342.306773 691.245945,327.044472 691.218055,311.782172 C691.212183,309.112223 691.125578,306.456953 692.524477,304.036532" id="Fill-21" fill="#042860" sketch:type="MSShapeGroup"></path>
                <path d="M692.493211,365.321611 C697.065688,373.514933 703.445138,380.117148 710.684771,385.960504 C709.67633,398.33562 706.125505,410.265989 704.283303,422.497259 C699.790092,423.128418 695.753394,421.49768 691.696147,419.972624 C691.72844,417.05168 691.722569,414.1278 691.800367,411.206856 C692.209908,395.913731 690.922569,380.595654 692.493211,365.321611" id="Fill-23" fill="#FCF9FA" sketch:type="MSShapeGroup"></path>
                <path d="M236.333505,269.783104 C219.686165,244.428134 204.374606,218.386228 194.664514,189.427782 C190.06855,175.718426 187.125431,161.671473 185.294972,147.341233 C184.751853,143.088984 185.732404,140.071164 188.84433,136.971147 C244.273321,81.7432841 310.991853,52.5397133 389.202495,49.5145545 C393.559193,49.3457562 396.424514,50.583121 398.937541,54.2761339 C405.29644,63.6187519 410.381211,73.6013356 414.585248,84.0227948 C424.101578,107.617859 430.918459,132.026091 436.013505,156.931911 C425.647266,157.077224 415.281028,157.224005 404.913321,157.369318 C403.521761,157.458855 402.128734,157.546924 400.735706,157.63646 C384.075156,156.209748 367.507083,158.148726 350.908183,158.997121 L346.369468,159.691396 C331.389651,159.9967 316.487633,161.068203 301.785248,164.146203 C297.129101,163.862915 292.66378,165.680065 288.205798,165.889962 C266.165431,166.926237 244.888367,172.409979 223.304514,176.100057 C219.379376,176.770846 217.911486,178.846331 217.760294,182.455679 C217.51956,188.216838 219.885798,192.570366 225.318459,194.522555 C228.511119,195.670383 229.077725,197.411207 229.017541,200.455447 C228.707817,216.064151 228.957358,231.691936 228.254239,247.278623 C228.01644,252.542194 229.594422,253.099962 233.886532,252.319087 C244.913321,250.311121 255.948917,248.323705 267.025615,246.618108 C275.06378,245.380743 282.902312,243.949627 289.399193,236.033722 C288.487633,241.919645 289.912954,243.267095 294.71589,242.666761 C308.499376,240.94355 322.365064,239.808932 336.223413,238.775593 C341.46378,238.385155 344.387817,236.635524 343.602495,230.955095 C347.399927,226.710185 346.249101,221.251396 344.853138,217.209044 C343.57167,213.499885 338.384147,216.310743 334.944881,216.096443 C333.027817,215.976082 331.060844,216.461928 329.133505,216.777507 C325.704514,217.341147 325.515156,215.356666 325.93644,212.837902 C331.305982,212.117207 338.723229,214.258743 337.625248,204.486057 C341.419743,200.100237 338.914055,194.835198 339.639193,190.020778 C340.323229,185.470563 337.912954,184.99646 334.052404,185.131499 C331.483596,185.222503 327.854972,188.770203 326.119927,183.700383 C332.412771,183.078031 338.733505,182.661173 344.986716,181.770211 C350.378275,181.001078 352.07222,182.257524 351.739009,188.284357 C350.919927,203.082829 351.247266,217.941482 350.897908,232.770778 C350.805431,236.653138 352.034055,237.85234 355.937174,237.516211 C363.19589,236.892391 370.514789,236.299396 377.77644,236.568005 C383.527633,236.77937 385.742679,234.656915 385.33167,229.190786 C388.853138,227.78022 387.463046,224.646443 387.523229,222.252443 C387.893138,207.512683 388.061945,192.765585 388.296807,178.021421 C391.291303,176.522786 393.515156,175.511464 393.306716,180.782374 C392.757725,194.689885 392.596257,208.615009 392.42011,222.534263 C392.249835,236.136469 392.365798,236.773499 406.134606,235.914829 C413.231853,235.47155 421.659009,240.429816 427.577541,232.268786 C427.694972,232.107327 428.920661,232.525653 429.449101,232.917559 C435.718459,237.576391 443.078459,237.808306 450.413505,238.157645 C451.53644,247.964091 452.659376,257.76907 453.782312,267.575516 C450.447266,269.943095 447.110752,272.310675 443.775706,274.678254 C444.147083,271.048357 444.474422,267.411121 444.90011,263.785627 C445.369835,259.790245 443.941578,258.21822 439.653872,258.212348 C406.212404,258.17125 372.762128,257.31258 339.366165,259.945833 C335.896073,260.029499 332.42745,260.111696 328.95589,260.192426 C303.016807,261.560426 277.121761,263.396658 251.401394,267.173336 C246.137541,266.652263 241.336073,268.796735 236.333505,269.783104" id="Fill-25" fill="#EC174C" sketch:type="MSShapeGroup"></path>
                <path d="M447.78011,158.047447 C440.499376,120.575696 430.196257,84.1372841 410.262312,49.8668292 C425.701578,49.8771039 440.069284,51.9129579 454.249101,54.7531725 C514.118459,66.7466575 565.454972,94.6644258 608.376073,138.107233 C611.878459,141.651997 614.45167,145.579859 616.320294,150.200529 C632.845798,191.076134 636.376073,232.904348 625.827817,275.812872 C625.080661,278.760237 624.332037,281.707602 623.581945,284.653499 C622.501578,284.219027 621.225982,284.019404 620.367266,283.314855 C606.881761,272.244623 591.150385,268.297679 574.06855,268.553078 C572.622679,268.467945 571.176807,268.299147 569.730936,268.312357 C558.592587,268.4107 558.592587,268.422443 557.761761,279.103705 C550.626349,269.112314 540.49644,264.478434 528.704881,262.587894 C507.053505,259.115052 485.479927,257.892366 464.050202,263.995524 C464.605064,254.523739 462.183046,245.32937 461.440294,235.980881 C478.23589,241.234177 495.002128,243.500477 512.141211,234.995979 C510.674789,241.53361 514.328367,242.863447 519.207633,243.331679 C525.007266,243.886512 530.971303,244.06852 536.509651,245.653756 C544.103046,247.827585 546.636624,245.186992 546.086165,237.95949 C549.002862,236.428563 547.645064,233.695499 547.728734,231.50846 C548.238092,218.287885 548.578642,205.059971 548.97644,191.833524 C553.682495,191.623627 553.592954,194.6664 553.54011,198.111353 C553.312587,212.936245 553.409468,227.767009 553.042495,242.587499 C552.935339,246.924881 554.426716,248.648091 558.608734,249.192649 C565.102679,250.03664 571.530569,251.387027 577.995156,252.467336 C586.82011,253.941018 586.823046,253.917533 587.134239,245.131215 C590.695339,244.122829 589.259743,241.169593 589.318459,239.013379 C589.705982,224.881293 589.933505,210.744803 590.213872,196.609782 C593.522495,195.127293 597.422679,194.271559 597.686899,189.561353 L597.525431,189.482091 C598.930202,189.73749 598.856807,188.727636 598.930202,187.842546 C604.437725,178.893301 603.739009,177.030649 593.744147,175.119559 C582.573505,172.985361 571.385248,170.92749 560.158826,169.117679 C557.513688,168.692014 554.428183,167.13173 551.991486,169.970477 C551.192954,169.944057 550.394422,169.917636 549.594422,169.891215 C541.720661,164.400134 532.925064,164.464718 523.944514,165.641902 C519.389651,165.112022 514.633688,165.242658 510.313688,163.934838 C492.734239,158.61549 475.493872,158.79016 458.434055,165.837121 C456.74011,160.699782 452.455339,159.107207 447.78011,158.047447" id="Fill-27" fill="#EC174C" sketch:type="MSShapeGroup"></path>
                <path d="M461.47655,438.823576 C461.158018,463.013104 459.604991,487.138048 457.918385,511.26446 C457.479486,517.543756 455.446459,519.823267 448.808661,519.829138 C430.501138,519.845284 412.198018,521.136958 393.878752,520.021421 C391.192514,519.858494 388.57233,520.363421 388.60022,516.093559 C388.782239,488.215421 377.922789,463.823336 364.349211,440.319276 C363.860404,439.473816 363.45233,438.582855 363.00756,437.712443 C376.924624,437.556855 390.84022,437.361636 404.757284,437.25155 C420.393248,437.128254 420.393248,437.162014 418.926826,421.199567 C419.092697,418.040838 419.389211,414.882108 419.402422,411.723379 C419.553615,376.76452 419.660771,341.805662 419.781138,306.846803 C424.211229,306.661859 426.602422,302.47713 430.562789,301.123808 C430.562789,330.280409 431.427376,359.238855 430.298569,388.119507 C429.338569,412.715619 437.213798,430.436503 461.47655,438.823576" id="Fill-29" fill="#EC174C" sketch:type="MSShapeGroup"></path>
                <path d="M666.863266,460.966094 C648.219596,503.655914 620.706936,539.686275 584.781798,569.205425 C567.24345,583.616395 542.328954,573.939116 539.150972,551.751682 C537.898862,543.018206 538.578495,534.224549 539.542899,525.427957 C540.065468,520.654635 542.155743,519.073803 546.587303,517.997897 C575.970055,510.865803 604.003817,500.284352 629.595009,483.912386 C640.505835,476.932944 651.077578,469.454446 659.651523,459.55406 C662.154275,459.526172 664.601248,459.769828 666.863266,460.966094" id="Fill-31" fill="#EC174C" sketch:type="MSShapeGroup"></path>
                <path d="M556.373725,428.555356 C546.513908,454.023348 536.737761,479.522163 531.278679,506.400721 C530.698862,509.260017 529.366018,510.347665 526.54033,510.895159 C509.031339,514.28727 491.388771,516.643107 473.622899,518.081562 C471.183266,518.279717 468.131523,519.361494 468.689321,514.476618 C471.457761,490.206361 472.152073,465.801064 472.956477,441.407511 C490.469872,442.746155 507.914275,444.632292 525.556844,442.150223 C537.301431,440.498936 546.88822,434.85667 556.373725,428.555356" id="Fill-33" fill="#EC174C" sketch:type="MSShapeGroup"></path>
                <path d="M646.355229,351.651299 C645.886972,351.721754 645.418716,351.792209 644.950459,351.862664 C640.524771,338.30596 636.304587,324.678801 631.629358,311.208698 C624.126972,289.596646 608.45578,278.209367 586.02789,275.336861 C581.790092,274.795239 580.375046,275.824174 580.385321,280.171831 C580.491009,327.354621 580.479266,374.538878 580.398532,421.723136 C580.391193,425.398535 581.633028,426.851668 585.361468,427.23917 C593.373211,428.069951 601.44367,428.906603 609.282202,430.667977 C615.432661,432.049187 617.238165,430.899891 617.073761,424.309419 C616.621651,406.132045 616.918165,387.937058 616.918165,369.692166 C619.692477,369.871239 619.362202,371.786732 619.856881,372.985934 C627.771743,392.162887 635.710092,411.3325 643.450275,430.579908 C645.125138,434.745556 647.065688,437.280466 652.129908,437.849977 C660.350092,438.77323 668.537982,440.497908 676.552661,442.59541 C682.449174,444.13808 683.964037,442.771548 683.925872,436.6405 C683.671927,396.303582 683.856881,355.965196 683.73945,315.626809 C683.717431,308.111616 686.863119,298.529745 682.394862,293.662483 C678.355229,289.260518 668.835963,289.822689 661.703486,288.3402 C646.362569,285.152114 646.355229,285.190277 646.355229,300.771093 L646.355229,351.651299 Z M574.067523,268.552638 C591.150826,268.298706 606.882202,272.244183 620.367706,283.314415 C621.226422,284.020432 622.50055,284.218586 623.583853,284.653058 C628.818349,292.532269 634.775046,299.930037 638.058716,309.112664 C638.600367,308.827908 639.143486,308.543153 639.686606,308.258397 L639.686606,278.561642 C642.562202,278.928595 645.439266,279.283805 648.313394,279.665436 C661.032661,281.35929 673.348257,285.348801 686.196697,286.305814 C690.607706,287.527033 692.571743,290.067814 691.925872,294.94535 C691.538349,297.879505 691.067156,301.094011 692.527706,304.032569 C691.125872,306.457393 691.212477,309.111196 691.218349,311.782612 C691.246239,327.044912 691.25211,342.307213 691.212477,357.569513 C691.205138,360.249736 691.22422,362.88299 692.496881,365.326895 C690.921835,380.596535 692.209174,395.914612 691.801101,411.206269 C691.721835,414.127213 691.729174,417.051093 691.695413,419.972037 C691.538349,428.511762 691.184587,437.057359 691.30789,445.595616 C691.372477,450.006389 689.527339,451.317144 685.571376,450.559754 C671.953761,447.948518 658.349358,445.266827 644.721468,442.706964 C641.365872,442.077273 640.05945,439.8462 638.913028,436.961951 C634.460917,425.765488 629.823853,414.643882 623.925872,403.836389 C623.925872,413.742646 623.824587,423.648904 623.974312,433.552226 C624.037431,437.684114 623.171376,438.88038 618.493211,438.07602 C605.800367,435.891917 592.96367,434.522449 580.175413,432.904921 C576.480734,432.436689 573.699083,431.635264 573.716697,426.861942 C573.908991,374.092664 573.970642,321.321917 574.067523,268.552638 L574.067523,268.552638 Z" id="Fill-35" fill="#046DB7" sketch:type="MSShapeGroup"></path>
                <path d="M555.249615,347.253883 L555.057321,347.253883 C555.057321,330.636793 555.333284,314.013832 554.964844,297.404081 C554.69622,285.290235 549.140257,275.960827 537.066862,272.5056 C517.370716,266.869205 497.17255,265.008021 476.939156,268.906527 C461.540991,271.874441 453.536587,281.798312 453.426495,297.220604 C453.196037,328.979634 453.29145,360.7416 453.369248,392.502098 C453.394202,402.828149 458.103193,410.745523 467.882275,414.12736 C491.005945,422.125463 514.749064,423.754733 538.511266,417.531214 C550.768147,414.319643 555.180624,407.183145 555.234936,394.178338 C555.298055,378.537342 555.249615,362.894879 555.249615,347.253883 M464.049615,263.995231 C485.479339,257.892072 507.054385,259.114759 528.704294,262.5876 C540.495853,264.479609 550.625761,269.112021 557.762642,279.103411 C561.585028,287.489016 562.524477,296.298819 562.454018,305.462364 C562.232367,334.304853 561.601174,363.176699 562.61255,391.985428 C563.443376,415.639205 549.065394,424.039488 531.361174,427.014742 C512.077505,430.254201 492.927413,428.344579 474.054752,424.112879 C457.176954,420.328862 445.401541,409.665214 445.965211,388.788536 C446.756404,359.476347 446.305761,330.127463 446.103193,300.796192 C446.00778,287.089772 449.20044,275.190227 461.335486,267.134879 C462.023927,266.67839 462.21622,265.473317 462.634569,264.617583 C463.104294,264.410621 463.576954,264.20366 464.049615,263.995231" id="Fill-37" fill="#046DB7" sketch:type="MSShapeGroup"></path>
                <path d="M645.891523,456.90833 C625.567119,475.84603 601.264734,487.914373 575.519413,497.383223 C565.291156,501.143755 554.921982,504.584305 543.189138,506.824185 C547.744,485.024253 555.150972,464.84185 562.692991,444.700545 C586.133725,446.015704 609.137028,450.552708 632.259229,454.204622 C636.831706,454.926785 641.348404,455.998288 645.891523,456.90833" id="Fill-39" fill="#EC174C" sketch:type="MSShapeGroup"></path>
                <path d="M373.328,351.1747 C373.328,370.498434 373.457174,389.823636 373.236991,409.145902 C373.182679,413.983808 374.054606,416.153233 379.622312,415.751052 C387.898275,415.153653 396.269651,415.14925 404.554422,415.643902 C410.569835,416.003516 412.343046,414.297919 412.293138,408.0744 C411.986349,369.918649 412.212404,331.758494 412.052404,293.599808 C412.031853,288.538795 412.541211,286.005353 418.801761,285.663353 C429.499743,285.079164 436.591119,277.988168 437.53644,269.225336 C437.89167,265.921293 437.226716,264.25973 433.419009,264.258263 C406.028183,264.24652 378.634422,263.706366 351.264147,265.347379 C348.454606,265.514709 346.188183,265.962391 346.812037,269.388263 C347.898275,275.351979 344.093505,281.938048 348.95956,287.292623 C349.615706,288.014786 351.777908,287.418855 353.238459,287.3484 C357.879927,287.128228 362.549284,287.116486 367.149651,286.552846 C371.942312,285.965722 373.504147,287.503988 373.436624,292.471061 C373.170936,312.035516 373.326532,331.605842 373.328,351.1747 M419.780844,306.846803 C419.661945,341.805662 419.553321,376.76452 419.402128,411.723379 C419.388917,414.882108 419.092404,418.040838 418.928,421.1981 C404.793688,421.413868 390.624147,421.11737 376.532404,422.021542 C366.759193,422.648297 366.800294,423.386606 366.800294,413.493559 C366.797358,375.917593 366.688734,338.341627 366.916257,300.76713 C366.950018,295.07349 365.512954,292.701507 359.557725,293.360555 C354.972037,293.868417 350.26745,293.265147 345.66855,293.711361 C340.34745,294.226563 338.950018,292.005765 339.149651,287.022546 C339.509284,278.008718 339.325798,268.972872 339.368367,259.945833 C372.762862,257.31258 406.213138,258.17125 439.653138,258.212348 C443.942312,258.21822 445.369101,259.790245 444.899376,263.785627 C444.473688,267.411121 444.147817,271.048357 443.77644,274.678254 C439.807266,282.917078 434.208734,289.253619 424.652771,290.869679 C420.897908,291.505241 419.265615,293.5044 419.613505,297.391164 C419.893872,300.523473 419.741211,303.693945 419.780844,306.846803" id="Fill-41" fill="#046DB7" sketch:type="MSShapeGroup"></path>
                <path d="M464.049761,263.995818 C463.577101,264.202779 463.10444,264.411209 462.634716,264.616702 C459.687193,265.601603 456.733798,266.58944 453.781872,267.575809 C452.660404,257.769363 451.537468,247.964385 450.414532,238.157938 C452.328661,237.579621 455.735633,239.289621 456.061505,236.819294 C457.068477,229.19108 459.51545,235.104891 461.439853,235.978239 C462.184073,245.329664 464.604624,254.524033 464.049761,263.995818" id="Fill-43" fill="#FCF9FA" sketch:type="MSShapeGroup"></path>
                <path d="M557.38422,428.416061 L556.85578,428.665589 L556.273028,428.625958 C556.402202,428.323589 556.531376,428.02122 556.662018,427.718851 C556.902752,427.952233 557.143486,428.184147 557.38422,428.416061" id="Fill-45" fill="#EC174C" sketch:type="MSShapeGroup"></path>
                <path d="M150.133284,456.767421 C150.448881,459.04106 151.915303,459.744142 154.001174,459.6047 C174.21255,476.588742 197.305394,488.708459 221.493284,498.736545 C266.384294,517.348391 313.494752,526.387172 361.76044,529.965695 C376.471633,531.057747 376.486312,530.84785 371.893284,545.175155 C361.353835,578.046785 335.363376,597.449781 298.178789,600.106519 C284.468697,601.085549 270.815853,600.294399 257.214385,598.415601 C253.773651,597.94003 250.674936,596.698262 247.70833,594.885515 C185.662092,556.957275 142.77622,503.649309 119.146128,434.86621 C118.168514,432.021592 117.17622,429.182845 116.759339,425.902288 C127.874202,436.317876 137.692917,447.979635 150.133284,456.767421" id="Fill-47" fill="#EC174C" sketch:type="MSShapeGroup"></path>
                <path d="M171.077431,456.729258 C183.453211,454.718356 195.771743,452.085103 208.228257,450.924064 C216.066789,450.193094 218.87633,447.19876 217.618349,439.743747 C217.377615,438.324373 217.382018,436.863901 217.274862,435.426914 C219.012844,433.019704 218.36844,430.241137 218.377248,427.606416 C218.465321,399.257112 218.499083,370.907807 218.547523,342.55997 C225.976514,353.823953 235.924404,361.527026 249.374679,364.170554 C252.762569,364.83694 252.582018,367.273506 252.571743,369.761446 C252.526239,379.534133 252.495413,389.30682 252.460183,399.079506 C247.093578,399.8413 241.725505,400.601627 236.358899,401.361953 C233.213211,401.676064 230.071927,402.207412 226.921835,402.254382 C221.337982,402.336579 219.652844,404.821584 219.92,410.415412 C220.444037,421.36088 220.401468,432.356253 220.056514,443.313464 C219.889174,448.603455 221.886972,449.397541 226.482936,448.644554 C233.690275,447.462966 241.001835,446.931618 248.228257,445.85718 C263.378349,443.607026 278.961468,444.298365 293.719633,439.456056 C312.245872,433.376382 321.633028,420.447901 321.268991,401.934399 C321.489174,400.967112 321.709358,399.999824 321.929541,399.032536 C330.488807,410.654665 339.048073,422.275326 347.607339,433.897455 C347.773211,435.553146 347.513394,437.431944 349.754862,438.002923 C360.332477,456.161215 370.572477,474.470691 374.946789,495.350305 C376.298716,501.807206 377.160367,508.312545 377.233761,514.936777 C377.271927,518.460991 376.096147,519.500202 372.471927,519.237464 C303.501651,514.239567 237.289541,499.944554 178.051376,461.959069 C175.611743,460.394382 173.396697,458.480356 171.077431,456.729258" id="Fill-49" fill="#EC174C" sketch:type="MSShapeGroup"></path>
                <path d="M284.454312,613.307279 C304.241468,612.224034 323.208073,609.342721 340.724404,600.160094 C366.162936,586.82503 379.795229,564.757957 385.725505,537.472815 C386.808807,532.495468 388.58789,531.435708 393.342385,531.479742 C412.148991,531.652944 430.958532,531.352043 449.768073,531.187648 C452.662752,531.161227 455.824587,530.179262 455.115596,535.240275 C450.669358,566.971416 445.625688,598.510275 431.265321,627.713845 C428.554128,633.228412 425.031193,635.271605 418.841101,635.634155 C373.765138,638.26594 330.190826,631.87509 288.21945,615.058378 C286.936514,614.544644 285.70789,613.894403 284.454312,613.307279" id="Fill-51" fill="#EC174C" sketch:type="MSShapeGroup"></path>
                <path d="M441.414165,633.065338 C456.518752,601.538222 462.046826,569.098128 466.416734,536.411441 C467.049394,531.671879 468.201688,529.928119 473.258569,529.580248 C489.565358,528.45884 505.838385,526.612334 521.854532,523.273064 C527.265174,522.145785 528.722789,523.019132 527.825908,528.69369 C526.369761,537.892463 526.736734,547.164626 528.358752,556.383948 C531.517651,574.344085 541.374532,583.928892 561.307009,586.526918 C524.257468,611.440076 485.095633,626.159287 441.414165,633.065338" id="Fill-53" fill="#EC174C" sketch:type="MSShapeGroup"></path>
                <path d="M349.75545,438.002336 C347.513982,437.431357 347.773798,435.552559 347.606459,433.898336 C347.587376,427.186035 347.568294,420.473735 347.550679,413.761434 C347.602055,384.239348 347.662239,354.717263 347.700404,325.195177 C347.720954,309.309057 347.693064,309.163743 332.045358,310.273409 C325.846459,310.713752 319.817835,311.773512 320.432881,301.711666 C312.355083,309.033108 303.467009,311.152627 294.038752,311.739752 C290.109211,311.092447 286.438018,309.667203 283.425908,307.114679 C281.103706,305.146344 279.825174,302.322276 280.783706,299.220791 C281.717284,296.204439 284.550312,296.747529 286.94444,296.544971 C292.032147,296.11637 297.100771,295.380997 302.194349,295.152018 C322.639119,294.228765 333.592514,279.9954 328.958385,260.19316 C332.427009,260.110962 335.895633,260.028765 339.367193,259.946567 C339.326092,268.972138 339.509578,278.007984 339.149945,287.021812 C338.950312,292.005031 340.347743,294.225829 345.668844,293.710627 C350.267743,293.265881 354.97233,293.867683 359.558018,293.359821 C365.513248,292.700773 366.950312,295.072756 366.91655,300.766396 C366.689028,338.340894 366.796183,375.916859 366.799119,413.492825 C366.800587,423.385872 366.759486,422.647563 376.532697,422.020808 C390.62444,421.118104 404.792514,421.413134 418.928294,421.198833 C420.393248,437.16128 420.393248,437.128988 404.757284,437.252284 C390.841688,437.36237 376.924624,437.556121 363.00756,437.713177 C358.589211,437.808585 354.17233,437.90546 349.75545,438.002336" id="Fill-55" fill="#042860" sketch:type="MSShapeGroup"></path>
                <path d="M115.920587,402.124921 C136.581138,394.489367 138.413064,393.39438 149.563156,381.772252 C151.078018,387.28535 150.191413,392.515161 150.231046,397.604063 C150.342606,411.856509 150.107743,426.110423 150.009394,440.36287 C136.633982,429.410063 125.204991,416.723771 115.920587,402.124921" id="Fill-57" fill="#EC174C" sketch:type="MSShapeGroup"></path>
                <path d="M686.195963,286.306401 C673.347523,285.349388 661.031927,281.358409 648.314128,279.666023 C645.44,279.282924 642.561468,278.929182 639.690275,278.562229 C638.790459,278.196744 637.886239,277.832727 636.98055,277.46871 C645.172844,243.261371 645.448807,209.096598 637.166972,174.614779 C662.244404,207.967852 678.206239,245.355937 686.195963,286.306401" id="Fill-59" fill="#EC174C" sketch:type="MSShapeGroup"></path>
                <path d="M252.46033,399.080094 C252.49556,389.307407 252.526385,379.533252 252.57189,369.760566 C252.582165,367.274094 252.762716,364.837527 249.374826,364.171141 C235.92455,361.527613 225.976661,353.82454 218.54767,342.562025 C218.571156,324.362634 218.594642,306.160308 218.618128,287.957982 C221.385101,283.953793 224.152073,279.949604 226.921982,275.945415 C230.06033,273.89048 233.197211,271.837012 236.332624,269.783544 C241.336661,268.797175 246.138128,266.652703 251.397578,267.175244 C247.241982,270.493965 241.804917,271.85169 238.399413,276.407776 C230.581431,286.868866 229.047486,322.334119 236.074275,333.474806 C242.179229,343.155021 251.840881,347.147467 262.308404,348.926454 C267.905468,349.877596 268.916844,352.312694 268.783266,357.157939 C268.541064,365.936918 268.749505,374.727639 268.765651,383.512488 C268.789138,396.191441 268.786202,396.187038 256.736294,398.252248 C255.306569,398.49884 253.885651,398.802677 252.46033,399.080094" id="Fill-61" fill="#042860" sketch:type="MSShapeGroup"></path>
                <path d="M447.78011,158.047447 C452.455339,159.107207 456.74011,160.699782 458.431119,165.832718 C458.790752,168.702288 459.413138,171.570391 459.464514,174.448769 C459.596624,181.919928 457.496073,189.477688 457.443229,196.526117 C457.381578,205.040889 457.744147,213.877112 458.083229,222.557748 C458.175706,224.934134 459.297174,229.711859 456.55956,229.419765 C452.013505,228.936855 445.744147,232.077971 442.890569,225.400898 C444.066349,225.713542 445.240661,226.027653 446.41644,226.337361 C455.054972,228.613936 455.496807,228.530271 455.141578,219.958254 C454.825982,212.321233 457.688367,204.293773 452.84433,197.100031 C452.188183,196.125404 452.575706,195.293155 453.19222,194.484391 C458.337174,187.728057 456.320294,179.906091 456.057541,172.520065 C455.730202,163.28313 452.665248,160.567679 443.25167,160.230082 C433.490202,159.877808 423.699376,160.215404 413.948183,159.709009 C408.819376,159.443336 408.004697,161.514417 408.019376,166.016194 C408.073688,181.887636 407.744881,197.760546 407.527633,213.631988 C407.358826,225.89555 407.336807,225.656297 419.950385,225.692992 C424.594789,225.706203 425.882128,224.203164 425.65167,219.811473 C425.371303,214.456898 425.504881,209.056821 425.86745,203.703713 C426.02745,201.33907 423.918092,197.079482 429.255339,197.516889 C433.365431,197.854486 438.052404,197.847147 438.645431,203.530512 C439.024147,207.160409 439.025615,210.859293 438.842128,214.509739 C438.633688,218.672452 439.857908,222.173181 442.641028,225.196872 C436.819376,227.005215 436.682862,222.093919 436.119193,218.968949 C435.391119,214.932469 435.799193,210.684623 435.796257,206.527782 C435.794789,203.242821 434.727633,200.186838 431.201761,200.216194 C427.423413,200.248486 429.170202,203.847559 428.831119,205.968546 C428.602128,207.402597 428.750385,208.896829 428.728367,210.36464 C428.46855,227.841868 428.464147,227.565919 410.921394,227.833061 C404.944147,227.924065 403.209101,226.07022 403.684697,220.35016 C405.427083,199.391284 405.007266,178.373696 404.913321,157.369318 C415.281028,157.224005 425.647266,157.077224 436.013505,156.931911 C439.935706,157.303267 443.857908,157.676091 447.78011,158.047447" id="Fill-63" fill="#046DB7" sketch:type="MSShapeGroup"></path>
                <path d="M636.981138,277.468563 C637.885358,277.83258 638.789578,278.196597 639.690862,278.562082 C639.686459,288.461001 639.686459,298.359919 639.686459,308.25737 C639.143339,308.542125 638.60022,308.826881 638.058569,309.113104 C634.774899,299.930477 628.818202,292.532709 623.583706,284.653499 C624.33233,281.707602 625.080954,278.760237 625.82811,275.812872 C629.543339,276.364769 633.262972,276.916666 636.981138,277.468563" id="Fill-65" fill="#042860" sketch:type="MSShapeGroup"></path>
                <path d="M91.2218716,345.133336 L91.1925138,345.133336 C91.1925138,349.517688 91.2585688,353.90204 91.1719633,358.284924 C91.0985688,361.970598 92.7337982,362.923208 96.2038899,362.148203 C100.319853,361.229354 103.227743,360.025748 102.793248,354.701997 C102.260404,348.170238 102.752147,341.559216 102.593615,334.987826 C102.511413,331.534066 103.513982,327.142375 97.5543486,327.371354 C92.5752661,327.562169 90.709578,330.025156 91.1616881,334.910032 C91.4743486,338.290401 91.2218716,341.723611 91.2218716,345.133336 M84.6604037,346.708298 C84.6545321,342.798049 84.4152661,338.868718 84.722055,334.983422 C85.0171009,331.253714 82.5994862,325.894736 86.376367,324.137766 C91.7180183,321.651294 97.8978349,319.963311 104.121688,321.175723 C107.769394,321.886143 109.410495,324.815894 109.469211,328.188924 C109.661505,339.178427 109.611596,350.172332 109.551413,361.16477 C109.541138,363.072924 109.373798,365.105843 106.793248,365.685628 C100.36389,367.131422 93.9726972,368.741611 87.5374679,370.156581 C84.3404037,370.859663 84.7029725,368.35998 84.6882936,366.503199 C84.6339817,359.905388 84.6662752,353.306109 84.6604037,346.708298" id="Fill-67" fill="#046DB7" sketch:type="MSShapeGroup"></path>
                <path d="M173.37233,359.638393 L173.545541,359.638393 C173.545541,382.850359 173.635083,406.062324 173.469211,429.272822 C173.43545,433.84799 173.985908,435.863294 179.446459,434.649415 C188.242055,432.695758 197.222606,431.484814 206.173798,430.34726 C209.730495,429.895174 211.214532,428.842754 211.204257,424.997088 C211.094165,377.840719 211.073615,330.68435 211.223339,283.529449 C211.238018,278.74732 209.215266,278.377432 205.441321,279.037947 C196.789578,280.552728 188.140771,282.220161 179.418569,283.163964 C174.254532,283.721732 173.229945,286.024728 173.27545,290.742273 C173.491229,313.706179 173.37233,336.67302 173.37233,359.638393 M218.617101,287.957835 C218.593615,306.160161 218.571596,324.362488 218.54811,342.563346 C218.49967,370.908247 218.46444,399.257552 218.376367,427.606857 C218.369028,430.241578 219.013431,433.020144 217.273982,435.427355 C202.578936,437.560084 187.794349,439.237792 173.229945,442.051586 C166.86811,443.280144 165.949211,441.66702 165.966826,435.891183 C166.120954,386.742994 166.01233,337.594805 165.978569,288.446616 C165.975633,285.756118 165.936,283.067088 165.913982,280.378058 C181.938936,275.570977 198.608294,274.324805 214.995817,271.533028 C218.348477,270.96205 218.301505,273.341372 218.336734,275.62235 C218.402789,279.735157 218.521688,283.846496 218.617101,287.957835" id="Fill-69" fill="#046DB7" sketch:type="MSShapeGroup"></path>
                <path d="M243.752661,415.705697 C245.239633,418.117311 240.285505,424.820804 246.98055,424.088367 C263.463486,422.287362 280.217982,422.009946 296.348624,417.835491 C308.88,414.591628 313.955963,407.506504 314.085138,394.384272 C314.268624,375.566933 313.925138,356.743723 314.198165,337.927852 C314.309725,330.161663 310.750092,325.451457 303.956697,322.781508 C297.602202,320.281826 291.075963,318.218083 284.739083,315.680238 C276.567339,312.407019 272.815413,306.475594 273.107523,297.376633 C273.25578,292.763302 274.860183,291.437869 278.924771,291.16192 C287.698349,290.565989 296.467523,289.857036 305.222018,289.017448 C315.020183,288.076581 322.234862,280.76101 322.836697,271.491783 C323.009908,268.818899 323.06422,266.580487 319.247706,266.887259 C297.828257,268.604598 276.289908,269.32089 255.109725,273.175362 C245.862018,274.858942 241.045872,281.180804 240.370642,290.742126 C239.804037,298.775457 239.303486,306.842547 239.373945,314.88762 C239.506055,329.976718 245.721101,337.819233 260.201835,341.772049 C263.486972,342.668882 266.885138,343.2061 270.262752,343.693414 C274.221651,344.26586 276.171009,345.931826 276.121101,350.382229 C275.942018,366.021757 275.978716,381.668624 276.29578,397.305216 C276.386789,401.853963 274.666422,403.254255 270.457982,403.477362 C264.611376,403.78707 258.802936,404.802796 252.95633,405.14186 C246.361101,405.526427 240.966606,406.636092 243.752661,415.705697 M252.460183,399.0798 C253.885505,398.802384 255.306422,398.498547 256.736147,398.253422 C268.786055,396.188212 268.788991,396.191148 268.765505,383.512195 C268.750826,374.727345 268.540917,365.936624 268.783119,357.157645 C268.916697,352.313869 267.906789,349.87877 262.308257,348.926161 C251.840734,347.147173 242.179083,343.154727 236.074128,333.474512 C229.047339,322.333826 230.581284,286.868573 238.399266,276.407482 C241.804771,271.852864 247.241835,270.495139 251.397431,267.17495 C277.122202,263.396804 303.017248,261.560573 328.95633,260.192573 C333.591927,279.994813 322.638532,294.228178 302.193761,295.151431 C297.100183,295.381877 292.03156,296.115783 286.945321,296.544384 C284.551193,296.746942 281.718165,296.203852 280.784587,299.220203 C279.824587,302.321688 281.104587,305.145757 283.425321,307.114092 C286.437431,309.668083 290.110092,311.09186 294.039633,311.737697 C297.646239,313.124779 301.244037,314.538281 304.860917,315.898942 C315.97578,320.083671 322.297982,327.064581 321.621284,339.985723 C320.910826,353.536555 321.640367,367.163714 321.741651,380.757113 C321.804771,386.84853 321.86789,392.941414 321.929541,399.03283 C321.709358,400.000118 321.489174,400.967405 321.268991,401.937628 C316.762569,415.067199 307.842202,423.433723 294.033761,425.363894 C276.697982,427.787251 259.250642,429.398907 241.863486,431.464118 C237.734312,431.954367 236.124037,430.488023 236.235596,426.276873 C236.454312,417.976401 236.336881,409.667122 236.358899,401.362246 C241.725505,400.60192 247.093578,399.840126 252.460183,399.0798" id="Fill-71" fill="#046DB7" sketch:type="MSShapeGroup"></path>
                <path d="M515.497394,198.213219 L515.801248,198.213219 C515.801248,195.036876 515.768954,191.859064 515.810055,188.682721 C515.852624,185.267124 516.157945,181.844189 516.005284,178.438867 C515.641248,170.333614 512.385468,166.238421 504.508771,164.635571 C497.324917,163.172163 490.016294,162.366335 482.646018,162.890343 C471.949505,163.652137 467.617761,167.770815 467.256661,178.422721 C466.835376,190.871227 466.960147,203.33588 466.753174,215.793193 C466.653358,221.795073 469.71978,225.742017 475.095193,227.3023 C485.261798,230.252601 495.677945,231.478223 506.205651,229.162017 C512.508771,227.774936 515.87611,224.120086 515.559046,217.262472 C515.266936,210.925931 515.497394,204.564438 515.497394,198.213219 M404.913908,157.369906 C405.007853,178.374283 405.42767,199.390403 403.685284,220.349279 C403.209688,226.069339 404.943266,227.923185 410.920514,227.83218 C428.463266,227.566506 428.46767,227.842455 428.727486,210.36376 C428.749505,208.897416 428.602716,207.403185 428.831706,205.969133 C429.170789,203.848146 427.422532,200.247605 431.202349,200.216781 C434.726752,200.187425 435.795376,203.24194 435.796844,206.526901 C435.79978,210.683742 435.391706,214.933056 436.11978,218.968069 C436.68345,222.094506 436.818495,227.004335 442.640147,225.197459 L442.891156,225.398549 C445.744734,232.078558 452.014092,228.937442 456.560147,229.420352 C459.296294,229.710979 458.174826,224.933253 458.082349,222.558335 C457.744734,213.876232 457.380697,205.041476 457.443817,196.526704 C457.495193,189.476807 459.597211,181.919047 459.463633,174.449356 C459.412257,171.570979 458.791339,168.702876 458.431706,165.833305 C475.492991,158.790747 492.734826,158.614609 510.314275,163.935425 C514.634275,165.243245 519.388771,165.111142 523.945101,165.641021 C523.920147,186.572009 523.995009,207.502996 523.789505,228.432515 C523.746936,232.857966 524.771523,234.607597 529.628771,235.344438 C535.098128,236.173751 540.890422,235.420764 546.085284,237.960077 C546.637211,245.187579 544.102165,247.826704 536.508771,245.654343 C530.97189,244.069107 525.006385,243.887099 519.20822,243.330798 C514.328954,242.862567 510.673908,241.534197 512.141798,234.996567 C495.002716,243.499597 478.235009,241.234764 461.439413,235.98 C459.515009,235.105185 457.069505,229.191373 456.061064,236.819588 C455.735193,239.289914 452.32822,237.579914 450.414092,238.158232 C443.077578,237.808893 435.719046,237.576979 429.44822,232.918146 C428.921248,232.52624 427.69556,232.106446 427.576661,232.269373 C421.659596,240.430403 413.23244,235.47067 406.133725,235.913948 C392.364917,236.774086 392.248954,236.135588 392.420697,222.53485 C392.595376,208.614129 392.756844,194.689004 393.307303,180.781494 C393.514275,175.512052 391.290422,176.523373 388.295927,178.023476 C387.335927,174.914652 387.256661,172.345983 391.299229,171.311176 C393.389505,170.775425 395.50767,169.723004 395.052624,166.810867 C395.021798,166.389605 395.20822,166.128335 395.614826,166.025588 C401.470239,165.761382 400.240147,161.173004 400.736294,157.637047 C402.129321,157.547511 403.520881,157.457974 404.913908,157.369906" id="Fill-73" fill="#042860" sketch:type="MSShapeGroup"></path>
                <path d="M243.496807,213.585752 L242.966899,213.585752 C242.966899,220.657666 243.314789,227.753065 242.852404,234.794155 C242.505982,240.050387 243.871119,241.757452 249.274422,240.6654 C258.34011,238.832104 267.526165,237.599142 276.647633,236.025649 C287.242862,234.198224 291.830018,228.921443 292.020844,218.113949 C292.235156,205.919374 292.323229,193.721864 292.340844,181.524353 C292.359927,169.463348 289.728,167.076688 277.973138,168.95255 C264.748917,171.061795 251.567266,173.448456 238.391486,175.848327 C236.048734,176.27546 232.194055,175.306705 232.367266,179.332911 C232.521394,182.943726 235.420477,185.176267 238.877358,184.986919 C243.815339,184.716842 243.590752,187.517426 243.534972,190.90073 C243.41167,198.459958 243.496807,206.023589 243.496807,213.585752 M343.59956,230.957297 C344.387817,236.634791 341.46378,238.385889 336.223413,238.776327 C322.365064,239.809666 308.499376,240.944284 294.71589,242.667494 C289.912954,243.267829 288.487633,241.920379 289.399193,236.032988 C282.902312,243.948894 275.06378,245.381477 267.025615,246.618842 C255.948917,248.324439 244.913321,250.311855 233.886532,252.319821 C229.594422,253.100696 228.01644,252.542928 228.254239,247.279357 C228.957358,231.69267 228.707817,216.063417 229.017541,200.456181 C229.077725,197.411941 228.511119,195.669649 225.318459,194.523288 C219.885798,192.569632 217.51956,188.216104 217.760294,182.456413 C217.911486,178.847065 219.379376,176.770112 223.304514,176.099323 C244.888367,172.410713 266.165431,166.926971 288.205798,165.890696 C292.66378,165.680799 297.129101,163.862181 301.788183,164.145469 C301.929101,166.084447 302.222679,168.027829 302.181578,169.96534 C301.772037,189.689786 301.363963,209.414233 300.817908,229.134276 C300.696073,233.518627 301.594422,234.598936 306.613138,234.165932 C318.937541,233.103237 331.138642,230.383383 343.59956,230.957297" id="Fill-75" fill="#042860" sketch:type="MSShapeGroup"></path>
                <path d="M385.331083,229.190346 C385.742092,234.656475 383.528514,236.780397 377.775853,236.567565 C370.514202,236.298955 363.196771,236.891951 355.936587,237.515771 C352.033468,237.8519 350.806312,236.654166 350.897321,232.771805 C351.248147,217.941041 350.920807,203.082389 351.738422,188.283917 C352.071633,182.257084 350.377688,181.000638 344.986128,181.769771 C338.732917,182.660732 332.412183,183.077591 326.120807,183.699942 C323.869064,175.86917 329.880073,176.014483 334.605211,174.894543 C338.295486,174.019728 343.537321,176.498861 345.474936,173.155187 C347.295119,170.015539 346.247046,165.211393 346.445211,161.138217 C346.468697,160.658243 346.396771,160.173865 346.368881,159.690955 C347.882275,159.460509 349.39567,159.228595 350.907596,158.996681 C350.86356,162.663273 350.910532,166.332801 350.750532,169.993522 C350.589064,173.658646 352.397505,175.211591 355.669431,174.056423 C362.614018,171.605179 362.843009,175.52717 362.768147,180.65717 C362.552367,195.320603 362.628697,209.986973 362.483376,224.650406 C362.445211,228.457908 362.851817,230.399822 367.813284,229.571977 C373.514569,228.622303 379.480073,229.249058 385.331083,229.190346" id="Fill-77" fill="#042860" sketch:type="MSShapeGroup"></path>
                <path d="M305.125725,198.570191 C304.792514,198.571658 304.460771,198.571658 304.12756,198.573126 C304.12756,207.8585 304.39178,217.154148 304.018936,226.424843 C303.822239,231.330268 305.438385,232.100869 309.955083,231.4565 C318.655266,230.213264 327.443523,229.130019 336.214165,228.970027 C342.79178,228.851135 343.058936,224.860156 341.916917,220.848628 C340.610495,216.263186 336.184807,218.894972 333.294532,219.021203 C321.701138,219.527598 321.952147,219.705203 322.051963,208.366362 C322.091596,203.807341 323.662239,202.147246 327.999853,202.480439 C329.447193,202.591993 330.956183,202.456955 332.382972,202.170731 C339.569761,200.735212 335.411229,195.072397 336.07178,191.39553 C336.92756,186.63395 332.936367,187.966723 330.694899,188.528894 C324.366826,190.115598 322.320587,188.430551 322.420404,181.512757 C322.517284,174.939899 324.275817,172.199495 330.913615,172.704422 C333.552881,172.905512 336.262606,171.991066 338.932697,172.0351 C343.450862,172.108491 343.107376,169.190482 343.174899,166.125693 C343.258569,162.366628 340.983339,162.390113 338.329394,162.639641 C328.838018,163.529135 319.353982,164.516972 309.849394,165.205375 C306.103339,165.47692 304.965725,167.040139 305.05233,170.696457 C305.272514,179.983298 305.125725,189.278946 305.125725,198.570191 M346.369028,159.692276 C346.396917,160.173718 346.468844,160.658096 346.445358,161.13807 C346.245725,165.211246 347.295266,170.015392 345.475083,173.15504 C343.536,176.498714 338.295633,174.021049 334.605358,174.895864 C329.88022,176.014336 323.867743,175.870491 326.119486,183.701264 C327.854532,188.769615 331.484624,185.221916 334.051963,185.132379 C337.913982,184.995873 340.322789,185.471444 339.638752,190.021658 C338.913615,194.836079 341.419303,200.09965 337.629211,204.482534 C333.370862,206.760577 323.867743,201.7025 325.936,212.838783 C325.514716,215.356079 325.704073,217.342027 329.133064,216.778388 C331.060404,216.461341 333.028844,215.976963 334.94444,216.095856 C338.383706,216.311624 343.571229,213.499298 344.852697,217.209924 C346.248661,221.250809 347.400954,226.711066 343.602055,230.954508 C331.13967,230.38353 318.938569,233.103384 306.612697,234.166079 C301.593982,234.597615 300.695633,233.518774 300.817468,229.134422 C301.363523,209.412912 301.771596,189.689933 302.181138,169.965487 C302.222239,168.027976 301.930128,166.084594 301.789211,164.145615 C316.487193,161.067615 331.390679,159.996113 346.369028,159.692276" id="Fill-79" fill="#046DB7" sketch:type="MSShapeGroup"></path>
                <path d="M385.331083,229.190346 C379.480073,229.249058 373.514569,228.622303 367.813284,229.571977 C362.851817,230.399822 362.445211,228.457908 362.483376,224.650406 C362.628697,209.986973 362.552367,195.320603 362.768147,180.65717 C362.843009,175.52717 362.614018,171.605179 355.669431,174.056423 C352.397505,175.211591 350.589064,173.658646 350.750532,169.993522 C350.910532,166.332801 350.86356,162.663273 350.907596,158.996681 C367.506495,158.148286 384.074569,156.210775 400.736587,157.63602 C400.24044,161.171977 401.470532,165.761822 395.620991,166.021625 C397.81989,161.318758 396.594202,159.520689 391.195303,159.883239 C380.961174,160.570174 370.69622,160.920981 360.438606,161.098586 C356.181725,161.171977 353.695119,161.729745 353.918239,167.052028 C354.16778,172.961436 358.106128,170.89329 360.627963,170.546887 C365.639339,169.858483 366.980991,171.653616 366.778422,176.465101 C366.247046,189.155797 366.044477,201.864106 365.869798,214.566543 C365.705394,226.60553 365.797872,226.235642 377.637872,226.350131 C383.416954,226.40444 384.487046,224.270243 384.390165,219.106483 C384.162642,207.137951 385.090349,195.12832 384.46356,183.193548 C384.009982,174.578964 385.036037,168.107385 395.052917,166.809839 C395.507963,169.723445 393.389798,170.774397 391.299523,171.310148 C387.256954,172.346423 387.334752,174.915093 388.29622,178.022449 C388.061358,192.766612 387.89255,207.512243 387.522642,222.25347 C387.462459,224.646003 388.85255,227.779779 385.331083,229.190346" id="Fill-81" fill="#046DB7" sketch:type="MSShapeGroup"></path>
                <path d="M325.935853,212.838636 C323.867596,201.702353 333.370716,206.76043 337.629064,204.482387 C338.722642,214.258009 331.306862,212.117941 325.935853,212.838636" id="Fill-83" fill="#042860" sketch:type="MSShapeGroup"></path>
                <path d="M587.134679,245.131656 C586.823486,253.917973 586.819083,253.941458 577.994128,252.467776 C571.529541,251.387467 565.103119,250.035613 558.609174,249.191621 C554.427156,248.648531 552.934312,246.923853 553.042936,242.587939 C553.409908,227.76745 553.31156,212.936686 553.539083,198.111793 C553.591927,194.665373 553.682936,191.6226 548.975413,191.835433 C549.041468,184.516926 548.181284,177.171999 549.594862,169.890188 C550.393394,169.918076 551.191927,169.944497 551.990459,169.970918 C553.424587,175.203664 548.307523,183.815312 558.902752,184.320239 C564.734679,184.597656 565.342385,187.630154 565.141284,192.397604 C564.555596,206.271355 564.568807,220.172995 563.779083,234.0306 C563.462018,239.593604 566.023486,241.271312 570.66055,242.036042 C576.172477,242.946085 581.644771,244.08951 587.134679,245.131656" id="Fill-85" fill="#042860" sketch:type="MSShapeGroup"></path>
                <path d="M560.454018,171.78293 C557.907229,171.313231 556.314569,171.575969 556.134018,174.891755 C555.921174,178.804939 556.335119,181.852115 561.133651,181.722948 C567.309064,181.557085 568.683009,184.638021 568.436404,190.356613 C567.902092,202.787506 568.026862,215.249222 567.946128,227.697729 C567.874202,238.763557 567.913835,238.763557 578.820257,240.510252 C579.060991,240.548415 579.313468,240.542544 579.545394,240.612999 C584.818055,242.189428 586.081908,240.025875 586.007046,234.876793 C585.819156,221.704656 586.186128,208.525179 586.419523,195.350106 C586.501725,190.716227 585.493284,185.368991 593.386128,186.16748 C596.16778,186.447832 598.174385,183.777883 598.554569,180.854003 C598.881908,178.335239 596.409982,178.429179 594.983193,178.153231 C583.49255,175.935368 571.968147,173.884836 560.454018,171.78293 M587.134385,245.13239 C581.644477,244.090244 576.172183,242.945351 570.660257,242.036776 C566.023193,241.272046 563.461725,239.59287 563.778789,234.031334 C564.568514,220.172261 564.555303,206.270621 565.140991,192.398338 C565.342092,187.630888 564.734385,184.59839 558.903927,184.320973 C548.307229,183.816046 553.424294,175.20293 551.990165,169.971652 C554.426862,167.131437 557.513835,168.69172 560.158972,169.117385 C571.385394,170.927197 582.573651,172.985068 593.744294,175.120733 C603.739156,177.030355 604.437872,178.893008 598.930349,187.84372 C598.462092,188.389746 597.993835,188.935772 597.525578,189.481797 C597.525578,189.481797 597.687046,189.561059 597.685578,189.559591 C591.692183,188.19893 589.020624,190.358081 590.214018,196.609488 C589.933651,210.74451 589.706128,224.880999 589.318606,239.013085 C589.25989,241.1693 590.695486,244.124003 587.134385,245.13239" id="Fill-87" fill="#046DB7" sketch:type="MSShapeGroup"></path>
                <path d="M544.562789,201.850161 L545.126459,201.850161 C545.126459,195.027775 545.113248,188.203921 545.130862,181.380067 C545.16022,169.533363 545.129394,169.760874 533.701872,167.810153 C528.677284,166.952951 527.461872,168.42223 527.485358,173.295363 C527.555817,188.898196 527.136,204.502496 526.984807,220.108264 C526.860037,233.095458 526.923156,232.973629 539.977101,234.466393 C543.548477,234.874445 544.70811,234.028985 544.630312,230.378539 C544.429211,220.872994 544.562789,211.36011 544.562789,201.850161 M549.594716,169.891509 C548.181138,177.171852 549.041321,184.516779 548.975266,191.835286 C548.578936,205.060264 548.238385,218.286711 547.729028,231.508754 C547.64389,233.695792 549.003156,236.427389 546.086459,237.959784 C540.890128,235.42047 535.097835,236.174925 529.629945,235.345612 C524.771229,234.607303 523.746642,232.857672 523.790679,228.432221 C523.994716,207.50417 523.919853,186.571715 523.944807,165.642196 C532.925358,164.465011 541.719486,164.39896 549.594716,169.891509" id="Fill-89" fill="#046DB7" sketch:type="MSShapeGroup"></path>
                <path d="M590.213872,196.610076 C589.020477,190.3572 591.692037,188.199518 597.685431,189.560179 C597.422679,194.271852 593.522495,195.127586 590.213872,196.610076" id="Fill-91" fill="#042860" sketch:type="MSShapeGroup"></path>
                <path d="M597.525872,189.482238 C597.994128,188.936212 598.462385,188.390186 598.929174,187.844161 C598.857248,188.727783 598.929174,189.737637 597.525872,189.482238" id="Fill-93" fill="#042860" sketch:type="MSShapeGroup"></path>
                <path d="M646.355229,351.651299 L646.355229,300.771093 C646.355229,285.190277 646.362569,285.152114 661.703486,288.3402 C668.835963,289.822689 678.355229,289.260518 682.394862,293.662483 C686.863119,298.529745 683.717431,308.111616 683.73945,315.626809 C683.856881,355.965196 683.671927,396.303582 683.925872,436.6405 C683.964037,442.771548 682.449174,444.13808 676.552661,442.59541 C668.537982,440.497908 660.350092,438.77323 652.129908,437.849977 C647.065688,437.280466 645.125138,434.745556 643.450275,430.579908 C635.710092,411.3325 627.771743,392.162887 619.856881,372.985934 C619.362202,371.786732 619.692477,369.871239 616.918165,369.692166 C616.918165,387.937058 616.621651,406.132045 617.073761,424.309419 C617.238165,430.899891 615.432661,432.049187 609.282202,430.667977 C601.44367,428.906603 593.373211,428.069951 585.361468,427.23917 C581.633028,426.851668 580.391193,425.398535 580.398532,421.723136 C580.479266,374.538878 580.491009,327.354621 580.385321,280.171831 C580.375046,275.824174 581.790092,274.795239 586.02789,275.336861 C608.45578,278.209367 624.126972,289.596646 631.629358,311.208698 C636.304587,324.678801 640.524771,338.30596 644.950459,351.862664 C645.418716,351.792209 645.886972,351.721754 646.355229,351.651299" id="Fill-95" fill="#F9FBFD" sketch:type="MSShapeGroup"></path>
                <path d="M516.846239,344.362295 L516.772844,344.362295 C516.772844,330.441574 517.066422,316.513514 516.675963,302.604536 C516.389725,292.43554 511.326972,288.949488 499.089174,289.154982 C489.38055,289.316441 494.077798,297.307205 492.289908,301.722381 C491.692477,303.198999 492.134312,305.104218 492.134312,306.81275 C492.129908,329.283471 492.119633,351.75566 492.134312,374.226381 C492.143119,387.756664 496.085872,391.567102 509.399633,392.233488 C514.824954,392.505033 516.957798,390.79063 516.897615,385.390553 C516.743486,371.716424 516.846239,358.03936 516.846239,344.362295 M555.249174,347.253883 C555.249174,362.894879 555.299083,378.537342 555.234495,394.178338 C555.181651,407.183145 550.767706,414.319643 538.510826,417.531214 C514.748624,423.754733 491.005505,422.125463 467.881835,414.12736 C458.102752,410.745523 453.393761,402.828149 453.368807,392.502098 C453.292477,360.7416 453.195596,328.979634 453.426055,297.220604 C453.537615,281.798312 461.54055,271.874441 476.938716,268.906527 C497.173578,265.008021 517.370275,266.869205 537.06789,272.5056 C549.141284,275.960827 554.69578,285.290235 554.964404,297.404081 C555.332844,314.013832 555.056881,330.636793 555.056881,347.253883 L555.249174,347.253883" id="Fill-97" fill="#FDFDFE" sketch:type="MSShapeGroup"></path>
                <path d="M373.32756,351.1747 C373.32756,331.605842 373.170495,312.035516 373.436183,292.471061 C373.503706,287.503988 371.941872,285.965722 367.149211,286.552846 C362.548844,287.116486 357.879486,287.128228 353.239486,287.3484 C351.777468,287.418855 349.615266,288.014786 348.959119,287.292623 C344.093064,281.938048 347.897835,275.351979 346.811596,269.388263 C346.187743,265.962391 348.455633,265.514709 351.263706,265.347379 C378.633982,263.706366 406.027743,264.24652 433.418569,264.258263 C437.227743,264.25973 437.892697,265.921293 437.536,269.225336 C436.592147,277.988168 429.499303,285.079164 418.801321,285.663353 C412.542239,286.005353 412.031413,288.538795 412.053431,293.599808 C412.211963,331.758494 411.987376,369.918649 412.292697,408.0744 C412.342606,414.297919 410.569394,416.003516 404.553982,415.643902 C396.269211,415.14925 387.899303,415.153653 379.623339,415.751052 C374.055633,416.153233 373.182239,413.983808 373.238018,409.145902 C373.456734,389.823636 373.32756,370.498434 373.32756,351.1747" id="Fill-99" fill="#F9FBFD" sketch:type="MSShapeGroup"></path>
                <path d="M236.358899,401.362393 C236.336881,409.667269 236.454312,417.976548 236.235596,426.27702 C236.124037,430.48817 237.734312,431.954513 241.863486,431.462797 C259.250642,429.399054 276.69945,427.787397 294.033761,425.364041 C307.842202,423.43387 316.762569,415.065878 321.268991,401.937775 C321.633028,420.448342 312.245872,433.376822 293.719633,439.456496 C278.961468,444.298805 263.378349,443.605998 248.228257,445.857621 C241.001835,446.930591 233.690275,447.461938 226.482936,448.643526 C221.886972,449.397981 219.889174,448.603895 220.056514,443.312436 C220.401468,432.355226 220.444037,421.36132 219.92,410.415852 C219.652844,404.820556 221.337982,402.33702 226.921835,402.254822 C230.071927,402.207852 233.213211,401.676505 236.358899,401.362393" id="Fill-101" fill="#042860" sketch:type="MSShapeGroup"></path>
                <path d="M321.929835,399.033124 C321.866716,392.941707 321.805064,386.848823 321.741945,380.755939 C331.579743,390.791364 338.741578,402.919888 347.550385,413.761141 C347.569468,420.473441 347.587083,427.185742 347.606165,433.898042 C339.048367,422.275913 330.489101,410.653785 321.929835,399.033124" id="Fill-103" fill="#FCF9FA" sketch:type="MSShapeGroup"></path>
                <path d="M347.550385,413.761434 C338.741578,402.920181 331.579743,390.791658 321.741945,380.756233 C321.640661,367.162833 320.911119,353.537142 321.62011,339.98631 C322.298275,327.065168 315.976073,320.082791 304.859743,315.899529 C301.24433,314.5374 297.646532,313.125366 294.039927,311.738284 C303.466716,311.152627 312.354789,309.033108 320.432587,301.711666 C319.817541,311.773512 325.846165,310.712284 332.045064,310.273409 C347.692771,309.163743 347.720661,309.309057 347.70011,325.195177 C347.661945,354.717263 347.601761,384.239348 347.550385,413.761434" id="Fill-105" fill="#EC174C" sketch:type="MSShapeGroup"></path>
                <path d="M425.974018,179.933392 C425.974018,180.304748 425.991633,181.521564 425.971083,182.735444 C425.912367,186.046826 424.823193,189.615075 430.518606,189.588654 C435.309798,189.565169 438.004844,188.40413 437.68044,183.125882 C437.516037,180.461804 437.718606,177.778645 437.678972,175.104294 C437.632,172.033633 436.328514,170.49977 432.999339,169.809899 C423.534385,167.847435 426.603743,174.694774 425.974018,179.933392 M442.64044,225.196285 C439.857321,222.174062 438.633101,218.671864 438.843009,214.51062 C439.026495,210.860173 439.02356,207.159821 438.644844,203.529924 C438.051817,197.84656 433.364844,197.853899 429.254752,197.51777 C423.918972,197.078894 426.02833,201.338482 425.86833,203.703126 C425.505761,209.056233 425.370716,214.457779 425.65255,219.812354 C425.881541,224.204045 424.594202,225.705615 419.949798,225.692405 C407.33622,225.65571 407.358239,225.896431 407.527046,213.632869 C407.745761,197.761427 408.073101,181.888517 408.018789,166.017075 C408.00411,161.515298 408.818789,159.442748 413.949064,159.708422 C423.698789,160.214817 433.489615,159.878688 443.251083,160.229495 C452.666128,160.56856 455.731083,163.28401 456.058422,172.520946 C456.319706,179.905504 458.338055,187.72747 453.191633,194.485272 C452.575119,195.294036 452.189064,196.126285 452.843743,197.099444 C457.68778,204.293186 454.825394,212.320645 455.142459,219.959135 C455.49622,228.529684 455.054385,228.613349 446.417321,226.336774 C445.241541,226.027066 444.065761,225.714422 442.89145,225.400311 C442.89145,225.398843 442.64044,225.196285 442.64044,225.196285" id="Fill-107" fill="#F9FBFD" sketch:type="MSShapeGroup"></path>
                <path d="M91.2218716,345.133336 C91.2218716,341.723611 91.4743486,338.290401 91.1616881,334.910032 C90.709578,330.025156 92.5752661,327.562169 97.5543486,327.371354 C103.513982,327.142375 102.511413,331.534066 102.593615,334.987826 C102.752147,341.559216 102.260404,348.170238 102.793248,354.701997 C103.227743,360.025748 100.319853,361.229354 96.2038899,362.148203 C92.7337982,362.923208 91.0985688,361.970598 91.1719633,358.284924 C91.2585688,353.90204 91.1925138,349.517688 91.1925138,345.133336 L91.2218716,345.133336" id="Fill-109" fill="#042860" sketch:type="MSShapeGroup"></path>
                <path d="M173.37233,359.638393 C173.37233,336.67302 173.491229,313.706179 173.27545,290.742273 C173.229945,286.024728 174.254532,283.721732 179.418569,283.163964 C188.140771,282.220161 196.789578,280.552728 205.441321,279.037947 C209.215266,278.377432 211.238018,278.74732 211.223339,283.529449 C211.073615,330.68435 211.094165,377.840719 211.204257,424.997088 C211.214532,428.842754 209.730495,429.895174 206.173798,430.34726 C197.222606,431.484814 188.242055,432.695758 179.446459,434.649415 C173.985908,435.863294 173.43545,433.84799 173.469211,429.272822 C173.635083,406.062324 173.545541,382.850359 173.545541,359.638393 L173.37233,359.638393" id="Fill-111" fill="#F9FBFD" sketch:type="MSShapeGroup"></path>
                <path d="M243.752661,415.705697 C240.966606,406.636092 246.361101,405.526427 252.95633,405.14186 C258.802936,404.802796 264.611376,403.78707 270.457982,403.477362 C274.666422,403.254255 276.386789,401.853963 276.29578,397.305216 C275.978716,381.668624 275.942018,366.021757 276.121101,350.382229 C276.171009,345.931826 274.221651,344.26586 270.262752,343.693414 C266.885138,343.2061 263.486972,342.668882 260.201835,341.772049 C245.721101,337.819233 239.506055,329.976718 239.373945,314.88762 C239.303486,306.842547 239.804037,298.775457 240.370642,290.742126 C241.045872,281.180804 245.862018,274.858942 255.109725,273.175362 C276.289908,269.32089 297.828257,268.604598 319.247706,266.887259 C323.06422,266.580487 323.009908,268.818899 322.836697,271.491783 C322.234862,280.76101 315.020183,288.076581 305.222018,289.017448 C296.467523,289.857036 287.698349,290.565989 278.924771,291.16192 C274.860183,291.437869 273.25578,292.763302 273.107523,297.376633 C272.815413,306.475594 276.567339,312.407019 284.739083,315.680238 C291.075963,318.218083 297.602202,320.281826 303.956697,322.781508 C310.750092,325.451457 314.309725,330.161663 314.198165,337.927852 C313.925138,356.743723 314.268624,375.566933 314.085138,394.384272 C313.955963,407.506504 308.88,414.591628 296.348624,417.835491 C280.217982,422.009946 263.463486,422.287362 246.98055,424.088367 C240.285505,424.820804 245.239633,418.117311 243.752661,415.705697" id="Fill-113" fill="#F9FBFD" sketch:type="MSShapeGroup"></path>
                <path d="M486.161321,194.545452 L485.902972,194.545452 C485.902972,200.140748 485.863339,205.736045 485.917651,211.329873 C485.955817,215.36195 488.671413,216.722611 492.113615,217.108645 C494.294899,217.352302 496.941505,217.685495 496.997284,214.4431 C497.207193,202.289624 497.417101,190.128809 497.210128,177.978268 C497.144073,174.062148 493.719486,173.216688 490.284624,173.043487 C486.12756,172.832122 486.318385,175.974706 486.222972,178.496405 C486.020404,183.839238 486.161321,189.195281 486.161321,194.545452 M515.497101,198.213512 C515.497101,204.563264 515.26811,210.924757 515.56022,217.262766 C515.875817,224.120379 512.509945,227.775229 506.205358,229.160843 C495.677651,231.478517 485.261505,230.252894 475.094899,227.302594 C469.719486,225.742311 466.654532,221.793899 466.754349,215.793487 C466.959853,203.336173 466.83655,190.870053 467.257835,178.421547 C467.618936,167.771109 471.950679,163.652431 482.645725,162.890637 C490.016,162.365161 497.324624,163.172457 504.508477,164.634397 C512.385174,166.238714 515.642422,170.333907 516.004991,178.439161 C516.157651,181.843015 515.85233,185.267418 515.809761,188.683015 C515.770128,191.859358 515.800954,195.035701 515.800954,198.213512 L515.497101,198.213512" id="Fill-115" fill="#F9FBFD" sketch:type="MSShapeGroup"></path>
                <path d="M395.052183,166.810133 C385.036771,168.107678 384.009248,174.579258 384.462826,183.192373 C385.091083,195.128614 384.163376,207.138245 384.389431,219.105309 C384.48778,224.270536 383.41622,226.404734 377.637138,226.348957 C365.798606,226.235936 365.704661,226.605824 365.870532,214.566837 C366.045211,201.864399 366.24778,189.15609 366.779156,176.465395 C366.980257,171.65391 365.640073,169.857309 360.627229,170.54718 C358.105394,170.893584 354.167046,172.96173 353.918972,167.052322 C353.694385,161.730039 356.182459,161.17227 360.437872,161.09888 C370.695486,160.921275 380.96044,160.570468 391.194569,159.883532 C396.594936,159.520983 397.819156,161.319052 395.621725,166.021918 C395.209248,166.127601 395.021358,166.388871 395.052183,166.810133" id="Fill-117" fill="#F9FBFD" sketch:type="MSShapeGroup"></path>
                <path d="M261.988404,204.45993 L261.487853,204.45993 C261.487853,210.557217 261.421798,216.654505 261.523083,222.750324 C261.55978,224.910942 260.521982,228.424882 264.692257,227.476676 C267.773358,226.77653 272.908037,228.790367 273.081248,223.023337 C273.45556,210.592445 273.556844,198.152745 273.664,185.715981 C273.693358,182.369372 272.46033,180.08399 268.397211,180.521397 C264.805284,180.907432 261.621431,181.067423 261.90767,186.176874 C262.249688,192.253612 261.988404,198.36411 261.988404,204.45993 L261.988404,204.45993 Z M243.497394,213.585312 C243.497394,206.023148 243.412257,198.460985 243.53556,190.90029 C243.589872,187.516985 243.815927,184.716402 238.876477,184.986479 C235.421064,185.175827 232.521982,182.943286 232.366385,179.33247 C232.193174,175.306264 236.047853,176.27502 238.390606,175.849355 C251.566385,173.448015 264.748037,171.062822 277.973725,168.95211 C289.728587,167.077715 292.359046,169.462908 292.341431,181.52538 C292.322349,193.721423 292.234275,205.918934 292.019963,218.113509 C291.830606,228.921003 287.241982,234.199252 276.646752,236.026676 C267.526752,237.598702 258.340697,238.833131 249.275009,240.66496 C243.871706,241.758479 242.506569,240.049947 242.851523,234.793715 C243.315376,227.752625 242.966018,220.657226 242.966018,213.585312 L243.497394,213.585312 Z" id="Fill-119" fill="#F9FBFD" sketch:type="MSShapeGroup"></path>
                <path d="M305.125725,198.570191 C305.125725,189.278946 305.272514,179.983298 305.05233,170.696457 C304.965725,167.040139 306.103339,165.47692 309.849394,165.205375 C319.353982,164.516972 328.838018,163.529135 338.329394,162.639641 C340.983339,162.390113 343.258569,162.366628 343.174899,166.125693 C343.107376,169.190482 343.450862,172.108491 338.932697,172.0351 C336.262606,171.991066 333.552881,172.905512 330.913615,172.704422 C324.275817,172.199495 322.517284,174.939899 322.420404,181.512757 C322.320587,188.430551 324.366826,190.115598 330.694899,188.528894 C332.936367,187.966723 336.92756,186.63395 336.07178,191.39553 C335.411229,195.072397 339.569761,200.735212 332.382972,202.170731 C330.956183,202.456955 329.447193,202.591993 327.999853,202.480439 C323.662239,202.147246 322.091596,203.807341 322.051963,208.366362 C321.952147,219.705203 321.701138,219.527598 333.294532,219.021203 C336.184807,218.894972 340.610495,216.263186 341.916917,220.848628 C343.058936,224.860156 342.79178,228.851135 336.214165,228.970027 C327.443523,229.130019 318.655266,230.213264 309.955083,231.4565 C305.438385,232.100869 303.822239,231.330268 304.018936,226.424843 C304.39178,217.154148 304.12756,207.8585 304.12756,198.573126 C304.460771,198.571658 304.792514,198.571658 305.125725,198.570191" id="Fill-121" fill="#F9FBFD" sketch:type="MSShapeGroup"></path>
                <path d="M560.454018,171.78293 C571.968147,173.884836 583.49255,175.935368 594.983193,178.153231 C596.409982,178.429179 598.881908,178.335239 598.554569,180.854003 C598.174385,183.777883 596.16778,186.447832 593.386128,186.16748 C585.493284,185.368991 586.501725,190.716227 586.419523,195.350106 C586.186128,208.525179 585.819156,221.704656 586.007046,234.876793 C586.081908,240.025875 584.818055,242.189428 579.545394,240.612999 C579.313468,240.542544 579.060991,240.548415 578.820257,240.510252 C567.913835,238.763557 567.874202,238.763557 567.946128,227.697729 C568.026862,215.249222 567.902092,202.787506 568.436404,190.356613 C568.683009,184.638021 567.309064,181.557085 561.133651,181.722948 C556.335119,181.852115 555.921174,178.804939 556.134018,174.891755 C556.314569,171.575969 557.907229,171.313231 560.454018,171.78293" id="Fill-123" fill="#F9FBFD" sketch:type="MSShapeGroup"></path>
                <path d="M544.562789,201.850161 C544.562789,211.36011 544.429211,220.872994 544.630312,230.378539 C544.70811,234.028985 543.548477,234.874445 539.977101,234.466393 C526.923156,232.973629 526.860037,233.095458 526.984807,220.108264 C527.136,204.502496 527.555817,188.898196 527.485358,173.295363 C527.461872,168.42223 528.677284,166.952951 533.701872,167.810153 C545.129394,169.760874 545.16022,169.533363 545.130862,181.380067 C545.113248,188.203921 545.126459,195.027775 545.126459,201.850161 L544.562789,201.850161" id="Fill-125" fill="#F9FBFD" sketch:type="MSShapeGroup"></path>
                <path d="M509.493431,342.218851 L509.437651,342.218851 C509.437651,330.002258 509.411229,317.787134 509.453798,305.570542 C509.468477,301.437185 509.227743,296.992653 503.988844,296.879632 C497.804624,296.744593 499.364991,302.153477 499.340037,305.633658 C499.180037,328.844155 499.254899,352.054653 499.262239,375.266619 C499.262239,376.730027 499.093431,378.25655 499.438385,379.646567 C500.344073,383.297014 502.953982,384.736936 506.576734,384.449245 C510.450495,384.141005 509.421505,381.03952 509.440587,378.86716 C509.549211,366.652035 509.493431,354.435443 509.493431,342.218851 M516.846092,344.361855 C516.846092,358.038919 516.743339,371.715984 516.897468,385.39158 C516.957651,390.791658 514.826275,392.504593 509.399486,392.233048 C496.085725,391.566662 492.14444,387.756224 492.135633,374.225941 C492.119486,351.75522 492.129761,329.284499 492.134165,306.81231 C492.134165,305.103778 491.69233,303.198559 492.289761,301.723409 C494.077651,297.306765 489.380404,289.317469 499.089028,289.154542 C511.326826,288.949048 516.389578,292.4351 516.675817,302.605563 C517.067743,316.514542 516.772697,330.442602 516.772697,344.361855 L516.846092,344.361855" id="Fill-127" fill="#046DB7" sketch:type="MSShapeGroup"></path>
                <path d="M434.514936,179.643646 C434.029064,177.022136 435.532183,172.800711 432.098789,172.769887 C428.351266,172.736127 430.096587,176.976633 430.070165,179.275226 C430.043743,181.61932 428.415853,185.831938 432.079706,185.939088 C436.026862,186.053578 433.653284,181.730874 434.514936,179.643646 M425.973284,179.932805 C426.603009,174.694187 423.535119,167.846848 432.998606,169.809312 C436.329248,170.499183 437.631266,172.034513 437.678239,175.103706 C437.719339,177.778058 437.516771,180.462685 437.679706,183.126762 C438.00411,188.403543 435.310532,189.56605 430.517872,189.588067 C424.823927,189.614488 425.911633,186.047706 425.970349,182.736324 C425.992367,181.520977 425.973284,180.305629 425.973284,179.932805" id="Fill-129" fill="#046DB7" sketch:type="MSShapeGroup"></path>
                <path d="M494.628697,188.860767 C494.581725,188.857831 494.534752,188.856363 494.48778,188.853427 C494.48778,186.16293 494.530349,183.472432 494.471633,180.783402 C494.433468,179.042578 494.214752,176.959754 492.224294,176.677934 C489.671633,176.31832 489.937321,178.917814 489.727413,180.340123 C488.222826,190.539942 489.143193,200.816088 489.085945,211.059942 C489.078606,212.470509 489.991633,214.008775 491.874936,213.693196 C493.45145,213.42899 493.251817,211.912741 493.323743,210.763445 C493.781725,203.46402 494.198606,196.161659 494.628697,188.860767 M486.161908,194.545599 C486.161908,189.195427 486.020991,183.839385 486.22356,178.495084 C486.318972,175.974852 486.126679,172.832269 490.283743,173.042166 C493.718606,173.216835 497.143193,174.062294 497.210716,177.978415 C497.41622,190.128955 497.20778,202.289771 496.997872,214.443247 C496.942092,217.685642 494.294018,217.352449 492.112734,217.108792 C488.672,216.722758 485.956404,215.360629 485.916771,211.33002 C485.862459,205.736191 485.90356,200.140895 485.90356,194.545599 L486.161908,194.545599" id="Fill-131" fill="#046DB7" sketch:type="MSShapeGroup"></path>
                <path d="M265.652844,203.817175 L265.520734,203.817175 C265.520734,209.441827 265.486972,215.067948 265.542752,220.691132 C265.557431,222.081149 265.347523,223.904171 267.357064,224.118471 C269.833394,224.381209 269.981651,222.453973 269.993394,220.695536 C270.062385,209.446231 270.106422,198.196926 270.125505,186.947621 C270.12844,185.416694 269.751193,183.783021 267.894312,183.777149 C266.022752,183.771278 265.67633,185.41963 265.667523,186.943218 C265.630826,192.56787 265.652844,198.192523 265.652844,203.817175 M261.988991,204.460076 C261.988991,198.364257 262.248807,192.253759 261.908257,186.177021 C261.622018,181.06757 264.804404,180.907579 268.39633,180.521544 C272.45945,180.084136 273.692477,182.369518 273.664587,185.716128 C273.555963,198.152892 273.454679,210.592591 273.080367,223.022016 C272.907156,228.790514 267.772477,226.776677 264.691376,227.476823 C260.522569,228.425029 261.558899,224.911089 261.52367,222.750471 C261.420917,216.654652 261.486972,210.555896 261.486972,204.460076 L261.988991,204.460076" id="Fill-133" fill="#046DB7" sketch:type="MSShapeGroup"></path>
                <path d="M509.493431,342.218851 C509.493431,354.435443 509.549211,366.652035 509.440587,378.86716 C509.421505,381.03952 510.450495,384.141005 506.576734,384.449245 C502.953982,384.736936 500.344073,383.297014 499.438385,379.646567 C499.093431,378.25655 499.262239,376.730027 499.262239,375.266619 C499.254899,352.054653 499.180037,328.844155 499.340037,305.633658 C499.364991,302.153477 497.804624,296.744593 503.988844,296.879632 C509.227743,296.992653 509.468477,301.437185 509.453798,305.570542 C509.411229,317.787134 509.437651,330.002258 509.437651,342.218851 L509.493431,342.218851 Z" id="Fill-135" fill="#042860" sketch:type="MSShapeGroup"></path>
                <path d="M434.514936,179.643646 C433.653284,181.730874 436.026862,186.053578 432.079706,185.939088 C428.415853,185.831938 430.043743,181.61932 430.070165,179.275226 C430.096587,176.976633 428.351266,172.736127 432.098789,172.769887 C435.532183,172.800711 434.029064,177.022136 434.514936,179.643646" id="Fill-137" fill="#042860" sketch:type="MSShapeGroup"></path>
                <path d="M494.628697,188.860767 C494.198606,196.161659 493.781725,203.46402 493.323743,210.763445 C493.251817,211.912741 493.45145,213.42899 491.874936,213.693196 C489.991633,214.008775 489.078606,212.470509 489.085945,211.059942 C489.143193,200.816088 488.222826,190.539942 489.727413,180.340123 C489.937321,178.917814 489.671633,176.31832 492.224294,176.677934 C494.214752,176.959754 494.433468,179.042578 494.471633,180.783402 C494.530349,183.472432 494.48778,186.16293 494.48778,188.853427 C494.534752,188.856363 494.581725,188.857831 494.628697,188.860767" id="Fill-139" fill="#042860" sketch:type="MSShapeGroup"></path>
                <path d="M265.652844,203.817175 C265.652844,198.192523 265.630826,192.56787 265.667523,186.943218 C265.67633,185.41963 266.022752,183.771278 267.894312,183.777149 C269.751193,183.783021 270.12844,185.416694 270.125505,186.947621 C270.106422,198.196926 270.062385,209.446231 269.993394,220.695536 C269.981651,222.453973 269.833394,224.381209 267.357064,224.118471 C265.347523,223.904171 265.557431,222.081149 265.542752,220.691132 C265.486972,215.067948 265.520734,209.441827 265.520734,203.817175 L265.652844,203.817175" id="Fill-141" fill="#042860" sketch:type="MSShapeGroup"></path>
            </g>
        </g>
    </g>
</svg>