<?xml version="1.0" encoding="UTF-8" standalone="no"?>
<svg width="800px" height="800px" viewBox="0 0 800 800" version="1.1" xmlns="http://www.w3.org/2000/svg" xmlns:xlink="http://www.w3.org/1999/xlink" xmlns:sketch="http://www.bohemiancoding.com/sketch/ns">
    <!-- Generator: Sketch 3.4.4 (17249) - http://www.bohemiancoding.com/sketch -->
    <title>raptors</title>
    <desc>Created with Sketch.</desc>
    <defs>
        <path id="path-1" d="M0,0.393409379 L799.457541,0.393409379 L799.457541,800 L0,800"></path>
    </defs>
    <g id="Page-1" stroke="none" stroke-width="1" fill="none" fill-rule="evenodd" sketch:type="MSPage">
        <g id="raptors" sketch:type="MSArtboardGroup">
            <g id="Page-1" sketch:type="MSLayerGroup">
                <g id="Group-3">
                    <mask id="mask-2" sketch:name="Clip 2" fill="white">
                        <use xlink:href="#path-1"></use>
                    </mask>
                    <g id="Clip-2"></g>
                    <path d="M778.270418,400.715336 C779.234677,192.086692 610.721622,24.4912548 406.433663,21.3936629 C190.596907,18.1206591 23.9870215,190.3782 20.8123701,393.088466 C17.4105957,610.323447 191.821749,776.552091 394.279544,779.051458 C608.427072,781.695817 779.375615,607.648669 778.270418,400.715336 M0.00324461343,399.914322 C-0.760253485,182.686439 176.274981,-1.96755387 404.249632,0.416223067 C624.547731,2.72091255 799.755843,182.305196 799.45673,400.983016 C799.156603,620.210393 620.480811,802.609379 394.569531,799.972117 C174.905146,797.406844 -0.796755387,617.855006 0.00324461343,399.914322" id="Fill-1" fill="#BD1035" sketch:type="MSShapeGroup" mask="url(#mask-2)"></path>
                </g>
                <path d="M264.488517,238.847351 C264.233004,238.819975 263.97749,238.792598 263.721977,238.764208 C263.836553,238.849379 263.947072,238.991331 264.068745,239.002484 C264.202586,239.014651 264.347579,238.90616 264.488517,238.847351 M444.174195,189.623523 C445.573435,191.530748 447.358986,192.05597 449.061394,192.669404 C467.689531,199.374601 482.922991,211.223523 497.028948,224.652167 C511.742256,238.657744 524.148847,254.564461 534.55493,272.005272 C536.554423,275.355336 538.685729,276.244563 542.397769,274.477262 C549.195234,271.24076 554.161521,266.294753 558.227427,260.059011 C560.7491,256.190824 560.662915,253.107427 557.678885,249.616426 C549.504487,240.049886 539.513105,232.418961 529.369632,225.391331 C508.934651,211.232649 486.522484,200.662307 462.662408,193.408568 C456.7491,191.609835 450.794221,189.769531 444.174195,189.623523 M406.091559,646.807807 L406.091559,647.033916 L385.332117,647.033916 C377.529835,647.033916 377.447706,647.035944 377.653536,655.025805 C377.766084,659.362433 375.749354,665.038479 378.491052,667.668644 C381.218555,670.283599 386.857085,668.377389 391.185602,668.191838 C394.834778,668.034677 395.972421,668.866109 395.985602,672.805272 C396.061648,696.080304 396.54834,719.353308 396.711584,742.62834 C396.732877,745.704639 397.407148,746.820989 400.607148,746.554322 C404.464183,746.232902 408.400304,746.051407 412.234018,746.457997 C416.613232,746.921369 417.429455,745.29602 417.356451,741.198682 C416.949861,718.257237 416.910317,695.308695 416.5818,672.364208 C416.536172,669.135817 417.285475,667.857237 420.714626,668.120862 C424.401318,668.403752 428.132624,668.134043 431.842636,668.064081 C434.113866,668.021496 435.054804,666.97815 434.90474,664.555843 C434.613739,659.849125 434.422104,655.119087 434.567098,650.410342 C434.655311,647.526692 433.789404,646.675995 430.89967,646.741901 C422.634018,646.92948 414.361267,646.807807 406.091559,646.807807 M118.860127,242.786515 C119.18763,241.212877 117.490292,241.25749 116.612218,240.84076 C112.363802,238.825044 107.885222,237.251407 103.787883,234.980177 C100.660887,233.246337 99.4259062,233.749252 98.0144994,237.013131 C92.0190621,250.875741 85.7387072,264.615665 79.5577186,278.398175 C76.4641825,285.298048 76.4449176,285.328466 83.429962,288.413891 C87.533384,290.225805 92.5838276,294.191331 95.5790114,293.020228 C98.6370596,291.824791 100.034271,285.648872 101.537947,281.432902 C102.776984,277.958124 104.205627,277.76142 107.318428,279.177896 C127.017288,288.14621 146.796248,296.937085 166.55493,305.774601 C174.648213,309.394373 174.657338,309.383219 178.28725,301.541394 C179.346819,299.252928 180.161014,296.81744 181.474068,294.688162 C183.5273,291.360406 182.381546,290.023016 179.071027,288.565982 C158.49308,279.505399 138.117921,269.978403 117.434525,261.170292 C112.242129,258.958885 111.876096,256.959392 114.446439,252.637972 C116.233004,249.635691 117.347326,246.233916 118.860127,242.786515 M664.267478,171.55711 C652.583828,159.124157 641.375716,146.957871 629.875589,135.072446 C624.847452,129.874981 624.555437,130.116299 619.381293,135.349252 C616.319189,138.44583 611.155184,141.466362 610.916907,144.805272 C610.66545,148.336831 616.057592,151.404005 619.33161,154.24 C622.697896,157.155082 621.952649,158.844309 619.127807,161.664081 C602.769886,177.997668 586.663422,194.581698 570.355184,210.965982 C568.328314,213.001977 568.328314,214.055463 570.352142,216.071179 C574.411965,220.115792 578.117921,224.514271 582.001318,228.802231 C583.476603,227.396907 584.092066,226.843295 584.671027,226.253181 C601.206388,209.386261 617.761014,192.538606 634.240608,175.616933 C636.306008,173.495767 637.849227,171.894753 640.463169,175.036958 C642.827681,177.878023 645.72147,180.272953 648.272548,182.96801 C649.640355,184.414905 650.601572,184.965475 652.311077,183.210342 C656.642636,178.761166 661.196248,174.527959 664.267478,171.55711 M611.314373,340.442281 C611.051762,339.494246 610.890545,338.838226 610.690798,338.195387 C602.296375,311.239747 589.808669,286.464081 571.765577,264.594373 C569.421343,261.752294 568.216781,261.336578 566.103726,264.818454 C561.37673,272.608568 554.835792,278.80071 546.689785,282.776375 C542.398783,284.870165 542.252776,287.010596 544.162028,290.577643 C551.268745,303.859265 556.041369,318.044309 559.955184,332.519341 C560.748086,335.453688 562.373435,335.723397 564.728821,335.645323 C579.605374,335.153561 594.393714,335.315792 608.415513,341.407554 C609.519696,341.887148 611.081166,342.276502 611.314373,340.442281 M616.764309,432.128973 C617.226667,431.285374 617.589658,430.899062 617.64948,430.472193 C620.939721,406.773333 620.702459,383.188035 616.100177,359.619975 C615.080152,354.398175 612.755184,351.622003 607.94403,350.017947 C594.810444,345.636705 581.287503,344.694753 567.581039,344.801217 C564.113359,344.828593 563.585095,346.509708 564.048466,349.263574 C565.079645,355.396907 566.054043,361.543422 567.217034,367.653435 C569.239848,378.286641 568.915387,389.105399 569.843143,399.823777 C570.120963,403.029861 571.664183,403.949506 574.469759,404.64 C584.175209,407.030875 593.29967,410.670925 601.408162,416.819468 C607.170393,421.189556 611.961267,426.44076 616.764309,432.128973 M339.342763,655.609835 C337.610951,651.131255 335.70474,646.827072 334.302459,642.364715 C333.252015,639.018707 331.328568,637.135817 328.084968,635.855209 C317.006641,631.48512 305.911077,627.115032 295.080152,622.177136 C290.933131,620.286134 289.850241,621.513004 288.381039,625.110469 C278.355184,649.652928 268.096122,674.100076 257.997262,698.614144 C256.156958,703.082586 251.648973,708.36218 253.451762,711.888669 C255.161267,715.230621 261.818809,715.918074 266.139214,718.091965 C268.786616,719.424284 269.912091,718.709455 270.935158,716.174601 C274.578251,707.154575 278.62692,698.288669 281.991179,689.168264 C283.411711,685.318327 285.016781,685.241267 288.178251,686.76725 C292.252269,688.734297 296.778504,689.874981 300.623371,692.183726 C308.19346,696.727199 315.113612,696.595387 322.194981,691.244816 C324.229962,689.706667 325.981039,688.409835 326.9818,685.882079 C330.500177,676.991838 334.307529,668.216172 337.985095,659.388796 C338.495108,658.16294 338.886489,656.888416 339.342763,655.609835 M201.58256,685.698555 C216.584842,655.202231 231.363042,625.077009 246.265957,595.012624 C247.520203,592.481825 247.484715,590.930494 245.211458,589.09019 C241.677871,586.230875 238.224385,583.216426 235.113612,579.914018 C233.074575,577.749252 231.530342,577.705653 229.116147,579.162687 C200.315133,596.541648 171.464436,613.837465 142.053029,631.499316 C143.158226,632.350013 144.151888,633.014144 145.028948,633.809075 C148.652776,637.089176 152.339468,640.310469 155.800051,643.756857 C157.546058,645.496781 158.860127,644.953308 160.631483,643.953561 C164.416527,641.8182 168.186362,637.225044 171.928821,638.102104 C175.824385,639.014651 178.843904,643.663574 182.244664,646.679037 C182.370393,646.79057 182.480913,646.920355 182.604613,647.03493 C185.944537,650.123397 190.902712,652.661293 192.18839,656.447351 C193.596755,660.588289 189.063422,664.813384 187.251508,669.057744 C186.655311,670.45597 185.926286,671.572319 187.57597,672.995894 C192.282687,677.057744 196.802839,681.335564 201.58256,685.698555 M696.26038,539.889683 C696.283701,540.370292 696.491559,540.94621 696.301952,541.319341 C693.933384,545.964208 691.531356,550.593866 689.080659,555.196147 C688.238074,556.777896 686.823625,555.971812 686.089531,555.331001 C681.218555,551.082586 679.430976,554.467123 677.76,558.494499 C677.247959,559.728466 676.50474,560.866109 675.876096,562.052421 C671.164309,570.951787 671.160253,570.961926 680.156958,575.755843 C683.348847,577.456223 686.186869,578.645577 690.402839,577.906413 C701.097896,576.031635 707.639848,570.282586 711.166337,560.316553 C712.107275,557.656984 713.536933,555.070418 715.197769,552.781952 C720.905247,544.919848 721.772167,536.968517 717.516654,527.991077 C715.925779,524.63493 714.596502,522.026058 711.11564,520.360152 C704.143777,517.022256 697.284461,513.418707 690.562028,509.602231 C687.417795,507.817693 684.672041,507.98398 681.182053,508.536578 C670.898657,510.164968 664.201572,515.413131 661.004613,525.327452 C660.346565,527.371559 658.803346,529.116553 658.024639,531.137338 C656.72071,534.519848 654.150368,536.753561 650.860127,536.221242 C647.349861,535.652421 643.653029,534.098048 641.603853,530.784487 C640.407402,528.848872 639.946058,526.581698 641.508542,524.201977 C643.340735,521.410596 644.969125,518.41744 646.206134,515.319848 C647.587123,511.862307 649.316907,510.864588 652.433764,513.266616 C654.607655,514.940634 655.865957,514.220735 656.996502,511.84 C659.085222,507.441521 661.490292,503.195133 663.717921,498.86256 C664.211711,497.903371 665.144537,497.0618 663.993714,495.73455 C661.26621,492.590317 650.351128,489.692471 646.154423,490.262307 C636.228948,491.610849 629.68294,496.554829 626.592446,506.205526 C625.736679,508.877262 624.314119,511.515539 622.591432,513.735057 C615.960253,522.275488 615.49891,531.171812 620.090038,540.75052 C621.345298,543.369531 622.325779,545.579924 625.300684,546.990317 C632.885982,550.587782 640.285729,554.604005 647.597262,558.738859 C650.334905,560.286134 652.707529,559.909962 655.601318,559.50033 C666.650241,557.937845 673.745805,552.034677 677.231736,541.514018 C677.804613,539.786261 679.106515,538.304892 679.712852,536.583219 C681.061394,532.759645 684.211711,530.957871 687.508035,532.01744 C691.219062,533.210849 695.970393,534.366743 696.26038,539.889683 M338.954423,160.060025 C330.754677,151.534804 322.863169,143.229607 314.834778,135.059265 C313.013739,133.206793 311.708796,131.385754 312.948847,128.87929 C317.113105,120.46256 315.923752,112.53455 311.252522,104.722129 C309.797516,102.289683 308.422611,99.6361977 307.811204,96.9056527 C305.246946,85.4521673 297.72147,79.5145247 286.817541,76.7566033 C284.569632,76.187782 282.801318,75.9353105 280.614246,76.9066667 C268.7927,82.1578707 256.957972,87.3887959 244.995488,92.3053992 C241.522738,93.7330292 241.393967,95.3026109 242.867224,98.2481115 C244.74403,101.997668 246.265957,105.925678 247.938961,109.778657 C258.304487,133.651914 268.733891,157.497795 278.959493,181.430875 C280.318175,184.613638 281.452776,185.551534 284.68218,183.700076 C287.717921,181.960152 291.056831,180.672446 294.381546,179.535817 C297.540989,178.45597 298.400811,177.288923 296.742003,173.888162 C293.067478,166.351534 289.940482,158.545196 286.671534,150.814905 C286.247706,149.813131 285.20436,148.82251 285.866464,147.573333 C287.265703,144.935057 295.220076,143.728466 297.458859,145.868897 C304.168112,152.283093 310.955437,158.625298 317.429455,165.271686 C319.730089,167.633156 321.496375,167.900837 324.362788,166.464081 C329.157719,164.060025 334.185856,162.123397 338.954423,160.060025 M112.295868,590.893992 C120.13161,581.775615 127.773688,573.021242 135.227174,564.108695 C136.990418,562.00071 138.917921,561.017186 141.305754,562.05749 C150.286236,565.969278 158.137186,563.401977 165.745805,558.352548 C168.247199,556.691711 170.910824,555.032902 173.742763,554.157871 C183.973435,550.995387 189.030976,543.821749 191.02033,533.694499 C191.625653,530.616172 191.965323,528.085374 190.338961,525.104385 C184.385095,514.190317 178.586362,503.181952 173.109049,492.02251 C171.423878,488.589303 170.162535,488.209075 166.828695,489.963194 C139.928821,504.120862 112.961014,518.147731 85.9080355,532.010342 C82.7759696,533.615412 82.8510013,534.931508 84.3800253,537.479544 C86.2740684,540.633916 88.1346515,543.859265 89.5146261,547.25597 C90.7739417,550.355589 92.0433967,550.827072 95.0183016,549.146971 C101.888771,545.266616 108.918428,541.648872 116.020076,538.207554 C117.571407,537.455209 119.800051,534.272446 121.379772,537.557617 C122.827681,540.569024 127.18763,543.211356 123.227174,547.660532 C116.951888,554.709455 111.047706,562.090951 105.052269,569.386261 C103.873054,570.820989 102.162535,571.944436 103.721977,574.559392 C106.806388,579.731508 109.359493,585.218961 112.295868,590.893992 M436.524005,103.527706 C436.524005,92.5517871 436.430722,81.5738403 436.587883,70.5999493 C436.628441,67.821749 435.43706,66.0676299 433.857338,63.9637009 C427.545551,55.5520406 419.509049,51.9951331 409.042129,53.7107224 C406.246692,54.1690241 403.250494,54.1639544 400.453029,53.7107224 C390.702966,52.1340431 383.304233,55.4029911 377.284461,63.2194677 C375.029455,66.1467174 373.436553,68.588289 373.473054,72.4726996 C373.669759,93.2412674 373.652522,114.012877 373.48725,134.782459 C373.456831,138.601977 374.867224,141.117567 377.203346,144.065095 C383.202839,151.638226 390.433257,154.804766 399.990672,153.291965 C403.285982,152.769785 406.805374,152.758631 410.096629,153.292978 C420.071787,154.910215 427.53237,151.390824 433.580532,143.481065 C435.423878,141.069911 436.644664,139.063321 436.592953,135.949506 C436.413485,125.144943 436.524005,114.335311 436.524005,103.527706 M658.278124,638.375868 C648.382053,633.175361 638.973688,627.953561 629.300684,623.276248 C625.117161,621.253435 623.406641,618.846337 623.739214,614.114271 C624.048466,609.726946 624.673054,605.094246 621.157719,601.159138 C614.524512,593.736071 608.181293,586.054449 601.704233,578.492471 C599.366084,575.76294 582.352142,572.992852 579.342763,574.843295 C578.917921,575.104892 578.573181,575.498302 578.187883,575.826819 C568.039341,584.478783 557.939468,593.188542 547.69967,601.732015 C545.606895,603.478023 545.064436,604.548745 547.049734,606.871686 C567.121724,630.34545 587.105501,653.896274 607.030469,677.494753 C608.685222,679.454702 609.751888,679.884613 611.786869,678.020989 C615.640862,674.491458 619.730089,671.21744 623.936933,667.653435 C617.96076,660.657237 611.964309,653.809075 606.213232,646.761166 C605.004613,645.279797 601.366591,643.552041 604.421597,641.214905 C607.024385,639.223523 608.555437,634.334297 613.879645,637.396401 C622.186869,642.172066 630.901698,646.241014 639.468492,650.56142 C640.858606,651.262053 642.105754,652.42403 643.923752,650.758124 C648.508796,646.555336 653.331103,642.612117 658.278124,638.375868 M550.427174,700.588289 C549.913105,699.136324 549.491305,697.866869 549.017795,696.617693 C541.585602,677.013131 534.012471,657.459265 526.823625,637.765475 C525.37673,633.799949 523.058859,631.771052 519.553663,629.681318 C511.304233,624.764715 503.462408,624.449379 495.118682,629.113511 C492.222864,630.731762 488.991432,632.016426 485.753916,632.708948 C476.166084,634.759138 470.529582,640.444309 467.57597,649.744183 C466.438327,653.326439 466.04289,656.134043 467.433004,659.686895 C473.972928,676.39564 480.772421,693.038479 486.375463,710.06763 C489.516654,719.610849 494.477871,725.980431 504.192446,728.831635 C507.209937,729.71782 509.722484,730.384994 512.822104,729.108441 C520.725779,725.853688 528.703473,722.747985 536.789658,719.984994 C541.003599,718.54621 544.150875,716.642028 545.600811,712.120862 C546.875336,708.147224 548.809937,704.384487 550.427174,700.588289 M650.090545,312.514271 C651.227174,312.094499 652.349607,311.77815 653.386869,311.283346 C673.41526,301.733029 693.43858,292.170545 713.44365,282.573587 C714.63199,282.003752 716.389151,281.314271 716.658859,280.340887 C718.919949,272.182712 725.644411,264.53962 719.051762,255.303625 C716.363802,251.538859 714.41602,247.056223 712.980279,242.625298 C709.976984,233.351787 704.189404,227.831888 694.516401,225.777643 C690.950368,225.020228 688.090038,224.479797 684.608162,226.192345 C668.329328,234.202484 652.148847,242.491458 635.447199,249.529227 C626.057085,253.485627 620.536172,259.233663 618.530596,269.098302 C617.935412,272.030621 617.546058,274.399189 618.942256,277.173333 C622.494094,284.227326 626.575209,291.158631 628.976223,298.612117 C632.449987,309.398428 642.386616,308.810342 650.090545,312.514271 M206.028695,240.197921 C213.290545,241.984487 218.395741,239.11199 222.663422,233.523143 C225.308796,230.061546 228.358733,226.703371 231.839594,224.126946 C240.148847,217.979417 242.955437,210.099062 241.344284,200.07929 C240.873815,197.158124 240.46621,194.791584 238.132117,192.566996 C225.185095,180.233409 211.981546,168.114778 199.799037,155.053181 C192.611204,147.347224 185.3818,142.670925 174.524512,144.757617 C171.484715,145.342662 168.942763,145.483599 166.688771,148.141141 C162.768872,152.762687 158.590418,157.273714 153.952649,161.152041 C146.614753,167.287402 142.755691,174.297795 144.215767,184.234423 C144.75924,187.934297 145.471027,190.770292 148.223878,193.399442 C162.252776,206.803752 176.29384,220.202991 189.966844,233.96725 C194.650241,238.682079 199.133891,242.368771 206.028695,240.197921 M490.895615,169.228086 C498.290292,151.815665 505.519696,134.794626 512.748086,117.774601 C513.879645,119.793359 514.160507,121.596147 514.28218,123.410089 C515.303219,138.541141 517.218555,153.68943 516.967098,168.801217 C516.801825,178.75711 520.500684,183.594626 529.48218,185.668137 C529.96076,185.778657 530.395741,186.082839 530.849987,186.299823 C532.711584,187.190063 533.845171,187.359392 534.911838,184.811356 C546.972674,156.013384 559.17749,127.275234 571.468492,98.5735868 C572.398276,96.4027376 571.906515,95.632142 569.99929,94.866616 C566.107782,93.3041318 562.145298,91.8501394 558.435285,89.9236502 C555.461394,88.379417 554.24872,89.0121166 553.015767,92.0559696 C548.038327,104.334804 542.839848,116.525425 537.617034,128.702864 C536.846439,130.502611 536.492573,132.719087 533.861394,134.543169 C533.861394,132.067123 533.86545,130.453942 533.86038,128.84076 C533.818809,113.646844 533.708289,98.4529278 533.796502,83.2600253 C533.811711,80.5487452 533.206388,79.0673764 530.460634,78.0889227 C525.404106,76.2881622 520.458099,74.135564 515.594221,71.857237 C513.213485,70.7419011 512.199544,70.9740938 511.114626,73.5525475 C499.128821,102.028086 487.047706,130.463067 474.861141,158.852421 C473.799544,161.326439 474.188897,162.375868 476.569632,163.303625 C481.259113,165.131762 485.877617,167.14038 490.895615,169.228086 M479.966337,599.748745 C480.105247,600.025551 480.244157,600.302357 480.383067,600.579163 C483.056831,599.763954 485.828948,599.179924 488.389151,598.098048 C526.500177,581.992598 557.263169,556.758631 580.924512,522.914271 C596.727807,500.308441 607.87711,475.551027 614.116907,448.623777 C614.56507,446.69019 614.570139,445.13379 613.585602,443.34621 C605.145551,428.021496 591.581039,419.603752 575.314373,414.856477 C571.307275,413.686388 569.388897,415.405019 569.227681,419.653435 C568.440862,440.431128 564.991432,460.703878 559.395488,480.803245 C553.419316,502.275488 544.584842,522.236958 533.243904,541.32948 C523.160253,558.304892 511.122738,573.544436 496.266464,586.516806 C490.999037,591.11706 485.409176,595.348238 479.966337,599.748745 M514.814499,279.935311 C516.672041,279.935311 518.532624,279.990063 520.388137,279.925171 C526.56507,279.708188 527.323498,278.491458 523.926793,273.074981 C501.58256,237.448112 472.927554,209.146971 432.622357,194.231888 C410.843904,186.172066 388.493587,185.191584 365.861394,188.445323 C352.660887,190.343422 340.166084,194.909202 327.770646,199.924157 C306.336933,208.596401 286.599544,220.002231 268.470266,234.272446 C267.371153,235.137338 265.208416,235.955589 266.293333,237.675234 C267.143016,239.021749 269.017795,238.16801 270.471787,237.631635 C280.755184,233.835437 291.031483,230.022003 301.354423,226.336324 C310.058099,223.227579 318.685729,219.849125 328.315133,221.271686 C337.834018,222.678023 347.446185,223.182966 357.07052,223.265095 C359.36,223.285374 361.475082,223.716299 363.03858,225.503878 C369.329075,232.697795 377.001572,236.166489 386.664436,234.443802 C387.314373,234.327199 388.044411,234.357617 388.68218,234.524918 C393.571407,235.810596 399.030469,233.850646 403.538454,236.500076 C409.228695,239.84507 415.317414,242.335311 421.078631,245.480558 C425.915133,248.120862 430.568112,250.659772 435.969379,246.855463 C436.556451,246.442788 437.645425,246.418454 438.397769,246.613131 C446.774956,248.784994 454.113866,252.992852 460.897136,258.264335 C463.526286,260.307427 464.949861,263.904892 468.444918,264.742408 C473.673815,265.99564 479.124766,266.552294 481.679899,272.468644 C482.03782,273.29602 483.641876,273.678276 484.737947,274.079797 C494.448466,277.637719 504.33744,280.32872 514.814499,279.935311 M407.561774,614.79057 C412.176223,615.070418 416.64872,613.920608 421.161774,613.391331 C433.79346,611.909962 446.116907,608.842788 457.51564,603.208314 C480.264436,591.961673 498.080406,574.507681 513.043143,554.6182 C531.541496,530.0291 544.381039,502.421496 551.69967,472.29019 C555.932877,454.858504 558.701952,437.285881 559.842636,419.433409 C560.190418,413.986515 558.993967,413.189556 553.68294,414.120355 C543.483701,415.907934 533.93744,419.477009 524.487503,423.712243 C515.375209,427.797414 508.686236,436.369278 498.111838,437.618454 C496.650748,437.790824 496.020076,439.326946 495.536426,440.555843 C491.746312,450.188289 484.461141,456.309455 475.654043,461.188542 C469.279392,464.720101 462.103726,467.861293 461.709303,476.863067 C461.695108,477.171305 461.431483,477.46839 461.279392,477.769531 C456.076857,488.097541 454.229455,499.430368 451.841622,510.553308 C451.341749,512.882332 450.783067,514.143676 448.806895,515.029861 C446.500177,516.065095 444.317161,517.528213 441.911077,518.155843 C438.902712,518.941648 438.015513,520.942155 437.488264,523.553054 C435.891305,531.463828 432.506768,538.940634 431.897389,547.10692 C431.721977,549.464335 430.451508,551.550013 429.115133,553.544436 C422.739468,563.060279 416.352649,572.571052 410.108796,582.174094 C407.937947,585.513004 405.42033,588.31858 401.750875,589.975361 C398.309556,591.529734 395.703726,593.620482 396.567605,597.974347 C396.96507,599.977896 395.379265,600.53962 394.079392,601.26256 C388.783574,604.210089 383.47052,607.124157 378.180786,610.081825 C377.183067,610.639493 375.720963,611.098809 375.911584,612.479797 C376.134651,614.100076 377.781293,613.515032 378.824639,613.68943 C388.358733,615.286388 397.989151,614.372826 407.561774,614.79057 M191.559747,426.828086 C194.033764,426.130494 195.22109,424.197921 196.676096,422.698302 C205.022864,414.10109 213.41526,405.543422 221.5927,396.786008 C227.946058,389.981445 235.658099,386.555336 244.878885,386.506667 C247.317414,386.493485 248.867731,385.561673 250.388644,383.684867 C252.024132,381.666109 253.285475,378.89602 256.292826,378.500583 C262.463676,377.68943 268.645678,376.911736 274.845932,376.405779 C277.101952,376.221242 278.769886,375.586515 280.733891,374.333283 C285.800558,371.099823 290.144284,365.835437 296.18839,365.179417 C303.484715,364.386515 310.989911,364.52948 318.386616,365.693485 C325.106008,366.752041 331.217034,366.159899 336.153916,360.219214 C340.340482,355.181952 345.461901,350.919341 350.184842,346.331255 C353.5491,343.063321 365.585602,340.61161 369.609937,342.971052 C374.098657,345.603245 378.450494,345.405526 383.105501,344.104639 C387.075082,342.995387 390.975716,342.27346 393.944537,346.363701 C395.175463,348.062053 397.107022,347.954575 399.024385,347.870418 C406.233511,347.554068 413.447706,347.138352 420.656831,347.188035 C422.932117,347.204259 424.808923,346.914271 426.884461,346.009835 C436.597009,341.778657 446.423118,337.808061 456.157972,333.626565 C458.504233,332.619721 460.497643,332.561926 462.868238,333.705653 C467.424892,335.903878 471.968365,338.750013 477.248973,334.918327 C478.661394,333.893232 480.81602,335.022763 482.650241,335.303625 C491.772674,336.70185 500.515894,341.005019 509.699163,340.692725 C522.460634,340.259772 535.164309,338.195387 547.900431,336.899569 C550.201065,336.665349 551.269759,336.133029 550.396755,333.453181 C545.961774,319.842028 541.521724,306.258251 535.05379,293.40654 C533.261141,289.844563 531.330596,288.504132 527.279899,288.913764 C512.516907,290.4073 498.039848,288.760659 483.991686,283.87853 C479.209937,282.216679 474.503219,280.629861 469.296629,280.602484 C463.898403,280.574094 458.951381,279.206286 454.477871,275.497288 C452.125526,273.548492 450.216274,270.777389 446.921977,269.831381 C438.750621,267.486134 429.877617,269.461293 421.938454,265.654956 C420.978251,265.194626 419.60436,265.555589 418.425146,265.601217 C409.157719,265.958124 399.864943,266.02403 390.629962,266.780431 C380.494601,267.610849 370.072294,267.525678 361.505501,274.712497 C355.679392,279.60071 348.953916,281.217947 341.109049,280.16142 C333.972928,279.200203 326.602586,280.104639 319.366084,279.666616 C317.152649,279.532776 315.63782,279.710215 313.947579,281.080051 C307.656071,286.176122 301.162788,291.028847 294.953409,296.219214 C292.833257,297.991584 291.134905,298.568517 288.692319,297.099316 C284.694347,294.69526 280.470266,294.444816 276.053536,296.061039 C271.572928,297.701597 266.887503,298.69019 262.244664,297.113511 C256.178251,295.054195 251.57597,297.692471 247.032497,301.065856 C234.433257,310.41744 222.209176,320.348999 209.073561,328.875234 C200.410444,334.499569 197.849227,342.48436 196.008923,351.437465 C193.088771,365.646844 191.145044,380.010342 190.330849,394.475234 C189.730596,405.15711 189.315894,415.916046 191.559747,426.828086 M560.04948,398.313004 C559.694601,393.822256 559.251508,390.297795 559.165323,386.765222 C558.861141,374.221749 556.290798,362.008821 553.968872,349.754322 C553.567351,347.63417 552.929582,345.438986 550.256831,345.945957 C539.5273,347.979924 528.179265,346.683093 517.987123,351.398935 C509.301698,355.416172 500.386109,355.192091 491.234271,354.296781 C484.567605,353.644816 478.201065,353.374094 472.334398,358.52289 C468.179265,362.169024 464.287757,367.387782 457.490292,366.85749 C450.69384,366.328213 445.943523,370.250139 440.815006,374.017947 C431.184588,381.092218 421.135412,387.65749 408.084968,384.548745 C406.044918,384.063067 404.388137,384.607554 402.797262,386.462053 C393.89891,396.831635 384.765323,406.999442 375.792953,417.307174 C373.90398,419.478023 371.825399,420.564968 368.883954,420.847858 C360.810951,421.624537 352.871787,423.128213 346.095615,428.062053 C338.456578,433.624537 329.998276,436.570038 320.582814,434.989303 C313.30981,433.767503 308.216781,436.428086 304.245171,442.142662 C301.9273,445.475488 298.338961,445.809075 294.824639,446.05749 C291.204867,446.313004 287.950114,447.238733 285.023878,449.456223 C276.82616,455.665602 268.586869,461.817186 260.33744,467.957617 C257.994221,469.702611 256.304994,471.721369 255.229202,474.595894 C252.393207,482.172066 249.045171,489.554575 246.09967,497.092218 C245.088771,499.676755 243.967351,501.245323 240.822104,501.33455 C236.460127,501.457237 232.037313,501.8618 227.784842,502.799696 C222.070266,504.061039 218.958479,508.894499 221.29967,512.286134 C226.951381,520.4727 232.636553,528.641014 238.535665,536.649125 C244.012978,544.085374 250.406895,550.116299 260.149861,551.967757 C265.363549,552.958378 270.247706,555.661546 275.302205,557.533283 C276.652776,558.033156 278.008416,559.265095 279.545551,558.032142 C284.067731,554.402231 288.707529,556.245577 293.466971,557.464335 C296.470266,558.232902 299.610444,560.086388 302.76583,558.143676 C309.397009,554.06256 316.595995,552.222256 324.329328,551.977896 C327.858859,551.866362 331.368112,551.07346 334.895615,550.989303 C338.194981,550.910215 339.950114,549.307174 341.610951,546.620228 C345.495361,540.334804 348.790672,533.654956 354.471787,528.556857 C361.114119,522.595894 367.386362,516.224284 373.87052,510.083853 C375.531356,508.511229 376.16,506.786515 376.598023,504.463574 C377.602839,499.141394 377.289531,492.500076 385.261141,491.743676 C386.843904,491.593612 387.29815,490.152801 387.993714,489.005019 C389.830976,485.973333 391.520203,482.827072 393.611965,479.979924 C396.920456,475.474981 398.802332,469.911483 404.722738,467.396907 C414.17166,463.382712 423.268745,458.542155 432.681166,454.432649 C435.961267,452.999949 438.049987,451.231635 438.623878,447.684867 C439.045678,445.074981 440.764309,443.606793 443.285982,443.003498 C446.711077,442.184233 450.785095,442.246084 453.41019,440.32872 C457.791432,437.127706 462.32071,437.318327 467.199797,436.857997 C474.029708,436.214144 480.92147,434.588796 483.889278,427.014651 C484.878885,424.486895 486.935158,423.770038 489.188137,422.876755 C493.513612,421.160152 499.003093,422.126439 502.23858,418.17815 C505.17597,414.592852 508.574702,413.88512 512.547326,415.057237 C516.057592,416.092471 519.034525,415.391838 522.265957,413.910469 C532.398276,409.265602 542.728314,405.15711 554.046946,404.36218 C558.32071,404.062053 561.418302,402.581698 560.04948,398.313004 M778.270013,400.715032 C779.376223,607.649379 608.426667,781.695513 394.279138,779.051153 C191.821343,776.551787 17.4101901,610.323143 20.8129785,393.088162 C23.9876299,190.37891 190.597516,18.1213688 406.434271,21.3933587 C610.721217,24.4919645 779.234271,192.086388 778.270013,400.715032" id="Fill-4" fill="#2A2723" sketch:type="MSShapeGroup"></path>
                <path d="M560.049886,398.313004 C561.418707,402.581698 558.321115,404.061039 554.046337,404.36218 C542.72872,405.15711 532.398682,409.265602 522.266362,413.910469 C519.033916,415.391838 516.056984,416.092471 512.547731,415.057237 C508.575108,413.88512 505.176375,414.592852 502.238986,418.17815 C499.003498,422.126439 493.514018,421.160152 489.188542,422.876755 C486.935564,423.770038 484.87929,424.486895 483.888669,427.014651 C480.921876,434.588796 474.0291,436.214144 467.199189,436.857997 C462.320101,437.318327 457.790824,437.127706 453.409582,440.32872 C450.784487,442.246084 446.710469,442.184233 443.285374,443.003498 C440.764715,443.606793 439.046084,445.074981 438.62327,447.684867 C438.049379,451.231635 435.961673,452.999949 432.681572,454.432649 C423.269151,458.542155 414.172066,463.382712 404.722129,467.396907 C398.802738,469.911483 396.920862,475.474981 393.61237,479.979924 C391.520608,482.827072 389.831381,485.973333 387.994119,489.005019 C387.298555,490.152801 386.844309,491.593612 385.261546,491.743676 C377.289937,492.500076 377.603245,499.141394 376.598428,504.463574 C376.159392,506.786515 375.530748,508.511229 373.869911,510.083853 C367.386768,516.224284 361.114525,522.595894 354.472193,528.556857 C348.791077,533.653942 345.495767,540.334804 341.610342,546.620228 C339.949506,549.307174 338.195387,550.910215 334.89602,550.989303 C331.368517,551.07346 327.858251,551.866362 324.329734,551.977896 C316.596401,552.222256 309.397414,554.06256 302.766236,558.143676 C299.610849,560.086388 296.470672,558.232902 293.466362,557.464335 C288.707934,556.245577 284.067123,554.402231 279.544943,558.032142 C278.008821,559.265095 276.652167,558.033156 275.301597,557.533283 C270.248112,555.661546 265.363954,552.958378 260.150266,551.967757 C250.406286,550.116299 244.013384,544.085374 238.536071,536.649125 C232.636958,528.641014 226.950773,520.4727 221.299062,512.286134 C218.958885,508.894499 222.070672,504.061039 227.784233,502.799696 C232.036705,501.8618 236.460532,501.457237 240.82251,501.33455 C243.966743,501.245323 245.089176,499.676755 246.099062,497.092218 C249.044563,489.554575 252.393612,482.172066 255.228593,474.595894 C256.304385,471.721369 257.994626,469.702611 260.337845,467.957617 C268.586261,461.817186 276.826565,455.665602 285.02327,449.456223 C287.95052,447.238733 291.204259,446.313004 294.825044,446.05749 C298.338352,445.809075 301.927706,445.475488 304.244563,442.142662 C308.217186,436.428086 313.309202,433.767503 320.583219,434.989303 C329.997668,436.570038 338.45597,433.624537 346.09602,428.062053 C352.871179,423.128213 360.811356,421.624537 368.883346,420.847858 C371.825805,420.564968 373.904385,419.478023 375.793359,417.307174 C384.764715,406.999442 393.898302,396.831635 402.796654,386.462053 C404.388542,384.607554 406.045323,384.063067 408.08436,384.548745 C421.135817,387.65749 431.184994,381.092218 440.815412,374.017947 C445.943929,370.250139 450.693232,366.328213 457.490697,366.85749 C464.288162,367.387782 468.178657,362.169024 472.334804,358.52289 C478.20147,353.374094 484.56801,353.644816 491.234677,354.296781 C500.386515,355.192091 509.302104,355.416172 517.986515,351.398935 C528.17967,346.683093 539.527706,347.979924 550.256223,345.945957 C552.928973,345.438986 553.567757,347.63417 553.969278,349.754322 C556.29019,362.008821 558.860532,374.221749 559.165729,386.765222 C559.251914,390.297795 559.695006,393.822256 560.049886,398.313004" id="Fill-6" fill="#8B8C8D" sketch:type="MSShapeGroup"></path>
                <path d="M191.559747,426.82839 C189.316907,415.91635 189.730596,405.157414 190.330849,394.475539 C191.145044,380.010646 193.088771,365.647148 196.008923,351.437769 C197.849227,342.484664 200.410444,334.498859 209.073561,328.875539 C222.209176,320.349303 234.433257,310.417744 247.032497,301.065146 C251.57597,297.692776 256.178251,295.053485 262.244664,297.113815 C266.887503,298.690494 271.572928,297.701901 276.05455,296.061343 C280.470266,294.44512 284.694347,294.695564 288.692319,297.09962 C291.135919,298.568821 292.833257,297.991888 294.953409,296.219518 C301.162788,291.028137 307.656071,286.176426 313.947579,281.080355 C315.63782,279.71052 317.152649,279.53308 319.366084,279.66692 C326.602586,280.104943 333.972928,279.200507 341.109049,280.161724 C348.953916,281.218251 355.679392,279.601014 361.505501,274.712801 C370.072294,267.524968 380.494601,267.611153 390.629962,266.780735 C399.865957,266.024335 409.157719,265.958428 418.425146,265.601521 C419.60436,265.555894 420.978251,265.19493 421.938454,265.65526 C429.877617,269.461597 438.750621,267.486439 446.921977,269.831686 C450.216274,270.777693 452.125526,273.548796 454.477871,275.497592 C458.951381,279.206591 463.898403,280.573384 469.296629,280.602788 C474.503219,280.630165 479.209937,282.216984 483.991686,283.878834 C498.039848,288.760963 512.516907,290.406591 527.279899,288.914068 C531.330596,288.503422 533.261141,289.844867 535.05379,293.406844 C541.522738,306.258555 545.961774,319.842332 550.396755,333.453485 C551.269759,336.133333 550.201065,336.665653 547.900431,336.899873 C535.164309,338.195691 522.460634,340.259062 509.699163,340.693029 C500.515894,341.005323 491.772674,336.702155 482.650241,335.303929 C480.81602,335.022053 478.661394,333.893536 477.248973,334.917617 C471.968365,338.750317 467.424892,335.904183 462.868238,333.705957 C460.497643,332.562231 458.504233,332.620025 456.158986,333.626869 C446.423118,337.808365 436.597009,341.778961 426.884461,346.010139 C424.808923,346.914575 422.932117,347.203549 420.656831,347.18834 C413.447706,347.138657 406.233511,347.554373 399.024385,347.870722 C397.107022,347.95488 395.175463,348.062357 393.944537,346.364005 C390.975716,342.27275 387.075082,342.994677 383.105501,344.104943 C378.450494,345.404816 374.098657,345.603549 369.609937,342.971356 C365.585602,340.611914 353.5491,343.062611 350.184842,346.331559 C345.461901,350.919645 340.340482,355.182256 336.153916,360.219518 C331.217034,366.160203 325.107022,366.751331 318.386616,365.69379 C310.989911,364.529785 303.484715,364.386819 296.18839,365.179721 C290.144284,365.835741 285.800558,371.100127 280.733891,374.333587 C278.7709,375.586819 277.101952,376.220532 274.845932,376.40507 C268.645678,376.912041 262.463676,377.689734 256.292826,378.500887 C253.286489,378.896324 252.024132,381.666413 250.388644,383.685171 C248.867731,385.561977 247.317414,386.49379 244.878885,386.506971 C235.658099,386.55564 227.946058,389.981749 221.5927,396.786312 C213.41526,405.543726 205.023878,414.101394 196.676096,422.698606 C195.22109,424.198226 194.033764,426.130798 191.559747,426.82839" id="Fill-8" fill="#8B8C8D" sketch:type="MSShapeGroup"></path>
                <path d="M407.562281,614.790976 C397.988644,614.372218 388.35924,615.286793 378.825146,613.689835 C377.7818,613.514423 376.135158,614.100482 375.911077,612.480203 C375.72147,611.099214 377.18256,610.639899 378.181293,610.082231 C383.471027,607.124563 388.784081,604.20948 394.079899,601.262966 C395.378758,600.540025 396.964563,599.977288 396.567098,597.973739 C395.704233,593.619873 398.309049,591.530139 401.751381,589.975767 C405.419823,588.318986 407.93744,585.513409 410.108289,582.174499 C416.353156,572.571458 422.738961,563.060684 429.11564,553.543828 C430.452015,551.550418 431.722484,549.46474 431.897896,547.107326 C432.506261,538.941039 435.891812,531.463219 437.488771,523.55346 C438.01602,520.941546 438.903219,518.941039 441.911584,518.156248 C444.317668,517.528619 446.49967,516.065501 448.807402,515.030266 C450.783574,514.144081 451.342256,512.881724 451.842129,510.5527 C454.228948,499.430773 456.07635,488.096933 461.279899,477.768923 C461.430976,477.468796 461.695615,477.170697 461.708796,476.863473 C462.104233,467.860684 469.278885,464.720507 475.65455,461.188948 C484.461648,456.308847 491.745805,450.188695 495.536933,440.556248 C496.020583,439.327351 496.650241,437.791229 498.111331,437.617845 C508.686743,436.369683 515.375716,427.79782 524.48801,423.712649 C533.937947,419.477414 543.484208,415.907326 553.683447,414.119747 C558.994474,413.188948 560.190925,413.98692 559.843143,419.433815 C558.702459,437.286286 555.93237,454.85891 551.699163,472.289582 C544.381546,502.420887 531.540989,530.029506 513.04365,554.618606 C498.080913,574.508086 480.264943,591.962079 457.515133,603.20872 C446.117414,608.843194 433.793967,611.910368 421.162281,613.391736 C416.649227,613.921014 412.17673,615.070824 407.562281,614.790976" id="Fill-10" fill="#8B8C8D" sketch:type="MSShapeGroup"></path>
                <path d="M514.814499,279.935006 C504.33744,280.32943 494.448466,277.638428 484.737947,274.080507 C483.641876,273.678986 482.03782,273.29673 481.679899,272.46834 C479.124766,266.55199 473.673815,265.995336 468.444918,264.742104 C464.949861,263.905602 463.526286,260.308137 460.897136,258.26403 C454.113866,252.992548 446.774956,248.785703 438.397769,246.61384 C437.645425,246.41815 436.556451,246.442484 435.969379,246.856172 C430.568112,250.660482 425.915133,248.120558 421.078631,245.480253 C415.317414,242.335006 409.228695,239.844766 403.538454,236.499772 C399.030469,233.850342 393.571407,235.811305 388.68218,234.525627 C388.044411,234.357313 387.314373,234.327909 386.664436,234.443498 C377.001572,236.166185 369.329075,232.698504 363.03858,225.504588 C361.475082,223.715995 359.36,223.28507 357.07052,223.265805 C347.446185,223.182662 337.834018,222.677719 328.315133,221.271381 C318.685729,219.849835 310.058099,223.228289 301.354423,226.33602 C291.031483,230.021698 280.755184,233.835133 270.471787,237.631331 C269.017795,238.167706 267.143016,239.021445 266.293333,237.67493 C265.208416,235.955285 267.371153,235.137034 268.470266,234.272142 C286.599544,220.001926 306.336933,208.596096 327.770646,199.924867 C340.166084,194.909911 352.660887,190.343118 365.861394,188.445019 C388.493587,185.19128 410.843904,186.172776 432.622357,194.231584 C472.927554,209.146667 501.58256,237.447807 523.926793,273.074677 C527.323498,278.491153 526.56507,279.708897 520.388137,279.924867 C518.532624,279.989759 516.672041,279.935006 514.814499,279.935006" id="Fill-12" fill="#8A8B8C" sketch:type="MSShapeGroup"></path>
                <path d="M479.966337,599.748441 C485.409176,595.348948 490.999037,591.116755 496.266464,586.517516 C511.122738,573.545146 523.160253,558.304588 533.243904,541.329176 C544.585856,522.236654 553.419316,502.276198 559.395488,480.803954 C564.991432,460.703574 568.440862,440.430824 569.227681,419.653131 C569.388897,415.404715 571.307275,413.687098 575.314373,414.856172 C591.581039,419.604461 605.145551,428.021191 613.585602,443.345906 C614.571153,445.133485 614.56507,446.689886 614.116907,448.623473 C607.87711,475.551736 596.727807,500.308137 580.924512,522.913967 C557.263169,556.759341 526.500177,581.992294 488.390165,598.097744 C485.828948,599.180634 483.056831,599.76365 480.383067,600.578859 C480.244157,600.302053 480.105247,600.025247 479.966337,599.748441" id="Fill-14" fill="#8A8B8C" sketch:type="MSShapeGroup"></path>
                <path d="M490.895209,169.228289 C485.878226,167.140583 481.259721,165.131965 476.570241,163.303828 C474.189506,162.376071 473.799138,161.326641 474.861749,158.852624 C487.048314,130.46327 499.12943,102.027275 511.114221,73.5527503 C512.199138,70.9742966 513.214094,70.7421039 515.594829,71.8574398 C520.458707,74.1357668 525.404715,76.2873511 530.460228,78.0891255 C533.205982,79.0675792 533.812319,80.5479341 533.796096,83.2592142 C533.707883,98.4531305 533.819417,113.647047 533.860989,128.840963 C533.865044,130.454144 533.860989,132.067326 533.860989,134.543371 C536.493181,132.71929 536.846033,130.502814 537.617643,128.703067 C542.840456,116.525627 548.038935,104.335006 553.015361,92.0561724 C554.248314,89.0123194 555.462003,88.3796198 558.43488,89.923853 C562.145906,91.8503422 566.107376,93.3043346 569.998885,94.8668188 C571.906109,95.6323447 572.397871,96.4029404 571.468086,98.5737896 C559.178099,127.274423 546.972269,156.013587 534.911432,184.811559 C533.844766,187.359594 532.712193,187.190266 530.849582,186.300025 C530.39635,186.083042 529.961369,185.778859 529.481774,185.66834 C520.500279,183.594829 516.80142,178.757313 516.966692,168.800406 C517.21815,153.689632 515.302814,138.541343 514.282788,123.410292 C514.160101,121.59635 513.880253,119.793561 512.748695,117.774804 C505.51929,134.794829 498.2909,151.814854 490.895209,169.228289" id="Fill-16" fill="#FBFBFB" sketch:type="MSShapeGroup"></path>
                <path d="M217.88289,205.648771 C217.512801,202.878682 217.2218,201.07488 215.552852,199.489075 C205.277567,189.723802 195.100634,179.852066 184.984537,169.920507 C183.351077,168.317465 181.781496,168.023422 179.575158,168.193764 C174.98403,168.548644 173.397212,172.507072 170.733587,175.079442 C166.423321,179.241673 166.498352,181.952953 170.699113,186.068542 C180.10545,195.284259 189.695311,204.316451 198.957668,213.674119 C201.730798,216.476654 204.983523,218.728619 208.087199,216.5091 C212.14398,213.609227 216.495817,210.339265 217.88289,205.648771 M206.028897,240.19782 C199.134094,242.368669 194.650444,238.682991 189.966033,233.967148 C176.294043,220.203904 162.251965,206.80365 148.223067,193.400355 C145.471229,190.77019 144.759442,187.934195 144.21597,184.235336 C142.755894,174.297693 146.614956,167.288314 153.952852,161.151939 C158.590621,157.273612 162.769075,152.762586 166.688973,148.141039 C168.942966,145.483498 171.484918,145.34256 174.524715,144.757516 C185.382003,142.670824 192.611407,147.347123 199.79924,155.05308 C211.981749,168.114677 225.185298,180.233308 238.132319,192.566895 C240.466413,194.791483 240.874018,197.158023 241.344487,200.079189 C242.95564,210.098961 240.149049,217.979316 231.839797,224.126844 C228.358935,226.70327 225.307985,230.061445 222.663625,233.524056 C218.395944,239.111888 213.290748,241.984385 206.028897,240.19782" id="Fill-18" fill="#FBFBFB" sketch:type="MSShapeGroup"></path>
                <path d="M652.282383,288.061242 C653.792142,288.380634 654.924715,287.47924 656.121166,286.909404 C668.258048,281.132978 680.385805,275.336274 692.501394,269.515234 C698.220025,266.768466 699.194423,264.044005 696.555133,258.364918 C695.774398,256.68583 694.90545,255.0473 694.096324,253.381394 C691.686185,248.420177 688.970849,247.361622 684.025856,249.699772 C673.545754,254.655919 663.223828,259.960862 652.621039,264.633105 C638.369075,270.914474 641.116857,273.057947 646.326489,284.190013 C647.616223,286.94692 649.89962,287.437668 652.282383,288.061242 M650.091255,312.514474 C642.386312,308.810545 632.450697,309.397617 628.975919,298.612319 C626.574905,291.158834 622.494804,284.227529 618.942966,277.173536 C617.545754,274.399392 617.935108,272.030824 618.531305,269.09749 C620.535868,259.233866 626.056781,253.48583 635.447909,249.52943 C652.148542,242.49166 668.330038,234.202687 684.607858,226.192548 C688.089734,224.478986 690.950063,225.020431 694.51711,225.777845 C704.1891,227.832091 709.976679,233.35199 712.980989,242.625501 C714.415716,247.056426 716.364512,251.539062 719.052471,255.303828 C725.644106,264.538809 718.919645,272.182915 716.658555,280.34109 C716.388847,281.314474 714.631686,282.003954 713.44436,282.57379 C693.438276,292.170748 673.414956,301.733232 653.386565,311.283549 C652.349303,311.778352 651.226869,312.094702 650.091255,312.514474" id="Fill-20" fill="#FBFBFB" sketch:type="MSShapeGroup"></path>
                <path d="M512.221749,706.032142 C514.88436,704.998935 517.532776,703.960659 520.189303,702.942662 C526.006286,700.714018 527.323397,697.911483 525.200203,692.313511 C521.221496,681.821242 517.070418,671.388796 513.324918,660.813384 C508.228847,646.423523 506.594373,647.622003 494.22834,652.595387 C490.220228,654.207554 488.969024,657.381191 490.297288,661.0182 C495.29602,674.70033 500.643549,688.254702 505.788289,701.88512 C506.944183,704.94621 509.610849,705.23924 512.221749,706.032142 M550.427072,700.588289 C548.809835,704.384487 546.875234,708.147224 545.60071,712.120862 C544.151787,716.642028 541.003498,718.54621 536.789556,719.984994 C528.703371,722.747985 520.725678,725.853688 512.822003,729.108441 C509.722383,730.384994 507.209835,729.71782 504.192345,728.831635 C494.477769,725.980431 489.516553,719.610849 486.375361,710.06763 C480.772319,693.038479 473.97384,676.39564 467.432902,659.686895 C466.042788,656.134043 466.438226,653.326439 467.575868,649.744183 C470.52948,640.444309 476.165982,634.759138 485.753815,632.708948 C488.991331,632.016426 492.222763,630.731762 495.11858,629.113511 C503.462307,624.449379 511.304132,624.764715 519.553561,629.681318 C523.058758,631.771052 525.376629,633.799949 526.823523,637.765475 C534.01237,657.459265 541.585501,677.013131 549.017693,696.617693 C549.491204,697.866869 549.913004,699.136324 550.427072,700.588289" id="Fill-22" fill="#FBFBFB" sketch:type="MSShapeGroup"></path>
                <path d="M588.865095,597.232446 C585.000963,596.720406 583.31275,600.002535 580.915792,601.918885 C573.169278,608.112041 573.158124,608.22256 579.681825,615.491508 C582.23493,618.335615 583.965729,623.258302 587.517567,623.512801 C591.061293,623.766286 593.361926,618.940938 596.591331,616.848162 C599.880558,614.716857 601.599189,611.857541 600.563954,607.924461 C599.655463,604.468948 591.540887,597.237516 588.865095,597.232446 M658.27853,638.376172 C653.330494,642.612421 648.508188,646.55564 643.923143,650.758428 C642.10616,652.423321 640.857997,651.262357 639.468897,650.561724 C630.902104,646.241318 622.187275,642.17237 613.880051,637.396705 C608.554829,634.334601 607.023777,639.223828 604.422003,641.215209 C601.366996,643.551331 605.004005,645.280101 606.212624,646.76147 C611.963701,653.809379 617.961166,660.656527 623.937338,667.653739 C619.72948,671.217744 615.641267,674.490748 611.787275,678.021293 C609.752294,679.884918 608.684613,679.455006 607.029861,677.495057 C587.105906,653.895564 567.122129,630.345754 547.050139,606.870976 C545.063828,604.549049 545.6073,603.478327 547.700076,601.732319 C557.938859,593.188847 568.038733,584.479087 578.188289,575.827123 C578.573587,575.498606 578.917313,575.105196 579.343169,574.843599 C582.352548,572.993156 599.365475,575.762231 601.703625,578.492776 C608.180684,586.054753 614.524918,593.735361 621.15711,601.159442 C624.672446,605.09455 624.047858,609.726236 623.73962,614.114575 C623.407047,618.845627 625.117567,621.253739 629.30109,623.276553 C638.97308,627.953866 648.382459,633.175665 658.27853,638.376172" id="Fill-24" fill="#FBFBFB" sketch:type="MSShapeGroup"></path>
                <path d="M394.3418,103.063422 C394.3418,109.968365 394.311381,116.873308 394.350925,123.778251 C394.383371,129.374195 396.6982,131.668745 402.252573,131.722484 C404.273359,131.741749 406.294144,131.744791 408.31493,131.72147 C413.429252,131.661648 416.032041,129.157212 416.043194,124.134144 C416.074626,110.324259 416.076654,96.5143726 416.041166,82.7044867 C416.028999,77.9673511 413.386667,75.3574651 408.66981,75.2712801 C406.48071,75.2307224 404.290596,75.2428897 402.101496,75.2682383 C396.804664,75.3290748 394.401622,77.6327503 394.355995,82.8535361 C394.2982,89.5901648 394.3418,96.3267934 394.3418,103.063422 M436.523802,103.527807 C436.523802,114.335412 436.413283,125.145044 436.59275,135.949607 C436.644461,139.063422 435.423676,141.070013 433.58033,143.481166 C427.532167,151.390925 420.071584,154.910317 410.096426,153.29308 C406.805171,152.758733 403.285779,152.769886 399.991483,153.292066 C390.433054,154.804867 383.20365,151.637313 377.203143,144.065196 C374.868035,141.117668 373.456629,138.602079 373.487047,134.78256 C373.652319,114.012978 373.669556,93.2413688 373.472852,72.472801 C373.43635,68.5883904 375.029252,66.1468188 377.284259,63.2185551 C383.30403,55.4030925 390.703777,52.1341445 400.452826,53.7108238 C403.250292,54.1640558 406.246489,54.1691255 409.04294,53.7108238 C419.509861,51.9952345 427.545349,55.552142 433.857136,63.9638023 C435.436857,66.0677313 436.628238,67.8208365 436.588695,70.6000507 C436.43052,81.5739417 436.523802,92.5518885 436.523802,103.527807" id="Fill-26" fill="#FBFBFB" sketch:type="MSShapeGroup"></path>
                <path d="M168.572471,530.189911 C167.482484,528.075843 166.338758,525.849227 165.18692,523.625653 C160.613029,514.801318 160.612015,514.801318 151.855615,519.338707 C141.520507,524.693333 141.636096,524.636553 146.807199,535.168365 C148.560304,538.740482 150.523295,541.657592 154.85891,541.435539 C158.999848,541.223625 167.31924,534.911838 167.99858,531.830469 C168.105044,531.345805 168.32507,530.886489 168.572471,530.189911 M112.295665,590.893587 C109.35929,585.219569 106.806185,579.731103 103.722788,574.56 C102.163346,571.94403 103.873866,570.820583 105.052066,569.385856 C111.047503,562.090545 116.951686,554.710063 123.226971,547.660127 C127.187427,543.210951 122.828492,540.568619 121.379569,537.557212 C119.800862,534.273054 117.571204,537.455817 116.019873,538.207148 C108.918226,541.648466 101.889582,545.26621 95.0191128,549.146565 C92.0431939,550.827681 90.7737389,550.355184 89.5144233,547.255564 C88.1344487,543.859873 86.2738657,540.633511 84.3798226,537.479138 C82.8507985,534.932117 82.7757668,533.61602 85.9078327,532.010951 C112.960811,518.14834 139.929632,504.12147 166.828492,489.963802 C170.162332,488.208669 171.424689,488.589911 173.108847,492.022104 C178.58616,503.181546 184.384892,514.189911 190.338758,525.10398 C191.96512,528.085982 191.62545,530.615767 191.020127,533.695108 C189.031787,543.821343 183.974246,550.995995 173.74256,554.157465 C170.910621,555.033511 168.246996,556.692319 165.745602,558.352142 C158.137997,563.402586 150.286033,565.969886 141.305551,562.058099 C138.917719,561.017795 136.990215,562.001318 135.226971,564.109303 C127.773485,573.020837 120.132421,581.775209 112.295665,590.893587" id="Fill-28" fill="#FBFBFB" sketch:type="MSShapeGroup"></path>
                <path d="M276.747174,125.552548 C281.568466,123.494246 286.869354,122.387022 290.632091,119.363447 C296.792801,114.414398 291.178606,109.110469 289.424487,104.11275 C288.126641,100.414905 285.244005,99.2093283 281.47924,99.9849937 C281.320051,100.01744 281.180127,100.135057 281.026008,100.201977 C277.350469,101.791838 273.722586,103.510469 269.980127,104.923904 C267.549708,105.841521 267.571001,107.126185 268.497744,109.150013 C270.653384,113.859772 272.639696,118.646591 274.748695,123.377643 C275.176578,124.337845 275.243498,125.831381 276.747174,125.552548 M338.953511,160.060025 C334.185957,162.123397 329.156806,164.060025 324.36289,166.464081 C321.496477,167.900837 319.729176,167.633156 317.429556,165.271686 C310.955539,158.625298 304.168213,152.283093 297.458961,145.868897 C295.220177,143.728466 287.264791,144.935057 285.866565,147.573333 C285.203447,148.82251 286.247807,149.813131 286.671635,150.814905 C289.940583,158.545196 293.067579,166.351534 296.742104,173.888162 C298.399899,177.288923 297.54109,178.45597 294.381648,179.535817 C291.056933,180.672446 287.718023,181.960152 284.682281,183.700076 C281.451863,185.551534 280.318276,184.613638 278.95858,181.430875 C268.733992,157.497795 258.304588,133.651914 247.939062,109.778657 C246.266058,105.925678 244.744132,101.997668 242.867326,98.2481115 C241.394068,95.3026109 241.522839,93.7330292 244.995589,92.3053992 C256.958074,87.3887959 268.792801,82.1578707 280.614347,76.9066667 C282.80142,75.9353105 284.569734,76.187782 286.817643,76.7566033 C297.721572,79.5145247 305.247047,85.4521673 307.811305,96.9056527 C308.422712,99.6361977 309.797617,102.289683 311.252624,104.722129 C315.923853,112.53455 317.113207,120.46256 312.948948,128.87929 C311.707883,131.385754 313.01384,133.206793 314.83488,135.059265 C322.86327,143.229607 330.753764,151.534804 338.953511,160.060025" id="Fill-30" fill="#FBFBFB" sketch:type="MSShapeGroup"></path>
                <path d="M696.259873,539.889379 C695.969886,534.366439 691.218555,533.210545 687.507529,532.01815 C684.211204,530.957567 681.060887,532.759341 679.713359,536.582915 C679.106008,538.304588 677.80512,539.785957 677.232243,541.513714 C673.746312,552.034373 666.649734,557.937541 655.601825,559.500025 C652.708035,559.909658 650.334398,560.28583 647.597769,558.738555 C640.285222,554.603701 632.886489,550.588492 625.301191,546.991027 C622.325272,545.57962 621.345805,543.370241 620.090545,540.751229 C615.499417,531.171508 615.96076,522.275184 622.591939,513.734753 C624.314626,511.516248 625.737186,508.876958 626.592953,506.205222 C629.682433,496.554525 636.228441,491.611559 646.153916,490.263016 C650.350621,489.692167 661.265703,492.590013 663.993207,495.73526 C665.145044,497.06251 664.211204,497.903067 663.718428,498.862256 C661.489785,503.194829 659.084715,507.442231 656.997009,511.839696 C655.86545,514.220431 654.607148,514.941343 652.434271,513.266312 C649.317414,510.865298 647.58763,511.862003 646.206641,515.320558 C644.968619,518.417136 643.341242,521.410292 641.509049,524.201673 C639.946565,526.581394 640.406895,528.848568 641.603346,530.784183 C643.653536,534.098758 647.349354,535.652117 650.85962,536.220938 C654.150875,536.753257 656.720203,534.519544 658.024132,531.137034 C658.802839,529.116248 660.346058,527.371255 661.00512,525.328162 C664.202079,515.412826 670.899163,510.165678 681.18256,508.537288 C684.671534,507.984689 687.418302,507.817389 690.562535,509.601926 C697.284968,513.418403 704.14327,517.021952 711.115133,520.359848 C714.595995,522.025754 715.926286,524.63564 717.517161,527.991787 C721.77166,536.968213 720.90474,544.919544 715.198276,552.781648 C713.536426,555.070114 712.107782,557.656679 711.166844,560.316248 C707.640355,570.282281 701.098403,576.031331 690.403346,577.906109 C686.186362,578.646286 683.34834,577.455919 680.157465,575.756553 C671.159747,570.962636 671.164816,570.951483 675.876603,562.052117 C676.504233,560.865805 677.247452,559.728162 677.759493,558.494195 C679.430469,554.466819 681.219062,551.083295 686.089024,555.330697 C686.823118,555.971508 688.237567,556.778606 689.080152,555.196857 C691.531863,550.593561 693.932877,545.964918 696.302459,541.319037 C696.492066,540.94692 696.283194,540.371001 696.259873,539.889379" id="Fill-32" fill="#FBFBFB" sketch:type="MSShapeGroup"></path>
                <path d="M214.806793,613.208517 C214.507681,612.856679 214.209582,612.505856 213.910469,612.154018 C209.526185,614.742611 205.144943,617.338302 200.754575,619.917769 C188.682586,627.010292 188.681572,627.00725 199.473967,636.110418 C199.730494,636.326388 199.981952,636.557567 200.196907,636.81308 C201.690444,638.592548 202.493485,637.943625 203.375615,636.140837 C207.127199,628.46834 210.986261,620.847554 214.806793,613.208517 M201.582966,685.698251 C196.803245,681.336274 192.282079,677.058454 187.575361,672.996603 C185.925678,671.573029 186.654702,670.455665 187.251914,669.05744 C189.063828,664.81308 193.596147,660.587985 192.188796,656.447047 C190.902104,652.660989 185.943929,650.124106 182.605019,647.03564 C182.481318,646.921065 182.370798,646.79128 182.244056,646.678733 C178.843295,643.66327 175.823777,639.015361 171.929227,638.102814 C168.186768,637.225754 164.415919,641.817896 160.630875,643.954271 C158.860532,644.954018 157.546464,645.496477 155.799442,643.757567 C152.338859,640.310165 148.652167,637.089886 145.029354,633.808771 C144.152294,633.014854 143.157617,632.349708 142.052421,631.499011 C171.463828,613.837161 200.315539,596.542357 229.115539,579.163397 C231.530748,577.706362 233.073967,577.748948 235.113004,579.913714 C238.223777,583.217136 241.678276,586.231584 245.210849,589.0909 C247.48512,590.93019 247.520608,592.481521 246.266362,595.012319 C231.363447,625.076705 216.584233,655.201926 201.582966,685.698251" id="Fill-34" fill="#FBFBFB" sketch:type="MSShapeGroup"></path>
                <path d="M301.237516,648.016629 C299.416477,647.737795 298.899366,648.659468 298.511027,649.590266 C296.316857,654.850596 294.232193,660.15858 291.955894,665.382408 C291.304943,666.877972 291.843346,667.450849 292.985044,668.175817 C305.527503,676.141343 310.606337,674.224994 315.097085,660.069354 C315.960963,657.344892 314.954119,654.632598 313.492015,653.709911 C309.572117,651.236907 305.053992,649.711939 301.237516,648.016629 M339.342459,655.610038 C338.886185,656.888619 338.494804,658.163143 337.984791,659.387985 C334.308238,668.216375 330.499873,676.991027 326.981496,685.881267 C325.981749,688.410038 324.230672,689.706869 322.194677,691.245019 C315.113308,696.594575 308.19417,696.727402 300.624081,692.182915 C296.779214,689.875184 292.251965,688.734499 288.177947,686.767452 C285.01749,685.24147 283.411407,685.317516 281.990875,689.168466 C278.62763,698.288872 274.577947,707.154778 270.934854,716.174804 C269.911787,718.708644 268.787326,719.424487 266.139924,718.092167 C261.818504,715.918276 255.160963,715.22981 253.452471,711.888872 C251.648669,708.362383 256.156654,703.082788 257.996958,698.614347 C268.095817,674.100279 278.355894,649.653131 288.380735,625.110672 C289.850951,621.513207 290.932826,620.286337 295.080862,622.177338 C305.910773,627.115234 317.006337,631.484309 328.085678,635.855412 C331.328264,637.135006 333.251711,639.01891 334.303169,642.364918 C335.70545,646.827275 337.61166,651.131458 339.342459,655.610038" id="Fill-36" fill="#FBFBFB" sketch:type="MSShapeGroup"></path>
                <path d="M616.764309,432.12948 C611.961267,426.441267 607.170393,421.190063 601.408162,416.819975 C593.29967,410.670418 584.175209,407.031381 574.469759,404.640507 C571.664183,403.948999 570.120963,403.030368 569.843143,399.824284 C568.915387,389.104892 569.239848,378.286134 567.217034,367.652928 C566.054043,361.542915 565.079645,355.397414 564.048466,349.263067 C563.585095,346.510215 564.113359,344.828086 567.581039,344.801724 C581.287503,344.69526 594.810444,345.637212 607.94403,350.01744 C612.755184,351.621496 615.080152,354.397668 616.100177,359.619468 C620.702459,383.188542 620.939721,406.772826 617.64948,430.471686 C617.589658,430.899569 617.226667,431.284867 616.764309,432.12948" id="Fill-38" fill="#8A8B8C" sketch:type="MSShapeGroup"></path>
                <path d="M611.31417,340.442281 C611.081977,342.276502 609.519493,341.887148 608.415311,341.407554 C594.393511,335.315792 579.605171,335.153561 564.728619,335.645323 C562.374246,335.723397 560.747883,335.453688 559.954981,332.519341 C556.04218,318.044309 551.268542,303.859265 544.161825,290.577643 C542.252573,287.010596 542.39858,284.870165 546.689582,282.776375 C554.835589,278.80071 561.376527,272.608568 566.104537,264.818454 C568.217592,261.336578 569.421141,261.752294 571.765374,264.594373 C589.80948,286.464081 602.297186,311.239747 610.690596,338.195387 C610.891356,338.838226 611.052573,339.494246 611.31417,340.442281" id="Fill-40" fill="#8A8B8C" sketch:type="MSShapeGroup"></path>
                <path d="M664.267376,171.557617 C661.196147,174.528466 656.642535,178.761673 652.310976,183.209835 C650.60147,184.964968 649.640253,184.415412 648.272446,182.968517 C645.721369,180.272446 642.827579,177.87853 640.463067,175.036451 C637.849125,171.89526 636.305906,173.496274 634.240507,175.616426 C617.760913,192.538099 601.206286,209.385754 584.670925,226.252674 C584.091965,226.842788 583.476502,227.396401 582.001217,228.801724 C578.11782,224.514778 574.411863,220.115285 570.352041,216.071686 C568.328213,214.054956 568.328213,213.002484 570.355082,210.965475 C586.663321,194.582205 602.769785,177.997161 619.127706,161.664588 C621.952548,158.844816 622.697795,157.155589 619.332522,154.240507 C616.05749,151.404512 610.665349,148.337338 610.916806,144.804766 C611.155082,141.466869 616.319087,138.446337 619.381191,135.349759 C624.555336,130.115792 624.847351,129.875488 629.875488,135.071939 C641.375615,146.957364 652.583726,159.124664 664.267376,171.557617" id="Fill-42" fill="#FBFBFB" sketch:type="MSShapeGroup"></path>
                <path d="M118.860431,242.786413 C117.34763,246.233815 116.232294,249.635589 114.446743,252.637871 C111.876401,256.95929 112.242433,258.958783 117.434829,261.17019 C138.117212,269.979316 158.493384,279.505298 179.070317,288.565881 C182.38185,290.023929 183.527605,291.360304 181.474373,294.688061 C180.161318,296.817338 179.347123,299.25384 178.287554,301.541293 C174.657643,309.383118 174.648517,309.395285 166.554221,305.774499 C146.796553,296.936984 127.017592,288.146109 107.318733,279.177795 C104.205932,277.761318 102.777288,277.958023 101.538251,281.432801 C100.034575,285.649785 98.6373638,291.824689 95.5793156,293.021141 C92.5841318,294.191229 87.5336882,290.225703 83.4302662,288.41379 C76.4442079,285.329379 76.4634728,285.297947 79.5580228,278.398074 C85.7390114,264.615564 92.0183523,250.87564 98.0148035,237.013029 C99.4262104,233.749151 100.661191,233.24725 103.787174,234.980076 C107.885526,237.251305 112.364106,238.824943 116.612522,240.840659 C117.489582,241.257389 119.187934,241.212776 118.860431,242.786413" id="Fill-44" fill="#FBFBFB" sketch:type="MSShapeGroup"></path>
                <path d="M406.09166,646.807909 C414.361369,646.807909 422.634119,646.929582 430.899772,646.742003 C433.789506,646.676096 434.655412,647.526793 434.567199,650.410444 C434.422205,655.119189 434.61384,659.849227 434.904842,664.555944 C435.054905,666.978251 434.113967,668.021597 431.842738,668.064183 C428.131711,668.134144 424.40142,668.403853 420.714728,668.120963 C417.285577,667.857338 416.536274,669.135919 416.581901,672.364309 C416.910418,695.308796 416.949962,718.257338 417.356553,741.198783 C417.429556,745.296122 416.612319,746.92147 412.234119,746.458099 C408.400406,746.051508 404.464284,746.233004 400.606236,746.554423 C397.40725,746.82109 396.732978,745.70474 396.711686,742.628441 C396.548441,719.353409 396.061749,696.080406 395.985703,672.805374 C395.972522,668.86621 394.833866,668.034778 391.185703,668.191939 C386.857186,668.37749 381.218657,670.283701 378.491153,667.668745 C375.749455,665.03858 377.766185,659.362535 377.653638,655.025906 C377.447807,647.036046 377.529937,647.034018 385.332218,647.034018 L406.09166,647.034018 L406.09166,646.807909" id="Fill-46" fill="#FBFBFB" sketch:type="MSShapeGroup"></path>
                <path d="M444.173992,189.623219 C450.794018,189.770241 456.748897,191.610545 462.663219,193.408264 C486.522281,200.662003 508.934449,211.233359 529.370444,225.391027 C539.512902,232.418657 549.504284,240.049582 557.679696,249.616122 C560.662712,253.108137 560.748897,256.19052 558.227224,260.058707 C554.161318,266.294449 549.195032,271.240456 542.397567,274.476958 C538.685526,276.244259 536.554221,275.355032 534.555741,272.004968 C524.148644,254.564157 511.742053,238.65744 497.029759,224.651863 C482.923802,211.224233 467.689328,199.374297 449.062205,192.6691 C447.358783,192.055665 445.574246,191.530444 444.173992,189.623219" id="Fill-48" fill="#8A8B8C" sketch:type="MSShapeGroup"></path>
                <path d="M264.488314,238.848973 C264.34839,238.906768 264.203397,239.014246 264.069556,239.002079 C263.946869,238.990925 263.837364,238.848973 263.721774,238.764816 C263.977288,238.792193 264.232801,238.819569 264.488314,238.848973" id="Fill-50" fill="#8A8B8C" sketch:type="MSShapeGroup"></path>
                <path d="M217.88289,205.648771 C216.495817,210.339265 212.14398,213.609227 208.087199,216.5091 C204.983523,218.728619 201.730798,216.476654 198.957668,213.674119 C189.695311,204.316451 180.10545,195.284259 170.699113,186.068542 C166.498352,181.952953 166.423321,179.241673 170.733587,175.079442 C173.397212,172.507072 174.98403,168.548644 179.575158,168.193764 C181.781496,168.023422 183.351077,168.317465 184.984537,169.920507 C195.100634,179.852066 205.277567,189.723802 215.552852,199.489075 C217.2218,201.07488 217.512801,202.878682 217.88289,205.648771" id="Fill-52" fill="#2A2723" sketch:type="MSShapeGroup"></path>
                <path d="M652.282383,288.061242 C649.89962,287.437668 647.616223,286.94692 646.326489,284.190013 C641.116857,273.057947 638.369075,270.914474 652.621039,264.633105 C663.223828,259.960862 673.545754,254.655919 684.025856,249.699772 C688.970849,247.361622 691.686185,248.420177 694.096324,253.381394 C694.90545,255.0473 695.774398,256.68583 696.555133,258.364918 C699.194423,264.044005 698.220025,266.768466 692.501394,269.515234 C680.385805,275.336274 668.258048,281.132978 656.121166,286.909404 C654.924715,287.47924 653.792142,288.380634 652.282383,288.061242" id="Fill-54" fill="#2A2723" sketch:type="MSShapeGroup"></path>
                <path d="M512.221749,706.032142 C509.610849,705.23924 506.944183,704.94621 505.788289,701.88512 C500.643549,688.254702 495.29602,674.70033 490.297288,661.0182 C488.969024,657.381191 490.220228,654.207554 494.22834,652.595387 C506.594373,647.622003 508.228847,646.423523 513.324918,660.813384 C517.070418,671.388796 521.221496,681.821242 525.200203,692.313511 C527.323397,697.911483 526.006286,700.714018 520.189303,702.942662 C517.532776,703.960659 514.88436,704.998935 512.221749,706.032142" id="Fill-56" fill="#2A2723" sketch:type="MSShapeGroup"></path>
                <path d="M588.863574,597.22981 C591.54038,597.237921 599.654956,604.469354 600.564461,607.924867 C601.598682,611.857947 599.881065,614.717262 596.590824,616.848568 C593.36142,618.94033 591.0618,623.766692 587.51706,623.513207 C583.965222,623.258707 582.235437,618.33602 579.682332,615.491914 C573.157617,608.222966 573.168771,608.112446 580.916299,601.91929 C583.313257,600.001926 585.00147,596.719797 588.863574,597.22981" id="Fill-58" fill="#2A2723" sketch:type="MSShapeGroup"></path>
                <path d="M394.341901,103.063422 C394.341901,96.3267934 394.298302,89.5901648 394.356096,82.8535361 C394.401724,77.6327503 396.804766,75.3290748 402.101597,75.2682383 C404.290697,75.2428897 406.480811,75.2307224 408.669911,75.2712801 C413.386768,75.3574651 416.0291,77.9673511 416.041267,82.7044867 C416.076755,96.5143726 416.074728,110.324259 416.043295,124.134144 C416.032142,129.157212 413.429354,131.661648 408.315032,131.72147 C406.294246,131.744791 404.272446,131.741749 402.25166,131.722484 C396.698302,131.668745 394.383473,129.374195 394.351027,123.778251 C394.311483,116.873308 394.341901,109.968365 394.341901,103.063422" id="Fill-60" fill="#2A2723" sketch:type="MSShapeGroup"></path>
                <path d="M168.572471,530.189911 C168.32507,530.886489 168.105044,531.345805 167.99858,531.830469 C167.31924,534.911838 158.999848,541.223625 154.85891,541.435539 C150.523295,541.657592 148.560304,538.740482 146.807199,535.168365 C141.636096,524.636553 141.520507,524.693333 151.855615,519.338707 C160.612015,514.801318 160.613029,514.801318 165.18692,523.625653 C166.338758,525.849227 167.482484,528.075843 168.572471,530.189911" id="Fill-62" fill="#2A2723" sketch:type="MSShapeGroup"></path>
                <path d="M276.747174,125.552548 C275.243498,125.831381 275.176578,124.337845 274.748695,123.377643 C272.639696,118.646591 270.653384,113.859772 268.497744,109.150013 C267.571001,107.126185 267.549708,105.841521 269.980127,104.923904 C273.722586,103.510469 277.350469,101.791838 281.026008,100.201977 C281.180127,100.135057 281.320051,100.01744 281.47924,99.9849937 C285.244005,99.2093283 288.126641,100.414905 289.424487,104.11275 C291.178606,109.110469 296.792801,114.414398 290.632091,119.363447 C286.869354,122.387022 281.568466,123.494246 276.747174,125.552548" id="Fill-64" fill="#2A2723" sketch:type="MSShapeGroup"></path>
                <path d="M214.806793,613.208517 C210.986261,620.847554 207.127199,628.46834 203.375615,636.140837 C202.493485,637.943625 201.690444,638.592548 200.196907,636.81308 C199.981952,636.557567 199.730494,636.326388 199.473967,636.110418 C188.681572,627.00725 188.682586,627.010292 200.754575,619.917769 C205.144943,617.338302 209.526185,614.742611 213.910469,612.154018 C214.209582,612.505856 214.507681,612.856679 214.806793,613.208517" id="Fill-66" fill="#2A2723" sketch:type="MSShapeGroup"></path>
                <path d="M301.237516,648.016629 C305.053992,649.711939 309.572117,651.236907 313.492015,653.709911 C314.954119,654.632598 315.960963,657.344892 315.097085,660.069354 C310.606337,674.224994 305.527503,676.141343 292.985044,668.175817 C291.843346,667.450849 291.304943,666.877972 291.955894,665.382408 C294.232193,660.15858 296.316857,654.850596 298.511027,649.590266 C298.899366,648.659468 299.416477,647.737795 301.237516,648.016629" id="Fill-68" fill="#2A2723" sketch:type="MSShapeGroup"></path>
            </g>
        </g>
    </g>
</svg>