<?xml version="1.0" encoding="UTF-8" standalone="no"?>
<svg width="800px" height="800px" viewBox="0 0 800 800" version="1.1" xmlns="http://www.w3.org/2000/svg" xmlns:xlink="http://www.w3.org/1999/xlink" xmlns:sketch="http://www.bohemiancoding.com/sketch/ns">
    <!-- Generator: Sketch 3.4.4 (17249) - http://www.bohemiancoding.com/sketch -->
    <title>rockets</title>
    <desc>Created with Sketch.</desc>
    <defs>
        <path id="path-1" d="M0,0 L638,0 L638,800 L0,800"></path>
    </defs>
    <g id="Page-1" stroke="none" stroke-width="1" fill="none" fill-rule="evenodd" sketch:type="MSPage">
        <g id="rockets" sketch:type="MSArtboardGroup">
            <g id="Page-1" sketch:type="MSLayerGroup" transform="translate(81.000000, 0.000000)">
                <path d="M276.416914,293.07296 C275.815188,314.527893 275.260406,335.98496 274.601068,357.43776 C273.386947,397.00256 273.08075,436.57696 273.169302,476.15776 C273.187439,484.303893 273.043409,484.331627 280.940526,484.568427 C307.376984,485.359893 333.813442,485.894293 360.239232,484.21216 C363.830382,485.094293 364.74364,483.60416 364.799118,480.06496 C365.12772,458.78816 364.875934,437.510293 365.442453,416.227093 C366.170071,388.924693 365.563011,361.58816 366.142332,334.27936 C366.380248,323.062293 361.441616,315.294827 352.975847,309.129493 C348.97181,306.213227 344.521814,303.947627 339.913917,302.040427 C320.541335,294.028693 300.048519,290.96096 279.467152,288.26016 C274.875259,287.657493 276.473459,290.862827 276.416914,293.07296 L276.416914,293.07296 Z M272.17176,146.389227 C272.85777,156.489493 273.608861,166.584427 274.219121,176.68896 C276.235543,210.040427 276.672968,243.42816 276.164061,276.82656 C276.096847,281.202027 277.302432,282.28256 281.473971,281.458027 C290.873269,279.59776 300.30884,277.874027 309.475556,275.068693 C333.33761,267.766293 355.783901,258.19296 370.023677,235.963627 C371.669887,235.35456 372.454051,233.893227 373.187004,232.504427 C380.21674,219.176427 382.461476,204.966293 380.1826,190.17056 C377.657272,173.76416 365.432851,165.596693 351.942031,159.339627 C328.102382,148.28256 302.393543,144.71136 276.575881,141.822827 C272.780954,141.398293 271.141145,142.454293 272.17176,146.389227 L272.17176,146.389227 Z M567.643643,444.819093 L567.636175,444.90016 C575.147078,439.765227 575.829887,431.534827 569.075409,425.816427 C567.064322,424.11296 564.724633,422.75296 562.409483,421.461227 C553.329185,416.39136 543.36977,413.558293 533.405021,411.109227 C499.949496,402.886293 465.81863,398.485227 431.744309,393.797227 C427.278309,393.183893 427.776546,395.92736 428.016596,398.681493 C427.68266,423.70336 427.287911,448.726293 427.051061,473.749227 C426.975312,481.622293 426.193282,480.719893 433.922897,479.98496 C465.026998,477.02496 495.975332,472.894827 526.165108,464.59616 C540.496636,460.65696 554.828165,456.306027 566.640767,446.533227 C566.974703,445.961493 567.30864,445.38976 567.643643,444.819093 L567.643643,444.819093 Z M364.682827,276.00096 C376.797359,275.97536 388.793466,276.715627 400.468439,280.444693 C419.908235,286.65376 429.112292,299.15616 428.904248,319.630827 C428.678068,342.006293 428.465757,364.383893 427.995259,386.75616 C427.902439,391.182827 428.580981,392.80096 433.672178,392.616427 C472.270111,391.214827 510.762422,392.441493 548.91973,399.038827 C571.348951,402.91616 593.480509,407.932693 614.028804,418.211093 C617.352165,419.87296 620.56457,421.798293 623.667085,423.84736 C630.302071,428.230293 635.389001,433.934827 637.99968,441.599893 L637.99968,447.999893 C633.462198,455.125227 628.369934,461.73216 620.985991,466.198293 C620.317051,466.246293 619.779339,466.43296 619.871091,467.27136 L619.931904,467.221227 C618.806335,466.87456 617.867473,467.352427 616.913673,467.861227 C591.788422,481.29376 564.501653,488.15456 536.906553,494.00096 C501.688526,501.462293 466.072549,506.17376 430.193051,508.915093 C427.012653,509.158293 426.159141,510.505493 426.854754,513.34496 C426.606168,520.09056 426.283968,526.834027 426.120733,533.580693 C425.031439,578.697493 423.977352,623.81536 422.908329,668.93216 C422.200981,698.773227 421.430687,728.61216 420.804422,758.45536 C420.513162,772.300693 420.496091,786.15136 420.354195,799.999893 L418.220416,799.999893 C417.547208,782.095893 416.72357,764.19616 416.2328,746.287893 C415.318476,712.91296 414.62073,679.532693 413.749081,646.156693 C413.689335,643.894293 413.164426,641.57216 412.438941,639.419627 C411.676115,637.15936 410.117389,635.215893 407.452299,635.27136 C404.759469,635.327893 403.354376,637.093227 403.027907,639.721493 C401.296345,642.198293 401.423305,645.074027 401.303814,647.886827 C399.417553,692.210027 397.543028,736.534293 395.63863,780.857493 C395.586352,782.067093 395.237479,783.26496 395.028369,784.462827 C393.906001,758.04256 392.685479,731.631893 391.687937,705.212693 C390.717068,679.486827 389.993717,653.750293 389.102864,628.021227 C388.980172,624.483093 388.67184,620.934293 388.1576,617.43456 C387.80766,615.05376 386.458044,612.783893 383.987128,612.427627 C381.307101,612.041493 380.001228,614.182293 379.339757,616.581227 C377.010737,628.479893 377.539914,640.591893 376.793091,652.600427 C375.163951,678.78496 374.004242,704.99936 372.637556,731.20096 C372.563941,732.61216 372.356964,734.01696 372.211867,735.420693 C371.93981,734.41376 371.462911,733.41856 371.42877,732.409493 C371.022285,720.18336 370.710754,707.954027 370.316004,695.726827 C369.636396,674.642027 368.870369,653.55936 368.223834,632.473493 C367.067325,594.72736 365.831867,556.981227 365.009295,519.227627 C364.890871,513.810027 363.220121,512.815893 358.325232,513.01216 C343.797396,513.596693 329.250356,513.941227 314.710784,513.954027 C301.947583,513.964693 289.181182,513.46656 276.421182,513.048427 C273.120225,512.940693 271.172085,513.608427 272.144021,517.419627 C270.984312,551.48576 269.807533,585.550827 268.669162,619.618027 C267.5788,652.26976 266.532182,684.921493 265.454623,717.573227 C265.408747,718.96736 265.724546,720.438293 264.777148,721.68096 C264.397335,718.697493 263.751867,715.730027 263.677185,712.748693 C262.810871,677.970027 262.05658,643.18816 261.209469,608.409493 C261.011028,600.25376 260.694162,592.095893 260.180988,583.955093 C260.00175,581.11456 259.113031,578.073493 255.827011,577.30336 C252.869593,576.611093 251.875252,578.95136 251.223382,581.31936 C248.598834,588.088427 249.350991,595.286293 248.780205,602.27936 C246.277282,632.98656 244.11683,663.721493 241.802747,694.444693 C241.65765,696.380693 241.266101,698.297493 240.989777,700.21856 C239.958095,699.007893 240.204546,697.539093 240.176807,696.139627 C239.898349,682.297493 239.699907,668.459627 239.216606,654.617493 C238.314018,628.715627 238.110242,602.790293 237.531988,576.87776 C237.393292,570.67616 237.118034,564.462827 236.521643,558.29216 C236.26559,555.650027 235.025864,552.85216 231.824128,552.57696 C229.166506,552.347627 227.637653,554.11296 227.304784,556.782827 C224.941623,566.65376 225.158202,576.79456 224.316426,586.812693 C222.211453,611.862293 220.484158,636.943893 218.57656,662.01056 C218.498677,663.04096 218.124198,664.047893 217.889483,665.059093 C215.998954,648.450027 216.452382,631.73856 215.761038,615.08576 C214.427426,582.969493 213.900382,550.82016 213.009529,518.68576 C212.757743,509.612693 212.709733,509.62336 203.528081,508.683627 C201.763446,508.50336 200.015881,508.14496 198.250178,507.980693 C155.774101,504.043627 113.694907,497.769493 72.5353722,486.268693 C55.4149943,481.484693 38.5271983,475.92416 23.2685428,466.54176 C12.082205,459.662827 1.80699097,451.926293 5.18156288,436.22176 C6.2079107,434.42016 7.17984716,432.69216 8.67882709,431.093227 C16.9248171,422.303893 27.220302,416.905493 38.2828806,412.83616 C74.5037836,399.51136 112.379432,395.619093 150.541008,393.321493 C169.691677,392.169493 188.853014,392.543893 208.012218,392.44896 C211.315309,393.915627 208.028222,393.810027 207.587596,393.87936 C196.564493,395.62016 185.512583,397.189227 174.500148,398.99616 C149.163653,403.154027 123.727937,406.867093 99.0027702,414.047893 C89.7379007,416.738027 80.3322017,419.282027 72.7050077,425.733227 C65.5376431,434.011627 66.0230779,439.571093 74.7470344,446.90016 C77.041914,448.828693 79.5341682,450.59616 82.145914,452.063893 C97.3181515,460.587627 113.943493,464.958827 130.754473,468.696427 C155.882924,474.28256 181.289834,478.031893 206.972001,479.87936 C209.947556,481.308693 211.566028,480.985493 211.411329,477.070827 C211.08166,468.734827 211.68872,460.402027 211.855155,452.069227 C212.286178,430.415893 212.250971,408.75296 212.361927,387.093227 C212.592376,342.34336 211.421998,297.618027 210.393516,252.88416 C209.553874,216.326293 208.680091,179.727893 212.218964,143.231893 C212.589175,139.41856 211.38359,138.591893 207.66868,138.427627 C189.911369,137.64256 172.182864,138.655893 154.454359,139.061227 C137.980516,139.43776 121.528011,140.72096 105.065904,141.605227 C119.760175,136.406293 134.926011,132.902293 150.01183,129.11456 C170.291269,124.02336 190.873703,120.360427 211.351583,116.210027 C214.838178,116.87136 215.295874,114.811627 215.751436,111.96576 C221.782563,74.2590933 231.179727,37.3780267 243.232379,1.15936 C247.864814,10.5758933 250.092479,20.7860267 252.880262,30.7966933 C259.647543,55.1038933 264.054864,79.89856 267.554262,104.853227 C268.033295,108.27296 269.04364,108.585493 272.218703,108.28896 C310.385613,104.72416 348.447968,103.829227 385.925667,114.025493 C394.844864,116.45216 403.50374,119.615893 411.638774,124.057493 C440.583489,139.862293 451.887185,162.731627 446.694633,195.318293 C443.006396,218.462827 430.506717,236.12256 412.103937,250.030827 C409.906145,251.691627 408.325014,254.162027 405.514827,255.019627 C400.207051,256.524693 395.871212,259.977493 390.967787,262.312427 C378.85859,268.07776 366.179673,272.17696 353.334322,276.00096 L364.682827,276.00096 Z" id="Fill-1" fill="#D21245" sketch:type="MSShapeGroup"></path>
                <path d="M0,442.666667 C2.53706355,441.169067 1.58326421,436.866133 5.18188294,436.2208 C1.80731104,451.9264 12.0814582,459.662933 23.2688629,466.541867 C38.5264515,475.924267 55.4153144,481.4848 72.5356923,486.2688 C113.695227,497.7696 155.774421,504.043733 198.250498,507.9808 C200.016201,508.144 201.763766,508.503467 203.528401,508.683733 C212.710054,509.623467 212.758064,509.6128 213.009849,518.685867 C213.900702,550.820267 214.427746,582.9696 215.760291,615.0848 C216.451635,631.738667 215.998207,648.450133 217.889803,665.0592 C217.555866,669.4272 219.282094,674.5088 213.359789,677.2352 C213.07493,671.278933 212.715388,665.499733 212.535084,659.7152 C211.053174,612.366933 209.531789,565.019733 208.27606,517.665067 C208.165104,513.4816 205.909699,513.573333 203.304355,513.371733 C181.533405,511.6896 159.871278,509.060267 138.316906,505.614933 C103.779555,500.093867 69.5334649,493.335467 36.9538562,480.042667 C27.5705619,476.2144 18.6022876,471.618133 10.6091505,465.2672 C6.10794314,461.690667 3.00649498,457.031467 0,452.266667 L0,442.666667 Z" id="Fill-3" fill="#312311" sketch:type="MSShapeGroup"></path>
                <path d="M403.027801,639.721387 C403.354269,637.09312 404.759363,635.327787 407.452192,635.271253 C410.117282,635.215787 411.676008,637.159253 412.438834,639.41952 C413.165386,641.572053 413.689229,643.894187 413.748975,646.156587 C414.620623,679.532587 415.318369,712.912853 416.232694,746.287787 C416.723463,764.196053 417.547102,782.095787 418.220309,799.999787 L412.885861,799.999787 C412.496446,780.346453 412.175312,760.690987 411.701613,741.039787 C410.987864,711.45792 410.23464,681.87712 409.323516,652.300587 C409.170951,647.33952 409.62758,641.648853 403.027801,639.721387" id="Fill-5" fill="#312311" sketch:type="MSShapeGroup"></path>
                <g id="Group-9">
                    <mask id="mask-2" sketch:name="Clip 8" fill="white">
                        <use xlink:href="#path-1"></use>
                    </mask>
                    <g id="Clip-8"></g>
                    <path d="M211.351796,116.20992 C216.849479,80.59072 225.878566,45.8344533 236.637081,11.47712 C237.952556,7.27338667 240.247435,3.77898667 242.18384,-0.000213333333 L244.317619,-0.000213333333 C243.55586,0.0125866667 243.194184,0.399786667 243.233659,1.16032 C231.17994,37.37792 221.782776,74.2589867 215.751649,111.965653 C215.296087,114.81152 214.838392,116.871253 211.351796,116.20992" id="Fill-7" fill="#312311" sketch:type="MSShapeGroup" mask="url(#mask-2)"></path>
                </g>
                <path d="M272.143808,517.4192 C271.171871,513.609067 273.120012,512.940267 276.420968,513.049067 C289.180968,513.466133 301.94737,513.965333 314.711637,513.9536 C329.251209,513.9408 343.797182,513.596267 358.325018,513.0128 C363.219908,512.815467 364.890657,513.8096 365.009082,519.2272 C365.831654,556.981867 367.067112,594.726933 368.224687,632.474133 C368.870156,653.56 369.636182,674.6416 370.315791,695.727467 C370.71054,707.9536 371.022072,720.182933 371.428557,732.409067 C371.462697,733.4192 371.940664,734.4144 372.211654,735.420267 C371.691012,739.942933 373.879202,745.277333 368.013443,748.422933 C366.825995,745.9568 367.246349,743.290133 367.1674,740.780267 C365.868995,699.615467 364.657008,658.4496 363.400212,617.2848 C362.441079,585.885333 361.352851,554.490133 360.571888,523.0864 C360.459865,518.570133 359.501798,517.1696 354.668788,517.4096 C327.169707,518.777067 299.65249,518.527467 272.143808,517.4192" id="Fill-10" fill="#312311" sketch:type="MSShapeGroup"></path>
                <path d="M379.339864,616.580693 C380.001335,614.182827 381.307208,612.042027 383.987235,612.427093 C386.458151,612.78336 387.807767,615.054293 388.156639,617.434027 C388.671947,620.934827 388.980278,624.483627 389.102971,628.020693 C389.993823,653.750827 390.716108,679.486293 391.688044,705.213227 C392.685586,731.632427 393.906108,758.043093 395.028476,784.462293 C394.741482,788.65216 396.565864,793.520427 390.599817,796.455893 C390.191198,786.176427 389.774044,776.235093 389.4049,766.291627 C387.673338,719.65056 385.968449,673.00736 384.211282,626.36736 C384.062984,622.44096 383.810131,618.423893 379.339864,616.580693" id="Fill-12" fill="#312311" sketch:type="MSShapeGroup"></path>
                <path d="M251.223382,581.31936 C251.875252,578.95136 252.869593,576.611093 255.827011,577.30336 C259.113031,578.073493 260.00175,581.11456 260.180988,583.955093 C260.694162,592.095893 261.011028,600.25376 261.209469,608.409493 C262.05658,643.18816 262.810871,677.970027 263.677185,712.748693 C263.7508,715.730027 264.397335,718.697493 264.777148,721.68096 C264.737673,727.177493 264.554168,732.66976 264.716335,738.15136 C264.812356,741.38336 262.626299,742.67616 260.154315,745.237227 C259.701954,728.32416 259.2816,712.418027 258.851643,696.511893 C257.90958,661.62016 256.965382,626.728427 256.011583,591.83776 C255.898493,587.67136 255.473871,583.61696 251.223382,581.31936" id="Fill-14" fill="#312311" sketch:type="MSShapeGroup"></path>
                <path d="M227.304464,556.78304 C227.6384,554.113173 229.166186,552.34784 231.824875,552.576107 C235.025544,552.851307 236.26527,555.65024 236.521323,558.292373 C237.118781,564.46304 237.394039,570.675307 237.531668,576.876907 C238.109922,602.790507 238.313698,628.71584 239.217353,654.61664 C239.699587,668.458773 239.898029,682.297707 240.176487,696.138773 C240.205293,697.539307 239.957775,699.008107 240.989457,700.218773 C240.808086,704.33504 242.054213,708.945173 237.031296,711.408107 C235.350945,710.569707 236.064694,708.94944 236.032688,707.706773 C234.840972,660.913173 233.71327,614.119573 232.538624,567.325973 C232.430868,563.057173 232.438336,558.61344 227.304464,556.78304" id="Fill-16" fill="#312311" sketch:type="MSShapeGroup"></path>
                <path d="M364.682614,276.000427 L353.334109,276.000427 C366.17946,272.177493 378.858376,268.077227 390.967574,262.31296 C395.870998,259.978027 400.206838,256.525227 405.514614,255.019093 C398.946841,261.32096 390.667778,264.779093 382.624497,268.55296 C376.768339,271.300693 370.672132,273.536427 364.682614,276.000427" id="Fill-18" fill="#312311" sketch:type="MSShapeGroup"></path>
                <path d="M206.972001,479.87968 C207.320874,454.123947 207.586529,428.36608 208.106105,402.614613 C208.189322,398.491947 207.31874,397.72608 203.138667,398.38528 C171.57367,403.36448 139.897717,407.68128 108.715733,414.851413 C97.8174559,417.35808 87.0429375,420.285013 76.8274692,424.93248 C75.4533154,425.558613 74.0983656,425.57888 72.7050077,425.733547 C80.3322017,419.282347 89.7368338,416.738347 99.0027702,414.047147 C123.727937,406.867413 149.163653,403.154347 174.500148,398.99648 C185.512583,397.189547 196.564493,395.62048 207.587596,393.87968 C208.028222,393.80928 211.315309,393.91488 208.012218,392.44928 C208.413369,328.498347 205.189228,264.59968 205.228703,200.65728 C205.240439,182.72768 205.803757,164.77888 207.834048,146.94208 C208.293877,142.904747 206.626329,142.799147 203.53875,142.767147 C170.301937,142.421547 137.12167,143.64928 103.980877,146.111147 C102.422152,146.227413 100.857024,146.261547 98.7371147,146.358613 C100.538024,143.675947 102.14476,141.77728 105.071238,141.603413 C121.528011,140.72128 137.980516,139.437013 154.454359,139.061547 C172.181797,138.656213 189.911369,137.641813 207.66868,138.427947 C211.38359,138.592213 212.589175,139.41888 212.218964,143.232213 C208.680091,179.728213 209.553874,216.326613 210.393516,252.883413 C211.421998,297.61728 212.592376,342.34368 212.361927,387.093547 C212.250971,408.75328 212.286178,430.416213 211.855155,452.069547 C211.68872,460.40128 211.08166,468.73408 211.411329,477.071147 C211.566028,480.985813 209.947556,481.309013 206.972001,479.87968" id="Fill-20" fill="#312311" sketch:type="MSShapeGroup"></path>
                <path d="M360.238912,484.212267 C360.710477,434.986667 361.146835,385.761067 361.68028,336.536533 C361.789102,326.433067 356.730979,319.333333 348.928815,313.880533 C336.756671,305.3728 322.745209,301.416533 308.486229,298.237867 C297.903751,295.8784 287.208183,294.158933 276.416594,293.073067 C276.474206,290.862933 274.874938,287.6576 279.466831,288.260267 C300.048199,290.96 320.542082,294.027733 339.913597,302.040533 C344.521494,303.946667 348.97149,306.213333 352.975527,309.1296 C361.442363,315.294933 366.379928,323.061333 366.142012,334.279467 C365.562691,361.588267 366.169751,388.9248 365.442132,416.2272 C364.875614,437.5104 365.128467,458.788267 364.798798,480.065067 C364.74332,483.604267 363.830062,485.0944 360.238912,484.212267" id="Fill-22" fill="#312311" sketch:type="MSShapeGroup"></path>
                <path d="M370.023357,235.963627 C371.517002,229.08576 374.806223,222.782827 375.8123,215.685227 C379.478132,189.83776 371.652497,174.97376 347.952611,163.987093 C326.430246,154.01056 303.349156,150.26656 280.108032,147.209493 C277.471748,146.862827 274.81626,146.66016 272.17144,146.390293 C271.140825,142.454293 272.781701,141.398293 276.575561,141.822827 C302.393223,144.71136 328.103129,148.28256 351.942778,159.339627 C365.43253,165.596693 377.656952,173.76416 380.183346,190.169493 C382.461156,204.966293 380.21642,219.176427 373.186684,232.504427 C372.453731,233.893227 371.670634,235.35456 370.023357,235.963627" id="Fill-24" fill="#312311" sketch:type="MSShapeGroup"></path>
                <path d="M567.636175,444.899627 C570.527446,436.433493 569.192767,432.53696 561.188961,427.712427 C548.409757,420.007893 534.068626,416.637227 519.730697,413.459627 C489.453436,406.750293 458.801697,402.28096 428.016596,398.682027 C427.776546,395.927893 427.278309,393.18336 431.744309,393.79776 C465.81863,398.484693 499.949496,402.88576 533.405021,411.10976 C543.36977,413.558827 553.329185,416.391893 562.409483,421.460693 C564.724633,422.753493 567.064322,424.113493 569.075409,425.815893 C575.829887,431.53536 575.147078,439.764693 567.636175,444.899627" id="Fill-26" fill="#312311" sketch:type="MSShapeGroup"></path>
                <path d="M619.931904,467.221013 C610.451523,474.957547 599.181968,479.19648 587.900677,483.281813 C555.246386,495.104747 521.295824,501.438613 487.08174,506.539413 C467.089295,509.518613 447.025369,511.920747 426.854754,513.345813 C426.159141,510.50528 427.012653,509.15808 430.193051,508.915947 C466.072549,506.173547 501.688526,501.46208 536.906553,494.000747 C564.501653,488.155413 591.788422,481.293547 616.913673,467.861013 C617.867473,467.352213 618.806335,466.874347 619.931904,467.221013" id="Fill-28" fill="#312311" sketch:type="MSShapeGroup"></path>
                <path d="M566.64034,446.533013 C566.975343,445.96128 567.30928,445.390613 567.643216,444.81888 C567.30928,445.390613 566.974277,445.96128 566.64034,446.533013" id="Fill-30" fill="#312311" sketch:type="MSShapeGroup"></path>
                <path d="M620.986311,466.19808 C620.613967,466.555413 620.242689,466.913813 619.870344,467.271147 C619.779659,466.432747 620.316304,466.24608 620.986311,466.19808" id="Fill-32" fill="#312311" sketch:type="MSShapeGroup"></path>
            </g>
        </g>
    </g>
</svg>