<?xml version="1.0" encoding="UTF-8" standalone="no"?>
<svg width="800px" height="800px" viewBox="0 0 800 800" version="1.1" xmlns="http://www.w3.org/2000/svg" xmlns:xlink="http://www.w3.org/1999/xlink" xmlns:sketch="http://www.bohemiancoding.com/sketch/ns">
    <!-- Generator: Sketch 3.4.4 (17249) - http://www.bohemiancoding.com/sketch -->
    <title>sixers</title>
    <desc>Created with Sketch.</desc>
    <defs>
        <path id="path-1" d="M0,0.366759003 L799.60554,0.366759003 L799.60554,800 L0,800"></path>
    </defs>
    <g id="Page-1" stroke="none" stroke-width="1" fill="none" fill-rule="evenodd" sketch:type="MSPage">
        <g id="sixers" sketch:type="MSArtboardGroup">
            <g id="Page-1" sketch:type="MSLayerGroup">
                <g id="Group-3">
                    <mask id="mask-2" sketch:name="Clip 2" fill="white">
                        <use xlink:href="#path-1"></use>
                    </mask>
                    <g id="Clip-2"></g>
                    <path d="M759.03723,279.933296 C756.222825,272.734404 753.263269,265.00144 750.153019,257.330526 C749.456066,255.611967 747.847202,256.457396 746.818947,257.020277 C745.549141,257.716122 742.977396,257.356011 743.491524,259.833573 C744.483213,264.606981 741.160222,265.97097 737.860499,267.270693 C729.649972,270.502825 721.394017,273.621939 713.148033,276.763213 C710.065485,277.93662 707.130305,278.613629 704.91313,275.062382 C703.003989,272.006427 701.109252,275.095623 699.24,275.369307 C697.355235,275.645208 697.78626,276.974848 698.313684,278.32 C701.066039,285.337175 703.807313,292.358781 706.424488,299.425817 C707.103712,301.259612 708.205097,301.860166 709.737507,300.956011 C711.123657,300.137175 714.085429,300.724432 713.544709,297.963213 C712.603989,293.165429 715.914792,291.753795 719.180166,290.457396 C727.381828,287.203102 735.666593,284.158227 743.91036,281.010305 C747.025042,279.821385 749.973518,279.143269 752.129751,282.704488 C753.590139,285.118892 755.397341,283.389252 756.925319,282.826371 C757.892632,282.469584 759.792909,282.519446 759.03723,279.933296 M101.662161,190.052964 C102.530859,190.378726 103.479335,190.546039 104.210637,191.036898 C113.235568,197.087867 121.935845,203.578726 130.252742,210.572632 C132.005651,212.046316 132.307036,214.027479 131.295402,216.077341 C129.548033,219.620831 133.081551,219.97651 134.612853,221.225263 C136.692632,222.920554 137.391801,220.366537 138.258283,219.2441 C142.421163,213.84687 146.495402,208.379834 150.51867,202.877341 C151.365208,201.719446 153.435014,200.292299 150.900942,198.919446 C149.247756,198.024155 148.088753,194.66903 145.471579,197.224155 C142.617285,200.010859 140.026704,198.655734 137.586814,196.861828 C130.018947,191.301717 122.504266,185.66626 115.047202,179.958781 C112.635014,178.11169 110.662715,175.997562 112.459945,172.457396 C114.061053,169.303934 110.570748,169.075679 109.243324,167.737175 C107.562438,166.040776 106.69374,167.968753 105.873795,169.04687 C101.97241,174.180388 97.9956787,179.26626 94.3491413,184.577064 C93.3530194,186.027479 89.9447091,187.308366 92.6937396,189.90892 C94.6549584,191.763767 96.8167313,193.973186 99.5325208,190.651302 C99.9037119,190.198116 100.895402,190.251302 101.662161,190.052964 M197.971302,132.372078 C198.136399,139.464598 196.541939,145.843546 190.868809,150.727756 C187.991247,153.205319 185.446094,153.541053 182.84,150.399778 C176.724765,143.025817 170.521994,135.724986 164.427812,128.334404 C162.447756,125.933296 161.257729,123.340499 163.638892,120.37651 C165.917008,117.539945 162.526427,116.606981 161.525873,115.05241 C159.967978,112.629141 158.717008,115.016953 157.63446,115.901163 C152.497618,120.096177 147.379612,124.32 142.413407,128.713352 C141.30759,129.690637 138.334737,130.324432 140.284875,132.794238 C141.705374,134.593684 142.728089,137.64964 146.294848,135.433573 C148.879889,133.826925 150.931967,135.794792 152.482105,137.603102 C158.835568,145.018061 165.112576,152.499501 171.29651,160.056288 C172.931967,162.05518 174.417839,164.45518 172.168532,166.994792 C169.530305,169.972078 172.691524,171.295069 173.941385,172.850748 C175.883767,175.267368 177.136953,172.563767 178.325873,171.597562 C184.759114,166.369861 191.090416,161.016953 197.44277,155.689529 C210.977396,144.338837 210.945263,144.345485 204.528643,127.620831 C203.85385,125.860166 203.285429,124.57928 201.085983,125.220831 C199.131413,125.791468 196.978504,126.05518 197.75856,129.056842 C198.032244,130.10615 197.917008,131.25518 197.971302,132.372078 M542.832244,104.403102 C542.148587,104.302271 541.051634,104.171524 539.96687,103.975402 C532.188476,102.570416 530.734737,99.8701385 533.894848,92.6036565 C537.123657,85.1831579 540.340277,77.7560111 543.674349,70.3820499 C545.133629,67.153241 546.621717,64.0906371 551.376288,64.9427147 C554.430028,65.4911911 554.166316,62.0884211 554.988476,60.2989474 C556.020055,58.054072 553.552465,58.0706925 552.49651,57.585374 C546.312576,54.7432687 540.048864,52.0751247 533.792909,49.3936842 C532.38903,48.7931302 530.612853,47.2119668 529.595679,49.5565651 C528.771302,51.4590582 526.375734,53.5798338 529.56687,55.7704155 C532.210637,57.5842659 531.753019,60.1604432 530.640554,62.7111357 C526.820055,71.4778947 523.060499,80.2734626 519.153573,89.0025485 C517.993463,91.5975623 516.32144,93.9443767 512.863269,93.1465928 C508.96964,92.2490859 509.439446,95.8247091 508.568532,97.5798338 C507.409529,99.918892 510.049972,100.03856 511.359668,100.625817 C518.912022,104.010859 526.475457,107.374848 534.106482,110.577064 C539.298726,112.755457 544.69374,117.761551 549.646648,116.286759 C554.530859,114.831911 558.083213,108.962659 562.273795,105.087867 C563.843878,103.635235 565.090416,102.629141 563.125873,100.225817 C561.208975,97.8778947 559.84831,98.0961773 557.71867,99.5997784 C553.407313,102.647978 548.550803,104.24133 542.832244,104.403102 M717.354127,334.360997 C718.117562,339.839114 718.807867,345.329418 719.693186,350.788698 C719.939169,352.30892 718.843324,355.06903 722.005651,354.734404 C724.270471,354.493961 727.368532,355.205319 727.142493,350.938283 C726.998449,348.204765 729.163546,346.905042 731.69097,347.619723 C734.530859,348.421939 738.846648,346.623601 739.735291,351.31723 C740.523102,355.479003 741.215623,359.71169 741.349695,363.932188 C741.509252,368.934958 736.420055,368.564875 733.601219,370.368753 C730.959668,372.058504 729.325319,369.870139 728.919778,367.541053 C728.312576,364.058504 725.97241,365.629695 724.251634,365.629695 C721.908144,365.629695 721.757452,367.279557 721.994571,369.124432 C722.909806,376.259058 723.771856,383.400332 724.711468,390.531634 C724.905374,392.004211 725.242216,393.709474 727.346371,393.190914 C729.066039,392.766537 731.727535,394.229141 732.212853,391.022493 C732.785706,387.235235 735.679889,385.605319 738.64277,383.992022 C749.96687,377.826925 761.265485,371.614183 772.600665,365.467922 C775.329751,363.98759 778.58626,363.034681 777.162438,358.735512 C775.874903,354.846316 777.78072,349.853518 770.894294,348.43856 C758.468809,345.884543 746.305928,342.048532 734.043324,338.707812 C730.287091,337.683989 726.477673,336.659058 724.753573,332.543823 C723.584598,329.756011 721.312022,331.242992 719.478227,331.233019 C717.350803,331.221939 717.286537,332.749917 717.354127,334.360997 M250.736953,100.867368 C249.62892,98.1781717 251.285429,96.9039335 253.885983,95.9587812 C255.951357,95.2075346 258.095402,94.3842659 259.840554,93.0989474 C264.967424,89.3227701 268.364654,91.7094737 271.724211,95.7704155 C273.733075,98.1992244 274.537507,100.293407 271.334183,102.039668 C268.077673,103.813629 270.36133,105.657396 270.988476,107.504488 C272.018947,110.543823 273.880443,108.817507 275.389584,108.140499 C281.599003,105.356011 287.77518,102.500609 293.942493,99.6230471 C295.316454,98.9826039 297.672133,98.7011634 296.415623,96.3443767 C295.508144,94.6413296 295.799557,91.4645983 292.44554,92.0296953 C288.805651,92.6424377 286.620609,90.4053186 284.355789,88.2014404 C274.576288,78.6900831 264.719224,69.2573961 255.052742,59.6319114 C253.017285,57.6064266 251.167978,56.7886981 248.939723,58.6291413 C246.178504,60.9094737 240.529751,59.5831579 240.879889,65.8601662 C241.597895,78.7344044 241.846094,91.6363435 242.233906,104.52831 C242.36687,108.937175 242.740277,113.344931 238.764654,116.753241 C236.350249,118.824155 239.047202,120.741053 239.77518,122.593684 C240.725873,125.015845 242.278227,123.155457 243.370748,122.685651 C248.609529,120.431911 253.803989,118.067368 258.959668,115.628587 C260.095402,115.090083 262.277119,114.891745 261.140277,112.690083 C260.29374,111.050194 260.350249,107.806981 257.693186,108.518338 C250.403435,110.471801 251.483767,105.156565 250.736953,100.867368 M653.176842,128.696731 C653.032798,124.53385 650.722548,120.118338 646.857729,116.783158 C638.62615,109.679557 630.146371,102.861828 621.743047,95.9598892 C620.585152,95.0091967 619.335291,93.0468698 617.798449,95.4136288 C616.745817,97.0335734 613.761884,98.1715235 616.065485,100.885097 C618.362438,103.589806 617.248864,106.11169 615.449418,108.378726 C609.489307,115.890083 603.491524,123.374848 597.3641,130.747701 C595.594571,132.877341 593.444986,134.835235 590.223934,132.942715 C587.124765,131.121108 586.571856,134.306704 585.258837,135.701717 C583.411745,137.665152 585.490416,138.621385 586.664931,139.585374 C592.080997,144.027479 597.546925,148.410859 603.016177,152.788698 C604.077673,153.63856 605.199003,155.290637 606.610637,153.412521 C607.652188,152.026371 610.362438,150.572632 609.112576,148.975956 C604.719224,143.358227 609.600111,140.397562 611.938061,136.531634 C614.106482,132.947147 615.953573,133.515568 618.707036,135.99313 C622.390139,139.307258 626.267147,142.489529 630.924211,144.468476 C641.333075,148.892853 653.023934,141.203102 653.176842,128.696731 M60.5341828,355.323878 C60.6560665,344.159335 57.5026039,338.705596 50.3845983,336.519446 C39.4926316,333.172078 30.8333518,337.884543 28.538615,349.521108 C26.4045429,360.338837 25.4870914,371.398116 24.0599446,382.354349 C23.841662,384.023047 23.605651,385.865706 26.0843213,386.000886 C27.9170083,386.101717 30.273795,387.608643 31.2377839,384.672355 C32.5308587,380.732188 35.6577285,380.592576 38.8665928,380.951579 C48.0222715,381.977618 57.1657618,383.111136 66.3003878,384.30338 C69.1436011,384.674571 71.838338,385.562105 72.1131302,389.102271 C72.3801662,392.553795 75.0549584,391.693961 77.0804432,391.985374 C80.272687,392.445208 79.4527424,389.836898 79.6643767,388.307812 C80.5984488,381.555457 81.3785042,374.78205 82.2006648,368.014183 C82.3713019,366.618061 83.1236565,364.784266 80.8754571,364.52831 C79.006205,364.315568 76.9308587,363.241884 75.2156233,365.147701 C71.3530194,369.438006 65.7242105,371.239668 60.9851524,368.469584 C57.2821053,366.304488 60.3247645,362.262382 60.308144,359.06349 C60.2992798,357.409197 60.506482,355.752687 60.5341828,355.323878 M158.830028,607.555457 C156.162992,615.695069 153.677673,622.435235 151.803989,629.342715 C150.833352,632.920554 149.149141,633.916676 145.626704,633.792576 C138.279335,633.534404 130.917562,633.715014 123.56133,633.715014 C129.689861,639.354903 135.884875,643.964321 142.216177,648.377618 C144.375734,649.883435 144.879889,651.228587 143.953573,653.840222 C141.450526,660.897285 139.35856,668.099501 136.749141,676.366537 C143.518116,671.562105 149.494848,667.654072 155.062715,663.230803 C157.953573,660.934958 159.900388,661.13108 162.649418,663.268476 C168.149695,667.546593 173.911468,671.487867 180.83446,676.483989 C178.098726,668.017507 176.035568,661.163213 173.638892,654.427479 C172.595125,651.492299 173.17241,649.838006 175.765208,648.070693 C182.031136,643.798116 188.058837,639.17651 194.181828,634.695623 C186.155235,633.715014 178.638338,633.535512 171.138061,633.798116 C167.933629,633.911136 166.644986,632.778726 165.803989,629.812521 C163.802881,622.763213 161.446094,615.815845 158.830028,607.555457 M759.92144,536.727756 C757.812853,530.126094 756.497618,524.372078 754.146371,519.077895 C751.451634,513.013629 752.410083,509.162105 758.349141,505.762659 C763.633352,502.738837 768.281551,498.604765 774.370194,494.102825 C765.608975,494.102825 758.44554,493.864598 751.308698,494.198116 C747.502604,494.37651 745.721994,493.240776 744.722548,489.492299 C742.888753,482.608089 740.514238,475.866814 737.974626,467.831357 C735.324211,475.964321 732.887645,482.71446 730.978504,489.610859 C730.033352,493.025817 728.582936,494.335512 724.946371,494.189252 C717.663269,493.895623 710.360222,494.102825 702.935291,494.102825 C703.134737,494.934958 703.100388,495.418061 703.308698,495.57097 C707.608975,498.745485 711.924765,501.898947 716.261607,505.023601 C724.114238,510.680111 724.09651,510.66349 721.193463,519.724986 C719.523657,524.937175 717.946925,530.180388 715.956898,536.611413 C722.991801,531.600886 729.049418,527.454626 734.900942,523.034681 C737.202327,521.296177 738.843324,521.295069 741.128089,523.042438 C746.974072,527.511136 753.013961,531.726094 759.92144,536.727756 M685.16133,634.783158 L684.730305,633.715014 C677.43169,633.715014 670.123102,633.485651 662.838892,633.811413 C659.217839,633.974294 657.644432,632.747701 656.701496,629.353795 C654.821163,622.578172 652.541939,615.91446 649.940277,607.659612 C647.181274,616.016399 644.714792,622.559335 642.923102,629.282881 C641.967978,632.870693 640.343601,633.91446 636.797895,633.791468 C629.441662,633.53662 622.069917,633.715014 614.703712,633.715014 C620.217285,638.932742 625.665485,643.368199 631.595679,647.019169 C635.610083,649.492299 635.934737,652.062936 634.458837,656.067368 C632.148587,662.333296 630.289307,668.765429 627.803989,676.478449 C634.85662,671.433573 640.810083,667.44133 646.437784,663.033573 C649.174626,660.890637 651.020609,661.153241 653.614515,663.173186 C659.119224,667.459058 664.888753,671.403657 671.740831,676.346593 C669.284321,668.416399 667.517008,661.712798 665.087091,655.258504 C663.721994,651.631911 664.401219,649.686205 667.548033,647.578726 C673.57241,643.543269 679.306482,639.073463 685.16133,634.783158 M346.600665,724.912798 C337.471579,724.912798 330.112022,724.775402 322.763546,724.977064 C319.643324,725.06349 318.187368,724.054072 317.324211,720.97928 C315.305374,713.797008 312.872133,706.732188 310.247202,698.491745 C307.638892,706.534958 305.225596,713.46349 303.182382,720.499501 C302.201773,723.875679 300.58072,725.154349 296.970748,725.00144 C289.857175,724.701163 282.72144,724.912798 275.595679,724.912798 C280.618393,729.912244 285.796233,733.99867 291.30759,737.569861 C295.247756,740.12277 296.688199,742.512798 294.611745,747.334958 C292.036676,753.313906 290.571856,759.769307 288.229474,767.298393 C295.078227,762.397562 300.868809,758.472909 306.395679,754.205873 C309.142493,752.085097 311.103712,751.818061 313.994571,754.140499 C319.483767,758.549363 325.36964,762.465152 332.140831,767.342715 C329.562438,759.135512 327.688753,752.218061 325.165762,745.545485 C323.89928,742.197008 324.846648,740.64133 327.474903,738.827479 C333.508144,734.66349 339.348587,730.219169 346.600665,724.912798 M516.162992,767.316122 C513.630028,759.258504 511.654404,752.203657 509.145817,745.343823 C508.03446,742.30338 508.643878,740.774294 511.185706,739.023601 C517.263269,734.837452 523.131413,730.347701 529.083767,725.979834 C521.643324,724.912798 514.666039,724.698947 507.712022,724.999224 C503.953573,725.160997 502.105374,724.12277 501.100388,720.291191 C499.258837,713.274017 496.797895,706.419723 494.280443,698.50615 C491.617839,706.690083 489.162438,713.816953 487.017285,721.035789 C486.131967,724.013075 484.688199,725.092299 481.533629,724.989252 C474.229474,724.749917 466.910914,724.912798 459.597895,724.912798 C465.346371,730.433019 471.314238,734.965983 477.503712,739.174294 C479.964654,740.848532 480.274903,742.439668 479.350803,745.097839 C476.949695,752.006427 474.82892,759.011413 472.150803,767.364875 C479.145817,762.378726 485.058283,758.400886 490.683767,754.04964 C493.310914,752.017507 495.10482,751.865706 497.807313,753.999778 C503.429474,758.43856 509.389584,762.447424 516.162992,767.316122 M451.612299,78.6091967 C444.16964,78.5438227 443.095956,77.3970083 443.909252,70.2114127 C444.240554,67.2828809 444.847756,64.3765097 445.036122,61.4413296 C445.257729,58.0097507 447.103712,58.0230471 449.539169,58.985928 C452.9641,60.3410526 453.995679,63.219723 454.02338,66.5482548 C454.046648,69.254072 455.944709,69.2596122 457.781828,69.5299723 C460.105374,69.8712465 460.413407,68.5105817 460.667147,66.6103047 C461.520332,60.219169 462.519778,53.8446537 463.576842,47.4823269 C463.925873,45.3814958 463.300942,44.5726316 461.163546,44.1560111 C458.202881,43.5798338 457.573518,45.0645983 456.69928,47.4380055 C455.200111,51.5078116 448.612853,53.3715235 447.495956,50.2745706 C446.18626,46.6457618 447.551357,42.6324654 448.967424,39.0623823 C449.98903,36.487313 452.539723,36.9726316 454.76133,37.2596122 C462.976288,38.321108 468.430028,43.2917452 472.426704,50.0751247 C473.65662,52.1626593 474.606205,52.8684765 477.092632,51.9598892 C479.996787,50.8983934 479.43169,49.2684765 478.792355,47.1831579 C477.767424,43.8413296 476.743601,40.487313 476.000111,37.0767867 C475.326427,33.9809418 473.692078,32.6169529 470.505374,32.1903601 C457.723102,30.4773407 444.976288,28.5006094 432.207313,26.686759 C430.915346,26.5039335 428.836676,25.5255402 428.607313,27.7404986 C428.405651,29.685097 426.485429,32.5681994 429.396233,33.6341274 C433.495956,35.1355125 433.329751,38.2346814 432.943047,41.2950693 C431.788476,50.4341274 430.424488,59.5488089 429.001773,68.6501939 C428.531967,71.6573961 427.52144,74.3698615 423.65108,74.6147368 C420.273795,74.8274792 421.340831,77.8978393 420.914238,79.7648753 C420.256066,82.6424377 422.91867,81.7792798 424.228366,81.98759 C433.505928,83.4634903 442.794571,84.8762327 452.103158,86.1404986 C457.367424,86.8551801 463.56687,90.0496399 467.65108,87.5809418 C471.890416,85.0169529 473.860499,78.7155679 476.857729,74.0718006 C478.112022,72.1283102 479.201219,70.5571191 476.536399,68.5427147 C473.900388,66.5493629 472.818947,68.0418837 471.144709,69.6806648 C465.731967,74.9848199 459.545817,78.7587812 451.612299,78.6091967 M352.279335,29.5421607 C342.702604,30.8950693 331.78072,32.4884211 320.84,33.9355125 C318.934183,34.188144 318.139723,34.9083657 318.565208,36.7155679 C318.978504,38.4718006 317.925873,41.1654294 321.141385,41.3127978 C324.641662,41.4723546 325.91036,43.8513019 326.360222,46.7377285 C327.861607,56.3720776 329.262161,66.0241551 330.595125,75.6839889 C330.936399,78.1626593 330.517562,80.8053186 327.85385,81.7139058 C324.453296,82.8729086 325.249972,85.2596122 325.657729,87.5222161 C326.241662,90.7643213 328.782382,89.3936842 330.531967,89.1731856 C338.015623,88.2302493 345.490416,87.1953463 352.940831,86.0175069 C362.128643,84.5648753 371.272133,82.5327424 377.484875,74.8817729 C385.371856,65.1709695 384.546371,54.3488089 379.7641,43.6740166 C374.754681,32.4939612 364.672687,30.0585042 352.279335,29.5421607 M688.735845,168.281219 C689.446094,171.628587 687.545817,173.280665 685.606759,174.664598 C677.806205,180.231357 669.942493,185.709474 662.044432,191.13662 C659.828366,192.65795 657.269917,193.688421 654.991801,191.372632 C652.213961,188.547147 650.685983,191.440222 648.979612,192.5959 C646.332521,194.388698 648.996233,195.822493 649.815069,197.054626 C653.484875,202.580388 657.327535,207.99313 661.184598,213.392576 C662.037784,214.587036 662.735845,217.028033 664.82338,215.302825 C666.227258,214.142715 669.624488,214.080665 668.10205,210.656842 C666.435568,206.903934 668.917562,204.86072 671.491524,202.864044 C680.835568,195.616399 680.82892,195.606427 687.481551,205.174294 C692.741385,212.739945 692.785706,212.806427 685.102604,217.913352 C681.714238,220.164875 678.517562,223.641884 673.885983,219.506704 C671.892632,217.727202 670.373518,220.591468 668.800111,221.553241 C667.088199,222.600332 668.487645,223.809197 669.162438,224.783158 C673.254404,230.692299 677.359668,236.593684 681.543601,242.43856 C682.287091,243.476787 682.905374,245.677341 684.785706,244.194792 C686.320332,242.985928 689.744155,242.513906 688.430028,239.605319 C686.477673,235.282881 689.287645,233.359335 691.922548,231.449086 C699.084875,226.25795 706.365762,221.227479 713.661053,216.223601 C716.483213,214.287867 719.293186,212.813075 722.543047,215.975402 C724.695956,218.071801 725.980166,215.092299 727.56687,214.279003 C729.488199,213.293961 728.644986,212.027479 727.700942,210.693407 C723.443878,204.676787 719.279889,198.592576 715.033906,192.567091 C714.354681,191.603102 713.677673,189.98759 712.069917,191.26072 C710.698172,192.347701 707.667701,193.061274 708.350249,194.766537 C711.286537,202.090637 704.894294,203.419169 701.346371,206.60144 C699.740831,208.041884 698.433352,208.39313 696.991801,206.11723 C694.430028,202.071801 691.539169,198.236898 688.831136,194.283435 C688.264931,193.456842 687.283213,192.777618 688.02338,191.415845 C690.061053,187.665152 698.820055,184.630249 702.166316,187.043546 C704.854404,188.981496 705.734183,186.445208 707.295402,185.693961 C709.649972,184.562659 708.407867,183.082327 707.43169,181.690637 C703.726427,176.411967 700.165208,171.023601 696.249418,165.904488 C695.18903,164.518338 695.002881,160.823047 691.817285,162.625817 C689.709806,163.818061 685.976842,164.861828 688.735845,168.281219 M66.7469252,253.280665 C70.6361219,253.780388 74.7602216,254.865152 77.2566205,257.522216 C78.7790582,259.142161 75.8582825,262.429695 74.9264266,264.959335 C73.9103601,267.719446 72.7214404,270.417507 71.5613296,273.122216 C71.1491413,274.082881 70.9696399,275.30615 69.6333518,275.518892 C65.8782271,276.112798 58.041108,269.873463 58.1840443,265.937729 C58.3114681,262.435235 55.5203324,263.036898 53.8571745,262.080665 C51.6244875,260.796454 51.441662,263.026925 50.9585596,264.152687 C48.1297507,270.739945 45.4161773,277.375956 42.6870914,284.005319 C42.1685319,285.264044 40.7967867,286.872909 43.0804432,287.597562 C44.9219945,288.182604 46.9109141,290.792022 48.8976177,287.99867 C51.0959557,284.908366 53.7796122,285.2441 56.7236565,286.469584 C65.3796122,290.074017 74.0444321,293.657396 82.6859834,297.298393 C85.5967867,298.524986 87.705374,300.281219 87.1125762,303.988698 C86.5829363,307.303934 89.7109141,307.000332 91.4837673,307.831357 C93.6377839,308.841884 93.8261496,306.733296 94.3480332,305.511136 C97.1624377,298.91723 99.9524654,292.311136 102.633906,285.66072 C103.027258,284.685651 104.485429,283.146593 102.485429,282.433019 C100.748033,281.813629 98.5341828,279.271801 97.1513573,281.272909 C93.6278116,286.37097 89.8516343,283.965429 85.9857064,282.427479 C77.0106371,278.856288 77.0195014,278.831911 80.7447091,269.886759 C85.0427701,259.564321 85.0505263,259.549917 95.4527424,264.588144 C98.4466482,266.03856 101.657729,267.281773 100.682659,271.793684 C100.013407,274.883989 103.101496,274.512798 104.657175,275.362659 C107.017285,276.653518 107.417285,274.372078 108.007867,272.99036 C110.750249,266.565983 113.400665,260.102825 116.061053,253.6441 C116.647202,252.219169 118.075457,250.45518 115.348587,249.774848 C113.539169,249.32277 111.671025,246.462936 109.731967,249.607535 C107.667701,252.954903 104.748033,252.219169 101.935845,251.061274 C93.4372299,247.562105 84.9884765,243.939945 76.5219945,240.362105 C73.4516343,239.064598 71.0250416,237.435789 71.6577285,233.404765 C72.1796122,230.076233 68.9363989,230.485097 67.1978947,229.629695 C64.9629917,228.529418 64.9474792,230.895069 64.4499723,232.027479 C61.7164543,238.256842 59.0128532,244.503934 56.5308587,250.836343 C56.0111911,252.161551 53.7851524,254.150471 56.8045429,255.348255 C58.8178393,256.146039 60.9906925,258.32554 62.8965097,254.993684 C63.6854294,253.614183 65.1236565,253.133296 66.7469252,253.280665 M699.70205,402.380942 C699.372964,235.97651 565.664377,102.642438 400.492078,102.267922 C235.090416,101.892299 100.011191,234.869584 99.9845983,402.074017 C99.9568975,567.749363 233.107036,701.639668 399.89374,701.958781 C565.131413,702.273463 699.700942,567.434681 699.70205,402.380942 M82.8134072,534.854072 C82.8045429,535.095623 82.7956787,535.338283 82.7857064,535.580942 C82.9419391,535.565429 83.0981717,535.551025 83.2532964,535.535512 C83.0616066,535.337175 82.8699169,535.138837 82.6782271,534.940499 C81.772964,528.530526 79.3984488,522.521662 77.1247645,516.556011 C75.4250416,512.096177 76.4621607,509.629695 80.3303047,507.132188 C86.0422161,503.444654 91.3773961,499.173186 96.873241,495.151025 C89.4538504,494.102825 82.6505263,493.800332 75.8915235,494.210305 C71.4671468,494.478449 69.3264266,493.213075 68.2460942,488.749917 C66.6771191,482.26349 64.3535734,475.959889 61.8283657,467.906704 C59.0095291,476.417507 56.571856,483.265152 54.5164543,490.224709 C53.641108,493.18759 52.340277,494.294515 49.1580055,494.18482 C41.7286427,493.926648 34.2837673,494.101717 26.8455402,494.101717 C32.0233795,499.157673 37.3308587,503.360443 42.9929086,507.014737 C46.7912465,509.466814 48.0809972,511.815845 46.2472022,516.344377 C43.806205,522.37097 42.2228255,528.745485 40.2715789,534.971524 C46.5951247,531.743823 52.1463712,528.140499 57.2544044,523.990914 C60.5541274,521.310582 62.8300277,521.453518 66.2649307,523.917784 C71.6222715,527.763767 76.2161773,532.870693 82.8134072,534.854072 M799.604543,400.501717 C799.365208,622.753241 618.328089,801.37928 397.078227,799.992022 C181.415069,798.640222 0.0111911357,624.565983 0.000110803324,400.077341 C-0.0109695291,177.279557 180.053296,-0.0611634349 400.514238,0.367645429 C622.594017,0.799778393 799.733075,180.698947 799.604543,400.501717" id="Fill-1" fill="#013EA5" sketch:type="MSShapeGroup" mask="url(#mask-2)"></path>
                </g>
                <path d="M687.508809,401.033906 C687.517673,233.155789 549.357008,114.167424 401.269474,113.91036 C241.161994,113.633352 111.935402,242.016731 111.518781,401.391801 C111.103269,560.288199 240.916011,690.554127 399.345928,690.223934 C560.163657,689.888199 687.508809,562.089861 687.508809,401.033906 M699.701607,402.381274 C699.701607,567.435014 565.132078,702.273795 399.893296,701.958006 C233.106593,701.64 99.9575623,567.748587 99.9841551,402.074349 C100.010748,234.869917 235.089972,101.892632 400.491634,102.268255 C565.663934,102.64277 699.373629,235.975734 699.701607,402.381274" id="Fill-4" fill="#FCFDFD" sketch:type="MSShapeGroup"></path>
                <path d="M66.7468144,253.280443 C65.1246537,253.133075 63.6853186,253.613961 62.8975069,254.993463 C60.9916898,258.325319 58.8177285,256.145817 56.8044321,255.348033 C53.7850416,254.151357 56.0110803,252.162438 56.5307479,250.836122 C59.0127424,244.503712 61.7174515,238.25662 64.4509695,232.027258 C64.9473684,230.894848 64.9628809,228.530305 67.198892,229.629474 C68.9362881,230.484875 72.1795014,230.076011 71.6576177,233.405651 C71.0249307,237.436676 73.4515235,239.064377 76.5218837,240.361884 C84.9883657,243.939723 93.4371191,247.561884 101.936842,251.061053 C104.747922,252.218947 107.66759,252.954681 109.732964,249.607313 C111.670914,246.462715 113.539058,249.322548 115.349584,249.774626 C118.075346,250.454958 116.647091,252.218947 116.060942,253.643878 C113.400554,260.102604 110.750139,266.565762 108.007756,272.990139 C107.417175,274.371856 107.017175,276.653296 104.657064,275.362438 C103.102493,274.512576 100.013296,274.883767 100.682548,271.793463 C101.658726,267.282659 98.4465374,266.038338 95.4537396,264.58903 C85.0504155,259.549695 85.0426593,259.565208 80.7445983,269.886537 C77.0204986,278.83169 77.0105263,278.856066 85.9867036,282.427258 C89.8526316,283.965208 93.6277008,286.371856 97.1512465,281.272687 C98.534072,279.271579 100.74903,281.813407 102.486427,282.432798 C104.485319,283.146371 103.027147,284.686537 102.633795,285.661607 C99.9523546,292.310914 97.1623269,298.917008 94.3479224,305.510914 C93.8260388,306.733075 93.6376731,308.841662 91.4836565,307.831136 C89.7108033,307.000111 86.5828255,307.303712 87.1124654,303.988476 C87.7063712,300.282105 85.5966759,298.524765 82.6858726,297.298172 C74.0443213,293.658283 65.3795014,290.073795 56.7235457,286.470471 C53.7795014,285.244986 51.0958449,284.908144 48.8975069,287.999557 C46.9119114,290.791801 44.9229917,288.182382 43.0803324,287.598449 C40.7966759,286.872687 42.1684211,285.264931 42.6869806,284.005097 C45.4160665,277.375734 48.1296399,270.739723 50.9584488,264.152465 C51.4415512,263.026704 51.6243767,260.796233 53.8570637,262.080443 C55.5213296,263.036676 58.3113573,262.436122 58.1839335,265.937507 C58.0409972,269.873241 65.8792244,276.113684 69.633241,275.51867 C70.9695291,275.307036 71.1501385,274.082659 71.5612188,273.121994 C72.7213296,270.417285 73.9102493,267.719224 74.9263158,264.959114 C75.8581717,262.429474 78.7789474,259.141939 77.2565097,257.521994 C74.7601108,254.864931 70.6360111,253.780166 66.7468144,253.280443" id="Fill-6" fill="#FCFDFD" sketch:type="MSShapeGroup"></path>
                <path d="M688.735402,168.281108 C685.977507,164.861717 689.709363,163.81795 691.81795,162.625706 C695.003546,160.822936 695.188587,164.518227 696.250083,165.905485 C700.164765,171.02349 703.725983,176.411856 707.431247,181.690526 C708.408532,183.082216 709.649529,184.562548 707.296066,185.694958 C705.73374,186.445097 704.853961,188.981385 702.165873,187.043435 C698.82072,184.630139 690.060609,187.665042 688.022936,191.416842 C687.283878,192.777507 688.264488,193.456731 688.830693,194.283324 C691.538726,198.237895 694.430693,202.072798 696.991357,206.117119 C698.434017,208.394127 699.740388,208.042881 701.347036,206.602438 C704.89385,203.419058 711.286094,202.090526 708.350914,194.766427 C707.667258,193.061163 710.698837,192.34759 712.070582,191.260609 C713.678338,189.987479 714.354238,191.602992 715.034571,192.568089 C719.280554,198.593573 723.443435,204.676676 727.701607,210.693296 C728.645651,212.027368 729.488864,213.29385 727.566427,214.278892 C725.979723,215.092188 724.69662,218.07169 722.542604,215.976399 C719.292742,212.814072 716.48277,214.287756 713.660609,216.22349 C706.365319,221.227368 699.08554,226.258947 691.922105,231.448975 C689.287202,233.359224 686.47723,235.28277 688.429584,239.605208 C689.743712,242.513795 686.319889,242.985817 684.786371,244.195789 C682.906039,245.67723 682.286648,243.476676 681.543158,242.438449 C677.360332,236.593573 673.253961,230.693296 669.161994,224.783047 C668.48831,223.810194 667.087756,222.60133 668.800776,221.55313 C670.373075,220.591357 671.893296,217.727091 673.886648,219.506593 C678.518227,223.641773 681.714903,220.164765 685.102161,217.913241 C692.785263,212.806316 692.740942,212.739834 687.481108,205.174183 C680.828476,195.606316 680.836233,195.616288 671.49108,202.863934 C668.917119,204.860609 666.435125,206.903823 668.102715,210.656731 C669.624044,214.080554 666.226814,214.143712 664.824044,215.302715 C662.73651,217.027922 662.038449,214.586925 661.184155,213.392465 C657.327091,207.994127 653.484432,202.581385 649.815734,197.054515 C648.996898,195.822382 646.332078,194.388587 648.979169,192.595789 C650.68554,191.440111 652.214626,188.548144 654.992465,191.372521 C657.269474,193.689418 659.82903,192.658947 662.043989,191.13651 C669.943158,185.709363 677.80687,180.231247 685.606316,174.664488 C687.545374,173.281662 689.446759,171.629584 688.735402,168.281108" id="Fill-8" fill="#FCFDFD" sketch:type="MSShapeGroup"></path>
                <path d="M367.644765,59.9536842 C367.673573,55.8506371 366.910139,51.9016066 365.28687,48.1342936 C361.727867,39.8772299 354.90903,36.1221053 346.251967,37.4439889 C342.257507,38.0545152 340.360554,39.9381717 341.003213,44.1653186 C342.526759,54.1763989 343.948366,64.2029917 345.367756,74.2284765 C345.959446,78.41241 348.21651,79.7498061 352.329529,79.0173961 C362.364986,77.2323546 367.700166,70.714903 367.644765,59.9536842 M352.27856,29.5414958 C364.673019,30.0578393 374.753906,32.4932964 379.763324,43.6744598 C384.545596,54.3492521 385.372188,65.1714127 377.485208,74.8822161 C371.271357,82.5320776 362.128975,84.5642105 352.941163,86.0179501 C345.490748,87.1957895 338.015956,88.2306925 330.532299,89.1725208 C328.781607,89.3930194 326.241994,90.7647645 325.658061,87.5215512 C325.250305,85.2600554 324.453629,82.8722438 327.854183,81.713241 C330.517895,80.8057618 330.936731,78.1619945 330.594349,75.6844321 C329.262493,66.0245983 327.861939,56.3725208 326.360554,46.7370637 C325.910693,43.8517452 324.640886,41.4727978 321.141717,41.312133 C317.925097,41.1658726 318.978837,38.4711357 318.564432,36.714903 C318.138947,34.9077008 318.934515,34.1874792 320.840332,33.9359557 C331.781053,32.4888643 342.702936,30.8944044 352.27856,29.5414958" id="Fill-10" fill="#FCFDFD" sketch:type="MSShapeGroup"></path>
                <path d="M451.612521,78.6097507 C459.546039,78.7582271 465.732188,74.9842659 471.144931,69.6812188 C472.819169,68.0413296 473.900609,66.5488089 476.53662,68.5421607 C479.20144,70.5576731 478.112244,72.1288643 476.85795,74.0723546 C473.86072,78.7161219 471.890637,85.0175069 467.650194,87.5814958 C463.567091,90.0501939 457.367645,86.854626 452.102271,86.1399446 C442.794792,84.8767867 433.505042,83.4629363 424.228587,81.988144 C422.918892,81.7787258 420.256288,82.6429917 420.91446,79.7643213 C421.341053,77.8983934 420.274017,74.8280332 423.651302,74.6141828 C427.521662,74.3693075 428.53108,71.6568421 429.001994,68.6507479 C430.423601,59.5482548 431.788698,50.4346814 432.943269,41.2956233 C433.329972,38.2352355 433.496177,35.1360665 429.396454,33.6346814 C426.485651,32.5687535 428.405873,29.6845429 428.607535,27.7410526 C428.836898,25.5249861 430.91446,26.5033795 432.207535,26.687313 C444.97651,28.5000554 457.723324,30.4767867 470.505596,32.1898061 C473.692299,32.6175069 475.32554,33.9803878 476.000332,37.0762327 C476.743823,40.486759 477.767645,43.8418837 478.792576,47.1837119 C479.431911,49.2690305 479.997008,50.8989474 477.092853,51.9604432 C474.606427,52.8690305 473.656842,52.1621053 472.426925,50.0756787 C468.430249,43.2911911 462.97651,38.320554 454.761551,37.2601662 C452.539945,36.9731856 449.989252,36.486759 448.967645,39.0629363 C447.551579,42.6319114 446.186482,46.6463158 447.496177,50.2751247 C448.613075,53.3720776 455.200332,51.5072576 456.699501,47.4374515 C457.57374,45.0651524 458.201994,43.5792798 461.163767,44.1565651 C463.301163,44.5731856 463.926094,45.3809418 463.577064,47.4817729 C462.518892,53.8440997 461.520554,60.218615 460.667368,66.6108587 C460.413629,68.5100277 460.105596,69.8718006 457.780942,69.5305263 C455.944931,69.2601662 454.045762,69.254626 454.023601,66.5477008 C453.9959,63.219169 452.964321,60.3404986 449.539391,58.986482 C447.103934,58.0236011 445.256842,58.0103047 445.036343,61.4418837 C444.847978,64.3770637 444.239668,67.2823269 443.908366,70.2119668 C443.096177,77.3975623 444.168753,78.5432687 451.612521,78.6097507" id="Fill-12" fill="#FCFDFD" sketch:type="MSShapeGroup"></path>
                <path d="M516.163213,767.316676 C509.389806,762.44687 503.429695,758.438006 497.807535,754.000332 C495.105042,751.86626 493.311136,752.018061 490.683989,754.050194 C485.058504,758.400332 479.144931,762.37928 472.151025,767.364321 C474.828033,759.011967 476.949917,752.005873 479.351025,745.098393 C480.275125,742.440222 479.964875,740.847978 477.503934,739.174848 C471.31446,734.966537 465.346593,730.432465 459.598116,724.913352 C466.911136,724.913352 474.228587,724.749363 481.53385,724.988698 C484.688421,725.091745 486.132188,724.013629 487.016399,721.036343 C489.162659,713.817507 491.618061,706.689529 494.279557,698.505596 C496.798116,706.420277 499.259058,713.274571 501.100609,720.291745 C502.105596,724.123324 503.953795,725.161551 507.711136,724.999778 C514.66626,724.698393 521.643546,724.913352 529.083989,725.980388 C523.131634,730.347147 517.26349,734.836898 511.185928,739.024155 C508.6441,740.774848 508.034681,742.302825 509.146039,745.343269 C511.654626,752.204211 513.630249,759.25795 516.163213,767.316676" id="Fill-14" fill="#FCFDFD" sketch:type="MSShapeGroup"></path>
                <path d="M346.600665,724.912798 C339.348587,730.219169 333.508144,734.66349 327.474903,738.827479 C324.846648,740.64133 323.89928,742.197008 325.165762,745.545485 C327.688753,752.218061 329.562438,759.135512 332.140831,767.342715 C325.36964,762.465152 319.483767,758.549363 313.995679,754.140499 C311.10482,751.818061 309.142493,752.085097 306.395679,754.205873 C300.868809,758.472909 295.078227,762.397562 288.229474,767.298393 C290.571856,759.769307 292.036676,753.313906 294.611745,747.334958 C296.688199,742.512798 295.247756,740.12277 291.30759,737.569861 C285.796233,733.99867 280.618393,729.912244 275.595679,724.912798 C282.72144,724.912798 289.857175,724.701163 296.970748,725.00144 C300.58072,725.154349 302.201773,723.875679 303.182382,720.499501 C305.225596,713.46349 307.638892,706.534958 310.247202,698.491745 C312.872133,706.732188 315.305374,713.798116 317.324211,720.97928 C318.187368,724.054072 319.643324,725.06349 322.763546,724.977064 C330.11313,724.775402 337.471579,724.912798 346.600665,724.912798" id="Fill-16" fill="#FCFDFD" sketch:type="MSShapeGroup"></path>
                <path d="M685.160997,634.782936 C679.30615,639.073241 673.573186,643.544155 667.547701,647.579612 C664.400886,649.687091 663.721662,651.632798 665.087867,655.259391 C667.516676,661.712576 669.283989,668.416177 671.740499,676.346371 C664.889529,671.403435 659.118892,667.458837 653.614183,663.172964 C651.020277,661.153019 649.175402,660.890416 646.43856,663.03446 C640.809751,667.441108 634.857396,671.433352 627.803657,676.478227 C630.288975,668.766316 632.148255,662.334183 634.458504,656.067147 C635.935512,652.062715 635.610859,649.492078 631.595346,647.020055 C625.665152,643.367978 620.216953,638.933629 614.704488,633.714792 C622.069584,633.714792 629.44133,633.536399 636.797562,633.791247 C640.344377,633.914238 641.967645,632.871579 642.923878,629.282659 C644.71446,622.559114 647.180942,616.016177 649.941053,607.659391 C652.541607,615.914238 654.820831,622.579058 656.702271,629.353573 C657.6441,632.747479 659.217507,633.974072 662.83856,633.811191 C670.12277,633.485429 677.431357,633.714792 684.729972,633.714792 L685.160997,634.782936 Z" id="Fill-18" fill="#FCFDFD" sketch:type="MSShapeGroup"></path>
                <path d="M759.921884,536.727867 C753.013296,531.726205 746.973407,527.511247 741.128532,523.04144 C738.842659,521.29518 737.20277,521.296288 734.901385,523.034792 C729.049861,527.454737 722.992244,531.600997 715.956233,536.611524 C717.947368,530.180499 719.5241,524.937285 721.193906,519.725097 C724.096953,510.663601 724.114681,510.680222 716.26205,505.023712 C711.925208,501.899058 707.609418,498.745596 703.309141,495.57108 C703.100831,495.417064 703.134072,494.935069 702.935734,494.101828 C710.359557,494.101828 717.663712,493.895734 724.946814,494.189363 C728.582271,494.335623 730.032687,493.025928 730.978947,489.61097 C732.888089,482.714571 735.324654,475.964432 737.975069,467.831468 C740.514681,475.866925 742.889197,482.608199 744.722992,489.49241 C745.72133,493.240886 747.503047,494.37662 751.309141,494.198227 C758.445983,493.864709 765.609418,494.101828 774.369529,494.101828 C768.280886,498.604875 763.632687,502.738947 758.349584,505.76277 C752.409418,509.162216 751.452078,513.01374 754.146814,519.078006 C756.498061,524.372188 757.813296,530.126205 759.921884,536.727867" id="Fill-20" fill="#FCFDFD" sketch:type="MSShapeGroup"></path>
                <path d="M158.830139,607.555457 C161.446205,615.815845 163.802992,622.763213 165.8041,629.812521 C166.645097,632.778726 167.93374,633.911136 171.138172,633.799224 C178.638449,633.535512 186.155346,633.715014 194.181939,634.695623 C188.057839,639.17651 182.031247,643.798116 175.765319,648.070693 C173.172521,649.838006 172.595235,651.492299 173.639003,654.427479 C176.035679,661.163213 178.098837,668.017507 180.834571,676.483989 C173.911579,671.487867 168.149806,667.546593 162.649529,663.268476 C159.900499,661.13108 157.953684,660.934958 155.062825,663.230803 C149.494958,667.654072 143.518227,671.563213 136.749252,676.367645 C139.35867,668.099501 141.450637,660.897285 143.953684,653.840222 C144.88,651.228587 144.375845,649.883435 142.216288,648.377618 C135.884986,643.964321 129.689972,639.354903 123.56144,633.715014 C130.917673,633.715014 138.279446,633.534404 145.626814,633.792576 C149.149252,633.916676 150.833463,632.920554 151.8041,629.342715 C153.677784,622.435235 156.163102,615.695069 158.830139,607.555457" id="Fill-22" fill="#FCFDFD" sketch:type="MSShapeGroup"></path>
                <path d="M82.8155125,534.85385 C76.2160665,532.870471 71.6232687,527.763546 66.2648199,523.917562 C62.8310249,521.453296 60.5540166,521.31036 57.2542936,523.990693 C52.1473684,528.140277 46.5950139,531.743601 40.2714681,534.971302 C42.2227147,528.746371 43.8060942,522.371856 46.2470914,516.344155 C48.0808864,511.815623 46.7911357,509.466593 42.9927978,507.014515 C37.3307479,503.360222 32.0232687,499.157452 26.8454294,494.101496 C34.2847645,494.101496 41.7285319,493.926427 49.1578947,494.184598 C52.3412742,494.295402 53.6409972,493.187368 54.5163435,490.224488 C56.5717452,483.264931 59.0094183,476.417285 61.8282548,467.906482 C64.3545706,475.959668 66.6770083,482.263269 68.2470914,488.749695 C69.3263158,493.212853 71.467036,494.478227 75.8914127,494.210083 C82.6504155,493.800111 89.4537396,494.102604 96.8731302,495.150803 C91.3772853,499.172964 86.0421053,503.444432 80.3301939,507.131967 C76.4620499,509.629474 75.4249307,512.097064 77.1246537,516.555789 C79.398338,522.52144 81.7728532,528.530305 82.6781163,534.941385 L82.8155125,534.85385 Z" id="Fill-24" fill="#FCFDFD" sketch:type="MSShapeGroup"></path>
                <path d="M52.5550139,360.475568 C52.3245429,359.461717 52.1971191,357.357562 51.3705263,355.576953 C49.2973961,351.110471 45.5045983,349.797452 40.8763435,350.819058 C36.6381163,351.755346 33.7106925,356.427922 33.9422715,361.361994 C34.1882548,366.628476 38.4774515,365.656731 41.6065374,366.385817 C43.1954571,366.7559 44.9738504,366.455623 46.4885319,366.977507 C52.0386704,368.888864 52.6303601,365.579169 52.5550139,360.475568 M60.5350693,355.324321 C60.5062604,355.75313 60.2990582,357.408532 60.3079224,359.063934 C60.3245429,362.261717 57.2818837,366.303823 60.9849307,368.46892 C65.7239889,371.240111 71.3539058,369.437341 75.2154017,365.147036 C76.9306371,363.242327 79.0059834,364.316011 80.8752355,364.528753 C83.1245429,364.784709 82.3710803,366.618504 82.2015512,368.014626 C81.3782825,374.781385 80.5993352,381.554792 79.6652632,388.307147 C79.4536288,389.836233 80.2724654,392.444543 77.0802216,391.985817 C75.0547368,391.694404 72.3799446,392.554238 72.1129086,389.101607 C71.8392244,385.562548 69.1433795,384.675014 66.3001662,384.303823 C57.1655402,383.110471 48.0220499,381.978061 38.8674792,380.952022 C35.6575069,380.591911 32.5306371,380.732632 31.2375623,384.672798 C30.2746814,387.607978 27.9167867,386.102161 26.0852078,386.00133 C23.6054294,385.865042 23.8425485,384.02349 24.059723,382.354792 C25.4868698,371.39856 26.4043213,360.33928 28.5383934,349.520443 C30.8342382,337.884986 39.49241,333.172521 50.3843767,336.518781 C57.5023823,338.706039 60.6558449,344.159778 60.5350693,355.324321" id="Fill-26" fill="#FCFDFD" sketch:type="MSShapeGroup"></path>
                <path d="M631.132632,133.577396 C635.453961,133.115346 638.552022,130.614515 639.714349,126.360776 C641.107147,121.262715 638.004654,117.792355 634.119889,115.376842 C630.111025,112.884875 628.229584,116.567978 626.143158,119.032244 C624.475568,121.000111 622.922105,123.064377 621.275568,125.05108 C620.273906,126.257729 619.379723,127.29928 621.143712,128.693186 C624.073352,131.010083 627.183601,132.883767 631.132632,133.577396 M653.176953,128.697618 C653.024044,141.202881 641.333186,148.892632 630.924321,144.468255 C626.267258,142.489307 622.390249,139.307036 618.707147,135.992909 C615.953684,133.515346 614.106593,132.946925 611.938172,136.532521 C609.600222,140.397341 604.718227,143.358006 609.112687,148.975734 C610.362548,150.57241 607.652299,152.02615 606.610748,153.412299 C605.199114,155.290416 604.077784,153.638338 603.016288,152.788476 C597.547036,148.410637 592.081108,144.028366 586.665042,139.585152 C585.490526,138.621163 583.411856,137.664931 585.258947,135.701496 C586.571967,134.306482 587.124875,131.120886 590.224044,132.942493 C593.445097,134.836122 595.594681,132.877119 597.364211,130.748587 C603.491634,123.374626 609.489418,115.89097 615.449529,108.379612 C617.248975,106.111468 618.36144,103.589584 616.065596,100.884875 C613.761994,98.1713019 616.745928,97.0333518 617.79856,95.4145152 C619.335402,93.0466482 620.585263,95.0089751 621.743158,95.9596676 C630.146482,102.861607 638.62626,109.679335 646.857839,116.782936 C650.722659,120.118116 653.032909,124.534737 653.176953,128.697618" id="Fill-28" fill="#FCFDFD" sketch:type="MSShapeGroup"></path>
                <path d="M249.099169,72.9168975 C249.550139,79.3822715 249.892521,84.2930748 250.268144,89.6781163 C253.889197,87.998338 256.976177,86.566759 260.443213,84.9590028 C256.704709,80.9900277 253.39723,77.4797784 249.099169,72.9168975 M250.736842,100.867036 C251.483657,105.156233 250.403324,110.471468 257.693075,108.519114 C260.350139,107.806648 260.293629,111.05097 261.140166,112.690859 C262.277008,114.892521 260.095291,115.090859 258.959557,115.628255 C253.803878,118.067036 248.610526,120.431579 243.370637,122.686427 C242.278116,123.156233 240.725762,125.015512 239.775069,122.59446 C239.047091,120.74072 236.351247,118.823823 238.764543,116.754017 C242.740166,113.344598 242.366759,108.936842 242.233795,104.529086 C241.845983,91.6371191 241.597784,78.7351801 240.879778,65.8598338 C240.52964,59.5839335 246.178393,60.9102493 248.939612,58.6299169 C251.167867,56.7883657 253.017175,57.6060942 255.052632,59.632687 C264.719114,69.2570637 274.576177,78.6897507 284.355679,88.2022161 C286.620499,90.4049861 288.80554,92.6421053 292.445429,92.0293629 C295.799446,91.465374 295.508033,94.6409972 296.41662,96.3451524 C297.672022,98.7019391 295.316343,98.9822715 293.942382,99.6238227 C287.776177,102.500277 281.598892,105.356787 275.389474,108.141274 C273.880332,108.817175 272.018837,110.54349 270.988366,107.504155 C270.361219,105.658172 268.077562,103.814404 271.334072,102.039335 C274.537396,100.294183 273.732964,98.198892 271.7241,95.7711911 C268.364543,91.7102493 264.967313,89.3224377 259.840443,93.099723 C258.095291,94.3850416 255.951247,95.2072022 253.885873,95.9584488 C251.285319,96.9036011 249.628809,98.1778393 250.736842,100.867036" id="Fill-30" fill="#FCFDFD" sketch:type="MSShapeGroup"></path>
                <path d="M763.432244,354.963878 C757.24831,353.515679 752.524765,352.408753 747.371302,351.200997 C747.504266,355.134515 747.453296,358.54615 749.008975,362.081884 C753.512022,359.859169 757.849972,357.718449 763.432244,354.963878 M717.353573,334.361108 C717.287091,332.750028 717.350249,331.22205 719.478781,331.23313 C721.311468,331.243102 723.584044,329.756122 724.753019,332.543934 C726.478227,336.659169 730.286537,337.6841 734.04277,338.707922 C746.305374,342.048643 758.468255,345.884654 770.894848,348.43867 C777.780166,349.853629 775.874349,354.846427 777.162992,358.735623 C778.585706,363.034792 775.329197,363.987701 772.600111,365.468033 C761.264931,371.614294 749.966316,377.827036 738.642216,383.992133 C735.680443,385.605429 732.785152,387.235346 732.212299,391.022604 C731.728089,394.229252 729.065485,392.766648 727.346925,393.191025 C725.24277,393.709584 724.90482,392.004321 724.710914,390.531745 C723.77241,383.400443 722.909252,376.258061 721.994017,369.123435 C721.758006,367.279668 721.908698,365.629806 724.25108,365.629806 C725.971856,365.628698 728.31313,364.057507 728.919224,367.541163 C729.324765,369.870249 730.960222,372.058615 733.601773,370.368864 C736.419501,368.564986 741.508698,368.935069 741.350249,363.932299 C741.216177,359.711801 740.523657,355.479114 739.734737,351.317341 C738.846094,346.623712 734.530305,348.42205 731.690416,347.619834 C729.162992,346.905152 726.997895,348.204875 727.143047,350.938393 C727.369086,355.205429 724.269917,354.494072 722.005097,354.734515 C718.84277,355.069141 719.939723,352.30903 719.692632,350.788809 C718.808421,345.329529 718.118116,339.839224 717.353573,334.361108" id="Fill-32" fill="#FCFDFD" sketch:type="MSShapeGroup"></path>
                <path d="M542.832244,104.40277 C548.550803,104.242105 553.407313,102.647645 557.719778,99.600554 C559.84831,98.0958449 561.208975,97.8786704 563.125873,100.225485 C565.090416,102.628809 563.843878,103.636011 562.273795,105.087535 C558.084321,108.962327 554.530859,114.831579 549.646648,116.286427 C544.694848,117.762327 539.298726,112.756233 534.106482,110.576731 C526.475457,107.374515 518.912022,104.010526 511.359668,100.625485 C510.049972,100.038227 507.409529,99.9196676 508.568532,97.5795014 C509.439446,95.8243767 508.96964,92.2487535 512.863269,93.1473684 C516.32144,93.9440443 517.993463,91.5972299 519.153573,89.0022161 C523.060499,80.2731302 526.820055,71.4786704 530.641662,62.7108033 C531.753019,60.1601108 532.210637,57.5839335 529.56687,55.7700831 C526.375734,53.5795014 528.771302,51.4587258 529.595679,49.5562327 C530.612853,47.2116343 532.38903,48.7927978 533.792909,49.3944598 C540.049972,52.0747922 546.312576,54.7429363 552.49651,57.5850416 C553.552465,58.0703601 556.020055,58.0537396 554.988476,60.298615 C554.166316,62.0891967 554.430028,65.4908587 551.376288,64.9434903 C546.621717,64.0914127 545.134737,67.1540166 543.674349,70.3817175 C540.340277,77.7556787 537.123657,85.1828255 533.894848,92.6044321 C530.734737,99.8709141 532.188476,102.570083 539.96687,103.976177 C541.051634,104.172299 542.149695,104.301939 542.832244,104.40277" id="Fill-34" fill="#FCFDFD" sketch:type="MSShapeGroup"></path>
                <path d="M197.97518,132.365319 C197.917562,131.255069 198.03169,130.106039 197.759114,129.056731 C196.97795,126.055069 199.130859,125.791357 201.085429,125.22072 C203.284875,124.579169 203.853296,125.860055 204.529197,127.62072 C210.945817,144.345374 210.976842,144.338726 197.443324,155.689418 C191.09097,161.016842 184.759668,166.369751 178.326427,171.597452 C177.136399,172.563657 175.884321,175.267258 173.941939,172.850637 C172.692078,171.294958 169.530859,169.971967 172.169086,166.994681 C174.418393,164.456177 172.932521,162.056177 171.295956,160.056177 C165.11313,152.499391 158.835014,145.01795 152.481551,137.602992 C150.931413,135.794681 148.880443,133.826814 146.294294,135.433463 C142.728643,137.649529 141.705928,134.594681 140.284321,132.794127 C138.335291,130.324321 141.308144,129.691634 142.412853,128.713241 C147.379058,124.320997 152.498172,120.097175 157.633906,115.901053 C158.717562,115.016842 159.968532,112.630139 161.525319,115.052299 C162.525873,116.607978 165.917562,117.540942 163.639446,120.376399 C161.258283,123.340388 162.44831,125.933186 164.428366,128.334294 C170.522548,135.724875 176.724211,143.025706 182.840554,150.399668 C185.44554,153.540942 187.990693,153.205208 190.869363,150.727645 C196.542493,145.843435 198.135845,139.464488 197.97518,132.365319" id="Fill-36" fill="#FCFDFD" sketch:type="MSShapeGroup"></path>
                <path d="M101.662715,190.052964 C100.894848,190.251302 99.9031579,190.198116 99.5319668,190.65241 C96.8161773,193.973186 94.6544044,191.763767 92.6931856,189.90892 C89.9452632,187.308366 93.3524654,186.027479 94.3485873,184.577064 C97.9962327,179.26626 101.971856,174.180388 105.874349,169.04687 C106.693186,167.969861 107.561884,166.040776 109.243878,167.737175 C110.571302,169.075679 114.061607,169.303934 112.460499,172.457396 C110.663269,175.997562 112.63446,178.11169 115.046648,179.958781 C122.503712,185.66626 130.018393,191.301717 137.58626,196.861828 C140.027258,198.655734 142.616731,200.010859 145.471025,197.224155 C148.089307,194.66903 149.24831,198.024155 150.901496,198.919446 C153.43446,200.292299 151.365762,201.719446 150.518116,202.877341 C146.494848,208.379834 142.421717,213.84687 138.257729,219.2441 C137.392355,220.366537 136.692078,222.920554 134.612299,221.225263 C133.080997,219.977618 129.547479,219.620831 131.295956,216.077341 C132.30759,214.027479 132.006205,212.046316 130.252188,210.572632 C121.935291,203.578726 113.235014,197.087867 104.211191,191.036898 C103.478781,190.546039 102.531413,190.378726 101.662715,190.052964" id="Fill-38" fill="#FCFDFD" sketch:type="MSShapeGroup"></path>
                <path d="M759.03723,279.933296 C759.792909,282.519446 757.892632,282.469584 756.925319,282.826371 C755.397341,283.389252 753.590139,285.118892 752.129751,282.704488 C749.973518,279.143269 747.025042,279.821385 743.91036,281.010305 C735.666593,284.158227 727.381828,287.203102 719.180166,290.457396 C715.914792,291.753795 712.603989,293.165429 713.544709,297.963213 C714.085429,300.724432 711.123657,300.137175 709.737507,300.956011 C708.205097,301.860166 707.103712,301.259612 706.424488,299.425817 C703.807313,292.358781 701.066039,285.337175 698.313684,278.32 C697.78626,276.974848 697.355235,275.645208 699.24,275.369307 C701.109252,275.095623 703.003989,272.006427 704.91313,275.062382 C707.130305,278.613629 710.065485,277.93662 713.148033,276.763213 C721.394017,273.621939 729.649972,270.502825 737.860499,267.270693 C741.160222,265.97097 744.483213,264.606981 743.491524,259.833573 C742.977396,257.356011 745.549141,257.716122 746.818947,257.020277 C747.847202,256.457396 749.456066,255.611967 750.153019,257.330526 C753.263269,265.00144 756.222825,272.734404 759.03723,279.933296" id="Fill-40" fill="#FCFDFD" sketch:type="MSShapeGroup"></path>
                <path d="M82.6782271,534.940831 C82.8699169,535.139169 83.0616066,535.337507 83.2532964,535.535845 C83.0981717,535.550249 82.9419391,535.565762 82.7857064,535.580166 C82.7956787,535.338615 82.8045429,535.095956 82.8145152,534.854404 C82.8156233,534.853296 82.6782271,534.940831 82.6782271,534.940831" id="Fill-42" fill="#FCFDFD" sketch:type="MSShapeGroup"></path>
                <path d="M501.301385,152.06759 C514.78615,177.728532 513.06759,194.245983 494.975623,214.752355 C492.248753,217.843767 493.189474,218.894183 495.782271,220.908587 C508.303047,230.637119 520.322992,240.976177 531.760111,251.951247 C534.623269,254.699169 536.21108,254.927424 539.323546,252.274792 C554.894737,239.009418 570.752909,226.077562 587.222715,213.93795 C590.505817,211.519114 589.957341,210.258172 587.437673,207.872576 C570.632133,191.966759 552.279778,178.181717 532.090305,166.855402 C522.495845,161.472576 512.710803,156.504155 501.301385,152.06759 M658.942382,328.34349 C658.842659,326.895291 658.924654,326.145152 658.726316,325.478116 C647.245983,286.932964 628.222161,252.59169 601.561773,222.444321 C599.13518,219.700831 597.782271,220.941828 595.763435,222.468698 C579.434349,234.827701 563.634903,247.842659 547.796676,260.815512 C545.039889,263.072576 544.744044,264.477562 547.360111,267.052632 C559.609418,279.108033 570.7241,292.167313 580.749584,306.122992 C582.489197,308.545152 583.606094,308.311357 585.860942,306.93518 C607.559557,293.690859 625.360111,295.530194 644.26759,312.587258 C649.453186,317.265374 653.614958,322.87867 658.942382,328.34349 M298.421607,152.876454 C303.162881,152.434349 307.896399,151.857064 312.646537,151.571191 C352.275346,149.18892 389.440997,158.308033 424.900277,175.556787 C443.853186,184.776731 461.720222,195.747368 478.845983,207.990028 C480.214404,208.968421 481.398892,211.389474 483.870914,209.00277 C494.462604,198.774515 502.489197,184.542936 495.382271,167.146814 C492.260942,159.504709 487.356787,153.122438 481.826593,147.120222 C479.629363,144.735734 477.088643,143.322992 473.932964,142.412188 C438.891413,132.303601 403.250416,129.710803 367.121884,134.029917 C343.448753,136.858726 320.506925,142.747922 298.421607,152.876454 M504.715235,533.652078 C504.904709,533.849307 505.094183,534.046537 505.283657,534.243767 C484.915789,590.815512 457.549584,642.109695 399.781163,671.728532 C405.551801,671.728532 409.559557,671.944598 413.537396,671.696399 C485.117452,667.214404 546.048199,639.561219 595.879778,587.789474 C607.45097,575.767313 618.801662,563.659834 619.750139,545.606648 C619.874238,543.234349 620.603324,540.896399 621.034349,538.538504 C621.230471,537.46482 621.227147,536.370083 622.643213,535.982271 C626.818283,534.837673 630.361773,532.27036 634.34626,530.121884 C634.519114,531.751801 634.632133,532.825485 634.74626,533.899169 C634.896953,533.880332 635.047645,533.861496 635.531856,533.799446 C662.972299,484.084211 674.112465,430.865374 668.290859,374.158449 C667.937396,370.706925 668.34072,367.012742 666.609972,363.837119 C657.845429,347.744044 648.228809,332.218283 634.305263,319.962327 C621.300277,308.513019 609.342382,307.668698 594.224377,316.137396 C590.371745,318.296953 590.166759,319.905817 592.477008,323.511357 C608.695291,348.81662 620.615512,376.05651 628.33518,405.110249 C631.633795,417.525762 634.295291,430.068698 635.753463,443.305263 C632.749584,441.868144 630.390582,440.038781 627.815512,439.65651 C622.885873,438.9241 622.062604,435.801662 621.38338,431.720776 C615.41662,395.837119 602.424931,362.609418 583.541828,331.566759 C580.752909,326.982825 579.327978,327.742936 576.34626,331.21662 C566.761773,342.384488 559.475346,354.881994 553.545152,368.282548 C544.522438,388.672576 540.7241,410.522992 535.475346,431.971191 C533.41662,440.384488 529.647091,443.090305 520.452632,442.566205 C523.957341,427.857064 527.355679,413.150139 530.975623,398.498615 C538.322992,368.761219 549.881994,341.111357 571.495291,318.624931 C573.889751,316.134072 572.165651,314.750139 570.927978,313.045983 C561.151801,299.582271 550.26205,287.079224 538.686427,275.130194 C535.86759,272.220499 534.310803,272.145152 531.207202,274.821053 C506.889197,295.787258 482.78615,316.990582 459.00554,338.562881 C452.773961,344.216066 446.53795,349.865928 440.191136,355.619945 C439.001108,353.491413 438.411634,351.573407 437.151801,350.339058 C432.79169,346.065374 435.261496,343.520222 438.782825,340.340166 C466.447091,315.356233 494.151247,290.419945 522.619945,266.351247 C525.412188,263.991136 526.13795,262.751247 522.977839,259.915789 C510.885873,249.067036 498.612188,238.453186 485.908587,228.322438 C483.426593,226.34349 481.744598,226.362327 479.212742,228.180609 C469.578393,235.094737 458.977839,240.26482 447.956233,244.548476 C408.634349,259.831579 367.088643,265.457064 325.894183,272.630471 C323.633795,273.023823 322.892521,272.403324 322.46482,270.493075 C322.102493,268.876454 321.853186,267.197784 321.218283,265.688643 C319.700277,262.085319 321.359003,260.99169 324.660942,260.497507 C332.13241,259.378393 339.577285,258.077562 347.019945,256.776731 C377.32687,251.474792 407.671468,246.32133 436.787258,235.895845 C449.098615,231.486981 461.01662,226.284765 471.81108,218.724654 C470.688643,216.516343 468.713019,215.730748 467.089751,214.59169 C451.372299,203.560111 434.972299,193.67313 417.65374,185.347368 C374.185596,164.449861 329.014404,155.842659 281.293629,167.093629 C267.525208,170.340166 253.237119,173.14903 241.713573,181.874792 C190.161219,220.909695 155.294737,271.477008 138.334072,334.059834 C135.587258,344.198338 133.306925,354.497507 132.920222,365.202216 C142.109141,351.546814 152.458172,339.165651 165.624931,328.520776 C165.624931,333.246537 165.548476,337.096953 165.654848,340.941828 C165.713573,343.083657 165.261496,344.798892 163.639335,346.38338 C148.710803,360.971745 138.665374,378.61385 131.414404,398.019945 C130.428255,400.661496 129.746814,403.222161 129.8,406.055402 C130.06482,419.906925 131.265928,433.66205 133.626039,447.320776 C141.972853,495.61662 161.751247,538.60277 193.18615,576.244875 C195.629363,579.171191 197.046537,579.576731 199.809972,576.557341 C209.527424,565.944598 219.733518,555.772853 229.308033,545.036011 C233.247091,540.619391 237.048753,539.431579 242.202216,542.072022 C243.642659,542.809972 245.151801,543.417175 246.964543,544.236011 C233.889751,557.959003 221.12964,571.508033 208.155679,584.849861 C205.320222,587.766205 204.98892,589.388366 208.153463,592.516343 C248.110249,632.015512 295.581717,657.208864 350.762881,667.680886 C359.677008,669.372853 368.506925,671.632133 377.922992,668.018837 C407.079778,656.829917 431.412188,639.293075 450.547922,614.67036 C467.668144,592.640443 479.514127,567.705263 489.834349,541.967867 C490.613296,540.023269 490.80277,537.750693 493.682548,537.108033 C497.431025,536.272576 501.044321,534.832133 504.715235,533.652078 M687.508587,401.033795 C687.508587,562.089751 560.164543,689.888089 399.345706,690.223823 C240.915789,690.555125 111.103047,560.288089 111.51856,401.39169 C111.93518,242.01662 241.162881,113.633241 401.269252,113.911357 C549.357895,114.168421 687.517452,233.155679 687.508587,401.033795" id="Fill-44" fill="#013EA5" sketch:type="MSShapeGroup"></path>
                <path d="M367.647756,59.9531302 C367.699834,70.7154571 362.365762,77.2329086 352.330305,79.0179501 C348.216177,79.7492521 345.959114,78.411856 345.367424,74.2290305 C343.949141,64.2024377 342.526427,54.1758449 341.002881,44.1658726 C340.360222,39.9387258 342.257175,38.0539612 346.252742,37.4434349 C354.908698,36.1215512 361.728643,39.8766759 365.286537,48.1348476 C366.909806,51.9021607 367.674349,55.8511911 367.647756,59.9531302" id="Fill-46" fill="#013EA5" sketch:type="MSShapeGroup"></path>
                <path d="M52.5550139,360.475568 C52.6303601,365.579169 52.0386704,368.888864 46.4885319,366.977507 C44.9738504,366.455623 43.1954571,366.7559 41.6065374,366.385817 C38.4774515,365.656731 34.1882548,366.628476 33.9422715,361.361994 C33.7106925,356.427922 36.6381163,351.755346 40.8763435,350.819058 C45.5045983,349.797452 49.2973961,351.110471 51.3705263,355.576953 C52.1971191,357.357562 52.3245429,359.461717 52.5550139,360.475568" id="Fill-48" fill="#013EA5" sketch:type="MSShapeGroup"></path>
                <path d="M631.132632,133.577396 C627.183601,132.883767 624.073352,131.010083 621.143712,128.693186 C619.379723,127.29928 620.273906,126.257729 621.275568,125.05108 C622.922105,123.064377 624.475568,121.000111 626.143158,119.032244 C628.229584,116.567978 630.111025,112.884875 634.119889,115.376842 C638.004654,117.792355 641.107147,121.262715 639.714349,126.360776 C638.552022,130.614515 635.453961,133.115346 631.132632,133.577396" id="Fill-50" fill="#013EA5" sketch:type="MSShapeGroup"></path>
                <path d="M249.099169,72.9168975 C253.39723,77.4797784 256.704709,80.9900277 260.443213,84.9590028 C256.976177,86.566759 253.889197,87.998338 250.268144,89.6781163 C249.892521,84.2930748 249.550139,79.3822715 249.099169,72.9168975" id="Fill-52" fill="#013EA5" sketch:type="MSShapeGroup"></path>
                <path d="M763.432244,354.963878 C757.849972,357.718449 753.512022,359.859169 749.008975,362.081884 C747.453296,358.54615 747.504266,355.134515 747.371302,351.200997 C752.524765,352.408753 757.24831,353.515679 763.432244,354.963878" id="Fill-54" fill="#013EA5" sketch:type="MSShapeGroup"></path>
                <path d="M222.416177,342.428809 C227.854404,345.228809 228.871579,349.095845 226.706482,354.858726 C230.822825,348.904155 234.781828,351.726316 239.087645,354.224931 C235.576288,348.539612 238.573518,345.26759 243.251634,342.199446 C236.22892,343.918006 233.841108,340.393352 232.556898,334.284765 C232.090416,341.032687 228.908144,343.576731 222.416177,342.428809 M256.346371,356.453186 C260.750803,350.78338 264.647756,352.096399 268.567978,355.747368 C268.798449,352.611634 266.429474,350.522992 267.544155,348.189474 C268.500388,346.190582 271.402327,345.822715 272.345263,343.524654 C269.864377,342.663712 266.96133,344.377839 265.303712,342.455402 C263.924211,340.855402 263.582936,338.359003 262.162438,334.638227 C261.37795,341.53241 258.712022,344.881994 251.424488,342.908587 C257.652742,348.242659 257.652742,348.242659 256.346371,356.453186 M178.522548,275.06482 C185.138615,277.695291 184.929197,282.147368 182.683213,287.684211 C187.02892,282.188366 191.154127,283.438227 195.738061,287.274238 C191.935291,281.298615 194.593463,277.785042 199.698172,274.722438 C193.84,275.693075 190.241108,273.841551 189.02338,267.663158 C188.114792,274.137396 184.247756,275.541274 178.522548,275.06482 M296.608975,278.116343 C301.133075,281.275346 304.179058,284.655956 300.98349,290.573961 C305.395679,286.065374 309.148587,286.885319 313.525319,290.536288 C309.781274,284.633795 313.25385,281.442659 317.62615,277.862604 C310.495956,280.39446 308.458283,276.291413 307.015623,270.94072 C305.879889,276.648199 303.240554,279.707479 296.608975,278.116343 M213.560776,240.652632 C217.760222,236.511911 221.515346,237.089197 225.657175,240.761219 C223.141939,235.420499 224.683213,231.754017 229.705928,228.886427 C223.227258,230.034349 220.633352,226.724654 219.430028,220.995014 C218.822825,227.341828 215.345817,229.568975 209.356898,229.071468 C214.314238,231.773961 215.977396,235.239889 213.560776,240.652632 M267.493186,229.065928 C273.360222,231.823823 273.673795,235.93241 271.29374,241.515789 C275.627258,235.807202 279.720332,237.311911 284.109252,241.140166 C281.51313,235.817175 282.30759,231.86482 287.880997,228.967313 C281.677119,229.98892 278.869363,226.916343 277.44554,221.432687 C276.812853,227.734072 273.18072,229.40831 267.493186,229.065928 M313.674903,307.479224 C307.37795,308.695845 304.790693,305.503601 303.466593,299.857064 C302.693186,305.92133 299.469917,308.417729 293.323657,307.698615 C299.418947,310.465374 299.36687,314.612742 297.312576,320.132964 C301.570748,314.160665 305.555235,316.049861 310.266593,319.78615 C306.156898,313.99446 308.987922,310.619391 313.674903,307.479224 M239.125319,222.280332 C244.7641,225.084765 245.328089,229.181163 243.117562,234.890859 C247.30482,228.836565 251.335845,231.147922 255.792355,234.199446 C252.040554,228.537396 255.235014,225.288643 259.609529,221.720776 C252.560222,224.125208 250.862715,219.714127 249.119778,213.165651 C248.095956,220.254848 245.610637,223.488089 239.125319,222.280332 M201.282659,339.883657 C205.420055,335.417175 209.314792,335.19446 213.44554,339.717452 C212.600111,332.344598 212.600111,332.344598 218.858283,326.325762 C210.89928,329.406094 209.106482,324.952909 207.375734,319.865928 C206.708698,325.971191 203.438892,328.318006 197.295956,327.546814 C202.952465,330.412188 203.688199,334.479778 201.282659,339.883657 M299.50205,242.686981 C296.286537,250.093075 296.286537,250.093075 287.830028,251.535734 C294.032798,253.956787 295.510914,257.801662 291.774626,263.944598 C298.750803,259.544598 298.750803,259.544598 306.349695,263.74626 C302.059391,257.737396 304.545817,254.101939 309.401219,250.938504 C303.302604,251.836011 299.938615,249.849307 299.50205,242.686981 M260.582382,528.137396 C272.176842,517.073684 283.738061,506.036565 295.309252,495.011634 C296.316454,494.052078 296.880443,492.99169 296.472687,491.578947 C295.422271,487.940166 294.36964,484.301385 293.381274,480.881994 C284.338615,489.640997 275.941939,498.73795 266.517008,506.60277 C258.743047,513.089197 259.571856,520.623823 260.582382,528.137396 M443.937507,490.06759 C443.551911,496.778947 444.866039,503.61662 447.767978,510.093075 C458.488199,534.022161 493.58626,538.141828 512.71313,517.760665 C518.408421,511.690859 518.295402,511.779501 513.115346,505.226593 C510.618947,502.068698 509.071025,500.785596 506.12144,505.060388 C502.294294,510.607202 496.584598,513.114681 489.718116,511.658726 C483.002327,510.236011 479.720332,505.276454 477.572964,499.264266 C476.461607,496.151801 476.712022,494.403324 480.657729,493.472576 C490.859391,491.065928 500.920332,488.06205 511.04,485.307479 C518.522548,483.270914 518.524765,483.27867 517.04,475.485873 C513.868809,458.838781 502.697618,447.168975 488.140277,445.297507 C470.562438,443.037119 455.462161,451.448199 448.282105,467.61108 C445.172964,474.609418 443.685983,481.972299 443.937507,490.06759 M581.533075,461.596676 C580.744155,451.298615 577.589584,446.458726 571.230582,445.257618 C564.276565,443.942382 558.944709,447.61108 555.007867,456.516343 C553.887645,459.049307 552.948033,461.66205 551.926427,464.238227 C550.000665,458.65374 549.459945,453.176731 547.334737,448.079778 C546.581274,446.271468 545.990693,444.598338 543.448864,445.355125 C534.621163,447.98338 525.790139,450.604986 516.930305,453.125762 C514.457175,453.829363 514.425042,455.640997 514.709806,457.47036 C515.046648,459.637673 513.159668,463.12687 516.152465,463.758449 C524.010637,465.418283 524.513684,471.396122 524.680997,477.305263 C524.999003,488.559557 524.662161,499.831579 524.895956,511.089197 C524.967978,514.576177 524.419501,516.263712 520.43723,516.692521 C513.939723,517.392798 517.797895,522.709141 517.200665,525.877008 C516.463823,529.783934 519.979612,528.370083 521.779058,528.38892 C533.041108,528.511911 544.305374,528.542936 555.566316,528.368975 C557.636122,528.336842 561.536399,530.179501 561.087645,525.542382 C560.761884,522.172853 563.826704,516.875346 556.836122,516.419945 C555.126427,516.308033 553.080997,516.491967 553.069917,513.597784 C553.02338,501.775069 553.080997,489.972299 556.204543,478.442105 C557.303712,474.38338 559.323657,472.58615 563.848864,474.572853 C568.56687,476.644875 573.499834,477.113573 577.683767,473.130194 C578.781828,474.192798 578.494848,475.365097 578.553573,476.435457 C579.148587,487.258726 584.724211,494.725762 594.214515,499.442659 C598.330859,501.488089 602.631136,503.161219 606.779612,505.146814 C609.601773,506.499723 612.459391,507.93795 614.187922,510.736842 C615.408975,512.714681 615.96964,514.865374 614.37518,516.928532 C612.126981,519.838227 608.870471,520.437673 605.472133,520.449861 C602.945817,520.458726 602.000665,518.620499 601.540831,516.522992 C600.827258,513.264266 599.866593,510.097507 598.146925,507.227701 C595.213961,502.333518 589.98072,500.185042 584.330859,501.660942 C579.162992,503.011634 577.003435,506.836565 576.43723,511.837119 C575.553019,519.627701 578.861607,525.615512 586.663269,528.132964 C598.936953,532.093075 611.448864,532.240443 623.467701,527.164543 C635.038892,522.279224 638.613407,512.240443 638.720886,500.595014 C638.825042,489.433795 634.312022,480.914127 623.654958,476.457618 C619.418947,474.685873 614.970194,473.431579 610.666593,471.816066 C608.787368,471.110249 606.872687,470.308033 605.249418,469.161219 C602.611191,467.296399 602.664377,464.499723 603.302604,461.647645 C603.69928,459.874792 604.64,458.26482 606.472687,458.32133 C609.463269,458.415512 608.512576,461.772853 609.945263,463.25651 C610.068255,463.382825 610.109252,463.585596 610.200111,463.745152 C613.656066,469.814958 619.37241,472.385596 626.118116,470.774515 C631.09097,469.586704 634.303158,466.780055 634.519224,461.27867 C634.801773,454.098615 631.189584,448.814404 624.348587,446.629363 C623.649418,446.40554 622.912576,446.295845 622.187922,446.158449 C605.756898,443.050416 592.686537,448.975069 581.533075,461.596676 M353.903158,423.798338 C354.615623,410.525208 355.093186,398.433241 357.078781,386.449861 C358.379612,378.599446 360.144709,370.895291 364.140277,363.906925 C366.580166,359.639889 369.731413,356.120776 374.765208,354.849861 C379.776842,353.585596 383.038892,355.360665 384.377396,360.386704 C384.938061,362.494183 385.041108,364.741274 385.196233,366.936288 C385.738061,374.581717 387.554127,381.871468 391.500942,388.479778 C397.151911,397.942382 407.033352,401.676454 418.273241,398.803324 C429.095402,396.037673 435.739169,387.975623 436.191247,377.061496 C437.018947,357.078116 424.287645,340.499723 404.280997,335.512465 C364.581274,325.615512 323.396787,347.524654 307.841108,387.255402 C296.928089,415.127978 296.181274,444.060942 300.512576,473.290859 C302.111468,484.084211 305.335845,494.476454 310.319778,504.227147 C326.236676,535.366205 355.189584,544.866482 385.318116,540.941828 C407.025596,538.114127 423.676011,526.790028 433.159668,506.78892 C443.943047,484.047645 443.912022,460.509695 433.764654,437.704155 C419.018947,404.563989 380.890416,397.716343 353.903158,423.798338 M303.594017,363.206648 C303.955235,363.679778 304.316454,364.154017 304.677673,364.627147 C297.415623,377.795014 286.502604,387.734072 275.482105,397.562327 C261.718116,409.837119 246.269917,420.141828 233.582936,433.690859 C213.014515,455.65651 194.864931,479.204432 184.204543,507.754017 C180.633352,517.31856 178.601219,527.21662 178.230028,537.423823 C178.181274,538.759003 177.364654,540.60277 179.011191,541.424931 C180.38626,542.110803 181.263823,540.531856 182.261053,539.834903 C186.224488,537.06482 190.492632,534.963989 195.134183,533.608864 C213.302604,528.304709 231.211745,529.067036 248.731967,536.221607 C252.454958,537.741828 253.738061,537.406094 253.195125,533.123546 C251.608421,520.610526 251.98626,508.084211 253.333629,495.574515 C256.112576,469.769529 262.57241,445.239889 277.906482,423.700831 C282.180166,417.696399 286.170194,411.479224 290.078227,405.226593 C302.407313,385.504709 313.997341,365.403878 320.123657,342.708033 C321.129751,338.983934 322.802881,335.232133 321.650526,331.042659 C318.714238,331.6 317.371302,333.726316 315.720332,335.354017 C292.790693,357.959003 265.155235,365.27867 233.905374,360.206094 C212.958006,356.806648 194.839446,347.396122 179.238338,333.057064 C178.059391,331.974515 176.963546,330.257064 175.064377,330.858726 C172.925873,331.534626 173.592909,333.595568 173.590693,335.146814 C173.555235,359.152355 173.588476,383.157895 173.530859,407.163435 C173.525319,409.468144 173.797895,410.702493 176.603435,411.088089 C204.138061,414.869806 231.068809,413.659834 256.859391,402.066482 C276.041662,393.442659 290.917008,379.648753 303.594017,363.206648 M293.227258,342.1241 C293.442216,342.311357 293.657175,342.498615 293.872133,342.686981 L293.885429,342.21385 C293.640554,342.227147 293.395679,342.239335 293.150803,342.252632 C292.495956,337.601108 291.962992,332.993906 298.211191,330.486427 C292.007313,331.317452 288.52144,329.226593 287.399003,323.020499 C286.940277,329.903601 282.544709,330.683657 277.058837,330.278116 C282.805097,335.552355 282.805097,335.552355 281.219501,343.652078 C285.228366,338.489751 289.170748,338.740166 293.227258,342.1241 M185.810083,315.562327 C189.698172,312.698061 193.597341,311.209972 197.912022,316.172853 C194.744155,310.233795 197.289307,306.727978 201.971856,303.559003 C195.179612,305.255402 192.736399,301.883657 191.521994,295.750693 C191.358006,302.686981 187.370194,304.413296 181.252742,304.177285 C187.767978,306.560665 186.741939,311.14349 185.89097,315.657618 C185.684875,315.738504 185.478781,315.819391 185.272687,315.900277 C185.36133,315.904709 185.480997,315.946814 185.530859,315.905817 C185.64277,315.81385 185.719224,315.679778 185.810083,315.562327 M204.612299,260.085319 C204.658837,260.223823 204.680997,260.380055 204.761884,260.493075 C204.802881,260.550693 204.951357,260.531856 205.052188,260.54626 C204.877119,260.424377 204.700942,260.301385 204.525873,260.179501 C202.805097,255.165651 204.020609,251.196676 209.350249,248.265928 C202.934737,249.701939 199.83446,246.881994 198.399557,240.904155 C198.519224,248.424377 193.363546,248.304709 188.368532,248.836565 C193.900942,251.457064 194.97241,255.276454 192.492632,261.165651 C196.655512,254.838781 200.641108,258.002216 204.612299,260.085319 M504.715346,533.652078 C501.044432,534.832133 497.431136,536.272576 493.682659,537.108033 C490.802881,537.750693 490.613407,540.023269 489.83446,541.967867 C479.514238,567.705263 467.668255,592.640443 450.548033,614.67036 C431.412299,639.293075 407.079889,656.829917 377.923102,668.018837 C368.507036,671.632133 359.676011,669.372853 350.762992,667.680886 C295.58072,657.208864 248.109252,632.015512 208.153573,592.516343 C204.98903,589.388366 205.319224,587.766205 208.155789,584.849861 C221.129751,571.508033 233.889861,557.959003 246.964654,544.236011 C245.151911,543.417175 243.64277,542.809972 242.202327,542.072022 C237.048864,539.431579 233.247202,540.619391 229.308144,545.036011 C219.733629,555.772853 209.527535,565.944598 199.810083,576.557341 C197.046648,579.576731 195.629474,579.171191 193.18626,576.244875 C161.751357,538.60277 141.972964,495.615512 133.62615,447.320776 C131.264931,433.66205 130.063823,419.906925 129.800111,406.055402 C129.746925,403.222161 130.427258,400.661496 131.414515,398.019945 C138.665485,378.61385 148.710914,360.971745 163.639446,346.38338 C165.261607,344.798892 165.713684,343.083657 165.654958,340.941828 C165.548587,337.096953 165.625042,333.246537 165.625042,328.520776 C152.458283,339.165651 142.109252,351.546814 132.919224,365.202216 C133.307036,354.497507 135.58626,344.198338 138.334183,334.059834 C155.294848,271.477008 190.16133,220.909695 241.713684,181.874792 C253.23723,173.14903 267.525319,170.340166 281.29374,167.093629 C329.014515,155.842659 374.184598,164.449861 417.65385,185.347368 C434.97241,193.67313 451.37241,203.560111 467.089861,214.59169 C468.712022,215.730748 470.688753,216.516343 471.811191,218.724654 C461.016731,226.284765 449.098726,231.486981 436.78626,235.895845 C407.670471,246.32133 377.326981,251.474792 347.018947,256.775623 C339.577396,258.077562 332.131413,259.378393 324.661053,260.497507 C321.358006,260.99169 319.700388,262.085319 321.218393,265.688643 C321.853296,267.197784 322.102604,268.876454 322.464931,270.493075 C322.892632,272.403324 323.633906,273.023823 325.894294,272.630471 C367.088753,265.457064 408.63446,259.831579 447.956343,244.548476 C458.97795,240.26482 469.578504,235.094737 479.211745,228.180609 C481.744709,226.362327 483.426704,226.34349 485.908698,228.322438 C498.611191,238.453186 510.885983,249.067036 522.97795,259.915789 C526.138061,262.750139 525.412299,263.991136 522.620055,266.351247 C494.151357,290.419945 466.446094,315.356233 438.781828,340.340166 C435.261607,343.520222 432.791801,346.065374 437.151911,350.339058 C438.411745,351.573407 439.001219,353.491413 440.191247,355.619945 C446.538061,349.865928 452.774072,344.216066 459.005651,338.562881 C482.785152,316.990582 506.889307,295.787258 531.207313,274.821053 C534.310914,272.145152 535.867701,272.220499 538.686537,275.130194 C550.262161,287.079224 561.151911,299.582271 570.928089,313.045983 C572.164654,314.750139 573.888753,316.134072 571.495402,318.624931 C549.882105,341.111357 538.321994,368.761219 530.975734,398.498615 C527.355789,413.150139 523.957452,427.857064 520.452742,442.566205 C529.647202,443.090305 533.416731,440.384488 535.475457,431.971191 C540.724211,410.522992 544.522548,388.672576 553.545263,368.282548 C559.475457,354.881994 566.761884,342.384488 576.346371,331.21662 C579.328089,327.742936 580.753019,326.982825 583.540831,331.566759 C602.425042,362.609418 615.416731,395.837119 621.38349,431.720776 C622.061607,435.801662 622.885983,438.9241 627.815623,439.65651 C630.389584,440.038781 632.749695,441.868144 635.753573,443.305263 C634.295402,430.068698 631.633906,417.525762 628.335291,405.110249 C620.615623,376.05651 608.695402,348.81662 592.477119,323.511357 C590.16687,319.905817 590.370748,318.296953 594.224488,316.137396 C609.341385,307.668698 621.300388,308.513019 634.305374,319.962327 C648.22892,332.218283 657.84554,347.744044 666.610083,363.837119 C668.340831,367.012742 667.937507,370.706925 668.29097,374.158449 C674.112576,430.865374 662.971302,484.084211 635.530859,533.799446 C635.047756,533.861496 634.897064,533.880332 634.746371,533.899169 C634.632244,532.825485 634.518116,531.750693 634.345263,530.121884 C630.361884,532.27036 626.818393,534.837673 622.643324,535.982271 C621.227258,536.370083 621.230582,537.46482 621.03446,538.538504 C620.603435,540.895291 619.874349,543.234349 619.750249,545.606648 C618.801773,563.659834 607.45108,575.767313 595.879889,587.789474 C546.04831,639.561219 485.117562,667.214404 413.537507,671.696399 C409.559668,671.944598 405.551911,671.728532 399.781274,671.728532 C457.549695,642.109695 484.9159,590.815512 505.281551,534.242659 C505.395679,533.861496 505.512022,533.482548 505.627258,533.103601 C505.323657,533.286427 505.018947,533.469252 504.715346,533.652078" id="Fill-56" fill="#FCFDFD" sketch:type="MSShapeGroup"></path>
                <path d="M298.421828,152.876011 C320.507147,142.747479 343.448975,136.859391 367.122105,134.029474 C403.250637,129.71036 438.891634,132.304266 473.933186,142.411745 C477.087756,143.322548 479.629584,144.736399 481.826814,147.120886 C487.357008,153.121994 492.260055,159.504266 495.382493,167.146371 C502.489418,184.542493 494.462825,198.774072 483.870028,209.002327 C481.399114,211.38903 480.214626,208.969086 478.846205,207.990693 C461.720443,195.748033 443.853407,184.776288 424.900499,175.557452 C389.441219,158.30759 352.275568,149.188476 312.646759,151.571856 C307.895512,151.85662 303.163102,152.433906 298.421828,152.876011" id="Fill-58" fill="#FCFDFD" sketch:type="MSShapeGroup"></path>
                <path d="M658.942271,328.34338 C653.614848,322.87856 649.453075,317.265263 644.267479,312.587147 C625.36,295.530083 607.559446,293.690748 585.860831,306.935069 C583.605983,308.311247 582.489086,308.545042 580.749474,306.122881 C570.725097,292.16831 559.609307,279.107922 547.36,267.052521 C544.743934,264.477452 545.039778,263.072465 547.796565,260.815402 C563.634792,247.842548 579.434238,234.82759 595.764432,222.468587 C597.782161,220.941717 599.135069,219.70072 601.561662,222.444211 C628.22205,252.591579 647.245873,286.932853 658.726205,325.478006 C658.924543,326.145042 658.842548,326.89518 658.942271,328.34338" id="Fill-60" fill="#FCFDFD" sketch:type="MSShapeGroup"></path>
                <path d="M501.301385,152.06759 C512.710803,156.504155 522.495845,161.472576 532.090305,166.855402 C552.279778,178.181717 570.632133,191.966759 587.437673,207.872576 C589.957341,210.258172 590.505817,211.519114 587.222715,213.93795 C570.752909,226.077562 554.894737,239.009418 539.323546,252.274792 C536.21108,254.927424 534.623269,254.699169 531.760111,251.951247 C520.322992,240.976177 508.303047,230.637119 495.782271,220.908587 C493.189474,218.894183 492.248753,217.843767 494.975623,214.752355 C513.06759,194.245983 514.78615,177.728532 501.301385,152.06759" id="Fill-62" fill="#FCFDFD" sketch:type="MSShapeGroup"></path>
                <path d="M386.127756,476.221053 C386.127756,471.064266 386.418061,465.887535 386.055734,460.756233 C385.589252,454.155679 384.915568,447.498615 381.379834,441.623823 C378.788144,437.315789 374.885651,435.245983 369.86072,435.390028 C365.025263,435.528532 362.047978,438.443767 360.178726,442.489197 C358.958781,445.12964 357.997008,447.980609 357.474017,450.838227 C354.398116,467.639335 354.896731,484.572299 355.98482,501.505263 C356.256288,505.741274 356.97097,509.938504 358.840222,513.798892 C363.206981,522.817175 374.113352,523.65928 379.846316,515.465374 C382.10338,512.239889 383.250194,508.573407 384.13662,504.783934 C386.337175,495.376731 386.455734,485.804432 386.127756,476.221053 M353.903934,423.797784 C380.890083,397.716898 419.018615,404.563435 433.764321,437.703601 C443.91169,460.509141 443.943823,484.048199 433.160443,506.789474 C423.675679,526.790582 407.026371,538.114681 385.317784,540.941274 C355.19036,544.865928 326.237452,535.365651 310.320554,504.227701 C305.33662,494.477008 302.111136,484.084765 300.512244,473.291413 C296.180942,444.061496 296.927756,415.128532 307.840776,387.254848 C323.397562,347.5241 364.580942,325.616066 404.281773,335.513019 C424.287313,340.500277 437.018615,357.077562 436.192022,377.06205 C435.739945,387.976177 429.096177,396.037119 418.272909,398.803878 C407.034127,401.6759 397.151579,397.941828 391.500609,388.479224 C387.554903,381.870914 385.737729,374.581163 385.197008,366.936842 C385.041884,364.741828 384.938837,362.494737 384.377064,360.387258 C383.03856,355.360111 379.77651,353.58615 374.764875,354.850416 C369.73108,356.120222 366.580942,359.639335 364.141053,363.906371 C360.144377,370.894737 358.37928,378.598892 357.078449,386.449307 C355.092853,398.432687 354.616399,410.524654 353.903934,423.797784" id="Fill-64" fill="#013EA5" sketch:type="MSShapeGroup"></path>
                <path d="M303.594238,363.206316 C290.91723,379.649529 276.040776,393.443435 256.859612,402.06615 C231.06903,413.660609 204.138283,414.870582 176.603657,411.087756 C173.798116,410.702161 173.52554,409.467812 173.53108,407.163102 C173.588698,383.157562 173.555457,359.152022 173.590914,335.146482 C173.59313,333.596343 172.924986,331.535402 175.064598,330.858393 C176.963767,330.257839 178.059612,331.974183 179.237452,333.056731 C194.83856,347.396898 212.958227,356.806316 233.905596,360.205762 C265.155457,365.278338 292.789806,357.95867 315.720554,335.354792 C317.371524,333.725983 318.713352,331.599668 321.650748,331.042327 C322.803102,335.232909 321.129972,338.983601 320.123878,342.708809 C313.997562,365.404654 302.407535,385.505485 290.078449,405.227368 C286.170416,411.478892 282.180388,417.697175 277.905596,423.700499 C262.572632,445.239557 256.11169,469.769197 253.33385,495.574183 C251.986482,508.083878 251.607535,520.611302 253.195346,533.123213 C253.738283,537.40687 252.45518,537.741496 248.732188,536.221274 C231.211967,529.067812 213.302825,528.304377 195.134404,533.608532 C190.492853,534.963657 186.223601,537.065596 182.261274,539.834571 C181.264044,540.531524 180.386482,542.111579 179.011413,541.424598 C177.364875,540.602438 178.181496,538.75867 178.230249,537.42349 C178.60144,527.217396 180.632465,517.318227 184.204765,507.753684 C194.865152,479.2041 213.014737,455.656177 233.583158,433.690526 C246.270139,420.141496 261.718338,409.837895 275.481219,397.563102 C286.502825,387.73374 297.415845,377.794681 304.676787,364.626814 C305.517784,364.019612 305.84687,363.095512 305.126648,362.414072 C304.557119,361.875568 303.895623,362.500499 303.594238,363.206316" id="Fill-66" fill="#D40233" sketch:type="MSShapeGroup"></path>
                <path d="M581.533186,461.596898 C592.686648,448.974183 605.757008,443.050637 622.188033,446.15867 C622.911579,446.294958 623.649529,446.405762 624.348698,446.628476 C631.189695,448.813518 634.801884,454.098837 634.519335,461.277784 C634.302161,466.780277 631.09108,469.586925 626.118227,470.773629 C619.372521,472.385817 613.656177,469.814072 610.200222,463.745374 C610.109363,463.585817 610.068366,463.383047 609.945374,463.256731 C608.512687,461.771967 609.46338,458.414626 606.472798,458.321551 C604.640111,458.263934 603.699391,459.873906 603.302715,461.646759 C602.664488,464.499945 602.611302,467.29662 605.249529,469.160332 C606.872798,470.308255 608.787479,471.110471 610.665596,471.81518 C614.970305,473.431801 619.419058,474.686094 623.655069,476.456731 C634.312133,480.914349 638.825152,489.434017 638.720997,500.595235 C638.613518,512.240665 635.039003,522.278338 623.467812,527.164765 C611.448975,532.240665 598.937064,532.093296 586.66338,528.133186 C578.861717,525.615734 575.55313,519.627922 576.437341,511.836233 C577.003546,506.836787 579.163102,503.011856 584.33097,501.661163 C589.980831,500.185263 595.214072,502.33374 598.147036,507.227922 C599.866704,510.097729 600.827368,513.26338 601.540942,516.523213 C602.000776,518.62072 602.945928,520.458947 605.472244,520.450083 C608.870582,520.436787 612.127091,519.838449 614.375291,516.928753 C615.969751,514.865596 615.409086,512.714903 614.188033,510.735956 C612.459501,507.938172 609.601884,506.498837 606.778615,505.147036 C602.631247,503.160332 598.33097,501.48831 594.214626,499.442881 C584.723213,494.725983 579.148698,487.258947 578.553684,476.435679 C578.494958,475.364211 578.781939,474.193019 577.683878,473.130416 C573.499945,477.113795 568.566981,476.645097 563.848975,474.573075 C559.323767,472.585263 557.303823,474.383601 556.204654,478.441219 C553.081108,489.972521 553.02349,501.775291 553.06892,513.598006 C553.08,516.492188 555.126537,516.308255 556.836233,516.419058 C563.826814,516.875568 560.761994,522.173075 561.087756,525.542604 C561.53651,530.178615 557.636233,528.337064 555.566427,528.369197 C544.305485,528.543158 533.041219,528.512133 521.779169,528.389141 C519.979723,528.369197 516.463934,529.783047 517.200776,525.876122 C517.798006,522.709363 513.939834,517.393019 520.437341,516.692742 C524.419612,516.262825 524.968089,514.576399 524.896066,511.089418 C524.662271,499.830693 524.999114,488.559778 524.681108,477.305485 C524.513795,471.396343 524.010748,465.418504 516.152576,463.75867 C513.159778,463.127091 515.046759,459.636787 514.709917,457.470582 C514.425152,455.641219 514.457285,453.828476 516.930416,453.125983 C525.790249,450.605208 534.621274,447.983601 543.448975,445.355346 C545.990803,444.59856 546.580277,446.27169 547.334848,448.08 C549.460055,453.176953 550.000776,458.653961 551.926537,464.238449 C552.948144,461.662271 553.887756,459.049529 555.00687,456.516565 C558.94482,447.611302 564.276676,443.942604 571.230693,445.257839 C577.589695,446.458947 580.744266,451.298837 581.533186,461.596898" id="Fill-68" fill="#013EA5" sketch:type="MSShapeGroup"></path>
                <path d="M474.716787,482.018172 C477.805983,481.149474 480.243657,480.366094 482.728975,479.786593 C487.302936,478.719557 489.058061,475.449751 489.050305,471.24144 C489.044765,467.763324 488.494072,464.253075 487.01374,461.008753 C485.891302,458.546704 484.301274,456.399335 481.327313,456.466925 C478.047535,456.542271 476.629252,458.932299 475.804875,461.779945 C473.916787,468.301828 475.09795,474.90349 474.716787,482.018172 M443.936731,490.068033 C443.686316,481.972742 445.173296,474.609861 448.28133,467.610416 C455.461385,451.447535 470.56277,443.036454 488.140609,445.296842 C502.696842,447.169418 513.869141,458.839224 517.040332,475.485208 C518.525097,483.279114 518.522881,483.271357 511.040332,485.307922 C500.920665,488.062493 490.859723,491.065263 480.656953,493.473019 C476.712355,494.403767 476.460831,496.151136 477.573296,499.263601 C479.720665,505.276898 483.001551,510.235346 489.717341,511.659169 C496.584931,513.115125 502.294626,510.607645 506.121773,505.060831 C509.071357,500.784931 510.618172,502.068033 513.115679,505.225928 C518.295734,511.779945 518.407645,511.691302 512.712355,517.76 C493.586593,538.142271 458.488532,534.022604 447.76831,510.093518 C444.866371,503.617064 443.551136,496.779391 443.936731,490.068033" id="Fill-70" fill="#013EA5" sketch:type="MSShapeGroup"></path>
                <path d="M260.582271,528.137285 C259.571745,520.623712 258.742936,513.089086 266.516898,506.602659 C275.941828,498.738947 284.338504,489.640886 293.381163,480.881884 C294.369529,484.301274 295.422161,487.940055 296.472576,491.578837 C296.880332,492.991579 296.316343,494.051967 295.309141,495.011524 C283.73795,506.036454 272.176731,517.073573 260.582271,528.137285" id="Fill-72" fill="#013EA5" sketch:type="MSShapeGroup"></path>
                <path d="M299.501828,242.686648 C299.939501,249.848975 303.302382,251.835679 309.400997,250.93928 C304.545596,254.102715 302.060277,257.738172 306.349474,263.747036 C298.75169,259.545374 298.75169,259.545374 291.774404,263.944266 C295.511801,257.80133 294.032576,253.956454 287.829806,251.535402 C296.286316,250.092742 296.286316,250.092742 299.501828,242.686648" id="Fill-74" fill="#013EA5" sketch:type="MSShapeGroup"></path>
                <path d="M201.282438,339.884211 C203.687978,334.479224 202.953352,330.412742 197.295734,327.547368 C203.439778,328.31856 206.708476,325.970637 207.375512,319.865374 C209.10626,324.952355 210.899058,329.40554 218.858061,326.325208 C212.599889,332.344044 212.599889,332.344044 213.445319,339.718006 C209.314571,335.193906 205.419834,335.417729 201.282438,339.884211" id="Fill-76" fill="#013EA5" sketch:type="MSShapeGroup"></path>
                <path d="M239.125762,222.28 C245.609972,223.487756 248.096399,220.254515 249.120222,213.165319 C250.863158,219.713795 252.559557,224.124875 259.609972,221.720443 C255.235457,225.28831 252.039889,228.537064 255.792798,234.200222 C251.336288,231.148698 247.305263,228.836233 243.118006,234.890526 C245.328532,229.180831 244.764543,225.084432 239.125762,222.28" id="Fill-78" fill="#013EA5" sketch:type="MSShapeGroup"></path>
                <path d="M313.675235,307.479778 C308.988255,310.619945 306.15723,313.995014 310.266925,319.786704 C305.555568,316.049307 301.57108,314.160111 297.312909,320.133518 C299.366094,314.613296 299.418172,310.465928 293.323989,307.699169 C299.469141,308.417175 302.693518,305.921884 303.466925,299.85651 C304.791025,305.503047 307.378283,308.696399 313.675235,307.479778" id="Fill-80" fill="#013EA5" sketch:type="MSShapeGroup"></path>
                <path d="M267.492853,229.065928 C273.180388,229.40831 276.812521,227.734072 277.446316,221.432687 C278.86903,226.916343 281.676787,229.98892 287.880665,228.967313 C282.308366,231.86482 281.512798,235.817175 284.110028,241.140166 C279.72,237.311911 275.626925,235.807202 271.293407,241.515789 C273.673463,235.93241 273.359889,231.823823 267.492853,229.065928" id="Fill-82" fill="#013EA5" sketch:type="MSShapeGroup"></path>
                <path d="M213.560776,240.652742 C215.977396,235.24 214.314238,231.774072 209.356898,229.071579 C215.345817,229.567978 218.822825,227.341939 219.430028,220.995125 C220.633352,226.724765 223.227258,230.03446 229.705928,228.886537 C224.683213,231.754127 223.141939,235.420609 225.657175,240.76133 C221.515346,237.089307 217.760222,236.512022 213.560776,240.652742" id="Fill-84" fill="#013EA5" sketch:type="MSShapeGroup"></path>
                <path d="M293.224044,342.128532 C289.170859,338.740166 285.228476,338.489751 281.219612,343.652078 C282.805208,335.552355 282.805208,335.552355 277.058947,330.278116 C282.54482,330.684765 286.940388,329.903601 287.399114,323.020499 C288.521551,329.226593 292.007424,331.317452 298.211302,330.486427 C291.961994,332.993906 292.496066,337.601108 293.150914,342.252632 L293.224044,342.128532 Z" id="Fill-86" fill="#013EA5" sketch:type="MSShapeGroup"></path>
                <path d="M296.609307,278.116565 C303.240886,279.706593 305.879114,276.648421 307.015956,270.940942 C308.457507,276.291634 310.496288,280.394681 317.626482,277.862825 C313.254183,281.441773 309.781607,284.634017 313.524543,290.53651 C309.14892,286.88554 305.396011,286.065596 300.983823,290.574183 C304.179391,284.656177 301.132299,281.275568 296.609307,278.116565" id="Fill-88" fill="#013EA5" sketch:type="MSShapeGroup"></path>
                <path d="M185.895734,315.663158 C186.742271,311.14349 187.76831,306.560665 181.253075,304.177285 C187.370526,304.414404 191.358338,302.686981 191.522327,295.750693 C192.736731,301.883657 195.179945,305.255402 201.972188,303.559003 C197.28964,306.727978 194.744488,310.233795 197.911247,316.172853 C193.597673,311.209972 189.697396,312.698061 185.810416,315.562327 L185.895734,315.663158 Z" id="Fill-90" fill="#013EA5" sketch:type="MSShapeGroup"></path>
                <path d="M204.612078,260.085983 C200.640886,258.002881 196.656399,254.838338 192.49241,261.165208 C194.972188,255.277119 193.90072,251.45662 188.36831,248.83723 C193.363324,248.305374 198.519003,248.425042 198.399335,240.90482 C199.834238,246.881551 202.934515,249.702604 209.350028,248.266593 C204.021496,251.196233 202.804875,255.165208 204.525651,260.179058 L204.612078,260.085983 Z" id="Fill-92" fill="#013EA5" sketch:type="MSShapeGroup"></path>
                <path d="M178.523102,275.065042 C184.24831,275.541496 188.114238,274.137618 189.023934,267.66338 C190.240554,273.840665 193.840554,275.693296 199.697618,274.721551 C194.592909,277.785263 191.935845,281.298837 195.737507,287.273352 C191.153573,283.437341 187.029474,282.187479 182.683767,287.684432 C184.928643,282.146482 185.139169,277.695512 178.523102,275.065042" id="Fill-94" fill="#013EA5" sketch:type="MSShapeGroup"></path>
                <path d="M256.34615,356.453407 C257.652521,348.242881 257.652521,348.242881 251.424266,342.908809 C258.711801,344.881108 261.377729,341.532632 262.163324,334.638449 C263.582715,338.359224 263.923989,340.854515 265.30349,342.455623 C266.961108,344.378061 269.864155,342.663934 272.345042,343.523767 C271.403213,345.821828 268.500166,346.190803 267.545042,348.189695 C266.429252,350.523213 268.799335,352.611856 268.568864,355.746482 C264.647535,352.09662 260.750582,350.783601 256.34615,356.453407" id="Fill-96" fill="#013EA5" sketch:type="MSShapeGroup"></path>
                <path d="M222.416177,342.428809 C228.908144,343.576731 232.090416,341.032687 232.556898,334.284765 C233.841108,340.393352 236.22892,343.918006 243.251634,342.199446 C238.573518,345.26759 235.576288,348.539612 239.087645,354.224931 C234.781828,351.726316 230.822825,348.904155 226.706482,354.858726 C228.871579,349.095845 227.854404,345.228809 222.416177,342.428809" id="Fill-98" fill="#013EA5" sketch:type="MSShapeGroup"></path>
                <path d="M204.526094,260.178947 C204.701163,260.301939 204.876233,260.423823 205.05241,260.546814 C204.951579,260.531302 204.803102,260.551247 204.762105,260.493629 C204.680111,260.379501 204.659058,260.224377 204.612521,260.085873 L204.526094,260.178947" id="Fill-100" fill="#013EA5" sketch:type="MSShapeGroup"></path>
                <path d="M185.810083,315.562327 C185.719224,315.67867 185.64277,315.81385 185.530859,315.905817 C185.480997,315.946814 185.36133,315.904709 185.272687,315.900277 C185.478781,315.819391 185.684875,315.738504 185.893186,315.659834 C185.895402,315.663158 185.810083,315.562327 185.810083,315.562327" id="Fill-102" fill="#013EA5" sketch:type="MSShapeGroup"></path>
                <path d="M504.715457,533.651634 C505.019058,533.468809 505.323767,533.285983 505.627368,533.103158 C505.511025,533.483213 505.395789,533.862161 505.281662,534.242216 C505.094404,534.047202 504.904931,533.848864 504.715457,533.651634" id="Fill-104" fill="#013EA5" sketch:type="MSShapeGroup"></path>
                <path d="M293.150693,342.252742 C293.395568,342.239446 293.640443,342.227258 293.885319,342.213961 C293.880886,342.371302 293.876454,342.528643 293.872022,342.685983 C293.657064,342.498726 293.442105,342.311468 293.224931,342.126427 C293.223823,342.128643 293.150693,342.252742 293.150693,342.252742" id="Fill-106" fill="#013EA5" sketch:type="MSShapeGroup"></path>
                <path d="M386.127756,476.221053 C386.455734,485.804432 386.337175,495.376731 384.13662,504.783934 C383.250194,508.573407 382.10338,512.239889 379.846316,515.465374 C374.113352,523.65928 363.206981,522.817175 358.840222,513.798892 C356.97097,509.938504 356.256288,505.741274 355.98482,501.505263 C354.896731,484.572299 354.398116,467.639335 357.474017,450.838227 C357.997008,447.980609 358.958781,445.12964 360.178726,442.489197 C362.047978,438.443767 365.025263,435.528532 369.86072,435.390028 C374.885651,435.245983 378.788144,437.315789 381.379834,441.623823 C384.915568,447.498615 385.589252,454.155679 386.055734,460.756233 C386.418061,465.887535 386.127756,471.064266 386.127756,476.221053" id="Fill-108" fill="#FCFDFD" sketch:type="MSShapeGroup"></path>
                <path d="M303.594238,363.206316 C303.895623,362.500499 304.557119,361.875568 305.126648,362.414072 C305.84687,363.095512 305.517784,364.019612 304.676787,364.626814 C304.316676,364.153684 303.955457,363.679446 303.594238,363.206316" id="Fill-110" fill="#FCFDFD" sketch:type="MSShapeGroup"></path>
                <path d="M474.716787,482.018172 C475.09795,474.90349 473.916787,468.301828 475.804875,461.779945 C476.629252,458.932299 478.047535,456.542271 481.327313,456.466925 C484.301274,456.399335 485.891302,458.546704 487.01374,461.008753 C488.494072,464.253075 489.044765,467.763324 489.050305,471.24144 C489.058061,475.449751 487.302936,478.719557 482.728975,479.786593 C480.243657,480.366094 477.805983,481.149474 474.716787,482.018172" id="Fill-112" fill="#FCFDFD" sketch:type="MSShapeGroup"></path>
            </g>
        </g>
    </g>
</svg>