<?xml version="1.0" encoding="UTF-8" standalone="no"?>
<svg width="800px" height="800px" viewBox="0 0 800 800" version="1.1" xmlns="http://www.w3.org/2000/svg" xmlns:xlink="http://www.w3.org/1999/xlink" xmlns:sketch="http://www.bohemiancoding.com/sketch/ns">
    <!-- Generator: Sketch 3.4.4 (17249) - http://www.bohemiancoding.com/sketch -->
    <title>spurs</title>
    <desc>Created with Sketch.</desc>
    <defs>
        <path id="path-1" d="M0,0.639474531 L799.498129,0.639474531 L799.498129,429 L0,429"></path>
    </defs>
    <g id="Page-1" stroke="none" stroke-width="1" fill="none" fill-rule="evenodd" sketch:type="MSPage">
        <g id="spurs" sketch:type="MSArtboardGroup">
            <g id="Page-1" sketch:type="MSLayerGroup" transform="translate(0.000000, 186.000000)">
                <g id="Group-3">
                    <mask id="mask-2" sketch:name="Clip 2" fill="white">
                        <use xlink:href="#path-1"></use>
                    </mask>
                    <g id="Clip-2"></g>
                    <path d="M407.099511,290.527196 C411.57836,290.527196 414.363971,290.555949 417.149583,290.522595 C496.982676,289.596738 573.04023,307.396212 646.648288,337.031716 C652.023827,339.196268 654.239655,338.580947 655.02354,332.916536 C655.565698,329.00148 657.463827,328.210188 661.252029,329.891684 C670.176345,333.855046 679.391885,337.165132 688.288576,341.18255 C692.513036,343.090622 694.786417,342.880148 696.113612,338.016231 C697.217496,333.970059 699.277928,330.188418 700.449727,326.154898 C701.550158,322.368657 703.122532,321.345038 706.983252,322.980528 C712.798504,325.442965 718.901525,327.219923 724.808863,329.481086 C727.533468,330.524258 728.796201,330.073405 729.687137,327.088807 C732.043396,319.198888 734.750734,311.41478 737.329151,303.591569 C752.734043,256.867373 768.077928,210.122475 783.652029,163.453486 C785.162245,158.930008 784.404835,157.020786 779.833899,155.733786 C774.128,154.125898 768.628144,151.798027 763.003971,149.880754 C760.447424,149.008952 759.34354,147.987633 760.53836,144.952429 C762.212029,140.698083 762.914187,136.064193 764.568288,131.800646 C766.335194,127.246116 765.895482,124.720421 760.638504,122.99292 C752.651165,120.367164 745.065554,116.536067 737.118504,113.764244 C733.163396,112.385234 732.846849,110.765845 734.140662,107.133721 C737.852892,96.7077563 737.677928,96.6905043 727.309007,93.3321129 C721.681381,91.5103005 713.560518,91.0801504 711.18354,87.198448 C708.491165,82.7991853 713.299223,75.8063702 715.165122,70.0833032 C716.653468,65.5161209 716.17577,63.7092603 711.21577,62.0622684 C635.539223,36.928389 558.092317,20.8552657 478.465266,15.2667643 C415.383827,10.8398984 352.405986,11.5380298 289.522532,18.0190351 C221.561669,25.0222013 155.30095,39.965893 90.5297266,61.587263 C81.4362014,64.6224668 82.9671367,63.080137 85.168,71.5750271 C86.5412374,76.877145 91.0546187,83.0142603 88.6764892,87.1800458 C86.3098705,91.3228287 78.8290072,91.2216169 73.5662734,92.8927617 C62.2074245,96.4972818 62.0082878,96.5053327 65.8528921,107.778947 C67.0338993,111.244301 66.2258417,112.382933 63.0477122,113.55492 C55.3262734,116.401502 47.8523165,119.942764 40.0733237,122.604175 C34.9464173,124.359279 32.8180719,126.450223 35.2894388,132.021472 C37.1334676,136.178057 37.7193669,140.874054 39.3021007,145.169805 C40.3035396,147.886421 39.495482,148.938794 37.0494388,149.771491 C31.0661295,151.809528 25.1921727,154.185705 19.1559137,156.044322 C15.4390791,157.189855 14.4618129,158.637874 15.8833957,162.563282 C19.6612374,172.990397 22.9245468,183.602684 26.3996547,194.140212 C40.9101583,238.147791 55.495482,282.130067 69.8195108,326.198603 C71.1685755,330.350587 72.6327482,330.518507 76.1619568,329.056687 C81.822964,326.711563 87.7452662,325.005914 93.4580719,322.776955 C96.3472806,321.649823 97.9484317,321.916654 98.9682878,325.163483 C100.342676,329.538593 102.378935,333.706679 103.742964,338.084089 C105.012604,342.160164 106.645986,343.396558 110.997065,341.396475 C119.690014,337.399759 128.850302,334.40366 137.47764,330.282729 C142.471022,327.897351 144.327712,329.234957 145.092029,334.068971 C145.804547,338.582097 147.749871,339.335435 152.103252,337.445764 C171.104115,329.200453 190.765698,322.748201 210.568863,316.715748 C226.285698,311.92774 242.145266,307.736652 259.298647,304.11603 C249.013755,319.453067 239.328576,333.899901 228.867568,349.501469 C231.220374,348.9034 231.944403,348.761933 232.639655,348.535357 C255.775194,341.023831 278.964835,333.668724 301.997928,325.854713 C307.068432,324.135263 308.853755,325.433764 310.697784,330.068805 C317.280806,346.610032 324.301237,362.97759 331.166273,379.407255 C333.787281,385.681236 336.435914,391.943716 339.207712,398.535134 C341.247424,396.660416 341.269295,394.664933 341.77577,392.939732 C348.35764,370.531671 354.947568,348.123609 361.333755,325.659191 C362.381237,321.969561 363.617496,320.857381 367.634763,321.948858 C383.904115,326.373424 400.283971,330.396593 416.621237,334.571579 C428.25059,337.542376 439.878791,340.520073 451.506993,343.494319 C451.708432,343.165381 451.909871,342.835292 452.110158,342.505204 C437.513324,325.648839 422.915338,308.791325 407.099511,290.527196 M429.703252,301.696148 C447.180086,321.861448 463.462101,340.648888 479.744115,359.436327 C479.498935,359.806671 479.253755,360.177014 479.008576,360.548507 C469.066705,358.091821 459.109871,355.698392 449.187568,353.165797 C424.198791,346.787153 399.191597,340.479818 374.285698,333.794089 C370.261525,332.714113 369.254331,334.100024 368.340374,337.274394 C363.314763,354.711577 358.260374,372.140708 353.139223,389.550287 C349.426993,402.171858 345.593899,414.757775 341.323396,428.999885 C337.241669,419.288153 333.750446,411.000287 330.274187,402.70552 C321.478791,381.719024 312.559079,360.783134 304.014619,339.695427 C302.370878,335.636603 300.212604,336.939705 297.736633,337.747099 C277.538647,344.330467 257.362532,350.979392 237.155338,357.537456 C227.030446,360.822239 216.856058,363.956354 204.934331,367.718443 C215.389583,352.036365 224.91246,337.75285 235.256058,322.238692 C219.786705,325.838612 206.04282,329.68811 192.624691,334.533625 C176.075626,340.508571 159.277928,345.909601 143.485122,353.79262 C139.897209,355.584528 138.972892,353.617799 138.438791,350.96559 C137.27505,345.188467 134.296058,344.651354 129.318791,346.902166 C120.782388,350.760866 111.907568,353.88118 103.417209,357.83074 C99.2997986,359.748014 98.0980719,358.362102 97.0195108,354.710427 C95.7763453,350.500936 93.9806619,346.458215 92.5579281,342.29703 C91.2203741,338.380823 89.2911655,336.814341 84.9343309,338.758067 C79.7061295,341.089389 74.0877122,342.530507 68.775482,344.691609 C65.1058417,346.184483 63.2226763,345.479451 61.9541871,341.572445 C49.2566331,302.459837 36.4796547,263.372531 23.6382158,224.305928 C16.3553381,202.150896 8.92051799,180.044169 1.53634532,157.922491 C-0.99257554,150.344258 -1.01214388,150.369561 6.22238849,147.78866 C11.088,146.053108 15.9179281,144.217494 20.7927482,142.512995 C23.9478561,141.410016 25.5156259,139.961998 23.9708777,136.212561 C22.230446,131.990418 21.1714532,127.485343 19.8580719,123.090681 C18.928,119.977268 19.2295827,117.820767 22.986705,116.445207 C31.2456978,113.420354 39.2295827,109.646764 47.4678561,106.560955 C51.0937554,105.202646 52.1861295,103.751177 50.8715971,99.8131182 C47.3849784,89.3641504 47.5795108,89.3077938 58.3259856,85.8907456 C62.156777,84.6727536 65.909295,83.1246732 69.8137554,82.2379198 C74.9464173,81.0716839 75.5852662,78.2458046 73.9887194,73.8246893 C72.5625324,69.8762791 71.7936115,65.6782898 70.2131799,61.8011879 C68.5245468,57.6595552 70.0796547,56.2805445 73.9138993,54.9670914 C106.504403,43.809641 139.445986,33.8195767 173.012604,26.0906759 C205.551309,18.5987027 238.311022,12.2131584 271.555338,8.52122815 C294.713899,5.94952842 317.863252,3.62510751 341.173755,2.70154987 C363.539223,1.81594665 385.900086,0.180456032 408.278216,0.761273727 C435.033899,1.45595469 461.824115,2.22884477 488.496921,4.29908606 C535.729151,7.9657134 582.419223,15.5393461 628.526849,26.5346276 C659.226129,33.8552308 689.505266,42.6146517 719.338935,52.9187027 C731.131741,56.9913273 731.161669,56.9050673 727.321669,69.0033273 C723.806273,80.076818 723.806273,80.0779681 734.910734,83.7744989 C738.361669,84.9223327 741.803396,86.1023702 745.272748,87.1926973 C752.857209,89.5780753 752.864115,89.5573729 750.154475,97.0827 C747.500086,104.455059 747.488576,104.483813 754.787568,107.496014 C762.391597,110.634729 769.958791,113.880408 777.671022,116.73044 C780.823827,117.895526 781.214043,119.398751 780.191885,122.277536 C778.595338,126.77341 777.581237,131.48781 775.821237,135.911225 C774.296058,139.745772 775.604835,141.482475 779.14095,142.647561 C784.226417,144.324456 789.163396,146.498209 794.312173,147.924376 C799.292892,149.303386 800.481957,151.463338 798.748432,156.586035 C789.12541,185.032301 779.818935,213.586679 770.469871,242.124955 C759.701525,274.998086 748.942388,307.874668 738.349007,340.804156 C736.991885,345.023998 735.275626,346.472016 730.907281,344.69736 C725.240518,342.395941 719.298647,340.769652 713.626129,338.477435 C710.22354,337.103024 708.820374,338.142746 707.734906,341.336668 C706.07505,346.221287 703.806273,350.904633 702.268432,355.821456 C701.193324,359.255756 699.677353,359.267258 696.793899,358.011311 C687.850014,354.114657 678.750734,350.574545 669.809151,346.67559 C665.69059,344.880231 662.827856,344.967641 661.852892,350.075386 C661.070158,354.176764 659.36541,355.25674 655.108719,353.290011 C624.454331,339.12611 592.343827,329.129145 559.818935,320.280014 C531.376921,312.541912 502.400806,307.767705 473.195626,304.420815 C459.379223,302.837081 445.405122,302.632357 429.703252,301.696148" id="Fill-1" fill="#C6CFD4" sketch:type="MSShapeGroup" mask="url(#mask-2)"></path>
                </g>
                <path d="M609.596432,78.6981523 C608.839022,81.295155 611.561324,80.8466027 613.456,81.4170692 C615.44046,82.0151389 617.087655,82.556852 617.649381,79.6274606 C618.90636,73.0751469 620.204777,66.5239834 621.755281,60.0372273 C622.452835,57.1216375 620.814849,56.8375544 618.799309,56.4936643 C616.830964,56.1566751 614.645065,54.8420718 613.955568,58.2694713 C612.639885,64.8102836 611.179165,71.3234928 609.596432,78.6981523 M455.647655,34.4260424 C455.648806,34.251222 455.649957,34.0775517 455.649957,33.9027314 C452.020604,33.9027314 448.391252,33.9038815 444.761899,33.9004311 C444.379741,33.9004311 443.991827,33.9073319 443.615424,33.8498252 C441.16823,33.4748815 440.801036,34.8734445 440.728518,36.8919298 C440.658302,38.8310558 440.779165,40.0018922 443.206791,40.4251416 C451.369094,41.8455571 451.348374,41.9617206 451.052547,50.4750129 C450.999597,52.0023909 451.049094,53.5424204 450.867223,55.0548466 C450.550676,57.6817528 450.150101,59.8785088 454.151252,60.0165249 C457.642475,60.1361389 459.075568,59.1769271 458.84305,55.6333641 C458.706072,53.5516214 459.01341,51.4399753 459.119309,49.3409807 C459.509525,41.5867769 459.510676,41.4821147 467.084777,41.6120799 C469.458302,41.6534847 470.513842,41.2049324 470.684201,38.6021791 C470.872978,35.7176429 469.755281,34.972356 467.09859,34.972356 C463.281612,34.9735062 459.464633,34.6250155 455.647655,34.4260424 M218.564489,75.0039217 C217.275281,73.35923 216.285353,71.9928708 215.189525,70.7196724 C210.587511,65.3703989 206.086791,59.9245142 201.274129,54.7707635 C198.787799,52.1093534 190.200748,54.2071979 189.102619,57.709356 C186.562187,65.8120504 184.32564,74.0090558 181.705784,83.0686617 C185.493986,81.8242166 189.019741,83.131919 190.933986,79.4652917 C192.584633,76.3035732 205.064633,71.8353024 207.273554,74.1884767 C211.022619,78.1828922 214.365353,76.1494552 218.564489,75.0039217 M359.859453,59.3114928 C355.57859,52.4233399 351.381755,46.5047501 348.106935,40.1134552 C345.787511,35.5865276 342.823482,34.7354284 338.110964,34.8343399 C333.25341,34.9355517 332.788374,38.4066563 331.331108,41.2900424 C328.919597,46.0642488 326.587511,50.8856107 324.413122,55.77023 C323.698302,57.374667 321.567655,59.1964794 323.128518,60.8250692 C324.418878,62.1718761 326.785496,60.978037 328.674417,60.9826375 C330.570245,60.9872381 331.08823,59.6438815 331.980317,58.3568815 C333.764489,55.7794311 347.219453,54.3475142 348.841324,56.8720584 C351.73859,61.381734 355.357583,59.1401228 359.859453,59.3114928 M408.712403,49.1960638 C408.274993,49.3317796 407.837583,49.4686456 407.399022,49.6055115 C404.554705,46.0354954 401.301755,42.7127582 398.965065,38.8368064 C395.708662,33.4334767 391.137727,32.4708145 385.415712,32.8572595 C382.551827,33.050482 381.896863,33.9602381 381.961324,36.5756429 C382.109813,42.6989566 382.207655,48.837222 381.929094,54.9513346 C381.777151,58.2913239 383.289669,58.6317635 385.983194,58.6076107 C388.66636,58.5834579 390.204201,58.232667 390.174273,54.8984284 C390.137439,50.8695088 389.26377,46.6945223 391.059453,41.9295169 C394.117871,45.7514123 397.18895,48.7498118 399.230964,52.3347796 C402.497727,58.0670477 407.270101,59.0768654 413.214273,58.6490155 C415.981468,58.4500424 416.816,57.6794525 416.742331,54.9743373 C416.574273,48.8521737 416.516719,42.7150584 416.758446,36.5974954 C416.887367,33.341466 415.488806,32.8837126 412.704345,32.8860129 C409.843914,32.8883131 408.484489,33.5599914 408.657151,36.7205598 C408.883914,40.8679432 408.712403,45.036029 408.712403,49.1960638 M506.133986,38.0811684 C496.280748,37.3795866 494.305496,38.9656214 493.126791,48.6451496 C492.872403,50.7314928 492.533986,52.8201362 492.476432,54.9145303 C492.356719,59.2942408 494.307799,62.3466965 498.764777,63.1839941 C502.700317,63.9235303 506.686504,64.469844 510.674993,64.8413373 C525.837007,66.2491013 527.943482,64.1857609 528.262331,48.9890397 C528.383194,43.2556214 525.697727,40.4274418 520.385496,39.6890558 C515.652259,39.0311791 510.88564,38.6079298 506.133986,38.0811684 M136.104633,95.3129887 C140.985209,93.9880343 146.881036,92.3260906 152.810245,90.7952622 C158.047655,89.4438547 159.957295,86.4121013 158.748662,81.0053212 C157.459453,75.2396992 153.694273,74.2850879 148.818302,75.2753534 C144.502906,76.1517555 140.254273,77.3547957 135.969957,78.3876161 C134.793554,78.6705491 133.504345,78.6820504 133.05082,77.3536456 C132.583482,75.9826858 133.686216,75.1120343 134.811971,74.9418145 C139.144633,74.2896885 143.005353,71.0382595 147.989525,73.4385893 C149.889957,74.354096 154.030388,73.7916804 154.478158,70.8335357 C154.93859,67.7845303 152.512115,65.5670718 148.969094,65.7027877 C147.251683,65.7683453 145.491683,65.8201013 143.837583,66.2283989 C139.56823,67.2819217 135.308086,68.4044525 131.118158,69.7305571 C124.828662,71.720289 123.457727,74.1424713 125.074993,79.79423 C126.732547,85.5886054 128.606504,86.5133131 135.48305,84.9203775 C139.577439,83.972667 143.660317,82.9639995 147.773122,82.1013989 C148.870101,81.8713721 150.180029,81.973734 150.502331,83.4516563 C150.741755,84.5523346 150.036144,85.4494391 149.062331,85.5736536 C144.411971,86.1625223 140.280748,90.3398091 135.047942,87.2850531 C132.914993,86.0394579 130.541468,87.610541 128.516719,88.4570397 C126.841899,89.1563212 127.978014,90.7665088 128.411971,91.9706992 C129.32823,94.5193962 131.304633,95.375096 133.84046,95.3141389 C134.22377,95.3049378 134.607079,95.3129887 136.104633,95.3129887 M668.034417,95.1462193 C672.902331,95.6971335 675.720173,93.4244686 676.954129,88.8917903 C677.705784,86.1245678 678.433266,83.3504445 679.186072,80.5843721 C680.605353,75.375415 678.53341,71.8525544 673.610245,70.2849217 C667.60046,68.3733989 661.490532,66.7344579 655.349525,65.2898895 C650.85341,64.2317662 647.15154,65.8925598 645.754129,70.4206375 C642.434417,81.1743909 640.938014,85.2964713 646.026935,88.9527475 C646.489669,89.2862863 646.99154,89.6140745 647.52564,89.7946456 C654.239885,92.0696107 661.070388,93.9063748 668.034417,95.1462193 M561.653986,53.4032542 C564.649094,58.8813426 567.158446,62.5491201 568.738878,66.5803399 C570.968518,72.2700531 574.822331,74.5611201 580.765353,75.1281362 C584.249669,75.4593748 585.099165,74.3080906 585.554993,71.4511576 C586.486216,65.6096268 587.396719,59.7542944 588.634129,53.9737206 C589.193554,51.3629164 589.030101,50.0563641 585.979741,49.8826938 C583.591252,49.746978 581.072691,48.2771067 580.60305,52.432541 C580.125353,56.6638842 579.159597,60.8400209 578.10636,66.7241067 C575.148086,61.3920853 572.593842,57.7933158 571.064058,53.8023507 C568.68823,47.6008279 564.334849,45.2614552 558.037295,44.8324552 C555.47154,44.6564847 554.767079,45.1084874 554.397583,47.5352702 C553.450245,53.7574954 552.415424,59.9808708 551.019165,66.1133855 C550.24564,69.5143319 552.04823,69.9663346 554.516144,70.4838949 C557.270676,71.0601121 558.794705,70.5091979 559.167655,67.3394284 C559.655712,63.2023962 560.607655,59.1194204 561.653986,53.4032542 M400.462619,311.80042 C400.016,310.449013 399.992978,310.024613 399.773122,309.768134 C393.023194,301.923069 386.229525,294.117109 379.499165,286.255943 C376.019453,282.19252 369.936,278.037085 369.934849,273.921906 C369.933698,269.135048 377.292547,266.483989 381.304058,262.741453 C384.05859,260.170903 386.67154,257.879836 391.149237,257.813128 C445.843914,256.990782 499.81341,262.785158 553.126791,274.90642 C595.068662,284.441032 635.753554,297.904501 675.579741,314.045482 C682.457439,316.833407 682.433266,316.848359 684.939165,310.174131 C686.284777,306.589163 687.922763,303.095056 689.003626,299.435329 C689.979741,296.128694 691.476144,295.880265 694.451683,297.093656 C700.112691,299.403125 706.013122,301.121426 711.686791,303.404442 C714.677295,304.607482 715.949237,304.260142 717.027799,300.948906 C730.83154,258.558415 744.735424,216.198978 758.815424,173.899348 C759.95154,170.48805 758.852259,169.567943 756.098878,168.636335 C750.299741,166.673056 744.588086,164.446396 738.775137,162.524522 C735.911252,161.576812 734.777439,160.365721 735.945784,157.161447 C737.582619,152.674774 738.374561,147.871814 740.108086,143.429997 C741.945209,138.724798 740.90118,136.692512 735.978014,134.768337 C617.316719,88.3811308 494.407942,66.8690236 367.004201,71.3384445 C302.794705,73.590407 239.597007,82.9559485 177.28564,98.4252515 C138.387223,108.081777 100.294561,120.273198 63.0295252,135.067372 C58.8902446,136.710914 57.8358561,138.367107 59.4680863,142.566246 C61.3339856,147.368056 62.2675108,152.524107 63.9216115,157.419077 C64.9000288,160.316265 64.0136978,161.549209 61.2936978,162.448613 C55.4842014,164.367037 49.8036259,166.685707 43.9711079,168.523621 C40.7987338,169.523088 39.5544173,170.688174 41.063482,174.152377 C42.6611799,177.821305 43.5970072,181.775466 44.8551367,185.593911 C57.4295252,223.771461 70.0775827,261.927158 82.4954245,300.156463 C83.8053525,304.191134 85.2764317,304.717895 88.9644892,303.13416 C94.4056403,300.799388 100.157583,299.196101 105.643626,296.95794 C108.487942,295.797455 109.779453,296.362171 110.711827,299.238656 C112.06895,303.425144 114.015424,307.427611 115.250532,311.644002 C116.469525,315.805187 117.995856,316.728745 122.397583,314.910383 C174.082187,293.559294 227.30118,277.317101 282.456288,267.646774 C285.665496,267.084359 288.247367,267.509908 291.006504,269.49504 C300.142619,276.070356 300.146072,275.896686 293.932547,284.982745 C287.103194,294.970509 280.444201,305.074436 272.76305,316.544723 C287.699453,311.695758 300.977151,307.486268 314.168518,303.027198 C317.330532,301.958723 318.785496,302.301463 320.050532,305.673656 C323.210245,314.089187 326.733698,322.375903 330.350388,330.609713 C332.337151,335.13204 333.645928,340.02586 337.054273,344.842621 C341.211971,330.597061 345.220029,317.238254 348.963338,303.805839 C349.979741,300.156463 351.114705,299.005179 355.259741,300.163364 C369.984345,304.276243 384.864345,307.834758 400.462619,311.80042 M247.545209,54.4050209 C252.464921,57.4494257 256.222043,61.8302863 260.439597,65.6740343 C264.738878,69.5902408 269.366216,67.0852488 273.436432,65.9535169 C276.985209,64.9667019 274.068374,61.4300397 273.881899,59.1562247 C273.476719,54.2071979 272.289957,49.3271791 271.754705,44.3827528 C271.400173,41.1106214 269.795568,40.9507528 267.069813,41.3026938 C264.162187,41.6787877 263.049094,42.6322488 263.708662,45.6904552 C264.584633,49.7458279 265.084201,53.8817099 266.014273,59.6496322 C261.485928,55.6138118 257.709237,52.9639029 254.867223,49.5399539 C250.870676,44.7220424 246.369957,44.0285115 240.630676,45.3810692 C237.689669,46.0746 236.745784,46.9889566 237.277583,49.893045 C238.345784,55.7299753 239.419741,61.5795571 240.095424,67.4693936 C240.471827,70.7484257 241.627511,71.3407448 244.816,70.9312971 C248.360173,70.475844 248.745784,68.8725571 248.212835,65.9650182 C247.559022,62.3984525 247.137727,58.7893319 246.615137,55.1997635 C246.925928,54.9352327 247.235568,54.6695517 247.545209,54.4050209 M407.099741,290.527541 C422.915568,308.79167 437.512403,325.648034 452.110388,342.505549 C451.90895,342.835638 451.708662,343.164576 451.507223,343.494664 C439.879022,340.520418 428.25082,337.542721 416.621468,334.571924 C400.284201,330.396938 383.904345,326.373769 367.634993,321.949203 C363.617727,320.856576 362.381468,321.969906 361.332835,325.658386 C354.947799,348.123954 348.356719,370.530865 341.776,392.940077 C341.269525,394.665278 341.247655,396.660761 339.207942,398.535479 C336.434993,391.944061 333.787511,385.680431 331.165353,379.40645 C324.301468,362.977935 317.281036,346.610377 310.698014,330.067999 C308.853986,325.434109 307.068662,324.134458 301.998158,325.855058 C278.965065,333.667919 255.775424,341.023026 232.639885,348.535702 C231.943482,348.762278 231.219453,348.902595 228.867799,349.500664 C239.327655,333.899096 249.013986,319.453412 259.297727,304.116375 C242.144345,307.736997 226.285928,311.926935 210.569094,316.714943 C190.765928,322.748546 171.103194,329.199648 152.103482,337.446109 C147.750101,339.33578 145.804777,338.582442 145.091108,334.069316 C144.327942,329.235302 142.471252,327.897697 137.476719,330.283075 C128.850532,334.404005 119.690245,337.400104 110.997295,341.39567 C106.646216,343.396903 105.012835,342.160509 103.743194,338.084434 C102.379165,333.707024 100.342906,329.538938 98.968518,325.163828 C97.9486619,321.916999 96.3475108,321.650168 93.4583022,322.7773 C87.7443453,325.005109 81.8220432,326.711908 76.1621871,329.057032 C72.6329784,330.518852 71.1688058,330.350932 69.8185899,326.198949 C55.4957122,282.130412 40.9103885,238.146986 26.3998849,194.140557 C22.924777,183.603029 19.6614676,172.989592 15.8836259,162.562477 C14.4608921,158.638219 15.4393094,157.18905 19.1561439,156.044667 C25.1912518,154.18605 31.0663597,151.809873 37.0496691,149.771836 C39.4957122,148.937989 40.3026187,147.885616 39.3023309,145.17015 C37.7195971,140.874399 37.1336978,136.177251 35.2896691,132.021817 C32.8171511,126.450568 34.9466475,124.358474 40.073554,122.60452 C47.8525468,119.941959 55.3253525,116.401847 63.0479424,113.555265 C66.2249209,112.383278 67.0341295,111.244646 65.8531223,107.779292 C62.008518,96.5045276 62.2076547,96.4976268 73.5653525,92.8931067 C78.8292374,91.2219619 86.3101007,91.3231737 88.6767194,87.1792408 C91.0548489,83.0146054 86.5414676,76.8774901 85.1670791,71.5753721 C82.9673669,63.0793319 81.4352806,64.6228118 90.5299568,61.5864579 C155.30118,39.9662381 221.560748,25.0225464 289.521612,18.01823 C352.406216,11.5383748 415.384058,10.8402434 478.464345,15.2671094 C558.091396,20.8556107 635.539453,36.9275839 711.214849,62.0614633 C716.176,63.7096054 716.653698,65.516466 715.164201,70.0824981 C713.299453,75.8055651 708.490245,82.7995303 711.18377,87.198793 C713.560748,91.0804954 721.681612,91.5094954 727.308086,93.3324579 C737.678158,96.6896992 737.853122,96.7081013 734.140892,107.132916 C732.847079,110.76504 733.163626,112.385579 737.118734,113.764589 C745.065784,116.536412 752.651396,120.367509 760.638734,122.993265 C765.894561,124.720766 766.335424,127.246461 764.568518,131.800991 C762.914417,136.064538 762.212259,140.698428 760.53859,144.951624 C759.34377,147.987978 760.447655,149.008147 763.004201,149.879949 C768.627223,151.797222 774.127079,154.126243 779.834129,155.732981 C784.405065,157.021131 785.161324,158.930353 783.652259,163.453831 C768.077007,210.12167 752.734273,256.867718 737.329381,303.591914 C734.749813,311.415125 732.043626,319.199233 729.687367,327.089152 C728.796432,330.0726 727.533698,330.523453 724.807942,329.480281 C718.901755,327.219117 712.797583,325.44331 706.982331,322.979723 C703.121612,321.344233 701.550388,322.369002 700.449957,326.155243 C699.278158,330.188764 697.217727,333.969254 696.113842,338.015426 C694.785496,342.880493 692.513266,343.090967 688.288806,341.182895 C679.392115,337.165477 670.175424,333.855391 661.252259,329.892029 C657.464058,328.209383 655.565928,329.001825 655.02377,332.916882 C654.239885,338.581292 652.024058,339.195463 646.648518,337.032061 C573.04046,307.396557 496.982906,289.597083 417.149813,290.52294 C414.364201,290.555144 411.57859,290.527541 407.099741,290.527541" id="Fill-4" fill="#070607" sketch:type="MSShapeGroup"></path>
                <path d="M459.84,171.583093 C459.711079,171.612997 459.523453,171.601495 459.46705,171.682005 C459.384173,171.802769 459.393381,171.98794 459.362302,172.145509 L460.005755,172.012093 C459.950504,171.869476 459.895252,171.72571 459.84,171.583093 M578.303309,212.545117 C578.469065,212.215029 578.757986,211.898742 578.749928,211.588206 C578.743022,211.28112 578.436835,210.982085 578.261871,210.6796 C578.096115,210.990136 577.799137,211.302972 577.80259,211.612358 C577.807194,211.917144 578.114532,212.218479 578.303309,212.545117 M149.677122,229.237013 C157.682878,225.453072 167.347338,223.694517 176.475396,220.303921 C178.091511,219.702401 178.477122,218.656929 177.864748,217.165206 C177.262734,215.696484 176.630791,214.400283 174.518561,215.111066 C165.479137,218.157771 156.398273,221.084862 147.362302,224.140769 C146.178993,224.542165 144.697554,225.132184 145.382446,227.000002 C145.953381,228.558434 146.821295,229.720069 149.677122,229.237013 M652.25554,228.312305 C653.669065,228.35831 655.356547,228.667696 655.841151,226.596305 C656.36259,224.368495 654.808633,223.46679 653.117698,222.900924 C644.432806,219.994535 635.698417,217.229613 627.043453,214.235814 C624.841439,213.474425 624.041439,214.004637 623.345036,216.099031 C622.72,217.980651 623.101007,219.084779 624.88518,219.654096 C633.967194,222.553584 643.064173,225.409366 652.25554,228.312305 M135.616691,191.110069 C144.722878,188.141573 154.334388,185.053463 163.906763,181.845739 C165.431942,181.333929 165.603453,179.980222 164.903597,178.520702 C164.257842,177.173895 163.393381,176.245736 161.79223,176.758696 C152.530647,179.727192 143.282878,182.737093 134.023597,185.71479 C132.414388,186.23235 132.043741,187.354881 132.351079,188.840854 C132.653813,190.306125 133.421583,191.266487 135.616691,191.110069 M668.666475,187.232967 C668.887482,184.844139 666.908777,184.592259 665.336403,184.0839 C656.972662,181.376484 648.58705,178.734627 640.21295,176.059415 C638.732662,175.58671 637.121151,174.835672 636.521439,177.089935 C636.056403,178.838139 636.066763,180.489731 638.321727,181.233868 C647.224173,184.17016 656.089784,187.218015 665.004892,190.115203 C667.325468,190.868541 668.720576,189.872525 668.666475,187.232967 M325.693237,164.440761 C322.858129,150.042232 320.031079,134.215238 316.489209,118.549262 C315.341583,113.478321 310.774101,111.609353 305.556259,112.592718 C276.97036,117.976495 248.397122,123.429281 219.804317,128.777404 C216.857554,129.328318 215.620144,130.179417 216.28777,133.612568 C222.497842,165.526487 228.595108,197.462259 234.501295,229.433686 C235.209209,233.269383 236.90705,233.499409 239.974676,232.849584 C245.774964,231.62124 251.589065,230.41245 257.445755,229.511895 C260.467338,229.04724 261.040576,228.067326 260.391367,225.018321 C258.123741,214.360029 256.420144,203.580972 254.155971,192.92038 C253.305324,188.917913 253.807194,187.385935 258.350504,186.599243 C277.765755,183.238551 297.093525,179.370651 316.445468,175.640766 C322.779856,174.419324 325.739281,171.208149 325.693237,164.440761 M579.964317,137.757651 C580.278561,130.517557 577.431942,127.221273 570.543885,126.053887 C542.397698,121.284281 514.226187,116.654991 486.113381,111.696763 C482.167482,111.000932 481.304173,111.984297 480.702158,115.640573 C475.88259,144.922986 470.843165,174.169745 465.864748,203.426854 C463.884892,215.05931 463.875683,215.067361 475.148201,217.218112 C478.534676,217.864487 481.968345,218.296938 485.316835,219.09283 C488.773525,219.915176 489.955683,218.719037 490.473669,215.239881 C492.05295,204.633345 494.22964,194.115369 495.757122,183.501932 C496.317698,179.606428 497.519424,178.304476 501.533237,179.057814 C514.14446,181.42364 526.791367,183.622696 539.464748,185.62623 C543.856115,186.320911 545.351367,188.140423 544.474245,192.591442 C542.696978,201.606192 541.176403,210.674999 539.760576,219.754157 C538.668201,226.758474 539.48777,227.770592 546.228489,229.103597 C548.859856,229.624608 551.500432,230.099613 554.147914,230.534364 C557.358273,231.061125 561.231655,232.848434 563.62705,231.670696 C566.463309,230.275584 564.753957,225.733704 565.364029,222.601889 C567.447482,211.894141 569.579281,201.164541 570.844317,190.342929 C571.510791,184.639415 571.369209,179.351098 573.422734,173.404905 C577.428489,161.804653 578.084604,149.049667 579.964317,137.757651 M215.258705,231.510828 C215.156259,230.962214 215.081439,229.991501 214.787914,229.089795 C210.055827,214.547501 205.425036,199.970702 200.481151,185.499715 C198.440288,179.524769 193.96259,177.676503 187.537266,179.714541 C171.665036,184.750978 155.816978,189.863324 139.986187,195.029726 C127.80777,199.003439 129.164892,199.454291 125.106187,187.510149 C123.639712,183.195997 124.618129,181.221216 128.912806,179.914664 C139.726043,176.626431 150.498993,173.182929 161.17295,169.471447 C165.541295,167.95327 168.254388,168.442077 169.17295,173.346249 C169.739281,176.372251 171.301295,176.820803 174.123741,175.794884 C179.88259,173.70279 185.712806,171.761364 191.617842,170.137375 C194.716547,169.285125 195.015827,167.860109 194.06964,165.191798 C192.153094,159.791919 190.424173,154.325332 188.62964,148.882897 C185.931511,140.700844 181.938417,138.52594 173.810647,141.128694 C149.922302,148.778235 126.048921,156.473782 102.195108,164.226836 C94.5116547,166.723777 92.4374101,170.972372 94.9697842,178.882994 C99.112518,191.823152 103.347338,204.733407 107.598273,217.639061 C110.301007,225.846417 114.242302,227.890206 122.427626,225.2656 C137.924604,220.295871 153.383597,215.204227 168.882878,210.240249 C180.314245,206.579372 179.585612,205.140554 183.830791,217.89209 C185.308777,222.333908 184.35223,224.596222 179.782446,225.985584 C169.163741,229.21171 158.583022,232.596554 148.126619,236.309187 C143.499281,237.952728 140.733237,237.394913 139.792806,232.240013 C139.158561,228.760857 137.367482,228.235246 134.117986,229.478541 C128.588201,231.592487 122.906475,233.326889 117.236259,235.05094 C114.858129,235.773224 113.585036,236.544964 114.60259,239.42145 C116.964604,246.095677 118.861583,252.935525 121.281151,259.5856 C123.172374,264.783055 127.625899,267.179935 132.70446,265.566297 C158.073094,257.509608 183.396835,249.304551 208.706763,241.061541 C212.974964,239.671029 215.171223,236.470206 215.258705,231.510828 M668.031079,265.373074 C674.747626,265.550195 677.385899,262.037686 678.984748,256.997798 C683.149353,243.873618 687.456691,230.793144 691.705324,217.694267 C694.398849,209.390299 692.531799,205.482144 684.356835,202.795431 C668.720576,197.658932 653.050935,192.627096 637.405468,187.520501 C626.524317,183.968887 626.706187,184.00109 630.19741,172.971305 C631.537266,168.739962 633.503309,167.398905 637.743885,168.815871 C648.643453,172.458345 659.579856,175.995007 670.550791,179.417806 C674.661295,180.700206 676.504173,182.816452 674.271079,186.964986 C672.562878,190.140506 673.966043,191.20323 676.94964,192.049728 C682.83741,193.720873 688.724029,195.488629 694.419568,197.707238 C697.617266,198.952833 698.428777,197.676184 699.205755,195.086082 C700.854101,189.584991 702.682014,184.135656 704.402878,178.655267 C707.003165,170.376602 705.101583,166.470747 696.873669,163.787484 C673.030216,156.012578 649.169496,148.290578 625.291511,140.624935 C617.629928,138.164798 613.597698,140.191334 611.106763,147.658005 C606.810935,160.529155 602.572662,173.421007 598.411511,186.334712 C595.469353,195.462176 597.489496,199.117302 606.866187,202.150206 C621.981007,207.039425 637.099281,211.918294 652.208345,216.823616 C663.708777,220.558101 663.513094,220.510946 659.708777,232.138801 C658.307914,236.4196 656.353381,237.577785 652.157698,236.149318 C641.467626,232.511444 630.754532,228.921876 619.94705,225.652045 C615.168921,224.206326 613.538993,221.881905 615.781295,217.271018 C617.025612,214.71312 616.598561,213.121334 613.518273,212.243782 C607.444029,210.51053 601.434245,208.53575 595.460144,206.48046 C592.783885,205.559203 591.821583,206.39535 591.051511,208.999254 C589.210935,215.22608 586.870791,221.303388 584.976115,227.514112 C582.835108,234.53223 585.197122,238.795777 592.339568,241.117897 C616.183022,248.869801 640.037986,256.5826 663.895252,264.288498 C665.520576,264.814109 667.203453,265.159149 668.031079,265.373074 M354.574964,253.566948 C363.263309,243.757455 370.959424,235.243013 378.425324,226.530747 C380.608921,223.98205 382.851223,222.857219 386.260719,222.945779 C395.270216,223.176956 404.292374,222.897474 413.303022,223.089546 C416.561727,223.159704 418.44259,222.17979 420.090935,219.221645 C431.930935,197.975219 443.975827,176.843806 455.960863,155.68019 C456.903597,154.014795 457.884317,152.42416 457.876259,150.36657 C457.832518,137.717396 457.86705,125.068222 457.849784,112.417897 C457.847482,111.135498 458.159424,109.17912 456.450072,109.125064 C449.559712,108.907688 442.658993,108.977846 435.762878,109.065257 C435.221871,109.072157 434.50705,109.942809 434.18705,110.570782 C428.869065,121.016299 420.613525,130.205871 420.795396,143.003412 C420.839137,146.150179 420.369496,149.439562 418.673957,152.410358 C411.933237,164.215334 405.28,176.068616 398.669353,187.94605 C397.459568,190.120954 396.172662,191.381501 393.361727,191.29294 C386.08,191.065214 378.78446,191.093967 371.500432,191.283739 C367.395683,191.390702 367.503885,190.041594 369.245468,187.042045 C375.304748,176.609179 381.163741,166.061299 387.168921,155.59738 C388.53295,153.221203 389.396259,150.865728 389.367482,148.032948 C389.246619,136.533908 389.217842,125.032568 389.380144,113.535828 C389.427338,110.203889 388.699856,108.610954 384.965755,108.801876 C379.609784,109.075608 374.22964,108.861683 368.858705,108.874334 C367.162014,108.877785 365.53554,108.66501 364.494964,110.719149 C359.182734,121.198021 351.393381,130.650972 351.782446,143.405959 C351.911367,147.652254 350.322878,151.521305 348.153094,155.297195 C338.705036,171.736061 329.541295,188.338246 320.155396,204.813916 C318.617554,207.514431 318.177842,209.803198 319.391079,212.864854 C323.389928,222.968782 323.249496,223.023988 334.328633,223.023988 C335.863022,223.023988 337.406619,223.127501 338.930647,223.003286 C342.414964,222.718053 344.061007,223.372479 342.208921,227.369195 C340.039137,232.054841 338.210072,236.916458 336.539856,241.806828 C335.362302,245.254929 334.190504,245.683929 331.689209,242.845399 C327.34964,237.918224 322.79482,233.179672 317.230504,227.174822 C317.831367,235.699616 317.969496,242.559015 318.906475,249.308002 C319.595971,254.277731 317.769209,255.63719 313.204029,255.522176 C305.643741,255.331254 298.074245,255.47042 290.508201,255.47042 C290.394245,256.161651 290.281439,256.852881 290.167482,257.542962 C296.513381,262.021584 302.768345,266.639372 309.24777,270.91442 C312.146187,272.827093 312.53295,274.325718 310.465612,277.222905 C305.641439,283.985694 301.166043,290.998061 295.662734,299.234171 C304.26705,296.477299 311.432518,294.50597 318.334388,291.85146 C322.569209,290.222871 324.299281,291.153329 325.821007,295.346718 C328.444317,302.57646 331.757122,309.556624 335.269065,317.786983 C337.993669,308.422592 340.500719,300.569476 342.503597,292.588696 C343.461295,288.776002 344.750504,287.724779 348.759712,288.920919 C356.896691,291.348852 365.223597,293.141911 375.186187,295.6239 C368.620432,288.023814 363.377266,281.713029 357.844029,275.667924 C355.623597,273.242291 355.723741,271.85638 358.280288,269.833294 C365.103885,264.432265 371.735252,258.790857 379.782446,252.138482 C370.749928,252.650291 363.44518,253.06434 354.574964,253.566948 M334.830504,155.762999 C338.913381,150.694358 340.477698,146.208836 341.286906,141.140195 C341.949928,136.988211 340.689496,132.590098 342.741871,128.694594 C347.471655,119.722399 352.386763,110.847964 357.07741,101.856216 C358.526619,99.0797928 360.520288,98.2401949 363.548777,98.2827499 C374.097266,98.4311172 384.652662,98.5047257 395.196547,98.2574469 C399.27482,98.1619858 400.475396,99.5260448 400.407482,103.52046 C400.193381,116.167334 400.098993,128.82686 400.414388,141.470283 C400.608921,149.296946 400.072518,156.601447 395.096403,163.202066 C392.359137,166.833039 390.478273,171.13109 388.413237,175.229018 C387.739856,176.565474 385.608058,178.307927 387.697266,179.666235 C389.778417,181.019943 391.063022,179.163627 392.086331,177.352165 C396.497266,169.535854 400.78964,161.643635 405.499856,154.010195 C409.133813,148.120358 410.508201,141.749766 410.79482,135.042184 C410.920288,132.103592 411.447482,129.281163 412.802302,126.750868 C417.229353,118.486005 421.81295,110.306251 426.356259,102.104645 C427.728345,99.6295568 429.469928,98.1769375 432.712518,98.249396 C443.067626,98.4805729 453.431942,98.4575702 463.788201,98.2758491 C467.325468,98.2137418 468.526043,99.4225327 468.387914,102.91779 C468.164604,108.590251 468.328058,114.277664 468.328058,119.959326 C469.998273,115.087358 471.32777,110.265997 471.640863,105.379077 C472.012662,99.5939027 475.080288,98.9463772 479.741007,99.7376694 C509.073957,104.72005 538.385036,109.841597 567.766331,114.526093 C586.973237,117.5889 592.983022,126.703712 589.415827,144.572195 C585.983309,161.767849 583.027338,179.065865 580.279712,196.384584 C579.700719,200.029358 578.191655,203.824801 579.216115,208.149305 C581.336403,205.997404 581.537842,203.614326 582.237698,201.49808 C588.360288,182.986672 594.36777,164.43731 600.476547,145.921302 C605.496403,130.705029 614.885755,125.984879 629.979856,130.88675 C652.893237,138.328117 675.798561,145.793637 698.75223,153.11079 C714.497842,158.129975 719.279424,167.531171 714.094964,183.378868 C705.58964,209.371897 697.164892,235.39023 688.794245,261.425814 C685.107338,272.896101 673.873957,278.845745 662.48518,275.12161 C652.316547,271.796573 642.150216,268.462334 631.995396,265.094742 C601.503309,254.985064 570.70964,245.976064 539.351942,238.878586 C530.242302,236.816396 526.88,230.67008 528.454676,221.618525 C529.76,214.11275 530.989353,206.589723 532.49036,199.120753 C533.114245,196.016541 532.061007,195.132088 529.10964,194.744492 C523.631655,194.025659 518.203165,192.906578 512.773525,191.853055 C506.008633,190.539602 505.016403,191.366549 503.956259,198.337511 C502.49554,207.946881 500.808058,217.524047 499.160863,227.104664 C498.550791,230.650527 497.191367,231.969731 492.901295,231.066876 C480.962302,228.554983 468.886331,226.567551 456.781583,225.037873 C452.341871,224.476608 451.745612,222.567385 452.322302,219.09398 C454.073094,208.565653 456.067914,198.07298 457.550504,187.508999 C458.123741,183.423723 460.08518,179.301643 458.774101,174.786216 C456.017266,175.890345 455.539568,178.103203 454.536978,179.87901 C445.51482,195.877375 436.442014,211.849286 427.566043,227.92931 C425.069353,232.452787 421.928058,234.409165 416.541007,234.096329 C407.937842,233.597171 399.282878,233.946812 390.650935,233.976715 C388.950791,233.982466 387.099856,233.556916 385.648345,234.735803 C384.81036,235.415533 383.766331,236.434551 383.71223,237.354659 C383.618993,238.924592 385.223597,238.745171 386.306763,238.73942 C392.203741,238.709517 398.035108,240.925825 403.979281,239.25583 C404.977266,238.976348 405.928058,239.097112 406.535827,239.990766 C407.28518,241.092594 406.379281,241.648109 405.667914,242.304836 C404.603165,243.28705 402.630216,244.018535 403.338129,245.798943 C404.046043,247.5782 406.036259,246.63164 407.465899,246.80301 C420.195683,248.328088 433.026763,247.862283 445.808345,248.757088 C467.158561,250.251112 488.349928,252.679045 509.51482,255.775206 C543.821583,260.794391 577.314532,269.227173 610.365468,279.40356 C631.198849,285.817857 651.894101,292.770417 671.971223,301.364219 C675.310504,302.793836 677.099281,302.371736 678.113381,298.525688 C679.181583,294.478366 681.149928,290.673723 682.362014,286.654005 C683.316259,283.487686 684.633094,282.247841 688.047194,283.586597 C693.032518,285.540675 698.382734,286.667806 703.176978,288.976125 C707.802014,291.202785 709.522878,289.989393 710.942158,285.421061 C715.141295,271.919637 719.692662,258.527476 724.122014,245.097361 C731.188489,223.672664 738.264173,202.251417 745.343309,180.831321 C746.291799,177.961736 745.609209,176.161777 742.473669,175.16231 C737.372086,173.536021 732.456978,171.29786 727.319712,169.818787 C722.946763,168.55824 721.959137,166.41209 723.450935,162.209501 C725.108489,157.539956 725.961439,152.585179 727.631655,147.922535 C728.83223,144.572195 727.903309,143.228838 724.736691,141.967141 C696.440863,130.695828 667.485468,121.349838 638.113381,113.459919 C594.012086,101.614688 549.286906,92.9587794 503.856115,87.5922539 C474.594532,84.1361011 445.285755,82.3246399 415.910216,81.2251118 C399.852662,80.6235917 383.762878,81.3194228 367.675396,81.9174925 C348.173813,82.6420769 328.69295,83.7082512 309.355971,85.9280099 C279.991942,89.2979027 250.710791,93.4337847 221.705899,99.3627257 C171.574101,109.61042 122.538129,123.524742 74.8143885,142.022348 C71.4854676,143.312798 70.9479137,144.856278 72.1484892,148.057101 C73.8233094,152.521921 74.9191367,157.199517 76.3879137,161.745997 C77.731223,165.908332 77.0566906,168.580093 72.2417266,169.873994 C67.2702158,171.208149 62.5784173,173.557873 57.6368345,175.039246 C53.8555396,176.174428 53.5044604,178.108954 54.6267626,181.498399 C65.2604317,213.627393 75.7720863,245.797793 86.3470504,277.94749 C90.5841727,290.830141 90.6152518,290.82094 103.15741,286.576946 C115.58446,282.373206 115.58446,282.373206 120.233669,294.341501 C123.681151,303.214785 123.636259,303.102072 132.48,299.559659 C170.013237,284.525106 208.465036,272.440648 247.998849,263.857198 C256.349928,262.044586 264.686043,260.162967 273.477986,258.21349 C269.766906,254.230576 264.83223,252.569782 261.507914,248.039404 C273.895827,247.882986 285.454964,246.489023 297.124604,246.590235 C308.546763,246.689147 308.55482,246.344106 308.374101,235.279817 C308.348777,233.748988 308.378705,232.198608 308.147338,230.693082 C306.169784,217.788578 304.637698,204.984136 314.058129,193.892243 C314.907626,192.892777 315.339281,191.54482 315.996547,190.376283 C316.528345,189.430873 317.787626,188.488913 316.699856,187.420439 C316.157698,186.887927 314.870791,186.792466 314.006331,186.955785 C299.004317,189.771313 284.017266,192.66275 269.02446,195.525434 C265.990216,196.103951 265.871655,197.630179 266.502446,200.483661 C268.765468,210.719854 270.448345,221.082562 272.628489,231.339458 C273.537842,235.614506 272.536403,237.743404 267.971223,238.488691 C257.050935,240.271399 246.152518,242.226627 235.319712,244.471688 C230.312518,245.509109 225.77036,246.769656 225.38705,237.596187 C221.633381,246.268198 216.166906,250.054439 209.035971,252.398412 C185.786475,260.036452 162.259568,266.803841 139.204604,275.065254 C125.128058,280.108592 113.815252,273.032967 110.009784,260.305584 C102.176691,234.110131 93.9913669,207.973334 84.5605755,182.323045 C80.4719424,171.201249 86.5991367,157.591712 98.981295,153.928535 C123.541871,146.661988 147.789353,138.343069 172.185324,130.518707 C183.26446,126.964793 194.055827,131.894267 197.748489,142.795238 C203.815827,160.709726 209.305324,178.818586 215.224173,196.78483 C216.414388,200.398551 216.750504,204.398718 219.609784,208.464442 C219.61554,202.245667 217.313381,197.528967 216.355683,192.547736 C212.184173,170.833206 208.451223,149.033565 204.174964,127.339736 C203.220719,122.497672 204.410935,120.93694 209.115396,120.098492 C240.481151,114.505391 271.606331,107.63564 303.071079,102.526745 C316.139281,100.405897 325.463022,106.599369 327.891799,119.774155 C330.060432,131.537726 332.413237,143.266793 334.830504,155.762999 M400.462734,311.800535 C384.86446,307.834873 369.98446,304.276358 355.259856,300.163479 C351.11482,299.005294 349.979856,300.156578 348.963453,303.805954 C345.220144,317.238369 341.212086,330.597176 337.053237,344.842736 C333.646043,340.025975 332.337266,335.132155 330.350504,330.609828 C326.733813,322.376018 323.21036,314.089302 320.050647,305.673771 C318.78446,302.301578 317.330647,301.958838 314.168633,303.027313 C300.976115,307.486383 287.699568,311.694723 272.762014,316.544838 C280.444317,305.074551 287.103309,294.970624 293.932662,284.98286 C300.146187,275.896801 300.142734,276.070471 291.006619,269.495155 C288.247482,267.510023 285.665612,267.084474 282.456403,267.646889 C227.301295,277.317216 174.082302,293.559409 122.397698,314.910498 C117.995971,316.72886 116.46964,315.805302 115.250647,311.644117 C114.01554,307.427726 112.069065,303.424109 110.711942,299.238771 C109.779568,296.362286 108.486906,295.79757 105.643741,296.956905 C100.157698,299.196216 94.4057554,300.799503 88.9646043,303.134275 C85.2753957,304.71801 83.8054676,304.191249 82.4955396,300.156578 C70.0776978,261.927273 57.4296403,223.771576 44.8552518,185.594026 C43.5971223,181.775581 42.661295,177.82142 41.0635971,174.152492 C39.5545324,170.688289 40.7988489,169.523203 43.971223,168.523736 C49.803741,166.685822 55.4831655,164.367152 61.2926619,162.447578 C64.0138129,161.549324 64.9001439,160.31638 63.9217266,157.419192 C62.2676259,152.524222 61.3341007,147.368171 59.4682014,142.566361 C57.8359712,138.367222 58.8903597,136.711029 63.0296403,135.067487 C100.293525,120.273313 138.387338,108.081892 177.285755,98.4242164 C239.597122,82.9560635 302.79482,73.590522 367.004317,71.3385595 C494.408058,66.8691386 617.316835,88.3812458 735.978129,134.768452 C740.901295,136.692627 741.945324,138.724913 740.108201,143.430112 C738.374676,147.871929 737.582734,152.674889 735.945899,157.161562 C734.777554,160.365836 735.911367,161.576927 738.775252,162.523487 C744.588201,164.446511 750.299856,166.673171 756.098993,168.635299 C758.852374,169.566908 759.951655,170.488165 758.81554,173.899463 C744.734388,216.199093 730.831655,258.55853 717.026763,300.949021 C715.949353,304.260257 714.67741,304.607597 711.686906,303.404557 C706.013237,301.121541 700.112806,299.40324 694.451799,297.093771 C691.476259,295.88038 689.979856,296.128809 689.003741,299.435444 C687.922878,303.095171 686.284892,306.589278 684.939281,310.173096 C682.433381,316.847324 682.457554,316.833522 675.579856,314.045597 C635.752518,297.904616 595.068777,284.441147 553.126906,274.906535 C499.813525,262.785273 445.844029,256.989747 391.149353,257.813243 C386.671655,257.879951 384.058705,260.171018 381.304173,262.741568 C377.292662,266.484104 369.933813,269.134013 369.934964,273.922021 C369.936115,278.0372 376.019568,282.191484 379.499281,286.256058 C386.22964,294.117224 393.023309,301.923184 399.773237,309.768249 C399.993094,310.023578 400.016115,310.449128 400.462734,311.800535" id="Fill-6" fill="#FBFDFB" sketch:type="MSShapeGroup"></path>
                <path d="M561.653755,53.4032542 C560.607424,59.1194204 559.655482,63.2023962 559.168576,67.3394284 C558.794475,70.5091979 557.270446,71.0601121 554.515914,70.4838949 C552.048,69.9663346 550.24541,69.5143319 551.020086,66.1133855 C552.415194,59.9808708 553.450014,53.7574954 554.397353,47.5352702 C554.766849,45.1084874 555.471309,44.6564847 558.037065,44.8324552 C564.334619,45.2614552 568.688,47.6008279 571.064978,53.8023507 C572.593612,57.7933158 575.147856,61.3920853 578.106129,66.7241067 C579.159367,60.8400209 580.125122,56.6638842 580.60282,52.432541 C581.073612,48.2771067 583.591022,49.746978 585.979511,49.8826938 C589.031022,50.0563641 589.193324,51.3629164 588.633899,53.9737206 C587.396489,59.7542944 586.485986,65.6096268 585.554763,71.4523078 C585.098935,74.3080906 584.249439,75.4593748 580.765122,75.1281362 C574.822101,74.5611201 570.969439,72.2700531 568.738647,66.5803399 C567.158216,62.5491201 564.648863,58.8813426 561.653755,53.4032542" id="Fill-8" fill="#FBFDFB" sketch:type="MSShapeGroup"></path>
                <path d="M246.615482,55.1995335 C247.138072,58.790252 247.559367,62.3982225 248.21318,65.9647882 C248.746129,68.8723271 248.360518,70.4756139 244.816345,70.931067 C241.627856,71.3416649 240.472173,70.7493458 240.09577,67.4691635 C239.420086,61.5793271 238.346129,55.7297453 237.276777,49.892815 C236.744978,46.9887265 237.688863,46.07437 240.629871,45.3808391 C246.369151,44.0282815 250.869871,44.7229625 254.867568,49.5397239 C257.708432,52.9648231 261.486273,55.6135818 266.014619,59.6505523 C265.084547,53.8814799 264.583827,49.7455979 263.709007,45.6902252 C263.048288,42.6320188 264.162532,41.6785576 267.069007,41.3024638 C269.795914,40.9505228 271.400518,41.1103914 271.75505,44.3825228 C272.289151,49.3269491 273.477065,54.2069678 273.882245,59.1559946 C274.068719,61.4298097 276.984403,64.9664718 273.436777,65.9532869 C269.366561,67.0850188 264.738072,69.5900107 260.439942,65.6738043 C256.222388,61.8312064 252.465266,57.4491957 247.545554,54.4047909 C247.359079,53.9665898 247.237065,53.2374048 246.597065,53.7181609 C246.363396,53.8941314 246.595914,54.6877239 246.615482,55.1995335" id="Fill-10" fill="#FBFDFB" sketch:type="MSShapeGroup"></path>
                <path d="M666.239655,87.8953142 C670.291453,87.9999764 669.84023,83.3775877 670.582676,80.2342713 C671.672748,75.6176332 667.406849,75.0931721 657.646849,72.9688745 C652.208,71.7853866 652.385266,76.8804804 651.67505,80.1146574 C650.839367,83.9158504 656.245986,86.932652 666.239655,87.8953142 M668.034187,95.1457592 C661.070158,93.9070649 654.240806,92.0691507 647.52541,89.7953357 C646.991309,89.6136145 646.49059,89.2858263 646.026705,88.9534375 C640.938935,85.2971614 642.435338,81.1739308 645.753899,70.4201775 C647.151309,65.8932499 650.85318,64.2324563 655.349295,65.2905796 C661.490302,66.735148 667.60023,68.3729389 673.610014,70.2856118 C678.53318,71.8520944 680.605122,75.374955 679.186993,80.5839121 C678.433036,83.3511346 677.706705,86.1252579 676.953899,88.8913303 C675.721094,93.4251587 672.902101,95.6966735 668.034187,95.1457592" id="Fill-12" fill="#FBFDFB" sketch:type="MSShapeGroup"></path>
                <path d="M136.104403,95.3133338 C134.606849,95.3133338 134.22354,95.3052828 133.84023,95.3144839 C131.304403,95.375441 129.328,94.5197413 128.411741,91.9710442 C127.978935,90.7668539 126.84282,89.1566662 128.516489,88.4573847 C130.541237,87.6108861 132.914763,86.0398029 135.047712,87.284248 C140.280518,90.339004 144.411741,86.1617172 149.062101,85.5728485 C150.035914,85.4497842 150.741525,84.5515295 150.502101,83.4520013 C150.179799,81.972929 148.871022,81.870567 147.772892,82.1005938 C143.660086,82.9631944 139.577209,83.9730121 135.48282,84.9207225 C128.606273,86.512508 126.732317,85.5878003 125.074763,79.7945751 C123.457496,74.1428164 124.828432,71.720634 131.117928,69.7309021 C135.307856,68.4047976 139.569151,67.2822668 143.837353,66.228744 C145.491453,65.8204464 147.251453,65.7686903 148.968863,65.7019826 C152.511885,65.5662668 154.93836,67.7837252 154.477928,70.8338807 C154.031309,73.7920255 149.889727,74.354441 147.989295,73.4389343 C143.006273,71.0386046 139.144403,74.2900335 134.811741,74.9421595 C133.685986,75.1123794 132.584403,75.9830308 133.051741,77.3539906 C133.504115,78.6823954 134.794475,78.6708941 135.970878,78.386811 C140.255194,77.3539906 144.503827,76.1521005 148.819223,75.2756984 C153.695194,74.2842828 157.459223,75.2400442 158.748432,81.0045161 C159.957065,86.4124464 158.047424,89.4441997 152.810014,90.7956072 C146.880806,92.3252855 140.984978,93.9883794 136.104403,95.3133338" id="Fill-14" fill="#FBFDFB" sketch:type="MSShapeGroup"></path>
                <path d="M512.637468,58.2036836 C517.87718,59.9806408 519.415022,56.6498525 519.899626,51.7042761 C520.417612,46.4217105 517.057612,45.739681 513.09905,45.533807 C511.763799,45.4636488 510.38941,45.4763003 509.10941,45.1508123 C503.668259,43.7706515 501.488115,45.997311 500.911424,51.4075416 C500.279482,57.3215308 504.046964,57.4330938 507.991712,57.7838847 C509.324662,57.9023485 510.65646,58.0242627 512.637468,58.2036836 M506.133871,38.0809383 C510.885525,38.6076997 515.652144,39.0309491 520.385381,39.6888257 C525.697612,40.4272118 528.383079,43.2553914 528.262216,48.9888097 C527.943367,64.1855308 525.836892,66.2488713 510.674878,64.8411072 C506.686388,64.4707641 502.700201,63.9244504 498.764662,63.1849142 C494.307683,62.3476166 492.356604,59.2940107 492.477468,54.9143003 C492.533871,52.8199062 492.872288,50.7312627 493.126676,48.6460697 C494.305381,38.9665416 496.280633,37.3793566 506.133871,38.0809383" id="Fill-16" fill="#FBFDFB" sketch:type="MSShapeGroup"></path>
                <path d="M408.712403,49.1957188 C408.712403,45.036834 408.883914,40.8675981 408.657151,36.7213649 C408.484489,33.5596464 409.843914,32.8879681 412.704345,32.8856678 C415.488806,32.8833676 416.887367,33.342271 416.758446,36.5971504 C416.516719,42.7147134 416.574273,48.8518287 416.742331,54.9739922 C416.816,57.6802576 415.981468,58.4508475 413.214273,58.6498206 C407.270101,59.0765204 402.497727,58.0667027 399.230964,52.3344346 C397.18895,48.7506169 394.117871,45.7510673 391.059453,41.930322 C389.26377,46.6941772 390.137439,50.8703139 390.174273,54.8992335 C390.204201,58.2334721 388.66636,58.5831129 385.983194,58.6072657 C383.289669,58.6314185 381.777151,58.2909788 381.929094,54.9521397 C382.207655,48.8368769 382.109813,42.6986115 381.961324,36.5752979 C381.896863,33.959893 382.551827,33.050137 385.415712,32.8569145 C391.137727,32.4704694 395.708662,33.4342818 398.965065,38.8364614 C401.301755,42.7124131 404.554705,46.0351504 407.399022,49.6051665 C407.837583,49.4683005 408.274993,49.3325847 408.712403,49.1957188" id="Fill-18" fill="#FBFDFB" sketch:type="MSShapeGroup"></path>
                <path d="M336.009209,49.9320346 C338.921439,50.4001391 341.456115,50.3633349 344.652662,49.6053965 C342.952518,46.8761284 341.54705,44.6207155 340.003453,42.1421767 C337.795683,44.5172035 337.200576,46.9393858 336.009209,49.9320346 M359.859568,59.3125279 C355.357698,59.1411579 351.738705,61.381619 348.841439,56.8719434 C347.219568,54.3473992 333.764604,55.7793161 331.980432,58.3567665 C331.088345,59.6437665 330.57036,60.9871231 328.674532,60.9825225 C326.785612,60.977922 324.418993,62.1717611 323.128633,60.8261043 C321.56777,59.1963643 323.698417,57.374552 324.413237,55.770115 C326.587626,50.8854957 328.919712,46.0641338 331.331223,41.2899273 C332.788489,38.4065413 333.253525,34.9354367 338.111079,34.8342249 C342.823597,34.7353134 345.787626,35.5864126 348.10705,40.1133402 C351.381871,46.5046351 355.578705,52.4232249 359.859568,59.3125279" id="Fill-20" fill="#FBFDFB" sketch:type="MSShapeGroup"></path>
                <path d="M202.179683,68.1490078 C200.432345,65.3001257 198.868029,63.114871 196.060547,61.2539542 C195.415942,64.290308 193.133353,67.2024475 194.633209,69.094418 C196.070906,70.9093295 199.147741,68.9989568 202.179683,68.1490078 M218.564144,75.0038067 C214.365007,76.1493402 211.023424,78.1827772 207.273209,74.1883617 C205.065439,71.8363375 192.584288,76.3034582 190.93364,79.4651767 C189.019396,83.131804 185.49364,81.8252517 181.705439,83.0696968 C184.326446,74.0089408 186.561842,65.8119354 189.103424,57.709241 C190.200403,54.208233 198.788604,52.1092383 201.273784,54.7717987 C206.086446,59.9243992 210.587165,65.371434 215.18918,70.7195574 C216.286158,71.9927558 217.274935,73.359115 218.564144,75.0038067" id="Fill-22" fill="#FBFDFB" sketch:type="MSShapeGroup"></path>
                <path d="M455.648,34.4256973 C459.464978,34.6246705 463.281957,34.9743113 467.097784,34.9731611 C469.755626,34.972011 470.873324,35.7172979 470.684547,38.6029842 C470.514187,41.2045874 469.457496,41.6531397 467.085122,41.6117349 C459.511022,41.4817697 459.509871,41.5864319 459.119655,49.3406357 C459.013755,51.4396303 458.705266,53.5512764 458.842245,55.633019 C459.075914,59.176582 457.64282,60.1357938 454.151597,60.0161799 C450.150446,59.8781638 450.551022,57.6814078 450.867568,55.0556517 C451.049439,53.5432255 450.999942,52.0020458 451.052892,50.4746678 C451.348719,41.9613756 451.369439,41.8452121 443.205986,40.4247965 C440.779511,40.0026973 440.658647,38.8307107 440.728863,36.8915847 C440.801381,34.8730995 441.168576,33.4756866 443.61577,33.8494802 C443.991022,33.9069869 444.378935,33.9000861 444.762245,33.9012362 C448.391597,33.9046866 452.02095,33.9023863 455.650302,33.9023863 C455.649151,34.0772067 455.649151,34.2508769 455.648,34.4256973" id="Fill-24" fill="#FBFDFB" sketch:type="MSShapeGroup"></path>
                <path d="M609.596432,78.6981523 C611.179165,71.3234928 612.639885,64.8102836 613.955568,58.2694713 C614.645065,54.8420718 616.830964,56.1566751 618.799309,56.4936643 C620.814849,56.8375544 622.452835,57.1216375 621.755281,60.0372273 C620.204777,66.5239834 618.90636,73.0751469 617.649381,79.6274606 C617.087655,82.556852 615.44046,82.0151389 613.456,81.4170692 C611.561324,80.8466027 608.839022,81.295155 609.596432,78.6981523" id="Fill-26" fill="#FBFDFB" sketch:type="MSShapeGroup"></path>
                <path d="M334.830504,155.762769 C332.413237,143.266563 330.060432,131.537496 327.891799,119.773925 C325.463022,106.599139 316.139281,100.405667 303.071079,102.527665 C271.606331,107.63541 240.481151,114.505161 209.115396,120.098262 C204.410935,120.93671 203.220719,122.497442 204.174964,127.339506 C208.451223,149.033335 212.184173,170.832976 216.355683,192.547506 C217.313381,197.528737 219.61554,202.246587 219.609784,208.464212 C216.750504,204.398488 216.414388,200.398321 215.224173,196.78575 C209.305324,178.818356 203.815827,160.709496 197.748489,142.795008 C194.055827,131.895187 183.26446,126.964563 172.185324,130.518477 C147.789353,138.342839 123.541871,146.661758 98.981295,153.928305 C86.5991367,157.591482 80.4719424,171.201018 84.5605755,182.322815 C93.9913669,207.974254 102.176691,234.109901 110.009784,260.306504 C113.815252,273.032737 125.128058,280.109512 139.204604,275.065024 C162.259568,266.803611 185.786475,260.037372 209.035971,252.398182 C216.166906,250.054209 221.633381,246.267968 225.38705,237.595957 C225.77036,246.769426 230.312518,245.508879 235.319712,244.471458 C246.152518,242.226397 257.050935,240.271169 267.971223,238.488461 C272.536403,237.743174 273.537842,235.614276 272.628489,231.339228 C270.448345,221.083482 268.765468,210.719624 266.502446,200.483431 C265.871655,197.629949 265.990216,196.104871 269.02446,195.525203 C284.017266,192.66252 299.004317,189.771083 314.006331,186.955555 C314.870791,186.793386 316.157698,186.887697 316.699856,187.420209 C317.787626,188.488683 316.528345,189.431793 315.996547,190.376053 C315.339281,191.54459 314.907626,192.892547 314.058129,193.892013 C304.637698,204.983906 306.169784,217.788348 308.147338,230.692852 C308.378705,232.198378 308.348777,233.748758 308.374101,235.279587 C308.55482,246.343876 308.546763,246.688917 297.124604,246.590005 C285.454964,246.488793 273.895827,247.882756 261.507914,248.039174 C264.83223,252.569552 269.766906,254.230346 273.477986,258.21326 C264.686043,260.162737 256.349928,262.044356 247.998849,263.856968 C208.465036,272.440418 170.013237,284.524876 132.48,299.559429 C123.636259,303.102992 123.681151,303.214555 120.233669,294.341271 C115.58446,282.372976 115.58446,282.372976 103.15741,286.576716 C90.6152518,290.82071 90.5841727,290.831061 86.3470504,277.94726 C75.7720863,245.797563 65.2604317,213.627163 54.6267626,181.498169 C53.5044604,178.108724 53.8555396,176.174198 57.6368345,175.040166 C62.5784173,173.557643 67.2702158,171.209069 72.2417266,169.873764 C77.0566906,168.579863 77.731223,165.908102 76.3879137,161.746917 C74.9191367,157.199287 73.8233094,152.521691 72.1484892,148.056871 C70.9479137,144.856048 71.4854676,143.312568 74.8143885,142.022118 C122.538129,123.524512 171.574101,109.61019 221.705899,99.3624957 C250.710791,93.4335547 279.991942,89.2988228 309.355971,85.9277799 C328.69295,83.7080212 348.173813,82.6429971 367.675396,81.9172625 C383.762878,81.3191928 399.852662,80.6233617 415.910216,81.2248818 C445.285755,82.3244099 474.593381,84.135871 503.856115,87.5920239 C549.286906,92.9585493 594.012086,101.614458 638.113381,113.459689 C667.485468,121.349608 696.440863,130.695598 724.736691,141.966911 C727.903309,143.228608 728.83223,144.571965 727.631655,147.922305 C725.961439,152.584949 725.108489,157.540876 723.450935,162.209271 C721.959137,166.41186 722.946763,168.55801 727.319712,169.818557 C732.456978,171.29763 737.372086,173.535791 742.473669,175.16208 C745.609209,176.161547 746.291799,177.961506 745.343309,180.831091 C738.264173,202.251187 731.188489,223.672434 724.122014,245.097131 C719.692662,258.527246 715.141295,271.919407 710.942158,285.420831 C709.522878,289.989163 707.802014,291.202555 703.176978,288.975895 C698.382734,286.667576 693.032518,285.540445 688.047194,283.586367 C684.633094,282.247611 683.316259,283.487455 682.362014,286.653775 C681.149928,290.673493 679.181583,294.478136 678.113381,298.525458 C677.099281,302.371506 675.310504,302.793606 671.971223,301.363989 C651.894101,292.770187 631.198849,285.817627 610.365468,279.403329 C577.314532,269.226943 543.821583,260.794161 509.51482,255.776126 C488.349928,252.679965 467.158561,250.250882 445.808345,248.756858 C433.026763,247.862053 420.195683,248.327858 407.465899,246.80278 C406.036259,246.63141 404.046043,247.57797 403.338129,245.798713 C402.630216,244.018305 404.603165,243.28682 405.667914,242.304606 C406.379281,241.647879 407.28518,241.092364 406.535827,239.990536 C405.928058,239.096882 404.977266,238.976118 403.979281,239.2556 C398.035108,240.925595 392.203741,238.709287 386.306763,238.73919 C385.223597,238.744941 383.618993,238.924362 383.71223,237.354429 C383.766331,236.434321 384.81036,235.415303 385.648345,234.735573 C387.099856,233.556686 388.950791,233.982236 390.650935,233.976485 C399.282878,233.947732 407.937842,233.596941 416.541007,234.096099 C421.928058,234.408935 425.069353,232.452557 427.566043,227.92908 C436.442014,211.849056 445.51482,195.878295 454.536978,179.87878 C455.539568,178.102973 456.017266,175.890115 458.774101,174.785986 C460.08518,179.301413 458.123741,183.423493 457.550504,187.508769 C456.067914,198.073901 454.073094,208.566573 452.322302,219.09375 C451.745612,222.567155 452.341871,224.476378 456.781583,225.037643 C468.886331,226.567321 480.962302,228.554753 492.901295,231.066646 C497.191367,231.969501 498.550791,230.651447 499.160863,227.104434 C500.808058,217.523817 502.49554,207.947801 503.956259,198.337281 C505.016403,191.366319 506.008633,190.539372 512.773525,191.852825 C518.203165,192.907498 523.631655,194.025429 529.10964,194.744262 C532.061007,195.131858 533.114245,196.016311 532.49036,199.121673 C530.989353,206.589493 529.76,214.11252 528.454676,221.618295 C526.88,230.66985 530.242302,236.816166 539.351942,238.878356 C570.70964,245.975834 601.503309,254.984834 631.995396,265.095662 C642.150216,268.462104 652.316547,271.796343 662.48518,275.12138 C673.873957,278.845514 685.107338,272.897021 688.794245,261.425584 C697.163741,235.39 705.58964,209.371667 714.094964,183.379788 C719.279424,167.530941 714.497842,158.129745 698.75223,153.11056 C675.798561,145.793407 652.893237,138.327887 629.979856,130.88652 C614.885755,125.984649 605.496403,130.705949 600.476547,145.921072 C594.36777,164.43708 588.360288,182.986442 582.237698,201.49785 C581.537842,203.614096 581.336403,205.998324 579.216115,208.149075 C578.191655,203.824571 579.700719,200.029128 580.279712,196.384354 C583.027338,179.065635 585.983309,161.767619 589.415827,144.571965 C592.983022,126.703482 586.973237,117.58867 567.766331,114.525863 C538.385036,109.841367 509.073957,104.71982 479.741007,99.7374394 C475.080288,98.9461472 472.012662,99.5936727 471.640863,105.378847 C471.32777,110.265766 469.998273,115.087128 468.328058,119.959096 C468.328058,114.277434 468.164604,108.590021 468.387914,102.91756 C468.526043,99.4223027 467.325468,98.2135118 463.788201,98.275619 C453.431942,98.4573402 443.067626,98.4803429 432.712518,98.249166 C429.469928,98.1778576 427.728345,99.6293268 426.356259,102.104415 C421.81295,110.306021 417.229353,118.485775 412.802302,126.750638 C411.447482,129.280933 410.920288,132.103362 410.79482,135.041954 C410.508201,141.749536 409.133813,148.120128 405.499856,154.009965 C400.78964,161.643405 396.497266,169.535624 392.086331,177.351935 C391.063022,179.163397 389.778417,181.019713 387.697266,179.666005 C385.608058,178.307697 387.739856,176.565244 388.413237,175.228788 C390.478273,171.13086 392.359137,166.832809 395.096403,163.202986 C400.072518,156.601217 400.608921,149.296716 400.414388,141.470053 C400.098993,128.82663 400.193381,116.167104 400.407482,103.52023 C400.475396,99.5258147 399.27482,98.1617558 395.196547,98.2572169 C384.652662,98.5044957 374.097266,98.4308871 363.548777,98.2825198 C360.520288,98.2399649 358.526619,99.0795627 357.07741,101.855986 C352.386763,110.847734 347.471655,119.722169 342.741871,128.694364 C340.689496,132.589868 341.949928,136.987981 341.286906,141.139965 C340.477698,146.208606 338.913381,150.694128 334.830504,155.762769" id="Fill-28" fill="#C6CFD4" sketch:type="MSShapeGroup"></path>
                <path d="M433.787396,136.213251 C427.091568,135.251739 429.78164,140.632066 428.926388,143.465996 C427.886964,146.912948 430.541353,146.327529 432.605237,146.59091 C439.45646,147.467312 437.006964,142.007626 437.743655,138.962071 C438.63459,135.282792 435.533583,136.485832 433.787396,136.213251 M360.350849,141.69479 C359.929554,144.277991 359.371281,146.353983 363.409266,146.710524 C368.651281,147.175178 368.777899,144.131924 368.989698,140.58031 C369.123223,138.332948 369.831137,136.262706 366.053295,136.070634 C361.561784,135.844058 359.662504,137.297827 360.350849,141.69479 M364.110273,127.948387 C373.489266,129.149127 373.850705,128.862744 378.049842,116.909401 C369.358043,115.329117 368.464806,116.036449 364.110273,127.948387 M432.274878,127.998993 C441.306245,128.793736 444.220777,126.132326 445.955453,116.525256 C436.236892,113.932854 436.488978,122.884347 432.274878,127.998993 M434.187971,156.376251 C428.249554,154.799417 425.029986,156.316444 422.420489,161.359782 C416.615597,172.577039 410.045237,183.39865 403.830561,194.406583 C402.662216,196.475674 401.583655,198.120366 398.679482,198.099664 C381.036892,197.975449 363.394302,198.007653 345.751712,198.06631 C342.460777,198.076661 342.18682,197.004736 343.74423,194.362878 C347.729266,187.59894 351.563511,180.746441 355.428835,173.913495 C358.690993,168.147873 361.912863,162.359248 365.827683,155.374484 C361.416748,156.560272 357.798906,154.008125 355.404662,158.270521 C347.244662,172.795564 338.982216,187.263101 330.718619,201.729487 C329.303942,204.204575 329.862216,205.084428 332.721496,205.051074 C340.583367,204.956763 348.449842,205.139634 356.308259,204.964814 C359.846676,204.885454 360.647827,205.674446 359.106532,209.115647 C351.921496,225.157717 344.868835,241.261894 337.928978,257.413227 C336.520058,260.691109 335.409266,260.436929 333.21646,258.159664 C331.348259,256.218237 330.003799,253.530374 327.246964,252.566562 C325.518043,256.173382 329.261353,260.762417 325.667683,262.816556 C322.87977,264.409492 318.800345,263.748165 314.564374,264.159913 C318.007252,266.932886 322.288115,268.696042 323.18941,271.531122 C324.311712,275.058583 319.603799,277.802803 318.159194,281.290009 C318.064806,281.520036 318.269698,281.874277 318.366388,282.313629 C322.031424,282.179063 325.541065,278.597546 328.642072,280.061666 C331.798331,281.55109 331.63718,286.393154 333.675741,289.383503 C333.825381,289.603178 334.19718,289.672186 334.502216,289.829755 C336.680058,286.363251 335.64754,280.829956 338.940777,278.955237 C342.38941,276.991958 346.692144,280.935768 351.137612,280.545873 C348.703079,277.464664 344.50164,274.505369 344.468259,271.498918 C344.42682,267.848393 350.032576,266.353218 352.506245,263.224854 C352.680058,263.005178 352.529266,262.530173 352.529266,261.955106 C349.062216,262.216186 345.657324,262.539374 342.244374,262.698092 C340.804374,262.7648 338.926964,263.580245 338.011856,262.086221 C337.033439,260.489835 338.800345,259.310948 339.587683,258.120559 C350.673727,241.356205 361.862216,224.658559 372.88495,207.85395 C374.364086,205.598538 376.027396,204.941811 378.554014,204.979765 C386.606964,205.098229 394.662216,205.028071 402.716317,205.02232 C404.796317,205.02117 406.861353,205.329406 408.188547,202.933677 C416.712288,187.555235 425.323511,172.226248 434.187971,156.376251 M354.574734,253.567178 C363.44495,253.06457 370.749698,252.650521 379.782216,252.137562 C371.735022,258.791087 365.103655,264.432495 358.280058,269.832374 C355.723511,271.85661 355.623367,273.241371 357.843799,275.668154 C363.377036,281.713259 368.620201,288.022894 375.185957,295.62413 C365.223367,293.142141 356.89646,291.347932 348.759482,288.919999 C344.750273,287.723859 343.461065,288.775082 342.504518,292.588926 C340.500489,300.568556 337.993439,308.422822 335.269986,317.787213 C331.756892,309.556854 328.445237,302.57669 325.820777,295.346948 C324.29905,291.153559 322.568978,290.223101 318.335309,291.85169 C311.432288,294.5062 304.267971,296.477529 295.662504,299.234401 C301.165813,290.997141 305.64236,283.985924 310.466532,277.223135 C312.532719,274.325948 312.145957,272.827323 309.24754,270.91465 C302.768115,266.638452 296.513151,262.021814 290.167252,257.543192 C290.281209,256.851961 290.395165,256.161881 290.507971,255.47065 C298.074014,255.47065 305.643511,255.331484 313.203799,255.522406 C317.768978,255.63742 319.595741,254.276811 318.906245,249.307082 C317.969266,242.559245 317.832288,235.699846 317.231424,227.175052 C322.79459,233.178752 327.34941,237.918454 331.690129,242.845629 C334.190273,245.68416 335.362072,245.25516 336.539626,241.807058 C338.209842,236.916688 340.038906,232.053921 342.208691,227.369425 C344.060777,223.372709 342.414734,222.718283 338.930417,223.003516 C337.406388,223.127731 335.862791,223.024218 334.328403,223.024218 C323.249266,223.024218 323.390849,222.967862 319.390849,212.865084 C318.177612,209.802277 318.617324,207.514661 320.156317,204.814146 C329.542216,188.338476 338.704806,171.736291 348.152863,155.296275 C350.322647,151.520385 351.911137,147.651334 351.782216,143.405039 C351.393151,130.651202 359.182504,121.198251 364.494734,110.719379 C365.535309,108.66524 367.161784,108.878015 368.858475,108.873414 C374.22941,108.861913 379.609554,109.075838 384.966676,108.802106 C388.700777,108.611184 389.427108,110.204119 389.379914,113.536058 C389.217612,125.032798 389.24754,136.534138 389.367252,148.032028 C389.39718,150.864808 388.532719,153.220283 387.168691,155.59761 C381.163511,166.061529 375.304518,176.609409 369.245237,187.042275 C367.503655,190.040674 367.395453,191.390932 371.501353,191.283969 C378.78423,191.094197 386.080921,191.065444 393.361496,191.29317 C396.172432,191.38058 397.459338,190.121184 398.669122,187.94628 C405.27977,176.068846 411.934158,164.214414 418.673727,152.410588 C420.369266,149.439792 420.840058,146.150409 420.795165,143.003642 C420.613295,130.206101 428.868835,121.015379 434.18682,110.571012 C434.50682,109.943039 435.22164,109.072387 435.762647,109.065487 C442.658763,108.976926 449.559482,108.907918 456.449842,109.125294 C458.160345,109.17935 457.847252,111.134578 457.849554,112.418127 C457.86682,125.067302 457.833439,137.716476 457.876029,150.36565 C457.884086,152.42439 456.904518,154.015025 455.960633,155.68042 C443.975597,176.844036 431.930705,197.975449 420.090705,219.221875 C418.44236,222.17887 416.561496,223.159934 413.302791,223.089776 C404.292144,222.897704 395.269986,223.177186 386.260489,222.944859 C382.850993,222.857449 380.608691,223.98228 378.425094,226.530977 C370.959194,235.242092 363.263079,243.757685 354.574734,253.567178" id="Fill-30" fill="#070607" sketch:type="MSShapeGroup"></path>
                <path d="M668.031309,265.372614 C667.203683,265.158689 665.520806,264.813649 663.895482,264.289188 C640.038216,256.58329 616.182101,248.869341 592.339799,241.117437 C585.196201,238.795317 582.835338,234.53177 584.976345,227.514802 C586.871022,221.302928 589.211165,215.22562 591.051741,208.999944 C591.820662,206.39489 592.784115,205.559893 595.460374,206.48 C601.434475,208.53529 607.444259,210.51122 613.518504,212.243322 C616.598791,213.122024 617.025842,214.71266 615.781525,217.270558 C613.539223,221.881445 615.169151,224.205866 619.947281,225.651585 C630.754763,228.921416 641.467856,232.512134 652.157928,236.150008 C656.353612,237.577325 658.308144,236.41914 659.709007,232.138341 C663.513324,220.510486 663.709007,220.557641 652.208576,216.824306 C637.099511,211.917834 621.981237,207.038965 606.866417,202.149746 C597.489727,199.117992 595.469583,195.462866 598.41059,186.335402 C602.572892,173.420547 606.811165,160.529845 611.106993,147.658695 C613.597928,140.190874 617.630158,138.164338 625.291741,140.624475 C649.169727,148.291268 673.030446,156.013268 696.873899,163.788175 C705.101813,166.470287 707.003396,170.376142 704.403108,178.654807 C702.682245,184.136346 700.854331,189.584531 699.204835,195.086772 C698.429007,197.675724 697.617496,198.953523 694.419799,197.707928 C688.724259,195.488169 682.83764,193.720413 676.949871,192.049268 C673.966273,191.20277 672.561957,190.141196 674.271309,186.965676 C676.504403,182.815992 674.661525,180.699746 670.551022,179.417346 C659.580086,175.995697 648.643683,172.457885 637.744115,168.81541 C633.502388,167.398445 631.536345,168.740652 630.19764,172.970845 C626.705266,184.00063 626.524547,183.968427 637.405698,187.52004 C653.051165,192.626636 668.720806,197.658472 684.355914,202.796121 C692.530878,205.481684 694.399079,209.389839 691.705554,217.694957 C687.456921,230.792684 683.149583,243.873158 678.984978,256.998488 C677.386129,262.038376 674.747856,265.550885 668.031309,265.372614" id="Fill-32" fill="#070607" sketch:type="MSShapeGroup"></path>
                <path d="M215.259281,231.511173 C215.171799,236.470551 212.974388,239.671374 208.706187,241.061886 C183.396259,249.304897 158.073669,257.508803 132.703885,265.566642 C127.625324,267.17913 123.17295,264.783401 121.281727,259.585945 C118.861007,252.93587 116.964029,246.096023 114.603165,239.421795 C113.585612,236.544159 114.857554,235.773569 117.235683,235.050135 C122.905899,233.327234 128.587626,231.592832 134.11741,229.478886 C137.368058,228.235591 139.159137,228.760052 139.793381,232.239208 C140.732662,237.394108 143.498705,237.951923 148.126043,236.309532 C158.583597,232.596899 169.163165,229.212055 179.783022,225.984779 C184.352806,224.596567 185.309353,222.333103 183.830216,217.891285 C179.586187,205.140899 180.31482,206.579717 168.883453,210.240594 C153.383022,215.204572 137.92518,220.296216 122.42705,225.265945 C114.242878,227.890551 110.301583,225.845612 107.598849,217.638256 C103.347914,204.733752 99.1130935,191.822347 94.9703597,178.883339 C92.4368345,170.971567 94.5122302,166.724122 102.194532,164.227181 C126.049496,156.474127 149.922878,148.77743 173.811223,141.129039 C181.937842,138.526285 185.930935,140.700039 188.629065,148.882092 C190.424748,154.325677 192.152518,159.792264 194.069065,165.192143 C195.016403,167.860454 194.715971,169.28547 191.618417,170.13772 C185.713381,171.761709 179.882014,173.701985 174.123165,175.795229 C171.300719,176.821149 169.739856,176.372596 169.173525,173.346594 C168.254964,168.442422 165.541871,167.952465 161.172374,169.471792 C150.498417,173.183275 139.725468,176.626776 128.913381,179.915009 C124.617554,181.221561 123.640288,183.196342 125.105612,187.510494 C129.164317,199.454636 127.808345,199.003784 139.986763,195.028921 C155.816403,189.863669 171.66446,184.751323 187.536691,179.714886 C193.962014,177.675698 198.439712,179.525114 200.481727,185.50006 C205.42446,199.971047 210.056403,214.547846 214.788489,229.09014 C215.080863,229.990695 215.155683,230.962559 215.259281,231.511173" id="Fill-34" fill="#070607" sketch:type="MSShapeGroup"></path>
                <path d="M551.306935,150.829384 C552.036719,146.924679 549.757583,145.90106 546.463194,145.38465 C536.618014,143.84347 526.80046,142.12632 516.974849,140.463226 C503.435856,138.172159 503.646504,138.205513 501.163626,151.424003 C500.434993,155.302255 501.793266,156.011888 504.966791,156.500695 C515.952691,158.193692 526.925928,159.97295 537.873842,161.892524 C550.335424,164.078928 549.293698,164.86447 551.306935,150.829384 M579.964201,137.758111 C578.084489,149.050127 577.428374,161.805113 573.422619,173.405365 C571.369094,179.351558 571.510676,184.639875 570.844201,190.34339 C569.579165,201.163851 567.447367,211.894601 565.363914,222.602349 C564.753842,225.734164 566.463194,230.276044 563.626935,231.670006 C561.23154,232.847743 557.358158,231.061585 554.147799,230.533674 C551.500317,230.100073 548.859741,229.623918 546.229525,229.104057 C539.487655,227.771052 538.668086,226.757784 539.76046,219.753467 C541.176288,210.674309 542.696863,201.605502 544.474129,192.591902 C545.351252,188.140883 543.856,186.320221 539.464633,185.62669 C526.791252,183.622006 514.144345,181.4241 501.533122,179.057124 C497.52046,178.303786 496.317583,179.606888 495.757007,183.502392 C494.229525,194.114679 492.052835,204.632655 490.473554,215.239191 C489.955568,218.719497 488.77341,219.914486 485.316719,219.09329 C481.96823,218.297398 478.534561,217.864947 475.148086,217.218572 C463.875568,215.066671 463.884777,215.05862 465.864633,203.426164 C470.84305,174.170205 475.882475,144.923446 480.703194,115.639883 C481.304058,111.984757 482.167367,111.001392 486.113266,111.697223 C514.227223,116.654301 542.397583,121.283591 570.54377,126.054347 C577.431827,127.220583 580.278446,130.516867 579.964201,137.758111" id="Fill-36" fill="#070607" sketch:type="MSShapeGroup"></path>
                <path d="M296.709871,151.113237 C296.28282,148.934883 295.753324,146.127406 295.178935,143.32913 C294.489439,139.969588 292.757065,138.544572 289.06095,139.274908 C275.76023,141.901814 262.414619,144.302143 249.086273,146.795634 C247.81318,147.033712 245.873612,147.02221 246.126849,148.752012 C246.866993,153.827554 247.852317,158.880092 249.049439,163.867074 C249.384403,165.266787 250.97059,164.416838 252.050302,164.215564 C265.565122,161.695621 279.083396,159.186028 292.603971,156.693688 C295.384978,156.180728 297.271597,154.974237 296.709871,151.113237 M325.692892,164.440991 C325.738935,171.208379 322.779511,174.419554 316.445122,175.639846 C297.094331,179.370881 277.76541,183.237631 258.350158,186.599473 C253.806849,187.385015 253.304978,188.918143 254.155626,192.92061 C256.42095,203.581202 258.123396,214.359109 260.392173,225.018551 C261.04023,228.067556 260.468144,229.047471 257.446561,229.512125 C251.588719,230.41268 245.774619,231.62032 239.974331,232.849814 C236.906705,233.499639 235.208863,233.268462 234.50095,229.433916 C228.595914,197.462489 222.498647,165.525567 216.288576,133.612798 C215.619799,130.179647 216.85836,129.327398 219.803971,128.776484 C248.396777,123.429511 276.970014,117.976725 305.557065,112.591798 C310.773755,111.609583 315.342388,113.478551 316.488863,118.549492 C320.030734,134.214318 322.857784,150.041312 325.692892,164.440991" id="Fill-38" fill="#070607" sketch:type="MSShapeGroup"></path>
                <path d="M668.666245,187.232507 C668.720345,189.873215 667.325237,190.869231 665.004662,190.114743 C656.089554,187.217555 647.223942,184.1697 638.321496,181.233408 C636.066532,180.489271 636.056173,178.837679 636.521209,177.089475 C637.120921,174.835212 638.732432,175.58625 640.213871,176.058955 C648.58682,178.735317 656.972432,181.376024 665.336173,184.08344 C666.908547,184.592949 668.887252,184.844829 668.666245,187.232507" id="Fill-40" fill="#C6CFD4" sketch:type="MSShapeGroup"></path>
                <path d="M135.617151,191.109494 C133.422043,191.265912 132.653122,190.30555 132.350388,188.841429 C132.04305,187.354306 132.414849,186.231775 134.022906,185.714215 C143.282187,182.737668 152.531108,179.727767 161.792691,176.758121 C163.392691,176.245161 164.258302,177.17332 164.902906,178.520127 C165.602763,179.979647 165.432403,181.333354 163.906072,181.845164 C154.334849,185.054038 144.723338,188.142148 135.617151,191.109494" id="Fill-42" fill="#C6CFD4" sketch:type="MSShapeGroup"></path>
                <path d="M652.25554,228.31242 C643.064173,225.409482 633.967194,222.553699 624.88518,219.654211 C623.101007,219.084894 622.72,217.980766 623.345036,216.099146 C624.041439,214.004752 624.841439,213.47454 627.043453,214.235929 C635.698417,217.229728 644.432806,219.99465 653.117698,222.901039 C654.808633,223.466905 656.36259,224.36861 655.841151,226.59642 C655.356547,228.667811 653.669065,228.358425 652.25554,228.31242" id="Fill-44" fill="#C6CFD4" sketch:type="MSShapeGroup"></path>
                <path d="M149.676777,229.236783 C146.82095,229.719839 145.953036,228.559354 145.382101,226.999772 C144.69836,225.131954 146.178647,224.541935 147.363108,224.141689 C156.399079,221.084632 165.478791,218.157541 174.518216,215.111986 C176.630446,214.400053 177.262388,215.696254 177.865554,217.166126 C178.476777,218.656699 178.092317,219.702171 176.47505,220.303691 C167.346993,223.694287 157.682532,225.452842 149.676777,229.236783" id="Fill-46" fill="#C6CFD4" sketch:type="MSShapeGroup"></path>
                <path d="M578.302964,212.544887 C578.114187,212.218249 577.806849,211.916914 577.803396,211.612128 C577.799942,211.302742 578.096921,210.991056 578.261525,210.67937 C578.436489,210.981855 578.742676,211.28089 578.750734,211.587976 C578.75764,211.898512 578.469871,212.215949 578.302964,212.544887" id="Fill-48" fill="#C6CFD4" sketch:type="MSShapeGroup"></path>
                <path d="M459.84,171.583093 C459.895252,171.72571 459.950504,171.869476 460.005755,172.012093 L459.362302,172.145509 C459.393381,171.98794 459.384173,171.802769 459.46705,171.682005 C459.523453,171.601495 459.711079,171.612997 459.84,171.583093" id="Fill-50" fill="#C6CFD4" sketch:type="MSShapeGroup"></path>
                <path d="M246.615482,55.1995335 C246.595914,54.6877239 246.363396,53.8941314 246.597065,53.7181609 C247.237065,53.2374048 247.359079,53.9665898 247.545554,54.4047909 C247.234763,54.6704718 246.925122,54.9350027 246.615482,55.1995335" id="Fill-52" fill="#070607" sketch:type="MSShapeGroup"></path>
                <path d="M666.239655,87.8953142 C656.245986,86.932652 650.839367,83.9158504 651.67505,80.1146574 C652.385266,76.8804804 652.208,71.7853866 657.646849,72.9688745 C667.406849,75.0931721 671.672748,75.6176332 670.582676,80.2342713 C669.84023,83.3775877 670.291453,87.9999764 666.239655,87.8953142" id="Fill-54" fill="#070607" sketch:type="MSShapeGroup"></path>
                <path d="M512.637468,58.2036836 C510.65646,58.0242627 509.324662,57.9023485 507.991712,57.7838847 C504.046964,57.4330938 500.279482,57.3215308 500.911424,51.4075416 C501.488115,45.997311 503.668259,43.7706515 509.10941,45.1508123 C510.38941,45.4763003 511.763799,45.4636488 513.09905,45.533807 C517.057612,45.739681 520.417612,46.4217105 519.899626,51.7042761 C519.415022,56.6498525 517.87718,59.9806408 512.637468,58.2036836" id="Fill-56" fill="#070607" sketch:type="MSShapeGroup"></path>
                <path d="M336.009209,49.9320346 C337.200576,46.9393858 337.795683,44.5172035 340.003453,42.1421767 C341.54705,44.6207155 342.952518,46.8761284 344.652662,49.6053965 C341.456115,50.3633349 338.921439,50.4001391 336.009209,49.9320346" id="Fill-58" fill="#070607" sketch:type="MSShapeGroup"></path>
                <path d="M202.179683,68.1490078 C199.147741,68.9989568 196.070906,70.9093295 194.633209,69.094418 C193.133353,67.2024475 195.415942,64.290308 196.060547,61.2539542 C198.868029,63.114871 200.432345,65.3001257 202.179683,68.1490078" id="Fill-60" fill="#070607" sketch:type="MSShapeGroup"></path>
                <path d="M337.347108,270.746961 C337.149122,267.441475 335.337324,265.778382 332.223655,265.876143 C329.378187,265.965853 327.613583,267.624347 327.650417,270.56984 C327.68495,273.40377 329.218187,275.271588 332.140777,275.388902 C335.26941,275.514266 337.054734,273.836221 337.347108,270.746961 M434.188547,156.376481 C425.324086,172.225328 416.712863,187.555465 408.189122,202.933907 C406.861928,205.329636 404.796892,205.0214 402.716892,205.02255 C394.66164,205.027151 386.606388,205.098459 378.55459,204.978845 C376.02682,204.942041 374.364662,205.598768 372.885525,207.85303 C361.86164,224.658789 350.673151,241.356435 339.587108,258.120789 C338.800921,259.311178 337.034014,260.490065 338.011281,262.085301 C338.92754,263.580475 340.80495,262.76503 342.243799,262.698323 C345.656748,262.539604 349.06164,262.216416 352.528691,261.954186 C352.528691,262.530403 352.679482,263.005408 352.50682,263.225084 C350.032,266.353449 344.427396,267.848623 344.467683,271.499148 C344.502216,274.505599 348.703655,277.464894 351.138187,280.546103 C346.692719,280.934848 342.389986,276.991038 338.941353,278.954317 C335.648115,280.829036 336.679482,286.363481 334.50164,289.829985 C334.197755,289.672416 333.825957,289.603408 333.676317,289.382583 C331.637755,286.393384 331.797755,281.55132 328.642647,280.061896 C325.54164,278.597776 322.030849,282.179293 318.366964,282.312709 C318.269122,281.874508 318.06423,281.520266 318.15977,281.290239 C319.604374,277.803033 324.311137,275.057663 323.189986,271.531352 C322.28754,268.696272 318.007827,266.933116 314.563799,264.160143 C318.800921,263.748395 322.879194,264.409722 325.667108,262.816786 C329.260777,260.761497 325.518619,256.173612 327.246388,252.566792 C330.004374,253.530604 331.348835,256.218467 333.217036,258.159894 C335.408691,260.437159 336.520633,260.691339 337.929554,257.412306 C344.86941,241.262124 351.920921,225.157947 359.107108,209.114727 C360.648403,205.674676 359.846101,204.885684 356.308835,204.965044 C348.449266,205.139864 340.583942,204.956993 332.722072,205.050154 C329.86164,205.084658 329.304518,204.204805 330.719194,201.729717 C338.982791,187.263331 347.245237,172.795794 355.404086,158.270751 C357.799482,154.008355 361.417324,156.560502 365.828259,155.374714 C361.912288,162.358328 358.690417,168.146953 355.428259,173.913725 C351.562935,180.746671 347.729842,187.59917 343.744806,194.361958 C342.187396,197.004966 342.460201,198.076891 345.751137,198.06539 C363.393727,198.007883 381.037468,197.975679 398.678906,198.099894 C401.583079,198.119446 402.66164,196.475904 403.829986,194.405663 C410.044662,183.39888 416.615022,172.577269 422.419914,161.358861 C425.02941,156.315524 428.250129,154.799647 434.188547,156.376481" id="Fill-62" fill="#C6CFD4" sketch:type="MSShapeGroup"></path>
                <path d="M432.274993,127.998763 C436.489094,122.885267 436.237007,113.932624 445.952115,116.521576 C444.220892,126.132096 441.305209,128.793506 432.274993,127.998763" id="Fill-64" fill="#C6CFD4" sketch:type="MSShapeGroup"></path>
                <path d="M364.109813,127.948042 C368.464345,116.036104 369.357583,115.329922 378.050532,116.910206 C373.851396,128.863549 373.489957,129.149932 364.109813,127.948042" id="Fill-66" fill="#C6CFD4" sketch:type="MSShapeGroup"></path>
                <path d="M360.350849,141.694445 C359.662504,137.297482 361.561784,135.843713 366.053295,136.071439 C369.831137,136.262361 369.123223,138.333753 368.989698,140.579965 C368.777899,144.131579 368.651281,147.174833 363.409266,146.711329 C359.371281,146.353638 359.929554,144.278796 360.350849,141.694445" id="Fill-68" fill="#C6CFD4" sketch:type="MSShapeGroup"></path>
                <path d="M433.787396,136.213251 C435.533583,136.485832 438.63459,135.282792 437.743655,138.962071 C437.006964,142.007626 439.45646,147.467312 432.605237,146.59091 C430.541353,146.327529 427.886964,146.912948 428.926388,143.465996 C429.78164,140.632066 427.091568,135.251739 433.787396,136.213251" id="Fill-70" fill="#C6CFD4" sketch:type="MSShapeGroup"></path>
                <path d="M512.261295,146.363414 C510.907626,147.44684 508.10705,143.819317 507.493525,147.862038 C506.968633,151.321642 509.446906,151.965717 512.077122,152.351012 C521.118849,153.675966 530.167482,154.962966 539.196547,156.376481 C540.950791,156.651363 542.670504,157.499012 543.110216,154.818049 C543.499281,152.444172 542.50705,151.494162 540.06446,151.113467 C530.84777,149.67695 521.671367,147.993154 512.261295,146.363414 M551.30705,150.829384 C549.293813,164.86447 550.33554,164.078928 537.873957,161.892524 C526.926043,159.97295 515.952806,158.193692 504.966906,156.500695 C501.793381,156.011888 500.435108,155.302255 501.163741,151.424003 C503.646619,138.205513 503.435971,138.172159 516.973813,140.463226 C526.800576,142.12632 536.618129,143.84347 546.463309,145.38465 C549.757698,145.90106 552.036835,146.924679 551.30705,150.829384" id="Fill-72" fill="#FBFDFB" sketch:type="MSShapeGroup"></path>
                <path d="M257.806158,157.133844 C266.187165,155.619117 275.195511,154.016981 284.191194,152.342386 C286.175655,151.973192 288.907165,151.934088 288.438676,148.920737 C287.995511,146.070705 285.343424,146.29268 283.332489,146.653823 C274.327597,148.272061 265.346878,150.037517 256.381122,151.86393 C254.791482,152.187117 252.754072,152.524107 253.118964,155.016447 C253.489612,157.536391 255.508604,156.970525 257.806158,157.133844 M296.710331,151.112892 C297.272058,154.973892 295.385439,156.180383 292.603281,156.693343 C279.082705,159.185683 265.565583,161.696426 252.049612,164.215219 C250.97105,164.416493 249.384863,165.266442 249.049899,163.867879 C247.852777,158.879747 246.867453,153.827209 246.126158,148.751667 C245.874072,147.021865 247.81364,147.033367 249.086734,146.795289 C262.413928,144.301798 275.75954,141.901469 289.06141,139.274562 C292.757525,138.544227 294.488748,139.969243 295.179396,143.329935 C295.753784,146.128211 296.283281,148.935688 296.710331,151.112892" id="Fill-74" fill="#FBFDFB" sketch:type="MSShapeGroup"></path>
                <path d="M337.347108,270.746961 C337.054734,273.836221 335.26941,275.514266 332.140777,275.388902 C329.218187,275.271588 327.68495,273.40377 327.650417,270.56984 C327.613583,267.624347 329.378187,265.965853 332.223655,265.876143 C335.337324,265.778382 337.149122,267.441475 337.347108,270.746961" id="Fill-76" fill="#070607" sketch:type="MSShapeGroup"></path>
                <path d="M512.261295,146.363414 C521.671367,147.993154 530.84777,149.67695 540.06446,151.113467 C542.50705,151.494162 543.499281,152.444172 543.110216,154.818049 C542.670504,157.499012 540.950791,156.651363 539.196547,156.376481 C530.167482,154.962966 521.118849,153.675966 512.077122,152.351012 C509.446906,151.965717 506.968633,151.321642 507.493525,147.862038 C508.10705,143.819317 510.907626,147.44684 512.261295,146.363414" id="Fill-78" fill="#C6CFD4" sketch:type="MSShapeGroup"></path>
                <path d="M257.806158,157.133844 C255.508604,156.970525 253.489612,157.536391 253.118964,155.016447 C252.754072,152.524107 254.791482,152.187117 256.381122,151.86393 C265.346878,150.037517 274.327597,148.272061 283.332489,146.653823 C285.343424,146.29268 287.995511,146.070705 288.438676,148.920737 C288.907165,151.934088 286.175655,151.973192 284.191194,152.342386 C275.195511,154.016981 266.187165,155.619117 257.806158,157.133844" id="Fill-80" fill="#C6CFD4" sketch:type="MSShapeGroup"></path>
            </g>
        </g>
    </g>
</svg>