<?xml version="1.0" encoding="UTF-8" standalone="no"?>
<svg width="800px" height="800px" viewBox="0 0 800 800" version="1.1" xmlns="http://www.w3.org/2000/svg" xmlns:xlink="http://www.w3.org/1999/xlink" xmlns:sketch="http://www.bohemiancoding.com/sketch/ns">
    <!-- Generator: Sketch 3.4.4 (17249) - http://www.bohemiancoding.com/sketch -->
    <title>suns</title>
    <desc>Created with Sketch.</desc>
    <defs>
        <path id="path-1" d="M0,0.845665962 L786.545751,0.845665962 L786.545751,800 L0,800"></path>
    </defs>
    <g id="Page-1" stroke="none" stroke-width="1" fill="none" fill-rule="evenodd" sketch:type="MSPage">
        <g id="suns" sketch:type="MSArtboardGroup">
            <g id="Page-1" sketch:type="MSLayerGroup" transform="translate(6.000000, 0.000000)">
                <g id="Group-3">
                    <mask id="mask-2" sketch:name="Clip 2" fill="white">
                        <use xlink:href="#path-1"></use>
                    </mask>
                    <g id="Clip-2"></g>
                    <path d="M277.725865,793.512896 L405.158655,793.512896 C450.384106,793.512896 495.609556,793.597463 540.835007,793.485835 C572.493668,793.408034 598.871376,772.662156 606.41487,742.077801 C610.104603,727.11797 613.5762,712.104017 617.125582,697.108668 C643.721427,584.758562 670.303745,472.403383 696.909736,360.054968 C724.099118,245.238901 751.308792,130.427907 778.511702,15.615222 C780.436045,7.49344609 780.442809,7.49175476 772.036912,7.49175476 C613.960054,7.49175476 455.883196,7.48668076 297.806337,7.50190275 C285.560209,7.50359408 273.310698,7.90613108 261.189702,9.73953488 C225.318792,15.1687104 199.326629,33.5433404 188.624372,69.0714588 C180.110252,97.3353066 173.522166,126.186047 166.328706,154.838901 C135.748895,276.657082 105.270543,398.502326 74.7346979,520.334038 C52.4610155,609.203383 30.2160798,698.081184 7.72595107,786.896406 C6.16855193,793.044397 7.88659485,793.629598 13.3484833,793.61945 C101.474277,793.468922 189.600071,793.512896 277.725865,793.512896 M781.594372,1.64143763 C787.397839,3.52727273 786.971711,7.88752643 785.884406,12.4913319 C779.233754,40.6266385 772.58141,68.761945 765.922303,96.8955603 C733.406312,234.277378 700.895393,371.660888 668.367565,509.041015 C649.890148,587.075687 631.590286,665.154334 612.786509,743.109514 C605.295436,774.167442 584.514895,792.041438 553.72202,798.879493 C552.996586,799.040169 552.362466,799.616913 551.68438,799.999154 L8.2214103,799.999154 C-0.000169098712,799.999154 -0.000169098712,799.999154 -0.000169098712,791.750529 L-0.000169098712,788.582664 C4.52322146,777.676956 6.34779657,766.02537 9.20725579,754.67315 C38.1129897,639.890909 66.8868266,525.07315 95.6775734,410.262156 C123.289702,300.153066 151.265393,190.135307 178.300895,79.8858351 C190.645101,29.5484144 224.992432,4.45581395 275.008449,1.8782241 C276.056861,1.97632135 277.106964,2.1589852 278.155376,2.1589852 C443.657359,2.13868922 609.157651,2.10655391 774.659633,2.05243129 C776.971213,2.05243129 779.282792,1.78350951 781.594372,1.64143763" id="Fill-1" fill="#6A747B" sketch:type="MSShapeGroup" mask="url(#mask-2)"></path>
                </g>
                <path d="M781.59471,1.6412685 C779.28313,1.78503171 776.971551,2.05226216 774.658281,2.05226216 C609.157989,2.10638478 443.657697,2.13852008 278.155714,2.15881607 C277.107302,2.15881607 276.057199,1.97615222 275.008787,1.87805497 C275.088264,1.53640592 275.155903,1.19306554 275.208324,0.846342495 L781.236221,0.846342495 C781.503397,1.04422833 781.623457,1.30976744 781.59471,1.6412685" id="Fill-4" fill="#B0B2B2" sketch:type="MSShapeGroup"></path>
                <path d="M523.404988,578.796448 C519.19443,575.330909 519.940155,572.088626 520.887108,568.442114 C523.946104,556.651839 526.633082,544.763467 529.514524,532.699197 L512.95807,532.699197 C519.385512,536.974884 516.764482,541.328372 515.837821,545.463679 C514.271967,552.443805 512.422027,559.359662 510.741185,566.314419 C507.316936,580.479323 507.330464,580.482706 523.404988,578.796448 L523.404988,578.796448 Z M380.048173,545.352051 C381.150696,541.44 381.598808,539.171924 382.429082,537.052685 C384.10316,532.780381 382.227855,532.103848 378.391005,532.242537 C371.424138,532.492854 364.443743,532.384609 357.470112,532.28482 C353.6637,532.229006 350.594559,532.250994 354.522722,537.005328 C355.755452,538.498774 354.691821,540.215476 354.29613,541.839154 C351.286173,554.196025 348.316799,566.561353 345.232439,579.356279 C353.756705,579.356279 361.567374,579.219281 369.367898,579.430698 C372.056567,579.503425 373.150636,578.458182 373.615658,576.08186 C374.129718,573.451839 374.735091,570.838732 375.316791,568.151205 C372.88346,567.889049 372.137735,569.776575 370.739288,570.547822 C366.76716,572.736406 362.057761,572.663679 358.674095,570.930063 C356.829228,569.9863 359.216902,565.140634 360.182456,562.229852 C361.516645,558.209556 365.17425,560.269598 367.742859,560.16981 C372.098842,559.998985 371.320988,556.648457 371.831666,554.283975 C372.584155,550.796448 369.626619,552.332178 368.116567,551.882283 C366.332576,551.351205 362.504181,553.365581 363.422387,549.372347 C364.149512,546.211247 362.539692,540.925835 368.317795,540.582495 C372.409984,540.338943 376.901245,539.449302 380.048173,545.352051 L380.048173,545.352051 Z M571.880516,578.520761 C583.987984,583.462833 585.555529,571.417167 591.798653,566.831966 C595.723434,580.545285 597.811803,581.850994 611.001503,577.867907 C603.772533,576.173192 604.186825,570.376998 602.044344,565.97277 C598.697881,559.09074 600.141984,553.861142 605.170979,548.492854 C609.543872,543.824778 613.113546,538.405751 617.170224,533.145708 C604.719486,528.519915 603.376842,540.925835 596.947709,545.421395 C594.541434,541.05945 596.009211,534.728795 592.023555,532.800677 C588.389623,531.045074 583.237185,532.428584 578.754379,532.428584 C578.406035,532.886934 578.057692,533.343594 577.709348,533.801945 C584.76922,536.240846 584.192593,542.615476 586.443297,547.606596 C589.399142,554.160507 587.868799,558.992643 583.232112,563.980381 C579.11625,568.404905 575.735967,573.514419 571.880516,578.520761 L571.880516,578.520761 Z M104.716576,532.313573 C106.547915,536.009133 108.514533,538.304271 107.433992,541.920338 C104.96346,550.184186 103.262327,558.676364 101.167194,567.055222 C97.6431768,581.157548 97.616121,581.150782 112.630396,578.686512 C108.156044,569.981226 110.685761,564.075095 120.187417,561.040846 C134.90746,556.340634 134.90746,556.340634 137.971529,541.849302 C138.013803,541.64296 138.083134,541.441691 138.120336,541.235349 C138.986121,536.418436 135.989692,532.418436 131.161924,532.3474 C122.735735,532.223932 114.306164,532.313573 104.716576,532.313573 L104.716576,532.313573 Z M278.284567,579.35797 C288.613117,579.356279 293.748645,577.061142 295.317881,571.171924 C297.965967,561.218436 300.392533,551.204059 302.741314,541.176152 C303.825237,536.543594 300.544722,532.481015 295.784593,532.338943 C291.577417,532.215476 287.356713,532.154588 283.15461,532.352474 C277.562516,532.612939 273.537967,535.770655 272.075263,540.888626 C269.247932,550.7863 267.046267,560.866638 264.753288,570.911459 C263.76237,575.248034 266.899151,579.107653 271.337992,579.335983 C273.647881,579.454376 275.967915,579.356279 278.284567,579.35797 L278.284567,579.35797 Z M459.999735,578.852262 C455.844979,575.38334 456.419915,572.076786 457.383778,568.453953 C459.769761,559.493277 461.949443,550.471712 464.003992,541.428161 C465.202902,536.154588 462.143906,532.430275 456.734439,532.337252 C450.824439,532.235772 444.902602,532.486089 439.001057,532.237463 C436.139906,532.117378 434.869975,533.040846 434.218945,535.790951 C430.831898,550.118224 427.307881,564.41167 423.826138,578.740634 C434.115795,580.247611 434.110722,580.24592 436.315769,571.219281 C438.514052,562.209556 440.927091,553.245497 442.854816,544.178266 C443.975941,538.897928 447.84661,540.416744 450.800765,540.653531 C455.002868,540.990106 452.559391,544.0937 452.170464,545.915264 C450.717906,552.719493 449.069194,559.486512 447.371443,566.236617 C443.813606,580.382918 443.781477,580.376152 459.999735,578.852262 L459.999735,578.852262 Z M197.957606,550.720338 C199.263048,545.380803 200.514379,540.496237 201.618593,535.577844 C201.884078,534.398985 203.126954,532.340634 200.429829,532.389683 C196.20067,532.464101 191.86667,531.638732 186.122387,533.401099 C191.616404,536.648457 189.840868,540.342326 188.926044,544.032812 C186.056439,555.621818 183.279838,567.232812 180.455889,578.877632 C190.693125,579.983763 190.679597,579.980381 192.935374,571.004482 C193.603314,568.352474 194.318602,565.70723 195.108293,563.089049 C196.440791,558.67129 200.857649,559.371501 203.520954,559.511882 C206.263735,559.657336 204.084052,562.958816 203.764456,564.694123 C202.891906,569.441691 201.576318,574.106385 200.363881,579.100888 L215.855014,579.100888 C211.620782,575.198985 212.865348,571.308922 213.954344,567.175307 C216.423185,557.807019 218.58934,548.357548 220.719984,538.906385 C221.183314,536.85649 223.55746,534.050571 221.085237,532.758393 C218.924155,531.628584 215.425503,531.647188 213.091941,532.585877 C209.456318,534.050571 210.12764,538.400677 209.687984,541.451839 C208.713975,548.227315 205.55352,551.533869 197.957606,550.720338 L197.957606,550.720338 Z M351.940585,508.396448 C427.608876,508.396448 503.285623,507.794334 578.943769,508.702579 C607.817374,509.049302 635.769391,487.134715 641.987151,458.488626 C655.327348,397.015476 670.074447,335.848457 684.233082,274.552896 C702.287752,196.389683 720.337348,118.224778 738.368344,40.0547992 C740.1591,32.2898943 740.088078,32.2645243 731.918919,32.2645243 C589.03558,32.262833 446.152241,32.2594503 303.268902,32.2763636 C295.032104,32.278055 286.822361,32.5977167 278.629529,33.7562791 C250.063683,37.801945 229.849623,52.4488795 219.203168,79.6911628 C215.033194,90.3651586 212.66243,101.51611 209.87061,112.560507 C177.104353,242.133446 144.353314,371.71315 111.614112,501.292854 C109.826739,508.367696 109.887615,508.394757 117.324576,508.394757 C195.531039,508.39814 273.735812,508.396448 351.940585,508.396448 L351.940585,508.396448 Z M445.284765,751.650571 C444.444344,750.44296 443.779786,749.049302 442.734756,748.058182 C437.354035,742.953742 437.338816,737.340211 439.188756,730.368541 C447.778971,697.9863 455.149984,665.269175 464.323589,633.061142 C467.817168,620.797294 466.904035,611.229429 457.776087,602.517378 C457.475091,602.229852 457.236662,601.85945 457.038816,601.49074 C455.917692,599.40871 454.228396,598.708499 451.849177,598.720338 C420.620027,598.86241 389.389185,598.923298 358.160035,599.004482 C355.175443,600.201945 355.719941,603.193911 355.139932,605.436617 C350.171812,624.61463 345.3711,643.834926 340.52473,663.043383 C333.048876,692.673827 325.559494,722.300888 318.141134,751.944863 C317.676112,753.807019 315.471065,756.8937 319.986001,756.802368 C331.346052,756.570655 342.724705,757.565159 354.064464,756.256068 C358.69946,757.598985 358.117761,753.556702 358.672404,751.376575 C369.650293,708.193488 380.503048,664.979958 391.381168,621.773192 C401.478052,620.504693 411.627357,621.756279 421.72255,621.125412 C426.692361,620.815899 426.739709,622.857336 425.725117,626.681438 C422.529151,638.72203 419.54625,650.820127 416.502473,662.899619 C409.023237,692.587569 401.545692,722.273827 394.107039,751.971924 C393.625108,753.898351 391.433589,756.800677 395.943452,756.814207 C411.160645,756.863256 426.379529,756.949514 441.59334,756.712727 C444.006379,756.675518 448.238919,756.357548 445.284765,751.650571 L445.284765,751.650571 Z M295.552928,756.760085 C299.858181,758.016744 299.240971,754.385455 299.778705,752.272981 C306.918052,724.261142 313.966087,696.223932 321.053014,668.198562 C326.793915,645.499197 332.555108,622.806596 338.400851,599.741903 L299.41007,599.741903 C296.305417,600.492854 297.076507,603.359662 296.569211,605.341903 C285.5017,648.567273 274.527194,691.816321 263.534087,735.060296 L228.337881,735.060296 C232.069889,720.193488 235.648018,705.893277 239.253203,691.601522 C246.627597,662.365159 254.01552,633.133869 261.403443,603.902579 C261.939486,601.779958 263.613563,599.385032 259.216997,599.418858 C244.01164,599.537252 228.804593,599.413784 213.599237,599.525412 C211.077975,599.544017 208.08831,599.904271 210.010962,603.907653 C211.093194,605.688626 211.867666,607.790951 213.318533,609.193066 C218.004258,613.71907 217.961984,618.63408 216.394439,624.641691 C207.822825,657.489049 200.235366,690.605328 190.999194,723.259873 C187.66964,735.028161 188.378164,744.105539 196.777297,753.022241 C199.501477,755.912727 201.711597,757.407865 205.710782,757.372347 C226.817683,757.182918 247.929658,757.374038 269.03825,757.240423 C277.875348,757.182918 286.73443,757.942326 295.552928,756.760085 L295.552928,756.760085 Z M63.2248249,703.555856 C60.2081039,709.651416 59.4217948,716.401522 57.6783871,722.859027 C53.1786704,739.520338 53.3765159,739.508499 63.5545674,753.526258 C65.4789107,756.174884 67.418473,757.387569 70.8139751,757.365581 C94.9054687,757.213362 118.996962,757.28778 143.090147,757.277632 C145.176825,757.277632 147.277031,757.521184 149.081314,755.922875 C155.527357,750.207865 162.893297,745.571924 168.754258,739.16685 C173.915151,723.601522 176.769537,707.418858 181.392696,691.719915 C182.68461,687.337674 181.720748,685.622664 177.515263,683.921184 C158.395271,676.193488 139.474816,667.971924 120.392027,660.151205 C116.2694,658.461564 114.563194,656.827738 116.054645,651.902579 C119.105185,641.840846 121.30516,631.520338 123.856859,621.306385 C133.784645,621.274249 143.715812,621.396025 153.638524,621.138943 C157.769606,621.032389 159.4217,621.734292 157.926868,626.333023 C156.773615,629.878055 155.327821,633.504271 155.684619,637.412939 C155.074173,638.363467 155.625434,639.09074 156.357632,639.430698 C166.873881,644.315264 177.429022,649.113573 187.936816,654.015053 C191.021177,655.454376 190.968756,653.013784 191.413486,651.352896 C193.052052,645.240423 193.92122,638.825201 196.308894,633.030698 C201.102842,621.392643 198.990799,611.777421 190.3414,602.840423 C187.796464,600.210402 185.772353,598.644228 181.96425,598.672981 C158.293812,598.852262 134.619992,598.757548 110.947864,598.774461 C109.077632,598.776152 107.016318,598.272135 105.452155,599.670867 C98.7304815,605.678478 90.7997519,610.287357 84.9793742,617.336829 C79.5766704,632.829429 76.8964558,649.050994 72.269915,664.744863 C71.084533,668.768541 71.8032026,670.502156 75.8818635,672.156279 C95.4043099,680.06833 114.715383,688.492854 134.210773,696.472558 C137.910653,697.9863 138.88128,699.626892 137.83625,703.51019 C135.046121,713.874672 132.677048,724.354165 130.140567,734.787992 C122.762791,734.904693 115.385014,735.092431 108.007237,735.122875 C94.8006275,735.176998 94.8006275,735.138097 97.6837605,722.563044 C97.7784558,722.152051 97.7581639,721.695391 97.9323356,721.324989 C99.2496146,718.513996 97.9813742,717.286089 95.390782,716.14444 C85.9449279,711.980381 76.6225159,707.53556 67.2037176,703.30723 C66.0081897,702.771078 64.3476403,700.634926 63.2248249,703.555856 L63.2248249,703.555856 Z M468.118164,703.505116 C467.059606,702.031966 466.009503,701.260719 464.991529,703.537252 C462.103323,709.888203 461.119168,716.793911 459.355469,723.457759 C454.967357,740.044651 455.187185,740.041268 465.691597,753.954165 C467.543228,756.406596 469.474336,757.360507 472.526567,757.345285 C496.744885,757.235349 520.964894,757.291163 545.183211,757.274249 C547.039915,757.272558 548.955803,757.593911 550.582533,756.159662 C557.174001,750.353319 564.709039,745.653108 570.651168,739.080592 C575.800224,723.280169 578.752688,706.897928 583.411357,690.975729 C584.605194,686.899619 583.338645,685.602368 579.763898,684.141057 C560.4951,676.266216 541.390327,667.988837 522.118147,660.124144 C517.873769,658.39222 516.456722,656.528372 517.82473,651.828161 C520.763666,641.735983 523.066791,631.45945 525.630327,621.257336 C535.957185,621.242114 546.284044,621.326681 556.60752,621.157548 C560.077426,621.100042 560.895864,621.925412 559.997949,625.499197 C558.892044,629.903425 556.188155,634.172347 557.896052,639.041691 C569.115752,644.337252 580.335452,649.634503 592.233237,655.251416 C594.179563,647.577844 595.234739,639.938097 598.067142,633.025624 C602.8594,621.324989 600.771031,611.784186 592.182507,602.83704 C589.6511,600.201945 587.591477,598.644228 583.783374,598.672981 C560.339529,598.852262 536.893992,598.754165 513.448456,598.777844 C511.371924,598.781226 509.058653,598.158816 507.322009,599.681015 C500.542842,605.624355 492.703426,610.336406 486.827245,617.324989 C481.439761,632.602791 478.899898,648.650148 474.207409,664.102156 C472.790361,668.773615 473.837082,670.590106 478.279306,672.389683 C497.612361,680.217167 516.776318,688.465793 536.009606,696.543594 C538.537632,697.605751 541.204318,698.174038 540.056138,702.196025 C536.932885,713.127104 534.114009,724.146131 531.175074,735.129641 C524.426344,735.133023 517.675924,735.24296 510.928885,735.100888 C506.342928,735.004482 500.209718,737.106808 497.614052,734.246765 C495.243288,731.633658 498.812962,726.03704 499.778516,721.764736 C500.336542,719.2937 500.640919,717.548245 497.666473,716.279746 C487.802945,712.073404 478.057786,707.594757 468.266971,703.220973 L468.118164,703.505116 Z M277.726542,793.512727 C189.599057,793.512727 101.473263,793.468753 13.3474687,793.619281 C7.88558026,793.629429 6.16753734,793.044228 7.72493648,786.896237 C30.2167562,698.081015 52.4600009,609.203214 74.7353742,520.333869 C105.27122,398.502156 135.747881,276.656913 166.329383,154.838732 C173.522842,126.185877 180.110928,97.3351374 188.625048,69.0712896 C199.327306,33.5431712 225.317778,15.1685412 261.190379,9.74105708 C273.309683,7.90596195 285.559194,7.50342495 297.807014,7.50342495 C455.883872,7.48651163 613.96073,7.49158562 772.035898,7.49327696 C780.443486,7.49327696 780.436722,7.49327696 778.512379,15.6150529 C751.309469,130.427738 724.099795,245.238732 696.908722,360.054799 C670.304421,472.404905 643.722104,584.758393 617.124567,697.108499 C613.575185,712.103848 610.103589,727.117801 606.413855,742.077632 C598.870361,772.661987 572.492653,793.407865 540.833992,793.485666 C495.610233,793.597294 450.384782,793.512727 405.159331,793.512727 L277.726542,793.512727 L277.726542,793.512727 Z" id="Fill-6" fill="#030303" sketch:type="MSShapeGroup"></path>
                <path d="M354.769775,502.319154 C430.228385,502.319154 505.686994,502.329302 581.143912,502.31408 C607.609552,502.309006 629.49938,484.773277 635.495621,458.823171 C647.614925,406.366512 659.724084,353.908161 671.836625,301.44981 C691.595809,215.873488 711.307646,130.283636 731.227475,44.7445243 C732.48726,39.3322622 731.147998,38.2565751 725.990488,38.261649 C583.528204,38.3648203 441.065921,38.3394503 298.603638,38.3597463 C284.321561,38.3614376 270.311732,40.2658774 257.159234,46.0874419 C236.15041,55.3846934 226.183732,73.3280338 220.693097,94.3563636 C213.705938,121.116617 207.055286,147.966512 200.2795,174.782579 C173.330239,281.43797 146.389432,388.096744 119.443552,494.753827 C117.536118,502.307315 117.532736,502.317463 125.225037,502.317463 C201.738822,502.320846 278.254299,502.319154 354.769775,502.319154 M351.940754,508.39611 C273.735981,508.39611 195.531209,508.397801 117.324745,508.394419 C109.887784,508.394419 109.826908,508.367357 111.614282,501.294207 C144.353483,371.712812 177.104522,242.134799 209.870779,112.560169 C212.662599,101.515772 215.031672,90.3665116 219.203337,79.6925159 C229.849792,52.4485412 250.063852,37.8016068 278.629698,33.7576321 C286.82253,32.5973784 295.032273,32.2777167 303.269071,32.2760254 C446.15241,32.2591121 589.035749,32.264186 731.919088,32.2658774 C740.086556,32.2658774 740.159269,32.289556 738.368513,40.0544609 C720.337518,118.22444 702.287921,196.389345 684.231561,274.552558 C670.072925,335.848118 655.327518,397.015137 641.98732,458.488288 C635.769561,487.134376 607.817543,509.048964 578.942247,508.702241 C503.285792,507.793996 427.609045,508.39611 351.940754,508.39611" id="Fill-8" fill="#6A747B" sketch:type="MSShapeGroup"></path>
                <path d="M358.160035,599.005159 C389.389185,598.923975 420.620027,598.863087 451.849177,598.719323 C454.228396,598.709175 455.917692,599.409387 457.038816,601.491416 C457.236662,601.858436 457.475091,602.230529 457.776087,602.516364 C466.904035,611.228414 467.817168,620.796279 464.323589,633.061818 C455.149984,665.269852 447.778971,697.986977 439.188756,730.369218 C437.338816,737.340888 437.354035,742.954419 442.734756,748.058858 C443.779786,749.049979 444.444344,750.441945 445.284765,751.649556 C444.555949,753.186977 443.292782,752.902833 442.036379,752.586554 C434.682276,750.729471 427.372138,748.652516 419.955469,747.094799 C416.296173,746.326934 415.685726,744.970486 416.619151,741.474503 C420.204044,728.03518 423.457503,714.507907 426.866533,701.021226 C433.222954,675.889725 439.645323,650.776829 445.945941,625.630106 C448.172971,616.735391 442.613005,609.772178 433.498585,609.763721 C419.133649,609.75019 404.768713,609.760338 390.405469,609.760338 L376.278962,609.760338 C376.18934,610.201776 376.098027,610.644905 376.008404,611.086342 C381.133786,614.648288 386.257477,618.210233 391.381168,621.772178 C380.503048,664.980634 369.650293,708.194165 358.672404,751.37556 C358.117761,753.555687 358.69946,757.59797 354.064464,756.255053 C352.792842,752.35315 348.999958,751.318055 345.9714,749.887188 C341.092902,747.583594 340.139185,744.821649 341.507194,739.564989 C351.64128,700.654207 361.443932,661.658858 371.319297,622.680423 C374.498353,610.129049 374.439168,610.137505 363.706473,603.150613 C361.775366,601.893953 360.004902,600.393742 358.160035,599.005159" id="Fill-10" fill="#FEFEFE" sketch:type="MSShapeGroup"></path>
                <path d="M263.533918,735.059789 C274.527025,691.815814 285.501531,648.566765 296.569042,605.341395 C297.076338,603.359154 296.305248,600.492347 299.411591,599.741395 C303.480106,602.356195 307.396433,605.261903 311.666175,607.49277 C314.892579,609.177336 315.66536,610.931247 314.654149,614.454292 C312.214055,622.949852 310.240673,631.579027 308.060991,640.150698 C299.44372,674.038224 290.865342,707.935899 282.129703,741.794672 C281.290973,745.047104 282.133085,746.662326 284.784553,748.561691 C288.438776,751.181564 293.364621,752.220042 295.55445,756.759577 C286.734261,757.94351 277.875179,757.184101 269.038081,757.239915 C247.929488,757.373531 226.817514,757.18241 205.710613,757.371839 C201.711428,757.409049 199.501308,755.913911 196.777128,753.021734 C188.377995,744.106723 187.669471,735.029345 190.999025,723.259366 C200.235197,690.606512 207.824347,657.488541 216.39427,624.641184 C217.961815,618.633573 218.004089,613.718562 213.318364,609.192558 C211.867497,607.792135 211.094716,605.688118 210.010793,603.907146 C219.635892,603.765074 228.45439,607.540127 237.609394,609.654292 C240.996441,610.437378 239.188776,612.901649 238.720373,614.779027 C233.327815,636.460211 227.950476,658.146469 222.500424,679.812431 C218.337214,696.363805 214.009978,712.874588 209.877205,729.432727 C207.423583,739.269514 213.074862,746.523636 222.980664,746.527019 C239.669016,746.530402 256.355677,746.557463 273.042338,746.486427 C274.797583,746.47797 276.821694,747.30334 278.847497,745.023425 C273.64433,741.637378 268.588278,738.349429 263.533918,735.059789" id="Fill-12" fill="#B0B2B2" sketch:type="MSShapeGroup"></path>
                <path d="M525.630327,621.257844 C523.066791,631.459958 520.763666,641.73649 517.82473,651.828668 C516.456722,656.528879 517.873769,658.391036 522.118147,660.12296 C541.390327,667.989345 560.4951,676.266723 579.763898,684.141564 C583.336954,685.602875 584.605194,686.900127 583.411357,690.976237 C578.752688,706.898436 575.800224,723.280677 570.651168,739.081099 C566.684112,738.676871 562.718748,737.954672 558.751692,737.95129 C553.697331,737.947907 552.052001,736.498436 553.568816,731.157209 C556.785074,719.833742 559.203185,708.283636 562.338276,696.934799 C563.374851,693.183425 562.417752,691.828668 558.97152,690.413023 C539.695958,682.49759 520.589494,674.169471 501.295331,666.296321 C496.460799,664.324228 494.986258,661.947907 496.437125,656.782579 C499.56207,645.651924 502.030911,634.336913 504.974919,623.150444 C505.788284,620.060381 505.727409,618.419789 501.890559,618.519577 C496.846344,618.651501 491.937409,616.662495 486.827245,617.325497 C492.703426,610.336913 500.542842,605.623171 507.322009,599.681522 C509.058653,598.159323 511.371924,598.780042 513.448456,598.778351 C536.893992,598.754672 560.339529,598.85277 583.783374,598.673488 C587.591477,598.644736 589.6511,600.202452 592.182507,602.837548 C600.771031,611.784693 602.8594,621.323805 598.067142,633.026131 C595.234739,639.938605 594.179563,647.578351 592.233237,655.250233 C580.335452,649.635011 569.115752,644.337759 557.896052,639.042199 C562.138739,636.092516 567.306396,635.762706 572.000576,634.088288 C577.085374,632.273488 581.302696,625.841353 580.585718,620.579619 C580.014164,616.388499 572.621168,609.780465 568.366645,609.770317 C554.270576,609.741564 540.145761,610.281099 526.085203,609.560592 C517.885606,609.13945 512.920868,613.310275 506.616868,619.082791 C513.740997,619.898013 519.686507,620.577928 525.630327,621.257844" id="Fill-14" fill="#FEFEFE" sketch:type="MSShapeGroup"></path>
                <path d="M84.978867,617.33649 C90.7992446,610.287019 98.7299742,605.679831 105.451648,599.670529 C107.015811,598.271797 109.077124,598.775814 110.949047,598.774123 C134.621176,598.757209 158.293305,598.851924 181.963742,598.672643 C185.771845,598.64389 187.795957,600.211755 190.340893,602.840085 C198.990292,611.777082 201.104026,621.392304 196.308386,633.030359 C193.922403,638.826554 193.051545,645.240085 191.412979,651.354249 C190.968249,653.013446 191.02067,655.454038 187.938,654.014715 C177.430206,649.113235 166.873373,644.316617 156.357124,639.432051 C155.624927,639.090402 155.073665,638.363129 155.685803,637.414292 C160.90588,637.771163 165.447871,635.218943 170.273948,633.930148 C175.169356,632.62444 179.484755,625.497167 178.781305,620.504355 C178.140421,615.96482 171.114369,609.783002 166.426953,609.772854 C151.025442,609.737336 135.620549,609.89463 120.22073,609.689979 C114.358077,609.612178 111.099545,613.61556 107.506197,616.950867 C105.307914,618.992304 107.621185,619.624863 109.417013,619.815983 C114.227871,620.330148 119.042112,620.812178 123.856352,621.306047 C121.306343,631.52 119.104678,641.840507 116.055828,651.902241 C114.562687,656.8274 116.270584,658.461226 120.391519,660.150867 C139.476,667.973277 158.396455,676.19315 177.516446,683.922537 C181.72024,685.622326 182.684103,687.337336 181.39388,691.719577 C176.76903,707.420211 173.916335,723.601184 168.755442,739.168203 C164.365639,738.709852 159.982601,737.958901 155.586034,737.874334 C150.969639,737.784693 150.401468,735.809218 151.46679,731.854884 C154.475056,720.683636 156.93206,709.356786 160.231176,698.276871 C161.670206,693.448118 160.358,691.503087 156.022309,689.740719 C136.907391,681.962283 117.936206,673.830359 98.8263605,666.036702 C94.5481631,664.292939 93.1412618,662.278562 94.5041974,657.490402 C97.7238369,646.163552 100.157167,634.616829 103.207708,623.239239 C104.100549,619.91408 103.682876,618.495053 100.052326,618.545793 C94.9979657,618.61852 90.094103,616.636279 84.978867,617.33649" id="Fill-16" fill="#FEFEFE" sketch:type="MSShapeGroup"></path>
                <path d="M84.978867,617.33649 C90.094103,616.636279 94.9979657,618.61852 100.052326,618.545793 C103.682876,618.495053 104.100549,619.91408 103.207708,623.239239 C100.157167,634.616829 97.7238369,646.163552 94.5041974,657.490402 C93.1412618,662.278562 94.5481631,664.292939 98.8263605,666.036702 C117.936206,673.830359 136.907391,681.962283 156.022309,689.740719 C160.358,691.503087 161.670206,693.448118 160.231176,698.276871 C156.93206,709.356786 154.475056,720.683636 151.46679,731.854884 C150.401468,735.809218 150.969639,737.784693 155.586034,737.874334 C159.982601,737.958901 164.365639,738.709852 168.755442,739.168203 C162.89279,745.571586 155.528541,750.209218 149.080807,755.922537 C147.278215,757.520846 145.178009,757.277294 143.089639,757.277294 C118.998146,757.287442 94.9049614,757.213023 70.8134678,757.365243 C67.4196567,757.38723 65.4784034,756.174545 63.5557511,753.52592 C53.3760086,739.508161 53.1798541,739.52 57.6778798,722.858689 C59.4212876,716.401184 60.2092876,709.651078 63.2243176,703.557209 C70.400867,712.176237 80.0225837,719.592727 75.7917339,733.265455 C74.1328755,738.632051 80.1798455,745.563129 85.8615622,745.591882 C101.455845,745.669683 117.058584,745.300973 132.639339,745.761015 C139.623116,745.967357 143.762652,742.320846 149.23976,736.964397 C141.922858,736.800338 135.967202,736.171163 130.14006,734.789345 C132.676541,724.353827 135.045614,713.876025 137.835742,703.509852 C138.880773,699.626554 137.910146,697.987653 134.210266,696.47222 C114.716567,688.492516 95.4038026,680.067992 75.8830472,672.155941 C71.8026953,670.50351 71.0840258,668.768203 72.2694077,664.744524 C76.8959485,649.050655 79.5761631,632.829091 84.978867,617.33649" id="Fill-18" fill="#B0B2B2" sketch:type="MSShapeGroup"></path>
                <path d="M486.827415,617.325159 C491.937578,616.662156 496.844822,618.651163 501.890728,618.52093 C505.727578,618.41945 505.788453,620.060042 504.975088,623.151797 C502.03108,634.336575 499.562239,645.651586 496.435603,656.783932 C494.986427,661.947569 496.460968,664.32389 501.2955,666.297674 C520.589664,674.169133 539.696127,682.497252 558.971689,690.412685 C562.417921,691.82833 563.37502,693.184778 562.338445,696.936152 C559.203355,708.284989 556.785243,719.833404 553.568985,731.156871 C552.05217,736.498097 553.6975,737.947569 558.751861,737.950951 C562.718917,737.954334 566.684282,738.678224 570.651337,739.080761 C564.709209,745.653277 557.17417,750.353488 550.582702,756.159831 C548.955973,757.59408 547.040084,757.272727 545.18338,757.274419 C520.965063,757.291332 496.745054,757.235518 472.526736,757.345455 C469.474505,757.360677 467.543397,756.406765 465.691767,753.954334 C455.187355,740.041438 454.967526,740.04482 459.355638,723.457928 C461.119337,716.79408 462.101801,709.888372 464.991698,703.537421 C466.033346,703.527273 467.074994,703.515433 468.118333,703.505285 C468.118333,703.505285 468.26714,703.221142 468.263758,703.224524 C468.197809,708.24778 471.600076,711.686258 474.290436,715.200846 C478.419827,720.587738 480.229183,725.744609 477.709612,732.584355 C475.578968,738.365328 481.778127,745.572093 488.19035,745.599154 C503.76096,745.660042 519.338333,745.335307 534.898797,745.7463 C541.84199,745.928964 545.841174,742.199577 550.765329,737.210148 C543.553269,736.443975 537.364256,735.786047 531.175243,735.12981 C534.114179,724.1463 536.933054,713.127273 540.056307,702.196195 C541.204488,698.174207 538.537801,697.60592 536.009775,696.543763 C516.776488,688.465962 497.61253,680.217336 478.279475,672.389852 C473.837252,670.590275 472.79053,668.773784 474.207578,664.102326 C478.900067,648.650317 481.43993,632.60296 486.827415,617.325159" id="Fill-20" fill="#B0B2B2" sketch:type="MSShapeGroup"></path>
                <path d="M391.381845,621.772685 C386.258154,618.21074 381.132772,614.648795 376.009081,611.08685 C376.098703,610.643721 376.188325,610.202283 376.277948,609.759154 L390.406145,609.759154 C404.76939,609.759154 419.134325,609.749006 433.49757,609.764228 C442.613682,609.772685 448.173647,616.735899 445.944926,625.630613 C439.645999,650.775645 433.221939,675.890233 426.867209,701.021734 C423.456488,714.508414 420.203029,728.035687 416.618136,741.475011 C415.686403,744.970994 416.296849,746.327442 419.954454,747.095307 C427.372815,748.651332 434.681261,750.728288 442.037055,752.58537 C443.293458,752.90334 444.554935,753.185793 445.285441,751.650063 C448.239596,756.358732 444.005364,756.675011 441.592325,756.71222 C426.378514,756.949006 411.15963,756.862748 395.944128,756.815391 C391.432574,756.800169 393.624094,753.897844 394.107716,751.971416 C401.544677,722.273319 409.022222,692.587061 416.503149,662.899112 C419.546926,650.819619 422.529827,638.723214 425.725793,626.682622 C426.740385,622.856829 426.693038,620.815391 421.723227,621.126596 C411.628033,621.755772 401.477038,620.504186 391.381845,621.772685" id="Fill-22" fill="#B0B2B2" sketch:type="MSShapeGroup"></path>
                <path d="M263.533918,735.059789 C268.588278,738.349429 273.64433,741.637378 278.847497,745.023425 C276.821694,747.30334 274.797583,746.47797 273.042338,746.486427 C256.355677,746.557463 239.669016,746.530402 222.980664,746.527019 C213.074862,746.523636 207.423583,739.269514 209.877205,729.432727 C214.009978,712.874588 218.337214,696.363805 222.500424,679.812431 C227.950476,658.146469 233.327815,636.460211 238.720373,614.779027 C239.188776,612.901649 240.996441,610.437378 237.609394,609.654292 C228.45439,607.540127 219.635892,603.765074 210.010793,603.907146 C208.088141,599.905455 211.077806,599.545201 213.599068,599.526596 C228.804424,599.413277 244.011471,599.538436 259.216827,599.420042 C263.615085,599.384524 261.939317,601.781142 261.403274,603.902072 C254.015351,633.133362 246.627428,662.366342 239.253033,691.601015 C235.647849,705.89277 232.06972,720.192981 228.337712,735.059789 L263.533918,735.059789 Z" id="Fill-24" fill="#FEFEFE" sketch:type="MSShapeGroup"></path>
                <path d="M358.160035,599.005159 C360.004902,600.393742 361.775366,601.893953 363.706473,603.150613 C374.439168,610.137505 374.498353,610.129049 371.319297,622.680423 C361.443932,661.658858 351.64128,700.654207 341.507194,739.564989 C340.139185,744.821649 341.092902,747.583594 345.9714,749.887188 C348.999958,751.318055 352.792842,752.35315 354.064464,756.255053 C342.724705,757.564144 331.346052,756.569641 319.986001,756.801353 C315.471065,756.894376 317.676112,753.807696 318.141134,751.945539 C325.559494,722.299873 333.048876,692.674503 340.52473,663.044059 C345.3711,643.835603 350.171812,624.615307 355.139932,605.437294 C355.719941,603.194588 355.175443,600.20093 358.160035,599.005159" id="Fill-26" fill="#B0B2B2" sketch:type="MSShapeGroup"></path>
                <path d="M295.553604,756.759577 C293.365467,752.220042 288.43793,751.181564 284.783707,748.561691 C282.13393,746.662326 281.290128,745.047104 282.128858,741.794672 C290.864497,707.935899 299.444566,674.038224 308.060145,640.150698 C310.239827,631.579027 312.2149,622.949852 314.653304,614.454292 C315.664514,610.931247 314.891733,609.177336 311.667021,607.49277 C307.397278,605.261903 303.479261,602.356195 299.410746,599.741395 L338.401527,599.741395 C332.555785,622.806089 326.7929,645.498689 321.05369,668.198055 C313.966763,696.225116 306.918729,724.260634 299.779381,752.274165 C299.239956,754.384947 299.858858,758.016237 295.553604,756.759577" id="Fill-28" fill="#FEFEFE" sketch:type="MSShapeGroup"></path>
                <path d="M130.140567,734.788837 C135.967709,736.172347 141.921675,736.801522 149.238576,736.96389 C143.76316,742.320338 139.621932,745.968541 132.638155,745.762199 C117.059091,745.300465 101.454662,745.669175 85.8620695,745.591374 C80.1803528,745.562622 74.1316918,738.633235 75.7922412,733.266638 C80.023091,719.59222 70.4013742,712.177421 63.2248249,703.556702 C64.3476403,700.635772 66.0081897,702.770233 67.2037176,703.308076 C76.6225159,707.534715 85.9449279,711.981226 95.390782,716.145285 C97.9813742,717.286934 99.2496146,718.51315 97.9323356,721.324144 C97.7581639,721.694545 97.7784558,722.151205 97.6837605,722.56389 C94.8006275,735.137252 94.8006275,735.176152 108.007237,735.12203 C115.385014,735.091586 122.762791,734.905539 130.140567,734.788837" id="Fill-30" fill="#FEFEFE" sketch:type="MSShapeGroup"></path>
                <path d="M531.174905,735.129641 C537.363918,735.787569 543.554621,736.443805 550.766682,737.209979 C545.840836,742.199408 541.841652,745.928795 534.898458,745.746131 C519.339686,745.335137 503.760621,745.659873 488.190012,745.598985 C481.777789,745.571924 475.580321,738.365159 477.710965,732.584186 C480.230536,725.74444 478.419488,720.587569 474.291789,715.200677 C471.599737,711.686089 468.199162,708.247611 468.26342,703.224355 C478.057617,707.594757 487.802776,712.073404 497.666304,716.279746 C500.64075,717.548245 500.336373,719.2937 499.778347,721.764736 C498.812793,726.03704 495.243119,731.633658 497.613883,734.246765 C500.209548,737.106808 506.342759,735.004482 510.930407,735.100888 C517.675755,735.241268 524.426175,735.133023 531.174905,735.129641" id="Fill-32" fill="#FEFEFE" sketch:type="MSShapeGroup"></path>
                <path d="M197.958113,550.719662 C205.554027,551.534884 208.712791,548.22833 209.688491,541.451163 C210.128148,538.401691 209.456826,534.049894 213.092448,532.586892 C215.42601,531.646512 218.924663,531.627907 221.084053,532.757717 C223.557967,534.051586 221.18213,536.855814 220.720491,538.9074 C218.588156,548.358562 216.423693,557.808034 213.954852,567.17463 C212.864165,571.309937 211.621289,575.2 215.85383,579.100211 L200.364388,579.100211 C201.576826,574.105708 202.890723,569.441015 203.764963,564.693446 C204.08456,562.959831 206.262551,559.658351 203.51977,559.512896 C200.858156,559.370825 196.439607,558.670613 195.1088,563.088372 C194.319109,565.708245 193.60213,568.351797 192.935882,571.005497 C190.678414,579.981395 190.693633,579.984778 180.456397,578.876956 C183.278654,567.232135 186.055255,555.621142 188.926551,544.032135 C189.841375,540.341649 191.616912,536.64778 186.122894,533.400423 C191.867178,531.638055 196.201178,532.465116 200.428645,532.389006 C203.127461,532.341649 201.882894,534.4 201.6191,535.577167 C200.514886,540.49556 199.263555,545.381818 197.958113,550.719662" id="Fill-34" fill="#FEFEFE" sketch:type="MSShapeGroup"></path>
                <path d="M460.000073,578.851586 C443.781815,580.375476 443.813944,580.383932 447.371781,566.235941 C449.069532,559.487526 450.716554,552.720507 452.170803,545.914588 C452.55973,544.093023 455.003206,540.991121 450.801103,540.652854 C447.846948,540.416068 443.976279,538.897252 442.853464,544.17759 C440.927429,553.246512 438.514391,562.210571 436.314416,571.220296 C434.11106,580.245243 434.116133,580.246934 423.826476,578.739958 C427.308219,564.412685 430.832236,550.117548 434.219283,535.790275 C434.868622,533.040169 436.140245,532.116702 439.001395,532.236786 C444.90294,532.487104 450.823086,532.235095 456.734777,532.336575 C462.144245,532.43129 465.20324,536.155603 464.00433,541.429175 C461.94809,550.472727 459.770099,559.4926 457.384116,568.454968 C456.420253,572.077801 455.845318,575.382664 460.000073,578.851586" id="Fill-36" fill="#FEFEFE" sketch:type="MSShapeGroup"></path>
                <path d="M275.397545,571.058943 C281.60685,573.032727 285.350695,571.732093 286.402489,564.665708 C287.330841,558.429767 289.378627,552.369725 290.591064,546.164228 C290.932644,544.4137 293.881725,541.413277 289.877468,540.687696 C286.727159,540.116025 282.743193,539.074165 281.649124,544.606512 C279.888807,553.49277 277.511279,562.257252 275.397545,571.058943 M278.28406,579.356617 C275.969099,579.356617 273.647373,579.454715 271.337485,579.336321 C266.898644,579.107992 263.761863,575.248372 264.752781,570.910106 C267.04576,560.866977 269.247425,550.786638 272.074755,540.888964 C273.537459,535.769302 277.5637,532.613277 283.154103,532.351121 C287.356206,532.154926 291.57691,532.214123 295.784086,532.339281 C300.544215,532.481353 303.826421,536.543932 302.740807,541.17649 C300.392026,551.204397 297.96715,561.218774 295.317373,571.170571 C293.749828,577.06148 288.612609,579.356617 278.28406,579.356617" id="Fill-38" fill="#FEFEFE" sketch:type="MSShapeGroup"></path>
                <path d="M525.630327,621.257844 C519.686507,620.577928 513.740997,619.898013 506.616868,619.082791 C512.920868,613.310275 517.885606,609.13945 526.085203,609.560592 C540.145761,610.281099 554.270576,609.741564 568.366645,609.770317 C572.621168,609.780465 580.014164,616.388499 580.585718,620.579619 C581.302696,625.841353 577.085374,632.273488 572.000576,634.088288 C567.306396,635.762706 562.138739,636.092516 557.896052,639.040507 C556.186464,634.171163 558.892044,629.902241 559.997949,625.498013 C560.895864,621.92592 560.077426,621.10055 556.60752,621.156364 C546.284044,621.325497 535.957185,621.242622 525.630327,621.257844" id="Fill-40" fill="#B0B2B2" sketch:type="MSShapeGroup"></path>
                <path d="M123.856014,621.306554 C119.043464,620.812685 114.227533,620.330655 109.416675,619.81649 C107.622537,619.623679 105.307576,618.991121 107.505859,616.951374 C111.099207,613.616068 114.357739,609.610994 120.220391,609.690486 C135.620211,609.895137 151.025104,609.737844 166.426615,609.77167 C171.114031,609.781818 178.140082,615.963636 178.780967,620.504863 C179.486108,625.497674 175.169018,632.624947 170.275301,633.930655 C165.449224,635.217759 160.905542,637.769979 155.685464,637.413108 C155.328666,633.502748 156.77446,629.876533 157.926022,626.333192 C159.420855,621.734461 157.768761,621.032558 153.637679,621.139112 C143.716658,621.396195 133.783799,621.274419 123.856014,621.306554" id="Fill-42" fill="#B0B2B2" sketch:type="MSShapeGroup"></path>
                <path d="M115.049015,554.257252 C118.194251,553.305032 120.433118,552.750275 122.582362,551.950275 C127.18692,550.236956 126.24504,545.717717 126.772628,542.319831 C127.144645,539.933362 124.251367,541.26444 122.842774,540.944778 C118.627143,539.989175 117.401178,542.56 116.851607,546.062748 C116.469444,548.496575 115.803195,550.884736 115.049015,554.257252 M104.715392,532.313911 C114.306671,532.313911 122.736242,532.224271 131.162431,532.347738 C135.988508,532.418774 138.986628,536.418774 138.120843,541.235687 C138.083641,541.44203 138.014311,541.643298 137.970345,541.849641 C134.907967,556.340973 134.907967,556.340973 120.187924,561.041184 C110.684577,564.075433 108.156551,569.981564 112.630903,578.68685 C97.6166283,581.151121 97.6419931,581.156195 101.167701,567.05556 C103.262834,558.676702 104.963967,550.184524 107.4345,541.920677 C108.51504,538.304609 106.546731,536.00778 104.715392,532.313911" id="Fill-44" fill="#FEFEFE" sketch:type="MSShapeGroup"></path>
                <path d="M571.87967,578.520592 C575.736812,573.515941 579.117095,568.406427 583.231267,563.980211 C587.869645,558.992474 589.399988,554.160338 586.442452,547.606427 C584.191748,542.615307 584.768374,536.242368 577.708503,533.801776 C578.056846,533.343425 578.40519,532.886765 578.755224,532.430106 C583.238031,532.430106 588.388778,531.044905 592.022709,532.802199 C596.010057,534.728626 594.540589,541.059281 596.948555,545.421226 C603.377688,540.925666 604.71864,528.519746 617.169379,533.145539 C613.1127,538.405581 609.543027,543.824609 605.171825,548.492685 C600.141138,553.860973 598.698726,559.090571 602.04519,565.9726 C604.185979,570.37852 603.773379,576.174715 611.000658,577.867738 C597.810958,581.850825 595.722589,580.545116 591.799499,566.833488 C585.554683,571.416998 583.988829,583.462664 571.87967,578.520592" id="Fill-46" fill="#FEFEFE" sketch:type="MSShapeGroup"></path>
                <path d="M380.047834,545.351374 C376.900907,539.448626 372.409645,540.339958 368.319148,540.581818 C362.541045,540.925159 364.149173,546.210571 363.422049,549.373362 C362.503843,553.366596 366.332238,551.35222 368.116229,551.883298 C369.627972,552.331501 372.583817,550.795772 371.831328,554.283298 C371.32065,556.64778 372.100195,560 367.742521,560.169133 C365.173912,560.270613 361.516306,558.208879 360.182118,562.229175 C359.216564,565.139958 356.830581,569.985624 358.673757,570.929387 C362.057422,572.663002 366.766821,572.735729 370.73895,570.547146 C372.137397,569.775899 372.884813,567.890063 375.316452,568.150529 C374.736444,570.839746 374.13107,573.452854 373.615319,576.082875 C373.150298,578.457505 372.056229,579.502748 369.369251,579.430021 C361.567036,579.220296 353.756367,579.355603 345.2321,579.355603 C348.318152,566.562368 351.285834,554.195349 354.295791,541.840169 C354.691482,540.21649 355.755113,538.498097 354.522384,537.004651 C350.595912,532.250317 353.665053,532.230021 357.469774,532.284144 C364.443405,532.385624 371.425491,532.492178 378.390667,532.24186 C382.227517,532.104863 384.102821,532.779704 382.428744,537.052008 C381.600161,539.171247 381.152049,541.441015 380.047834,545.351374" id="Fill-48" fill="#FEFEFE" sketch:type="MSShapeGroup"></path>
                <path d="M523.404988,578.796448 C507.330464,580.482706 507.316936,580.479323 510.741185,566.314419 C512.422027,559.359662 514.271967,552.443805 515.837821,545.463679 C516.764482,541.328372 519.385512,536.974884 512.95807,532.699197 L529.514524,532.699197 C526.633082,544.763467 523.946104,556.651839 520.887108,568.442114 C519.940155,572.088626 519.19443,575.330909 523.404988,578.796448" id="Fill-50" fill="#FEFEFE" sketch:type="MSShapeGroup"></path>
                <path d="M468.117657,703.50444 C467.076009,703.516279 466.034361,703.526427 464.992712,703.536575 C466.010687,701.261734 467.06079,702.03129 468.117657,703.50444" id="Fill-52" fill="#FEFEFE" sketch:type="MSShapeGroup"></path>
                <path d="M322.790165,257.399408 C323.123289,257.84592 323.454723,258.29074 323.787847,258.737252 C322.69547,259.711459 321.663967,260.768541 320.502259,261.653108 C267.104268,302.300888 213.69613,342.935137 160.289684,383.571078 C160.526422,384.034503 160.764852,384.497928 161.00159,384.961353 C219.010903,354.781226 277.018525,324.602791 335.027839,294.422664 C335.382946,295.045074 335.738053,295.667484 336.093161,296.289894 C274.412714,342.65945 212.732268,389.030698 151.053512,435.400254 C151.413693,436.04296 151.775564,436.683975 152.137435,437.326681 C219.447178,401.509345 286.75692,365.6937 354.066663,329.876364 C354.416697,330.475095 354.76504,331.072135 355.115075,331.669175 C284.11898,383.092431 213.121195,434.513996 142.1251,485.93556 C142.503882,486.578266 142.880972,487.220973 143.259753,487.863679 C223.260354,444.098774 303.260955,400.333869 383.261555,356.570655 C383.645409,357.191374 384.027573,357.813784 384.411427,358.436195 C331.238336,401.372347 278.065246,444.308499 224.892156,487.244651 C225.238809,487.846765 225.585461,488.448879 225.930422,489.050994 C260.465452,469.75797 294.601409,449.739366 328.940285,430.091163 C363.668088,410.219704 398.345161,390.255222 434.177178,369.68186 C432.993487,378.700042 432.012714,386.16389 430.878062,394.79814 C441.932045,388.672135 452.138843,383.246342 462.08692,377.384186 C465.915315,375.129641 468.318208,374.987569 471.767821,378.387146 C484.406259,390.842114 497.453916,402.881015 510.356148,415.067061 C523.381821,427.371501 536.41595,439.665793 549.852534,452.3474 C550.689573,450.158816 551.330457,448.646765 551.84959,447.092431 C565.355504,406.640846 578.890165,366.199408 592.267564,325.705539 C593.471547,322.059027 594.886903,320.362622 599.127899,320.156279 C616.632997,319.308922 634.104276,317.741057 651.609375,316.892008 C656.765195,316.641691 657.585324,315.594757 655.584886,310.771078 C645.959787,287.566004 636.757435,264.185032 627.134027,240.978266 C625.627358,237.346977 626.193839,235.508499 629.191959,233.204905 C645.276628,220.844651 661.207418,208.28482 677.175409,195.772347 C678.879924,194.437886 680.481289,192.973192 682.694791,191.087357 C659.396371,181.99814 637.082105,173.054376 614.556465,164.682283 C609.35668,162.750782 608.594045,160.704271 609.874122,155.574461 C615.498345,133.04592 620.638946,110.398985 625.924972,87.7858774 C626.280079,86.2738266 627.406276,84.685666 625.659487,82.8725581 C623.040148,84.0074419 620.327804,85.1254123 617.662809,86.3448626 C601.346474,93.812093 584.989555,101.194757 568.767916,108.864947 C565.10862,110.59518 563.397341,110.287357 561.633641,106.412516 C555.157161,92.1951797 548.3391,78.1334461 541.630955,64.0226638 C538.233761,56.8767865 534.799367,49.7512051 531.113015,42.0590275 C515.395289,57.8137844 500.169641,72.7668499 485.36674,88.1258351 C481.594148,92.0395772 478.616319,92.4860888 474.004997,90.0522622 C467.668869,86.7084989 460.984397,84.0175899 454.431821,81.0848203 C432.905555,71.447611 411.369143,61.827315 389.482697,52.0412685 C388.99062,54.0657928 388.47656,55.6624101 388.224603,57.2979281 C384.683676,80.2543763 380.985487,103.188837 377.808122,126.194334 C377.052251,131.660719 375.051813,134.167273 369.596688,135.122875 C359.207264,136.946131 348.932826,139.418858 338.616113,141.651416 C324.5471,144.694123 310.48147,147.765581 294.986955,151.134715 C311.653324,161.218436 326.987195,170.4937 342.943349,180.147822 C326.73862,188.323721 311.604285,195.958393 296.468259,203.593066 C296.588319,203.956702 296.706688,204.320338 296.826748,204.682283 C309.219993,205.805328 321.614929,206.928372 335.609538,208.19518 C280.879049,250.77277 227.440474,292.3474 173.893676,334.003214 C176.431847,335.205751 178.190474,333.85945 180.026886,332.883552 C199.982225,322.292431 219.922345,311.672558 239.896285,301.115264 C267.515178,286.51907 295.157744,271.968541 322.790165,257.399408 M354.770113,502.319493 C278.254637,502.319493 201.739161,502.321184 125.225375,502.317801 C117.533075,502.317801 117.536457,502.307653 119.44389,494.754165 C146.38977,388.097082 173.330577,281.438309 200.279839,174.782918 C207.055624,147.96685 213.706276,121.116956 220.693435,94.3550106 C226.18407,73.3283721 236.150748,55.3850317 257.159573,46.0877801 C270.31207,40.2662156 284.321899,38.3617759 298.602285,38.3600846 C441.064568,38.3397886 583.526852,38.3651586 725.989135,38.260296 C731.148336,38.2569133 732.487598,39.3309091 731.226122,44.7448626 C711.306294,130.283975 691.596148,215.872135 671.836963,301.450148 C659.724422,353.908499 647.615264,406.36685 635.495959,458.82351 C629.499718,484.773615 607.60989,502.309345 581.144251,502.314419 C505.685641,502.329641 430.228723,502.319493 354.770113,502.319493" id="Fill-54" fill="#030303" sketch:type="MSShapeGroup"></path>
                <path d="M275.397545,571.058943 C277.511279,562.257252 279.888807,553.49277 281.649124,544.606512 C282.743193,539.074165 286.727159,540.116025 289.877468,540.687696 C293.881725,541.413277 290.932644,544.4137 290.591064,546.164228 C289.378627,552.369725 287.330841,558.429767 286.402489,564.665708 C285.350695,571.732093 281.60685,573.032727 275.397545,571.058943" id="Fill-56" fill="#030303" sketch:type="MSShapeGroup"></path>
                <path d="M115.049015,554.257252 C115.803195,550.884736 116.469444,548.496575 116.851607,546.062748 C117.401178,542.56 118.627143,539.989175 122.842774,540.944778 C124.251367,541.26444 127.144645,539.933362 126.772628,542.319831 C126.24504,545.717717 127.18692,550.236956 122.582362,551.950275 C120.433118,552.750275 118.194251,553.305032 115.049015,554.257252" id="Fill-58" fill="#030303" sketch:type="MSShapeGroup"></path>
                <path d="M603.404743,174.873235 L603.426726,174.952727 C603.693902,171.757801 601.681627,169.430529 600.259507,166.927357 C594.239593,156.336237 586.675808,146.893531 578.462683,137.943002 C575.8704,135.80685 573.278117,133.669006 570.685833,131.532854 C567.851739,127.811924 563.79337,125.513404 560.079962,122.945962 C549.259336,115.46351 537.939868,108.865624 524.777224,106.264355 C513.882194,101.097336 502.036829,100.532431 490.360563,99.1455391 C481.44737,100.598393 472.390443,99.1117125 463.424829,100.941734 C448.559361,103.977674 434.023636,107.661395 421.080821,115.989514 C409.274348,121.538774 399.010057,129.129471 390.529756,139.08296 L390.600778,139.03222 C390.149284,139.093108 389.697791,139.152304 389.246297,139.213192 C369.590263,159.932008 357.134452,184.287188 353.344949,212.649133 C352.40307,219.70537 349.496263,226.922283 352.419979,234.235603 C352.272864,236.420803 352.124057,238.604313 351.976941,240.789514 C351.060426,242.022495 351.011387,243.182748 352.267791,244.231374 C353.177542,249.303679 353.006752,254.578943 355.159379,259.414461 C358.803456,280.573023 367.742014,299.216575 381.78228,315.434757 C386.09937,321.249556 390.55343,326.929049 396.930142,330.700719 C398.220366,333.205581 400.356082,334.942579 402.535765,336.561184 C430.910529,357.640254 462.445748,367.668161 497.949713,363.723975 C509.138975,362.973023 519.934237,360.561184 530.249258,356.102833 C536.656409,355.186131 542.189318,351.862664 547.646134,348.894376 C569.201147,337.164989 586.276735,320.608541 598.762984,299.406004 C610.894125,278.808964 616.827799,256.491839 617.304658,232.65759 C616.941095,227.901564 617.625945,223.049133 616.000906,218.408118 C616.038108,207.023763 612.738992,196.40389 608.591001,185.97852 C608.311988,182.244059 606.024082,179.250402 604.850537,175.845751 C604.368606,175.521015 603.886675,175.19797 603.404743,174.873235 M322.790503,257.400085 C295.158082,271.969218 267.515516,286.518055 239.896623,301.115941 C219.922683,311.673235 199.982563,322.293108 180.025533,332.884228 C178.190812,333.858436 176.430494,335.206427 173.894014,334.00389 C227.439121,292.346385 280.879387,250.773446 335.609876,208.195856 C321.615267,206.927357 309.220331,205.806004 296.827087,204.68296 C296.707027,204.319323 296.588658,203.957378 296.468597,203.593742 C311.602932,195.95907 326.737267,188.324397 342.943688,180.148499 C326.987533,170.494376 311.653662,161.217421 294.987293,151.135391 C310.481808,147.764567 324.545748,144.694799 338.616452,141.650402 C348.933164,139.419535 359.207602,136.945116 369.597027,135.123552 C375.052151,134.166258 377.052589,131.661395 377.80846,126.195011 C380.985825,103.187822 384.684014,80.2533615 388.22325,57.2986047 C388.476898,55.6613953 388.990958,54.0664693 389.483035,52.041945 C411.369482,61.8263002 432.904203,71.4465962 454.43216,81.0854968 C460.984735,84.0182664 467.669207,86.7074841 474.005336,90.0529387 C478.616658,92.485074 481.594486,92.0402537 485.367078,88.1265116 C500.169979,72.7658351 515.393936,57.8144609 531.113353,42.0580127 C534.798014,49.7518816 538.2341,56.877463 541.631293,64.021649 C548.339439,78.1341226 555.157499,92.1958562 561.632288,106.413192 C563.397679,110.288034 565.108958,110.595856 568.768254,108.865624 C584.989894,101.195433 601.346812,93.8127696 617.663147,86.3455391 C620.328142,85.1260888 623.038795,84.0064271 625.658134,82.8715433 C627.406615,84.6863425 626.278726,86.2728118 625.92531,87.7865539 C620.639284,110.39797 615.498683,133.046596 609.87446,155.575137 C608.594383,160.704947 609.355327,162.749767 614.556803,164.68296 C637.082443,173.055053 659.395018,181.998816 682.693439,191.088034 C680.481627,192.972178 678.880263,194.438562 677.175748,195.773023 C661.207756,208.283805 645.276967,220.845328 629.192297,233.205581 C626.194177,235.509175 625.627696,237.345962 627.134366,240.978943 C636.757773,264.184017 645.960125,287.564989 655.585224,310.771755 C657.585662,315.595433 656.765533,316.640677 651.609713,316.890994 C634.104615,317.740042 616.633336,319.309598 599.128237,320.156956 C594.88555,320.363298 593.471885,322.059704 592.267902,325.704524 C578.890503,366.198393 565.354151,406.641522 551.849928,447.093108 C551.330795,448.645751 550.68822,450.157801 549.852872,452.348076 C536.416288,439.666469 523.380469,427.372178 510.354795,415.067738 C497.454254,402.88 484.404906,390.842791 471.76816,378.387822 C468.318546,374.988245 465.915653,375.128626 462.087258,377.384863 C452.13749,383.245328 441.932383,388.671121 430.8784,394.798816 C432.013052,386.164567 432.992134,378.700719 434.177516,369.680846 C398.343808,390.255899 363.668426,410.218689 328.938932,430.090148 C294.601748,449.738351 260.465791,469.756956 225.930761,489.05167 C225.584108,488.449556 225.239147,487.845751 224.892494,487.243636 C278.065585,444.307484 331.238675,401.371332 384.411765,358.436871 C384.027911,357.814461 383.644057,357.192051 383.261894,356.569641 C303.261293,400.334545 223.260692,444.09945 143.260091,487.862664 C142.88131,487.219958 142.50422,486.577252 142.125439,485.934545 C213.121533,434.512981 284.117627,383.091416 355.115413,331.669852 C354.765379,331.072812 354.417035,330.47408 354.067001,329.87704 C286.757258,365.692685 219.447516,401.510021 152.136082,437.325666 C151.775902,436.684651 151.414031,436.041945 151.05216,435.40093 C212.732606,389.029683 274.413052,342.660127 336.093499,296.288879 C335.738391,295.666469 335.383284,295.045751 335.028177,294.42334 C277.018864,324.601776 219.011241,354.781903 161.001928,384.96203 C160.76519,384.498605 160.526761,384.033488 160.290022,383.570063 C213.696469,342.934123 267.104606,302.301564 320.502597,261.652093 C321.664306,260.767526 322.695808,259.712135 323.788185,258.736237 C323.962357,258.293108 324.136529,257.849979 324.312391,257.40685 C323.805095,257.403467 323.297799,257.401776 322.790503,257.400085" id="Fill-60" fill="#F7A01F" sketch:type="MSShapeGroup"></path>
                <path d="M381.781773,315.434249 C367.741506,299.216068 358.804639,280.572516 355.158871,259.413953 C372.263206,236.560677 394.509833,220.313742 420.278785,208.531924 C460.104914,190.323044 502.193584,182.899789 545.672245,181.912051 C566.190682,181.446934 567.535017,182.615645 570.585558,203.232981 C571.157112,207.094292 569.765429,207.698097 566.390219,208.022833 C550.077266,209.592389 535.375824,215.643975 521.775215,224.633404 C512.058803,231.055391 502.968056,238.287526 494.511429,246.248626 C461.70797,277.12389 425.703472,302.713742 381.781773,315.434249" id="Fill-62" fill="#E46126" sketch:type="MSShapeGroup"></path>
                <path d="M497.949544,363.724313 C462.445579,367.666808 430.91036,357.640592 402.535596,336.561522 C400.355913,334.942918 398.220197,333.20592 396.929973,330.701057 C414.265973,322.430444 431.072694,313.268499 446.606102,301.870613 C468.120531,286.085412 487.205012,267.475687 507.270265,250.002537 C524.640085,234.876956 542.855398,221.386892 566.696626,218.234249 C571.098265,217.65074 572.909312,218.606342 573.053046,223.145877 C574.610445,272.179281 558.77266,313.877378 521.494849,346.728118 C514.171184,353.18055 505.601261,357.791121 497.949544,363.724313" id="Fill-64" fill="#E46126" sketch:type="MSShapeGroup"></path>
                <path d="M497.949544,363.724313 C505.601261,357.791121 514.171184,353.18055 521.494849,346.728118 C558.77266,313.877378 574.610445,272.179281 573.053046,223.145877 C572.909312,218.606342 571.098265,217.65074 566.696626,218.234249 C542.855398,221.386892 524.640085,234.876956 507.270265,250.002537 C487.205012,267.475687 468.120531,286.085412 446.606102,301.870613 C431.072694,313.268499 414.265973,322.430444 396.929973,330.701057 C390.553261,326.929387 386.099201,321.249894 381.782111,315.435095 C425.70381,302.712896 461.708308,277.124736 494.511767,246.24778 C502.968394,238.288372 512.059141,231.054545 521.775553,224.634249 C535.376162,215.64482 550.077604,209.593235 566.388866,208.021987 C569.765767,207.697252 571.15745,207.095137 570.585896,203.232135 C567.535355,182.614799 566.191021,181.446089 545.672583,181.912896 C502.193922,182.900634 460.105252,190.32389 420.279124,208.53277 C394.510171,220.314588 372.263544,236.559831 355.159209,259.413108 C353.006583,254.579281 353.177373,249.302326 352.267621,244.235095 C352.171235,243.086681 352.074849,241.938266 351.976772,240.789852 C352.125579,238.604651 352.272694,236.421142 352.41981,234.235941 C384.951021,204.823679 423.718591,188.186047 466.047381,178.986892 C495.264257,172.637632 524.875132,170.161522 554.743038,171.134038 C559.586025,171.291332 560.50254,170.161522 558.113175,166.039746 C555.468471,161.476533 552.975956,156.82537 550.383673,152.231712 C549.440102,150.560677 548.427201,149.161945 546.107167,149.033404 C523.522342,147.788584 502.342729,140.290909 480.841827,134.224101 C452.465373,126.215645 424.525192,127.715856 396.967175,138.027907 C394.948136,138.782241 392.967991,140.57167 390.531278,139.083298 C399.009888,129.12981 409.274179,121.537421 421.080652,115.988161 C439.88781,115.87315 458.485287,117.463002 476.695527,122.516702 C493.121776,127.076533 509.564935,131.575476 526.057132,135.879915 C530.088445,136.931924 534.270257,138.041438 539.615467,137.633827 C526.70478,122.065116 512.050686,110.746723 494.89393,102.565751 C493.221544,101.769133 490.461853,102.124313 490.360394,99.1458774 C502.03666,100.53277 513.882025,101.097674 524.778746,106.264693 C533.749433,114.459197 543.097209,122.263002 550.522334,132.021987 C555.782995,138.936152 557.851072,139.320085 565.577192,135.164482 C567.403458,134.18351 568.989604,132.756025 570.685664,131.533192 C573.277948,133.669345 575.871922,135.807188 578.462514,137.941649 C575.5946,145.258351 567.739965,145.02833 562.088686,148.48203 C565.896789,155.289641 569.628797,161.897674 572.363124,168.994503 C573.073338,170.839746 574.059184,172.123467 576.39951,172.319662 C585.419235,173.077378 594.418669,174.05666 603.426557,174.951374 C603.426557,174.951374 603.404574,174.873573 603.406265,174.871882 C603.888197,175.196617 604.370128,175.521353 604.850368,175.846089 C606.023913,179.25074 608.311819,182.242706 608.590832,185.978858 C599.831518,185.011416 591.067132,184.079493 582.314583,183.057928 C579.000248,182.670613 577.664368,183.509514 578.645141,187.162791 C580.167029,192.832135 581.480926,198.572516 582.529338,204.346723 C583.051853,207.22537 584.541613,208.082875 587.145733,208.27907 C597.660291,209.06723 607.036815,213.163636 616.000737,218.406765 C617.625776,223.049471 616.940926,227.901903 617.306179,232.656237 C614.992909,233.004651 614.057793,230.978436 612.661038,229.850317 C606.656342,225.004651 599.946506,221.605074 592.482488,219.683721 C584.982961,217.753911 584.533158,218.05666 584.802025,225.621987 C585.73545,251.759831 581.091999,276.820296 570.513184,300.771247 C561.080858,322.127696 547.136978,340.182664 530.249089,356.103171 C519.935759,360.561522 509.138806,362.973362 497.949544,363.724313" id="Fill-66" fill="#030303" sketch:type="MSShapeGroup"></path>
                <path d="M390.530433,139.082791 C392.968836,140.571163 394.947291,138.783425 396.96633,138.0274 C424.526038,127.715349 452.466218,126.215137 480.842673,134.223594 C502.341883,140.292093 523.521497,147.788076 546.106321,149.032896 C548.426355,149.161438 549.440948,150.560169 550.382827,152.231205 C552.975111,156.824863 555.467626,161.476025 558.11233,166.039239 C560.503385,170.162706 559.585179,171.290825 554.742192,171.133531 C524.874287,170.162706 495.263411,172.637125 466.046536,178.986385 C423.717746,188.185539 384.950175,204.823171 352.418965,234.235433 C349.495248,226.923805 352.403746,219.705201 353.345626,212.648964 C357.135128,184.287019 369.589248,159.931839 389.246973,139.211332 C389.607154,139.563129 389.967334,139.914926 390.327514,140.266723 C390.417136,139.855729 390.50845,139.443044 390.599763,139.032051 L390.530433,139.082791 Z" id="Fill-68" fill="#E46126" sketch:type="MSShapeGroup"></path>
                <path d="M530.249089,356.102664 C547.136978,340.182156 561.080858,322.127188 570.513184,300.77074 C581.091999,276.819789 585.73545,251.761015 584.802025,225.62148 C584.531467,218.057844 584.982961,217.753404 592.482488,219.684905 C599.946506,221.606258 606.656342,225.004144 612.661038,229.851501 C614.057793,230.977928 614.992909,233.004144 617.306179,232.655729 C616.82763,256.49167 610.893956,278.808795 598.762815,299.405835 C586.276566,320.608372 569.200978,337.16482 547.645965,348.894207 C542.189149,351.862495 536.656239,355.185962 530.249089,356.102664" id="Fill-70" fill="#E46126" sketch:type="MSShapeGroup"></path>
                <path d="M490.360394,99.14537 C490.461853,102.125497 493.221544,101.768626 494.89393,102.566934 C512.050686,110.746216 526.70478,122.0663 539.615467,137.633319 C534.270257,138.04093 530.088445,136.931416 526.057132,135.879408 C509.564935,131.574968 493.121776,127.076025 476.695527,122.517886 C458.485287,117.462495 439.88781,115.874334 421.080652,115.989345 C434.023467,107.661226 448.559192,103.977505 463.426351,100.941564 C472.390274,99.1115433 481.447201,100.599915 490.360394,99.14537" id="Fill-72" fill="#E46126" sketch:type="MSShapeGroup"></path>
                <path d="M616.001245,218.407442 C607.037322,213.164313 597.660798,209.067907 587.14624,208.279746 C584.540429,208.083552 583.052361,207.224355 582.529845,204.345708 C581.481433,198.571501 580.165845,192.831121 578.643957,187.161776 C577.664876,183.51019 579.000755,182.669598 582.31509,183.056913 C591.067639,184.080169 599.832026,185.010402 608.591339,185.977844 C612.73933,196.404905 616.038446,207.024778 616.001245,218.407442" id="Fill-74" fill="#E46126" sketch:type="MSShapeGroup"></path>
                <path d="M603.426895,174.952051 C594.419007,174.055645 585.417882,173.076364 576.399848,172.320338 C574.059522,172.124144 573.073676,170.838732 572.363462,168.99518 C569.629136,161.89666 565.895436,155.290317 562.089024,148.481015 C567.738612,145.029006 575.594938,145.259027 578.462852,137.942326 C586.675977,146.892854 594.239762,156.33556 600.259676,166.926681 C601.681797,169.429852 603.694071,171.758816 603.426895,174.952051" id="Fill-76" fill="#E46126" sketch:type="MSShapeGroup"></path>
                <path d="M570.686172,131.532854 C568.990112,132.755687 567.403966,134.183171 565.5777,135.165835 C557.851579,139.319746 555.783502,138.937505 550.522841,132.021649 C543.097717,122.262664 533.74994,114.458858 524.777562,106.264355 C537.940206,108.865624 549.259674,115.46351 560.0803,122.945962 C563.792017,125.513404 567.852077,127.811924 570.686172,131.532854" id="Fill-78" fill="#E46126" sketch:type="MSShapeGroup"></path>
                <path d="M351.97711,240.789175 C352.073496,241.93759 352.171573,243.087696 352.26796,244.234419 C351.011556,243.18241 351.060595,242.022156 351.97711,240.789175" id="Fill-80" fill="#E46126" sketch:type="MSShapeGroup"></path>
                <path d="M390.600101,139.032051 C390.508788,139.443044 390.417475,139.855729 390.326161,140.266723 C389.967672,139.914926 389.607492,139.563129 389.247312,139.211332 C389.697114,139.152135 390.148608,139.092939 390.600101,139.032051" id="Fill-82" fill="#030303" sketch:type="MSShapeGroup"></path>
                <path d="M604.851045,175.845581 C604.369113,175.520846 603.888873,175.19611 603.405251,174.873066 C603.887182,175.197801 604.369113,175.520846 604.851045,175.845581" id="Fill-84" fill="#E46126" sketch:type="MSShapeGroup"></path>
                <path d="M322.790165,257.399239 C323.297461,257.40093 323.804757,257.404313 324.312053,257.406004 C324.137882,257.849133 323.962019,258.292262 323.787847,258.735391 C323.454723,258.290571 323.123289,257.845751 322.790165,257.399239" id="Fill-86" fill="#030303" sketch:type="MSShapeGroup"></path>
            </g>
        </g>
    </g>
</svg>