<?xml version="1.0" encoding="UTF-8" standalone="no"?>
<svg width="800px" height="800px" viewBox="0 0 800 800" version="1.1" xmlns="http://www.w3.org/2000/svg" xmlns:xlink="http://www.w3.org/1999/xlink" xmlns:sketch="http://www.bohemiancoding.com/sketch/ns">
    <!-- Generator: Sketch 3.4.4 (17249) - http://www.bohemiancoding.com/sketch -->
    <title>thunder</title>
    <desc>Created with Sketch.</desc>
    <defs>
        <path id="path-1" d="M0,0.00428488372 L799.810442,0.00428488372 L799.810442,737 L0,737"></path>
    </defs>
    <g id="Page-1" stroke="none" stroke-width="1" fill="none" fill-rule="evenodd" sketch:type="MSPage">
        <g id="thunder" sketch:type="MSArtboardGroup">
            <g id="Page-1" sketch:type="MSLayerGroup" transform="translate(0.000000, 32.000000)">
                <path d="M0,101.770809 C21.2990629,91.4817318 42.6345382,81.266569 63.8597055,70.8275211 C67.3617135,69.106069 69.2444444,68.8468336 70.8701473,73.0588743 C72.7860776,78.0250545 75.3360107,82.7737769 77.9202142,87.4464426 C79.5266399,90.3515938 79.5951807,91.9370007 76.0685408,93.3660094 C70.9654618,95.4323946 66.2082999,98.3461156 61.1255689,100.475703 C57.6685408,101.925065 57.2551539,103.388352 58.9226238,106.777695 C78.1054886,145.790491 97.123427,184.883627 116.183133,223.956411 C127.82008,247.814643 139.373494,271.714653 151.17751,295.490402 C152.878179,298.916166 152.307363,300.31411 148.990629,301.757044 C143.604819,304.100876 138.33253,306.732866 133.139491,309.484832 C130.888353,310.677101 129.912718,310.446789 128.75502,308.059037 C108.851406,267.015207 88.8546185,226.01744 68.8738956,185.011102 C57.945917,162.584021 46.9601071,140.185863 36.1349398,117.709505 C34.6902276,114.707944 33.4746988,113.737418 30.2457831,115.556351 C25.2872825,118.349024 19.9228916,120.419694 14.9558233,123.19737 C11.9303882,124.888828 10.8669344,124.040421 9.47148594,121.203828 C6.43427041,115.028239 4.07817938,108.483079 0,102.84203 L0,101.770809" id="Fill-1" fill="#042E63" sketch:type="MSShapeGroup"></path>
                <path d="M366.575743,0.660514826 C366.308005,0.519113663 366.205194,0.300584593 366.265167,0.00492761628 L389.826078,0.00492761628 C389.561553,0.296299709 389.297028,0.588743023 389.044284,0.881186337 C381.559411,1.26254099 374.063829,1.35787965 366.575743,0.660514826" id="Fill-3" fill="#037DC3" sketch:type="MSShapeGroup"></path>
                <path d="M386.691084,517.745607 C385.409157,521.146733 384.316787,523.862278 383.367925,526.627099 C382.721071,528.512448 382.011031,530.260681 380.301794,531.493656 C372.239679,537.302887 365.499116,544.943906 356.106881,548.919207 C355.028434,549.375547 353.505542,549.734406 354.011031,551.461214 C354.489746,553.08947 355.898046,552.665266 357.129639,552.667409 C370.898849,552.68562 384.441017,550.661012 397.927497,548.15007 C399.471807,547.861912 401.315984,547.585537 401.275288,545.409887 C401.189612,540.785426 400.98506,536.162037 400.813708,531.538647 C400.750522,529.815053 400.111165,528.514591 398.257349,529.796842 C394.353735,532.499532 393.159625,529.945742 391.76739,526.924899 C390.437269,524.037958 388.701258,521.33741 386.691084,517.745607 L386.691084,517.745607 Z M458.759625,505.619386 C452.864043,507.019471 448.061901,509.188694 442.740348,508.672365 C441.990683,508.599522 440.898313,509.093355 440.417456,509.690025 C436.822276,514.15166 431.3283,515.196101 426.525087,517.317118 C411.3283,524.024032 411.321874,523.89013 412.574886,540.642954 C412.779438,543.373496 413.296707,544.475782 416.361767,543.647729 C427.88091,540.534761 439.380776,537.37573 450.613976,533.32223 C452.069398,532.797332 453.701526,532.547737 453.929639,530.406367 C454.792825,522.285441 456.651995,514.33591 458.759625,505.619386 L458.759625,505.619386 Z M517.414511,394.644111 C523.597108,393.254737 529.102865,391.961774 534.636466,390.80057 C536.817992,390.34423 537.280643,388.840236 537.7283,386.995593 C539.538206,379.553822 541.319197,372.099195 543.417189,364.736694 C544.356412,361.443761 543.812369,360.668197 540.359625,361.27665 C530.185596,363.069874 519.943025,364.467817 509.766854,366.246044 C496.222544,368.613442 486.292691,375.953448 481.893226,389.128394 C473.434859,414.4542 465.407015,439.927833 457.484123,465.428248 C455.984793,470.253027 454.462972,475.961563 459.167657,479.955075 C463.661365,483.770764 468.80407,481.321952 473.363106,479.474096 C488.053333,473.518108 502.628969,467.280389 517.258153,461.172287 C518.596841,460.613109 519.889478,460.129989 520.306078,458.501733 C523.547845,445.829189 526.813173,433.163073 530.261633,419.754601 C524.152932,421.679585 518.986667,423.557435 513.684391,424.896461 C509.815047,425.874486 507.211566,427.669852 506.925622,431.811192 C506.214511,442.11848 500.563106,447.724179 490.563641,449.286019 C490.29162,449.327797 489.997108,449.223889 489.264578,449.131764 C494.948112,429.763018 500.596305,410.501394 506.253066,391.242984 C507.427898,387.243045 515.406479,382.104399 518.430843,384.225416 C521.475556,386.361431 517.819331,389.793623 517.767925,392.720198 C517.761499,393.068345 517.645837,393.414349 517.414511,394.644111 L517.414511,394.644111 Z M396.483855,463.773211 C398.107416,464.308822 398.253066,465.48288 398.710361,466.409486 C404.075823,477.275951 409.513039,488.108137 414.726426,499.047445 C416.040482,501.804768 417.078233,502.75387 420.227898,501.228451 C427.916252,497.503816 435.755609,494.060912 443.681714,490.871887 C447.047711,489.516793 447.254404,488.148843 445.812905,485.04016 C440.491352,473.568455 435.585328,461.903931 430.279839,450.422585 C429.005408,447.664191 429.147845,445.74242 430.85494,443.23255 C440.381044,429.232764 449.824685,415.172989 459.03593,400.965386 C461.429505,397.273958 464.131513,394.743734 468.56739,394.264899 C470.326961,394.074221 472.222544,393.98531 472.918661,391.838583 C475.121606,385.041686 477.319197,378.242647 479.700991,370.884431 C471.483588,372.389496 464.175422,373.923484 456.799786,375.001133 C452.799786,375.586019 450.084926,377.400668 447.712771,380.61433 C436.491352,395.817098 425.112503,410.905245 413.720803,425.981608 C412.655207,427.391335 412.129371,429.69446 409.296707,429.470575 C415.38506,413.482602 421.415582,397.64353 427.451459,381.793745 C426.794967,381.553791 426.439411,381.28063 426.155609,381.341689 C411.705274,384.419307 397.262436,387.533346 382.813173,390.615249 C381.345971,390.929117 380.143293,391.435804 379.511432,392.94087 C375.828434,401.716311 372.116519,410.478899 368.104739,419.978486 C371.829505,419.064734 374.664311,418.370583 378.048514,417.541458 C360.912236,459.140181 344.588809,500.326483 328.469933,541.717389 C331.43004,542.548656 332.988273,541.027522 334.691084,540.245531 C345.373815,535.344695 355.827363,529.887896 366.724284,525.535525 C373.515181,522.822123 376.821205,518.475108 379.065917,511.730701 C384.434592,495.595971 390.626827,479.736545 396.483855,463.773211 L396.483855,463.773211 Z M347.800589,400.243383 C345.333119,400.546538 342.798179,400.588316 340.407818,401.195698 C323.318661,405.534143 306.261633,409.995778 289.189612,414.40171 C257.306345,422.6319 233.912503,441.047259 219.269398,470.926825 C200.053333,510.138867 181.687604,549.735477 163.80166,589.561329 C161.828969,593.955477 160.256814,598.51995 159.714913,603.358655 C158.800321,611.516002 162.651459,615.97978 170.741419,616.185454 C176.570602,616.332211 182.186667,615.04996 187.294029,612.47903 C213.864311,599.102694 240.580241,585.983451 266.76498,571.880827 C292.788005,557.863902 311.270469,536.922604 321.975689,508.950883 C331.144096,484.994098 341.48091,461.485083 351.28332,437.770394 C354.338742,430.377899 358.462972,423.389253 360.006212,415.420441 C362.001392,405.118509 358.175957,400.47798 347.800589,400.243383 L347.800589,400.243383 Z M321.162838,565.682743 C315.219063,567.938734 309.531245,570.732479 303.989076,573.833663 C296.07261,577.490811 288.233253,581.33221 280.205408,584.725838 C276.456011,586.311245 276.34249,587.384608 279.09162,590.336893 C314.938474,628.838716 355.733119,661.228152 400.227898,689.113104 C402.76498,690.703867 404.373548,690.499264 406.812102,688.958848 C423.555341,678.390182 439.924819,667.292333 455.738474,655.371787 C498.048514,623.474041 535.222276,586.550127 565.851459,543.174249 C604.698046,488.160627 629.866452,426.988556 647.553199,362.406788 C648.42174,359.232761 647.454672,358.070486 644.796573,356.751813 C577.710094,323.472192 507.758822,300.801944 432.247175,297.437239 C387.863775,295.458694 343.943025,297.890365 300.405676,306.899333 C251.719197,316.974166 205.979973,335.169925 161.508755,356.93392 C159.026292,358.149756 158.3366,359.246686 159.092691,362.218253 C166.439411,391.109082 175.692423,419.347537 187.298313,446.809357 C191.406479,456.532829 195.579973,466.227378 200.965783,476.293641 C206.943829,465.136875 215.7117,457.398375 223.120535,448.543663 C229.477697,442.310229 235.834859,436.077865 242.193092,429.845502 C246.603266,426.882505 251.037001,423.952716 255.41826,420.945798 C258.880643,418.568759 265.170335,417.847827 265.632985,414.449915 C266.068862,411.244822 261.606212,407.406637 259.374351,403.799836 C252.84905,393.253666 245.975689,382.893889 241.718661,371.12117 C245.466988,370.036024 248.731245,367.556147 252.762303,367.285128 C259.049853,381.714474 267.613173,394.81872 276.238608,407.901541 C277.928568,410.466044 279.562838,410.189669 282.051727,409.461239 C300.659491,404.011938 319.415047,399.098248 338.301258,394.708384 C345.675823,392.994431 353.249585,391.836441 360.039411,396.210236 C363.007015,398.121294 364.171138,397.141127 366.114913,395.15187 C370.982383,390.173906 374.898849,383.749794 383.102329,383.509841 C385.496975,383.440211 385.050388,381.656628 384.758019,379.948031 C382.091352,364.343556 379.492155,348.728368 376.873681,333.115323 C380.664846,331.598474 384.695904,331.658463 388.666988,331.328527 C390.930977,344.640589 393.239946,357.944082 395.443963,371.264714 C396.963641,380.453647 396.897242,380.45579 406.338742,378.471889 C416.819063,376.269458 427.303668,374.085239 438.522945,371.739265 C437.048246,375.791694 435.924819,378.880024 434.801392,381.968354 C437.751861,380.141922 439.923748,377.83237 442.180241,375.609586 C444.193628,373.625685 445.662972,370.578061 448.464578,369.994246 C461.941419,367.186576 475.492155,364.727053 488.919732,362.16255 C489.702597,364.523521 487.499652,366.037156 488.867256,368.025342 C495.003802,363.54014 501.77328,360.536436 509.304203,359.415939 C511.696707,359.060294 512.864043,357.910874 513.371673,355.356012 C514.893494,347.692498 516.726961,340.092185 517.312771,332.271201 C521.786131,332.50687 526.062436,333.611298 530.225221,335.212774 C529.484123,340.679214 528.925087,346.178862 527.938742,351.600311 C527.288675,355.174976 528.143293,356.454014 531.884123,355.808067 C538.841017,354.607229 545.837537,353.637774 553.392021,352.484069 C550.170602,365.317295 546.954538,377.49065 544.122945,389.752916 C543.116252,394.113857 541.212102,397.630675 538.065649,400.727575 C534.153467,404.579685 530.462972,408.657823 526.676091,412.63848 C530.128835,412.698468 532.832985,411.911121 535.525355,411.08521 C536.681981,410.730636 537.927497,409.718332 539.008086,410.665291 C540.19577,411.706518 538.982383,413.012336 538.703936,414.113551 C534.688942,429.999758 530.605408,445.868825 526.492959,461.730393 C526.141687,463.084416 525.824685,464.726598 524.897242,465.610355 C515.994431,474.095496 509.502329,485.264045 496.728032,489.43538 C489.489478,491.799564 482.715716,495.589544 475.723481,498.716438 C474.429772,499.294897 472.83834,499.583056 472.35427,501.105261 C469.67261,509.536841 467.162303,518.014483 465.872878,527.193775 C467.043427,526.976317 467.745971,526.962391 468.35427,526.714939 C493.349183,516.553338 515.182651,501.95581 532.876894,481.331593 C540.298581,472.681484 546.244498,462.953727 553.539813,454.233989 C551.994431,467.186121 547.335797,479.052035 540.963641,490.320208 C533.00755,498.725008 524.901526,506.945557 515.607818,513.937416 C501.13071,524.828519 485.102865,532.798403 468.418527,539.596371 C466.70822,540.293736 464.800857,540.445849 464.451727,543.164608 C462.868862,555.460082 470.54008,565.484567 482.758554,566.725041 C478.592557,570.624285 474.091352,574.081115 469.190683,577.013047 C459.570335,570.924227 454.975957,561.805995 453.953199,550.814197 C453.506613,546.012984 452.071539,545.242777 447.461098,546.803545 C437.710094,550.105048 427.773815,552.939499 417.768996,555.372242 C413.661901,556.37062 412.419598,558.04708 412.403534,562.122005 C412.339277,577.670777 410.432985,592.967811 404.867256,607.630684 C398.939545,609.730277 392.942222,611.517073 386.588273,611.713107 C390.828166,606.905467 394.657885,601.906079 396.363909,595.508748 C399.219063,584.802966 400.456011,573.917218 400.783722,562.872931 C400.869398,559.981705 399.909826,559.724612 397.394163,560.274149 C384.518126,563.086104 371.396841,563.888448 358.283052,564.537608 C355.482517,564.675795 354.749987,565.569194 354.565783,568.245104 C353.924284,577.615073 350.46083,585.816341 343.647443,592.452554 C340.262169,590.689325 338.66324,587.137156 335.920535,584.729051 C338.621473,579.589333 342.242356,574.824543 342.59577,568.720726 C342.679304,567.272435 343.700991,564.862188 341.373815,564.789345 C334.633253,564.579386 327.710629,561.525335 321.162838,565.682743 L321.162838,565.682743 Z M186.334458,631.857416 C181.034324,634.265521 175.774886,636.76575 170.425489,639.058163 C163.118394,642.190413 155.517858,643.737256 147.521071,642.768873 C139.574618,641.807987 134.127764,635.787726 133.759357,627.683939 C133.39095,619.583367 136.183989,612.26907 139.43004,605.136881 C152.829772,575.694374 166.354806,546.309713 179.833788,516.906841 C183.146238,510.296336 186.436198,503.670835 189.792557,497.079612 C190.487604,495.715948 190.671807,494.56867 189.854672,493.134306 C187.762035,489.466445 185.835395,485.704317 183.843427,481.978611 C168.788005,450.573627 156.243963,418.224897 147.379705,384.506076 C144.706613,374.338047 142.409424,364.068252 139.53178,353.961282 C138.486533,350.288066 139.812369,349.007957 142.771406,347.506105 C175.064846,331.124995 208.077965,316.5039 242.488675,305.058976 C303.803802,284.665072 366.741419,277.585373 431.124819,280.417681 C504.441017,283.643127 573.158554,303.79065 638.959893,335.241697 C647.479304,339.313407 655.856278,343.690416 664.43245,347.637865 C667.507149,349.052948 668.134726,350.63407 667.200857,353.800599 C665.239946,360.452881 663.682784,367.224069 661.960696,373.94598 C659.325087,382.799621 656.690549,391.654333 654.056011,400.507974 C648.965783,414.80556 643.876627,429.104217 638.78747,443.401803 C633.729371,454.899217 628.672343,466.39556 623.614244,477.892974 C611.500723,502.343592 598.217724,526.107557 582.718929,548.610695 C546.061365,601.833236 500.030843,645.536907 447.265114,682.428685 C434.265917,691.516923 420.934726,700.090976 407.450388,708.444357 C404.467791,710.292213 402.473681,710.461466 399.403266,708.575045 C358.257349,683.296374 319.834859,654.509454 285.276359,620.683511 C284.533119,619.956152 283.578902,619.443037 282.723213,618.830298 C276.073681,611.704537 269.36739,604.631265 262.808889,597.423019 C260.87261,595.295575 259.375422,594.78246 256.528835,596.233964 C244.694833,602.266009 232.618795,607.823503 220.739813,613.770922 C209.834324,619.230935 198.620402,624.139269 188.493494,631.061499 C187.626024,631.034718 186.542222,630.475541 186.286265,631.95704 L186.334458,631.857416 Z" id="Fill-5" fill="#042E63" sketch:type="MSShapeGroup"></path>
                <path d="M366.575743,0.660514826 C374.063829,1.35787965 381.559411,1.26254099 389.044284,0.881186337 C392.443481,10.8446122 393.120321,21.3575744 394.992343,31.6145148 C401.484444,67.1919044 408.816171,102.623608 413.953521,138.440951 C414.578956,142.799749 415.164766,147.164974 416.103989,151.490564 C417.191004,141.894567 415.993681,132.363915 415.723802,122.821478 C414.826345,91.0801311 415.533173,59.3409262 415.785917,27.6027924 C415.84589,19.9478477 416.348166,12.2961166 416.420991,4.6411718 C416.445622,2.02203663 417.295957,1.2786093 419.854458,1.38144651 C425.732905,1.6160439 431.628487,1.75316017 437.503722,1.55069942 C441.053922,1.42965145 441.991004,2.61656424 441.904257,6.12695523 C441.336653,28.9353913 440.985382,51.7491834 440.577349,74.5619044 C440.101847,101.127112 439.638126,127.69232 439.175475,154.258599 C438.663561,183.675397 438.124873,213.092195 437.703989,242.511135 C437.663293,245.342372 437.253119,246.756384 433.912825,246.4543 C428.954324,246.004387 423.921928,245.671237 418.973066,246.025811 C414.716037,246.331109 413.32166,245.018864 412.641606,240.784327 C405.300241,195.046407 395.393949,149.756258 388.624471,103.9155 C388.199304,100.104096 387.774137,96.2926922 387.348969,92.4823593 C386.409746,96.3216151 386.384043,100.116951 386.92166,103.918714 C387.343614,126.723936 388.092209,149.528087 388.094351,172.33331 C388.095422,195.328138 387.302918,218.321896 386.997697,241.318867 C386.95593,244.44576 386.33585,245.627317 382.84241,245.369153 C376.806533,244.922454 370.71925,245.016721 364.658742,245.143125 C362.029558,245.198829 361.255261,244.260439 361.304525,241.76021 C361.937456,210.215967 362.484712,178.670653 363.10158,147.12641 C363.867309,107.912226 364.678019,68.7001834 365.46838,29.4892125 C365.46838,29.4913549 365.729692,29.4731442 365.729692,29.4731442 L365.478019,29.4110134 C365.800375,19.8257285 364.558072,10.1804552 366.575743,0.660514826" id="Fill-7" fill="#042E63" sketch:type="MSShapeGroup"></path>
                <path d="M771.016653,117.542609 C771.285462,115.899356 770.015315,115.673328 769.123213,115.234128 C763.217992,112.32362 757.22174,109.590936 751.39577,106.531529 C748.59095,105.0586 748.042624,106.864679 747.161232,108.671828 C735.848782,131.876616 724.555609,155.091045 713.152129,178.251913 C712.010495,180.570035 712.287871,181.578054 714.669665,182.649275 C720.022276,185.057379 725.340616,187.585461 730.471539,190.428481 C733.896439,192.327756 735.231914,191.200831 736.763373,188.011807 C747.713842,165.222652 758.845301,142.520267 769.918929,119.79003 C770.308755,118.9909 770.699652,118.191769 771.016653,117.542609 M703.646372,327.844702 C697.174618,324.712452 691.314378,321.683039 685.287068,319.032839 C681.804337,317.502064 680.869398,315.881307 681.906078,311.840661 C690.446908,278.535331 698.621473,245.136805 707.029505,211.798267 C707.737403,208.99274 707.750254,207.37841 704.740884,205.945116 C701.459491,204.382205 700.080107,204.861041 698.462972,208.228959 C684.116519,238.102097 669.471272,267.832763 655.17087,297.728397 C653.039679,302.183605 651.174083,302.843477 647.017724,300.308968 C642.63004,297.633058 637.851459,295.533465 633.084659,293.569917 C630.014244,292.305876 629.692959,291.120035 631.18158,288.109904 C643.578902,263.037978 655.769531,237.863215 668.028701,212.722731 C690.28091,167.086577 712.581312,121.47399 734.711432,75.7778472 C736.49992,72.0842775 737.928568,71.374058 741.709023,73.3108254 C755.020937,80.1312891 768.562035,86.5039824 781.958554,93.1626917 C795.895904,100.090277 800.921874,114.275385 794.162035,128.288026 C781.233521,155.087831 768.144364,181.81158 755.010228,208.511761 C749.846104,219.007584 744.290013,221.830251 733.230308,219.783148 C729.042892,219.007584 730.080643,222.457987 729.65012,224.13659 C724.11759,245.704552 718.777831,267.320719 713.383454,288.922961 C710.192021,301.701555 706.99095,314.476936 703.646372,327.844702" id="Fill-9" fill="#042E63" sketch:type="MSShapeGroup"></path>
                <path d="M507.99925,229.302553 C510.936867,230.223803 510.514913,227.495403 510.841553,225.442944 C515.373815,196.946325 519.923213,168.452919 524.442624,139.954158 C529.602463,107.413679 534.692691,74.8635602 539.945703,42.3391503 C540.469398,39.0997782 539.654404,37.8485922 536.430843,37.4725936 C531.13178,36.8555703 525.802731,36.1978407 520.619331,34.9852186 C516.471539,34.0157637 515.231379,35.2133887 514.607015,39.3333044 C510.527764,66.2734395 506.159357,93.1696547 501.908755,120.083009 C496.51759,154.213179 491.173548,188.351919 485.708487,222.470306 C485.366854,224.600964 485.275823,225.826441 487.808621,226.187442 C494.325355,227.114049 500.822811,228.184198 507.99925,229.302553 M565.69992,40.9990529 C564.065649,51.5002317 562.097242,64.350598 560.063507,77.190252 C551.871807,128.921653 543.647979,180.647698 535.462704,232.380171 C532.98988,248.011426 520.749987,257.018252 505.209424,254.558729 C490.256814,252.192402 475.320268,249.703956 460.333387,247.572226 C456.691084,247.053755 456.18988,245.964323 456.753199,242.45179 C465.647443,187.034317 474.362838,131.587922 483.123213,76.1479541 C486.653066,53.8076416 490.251459,31.4769701 493.662436,9.1184468 C494.165783,5.81801512 495.353467,5.23634215 498.530977,5.77195262 C513.636734,8.32038721 528.802463,10.5046067 543.92,12.9876968 C557.281178,15.1815573 565.838072,25.3645834 565.69992,40.9990529" id="Fill-11" fill="#042E63" sketch:type="MSShapeGroup"></path>
                <path d="M252.69826,261.206833 C252.896386,262.787955 251.665863,262.951852 250.70415,263.271076 C244.287015,265.401734 237.838822,267.441339 231.439893,269.625558 C227.789023,270.871388 228.14672,267.692005 227.604819,266.044467 C220.758233,245.22743 214.057296,224.36326 207.280321,203.523728 C203.644444,192.342324 199.694779,181.256259 196.390897,169.978445 C195.262115,166.126334 193.727443,166.395211 190.824096,167.453577 C185.810977,169.280009 180.766801,171.138577 175.589826,172.362983 C171.446319,173.342079 171.323159,175.066744 172.511914,178.671403 C182.722356,209.627545 192.74324,240.645818 202.813387,271.648023 C204.941365,278.198539 204.928514,278.204967 198.241499,280.396685 C194.012316,281.781773 189.674967,282.906555 185.579652,284.615153 C181.596787,286.277688 180.260241,284.993294 179.005087,281.103691 C154.998661,206.684901 130.881928,132.301462 106.597055,57.9726557 C105.303347,54.0134231 106.100134,52.6743969 109.76921,51.6685205 C115.08755,50.21166 120.399465,48.6273243 125.531459,46.6294972 C128.763588,45.3708126 129.729585,46.3113446 130.697724,49.3364725 C140.690763,80.5518504 150.842303,111.716881 160.911379,142.908692 C163.157162,149.866272 163.084337,149.880198 170.235074,147.499945 C174.458902,146.094503 178.633467,144.476959 182.942972,143.40681 C186.666667,142.481275 187.001874,140.913007 185.853815,137.430468 C175.425971,105.799457 165.253012,74.0827472 154.83909,42.4463795 C153.683534,38.9349173 153.456493,37.1138417 157.812048,36.1615263 C162.831593,35.0645961 167.771888,33.3420728 172.517269,31.3485307 C176.365194,29.7320583 177.898795,30.4454914 179.172155,34.5321993 C184.522624,51.7092269 190.256493,68.7662778 195.814726,85.8790321 C214.358233,142.97725 232.886747,200.081895 251.419545,257.184398 C251.859705,258.539493 252.282731,259.898872 252.69826,261.206833" id="Fill-13" fill="#042E63" sketch:type="MSShapeGroup"></path>
                <path d="M303.264578,255.163005 C284.642892,255.110515 268.837805,241.940925 265.777028,223.35417 C260.564712,191.703877 255.644766,160.004307 250.625221,128.322948 C245.019866,92.9490903 239.505542,57.5602356 233.759893,22.2099449 C233.104471,18.1757269 233.540348,16.3610786 238.076894,16.0547094 C243.394163,15.6969217 248.73071,14.845301 253.918394,13.6187531 C257.688139,12.7274972 258.345703,14.1993548 258.843695,17.41516 C263.562303,47.8881818 268.429772,78.3376368 273.241553,108.796733 C279.358822,147.520298 285.510361,186.239579 291.499116,224.983497 C292.071004,228.684566 293.460027,229.67116 296.999518,228.956656 C302.404605,227.865082 307.857885,226.932048 313.334726,226.31931 C316.634324,225.95081 317.357216,224.822814 316.824953,221.52881 C309.439679,175.779106 302.191486,130.006907 294.9283,84.2368504 C291.214244,60.8296019 287.606212,37.4041426 283.774351,14.0151048 C283.159625,10.267974 283.625489,8.54330828 287.90929,8.2369391 C293.217992,7.85772689 298.508487,6.83578212 303.726158,5.71956991 C307.051459,5.00827922 308.273414,5.52782137 308.857082,9.27816584 C316.779973,60.1761571 324.923481,111.039869 332.985596,161.917507 C335.690817,178.989555 338.671272,196.028395 340.893494,213.164717 C343.770067,235.348631 325.682784,255.226207 303.264578,255.163005" id="Fill-15" fill="#042E63" sketch:type="MSShapeGroup"></path>
                <path d="M638.536011,37.1559407 C641.467202,36.8142212 644.547256,37.7943884 647.596252,38.7820541 C661.65676,43.3358142 675.664793,48.0566849 689.774565,52.4486907 C693.135207,53.4952735 693.868809,54.7357474 692.612584,58.0201108 C690.644177,63.1662561 688.956359,68.4420192 687.522356,73.7638448 C686.597055,77.1938942 685.332262,78.0872924 681.737082,76.8478898 C668.441232,72.2641355 654.976171,68.1710003 641.682463,63.5818898 C638.446051,62.4656776 637.401874,63.253025 636.447657,66.220307 C628.708969,90.3013535 620.893173,114.357762 612.976707,138.380963 C611.979652,141.40609 612.449799,142.783681 615.656225,143.760634 C625.365462,146.720417 634.957965,150.059413 644.641499,153.103823 C647.181794,153.901883 647.962517,154.784569 646.911914,157.564387 C644.774297,163.221505 642.984739,169.021095 641.303347,174.835682 C640.469076,177.72048 639.319946,178.306438 636.398394,177.29092 C626.982597,174.016198 617.412584,171.182819 607.986078,167.937019 C605.097724,166.942926 603.774029,166.866869 602.668809,170.348338 C594.965462,194.614705 587.082195,218.824298 579.002945,242.967476 C577.831325,246.469297 579.134672,247.234149 581.898795,248.114692 C595.468809,252.435997 608.965997,256.992971 622.574565,261.184659 C625.693173,262.145544 625.96091,263.403157 624.987416,266.106919 C622.936546,271.802601 620.971352,277.54006 619.294244,283.353576 C618.573494,285.850592 617.715663,286.448333 615.206426,285.614923 C599.666934,280.450567 583.952878,275.781115 568.550469,270.24076 C555.647657,265.59916 549.542169,252.162836 553.815261,238.729726 C563.318876,208.85873 573.046319,179.058435 582.739491,149.248499 C592.982062,117.748176 603.239625,86.2532096 613.593574,54.7893084 C617.371888,43.3068913 626.277912,37.0681006 638.536011,37.1559407" id="Fill-17" fill="#042E63" sketch:type="MSShapeGroup"></path>
                <path d="M188.49328,631.061392 C198.620187,624.139162 209.83411,619.231899 220.739598,613.770815 C232.618581,607.823396 244.694618,602.265902 256.528621,596.233857 C259.375207,594.782353 260.873467,595.295467 262.808675,597.422912 C269.367175,604.631158 276.073467,611.705501 282.722999,618.830191 C264.278019,627.680619 245.786988,636.43785 227.396627,645.399684 C189.288996,663.968228 151.384846,682.945978 113.937992,702.821411 C92.8659705,714.004957 71.8689157,725.330976 50.8386613,736.593793 C50.6159036,736.312062 50.3931459,736.030331 50.1703882,735.7486 C65.5235341,721.434946 82.0204552,708.488169 98.5130924,695.548892 C126.221794,673.810606 154.977885,653.532393 184.485783,634.312547 C185.30506,633.779079 187.076412,633.679456 186.335315,631.85838 C186.334244,631.85838 186.286051,631.956933 186.286051,631.956933 C187.595823,633.073145 188.007068,631.976215 188.49328,631.061392" id="Fill-19" fill="#037DC3" sketch:type="MSShapeGroup"></path>
                <path d="M183.843427,481.978932 C185.835395,485.703567 187.762035,489.466767 189.853601,493.134627 C190.671807,494.568992 190.487604,495.716269 189.792557,497.079934 C186.436198,503.671156 183.146238,510.296658 179.833788,516.907162 C145.136064,527.083761 110.85494,538.564035 76.6198661,550.172857 C56.0490495,557.147576 35.6142436,564.524003 15.1076841,571.6894 C13.0996519,572.39105 11.0177242,572.881669 8.97113788,573.470841 C8.81906292,573.336938 8.66912985,573.201964 8.52026774,573.064848 C25.1371352,561.764538 42.6461044,551.946799 60.1422222,542.122631 C100.187202,519.636633 141.523748,499.793336 183.843427,481.978932" id="Fill-21" fill="#EE5033" sketch:type="MSShapeGroup"></path>
                <path d="M623.614351,477.893189 C628.67245,466.395774 633.729478,454.89836 638.787577,443.402017 C669.332155,436.32446 700.166961,430.806601 731.187041,426.314972 C753.904043,423.024181 776.704578,420.41683 799.764284,419.225632 C789.61917,422.400731 779.46656,425.553334 769.330013,428.755213 C721.448889,443.880853 673.937242,460.100209 626.677269,477.061921 C625.684498,477.417566 624.637108,477.620027 623.614351,477.893189" id="Fill-23" fill="#037DC3" sketch:type="MSShapeGroup"></path>
                <path d="M654.055582,400.50776 C656.69012,391.654119 659.32573,382.800478 661.960268,373.946837 C686.373655,373.504423 710.778474,372.534968 735.205783,373.229119 C756.747952,373.842929 778.294404,374.301411 799.809799,376.561687 C751.086908,383.773147 702.524659,391.855509 654.055582,400.50776" id="Fill-25" fill="#EE5033" sketch:type="MSShapeGroup"></path>
                <g id="Group-29">
                    <mask id="mask-2" sketch:name="Clip 28" fill="white">
                        <use xlink:href="#path-1"></use>
                    </mask>
                    <g id="Clip-28"></g>
                    <path d="M50.8382329,736.593365 C50.0275234,736.971506 49.2189558,737.302513 48.4350201,736.537661 C49.0133333,736.274141 49.5916466,736.011692 50.1699598,735.749242 C50.3927175,736.030974 50.6154752,736.311633 50.8382329,736.593365" id="Fill-27" fill="#037DC3" sketch:type="MSShapeGroup" mask="url(#mask-2)"></path>
                </g>
                <path d="M8.97092369,573.470734 C8.55325301,573.603565 8.13558233,573.736396 7.7168407,573.869228 C7.48551539,573.101162 8.09702811,573.177219 8.5211245,573.064741 C8.66891566,573.201857 8.81884873,573.336831 8.97092369,573.470734" id="Fill-30" fill="#EE5033" sketch:type="MSShapeGroup"></path>
                <path d="M365.477697,29.4112276 L365.729371,29.4733584 C365.729371,29.4733584 365.46913,29.4915692 365.46913,29.4894267 C365.468059,29.4862131 365.477697,29.4112276 365.477697,29.4112276" id="Fill-32" fill="#037DC3" sketch:type="MSShapeGroup"></path>
                <path d="M540.963213,490.320208 C547.335368,479.052035 551.995074,467.186121 553.540455,454.233989 C554.651031,452.830689 555.412477,451.285989 555.805515,449.512047 C563.573119,414.483123 563.285033,379.59667 554.005248,344.865545 C553.516894,343.038043 553.465489,341.09699 550.857724,340.504605 C543.9351,338.934195 537.295207,336.234718 530.224793,335.212774 C526.062008,333.611298 521.786774,332.50687 517.312343,332.27013 C513.481553,330.677224 509.504043,329.829889 505.342329,329.916657 C504.300295,328.677255 502.758126,328.817585 501.39909,328.562634 C453.696814,319.619011 405.863882,316.925961 357.481553,323.163681 C302.457189,330.257306 250.003106,345.6154 199.590254,368.498822 C195.693066,370.267407 194.891995,371.835675 196.142865,376.037003 C203.51743,400.8197 212.864685,424.845043 223.12332,448.541521 C215.711272,457.398375 206.9434,465.136875 200.965355,476.293641 C195.580616,466.227378 191.407122,456.532829 187.297885,446.809357 C175.693066,419.347537 166.438983,391.109082 159.092262,362.218253 C158.337242,359.246686 159.025863,358.149756 161.509398,356.93392 C205.980616,335.169925 251.719839,316.974166 300.406319,306.899333 C343.942597,297.890365 387.864418,295.458694 432.247818,297.437239 C507.759465,300.801944 577.709665,323.473264 644.797216,356.751813 C647.454244,358.070486 648.422383,359.232761 647.552771,362.406788 C629.866024,426.988556 604.697617,488.160627 565.851031,543.174249 C535.221847,586.550127 498.048086,623.474041 455.738046,655.371787 C439.925462,667.293405 423.555984,678.390182 406.812744,688.958848 C404.373119,690.499264 402.765622,690.703867 400.22747,689.113104 C355.732691,661.228152 314.938046,628.838716 279.091191,590.336893 C276.343133,587.384608 276.455582,586.311245 280.20498,584.725838 C288.232825,581.33221 296.072182,577.490811 303.988648,573.833663 C304.369906,574.428191 304.682624,575.079493 305.138849,575.607605 C333.213815,608.088095 364.913949,636.55472 400.057189,661.186374 C407.726265,666.560689 407.808728,666.452496 415.451031,660.854295 C415.868701,660.547926 416.167497,660.07766 416.521981,659.684522 C417.000696,659.479919 417.528675,659.34923 417.949558,659.061072 C469.912075,623.425836 514.366158,580.159223 550.811673,528.678487 C584.354913,481.299457 608.987845,429.638756 625.885301,374.177364 C626.99909,370.523429 626.396145,368.860894 622.806319,367.300125 C611.544203,362.404646 600.256386,357.589508 588.740455,353.326048 C579.667363,349.965628 570.628541,346.474519 560.721178,343.872524 C561.085301,345.768585 561.256653,346.969423 561.550094,348.140268 C568.829344,377.21856 570.691727,406.699631 565.355181,436.148566 C549.667898,522.709644 499.682356,580.61342 417.3434,610.842204 C402.577135,616.263653 386.994806,618.365389 371.652369,621.403371 C369.589719,619.494455 367.06656,618.001173 366.036305,615.163509 C372.654779,614.457575 379.31502,614.020516 385.758929,612.167304 C386.136975,612.11053 386.818099,612.59365 386.693869,611.642406 L386.588916,611.712035 C392.941794,611.517073 398.939116,609.730277 404.867898,607.629612 C428.257456,601.519368 449.666827,591.248502 469.191325,577.013047 C474.090924,574.081115 478.593199,570.624285 482.759197,566.725041 C483.363213,566.353327 484.026131,566.051243 484.561606,565.599188 C505.912075,547.538403 523.169371,526.140765 536.30672,501.476974 C538.177671,497.96337 541.045676,494.710072 540.963213,490.320208" id="Fill-34" fill="#FCFBFC" sketch:type="MSShapeGroup"></path>
                <path d="M232.079893,554.781463 C242.877216,549.890269 252.540402,545.445773 262.273199,541.158747 C264.384043,540.227856 264.923802,538.473196 265.683106,536.682115 C279.224203,504.726523 293.166908,472.946612 307.539063,441.356306 C307.966372,440.418988 309.342544,439.421681 307.845355,437.994815 C299.76075,440.522897 291.656867,443.170955 283.471593,445.539424 C281.210817,446.19394 280.390469,447.723644 279.55834,449.497585 C263.385917,483.963048 247.679357,518.638469 232.079893,554.781463 M347.800375,400.243918 C358.175743,400.478516 362.001178,405.117974 360.005997,415.420976 C358.462758,423.389789 354.338527,430.378434 351.283106,437.77093 C341.480696,461.485619 331.143882,484.993562 321.975475,508.950347 C311.271325,536.923139 292.787791,557.863366 266.764766,571.880292 C240.581098,585.983987 213.864096,599.103229 187.293815,612.479565 C182.186452,615.050495 176.570388,616.332747 170.742276,616.184918 C162.651245,615.980315 158.800107,611.515466 159.714699,603.35919 C160.257671,598.520485 161.828755,593.954942 163.801446,589.561865 C181.68739,549.734942 200.053119,510.138331 219.269183,470.92736 C233.912289,441.047795 257.306131,422.632436 289.189398,414.402245 C306.261419,409.996314 323.319518,405.533607 340.407604,401.195162 C342.799036,400.588851 345.332905,400.547074 347.800375,400.243918" id="Fill-36" fill="#FDFDFD" sketch:type="MSShapeGroup"></path>
                <path d="M396.484284,463.772783 C390.627256,479.736117 384.433949,495.596614 379.065274,511.730273 C376.820562,518.475751 373.515609,522.822765 366.724712,525.535097 C355.827791,529.888539 345.373173,535.345338 334.691513,540.246174 C332.987631,541.027094 331.429398,542.549299 328.470361,541.71696 C344.589237,500.326055 360.911593,459.139752 378.047871,417.54103 C374.664739,418.371226 371.829933,419.065377 368.104096,419.978057 C372.115877,410.47847 375.828862,401.715883 379.511861,392.940441 C380.142651,391.436447 381.346399,390.928688 382.81253,390.615892 C397.262865,387.533989 411.704632,384.418879 426.156037,381.341261 C426.439839,381.281273 426.795395,381.554434 427.450817,381.793316 C421.416011,397.644172 415.384418,413.483245 409.297135,429.471217 C412.128728,429.695102 412.655636,427.390906 413.720161,425.982251 C425.112932,410.905887 436.49178,395.817741 447.713199,380.613902 C450.085355,377.400239 452.800214,375.585591 456.799143,375.001775 C464.174779,373.923056 471.484016,372.390139 479.700348,370.885073 C477.319625,378.24329 475.122035,385.041258 472.918019,391.838155 C472.221901,393.984882 470.326319,394.073793 468.566747,394.26447 C464.13087,394.744377 461.429933,397.274601 459.036359,400.966028 C449.824043,415.173632 440.380402,429.232335 430.855368,443.233193 C429.147202,445.741992 429.005837,447.663762 430.280268,450.423227 C435.584685,461.903502 440.49178,473.568027 445.812262,485.040803 C447.253762,488.148415 447.048139,489.517435 443.681071,490.871459 C435.756037,494.061555 427.91668,497.503387 420.228327,501.228023 C417.078661,502.754512 416.04091,501.804339 414.726854,499.047017 C409.513467,488.10878 404.076252,477.276594 398.71079,466.410129 C398.253494,465.483523 398.107845,464.309464 396.484284,463.772783" id="Fill-38" fill="#FCFBFC" sketch:type="MSShapeGroup"></path>
                <path d="M376.873896,333.11543 C379.492369,348.728475 382.091566,364.343663 384.758233,379.948138 C385.050602,381.656735 385.497189,383.440318 383.102544,383.509948 C374.899063,383.749901 370.981526,390.174013 366.115127,395.151977 C364.170281,397.141234 363.006158,398.121401 360.039625,396.210343 C353.249799,391.836548 345.676037,392.994538 338.301473,394.708491 C319.41419,399.098355 300.659705,404.012045 282.051941,409.461346 C279.561981,410.189776 277.928782,410.466151 276.238822,407.901648 C267.613387,394.818827 259.050067,381.714581 252.762517,367.285235 C254.002677,366.629648 255.187149,365.827304 256.489424,365.340969 C270.284337,360.193753 284.029987,354.906206 298.14083,350.649174 C323.953949,342.859256 350.099063,336.578688 376.873896,333.11543" id="Fill-40" fill="#EE5033" sketch:type="MSShapeGroup"></path>
                <path d="M376.873896,333.11543 C350.099063,336.578688 323.953949,342.859256 298.14083,350.649174 C284.029987,354.906206 270.284337,360.193753 256.489424,365.340969 C255.187149,365.827304 254.002677,366.629648 252.762517,367.285235 C248.731459,367.556254 245.467202,370.036131 241.723159,371.115922 C237.405087,373.173737 233.154485,375.414731 228.73253,377.237949 C225.812048,378.442001 225.276573,379.878509 226.174029,382.92399 C230.853012,398.795199 236.446586,414.343971 242.192236,429.845609 C235.835074,436.077972 229.477912,442.310336 223.121821,448.542699 C212.864257,424.84515 203.518072,400.819807 196.142436,376.03711 C194.891566,371.835782 195.693708,370.267515 199.589826,368.498929 C250.002677,345.615507 302.45676,330.257413 357.481124,323.163788 C405.864525,316.926068 453.696386,319.619118 501.398661,328.562741 C502.757697,328.817692 504.300937,328.677362 505.344043,329.916765 C494.174029,329.21083 483.010442,328.122469 471.829719,327.873946 C444.046051,327.257994 416.290228,327.857878 388.666131,331.328634 C384.695047,331.65857 380.66506,331.598581 376.873896,333.11543" id="Fill-42" fill="#FDB933" sketch:type="MSShapeGroup"></path>
                <path d="M388.666452,331.328955 C416.290549,327.857128 444.046372,327.257244 471.828969,327.874268 C483.010763,328.12172 494.174351,329.211151 505.343293,329.916015 C509.503936,329.829246 513.481446,330.676582 517.312236,332.270558 C516.726426,340.091542 514.894029,347.692926 513.372209,355.355369 C512.864578,357.911302 511.697242,359.059651 509.303668,359.416368 C501.772744,360.536865 495.003266,363.540568 488.86672,368.02577 C487.499116,366.037584 489.702062,364.522878 488.920268,362.162978 C475.49162,364.727481 461.941954,367.187005 448.464043,369.994675 C445.663507,370.57849 444.193092,373.626114 442.179705,375.608943 C439.923213,377.832798 437.752396,380.14235 434.800857,381.968782 C435.925355,378.880452 437.048782,375.792122 438.523481,371.739693 C427.303133,374.085667 416.819598,376.269887 406.339277,378.471246 C396.896707,380.455147 396.963106,380.453005 395.443427,371.265143 C393.239411,357.943439 390.930442,344.639946 388.666452,331.328955" id="Fill-44" fill="#EE5033" sketch:type="MSShapeGroup"></path>
                <path d="M517.414833,394.644325 C517.645087,393.414564 517.761821,393.068559 517.767175,392.720412 C517.818581,389.793837 521.474806,386.361645 518.430094,384.22563 C515.40573,382.104613 507.42822,387.24326 506.253387,391.243199 C500.596627,410.501609 494.947363,429.763232 489.263829,449.131978 C489.996359,449.224103 490.291941,449.328011 490.562892,449.286234 C500.563427,447.724393 506.214833,442.118694 506.925944,431.811407 C507.211888,427.668995 509.814297,425.8747 513.684712,424.896675 C518.986988,423.557649 524.153253,421.679799 530.260884,419.754815 C526.812423,433.163287 523.548166,445.829404 520.305328,458.500876 C519.888728,460.130203 518.596091,460.613324 517.258474,461.172501 C502.62929,467.280603 488.053655,473.518322 473.363427,479.473239 C468.804391,481.322167 463.660616,483.770978 459.166908,479.955289 C454.463293,475.961777 455.985114,470.253241 457.483373,465.428462 C465.407336,439.928048 473.43411,414.454414 481.892477,389.127537 C486.293012,375.953662 496.222865,368.613657 509.767175,366.246258 C519.943347,364.468032 530.185917,363.070088 540.358876,361.276864 C543.812691,360.668411 544.355663,361.443975 543.41751,364.736908 C541.318447,372.099409 539.538527,379.554036 537.728621,386.995808 C537.279893,388.84045 536.817242,390.343373 534.636787,390.800784 C529.103186,391.960917 523.59743,393.254952 517.414833,394.644325" id="Fill-46" fill="#FCFBFC" sketch:type="MSShapeGroup"></path>
                <path d="M530.225221,335.212774 C537.295636,336.234718 543.934458,338.934195 550.857082,340.504605 C553.465917,341.09699 553.517323,343.038043 554.004605,344.865545 C563.285462,379.59667 563.572477,414.483123 555.804873,449.512047 C555.411834,451.285989 554.651459,452.830689 553.539813,454.233989 C546.244498,462.953727 540.298581,472.681484 532.875823,481.331593 C515.182651,501.95581 493.349183,516.553338 468.353199,526.714939 C467.745971,526.962391 467.043427,526.976317 465.872878,527.193775 C467.162303,518.015554 469.67261,509.536841 472.35427,501.105261 C472.83834,499.583056 474.429772,499.294897 475.723481,498.716438 C482.715716,495.589544 489.488407,491.799564 496.728032,489.43538 C509.502329,485.264045 515.994431,474.095496 524.897242,465.610355 C525.824685,464.726598 526.141687,463.085487 526.492959,461.730393 C530.605408,445.868825 534.688942,429.999758 538.703936,414.113551 C538.982383,413.013407 540.19577,411.706518 539.008086,410.665291 C537.927497,409.718332 536.681981,410.731707 535.525355,411.08521 C532.832985,411.911121 530.128835,412.698468 526.676091,412.63848 C530.462972,408.657823 534.153467,404.579685 538.065649,400.727575 C541.212102,397.630675 543.116252,394.113857 544.122945,389.752916 C546.953467,377.49065 550.170602,365.317295 553.392021,352.484069 C545.837537,353.637774 538.841017,354.607229 531.884123,355.808067 C528.143293,356.454014 527.288675,355.174976 527.938742,351.600311 C528.925087,346.178862 529.484123,340.679214 530.225221,335.212774" id="Fill-48" fill="#EE5033" sketch:type="MSShapeGroup"></path>
                <path d="M385.759143,612.167626 C379.314163,614.020838 372.654993,614.457896 366.040803,615.161688 C357.231165,608.922897 351.140669,599.995342 343.647229,592.452876 C350.460616,585.816662 353.92407,577.615394 354.56664,568.245425 C354.749772,565.569515 355.482303,564.676117 358.282838,564.537929 C371.396627,563.888769 384.517912,563.086425 397.393949,560.27447 C399.909612,559.724934 400.869183,559.982027 400.783507,562.873252 C400.455797,573.916469 399.218849,584.802216 396.363695,595.509069 C394.657671,601.9064 390.827952,606.905788 386.588059,611.712357 L386.694083,611.642727 C386.382436,611.818408 386.07079,611.993017 385.759143,612.167626" id="Fill-50" fill="#EE5033" sketch:type="MSShapeGroup"></path>
                <path d="M469.191004,577.012833 C449.667577,591.248288 428.257135,601.519154 404.867577,607.630469 C410.433307,592.967597 412.338527,577.670562 412.402784,562.121791 C412.41992,558.046866 413.662222,556.371477 417.768246,555.373099 C427.773066,552.940356 437.709344,550.104834 447.461419,546.803331 C452.071861,545.242562 453.506934,546.01277 453.953521,550.813982 C454.976278,561.80578 459.569585,570.924013 469.191004,577.012833" id="Fill-52" fill="#EE5033" sketch:type="MSShapeGroup"></path>
                <path d="M343.647764,592.452876 C351.141205,599.995342 357.230629,608.922897 366.041339,615.161688 C367.066238,618.001495 369.590469,619.494777 371.652048,621.403692 C385.406265,635.574874 401.192075,647.361518 416.522731,659.684844 C416.168246,660.077982 415.869451,660.547176 415.45071,660.854617 C407.808407,666.451746 407.725944,666.561011 400.056867,661.185624 C364.913628,636.555041 333.213494,608.088416 305.139598,575.607926 C304.682303,575.079815 304.369585,574.427441 303.989398,573.833985 C309.531566,570.7328 315.219384,567.939056 321.163159,565.683065 C325.315234,572.626719 331.313628,578.13815 335.919786,584.729373 C338.66249,587.136406 340.26249,590.688575 343.647764,592.452876" id="Fill-54" fill="#FDB933" sketch:type="MSShapeGroup"></path>
                <path d="M540.963213,490.320208 C541.045676,494.710072 538.177671,497.96337 536.30672,501.476974 C523.169371,526.140765 505.912075,547.538403 484.561606,565.599188 C484.026131,566.051243 483.363213,566.353327 482.759197,566.725041 C470.540723,565.484567 462.869505,555.461153 464.451299,543.165679 C464.801499,540.445849 466.707791,540.293736 468.418099,539.596371 C485.102436,532.798403 501.131352,524.828519 515.60739,513.937416 C524.901098,506.945557 533.007122,498.725008 540.963213,490.320208" id="Fill-56" fill="#EE5033" sketch:type="MSShapeGroup"></path>
                <path d="M242.192557,429.845073 C236.446908,414.343435 230.853333,398.794664 226.174351,382.923454 C225.276894,379.879044 225.812369,378.441466 228.73178,377.237414 C233.154806,375.415267 237.405408,373.174273 241.723481,371.115386 C245.975154,382.89346 252.849585,393.254309 259.374886,403.799408 C261.606747,407.406209 266.068327,411.245464 265.63245,414.449486 C265.17087,417.84847 258.880107,418.569402 255.417724,420.94537 C251.037537,423.952287 246.603802,426.882076 242.192557,429.845073" id="Fill-58" fill="#EE5033" sketch:type="MSShapeGroup"></path>
                <path d="M458.75909,505.619386 C456.651459,514.33591 454.79336,522.285441 453.929103,530.406367 C453.702062,532.547737 452.068862,532.797332 450.61344,533.32223 C439.380241,537.37573 427.881446,540.534761 416.361232,543.647729 C413.296171,544.475782 412.779973,543.373496 412.575422,540.644025 C411.32241,523.89013 411.327764,524.024032 426.524552,517.317118 C431.328835,515.196101 436.822811,514.15166 440.416921,509.690025 C440.897778,509.093355 441.991218,508.599522 442.740884,508.672365 C448.062436,509.188694 452.863507,507.019471 458.75909,505.619386" id="Fill-60" fill="#EE5033" sketch:type="MSShapeGroup"></path>
                <path d="M386.691084,517.745607 C388.701258,521.33741 390.437269,524.037958 391.76739,526.924899 C393.159625,529.945742 394.353735,532.499532 398.257349,529.796842 C400.111165,528.514591 400.750522,529.815053 400.813708,531.538647 C400.98506,536.162037 401.189612,540.785426 401.275288,545.409887 C401.315984,547.585537 399.471807,547.861912 397.927497,548.15007 C384.441017,550.661012 370.898849,552.68562 357.129639,552.667409 C355.898046,552.665266 354.489746,553.08947 354.011031,551.461214 C353.505542,549.734406 355.028434,549.375547 356.106881,548.919207 C365.499116,544.943906 372.239679,537.302887 380.301794,531.493656 C382.011031,530.260681 382.721071,528.512448 383.367925,526.627099 C384.316787,523.862278 385.409157,521.146733 386.691084,517.745607" id="Fill-62" fill="#EE5033" sketch:type="MSShapeGroup"></path>
                <path d="M335.920107,584.728944 C331.313949,578.138793 325.315556,572.62629 321.163481,565.682636 C327.711272,561.525228 334.633896,564.579278 341.373387,564.789238 C343.700562,564.862081 342.678876,567.272328 342.595341,568.720619 C342.241928,574.824435 338.621044,579.589226 335.920107,584.728944" id="Fill-64" fill="#EE5033" sketch:type="MSShapeGroup"></path>
                <path d="M188.49328,631.061392 C188.007068,631.976215 187.595823,633.073145 186.286051,631.956933 C186.542008,630.475434 187.62581,631.034611 188.49328,631.061392" id="Fill-66" fill="#FDFDFD" sketch:type="MSShapeGroup"></path>
                <path d="M416.52241,659.684522 C401.191754,647.362268 385.405944,635.574553 371.651727,621.403371 C386.995234,618.365389 402.576493,616.263653 417.342758,610.842204 C499.681714,580.61342 549.667256,522.709644 565.354538,436.148566 C570.691084,406.699631 568.829772,377.21856 561.550522,348.140268 C561.257082,346.969423 561.08573,345.768585 560.721606,343.872524 C570.628969,346.474519 579.667791,349.965628 588.740884,353.326048 C600.255743,357.589508 611.544632,362.404646 622.805676,367.300125 C626.396573,368.860894 626.998447,370.523429 625.88573,374.177364 C608.987202,429.638756 584.35427,481.299457 550.812102,528.678487 C514.366586,580.159223 469.911432,623.425836 417.948916,659.061072 C417.529103,659.34923 417.000054,659.479919 416.52241,659.684522" id="Fill-68" fill="#037DC3" sketch:type="MSShapeGroup"></path>
                <path d="M385.759143,612.167626 C386.07079,611.993017 386.382436,611.818408 386.694083,611.642727 C386.817242,612.5929 386.137189,612.10978 385.759143,612.167626" id="Fill-70" fill="#042E63" sketch:type="MSShapeGroup"></path>
                <path d="M232.079893,554.781463 C247.679357,518.638469 263.385917,483.963048 279.55834,449.497585 C280.390469,447.723644 281.210817,446.19394 283.471593,445.539424 C291.656867,443.170955 299.76075,440.522897 307.845355,437.994815 C309.342544,439.421681 307.966372,440.418988 307.539063,441.356306 C293.166908,472.946612 279.224203,504.726523 265.683106,536.682115 C264.923802,538.473196 264.384043,540.227856 262.273199,541.158747 C252.540402,545.445773 242.877216,549.890269 232.079893,554.781463" id="Fill-72" fill="#042E63" sketch:type="MSShapeGroup"></path>
            </g>
        </g>
    </g>
</svg>