<?xml version="1.0" encoding="UTF-8" standalone="no"?>
<svg width="800px" height="800px" viewBox="0 0 800 800" version="1.1" xmlns="http://www.w3.org/2000/svg" xmlns:xlink="http://www.w3.org/1999/xlink" xmlns:sketch="http://www.bohemiancoding.com/sketch/ns">
    <!-- Generator: Sketch 3.4.4 (17249) - http://www.bohemiancoding.com/sketch -->
    <title>trailblazers</title>
    <desc>Created with Sketch.</desc>
    <defs>
        <path id="path-1" d="M0,0.484132841 L718.762131,0.484132841 L718.762131,800 L0,800"></path>
    </defs>
    <g id="Page-1" stroke="none" stroke-width="1" fill="none" fill-rule="evenodd" sketch:type="MSPage">
        <g id="trailblazers" sketch:type="MSArtboardGroup">
            <g id="Page-1" sketch:type="MSLayerGroup" transform="translate(40.000000, 0.000000)">
                <g id="Group-3">
                    <mask id="mask-2" sketch:name="Clip 2" fill="white">
                        <use xlink:href="#path-1"></use>
                    </mask>
                    <g id="Clip-2"></g>
                    <path d="M315.988967,726.743764 C316.831426,726.172546 317.400934,725.787306 317.968967,725.402066 C317.651754,725.059631 317.319787,724.423469 317.017328,724.436753 C316.415361,724.463321 315.829623,724.847085 315.236508,725.083247 C315.459295,725.57476 315.682082,726.066273 315.988967,726.743764 M159.595525,726.743764 C160.435033,726.175498 161.006016,725.788782 161.575525,725.402066 C161.258311,725.059631 160.926344,724.423469 160.623885,724.436753 C160.021918,724.463321 159.43618,724.847085 158.843066,725.083247 C159.065852,725.57476 159.288639,726.066273 159.595525,726.743764 M399.563557,723.686937 C398.774213,723.303173 398.189951,722.773284 397.680934,722.838229 C397.140934,722.906125 396.671754,723.53786 396.17159,723.924576 C396.626016,724.280295 396.584705,725.405018 397.596836,724.886937 C398.187,724.584354 398.732902,724.197638 399.563557,723.686937 M240.225197,724.667011 C240.294541,724.612399 240.81241,724.215351 241.330279,723.818303 C240.838967,723.461107 240.341754,722.813137 239.856344,722.821993 C239.351754,722.832325 238.858967,723.475867 238.360279,723.841919 C238.768967,724.233063 238.622902,725.325314 240.225197,724.667011 M478.670607,80.9961624 C478.555525,80.2374908 478.21618,80.1002214 477.63782,80.5164576 C477.255689,80.7909963 476.864705,81.0537269 476.478148,81.3223616 C477.027,81.5703321 477.562574,81.8743911 478.137984,82.0101845 C478.233885,82.0323247 478.50241,81.3253137 478.670607,80.9961624 M405.90782,76.6242066 C405.065361,76.2360148 404.488475,75.7282657 404.029623,75.8183026 C403.432082,75.9378598 402.927492,76.5297417 402.383066,76.9194096 C402.92159,77.2367528 403.466016,77.8153506 403.995689,77.8005904 C404.529787,77.7873063 405.047656,77.1865683 405.90782,76.6242066 M327.705197,76.2242066 C326.564705,76.0116605 325.968639,75.760738 325.424213,75.8463469 C325.024377,75.9098155 324.69241,76.4116605 324.330934,76.7171956 C324.888639,77.0743911 325.425689,77.6515129 326.011426,77.7076015 C326.390607,77.7445018 326.842082,77.0168266 327.705197,76.2242066 M562.845689,73.059631 C562.785197,73.1083395 562.267328,73.5216236 561.749459,73.9349077 C562.268803,74.2670111 562.804377,74.8854613 563.300115,74.8544649 C563.820934,74.8219926 564.303393,74.1681181 564.802082,73.7858303 C564.352082,73.4271587 564.425852,72.3171956 562.845689,73.059631 M570.101754,67.9334317 C566.662574,68.4397048 565.013066,69.6160886 564.418475,72.1223616 C564.356508,72.3836162 565.010115,73.1275277 565.284541,73.1053875 C568.002246,72.8766052 569.007,71.0537269 570.101754,67.9334317 M357.173557,453.455203 C350.243557,450.246347 344.020279,447.983616 338.418148,444.668487 C307.852082,426.587306 302.081754,386.458893 327.522246,361.37845 C421.561918,268.671439 514.509787,174.858893 607.869295,81.461107 C624.84241,64.4810332 641.83323,47.5186716 658.763557,30.4957934 C660.073721,29.1791882 662.679295,27.9850923 661.885525,25.961476 C660.895525,23.4345387 658.030279,25.0433948 656.016344,24.6448708 C646.755197,22.8057565 640.135033,27.1511439 634.171426,33.5068635 C631.677984,36.162214 628.69323,38.3540959 625.975525,40.8057565 C584.376344,78.3142435 542.766836,115.812399 501.194213,153.350406 C470.514541,181.053727 439.905689,208.835277 409.227492,236.54155 C374.195361,268.17845 339.194213,299.850775 304.039623,331.353358 C280.568803,352.386568 270.08159,378.346716 273.801098,409.710554 C277.48077,440.7231 302.207164,467.554096 328.068148,478.625683 C330.449459,479.645609 331.734541,478.743764 333.192246,477.292841 C341.016344,469.505387 348.85077,461.72679 357.173557,453.455203 M59.8312623,774.295055 C60.0761803,774.881033 60.3210984,775.468487 60.5660164,776.054465 C67.3174918,774.718672 74.5499508,778.678819 80.8971639,773.853727 C85.3661803,770.454465 89.4191311,766.500221 93.5974918,762.727528 C123.957,735.31941 154.295852,707.890627 184.647984,680.475129 C223.522082,645.36369 262.399131,610.256679 301.280607,575.154096 C321.093885,557.264797 340.916016,539.387306 360.736672,521.506863 C382.178803,502.165166 404.156508,483.37845 424.93618,463.34893 C452.877492,436.416089 457.867328,391.562952 437.277984,358.584354 C427.773393,343.362214 414.689459,331.638229 398.454049,323.76369 C395.695033,322.426421 392.62323,319.511292 389.154541,322.951882 C381.154869,330.883985 373.090279,338.751144 364.259951,347.422731 C374.229295,351.002066 382.544705,354.976974 390.042738,360.55631 C417.34077,380.863321 415.382902,418.355572 395.841098,437.766642 C285.079131,547.784354 175.038639,658.529742 64.7606066,769.034539 C63.0638852,770.734908 61.471918,772.540074 59.8312623,774.295055 M586.444869,26.0825092 C573.00241,21.6529889 564.421426,26.4869373 556.57077,34.358524 C550.003721,40.9430258 543.078148,47.1850923 536.105361,53.3445018 C516.508967,70.6507749 496.75618,87.7784502 477.159787,105.084723 C458.832246,121.269225 440.693557,137.667749 422.349787,153.834539 C403.473393,170.470701 384.355033,186.833801 365.517,203.514244 C346.107984,220.699483 327.06782,238.302435 307.57618,255.388782 C288.519787,272.092841 268.694705,287.979188 251.805689,306.97845 C231.012738,330.370332 219.882246,358.122362 218.052738,389.170332 C216.235033,420.007232 224.308475,448.501697 241.613557,474.287675 C253.260443,491.642657 268.35241,505.236753 286.198967,515.861107 C288.252738,517.083247 290.722574,519.610185 293.477164,516.922362 C301.444377,509.151144 309.343721,501.31203 317.631098,493.14524 C306.978639,486.627159 297.440115,480.811661 289.133557,473.155572 C271.015525,456.450037 259.625361,436.060369 256.745361,411.629373 C252.45782,375.275129 265.630279,345.360738 291.289131,319.791734 C387.283721,224.13417 482.972902,128.172546 578.811098,32.358524 C580.888475,30.2802952 583.361262,28.5976384 586.444869,26.0825092 M136.199951,773.803542 C136.641098,774.559262 137.082246,775.314982 137.523393,776.070701 C144.245361,774.799852 151.678475,778.690627 157.749787,773.60428 C167.316344,765.590996 176.465361,757.075867 185.781098,748.762952 C204.598475,731.973284 223.33618,715.096531 242.237656,698.40428 C269.895689,673.979188 297.723393,649.747454 325.374049,625.313506 C348.306344,605.050775 371.064541,584.588782 393.943721,564.264059 C417.737656,543.124576 442.405033,522.951882 464.955197,500.436753 C488.589787,476.838229 502.19159,448.057417 504.13323,414.974022 C507.497164,357.664797 484.157656,313.555572 434.908475,283.508339 C431.914869,281.682509 429.88618,281.924576 427.403066,284.568118 C421.347984,291.016827 415.152738,297.36369 408.625525,303.328266 C404.64782,306.962214 405.372246,308.584354 409.752738,311.005018 C426.506016,320.261107 440.32618,332.788044 450.816344,348.922362 C461.847984,365.889151 467.035525,384.928266 466.436508,404.646347 C465.502574,435.415351 451.374049,460.377712 429.552738,482.070701 C333.831098,577.221993 238.590443,672.857417 143.135852,768.278819 C141.058475,770.355572 138.522246,771.971808 136.199951,773.803542 M506.943885,26.0500369 C506.718148,25.4123985 506.493885,24.7747601 506.269623,24.1371218 C500.761918,26.1843542 494.675852,22.0957934 489.497164,26.3659041 C482.159951,32.4146125 475.052902,38.7437638 467.872082,44.9799262 C448.702082,61.6293727 429.582246,78.3349077 410.375361,94.9400738 C389.693066,112.820517 368.91782,130.59321 348.216344,148.451513 C329.540607,164.562214 311.003557,180.833801 292.236344,196.838229 C267.324049,218.085461 241.679951,238.498745 218.628148,261.850775 C184.872246,296.045609 166.593393,337.303173 163.378475,385.096531 C160.92782,421.498007 168.636836,455.903911 185.853393,488.103173 C200.731426,515.93048 221.460934,538.473653 247.416344,556.354096 C250.275689,558.324576 251.838148,559.009446 254.529295,556.128266 C261.072738,549.126052 267.967328,542.448561 274.811754,535.735646 C277.157656,533.434539 278.172738,532.147454 274.299787,529.942288 C268.83782,526.833801 263.623721,523.098007 258.861098,518.98583 C219.029459,484.588782 198.416508,441.791734 201.548803,388.365904 C203.835689,349.36369 218.787492,316.055941 245.839131,288.317196 C289.073066,243.985092 333.661426,200.999114 376.700607,156.460369 C406.083393,126.054465 436.391262,96.5445018 466.294869,66.6404428 C479.834705,53.1009594 493.393721,39.5791882 506.943885,26.0500369 M215.242082,776.135646 C221.71323,775.071439 228.258148,778.101697 233.847,773.813875 C239.081754,769.799114 243.900443,765.239705 248.888803,760.906125 C268.468967,743.893579 287.975361,726.798376 307.635197,709.880295 C333.96241,687.224945 360.429787,664.731956 386.79241,642.117934 C406.471426,625.236753 426.300934,608.523838 445.659787,591.282509 C468.657,570.80428 493.417328,552.287675 513.617164,528.687675 C543.805525,493.419779 558.748475,452.252251 559.877164,406.432325 C560.814049,368.423469 550.39323,332.858893 530.019295,300.574022 C515.864213,278.145978 497.542574,259.617565 475.771426,244.442657 C472.116836,241.895055 469.850607,241.74893 466.678475,245.230849 C460.559951,251.948192 453.995852,258.271439 447.439131,264.574022 C444.627,267.278081 444.362902,268.602066 448.111918,270.972546 C460.343066,278.706863 471.225689,288.095793 480.975197,298.869225 C507.030934,327.658893 520.749295,361.613137 521.196344,400.184354 C521.712738,444.557786 505.729623,482.73048 474.273885,514.377712 C408.976672,580.069225 342.767656,644.850037 278.246508,711.316458 C259.240279,730.895793 239.688148,749.942288 220.442902,769.291365 C218.626672,771.11572 216.155361,772.510554 215.242082,776.135646 M429.089459,24.6758672 C422.844049,25.1290037 416.917328,22.9076015 411.794705,27.3149815 C405.320607,32.8869373 398.808148,38.4175646 392.233721,43.8714391 C370.844705,61.6116605 349.420279,79.3076015 328.009131,97.0212546 C306.78241,114.582878 285.546836,132.132694 264.333393,149.710554 C248.005033,163.241181 231.698803,176.7969 215.398475,190.36 C196.185689,206.346716 177.415525,222.7969 161.860279,242.537122 C136.059787,275.276605 119.282902,312.145978 111.871918,353.165904 C107.048803,379.862583 106.808311,406.724576 110.648803,433.562952 C115.291918,466.001328 126.063885,496.35262 142.839295,524.494317 C159.518803,552.470701 180.832574,576.34524 206.931098,595.903911 C209.940934,598.159262 212.081754,599.102435 215.262738,595.492103 C221.264705,588.680295 227.884869,582.393948 234.469623,576.122362 C237.811426,572.940074 237.756836,571.679557 233.641918,568.656679 C208.170443,549.95262 187.203393,527.092103 172.034705,499.170332 C151.148803,460.721624 142.699131,419.737122 147.19323,376.172546 C152.090115,328.712768 170.389623,286.875129 203.705852,252.940074 C276.729787,178.562214 350.746672,105.157048 424.328311,31.3253137 C425.989623,29.657417 428.292738,28.4234686 429.089459,24.6758672 M292.017984,774.522362 C299.380279,775.264797 306.159787,777.586568 312.582246,772.153358 C342.264541,747.044871 372.306836,722.362952 402.226672,697.536384 C438.551262,667.396162 474.897984,637.282509 511.206344,607.121624 C536.742738,585.911292 560.004049,562.776236 577.614541,534.165166 C599.649787,498.365904 611.982738,459.514244 614.474705,417.906863 C616.830934,378.582878 610.029295,340.53417 594.049131,304.128266 C576.431262,263.98952 550.019951,231.13786 515.495361,204.460369 C512.112246,201.846347 510.188311,201.433063 507.097328,204.80428 C500.956672,211.505387 494.448639,217.886199 487.838803,224.132694 C484.266836,227.508339 484.234377,229.018303 488.626672,232.221255 C525.267,258.944502 551.328639,293.80059 565.609131,336.870701 C576.718967,370.376236 579.727328,404.802804 573.026016,439.722362 C564.889131,482.12679 546.591098,519.427159 516.039787,550.191734 C452.825852,613.846347 389.412738,677.300221 326.054213,740.810185 C314.77618,752.114982 303.366836,763.288413 292.017984,774.522362 M352.53782,26.757048 C345.398311,24.559262 339.647164,23.7208856 334.208803,28.1149815 C312.630934,45.5511439 290.921754,62.8293727 269.054705,79.9009594 C231.045197,109.576236 192.609295,138.700959 155.666508,169.732694 C128.935033,192.184354 108.114049,219.390258 91.2899508,249.639705 C73.1660164,282.225683 61.4999508,317.00797 56.2224098,354.18583 C51.6707705,386.243395 51.8153607,418.064797 57.2640492,449.722362 C65.0084754,494.71572 82.2117541,536.008708 108.587656,573.471439 C125.165361,597.018303 145.028803,617.331218 166.951918,635.803542 C169.969131,638.34524 172.127656,639.235277 175.175852,635.551144 C178.923393,631.025683 183.420443,627.118672 187.592902,622.944502 C198.720443,611.810923 198.536016,612.032325 186.387492,601.864059 C158.162902,578.241919 135.577328,550.048561 119.282902,516.988782 C96.2650328,470.287675 86.851918,421.033063 92.5632295,369.14524 C95.6217541,341.366642 102.514869,314.535646 114.085033,289.021255 C128.873066,256.408708 149.694049,228.12679 175.053393,202.909077 C232.250607,146.029373 289.155689,88.8529889 346.217164,31.8360148 C348.117492,29.9363838 350.422082,28.4411808 352.53782,26.757048 M370.406508,775.208708 C381.537,778.984354 388.48323,772.455941 396.235033,766.123838 C415.334213,750.520886 435.07077,735.700221 454.509295,720.510554 C481.444377,699.464059 508.239295,678.233063 535.286508,657.331218 C557.579951,640.101697 579.32159,622.269963 597.438148,600.545978 C629.768803,561.775498 651.575361,517.816827 662.725033,468.433801 C670.54618,433.796162 671.667492,398.777712 667.369623,363.949668 C662.387164,323.588044 649.793066,285.263321 628.811262,249.9969 C609.238475,217.098007 585.270443,188.097269 555.104213,164.321624 C551.765361,161.691365 550.042082,161.754834 547.277164,164.669963 C541.017,171.267749 534.647656,177.787306 527.968475,183.95262 C523.602738,187.98214 524.082246,190.379188 529.076508,193.247085 C532.639623,195.292841 535.786672,198.157786 538.861426,200.94155 C568.803393,228.041181 592.74782,259.455203 608.924213,296.733432 C629.348311,343.799114 635.519951,392.661107 627.982082,443.199852 C621.398803,487.332694 604.096672,527.134908 577.587984,563.00059 C560.114705,586.640443 538.061754,605.973284 517.584541,626.743764 C470.455525,674.544502 422.765852,721.791734 375.34618,769.306125 C373.531426,771.124576 371.040934,772.509077 370.406508,775.208708 M485.726016,72.2035424 C485.059131,72.95631 483.610279,73.6426568 484.848148,74.7806642 C485.638967,75.5068635 486.339787,74.5400738 486.786836,73.7799262 C487.279623,73.2869373 487.77241,72.7924723 488.265197,72.2994834 C488.757984,71.8079705 489.25077,71.3149815 489.743557,70.8219926 C494.458967,68.557786 497.538148,64.457417 500.996508,60.7836162 C502.305197,59.9319557 504.738148,58.658155 503.212574,57.36369 C500.48159,55.0433948 499.656836,58.7481919 498.110607,60.0721771 C494.807164,63.2810332 491.502246,66.4898893 488.198803,69.6987454 C487.697164,70.2109225 487.195525,70.7216236 486.693885,71.2338007 C486.268967,71.455203 485.945852,71.7784502 485.726016,72.2035424 M27.3810984,364.165166 C32.664541,320.104649 44.9797869,278.151882 66.4897869,239.273653 C89.1181475,198.370332 119.248967,163.840443 156.289131,135.117196 C209.713721,93.6884133 262.708967,51.7046494 315.745525,9.7799262 C323.438311,3.69874539 330.964377,-0.0355719557 341.441262,0.541549815 C360.491754,1.59247232 379.644049,0.839704797 399.454377,0.839704797 C391.496016,9.01830258 384.154377,16.7024354 376.66077,24.2345387 C363.140115,37.8256827 349.510279,51.3076015 335.985197,64.8943173 C334.902246,65.9836162 332.442738,67.2323247 333.887164,68.9385978 C335.865689,71.2721771 337.242246,68.4751292 338.534705,67.3666421 C363.199131,46.1991144 387.844377,25.0094465 412.414377,3.73416974 C414.341262,2.06479705 416.012902,0.771808118 418.766016,0.786568266 C438.133721,0.889889299 457.501426,0.841180812 478.388803,0.841180812 C461.426016,17.7415498 445.391262,33.7105535 429.363885,49.6884133 C424.143885,54.8928413 418.915033,60.0913653 413.762902,65.362214 C412.715361,66.4338007 410.351754,67.5865683 412.47782,69.3917343 C413.816016,70.5267897 415.021426,68.9090775 416.111754,67.9673801 C432.394377,53.9275277 448.703557,39.9186716 464.98618,25.8773432 C473.871098,18.2138745 482.776672,10.5710701 491.531754,2.76147601 C493.402574,1.09210332 495.319131,0.823468635 497.56618,0.826420664 C516.727328,0.851512915 535.888475,0.841180812 556.769951,0.841180812 C540.270443,17.5024354 524.70782,33.2175646 509.145197,48.9326937 C508.249623,49.757786 507.272902,50.5120295 506.480607,51.4271587 C505.472902,52.5902583 503.065033,53.6500369 504.738148,55.4463469 C506.173721,56.9873063 507.759787,55.35631 508.959295,54.1961624 C509.658639,53.5201476 510.263557,52.7467159 510.911262,52.0190406 C528.84782,36.1149815 546.788803,20.2138745 564.720934,4.30538745 C566.535689,2.69505535 568.070115,0.807232472 570.907328,0.816088561 C591.716508,0.873653137 612.527164,0.847084871 633.867492,0.847084871 C615.494213,19.461107 597.64323,37.5467159 579.79077,55.6293727 C577.028803,58.4264207 574.244705,61.2028044 571.488639,64.0072325 C570.511918,64.9991144 568.722246,66.1105535 569.966016,67.5452399 C571.664213,69.5039114 572.910934,67.3828782 574.110443,66.3496679 C588.55618,53.9009594 602.984213,41.4301107 617.431426,28.9814022 C627.431754,20.362952 637.479295,11.7991144 647.445689,3.14081181 C649.197,1.62051661 650.946836,0.78804428 653.348803,0.796900369 C674.699459,0.873653137 696.05159,0.841180812 718.762574,0.841180812 C716.314869,3.50686347 714.678639,5.42715867 712.90077,7.20575646 C667.36077,52.7865683 621.860607,98.4072325 576.159787,143.824207 C572.099459,147.858155 571.817656,149.862583 576.356016,153.686937 C602.180115,175.452251 623.884869,200.888413 641.479131,229.686937 C665.037,268.249299 680.670443,309.78583 687.30241,354.638967 C689.667492,370.637491 691.231426,386.757048 691.005689,402.823469 C690.355033,448.91203 681.483393,493.285461 662.683721,535.729742 C644.890279,575.902435 620.209623,611.003542 588.740607,641.351882 C569.014377,660.376236 546.574869,676.20059 525.094377,693.139336 C482.738311,726.540074 440.265689,759.791734 397.955361,793.248561 C392.396016,797.644133 386.903066,800.213875 379.45077,799.986568 C361.163066,799.427159 342.847328,799.803542 323.190443,799.803542 C348.483393,774.501697 372.711098,750.267011 397.226508,725.743026 C394.249131,724.348192 392.84159,726.144502 391.295361,727.478819 C364.640607,750.488413 337.977,773.484723 311.362082,796.538598 C309.504541,798.147454 308.040934,799.872915 305.172738,799.856679 C285.318148,799.74893 265.463557,799.799114 243.620115,799.799114 C267.813885,775.641181 290.774213,752.714244 314.268639,729.255941 C309.396836,727.644133 307.980443,731.099483 306.090443,732.720148 C281.397984,753.878819 256.847164,775.199852 232.278639,796.501697 C229.808803,798.641919 227.287328,799.93048 223.752246,799.893579 C204.825689,799.701697 185.894705,799.803542 166.277656,799.803542 C190.157164,775.78583 213.625033,752.182878 237.143066,728.529742 C234.490279,725.924576 233.414705,727.706125 232.24618,728.71572 C206.891262,750.606494 181.458148,772.408708 156.28323,794.506125 C151.933721,798.3231 147.717,800.061845 141.884705,799.93786 C124.303721,799.565904 106.709459,799.803542 89.1210984,799.803542 C88.6533934,799.092103 88.1842131,798.379188 87.7150328,797.667749 C111.14159,774.277343 134.569623,750.886937 159.169131,726.326052 C153.482902,727.858155 151.144377,731.520148 148.227492,734.014613 C123.88323,754.827897 99.7248689,775.856679 75.4588033,796.76 C73.8579836,798.140074 72.3884754,799.837491 69.8183115,799.830111 C47.0483115,799.766642 24.2768361,799.79321 1.50536066,799.79321 L0.000442622951,797.769594 C2.10437705,796.258155 4.46503279,795.003542 6.27536066,793.1969 C51.6988033,747.847823 97.021918,702.398376 142.514705,657.118672 C146.523393,653.129004 147.737656,651.595424 142.268311,647.046347 C113.846016,623.406494 90.2217541,595.468487 71.2774918,563.670701 C47.8361803,524.321624 33.6383115,481.685461 28.0701148,436.368856 C25.4601148,415.139336 24.6501148,393.645609 27.2704426,372.222731 C27.5360164,370.055941 27.232082,367.818303 27.1922459,365.614613 C27.2542131,365.13048 27.3176557,364.647823 27.3810984,364.165166" id="Fill-1" fill="#0B1D26" sketch:type="MSShapeGroup" mask="url(#mask-2)"></path>
                </g>
                <path d="M27.3806557,364.165166 C27.3172131,364.647823 27.2552459,365.13048 27.1918033,365.614613 C27.057541,365.250037 26.8834426,364.892841 26.82,364.517934 C26.8052459,364.433801 27.1829508,364.284723 27.3806557,364.165166" id="Fill-4" fill="#EEF1F3" sketch:type="MSShapeGroup"></path>
                <path d="M370.406508,775.209299 C371.040934,772.509668 373.531426,771.125166 375.34618,769.30524 C422.765852,721.792325 470.455525,674.545092 517.584541,626.742878 C538.061754,605.972399 560.114705,586.641033 577.587984,562.999705 C604.096672,527.134022 621.398803,487.331808 627.982082,443.198967 C635.519951,392.660221 629.348311,343.799705 608.924213,296.734022 C592.74782,259.455793 568.803393,228.040295 538.861426,200.94214 C535.786672,198.158376 532.639623,195.293432 529.076508,193.247675 C524.082246,190.378303 523.602738,187.981255 527.968475,183.95321 C534.647656,177.787897 541.017,171.268339 547.277164,164.670554 C550.042082,161.755424 551.765361,161.69048 555.104213,164.322214 C585.270443,188.09786 609.238475,217.097122 628.811262,249.996015 C649.793066,285.262435 662.387164,323.587159 667.369623,363.950258 C671.667492,398.778303 670.54618,433.796753 662.725033,468.432915 C651.575361,517.817417 629.768803,561.776089 597.438148,600.545092 C579.32159,622.270554 557.579951,640.102288 535.286508,657.331808 C508.239295,678.233653 481.444377,699.463173 454.509295,720.511144 C435.07077,735.700812 415.334213,750.52 396.235033,766.122952 C388.48323,772.455055 381.537,778.984945 370.406508,775.209299" id="Fill-6" fill="#E03A3E" sketch:type="MSShapeGroup"></path>
                <path d="M352.53841,26.7573432 C350.422672,28.441476 348.118082,29.936679 346.216279,31.83631 C289.156279,88.8532841 232.251197,146.028192 175.052508,202.907897 C149.693164,228.127085 128.873656,256.407528 114.084148,289.020074 C102.513984,314.534465 95.6208689,341.366937 92.5638197,369.145535 C86.8510328,421.033358 96.265623,470.28797 119.283492,516.989077 C135.577918,550.04738 158.163492,578.242214 186.386607,601.862878 C198.536607,612.031144 198.721033,611.811218 187.592016,622.943321 C183.419557,627.118967 178.923984,631.024502 175.176443,635.551439 C172.12677,639.234096 169.969721,638.345535 166.952508,635.803838 C145.029393,617.331513 125.165951,597.017122 108.58677,573.471734 C82.2108689,536.009004 65.0075902,494.716015 57.2631639,449.721181 C51.8144754,418.063616 51.6713607,386.24369 56.223,354.186125 C61.500541,317.008266 73.1666066,282.225978 91.290541,249.64 C108.114639,219.390554 128.935623,192.184649 155.665623,169.731513 C192.609885,138.701255 231.045787,109.576531 269.055295,79.9012546 C290.920869,62.8296679 312.630049,45.5514391 334.207918,28.1152768 C339.646279,23.7211808 345.398902,24.5595572 352.53841,26.7573432" id="Fill-8" fill="#C3CDD3" sketch:type="MSShapeGroup"></path>
                <path d="M292.018721,774.521919 C303.367574,763.28797 314.776918,752.114539 326.053475,740.809742 C389.412,677.299779 452.82659,613.845904 516.039049,550.191292 C546.590361,519.426716 564.889869,482.126347 573.026754,439.723395 C579.728066,404.802362 576.71823,370.375793 565.608393,336.870258 C551.327902,293.800148 525.266262,258.945535 488.625934,232.220812 C484.233639,229.01786 484.266098,227.507897 487.839541,224.132251 C494.447902,217.885756 500.95741,211.504945 507.098066,204.803838 C510.187574,201.43262 512.112984,201.845904 515.496098,204.461402 C550.019213,231.137417 576.430525,263.989077 594.048393,304.127823 C610.028557,340.533727 616.830197,378.582435 614.475443,417.906421 C611.983475,459.513801 599.650525,498.366937 577.613803,534.166199 C560.003311,562.775793 536.742,585.910849 511.207082,607.122657 C474.898721,637.282066 438.552,667.39572 402.22741,697.537417 C372.307574,722.362509 342.265279,747.045904 312.582984,772.154391 C306.160525,777.586125 299.381016,775.264354 292.018721,774.521919" id="Fill-10" fill="#E03A3E" sketch:type="MSShapeGroup"></path>
                <path d="M429.089164,24.6751292 C428.292443,28.4242066 425.989328,29.656679 424.328016,31.3245756 C350.746377,105.15631 276.729492,178.561476 203.705557,252.940812 C170.389328,286.874391 152.08982,328.713506 147.19441,376.171808 C142.698836,419.736384 151.148508,460.720886 172.03441,499.169594 C187.203098,527.091365 208.170148,549.951882 233.641623,568.657417 C237.758016,571.678819 237.811131,572.940812 234.470803,576.1231 C227.884574,582.394686 221.26441,588.679557 215.262443,595.492841 C212.081459,599.103173 209.940639,598.158524 206.930803,595.903173 C180.832279,576.345978 159.518508,552.471439 142.840475,524.493579 C126.06359,496.353358 115.291623,466.002066 110.648508,433.56369 C106.808016,406.725314 107.048508,379.861845 111.871623,353.166642 C119.282607,312.14524 136.059492,275.277343 161.859984,242.536384 C177.41523,222.797638 196.185393,206.347454 215.39818,190.360738 C231.698508,176.797638 248.006213,163.241919 264.333098,149.711292 C285.546541,132.133432 306.782115,114.583616 328.008836,97.0219926 C349.419984,79.3068635 370.84441,61.6109225 392.233426,43.8707011 C398.807852,38.4183026 405.320311,32.8876753 411.79441,27.3157196 C416.917033,22.9068635 422.843754,25.1282657 429.089164,24.6751292" id="Fill-12" fill="#C3CDD3" sketch:type="MSShapeGroup"></path>
                <path d="M215.241934,776.135498 C216.155213,772.510406 218.626525,771.115572 220.442754,769.291218 C239.688,749.943616 259.240131,730.895646 278.246361,711.31631 C342.767508,644.849889 408.976525,580.069077 474.273738,514.377565 C505.729475,482.730332 521.71259,444.557638 521.196197,400.184207 C520.749148,361.612989 507.030787,327.658745 480.975049,298.869077 C471.225541,288.095646 460.342918,278.706716 448.11177,270.972399 C444.36423,268.601919 444.626852,267.277934 447.438984,264.573875 C453.995705,258.271292 460.559803,251.948044 466.678328,245.230701 C469.850459,241.748782 472.116689,241.894908 475.771279,244.442509 C497.542426,259.617417 515.864066,278.14583 530.019148,300.573875 C550.394557,332.858745 560.813902,368.423321 559.877016,406.432177 C558.748328,452.253579 543.805377,493.419631 513.617016,528.687528 C493.41718,552.287528 468.656852,570.804133 445.661115,591.282362 C426.300787,608.52369 406.471279,625.236605 386.792262,642.117786 C360.429639,664.731808 333.962262,687.224797 307.635049,709.880148 C287.975213,726.798229 268.46882,743.893432 248.888656,760.905978 C243.900295,765.239557 239.081607,769.798967 233.846852,773.813727 C228.258,778.10155 221.714557,775.071292 215.241934,776.135498" id="Fill-14" fill="#E03A3E" sketch:type="MSShapeGroup"></path>
                <path d="M506.943295,26.0503321 C493.393131,39.5794834 479.834115,53.1012546 466.294279,66.640738 C436.392148,96.543321 406.082803,126.05476 376.700016,156.460664 C333.662311,200.99941 289.072475,243.985387 245.840016,288.316015 C218.788377,316.05476 203.836574,349.363985 201.548213,388.366199 C198.415918,441.79203 219.030344,484.589077 258.860508,518.984649 C263.624607,523.098303 268.838705,526.83262 274.299197,529.942583 C278.172148,532.146273 277.158541,533.434834 274.812639,535.735941 C267.966738,542.448856 261.072148,549.126347 254.53018,556.128561 C251.837557,559.009742 250.276574,558.324871 247.415754,556.354391 C221.460344,538.473948 200.732311,515.929299 185.852803,488.103469 C168.637721,455.904207 160.928705,421.498303 163.377885,385.096827 C166.592803,337.301993 184.871656,296.045904 218.629033,261.85107 C241.680836,238.499041 267.323459,218.085756 292.23723,196.838524 C311.002967,180.834096 329.540016,164.562509 348.215754,148.451808 C368.91723,130.593506 389.693951,112.820812 410.37477,94.940369 C429.581656,78.335203 448.702967,61.6296679 467.871492,44.9802214 C475.052311,38.742583 482.159361,32.4149077 489.496574,26.3661993 C494.675262,22.0946125 500.762803,26.1846494 506.269033,24.137417 C506.493295,24.7750554 506.719033,25.4126937 506.943295,26.0503321" id="Fill-16" fill="#C3CDD3" sketch:type="MSShapeGroup"></path>
                <path d="M136.199508,773.802952 C138.521803,771.971218 141.059508,770.354982 143.136885,768.278229 C238.59,672.856827 333.830656,577.221402 429.552295,482.070111 C451.373607,460.378598 465.502131,435.41476 466.436066,404.647232 C467.035082,384.929151 461.849016,365.888561 450.817377,348.923247 C440.325738,332.78893 426.505574,320.261993 409.75377,311.005904 C405.371803,308.58524 404.647377,306.961624 408.625082,303.327675 C415.152295,297.364576 421.349016,291.016236 427.404098,284.567528 C429.885738,281.923985 431.914426,281.681919 434.909508,283.509225 C484.157213,313.554982 507.498197,357.665683 504.132787,414.973432 C502.191148,448.056827 488.59082,476.837638 464.954754,500.436162 C442.40459,522.951292 417.738689,543.125461 393.943279,564.263469 C371.064098,584.588192 348.307377,605.050185 325.373607,625.314391 C297.722951,649.746863 269.895246,673.978598 242.238689,698.40369 C223.335738,715.095941 204.598033,731.97417 185.782131,748.762362 C176.464918,757.075277 167.315902,765.590406 157.749344,773.605166 C151.678033,778.690037 144.244918,774.800738 137.524426,776.070111 C137.081803,775.314391 136.640656,774.558672 136.199508,773.802952" id="Fill-18" fill="#E03A3E" sketch:type="MSShapeGroup"></path>
                <path d="M586.445016,26.0819188 C583.36141,28.597048 580.888623,30.2797048 578.811246,32.3579336 C482.973049,128.173432 387.283869,224.135055 291.289279,319.791144 C265.630426,345.360148 252.457967,375.276015 256.744033,411.628782 C259.625508,436.059779 271.015672,456.449446 289.133705,473.154982 C297.440262,480.812546 306.978787,486.628044 317.62977,493.144649 C309.343869,501.311439 301.444525,509.150554 293.477311,516.921771 C290.722721,519.61107 288.252885,517.082657 286.199115,515.860517 C268.352557,505.237638 253.26059,491.642066 241.613705,474.287085 C224.307148,448.501107 216.23518,420.008118 218.052885,389.169742 C219.880918,358.123247 231.012885,330.369742 251.805836,306.97786 C268.693377,287.980074 288.519934,272.093727 307.574852,255.389668 C327.067967,238.301845 346.108131,220.698893 365.517148,203.513653 C384.35518,186.834686 403.472066,170.471587 422.349934,153.835424 C440.69223,137.667159 458.832393,121.270111 477.159934,105.084133 C496.756328,87.7778598 516.509115,70.6501845 536.104033,53.3439114 C543.078295,47.1845018 550.003869,40.9424354 556.570918,34.3579336 C564.421574,26.4863469 573.002557,21.6538745 586.445016,26.0819188" id="Fill-20" fill="#C3CDD3" sketch:type="MSShapeGroup"></path>
                <path d="M59.8314098,774.295203 C61.4720656,772.538745 63.0640328,770.735055 64.7607541,769.034686 C175.038787,658.529889 285.079279,547.784502 395.841246,437.76679 C415.383049,418.354244 417.340918,380.863469 390.042885,360.556458 C382.543377,354.977122 374.229443,351.002214 364.260098,347.422878 C373.090426,338.751292 381.155016,330.884133 389.154689,322.950554 C392.623377,319.511439 395.69518,322.426568 398.454197,323.763838 C414.689607,331.638376 427.773541,343.362362 437.278131,358.584502 C457.867475,391.5631 452.877639,436.416236 424.936328,463.349077 C404.156656,483.378598 382.178951,502.165314 360.73682,521.507011 C340.916164,539.387454 321.094033,557.264945 301.280754,575.152768 C262.399279,610.256827 223.52223,645.363838 184.648131,680.475277 C154.296,707.890775 123.955672,735.319557 93.5976393,762.727675 C89.4192787,766.500369 85.3663279,770.454613 80.8973115,773.852399 C74.5500984,778.678967 67.3176393,774.718819 60.5661639,776.054613 C60.3212459,775.467159 60.0763279,774.881181 59.8314098,774.295203" id="Fill-22" fill="#E03A3E" sketch:type="MSShapeGroup"></path>
                <path d="M357.173262,453.454613 C348.850475,461.726199 341.016049,469.504797 333.191951,477.293727 C331.734246,478.743173 330.449164,479.645018 328.067852,478.625092 C302.206869,467.554982 277.480475,440.723985 273.802279,409.711439 C270.081295,378.347601 280.569984,352.385978 304.040803,331.352768 C339.193918,299.850185 374.195066,268.179336 409.227197,236.540959 C439.905393,208.836162 470.514246,181.053137 501.195393,153.349815 C542.766541,115.811808 584.376049,78.3136531 625.97523,40.8051661 C628.692934,38.3549815 631.677689,36.1630996 634.171131,33.5062731 C640.136213,27.1505535 646.754902,22.8066421 656.017525,24.6442804 C658.029984,25.0442804 660.896705,23.4354244 661.886705,25.9623616 C662.679,27.9859779 660.073426,29.1785978 658.763262,30.495203 C641.832934,47.5180812 624.84359,64.4819188 607.869,81.4619926 C514.510967,174.858303 421.561623,268.670849 327.521951,361.37786 C302.081459,386.458303 307.851787,426.586716 338.417852,444.669373 C344.019984,447.983026 350.243262,450.245756 357.173262,453.454613" id="Fill-24" fill="#C3CDD3" sketch:type="MSShapeGroup"></path>
                <path d="M500.996656,60.7828782 C497.538295,64.458155 494.459115,68.558524 489.743705,70.8227306 C489.228787,70.4478229 488.713869,70.0729151 488.198951,69.6980074 C491.502393,66.4906273 494.807311,63.2817712 498.110754,60.0729151 C499.072721,60.3090775 500.034689,60.5467159 500.996656,60.7828782" id="Fill-26" fill="#0B1D26" sketch:type="MSShapeGroup"></path>
                <path d="M570.101459,67.9326937 C569.006705,71.0529889 568.001951,72.8773432 565.284246,73.1046494 C565.00982,73.1282657 564.357689,72.3828782 564.419656,72.1230996 C565.014246,69.6153506 566.662279,68.4389668 570.101459,67.9326937" id="Fill-28" fill="#0B1D26" sketch:type="MSShapeGroup"></path>
                <path d="M500.996656,60.7828782 C500.034689,60.5467159 499.072721,60.3090775 498.110754,60.0729151 C499.656984,58.7474539 500.481738,55.0441328 503.212721,57.362952 C504.738295,58.658893 502.305344,59.9326937 500.996656,60.7828782" id="Fill-30" fill="#0B1D26" sketch:type="MSShapeGroup"></path>
                <path d="M562.846279,73.059631 C564.424967,72.3171956 564.352672,73.4271587 564.802672,73.7858303 C564.302508,74.1681181 563.821525,74.8219926 563.300705,74.8544649 C562.804967,74.8854613 562.267918,74.2670111 561.750049,73.9349077 C562.267918,73.5216236 562.784311,73.1083395 562.846279,73.059631" id="Fill-32" fill="#0B1D26" sketch:type="MSShapeGroup"></path>
                <path d="M327.704607,76.2234686 C326.842967,77.0160886 326.390016,77.7437638 326.012311,77.7083395 C325.425098,77.6522509 324.888049,77.0736531 324.330344,76.7179336 C324.693295,76.4109225 325.023787,75.9090775 325.425098,75.8470849 C325.968049,75.761476 326.56559,76.0123985 327.704607,76.2234686" id="Fill-34" fill="#0B1D26" sketch:type="MSShapeGroup"></path>
                <path d="M405.90782,76.6234686 C405.047656,77.1858303 404.529787,77.7880443 403.995689,77.8013284 C403.466016,77.8146125 402.92159,77.2374908 402.383066,76.9186716 C402.927492,76.5304797 403.432082,75.9371218 404.029623,75.8190406 C404.488475,75.7275277 405.065361,76.2352768 405.90782,76.6234686" id="Fill-36" fill="#0B1D26" sketch:type="MSShapeGroup"></path>
                <path d="M478.670164,80.9958672 C478.501967,81.3250185 478.233443,82.0320295 478.137541,82.0098893 C477.563607,81.8740959 477.026557,81.5700369 476.477705,81.3220664 C476.865738,81.0534317 477.255246,80.7907011 477.638852,80.5161624 C478.215738,80.0999262 478.555082,80.2386716 478.670164,80.9958672" id="Fill-38" fill="#0B1D26" sketch:type="MSShapeGroup"></path>
                <path d="M240.224902,724.666273 C238.622607,725.326052 238.768672,724.232325 238.361459,723.841181 C238.858672,723.475129 239.351459,722.831587 239.856049,722.822731 C240.341459,722.813875 240.838672,723.460369 241.329984,723.819041 C240.812115,724.216089 240.294246,724.613137 240.224902,724.666273" id="Fill-40" fill="#0B1D26" sketch:type="MSShapeGroup"></path>
                <path d="M399.564,723.686937 C398.733344,724.197638 398.185967,724.584354 397.595803,724.886937 C396.585148,725.405018 396.626459,724.280295 396.172033,723.924576 C396.672197,723.53786 397.141377,722.906125 397.681377,722.838229 C398.190393,722.773284 398.774656,723.303173 399.564,723.686937" id="Fill-42" fill="#0B1D26" sketch:type="MSShapeGroup"></path>
                <path d="M159.595672,726.743764 C159.288787,726.066273 159.066,725.57476 158.843213,725.083247 C159.436328,724.847085 160.022066,724.463321 160.624033,724.436753 C160.926492,724.423469 161.258459,725.059631 161.575672,725.402066 C161.004689,725.788782 160.43518,726.175498 159.595672,726.743764" id="Fill-44" fill="#0B1D26" sketch:type="MSShapeGroup"></path>
                <path d="M315.988967,726.743764 C315.682082,726.066273 315.459295,725.57476 315.236508,725.083247 C315.829623,724.847085 316.415361,724.463321 317.017328,724.436753 C317.319787,724.423469 317.651754,725.059631 317.968967,725.402066 C317.400934,725.787306 316.831426,726.172546 315.988967,726.743764" id="Fill-46" fill="#0B1D26" sketch:type="MSShapeGroup"></path>
                <path d="M486.69359,71.2335055 C487.19523,70.7213284 487.696869,70.2106273 488.198508,69.6984502 C488.713426,70.0733579 489.228344,70.4482657 489.743262,70.8216974 C489.250475,71.3146863 488.757689,71.8076753 488.266377,72.2991882 C487.741131,71.9449446 487.217361,71.5892251 486.69359,71.2335055" id="Fill-48" fill="#0B1D26" sketch:type="MSShapeGroup"></path>
                <path d="M486.786393,73.7800738 C486.339344,74.5402214 485.638525,75.5070111 484.84918,74.7808118 C483.609836,73.6428044 485.060164,72.9564576 485.727049,72.20369 C486.079672,72.7291513 486.43377,73.2546125 486.786393,73.7800738" id="Fill-50" fill="#0B1D26" sketch:type="MSShapeGroup"></path>
                <path d="M488.265934,72.2997786 L486.786098,73.7802214 C486.433475,73.2547601 486.079377,72.7292989 485.726754,72.2038376 C485.94659,71.7772694 486.26823,71.4540221 486.693148,71.2340959 C487.218393,71.5883395 487.742164,71.944059 488.265934,72.2997786" id="Fill-52" fill="#0B1D26" sketch:type="MSShapeGroup"></path>
            </g>
        </g>
    </g>
</svg>