<?xml version="1.0" encoding="UTF-8" standalone="no"?>
<svg width="800px" height="800px" viewBox="0 0 800 800" version="1.1" xmlns="http://www.w3.org/2000/svg" xmlns:xlink="http://www.w3.org/1999/xlink" xmlns:sketch="http://www.bohemiancoding.com/sketch/ns">
    <!-- Generator: Sketch 3.4.4 (17249) - http://www.bohemiancoding.com/sketch -->
    <title>warriors</title>
    <desc>Created with Sketch.</desc>
    <defs>
        <path id="path-1" d="M0,0 L652.926943,0 L652.926943,800 L0,800 L0,0 Z"></path>
        <path id="path-3" d="M0,0 L652.926943,0 L652.926943,800 L0,800 L0,0 Z"></path>
    </defs>
    <g id="Page-1" stroke="none" stroke-width="1" fill="none" fill-rule="evenodd" sketch:type="MSPage">
        <g id="warriors" sketch:type="MSArtboardGroup">
            <g id="Page-1" sketch:type="MSLayerGroup" transform="translate(73.000000, 0.000000)">
                <g id="Group-3">
                    <mask id="mask-2" sketch:name="Clip 2" fill="white">
                        <use xlink:href="#path-1"></use>
                    </mask>
                    <g id="Clip-2"></g>
                    <path d="M331.638543,732.84565 L331.638543,733.085198 C326.374916,733.085198 321.11016,733.165424 315.848792,733.052429 C313.032864,732.992542 311.737289,734.394802 312.448895,736.870508 C313.96473,742.139435 309.60247,748.43661 315.300968,752.907797 C315.434253,753.012881 315.712118,752.948475 315.922211,752.937175 C326.41445,752.346215 336.932667,752.029831 347.387631,751.04678 C352.866999,750.531525 355.202875,746.585763 354.781559,741.145085 C354.371538,735.84791 351.228046,733.158644 346.159828,732.898757 C341.331072,732.651299 336.479724,732.84565 331.638543,732.84565 L331.638543,732.84565 Z M292.299144,800.000452 C296.767579,794.464859 295.36131,788.102147 295.085704,781.789153 C294.360543,765.175593 293.934709,748.549605 293.311206,731.931525 C293.225362,729.64904 293.51904,726.572203 292.223465,725.24678 C285.549051,718.421921 292.525051,720.084068 295.485559,719.950734 C313.137911,719.158644 330.795911,718.155254 348.457299,718.027571 C366.337818,717.897627 376.087952,729.751864 373.33302,747.298757 C371.666958,757.907797 363.975963,762.520226 353.71189,765.374463 C362.512087,774.947345 367.63904,786.629831 378.148222,793.853559 C379.069921,794.487458 379.983714,795.03435 379.731828,796.227571 C379.450574,797.551864 378.231807,797.462599 377.202802,797.464859 C368.395828,797.476158 359.587724,797.470508 349.637662,797.470508 C353.877932,793.809492 351.754408,791.23322 349.689621,788.550734 C347.122191,785.216271 343.99903,782.089718 342.317154,778.334915 C337.367538,767.281808 328.582025,765.788023 318.05703,767.23548 C315.070543,767.64678 313.471123,768.191412 313.729787,771.714576 C314.223393,778.426441 314.660522,785.184633 314.391693,791.893107 C314.252761,795.389153 319.620305,796.150734 317.606346,800.000452 L292.299144,800.000452 Z" id="Fill-1" fill="#066BB4" sketch:type="MSShapeGroup" mask="url(#mask-2)"></path>
                </g>
                <g id="Group-6">
                    <mask id="mask-4" sketch:name="Clip 5" fill="white">
                        <use xlink:href="#path-3"></use>
                    </mask>
                    <g id="Clip-5"></g>
                    <path d="M652.927282,626.582373 C652.570349,626.767684 651.996546,626.869379 651.886981,627.151864 C644.775437,645.383503 631.183759,656.766554 614.624795,666.673898 C606.64238,671.450169 606.718059,667.678418 604.491748,663.193672 C603.93037,662.063729 603.304608,660.965424 602.738712,659.83661 C598.875707,652.134915 598.877966,652.133785 606.670619,651.317966 C617.917385,650.141695 634.636743,633.882938 636.031717,622.733785 C636.454163,619.354124 635.552795,616.296497 632.655541,614.424181 C629.6058,612.454689 626.919769,614.221921 624.71379,616.287458 C617.63952,622.913446 610.874743,629.881808 603.626525,636.308927 C592.341354,646.315706 578.615261,645.64 569.51009,634.971073 C563.801427,628.281808 562.830028,620.479548 565.152349,612.368814 C569.053759,598.739435 578.295603,589.176723 589.581904,581.167684 C594.594774,577.609492 601.364069,576.536045 604.567427,570.285198 C605.443945,568.573333 606.98237,569.513446 607.744805,571.24791 C610.030981,576.452429 612.462867,581.594802 614.727582,586.809492 C615.819841,589.324746 614.773893,590.501017 612.14208,589.884068 C601.622733,587.418531 583.68122,603.523616 580.861904,614.400452 C579.979738,617.801582 579.95037,621.350734 583.26781,623.542825 C586.90265,625.945085 589.734391,623.44113 592.176442,621.124746 C597.531562,616.04791 602.693531,610.767684 607.948121,605.583503 C621.533023,592.181243 640.426733,587.545085 652.927282,611.392542 L652.927282,626.582373 Z" id="Fill-4" fill="#066BB4" sketch:type="MSShapeGroup" mask="url(#mask-4)"></path>
                </g>
                <path d="M347.974876,0.000451977401 C346.834047,2.72813559 346.451135,5.53830508 346.474855,8.51909605 C346.579902,21.460339 346.520036,34.4015819 346.520036,47.9032768 C343.582119,47.9032768 339.626492,47.920226 335.670865,47.8885876 C334.88358,47.8818079 333.981083,48.0298305 333.531528,47.0241808 C327.758482,34.1100565 315.200326,27.2761582 306.537933,16.6117514 C305.941539,26.9563842 304.766824,36.9970621 306.675736,47.480678 C302.869207,48.4772881 298.637974,47.6874576 295.161269,47.8027119 C294.546803,31.4784181 297.519736,15.6772881 293.564109,0.000451977401 L310.013508,0.000451977401 C308.84557,2.54169492 309.93444,4.35977401 311.763155,6.1100565 C314.193912,8.43661017 316.441684,10.9541243 318.820482,13.3371751 C324.476057,19.0038418 330.161,24.6411299 336.576751,31.0287006 C336.576751,23.4117514 336.516886,16.9236158 336.599342,10.4377401 C336.646782,6.71231638 336.868171,3.00271186 334.055632,0.000451977401 L347.974876,0.000451977401 Z" id="Fill-7" fill="#066BB4" sketch:type="MSShapeGroup"></path>
                <path d="M270.787627,0.000451977401 C271.248477,3.9179661 271.708197,7.83548023 272.172435,11.780113 C261.192238,11.2038418 251.117927,14.9868927 240.72057,16.6377401 C237.45057,17.1575141 239.02401,20.1642938 239.471306,21.8343503 C239.976207,23.719096 239.288321,27.7032768 242.289492,27.000452 C249.110746,25.4038418 256.993762,26.8015819 262.643689,20.0761582 C263.595886,24.9066667 264.436259,29.1676836 265.399751,34.059209 C258.003565,30.520226 251.495192,34.3936723 244.739451,35.3066667 C240.67087,35.8558192 242.879109,38.9959322 243.203285,40.7631638 C243.621212,43.0411299 242.698383,47.4614689 246.539927,46.8320904 C257.158674,45.0931073 267.986383,43.920226 278.422145,39.8897175 C279.062591,42.8761582 279.849876,46.540565 280.632642,50.1846328 C266.266104,51.4094915 252.580674,55.1755932 238.674984,57.6851977 C235.249109,58.3032768 234.939617,58.1981921 234.345482,54.1925424 C232.234383,39.9484746 229.829606,25.6829379 225.679699,11.1620339 C237.808632,8.76090395 250.341938,6.30327684 262.86056,3.78011299 C265.153513,3.3179661 268.263119,3.82870056 268.256342,0.000451977401 L270.787627,0.000451977401 Z" id="Fill-9" fill="#066BB4" sketch:type="MSShapeGroup"></path>
                <path d="M0,170.886441 C5.06144041,159.081921 14.034456,150.434463 24.0104974,142.257062 C26.7710777,145.042373 28.2394715,149.262712 30.9074301,153.340678 C22.0292953,153.30678 12.927513,161.412994 9.95570984,171.147458 C7.82202073,178.132768 10.061886,184.249153 16.3771088,188.687571 C23.7360207,193.859322 31.9409534,192.836723 38.3702591,185.744068 C41.7859689,181.976836 44.0506839,177.477401 46.1346736,172.833333 C47.4844663,169.827684 46.5435648,168.340678 44.1658964,166.587006 C41.1489119,164.362147 39.9583834,166.487571 38.8288497,168.468362 C37.0182073,171.645763 32.4932953,173.689831 34.0509223,179.058192 C31.091544,176.89435 28.1321658,174.729379 24.8892746,172.357627 C33.5855544,167.565537 36.1383005,158.214124 43.1075233,151.794915 C44.0676269,157.09887 48.2898238,160.067232 52.286114,161.29661 C56.8234508,162.69322 56.5693057,164.685311 55.8622176,167.987006 C53.2349223,180.249153 46.8203005,190.216384 36.7516373,197.450282 C25.6426736,205.432203 10.2448705,201.49209 2.80915026,189.460452 C1.8580829,187.919209 1.91230052,185.757627 0,184.810734 L0,170.886441 Z" id="Fill-11" fill="#066BB4" sketch:type="MSShapeGroup"></path>
                <path d="M325.20856,663.085876 C489.245088,659.183051 618.148601,523.890395 612.131575,359.064407 C606.341585,200.498305 474.461751,72.3378531 309.919192,77.5717514 C151.035596,82.6248588 24.6260933,213.19096 26.9111399,374.708475 C29.2074819,536.976271 163.91228,666.676836 325.20856,663.085876 M1.71011399,386.412429 C-1.86711917,221.719774 122.444839,79.1355932 289.423803,63.4576271 C470.210187,46.4836158 620.633575,180.362712 636.41429,349.741243 C653.278228,530.748023 519.108829,682.754802 347.211876,697.294915 C160.581285,713.080226 4.44019689,567.213559 1.71011399,386.412429" id="Fill-13" fill="#0369B2" sketch:type="MSShapeGroup"></path>
                <path d="M43.4568881,651.039096 C55.9427534,644.997288 68.4241005,638.945311 80.9201316,632.924972 C82.8200073,632.009718 84.1449503,630.806328 83.397199,628.527232 C82.9691057,627.223277 82.6799451,626.043616 84.1878725,625.383729 C85.3456446,624.876384 86.1668155,625.76226 86.9428052,626.449266 C92.9361109,631.75774 98.928287,637.067345 104.887707,642.413107 C105.77552,643.208588 107.073354,644.042486 106.273645,645.515932 C105.543966,646.860565 104.251779,646.75435 102.951686,646.330621 C100.770556,645.619887 99.7426808,647.175819 99.1496756,648.709153 C94.4485565,660.872994 89.8479658,673.075254 85.2439865,685.276384 C84.9017378,686.183729 84.7808777,687.174689 84.2398311,689.470734 C97.7230746,682.433446 110.115189,675.984859 122.477935,669.479774 C123.783676,668.792768 125.028422,667.783729 124.568702,665.993898 C124.216287,664.623277 122.995261,663.053785 124.653417,662.032316 C126.578142,660.845876 127.700898,662.831186 128.867707,663.860565 C134.238639,668.599548 139.528246,673.430056 144.842702,678.232316 C145.587064,678.904633 146.780981,679.498983 146.278339,680.691073 C145.725997,681.998418 144.541116,682.487684 143.148401,681.826667 C140.24437,680.448136 137.79667,681.927232 135.391893,683.149831 C116.075738,692.96791 96.7731368,702.813107 77.5066808,712.726102 C75.2238933,713.901243 71.9222663,714.850395 74.2163492,718.706893 C74.8793855,719.821017 74.4964736,720.726102 73.4810228,721.349831 C72.3560073,722.041356 71.5224114,721.338531 70.7238311,720.618757 C65.2455927,715.684294 59.7650953,710.75209 54.286857,705.816497 C53.4860176,705.095593 52.6976031,704.294463 53.3244943,703.132881 C53.9141109,702.040226 54.9261731,702.005198 56.030857,702.35209 C59.1382041,703.329492 60.0768466,701.243616 60.926256,698.911412 C66.1085565,684.691073 71.3202249,670.482034 76.5183389,656.266215 C76.622256,655.792768 76.7295617,655.320452 76.8368674,654.848136 C76.4178104,655.016497 75.9976238,655.183729 75.5785668,655.35209 C61.6130124,662.208588 47.6497171,669.068475 33.678515,675.915932 C31.9604943,676.75774 30.9224528,677.947571 31.6803699,679.924972 C32.220287,681.331751 33.0742145,682.802938 31.2195202,683.709153 C29.4868155,684.55435 28.5809295,682.809718 27.572256,681.934011 C22.6395824,677.652655 17.7995306,673.262825 12.9391472,668.897853 C12.0276135,668.078644 10.7806083,667.328362 11.3047119,665.824407 C11.7181212,664.637966 12.8137689,664.411977 13.908287,664.704633 C17.3635306,665.627797 18.2705461,663.265085 19.2035409,660.774689 C26.8730746,640.280904 34.565199,619.796158 42.2595824,599.311412 C43.0152404,597.301243 43.5088466,595.258305 42.9644114,593.129492 C42.5724632,591.599548 41.0611472,589.893333 43.3010124,588.76904 C45.0404943,587.895593 45.852629,589.75774 46.8658207,590.649266 C52.0876549,595.242486 57.2643078,599.886554 62.403686,604.572429 C63.4146187,605.494463 65.1450642,606.193898 64.498971,608.056045 C63.9375927,609.670734 62.5731161,609.243616 61.3261109,609.007458 C59.2093648,608.607458 58.1882663,609.980339 57.5692819,611.625537 C52.6908259,624.595028 46.7980487,637.181469 42.9011575,650.520452 C42.6278104,650.75774 42.0980591,651.174689 42.1195202,651.204068 C42.6357171,651.937401 43.0705876,651.621017 43.4568881,651.039096" id="Fill-15" fill="#066BB4" sketch:type="MSShapeGroup"></path>
                <path d="M547.032483,650.562034 C546.235032,650.659209 545.532462,650.576723 544.992545,650.83435 C534.021384,656.068249 524.673364,663.928136 516.304649,672.254689 C513.374638,675.169944 521.584089,680.414011 524.065675,685.002712 C524.821333,686.399322 525.846949,688.150734 527.967084,686.421921 C536.4544,679.502147 545.801291,673.64452 553.586037,665.863729 C556.229146,663.221921 556.798431,659.83774 555.134628,656.515706 C553.48212,653.214011 550.961001,650.694237 547.032483,650.562034 M567.129146,674.406102 C576.385675,677.23887 585.232182,679.904407 594.049322,682.668249 C596.91382,683.565424 599.760245,684.107797 602.734307,683.451299 C603.942908,683.184633 605.273498,682.563164 605.928628,684.211751 C606.556649,685.790282 605.158286,686.467119 604.233198,687.183503 C598.077239,691.954124 591.896431,696.694237 585.678348,701.385763 C583.519809,703.014011 581.351105,704.096497 581.87182,699.676158 C582.203903,696.860339 579.935799,696.789153 578.294587,696.23096 C570.343799,693.522486 562.268763,691.152994 554.434317,688.149605 C551.340524,686.963164 549.701571,688.391412 547.704555,689.871638 C534.998431,699.296497 534.780431,699.477288 544.715809,711.580113 C547.703426,715.218531 548.71097,721.809492 555.965965,720.905537 C557.290908,720.740565 557.577809,723.099887 556.061975,724.280678 C550.252783,728.806102 544.463923,733.360904 538.559851,737.759774 C536.419384,739.355254 534.886607,737.502147 535.67841,735.929266 C537.547789,732.216271 534.887737,730.366554 533.235229,728.202712 C521.093872,712.305537 508.850856,696.487458 496.637208,680.64678 C495.122504,678.681808 493.938752,676.23887 490.676659,677.03435 C489.565198,677.305537 488.522638,676.681808 488.345302,675.494237 C488.173612,674.341695 489.104348,673.663729 489.976348,673.012881 C505.657664,661.299887 520.288514,648.124746 536.874587,637.703277 C552.575105,627.83887 570.178887,635.703277 573.880369,653.43548 C575.157872,659.558644 573.881498,663.63322 567.129146,674.406102" id="Fill-17" fill="#066BB4" sketch:type="MSShapeGroup"></path>
                <path d="M253.043218,746.705763 C258.418668,746.56565 262.07158,744.865085 263.323104,739.636836 C264.61529,734.240226 262.731228,730.259435 257.553446,728.695593 C251.150119,726.76226 244.555902,725.402938 237.986534,724.089944 C222.595508,721.014237 222.581953,721.085424 220.65158,736.930621 C220.626731,737.137401 220.526202,737.332881 220.481021,737.537401 C220.075518,739.36678 220.844731,740.131751 222.673446,740.494463 C232.958979,742.534011 243.221922,744.685424 253.043218,746.705763 M256.920907,762.347571 C261.141974,771.870734 265.222979,781.079774 269.310762,790.286554 C269.566036,790.861695 270.018979,791.382599 270.13871,791.976949 C270.69444,794.729492 276.259653,795.200678 274.334927,797.95887 C272.396648,800.736271 268.537031,797.854915 265.586689,797.396158 C259.779756,796.495593 254.059798,795.043616 248.296917,793.851525 C246.607135,793.502373 244.008078,792.478644 246.104492,791.025537 C250.401238,788.049266 247.665508,785.447006 246.672648,782.682034 C245.466306,779.320452 244.058907,776.030056 242.703466,772.723842 C236.594948,757.822147 236.567839,757.945311 220.861674,755.000678 C217.683166,754.404068 216.796482,755.210847 216.278026,758.112542 C215.206098,764.114802 213.805477,770.058305 212.575415,776.032316 C212.279477,777.468475 211.430067,779.336271 212.00613,780.321582 C217.545363,789.793898 210.336679,785.674124 206.89386,785.101243 C201.71043,784.241356 196.569922,783.112542 191.432803,781.999548 C188.737736,781.415367 187.146223,779.997288 190.478347,778.219887 C193.224244,776.75548 193.521311,774.427797 194.030731,771.983729 C198.229207,751.807458 202.392668,731.624407 206.657788,711.462825 C207.070067,709.509153 207.520751,707.815367 205.82758,706.254915 C204.873124,705.375819 204.046306,704.100113 205.240223,703.037966 C205.836617,702.508023 207.23272,702.56565 208.171363,702.778079 C227.030057,707.043616 246.241166,709.780339 264.812959,715.234576 C280.041332,719.706893 286.006399,731.893333 280.952865,746.824407 C278.112088,755.222147 272.254326,759.973559 263.480109,761.183729 C261.441301,761.465085 259.422824,761.898983 256.920907,762.347571" id="Fill-19" fill="#066BB4" sketch:type="MSShapeGroup"></path>
                <path d="M491.080806,729.464746 C490.99835,714.401469 479.077252,702.222938 464.534506,702.343842 C448.927739,702.473785 436.407988,714.282825 436.479148,728.807119 C436.553697,743.932542 448.481573,756.537062 462.670775,756.485085 C478.275283,756.428588 491.162133,744.17322 491.080806,729.464746 M463.203915,686.067006 C486.803262,686.065876 501.343749,696.412768 507.465822,713.450056 C513.464775,730.143842 508.708309,748.205989 494.914444,759.036497 C481.441366,769.613898 466.199438,775.37774 448.985345,771.38452 C433.023905,767.682825 423.025273,756.889605 419.000744,741.163051 C414.871169,725.028588 419.245853,710.996949 431.988122,700.169831 C442.558298,691.18678 454.940247,686.273785 463.203915,686.067006" id="Fill-21" fill="#066BB4" sketch:type="MSShapeGroup"></path>
                <path d="M138.23877,722.44904 C144.575454,725.569944 150.188107,728.323616 155.790594,731.097627 C158.049661,732.216271 159.414138,731.84904 159.414138,729.03548 L159.414138,705.44678 C152.304853,711.155254 145.850697,716.337175 138.23877,722.44904 M183.572604,691.762034 C182.996542,692.44678 182.650905,693.273898 182.179889,693.352994 C175.857889,694.412881 177.398573,699.340565 177.412127,703.280678 C177.487806,724.575593 177.691122,745.870508 177.871848,767.165424 C177.894438,769.890847 177.756635,772.678418 179.796573,774.929266 C180.674221,775.898757 181.429879,776.966554 180.232573,778.201582 C179.056728,779.414011 177.887661,778.541695 176.808956,778.011751 C169.633029,774.487458 162.480822,770.913446 155.308283,767.383503 C154.156159,766.816271 152.77248,766.334915 152.926096,764.824181 C153.095526,763.160904 154.595547,763.267119 155.860625,763.204972 C157.030822,763.148475 157.692728,762.43548 158.224739,761.43322 C161.102791,756.010621 158.016905,746.105537 152.556739,743.375593 C145.967039,740.081808 139.350231,736.84113 132.789899,733.488588 C129.909589,732.017401 126.719785,730.04452 124.487827,733.667119 C122.162117,737.43887 113.028708,736.795932 117.26333,744.992542 C118.300241,747.000452 116.773112,748.595932 114.058842,747.23774 C107.472532,743.945085 100.824096,740.777853 94.2343969,737.491977 C93.1850601,736.968814 91.7516819,736.453559 92.2723969,734.751864 C92.6383658,733.560904 93.5984694,733.211751 94.7505938,733.346215 C97.8466456,733.708927 99.8752881,731.673898 101.988646,730.004972 C118.862749,716.681808 135.709744,703.324746 152.534148,689.938305 C155.224697,687.797062 158.892293,686.156384 156.318086,681.357514 C155.499174,679.83096 156.628708,677.936045 159.074148,679.107797 C166.662355,682.743955 174.235879,686.410621 181.78907,690.121356 C182.472438,690.456949 182.961526,691.185763 183.572604,691.762034" id="Fill-23" fill="#066BB4" sketch:type="MSShapeGroup"></path>
                <path d="M419.422625,787.009492 C412.058065,788.693107 404.695765,790.386893 397.326687,792.04904 C396.133899,792.319096 394.688096,792.864859 393.940345,791.468249 C393.44448,790.540565 393.812708,789.402712 394.738925,788.64678 C397.02962,786.775593 396.089848,784.44226 395.598501,782.225311 C391.177506,762.298757 386.720366,742.378983 382.30276,722.451299 C381.940179,720.812881 381.831744,719.174463 380.584739,717.808362 C379.474407,716.592542 376.12421,717.029831 377.3362,714.201582 C378.188998,712.210621 380.667195,712.817401 382.449599,712.406102 C387.984314,711.125876 393.528065,709.882938 399.08763,708.717966 C400.151651,708.495367 401.524034,707.394802 402.330521,709.193672 C402.830905,710.307797 402.438956,711.306667 401.583899,712.019661 C399.525889,713.737175 400.312045,715.706667 400.775153,717.802712 C405.225516,737.939435 409.689433,758.073898 413.93648,778.253559 C414.688749,781.829831 416.992998,783.867119 420.170376,785.522486 C419.920749,786.018531 419.672252,786.513446 419.422625,787.009492" id="Fill-25" fill="#066BB4" sketch:type="MSShapeGroup"></path>
                <path d="M190.522512,32.4718644 C183.461797,33.0142373 177.402978,36.6108475 170.913807,38.9035028 C168.914533,39.6108475 169.130274,40.9306215 169.710854,42.399548 C172.86903,50.3848588 176.088201,58.3464407 179.194419,66.3520904 C179.953465,68.3068927 181.016356,69.0424859 182.991911,68.1588701 C188.528885,65.6831638 194.539134,64.2323164 199.601704,60.7430508 C204.89131,57.0978531 205.964367,52.5498305 203.544906,45.1035028 C200.806916,36.6775141 196.483061,32.4865537 190.522512,32.4718644 M172.401403,81.2729944 C168.167911,65.5441808 161.722792,51.3588701 155.148906,36.2752542 C166.95931,32.7272316 178.288533,24.3848588 192.286844,23.9057627 C202.71018,23.5498305 210.214802,30.119322 213.740077,41.7758192 C217.00217,52.5633898 214.389559,61.8323164 205.427838,67.2176271 C194.980781,73.4955932 183.11503,76.6447458 172.401403,81.2729944" id="Fill-27" fill="#066BB4" sketch:type="MSShapeGroup"></path>
                <path d="M612.966752,180.172542 C613.04582,171.103616 606.535188,166.520565 601.881509,161.42904 C599.751208,159.099096 596.62353,164.129605 593.88554,165.701356 C592.321136,166.599661 592.112172,167.667458 593.360307,169.249379 C598.966182,176.355593 604.499768,183.522825 609.947509,190.752203 C611.133519,192.325085 612.885426,192.165763 614.64298,192.962373 C612.299198,196.714915 608.262245,198.183842 605.334493,201.118305 C600.122825,190.657288 592.118949,182.838079 585.739343,173.847119 C583.307457,170.41887 580.747934,167.081017 578.246017,163.702486 C581.397416,161.395141 584.589478,159.140904 587.691177,156.770282 C594.715747,151.400791 601.719985,146.003051 608.682431,140.553333 C611.086079,138.670847 614.036421,137.317175 614.790949,133.345424 C626.030939,145.144294 633.123281,159.203051 644.919001,169.521695 C642.496151,171.969153 639.545809,174.231299 636.237405,176.088927 C631.845778,166.071977 623.87127,158.81548 617.850856,150.170282 C616.660327,148.459548 615.239374,148.944294 614.129042,150.083277 C612.331954,151.927345 607.733623,153.21209 609.085675,155.546554 C612.285644,161.067458 615.737498,166.752203 621.271084,170.502486 C621.750006,170.82678 622.713498,170.433559 624.403281,170.297966 C621.112949,174.858418 616.99241,176.853898 612.966752,180.172542" id="Fill-29" fill="#066BB4" sketch:type="MSShapeGroup"></path>
                <path d="M72.249944,136.697627 C83.0765244,136.608362 93.679457,126.071638 93.3823896,115.694237 C93.1576124,107.855819 86.570172,101.84113 78.3663689,101.984633 C67.6335399,102.172203 57.6292601,112.159774 57.6947731,122.621921 C57.7456021,130.691977 64.0258093,136.765424 72.249944,136.697627 M47.8723482,123.929266 C48.0508145,105.83435 66.9806694,89.7168362 84.8465036,92.4490395 C94.3910632,93.9089266 101.954421,102.23435 103.000369,112.43322 C104.857322,130.527006 83.5927212,149.693107 65.7336642,146.021921 C54.9669492,143.809492 47.763913,134.899887 47.8723482,123.929266" id="Fill-31" fill="#066BB4" sketch:type="MSShapeGroup"></path>
                <path d="M391.078897,50.399322 C393.724265,46.84 395.984462,43.600452 399.129084,41.0332203 C403.035011,49.2241808 415.927509,55.7835028 424.504058,54.0094915 C426.816213,53.5315254 429.326037,52.8332203 429.685229,50.1134463 C430.048939,47.3575141 427.732265,46.0027119 425.608742,45.1270056 C419.975758,42.8061017 414.148493,40.9439548 408.581022,38.4851977 C401.24583,35.2433898 398.083136,30.4083616 398.882846,24.6049718 C399.844079,17.620791 404.652504,13.1360452 412.761426,12.2264407 C421.969384,11.1936723 430.160763,14.3281356 437.839333,19.1010169 C440.860835,20.9789831 443.860877,22.8885876 447.031478,24.8851977 C444.904566,28.2580791 441.584866,30.8241808 438.521571,33.780113 C434.122037,24.339435 425.961156,21.2535593 416.581509,20.3224859 C413.96212,20.0625989 411.148452,20.7145763 410.331799,23.5224859 C409.447374,26.5642938 412.002379,28.1021469 414.345032,29.1100565 C419.165882,31.1846328 424.132441,32.9168362 428.963457,34.9676836 C439.070524,39.260339 442.285177,44.0479096 440.475664,51.8038418 C438.749737,59.2072316 433.12353,62.6264407 422.685509,62.2027119 C413.458348,61.8287006 404.846783,59.3021469 397.379436,53.6490395 C395.528131,52.2479096 393.61696,51.0298305 391.078897,50.399322" id="Fill-33" fill="#066BB4" sketch:type="MSShapeGroup"></path>
                <path d="M514.257369,84.859661 C518.084229,87.4709605 521.115897,89.5681356 524.178063,91.6189831 C525.845255,92.7364972 527.201825,93.0946893 527.57683,90.3489266 C528.164188,86.0574011 528.917587,81.7873446 529.80427,76.2302825 C524.206302,79.3364972 519.624913,81.88 514.257369,84.859661 M498.778239,97.3263277 C495.292498,94.9941243 491.865493,92.7014689 488.429452,90.4031638 C502.052758,82.4381921 516.350395,76.1319774 527.910042,66.5285876 C534.514426,61.040452 536.409783,65.1432768 540.334913,67.3059887 C541.587566,67.9963842 542.683213,68.9681356 544.209213,70.0698305 C542.266416,71.6438418 540.256975,72.3331073 539.963296,75.1364972 C538.365006,90.3839548 535.57054,105.504859 535.003514,121.720678 C531.164229,119.181695 527.567794,116.780565 523.94425,114.418983 C522.125701,113.234802 522.290612,112.621243 523.684457,110.698079 C527.155514,105.907119 525.943524,101.605424 520.960022,98.1579661 C518.189276,96.240452 515.395939,94.3557062 512.589048,92.4912994 C506.578799,88.4980791 501.563669,90.1737853 498.778239,97.3263277" id="Fill-35" fill="#066BB4" sketch:type="MSShapeGroup"></path>
                <path d="M557.871601,143.269944 C553.735249,139.529831 550.499135,136.604407 547.242689,133.659774 C556.840337,125.867684 564.028689,116.076723 572.505839,107.53209 C573.59358,106.436045 574.763777,105.254124 573.057052,103.964859 C568.690275,100.664294 566.065238,94.9671186 558.975155,94.4292655 C562.171736,90.8518644 564.913114,87.7818079 567.052451,85.3885876 C578.388451,97.3332203 590.164969,108.073333 602.80671,118.561469 C600.923777,120.604407 598.250171,123.504972 595.570917,126.412316 C592.980896,125.814576 593.971497,123.292542 592.820503,121.892542 C584.655104,111.965989 583.11329,111.878983 574.315352,121.517401 C570.053622,126.185198 565.736544,130.803277 561.451093,135.448475 C559.664171,137.385198 557.598254,139.152429 557.871601,143.269944" id="Fill-37" fill="#066BB4" sketch:type="MSShapeGroup"></path>
                <path d="M510.227645,47.0901695 C508.893665,49.9749153 507.255841,53.5184181 505.309655,57.7285876 C501.724515,51.9331073 495.75493,51.2574011 491.028961,48.4879096 C490.063209,47.9218079 488.967562,47.960226 488.411831,49.2314124 C483.733303,59.9410169 477.51409,69.9624859 474.110805,81.2370621 C473.949282,81.7749153 474.192132,82.4336723 474.287012,83.4833898 C469.503437,82.4946893 465.797437,79.8777401 461.924266,78.0167232 C468.609976,67.5862147 472.79038,56.1703955 478.222308,45.3873446 C479.024277,43.7941243 478.905676,42.5444068 477.115365,41.8698305 C472.116049,39.9862147 467.84867,36.1025989 461.418235,36.7138983 C463.354256,32.6178531 465.028225,29.0754802 466.413033,26.1455367 C480.414733,34.3240678 494.775624,40.7918644 510.227645,47.0901695" id="Fill-39" fill="#066BB4" sketch:type="MSShapeGroup"></path>
                <path d="M157.512116,76.119887 C158.432686,76.6633898 158.901442,76.7876836 159.119442,77.0916384 C164.788572,84.9865537 164.76937,84.9673446 156.851339,89.8554802 C145.796593,96.6814689 134.764437,103.544746 124.740955,109.761695 C117.473536,95.2972881 108.795328,82.3560452 99.8019813,68.7244068 C102.062178,66.4905085 106.558852,64.3899435 111.780686,61.439661 C110.410562,65.8532203 112.791619,68.3481356 114.480272,71.0950282 C118.885453,78.2633898 123.377608,85.3786441 127.731961,92.5786441 C129.087401,94.8181921 130.181919,96.2012429 133.055453,94.3244068 C140.098095,89.7232768 147.284189,85.3379661 154.507556,81.0227119 C156.38823,79.899548 156.861505,77.9571751 157.512116,76.119887" id="Fill-41" fill="#066BB4" sketch:type="MSShapeGroup"></path>
                <path d="M138.745705,575.852203 C139.263031,566.376497 139.028088,566.159548 131.134907,568.701921 C133.693301,571.106441 136.003197,573.275932 138.745705,575.852203 L138.745705,575.852203 Z M55.2788135,438.52904 C56.4456218,432.084972 59.1779637,426.171977 59.4908446,419.258983 C51.2362124,427.797966 50.8307098,429.71887 55.2788135,438.52904 L55.2788135,438.52904 Z M178.542565,604.025085 C177.991352,592.308701 177.493228,581.187797 176.917166,570.071412 C176.824544,568.300791 177.150979,566.186667 174.077518,566.271412 C171.107974,566.355028 170.704731,567.800226 170.879808,570.303051 C171.522513,579.530169 172.143756,588.761808 172.525539,598.002486 C172.675767,601.649944 174.542886,603.175367 178.542565,604.025085 L178.542565,604.025085 Z M518.644026,508.661243 C504.618606,503.585537 491.632358,496.51774 477.06815,491.698531 C478.742119,496.947119 480.088523,500.91322 481.25872,504.931299 C481.972585,507.384407 482.981259,508.786667 485.972264,508.735819 C496.859839,508.548249 507.753062,508.661243 518.644026,508.661243 L518.644026,508.661243 Z M448.432212,476.52678 C451.816295,487.344859 454.768896,496.655593 457.61871,505.997966 C458.195902,507.890621 459.211352,508.483842 461.166575,508.71548 C475.780482,510.451073 476.291031,509.899661 471.986378,496.003616 C471.366264,494.004746 470.654658,492.031864 470.121518,490.011525 C469.544326,487.825085 468.260047,486.488362 466.199777,485.501921 C460.74187,482.888362 455.385622,480.061243 448.432212,476.52678 L448.432212,476.52678 Z M138.991943,450.465763 C138.682451,450.429605 138.374088,450.392316 138.065725,450.356158 C137.027684,456.290621 136.012233,462.229605 134.948212,468.159548 C131.41729,487.835254 127.924772,507.51887 124.277508,527.174237 C123.611083,530.767458 124.287674,532.391186 128.230876,531.559548 C130.285497,531.12565 132.38756,530.629605 134.464772,530.640904 C137.98101,530.661243 139.080047,529.226215 139.061974,525.707571 C138.929819,500.627345 138.991943,475.545989 138.991943,450.465763 L138.991943,450.465763 Z M420.231145,460.643164 C425.221425,476.91209 429.794907,491.865763 434.411311,506.805876 C434.814554,508.11322 435.810803,508.71548 437.290492,508.695141 C441.973539,508.627345 446.658845,508.670282 451.888585,508.670282 C448.185974,496.697401 444.782689,485.708701 441.394088,474.71661 C440.947922,473.266893 440.289404,471.970847 438.929446,471.199096 C433.141715,467.91435 427.339301,464.652203 420.231145,460.643164 L420.231145,460.643164 Z M522.31614,553.497401 C455.965073,552.195706 390.319964,551.92 324.666948,553.873672 C326.300254,554.465763 327.943725,554.631864 329.586067,554.631864 C390.260098,554.594576 450.912668,555.427345 511.466969,559.595706 C516.326223,559.930169 519.552171,558.577627 522.31614,553.497401 L522.31614,553.497401 Z M83.6764197,383.586667 C76.4507927,392.283842 70.1344404,401.12226 68.3328342,412.593446 C66.7063057,422.949379 64.8956632,433.447684 61.5059326,443.31209 C57.4791451,455.032994 62.2209275,464.379887 67.6562435,474.271412 L83.6764197,383.586667 Z M192.16813,439.263503 C191.767145,439.256723 191.36729,439.248814 190.966306,439.240904 C191.421508,447.605876 191.857508,455.971977 192.334171,464.334689 C193.35301,482.191186 194.490451,500.040904 195.353415,517.904181 C195.55899,522.181017 196.74613,523.835254 201.327518,522.996836 C206.660047,522.021695 212.131508,521.799096 218.173383,521.186667 C209.41272,493.586667 200.78986,466.425085 192.16813,439.263503 L192.16813,439.263503 Z M388.841404,440.934689 C395.062876,460.648814 400.704896,478.621695 406.410171,496.573107 C410.456161,509.303051 410.493435,509.078192 423.558751,508.982147 C428.037352,508.949379 428.290368,507.566328 427.12243,503.898531 C422.412275,489.100791 417.931415,474.230734 413.273218,459.416045 C412.672306,457.501921 412.234047,455.52452 410.084544,454.248814 C403.421425,450.292881 396.933383,446.040904 388.841404,440.934689 L388.841404,440.934689 Z M360.133176,421.169718 C359.825943,421.488362 359.51871,421.808136 359.211477,422.12678 C367.256016,447.72113 375.307332,473.31322 383.342834,498.91096 C386.926845,510.330169 386.904254,510.12 399.084016,509.684972 C403.340098,509.533559 403.901477,508.670282 402.602513,504.661243 C395.550834,482.898531 388.810907,461.034124 381.904938,439.223955 C381.350337,437.472542 381.005829,435.542599 379.253922,434.347119 C372.861891,429.982147 366.503746,425.566328 360.133176,421.169718 L360.133176,421.169718 Z M162.164326,241.955028 C162.164326,244.991186 162.124793,247.309831 162.171104,249.626215 C163.292731,306.71661 164.31044,363.810395 165.596979,420.898531 C166.34699,454.176497 167.490078,487.447684 168.626389,520.71548 C168.694161,522.692881 167.279984,526.392316 171.647891,526.264633 C175.740192,526.145989 174.658098,522.960678 174.589197,520.662373 C174.19499,507.607006 173.637,494.557288 173.232627,481.501921 C171.634337,429.92 170.010067,378.338079 168.522472,326.752768 C167.811995,302.107571 167.441508,277.452203 166.768306,252.805876 C166.666648,249.074802 167.665155,244.639774 162.164326,241.955028 L162.164326,241.955028 Z M329.305943,398.371977 C328.583041,400.387797 329.333052,401.696271 329.769052,403.074802 C339.967611,435.289492 350.153746,467.507571 360.330845,499.72904 C363.798513,510.709831 363.783829,510.472542 374.683829,510.449944 C379.540824,510.438644 380.206119,509.31435 378.707228,504.733559 C370.222171,478.793446 361.084244,453.004746 354.177145,426.638644 C350.381912,412.150508 339.725891,406.150508 329.305943,398.371977 L329.305943,398.371977 Z M81.340544,503.161808 L109.393642,342.460113 C108.704627,342.255593 108.015611,342.049944 107.326596,341.845424 C102.565611,352.698531 93.4581813,361.262373 91.2634974,373.434124 C85.7434663,404.054463 80.5871451,434.742599 74.8412073,465.32 C72.3212176,478.731299 69.585487,491.805876 81.340544,503.161808 L81.340544,503.161808 Z M189.01786,357.692881 C189.01786,369.244294 188.881187,383.11661 189.078855,396.984407 C189.169218,403.258983 189.410938,409.52452 191.372938,415.675932 C201.58957,447.71661 211.61644,479.818305 221.708824,511.898531 C224.608337,521.11548 224.584617,520.868023 234.238741,519.967458 C239.08557,519.51435 239.37699,517.855593 238.024938,513.658983 C230.616326,490.652203 223.507041,467.549379 216.273508,444.486102 C206.923228,414.671412 197.551487,384.863503 189.01786,357.692881 L189.01786,357.692881 Z M295.261798,370.600226 C294.355912,372.91774 295.302461,374.200226 295.737332,375.565198 C308.924637,416.992316 322.128886,458.414915 335.302637,499.846554 C339.136275,511.906441 339.09787,511.582147 351.440285,511.567458 C356.864306,511.561808 357.11958,510.104181 355.650057,505.542599 C343.726699,468.555028 332.011176,431.499661 320.214326,394.471412 C319.523052,392.298531 319.103995,390.011525 317.126181,388.417175 C309.938959,382.626215 302.810472,376.761808 295.261798,370.600226 L295.261798,370.600226 Z M139.889922,320.655593 C139.546544,321.809266 139.325155,322.353898 139.224627,322.91887 C127.059549,391.294011 114.955466,459.679322 102.651456,528.029605 C101.588565,533.933559 102.615311,535.32 108.809674,534.368588 C114.70471,533.462373 117.692326,531.842034 118.737145,525.31661 C123.098275,498.099661 128.334793,471.023955 132.82243,443.826215 C135.690316,426.438644 140.441135,409.362938 140.023207,391.419435 C139.478772,368.053333 139.889922,344.665763 139.889922,320.655593 L139.889922,320.655593 Z M139.807466,284.142599 C139.197518,284.017175 138.58757,283.891751 137.977622,283.766328 C131.932358,295.72565 125.873539,307.677062 119.868938,319.655593 C119.409218,320.574237 119.266896,321.672542 119.082782,322.706441 C108.521642,382.192316 98.3196943,441.744859 87.1192383,501.109831 C84.9561813,512.576497 89.4731865,519.781017 96.5779534,528.269153 C111.098109,446.271412 125.452223,365.207006 139.807466,284.142599 L139.807466,284.142599 Z M230.649083,312.022825 C229.85728,314.958418 230.993591,316.642034 231.543674,318.396836 C250.674585,379.413785 269.826959,440.423955 288.997404,501.427345 C293.587829,516.035254 293.623974,516.023955 309.942347,513.397966 C309.785342,512.581017 309.708534,511.743729 309.460036,510.960678 C291.053155,452.803616 272.63385,394.651073 254.206637,336.499661 C253.633964,334.692881 252.91558,333.025085 251.433632,331.647684 C244.662078,325.358418 237.985404,318.968588 230.649083,312.022825 L230.649083,312.022825 Z M185.293788,266.12 C185.293788,278.72 184.907487,290.690621 185.419166,302.621695 C185.805466,311.610395 184.588959,320.805876 187.306617,329.581017 C205.657021,388.826215 224.106824,448.040904 242.536295,507.262373 C245.991539,518.366328 246.010741,517.983277 257.212326,517.879322 C263.448482,517.821695 263.924016,516.030734 262.183404,510.551638 C244.872171,456.058983 227.810565,401.487232 210.677798,346.938079 C202.257124,320.12678 193.835321,293.31661 185.293788,266.12 L185.293788,266.12 Z M504.529373,572.188927 C493.339083,571.246554 483.736917,570.331299 474.118938,569.648814 C437.781839,567.069153 401.390523,565.92226 364.972098,565.166328 C311.043642,564.045424 257.12987,564.610395 203.209321,565.555028 C199.277415,565.623955 198.969052,567.070282 199.349705,570.438644 C200.932181,584.456723 202.469477,598.488362 203.482668,612.555028 C203.822658,617.286102 205.716886,619.578757 209.869052,621.32 C279.265342,650.426215 349.197031,652.019435 419.555684,625.216045 C450.73872,613.336949 478.481197,595.705311 504.529373,572.188927 L504.529373,572.188927 Z M197.728824,279.418305 C197.379798,279.077062 196.764202,278.408136 196.72015,278.443164 C195.983694,279.040904 196.305611,279.704181 196.722409,280.347119 C197.240865,282.167458 197.717528,284.001356 198.282295,285.807006 C221.467104,359.898531 244.658689,433.986667 267.853663,508.074802 C270.635705,516.961808 270.632316,516.577627 279.798482,516.186667 C286.180347,515.91435 286.573425,513.71661 284.787632,508.229605 C273.982513,475.018305 263.920627,441.561808 252.817311,408.452203 C240.134907,370.635254 230.466098,331.814915 215.090886,294.897401 C217.072088,295.360678 218.200492,296.971977 219.525435,298.277062 C257.919415,336.11096 299.505456,370.020565 344.517373,399.673672 C410.618813,443.221695 481.450741,476.056723 558.809114,494.105311 C562.408938,494.945989 563.969953,494.411525 565.565984,491.081582 C590.691332,438.630734 599.376316,383.690621 589.863383,326.247684 C568.744492,198.736949 463.321725,103.255593 335.17613,96.5957062 C254.128699,92.3832768 183.720347,119.065763 126.244026,176.413785 C70.3298497,232.202486 44.2331036,300.708701 45.8788342,379.662373 C46.0765026,389.12904 46.5350933,398.71435 49.0347513,409.707571 C51.203456,407.003616 52.4323886,405.292881 53.838658,403.742599 C91.0296839,362.72678 118.427653,315.562938 140.86358,265.266893 C141.862088,263.027345 141.860959,260.791186 141.923083,258.480452 C142.193041,248.373107 142.343269,238.260113 142.82558,228.161808 C143.113611,222.145989 149.313622,219.629605 152.445819,215.752768 C156.029829,211.31548 161.879684,215.597966 161.977953,222.205876 C162.028782,225.577627 162.153031,228.949379 162.169974,232.32113 C162.182399,235.099661 162.690689,237.51435 165.964078,238.703051 C165.964078,235.877062 165.848865,233.369718 165.993446,230.877062 C166.170782,227.803616 172.787591,221.013785 175.102005,221.906441 C178.959363,223.393446 183.54301,224.11322 183.201891,230.477062 C182.763632,238.658983 183.757622,246.908701 183.574637,255.11661 C183.477497,259.52678 185.071269,262.587797 187.901881,265.731299 C195.622244,274.304181 204.368223,281.931299 211.358907,291.173107 C205.467259,288.819435 202.82415,282.696271 197.728824,279.418305 L197.728824,279.418305 Z M264.532834,344.226215 C264.402938,343.72 264.291114,343.072542 263.590803,343.507571 C263.453,343.593446 263.773788,344.414915 263.882223,344.897401 C264.27756,346.52904 264.576886,348.190056 265.080658,349.786667 C280.828617,399.678192 296.591259,449.566328 312.365197,499.449944 C316.973694,514.022825 316.994026,514.016045 332.448306,512.188927 C332.283394,511.375367 332.19529,510.556158 331.951311,509.785537 C316.649518,461.505311 301.328523,413.229605 286.042544,364.943729 C285.457446,363.095141 284.746969,361.412655 283.234523,360.130169 C276.99272,354.837514 270.765601,349.52904 264.532834,344.226215 L264.532834,344.226215 Z M325.207995,663.086102 C163.911715,666.675932 29.2069171,536.976497 26.9117047,374.708701 C24.6255285,213.191186 151.036161,82.6239548 309.919756,77.5708475 C474.461187,72.3380791 606.34215,200.497401 612.13101,359.064633 C618.149166,523.889492 489.244523,659.183277 325.207995,663.086102 L325.207995,663.086102 Z" id="Fill-43" fill="#FAC225" sketch:type="MSShapeGroup"></path>
                <path d="M211.358681,291.172203 C204.367997,281.931525 195.622018,274.304407 187.901655,265.731525 C185.071044,262.588023 183.477272,259.525876 183.575541,255.116836 C183.757396,246.908927 182.764536,238.659209 183.202795,230.477288 C183.542784,224.113446 178.960266,223.393672 175.101779,221.905537 C172.788494,221.014011 166.170556,227.803842 165.99322,230.877288 C165.849769,233.368814 165.963852,235.877288 165.963852,238.703277 C162.690463,237.514576 162.183303,235.099887 162.169748,232.321356 C162.153935,228.949605 162.028556,225.577853 161.977727,222.206102 C161.879458,215.598192 156.030733,211.314576 152.445593,215.751864 C149.313396,219.629831 143.114515,222.145085 142.826484,228.162034 C142.343044,238.260339 142.193945,248.373333 141.922857,258.480678 C141.861862,260.791412 141.861862,263.027571 140.863354,265.265989 C118.427427,315.563164 91.029458,362.727006 53.8384321,403.742825 C52.4321627,405.293107 51.2032301,407.003842 49.0345254,409.707797 C46.5348674,398.714576 46.0762767,389.129266 45.8786083,379.662599 C44.2328777,300.708927 70.3296238,232.202712 126.2438,176.414011 C183.720121,119.065989 254.128474,92.3835028 335.175904,96.5959322 C463.321499,103.255819 568.744266,198.736045 589.863158,326.24791 C599.37722,383.690847 590.691106,438.63096 565.565759,491.081808 C563.970857,494.411751 562.409841,494.946215 558.808888,494.105537 C481.450515,476.056949 410.618588,443.221921 344.517147,399.673898 C299.50523,370.020791 257.919189,336.111186 219.525209,298.277288 C218.201396,296.972203 217.071862,295.360904 215.09066,294.896497 L215.191189,294.974463 C215.135841,294.107797 214.674992,293.64678 213.808639,293.592542 L213.924981,293.708927 C213.870764,292.84226 213.409914,292.381243 212.543562,292.325876 L212.659904,292.44226 C212.603427,291.574463 212.141448,291.113446 211.273966,291.060339 L211.358681,291.172203 Z" id="Fill-45" fill="#0168B2" sketch:type="MSShapeGroup"></path>
                <path d="M504.529486,572.188927 C478.48131,595.705311 450.738833,613.336949 419.555797,625.216045 C349.197144,652.019435 279.265455,650.426215 209.869165,621.32 C205.716999,619.578757 203.822771,617.286102 203.482781,612.555028 C202.46959,598.488362 200.932294,584.456723 199.349818,570.438644 C198.969165,567.070282 199.277527,565.623955 203.209434,565.555028 C257.129983,564.610395 311.043755,564.045424 364.972211,565.166328 C401.390636,565.92226 437.781952,567.069153 474.117921,569.648814 C483.73703,570.331299 493.339196,571.246554 504.529486,572.188927" id="Fill-47" fill="#0168B2" sketch:type="MSShapeGroup"></path>
                <path d="M185.293336,266.119774 C193.835999,293.316384 202.257802,320.127684 210.678476,346.937853 C227.810113,401.487006 244.872849,456.058757 262.182952,510.551412 C263.923564,516.030508 263.44916,517.821469 257.213004,517.879096 C246.010289,517.983051 245.991087,518.367232 242.535844,507.262147 C224.107502,448.040678 205.657698,388.825989 187.307294,329.580791 C184.589636,320.80565 185.805015,311.611299 185.419844,302.622599 C184.908165,290.690395 185.293336,278.719774 185.293336,266.119774" id="Fill-49" fill="#066AAF" sketch:type="MSShapeGroup"></path>
                <path d="M197.72905,279.418305 C202.823247,282.697401 205.467485,288.819435 211.359133,291.171977 L211.274418,291.060113 C210.865526,292.394576 211.110635,293.072542 212.660355,292.442034 L212.544013,292.32678 C211.938583,293.853333 212.398304,294.31435 213.925433,293.708701 L213.809091,293.592316 C213.203661,295.11887 213.663381,295.581017 215.190511,294.974237 C215.190511,294.974237 215.089982,294.896271 215.091112,294.897401 C230.466324,331.814915 240.135133,370.635254 252.817537,408.452203 C263.919723,441.561808 273.981609,475.018305 284.787858,508.229605 C286.573651,513.71661 286.180573,515.91435 279.798708,516.186667 C270.631412,516.577627 270.635931,516.961808 267.85276,508.074802 C244.657785,433.986667 221.46733,359.898531 198.282521,285.808136 C197.717754,284.001356 197.239962,282.167458 196.722635,280.347119 L197.72905,279.418305" id="Fill-51" fill="#066AAF" sketch:type="MSShapeGroup"></path>
                <path d="M230.648631,312.02226 C237.984952,318.969153 244.662755,325.358983 251.43318,331.648249 C252.916258,333.02565 253.634641,334.693446 254.207315,336.500226 C272.633398,394.650508 291.052704,452.804181 309.460714,510.960113 C309.708082,511.743164 309.78489,512.580452 309.943025,513.397401 C293.623522,516.02339 293.587377,516.034689 288.996952,501.42791 C269.826507,440.42339 250.675263,379.41322 231.544351,318.396271 C230.994268,316.641469 229.857958,314.958983 230.648631,312.02226" id="Fill-53" fill="#066AAF" sketch:type="MSShapeGroup"></path>
                <path d="M139.80724,284.142373 C125.453126,365.20678 111.097883,446.271186 96.578857,528.268927 C89.4729606,519.780791 84.9559554,512.577401 87.1190124,501.109605 C98.3205979,441.744633 108.522546,382.19209 119.083686,322.706215 C119.26667,321.673446 119.408992,320.574011 119.869841,319.656497 C125.873313,307.676836 131.932132,295.725424 137.977396,283.766102 C138.587344,283.891525 139.197292,284.016949 139.80724,284.142373" id="Fill-55" fill="#066AAF" sketch:type="MSShapeGroup"></path>
                <path d="M139.890035,320.655141 C139.890035,344.666441 139.478885,368.054011 140.02332,391.420113 C140.441248,409.363616 135.690429,426.439322 132.821413,443.825763 C128.334906,471.024633 123.098388,498.100339 118.737258,525.317288 C117.692439,531.841582 114.704823,533.461921 108.809787,534.368136 C102.615424,535.319548 101.588678,533.933107 102.651569,528.029153 C114.955579,459.68 127.059662,391.293559 139.22474,322.919548 C139.325268,322.353446 139.546657,321.809944 139.890035,320.655141" id="Fill-57" fill="#066AAF" sketch:type="MSShapeGroup"></path>
                <path d="M264.532382,344.225876 C270.765149,349.528701 276.993398,354.837175 283.235201,360.129831 C284.747647,361.412316 285.456994,363.094802 286.042092,364.94452 C301.329201,413.230395 316.649066,461.504972 331.950859,509.786328 C332.194838,510.555819 332.284072,511.375028 332.448983,512.189718 C316.993574,514.016836 316.973242,514.022486 312.365875,499.450734 C296.590807,449.565989 280.829294,399.678983 265.080206,349.786328 C264.576434,348.189718 264.277108,346.528701 263.882901,344.898192 C264.106548,344.681243 264.323419,344.457514 264.532382,344.225876" id="Fill-59" fill="#066AAF" sketch:type="MSShapeGroup"></path>
                <path d="M295.26225,370.600565 C302.810923,376.762147 309.93941,382.626554 317.126633,388.417514 C319.104447,390.011864 319.522374,392.29887 320.214778,394.471751 C332.011628,431.5 343.726022,468.555367 355.649379,505.542938 C357.120032,510.10452 356.864758,511.562147 351.440737,511.567797 C339.098322,511.581356 339.136726,511.90678 335.30196,499.845763 C322.128208,458.414124 308.925089,416.992655 295.736654,375.565537 C295.301783,374.199435 294.356364,372.918079 295.26225,370.600565" id="Fill-61" fill="#066AAF" sketch:type="MSShapeGroup"></path>
                <path d="M189.017747,357.693107 C197.551374,384.863729 206.923115,414.671638 216.273395,444.486328 C223.506928,467.548475 230.616213,490.652429 238.024825,513.658079 C239.376877,517.855819 239.085457,519.514576 234.238628,519.966554 C224.584504,520.868249 224.609353,521.115706 221.708711,511.898757 C211.617457,479.818531 201.589457,447.716836 191.372825,415.676158 C189.410825,409.524746 189.169105,403.259209 189.078742,396.983503 C188.881074,383.116836 189.017747,369.24339 189.017747,357.693107" id="Fill-63" fill="#066AAF" sketch:type="MSShapeGroup"></path>
                <path d="M81.3400922,503.161582 C69.5861648,491.80678 72.3207658,478.731073 74.8407554,465.319774 C80.5866933,434.742373 85.7430145,404.054237 91.2641751,373.433898 C93.4588591,361.262147 102.56516,352.698305 107.326144,341.845198 C108.01516,342.050847 108.704175,342.255367 109.393191,342.459887 L81.3400922,503.161582 Z" id="Fill-65" fill="#066AAF" sketch:type="MSShapeGroup"></path>
                <path d="M329.305717,398.372542 C339.726795,406.151073 350.381686,412.151073 354.176919,426.639209 C361.084018,453.005311 370.223075,478.794011 378.707002,504.732994 C380.205893,509.314915 379.540598,510.439209 374.683603,510.449379 C363.783603,510.473107 363.799417,510.710395 360.330619,499.729605 C350.15352,467.508136 339.967385,435.290056 329.768826,403.075367 C329.332826,401.696836 328.582816,400.388362 329.305717,398.372542" id="Fill-67" fill="#066AAF" sketch:type="MSShapeGroup"></path>
                <path d="M162.164778,241.955367 C167.665607,244.638983 166.667099,249.074011 166.768758,252.806215 C167.44083,277.452542 167.811317,302.10678 168.522923,326.751977 C170.010519,378.338418 171.633659,429.920339 173.231949,481.50226 C173.637452,494.557627 174.195441,507.607345 174.589649,520.662712 C174.65855,522.961017 175.740644,526.146328 171.648343,526.264972 C167.280436,526.391525 168.694612,522.69209 168.62684,520.715819 C167.49053,487.446893 166.347441,454.176836 165.597431,420.89774 C164.309763,363.810734 163.293182,306.716949 162.170426,249.625424 C162.125245,247.30904 162.164778,244.991525 162.164778,241.955367" id="Fill-69" fill="#066AAF" sketch:type="MSShapeGroup"></path>
                <path d="M360.132837,421.169492 C366.503407,425.566102 372.861552,429.983051 379.254713,434.346893 C381.00662,435.543503 381.349998,437.473446 381.904599,439.223729 C388.810568,461.033898 395.550495,482.898305 402.603304,504.661017 C403.902267,508.670056 403.33976,509.533333 399.083677,509.684746 C386.903915,510.119774 386.926506,510.331073 383.342495,498.910734 C375.308122,473.314124 367.255677,447.722034 359.211138,422.127684 C359.518371,421.80791 359.825604,421.489266 360.132837,421.169492" id="Fill-71" fill="#066AAF" sketch:type="MSShapeGroup"></path>
                <path d="M388.840952,440.934124 C396.932932,446.040339 403.420973,450.292316 410.084092,454.249379 C412.233595,455.525085 412.671854,457.501356 413.273895,459.41548 C417.932092,474.230169 422.411823,489.101356 427.123108,503.899096 C428.289916,507.566893 428.036901,508.948814 423.558299,508.981582 C410.492983,509.078757 410.455709,509.302486 406.409719,496.573672 C400.704445,478.62113 395.062424,460.648249 388.840952,440.934124" id="Fill-73" fill="#066AAF" sketch:type="MSShapeGroup"></path>
                <path d="M192.167678,439.263842 C200.790538,466.425424 209.412268,493.587006 218.174061,521.185876 C212.131056,521.799435 206.660724,522.022034 201.327066,522.997175 C196.745678,523.834463 195.559667,522.180226 195.352963,517.90452 C194.491128,500.041243 193.352559,482.190395 192.334849,464.335028 C191.857056,455.971186 191.421056,447.606215 190.966983,439.241243 C191.366838,439.249153 191.767823,439.255932 192.167678,439.263842" id="Fill-75" fill="#066AAF" sketch:type="MSShapeGroup"></path>
                <path d="M83.6766456,383.586667 L67.6564694,474.271412 C62.2211534,464.379887 57.479371,455.032994 61.5061585,443.31209 C64.8958891,433.447684 66.7065316,422.949379 68.3330601,412.593446 C70.1346663,401.12226 76.4510187,392.283842 83.6766456,383.586667" id="Fill-77" fill="#066AAF" sketch:type="MSShapeGroup"></path>
                <path d="M522.316253,553.496949 C519.552284,558.578305 516.326336,559.929718 511.467082,559.595254 C450.912781,555.426893 390.260211,554.594124 329.58618,554.631412 C327.943838,554.632542 326.300367,554.465311 324.667061,553.87322 C390.320077,551.920678 455.965185,552.195254 522.316253,553.496949" id="Fill-79" fill="#066AAF" sketch:type="MSShapeGroup"></path>
                <path d="M420.23171,460.642938 C427.339865,464.653107 433.14115,467.914124 438.93001,471.19887 C440.288839,471.970621 440.947358,473.266667 441.394653,474.716384 C444.783254,485.709605 448.185409,496.697175 451.888021,508.670056 C446.65828,508.670056 441.974104,508.628249 437.291057,508.694915 C435.810238,508.716384 434.815119,508.112994 434.410746,506.80565 C429.794342,491.865537 425.22086,476.911864 420.23171,460.642938" id="Fill-81" fill="#066AAF" sketch:type="MSShapeGroup"></path>
                <path d="M138.991604,450.465763 C138.991604,475.545989 138.930609,500.627345 139.061635,525.707571 C139.080837,529.226215 137.980672,530.661243 134.464433,530.640904 C132.387221,530.629605 130.286288,531.12565 128.230537,531.559548 C124.288464,532.391186 123.610744,530.767458 124.278298,527.174237 C127.924433,507.51887 131.418081,487.835254 134.949003,468.159548 C136.013024,462.229605 137.028475,456.290621 138.065387,450.356158 C138.374879,450.392316 138.683241,450.429605 138.991604,450.465763" id="Fill-83" fill="#066AAF" sketch:type="MSShapeGroup"></path>
                <path d="M448.432438,476.527232 C455.385848,480.060565 460.740967,482.888814 466.200003,485.501243 C468.260273,486.487684 469.544552,487.824407 470.121744,490.011977 C470.654884,492.032316 471.36649,494.005198 471.985475,496.004068 C476.290127,509.898983 475.780708,510.450395 461.166801,508.715932 C459.210449,508.483164 458.196127,507.891073 457.618936,505.998418 C454.769122,496.656045 451.816521,487.344181 448.432438,476.527232" id="Fill-85" fill="#066AAF" sketch:type="MSShapeGroup"></path>
                <path d="M518.644026,508.661695 C507.753062,508.661695 496.859839,508.548701 485.972264,508.735141 C482.981259,508.787119 481.972585,507.383729 481.25872,504.930621 C480.088523,500.913672 478.742119,496.947571 477.06815,491.697853 C491.632358,496.518192 504.618606,503.585989 518.644026,508.661695" id="Fill-87" fill="#066AAF" sketch:type="MSShapeGroup"></path>
                <path d="M178.54313,604.025537 C174.542321,603.175819 172.676332,601.650395 172.524974,598.002938 C172.143192,588.76226 171.523078,579.529492 170.879244,570.302373 C170.705295,567.800678 171.107409,566.35435 174.076953,566.271864 C177.150415,566.185989 176.825109,568.300113 176.916601,570.070734 C177.493793,581.188249 177.990788,592.309153 178.54313,604.025537" id="Fill-89" fill="#066AAF" sketch:type="MSShapeGroup"></path>
                <path d="M55.2791523,438.529605 C50.8310487,429.719435 51.2365513,427.797401 59.4911834,419.259548 C59.1783026,426.172542 56.4459606,432.084407 55.2791523,438.529605" id="Fill-91" fill="#066AAF" sketch:type="MSShapeGroup"></path>
                <path d="M138.745705,575.852203 C136.003197,573.275932 133.693301,571.106441 131.134907,568.701921 C139.028088,566.159548 139.263031,566.376497 138.745705,575.852203" id="Fill-93" fill="#066AAF" sketch:type="MSShapeGroup"></path>
                <path d="M263.882788,344.89774 C263.773223,344.415254 263.453565,343.593785 263.591368,343.50791 C264.291679,343.072881 264.402373,343.720339 264.532269,344.225424 C264.323306,344.457062 264.106435,344.680791 263.882788,344.89774" id="Fill-95" fill="#066AAF" sketch:type="MSShapeGroup"></path>
                <path d="M196.722296,280.346893 C196.305498,279.705085 195.983581,279.040678 196.720037,278.442938 C196.764089,278.40791 197.379685,279.076836 197.728711,279.418079 L196.722296,280.346893" id="Fill-97" fill="#066AAF" sketch:type="MSShapeGroup"></path>
                <path d="M212.659904,292.441921 C211.110183,293.072429 210.865075,292.394463 211.273966,291.06 C212.141448,291.114237 212.603427,291.574124 212.659904,292.441921" id="Fill-99" fill="#FAC225" sketch:type="MSShapeGroup"></path>
                <path d="M213.92532,293.708588 C212.398191,294.314237 211.93847,293.85322 212.543901,292.326667 C213.410253,292.382034 213.869973,292.841921 213.92532,293.708588" id="Fill-101" fill="#FAC225" sketch:type="MSShapeGroup"></path>
                <path d="M215.190624,294.974463 C213.663494,295.580113 213.203774,295.119096 213.809204,293.592542 C214.675556,293.64678 215.135277,294.107797 215.190624,294.974463" id="Fill-103" fill="#FAC225" sketch:type="MSShapeGroup"></path>
            </g>
        </g>
    </g>
</svg>